<svg fill="none" height="53" viewBox="0 0 61 53" width="61" xmlns="http://www.w3.org/2000/svg" xmlns:xlink="http://www.w3.org/1999/xlink"><mask id="a" height="43" maskUnits="userSpaceOnUse" width="59" x="1" y="3"><rect fill="#fff" height="42.5" rx="4.24286" width="59" x="1" y="3"/></mask><rect fill="#fff" height="42.5" rx="4.24286" width="59" x="1" y="3"/><g mask="url(#a)"><path d="m1 3h59v42.5h-59z" fill="#1537d1"/><path d="m29.0952 3h30.9048v42.5h-30.9048z" fill="#ea3058"/><path clip-rule="evenodd" d="m20.6667 45.5h19.6667v-42.5h-19.6667z" fill="#ffcf3c" fill-rule="evenodd"/><path clip-rule="evenodd" d="m27.6904 21.4167h2.8096v1.4166h-2.8096z" fill="#ffedb1" fill-rule="evenodd"/><path d="m27.8218 20.7071h5.3566c.4135 0 .7388.3533.7047.7654l-.3614 4.3736c-.0909 1.1002-1.0103 1.9468-2.1142 1.9468h-1.8149c-1.1039 0-2.0233-.8466-2.1142-1.9468l-.3614-4.3736c-.034-.4121.2912-.7654.7048-.7654z" stroke="#d32e28" stroke-width="1.41429"/><path clip-rule="evenodd" d="m27.6904 22.8333h5.6191v1.4167h-1.4048-2.8095-1.4048z" fill="#d32e28" fill-rule="evenodd"/></g></svg>