<svg fill="none" height="53" viewBox="0 0 61 53" width="61" xmlns="http://www.w3.org/2000/svg" xmlns:xlink="http://www.w3.org/1999/xlink"><mask id="a" height="43" maskUnits="userSpaceOnUse" width="59" x="1" y="3"><rect fill="#fff" height="42.5" rx="4.24286" width="59" x="1" y="3"/></mask><rect fill="#fff" height="42.5" rx="4.24286" width="59" x="1" y="3"/><g mask="url(#a)"><path d="m29.0952 3h30.9048v42.5h-30.9048z" fill="#1ab11f"/><path clip-rule="evenodd" d="m1 45.5h19.6667v-42.5h-19.6667z" fill="#262626" fill-rule="evenodd"/><path clip-rule="evenodd" d="m20.6667 45.5h19.6667v-42.5h-19.6667z" fill="#dc0d18" fill-rule="evenodd"/><g fill="#fff"><path d="m26.2951 22.8333c0-.7811-.6332-1.4143-1.4142-1.4143-.7811 0-1.4143.6332-1.4143 1.4143zm.6746 6.1255c.6741.3945 1.5404.1678 1.9349-.5064.3945-.6741.1678-1.5404-.5064-1.9349zm5.7871-2.5367c-.6564.4234-.8453 1.2987-.422 1.9551.4234.6564 1.2987.8453 1.9551.4219zm4.7764-3.5888c0-.7811-.6332-1.4143-1.4142-1.4143-.7811 0-1.4143.6332-1.4143 1.4143zm-14.0666 0c0 2.6136 1.4079 4.8995 3.5031 6.1255l1.4285-2.4413c-1.2568-.7354-2.1031-2.1081-2.1031-3.6842zm10.8233 5.9658c1.9506-1.2581 3.2433-3.4617 3.2433-5.9658h-2.8285c0 1.5102-.7768 2.8334-1.9479 3.5888z" opacity=".75"/><path clip-rule="evenodd" d="m30.5 25.6667c1.5516 0 2.8095-1.9028 2.8095-4.25 0-2.3473-1.2579-4.25-2.8095-4.25-1.5517 0-2.8096 1.9027-2.8096 4.25 0 2.3472 1.2579 4.25 2.8096 4.25z" fill-opacity=".5" fill-rule="evenodd"/></g></g></svg>