<svg fill="none" height="53" viewBox="0 0 61 53" width="61" xmlns="http://www.w3.org/2000/svg" xmlns:xlink="http://www.w3.org/1999/xlink"><filter id="a" color-interpolation-filters="sRGB" filterUnits="userSpaceOnUse" height="24.5295" width="25.2857" x="17.8572" y="7.25"><feFlood flood-opacity="0" result="BackgroundImageFix"/><feColorMatrix in="SourceAlpha" type="matrix" values="0 0 0 0 0 0 0 0 0 0 0 0 0 0 0 0 0 0 127 0"/><feOffset/><feColorMatrix type="matrix" values="0 0 0 0 0 0 0 0 0 0 0 0 0 0 0 0 0 0 0.06 0"/><feBlend in2="BackgroundImageFix" mode="normal" result="effect1_dropShadow"/><feBlend in="SourceGraphic" in2="effect1_dropShadow" mode="normal" result="shape"/></filter><filter id="b" color-interpolation-filters="sRGB" filterUnits="userSpaceOnUse" height="11.3333" width="59" x="1" y="20"><feFlood flood-opacity="0" result="BackgroundImageFix"/><feColorMatrix in="SourceAlpha" type="matrix" values="0 0 0 0 0 0 0 0 0 0 0 0 0 0 0 0 0 0 127 0"/><feOffset/><feColorMatrix type="matrix" values="0 0 0 0 0 0 0 0 0 0 0 0 0 0 0 0 0 0 0.06 0"/><feBlend in2="BackgroundImageFix" mode="normal" result="effect1_dropShadow"/><feBlend in="SourceGraphic" in2="effect1_dropShadow" mode="normal" result="shape"/></filter><mask id="c" height="43" maskUnits="userSpaceOnUse" width="59" x="1" y="3"><rect fill="#fff" height="42.5" rx="4.24286" width="59" x="1" y="3"/></mask><mask id="d" height="43" maskUnits="userSpaceOnUse" width="59" x="1" y="3"><path clip-rule="evenodd" d="m1 3h59l-29.5 42.5z" fill="#fff" fill-rule="evenodd"/></mask><rect fill="#fff" height="42.5" rx="4.24286" width="59" x="1" y="3"/><g mask="url(#c)"><path d="m1 3h59v42.5h-59z" fill="#e2243b"/><path clip-rule="evenodd" d="m1 3h59l-29.5 42.5z" fill="#262626" fill-rule="evenodd"/><g mask="url(#d)"><g filter="url(#a)"><path clip-rule="evenodd" d="m30.5 26.375-4.8382 5.4045.3683-7.2717-7.2105.3714 5.359-4.8792-6.3214-5.6667 8.1729 1.4167-1.1491-8.5 5.619 7.0833 5.6191-7.0833-1.1491 8.5 8.1729-1.4167-6.3214 5.6667 5.359 4.8792-7.2105-.3714.3682 7.2717z" fill="#ffcf3c" fill-rule="evenodd"/></g><g filter="url(#b)"><path clip-rule="evenodd" d="m1 31.3333h59v-11.3333h-59z" fill="#1984d8" fill-rule="evenodd"/></g><path clip-rule="evenodd" d="m1 45.5h59v-14.1667h-59z" fill="#fff" fill-rule="evenodd"/></g></g></svg>