<svg fill="none" height="53" viewBox="0 0 61 53" width="61" xmlns="http://www.w3.org/2000/svg" xmlns:xlink="http://www.w3.org/1999/xlink"><linearGradient id="a" gradientUnits="userSpaceOnUse" x1="38.9287" x2="38.9287" y1="20" y2="25.6667"><stop offset="0" stop-color="#ffa51b"/><stop offset="1" stop-color="#ff9a00"/></linearGradient><mask id="b" height="43" maskUnits="userSpaceOnUse" width="59" x="1" y="3"><rect fill="#fff" height="42.5" rx="4.24286" width="59" x="1" y="3"/></mask><mask id="c" height="15" maskUnits="userSpaceOnUse" width="12" x="37" y="17"><path clip-rule="evenodd" d="m37.5239 24.25c0-4.25 0-7.0833 0-7.0833l2.8095 1.4166 2.8096-1.4166 2.8095 1.4166 2.8095-1.4166v7.0833c0 4.25-5.619 7.0833-5.619 7.0833s-5.6191-2.8333-5.6191-7.0833z" fill="#fff" fill-rule="evenodd"/></mask><rect fill="#fff" height="42.5" rx="4.24286" width="59" x="1" y="3"/><g mask="url(#b)"><path d="m1 3h59v42.5h-59z" fill="#0a17a7"/><path clip-rule="evenodd" d="m37.5239 24.25c0-4.25 0-7.0833 0-7.0833l2.8095 1.4166 2.8096-1.4166 2.8095 1.4166 2.8095-1.4166v7.0833c0 4.25-5.619 7.0833-5.619 7.0833s-5.6191-2.8333-5.6191-7.0833z" fill="#fff" fill-rule="evenodd"/><g mask="url(#c)"><path d="m37.5239 28.5h11.2381v2.83333h-11.2381z" fill="#9accff"/><path clip-rule="evenodd" d="m43.143 22.8333c.7758 0 1.4047-.6342 1.4047-1.4166 0-.7825-.6289-1.4167-1.4047-1.4167-.7759 0-1.4048.6342-1.4048 1.4167 0 .7824.6289 1.4166 1.4048 1.4166zm-2.8095 2.8334c.7758 0 1.4047-.6343 1.4047-1.4167s-.6289-1.4167-1.4047-1.4167c-.7759 0-1.4048.6343-1.4048 1.4167s.6289 1.4167 1.4048 1.4167zm7.0238-1.4167c0 .7824-.6289 1.4167-1.4048 1.4167-.7758 0-1.4047-.6343-1.4047-1.4167s.6289-1.4167 1.4047-1.4167c.7759 0 1.4048.6343 1.4048 1.4167z" fill="url(#a)" fill-rule="evenodd"/></g><path d="m1 2.29286h-1.899402l1.436963 1.24212 9.588639 8.28852v2.1477l-9.539515 6.8717-.293828.2116v.3622 1.4166 1.2816l1.084203-.6833 11.06534-6.9745h2.377l9.526 6.862c.1998.1439.4399.2214.6862.2214 1.0876 0 1.5906-1.3511.7678-2.0623l-8.6399-7.4683v-2.1478l9.2457-6.66c.369-.26579.5877-.6928.5877-1.14756v-1.05454-1.2816l-1.0842.68337-11.0653 6.97442h-2.3771l-9.64822-6.94997-.18514-.13336h-.22818z" fill="#ff2e3b" stroke="#fff" stroke-width="1.41429"/><g clip-rule="evenodd" fill-rule="evenodd"><path d="m1 10.0833v5.6667h9.8333v7.0857c0 .7811.6332 1.4143 1.4143 1.4143h2.7905c.7811 0 1.4143-.6332 1.4143-1.4143v-7.0857h9.8238c.7811 0 1.4143-.6332 1.4143-1.4143v-2.8381c0-.7811-.6332-1.4143-1.4143-1.4143h-9.8238v-7.0833h-5.6191v7.0833z" fill="#fff"/><path d="m1 11.5h11.2381v-1.4167-7.0833h2.8095v7.0833 1.4167h11.2381v2.8333h-11.2381v1.4167 7.0833h-2.8095v-7.0833-1.4167h-11.2381z" fill="#ff2e3b"/></g></g></svg>