<svg fill="none" height="53" viewBox="0 0 61 53" width="61" xmlns="http://www.w3.org/2000/svg" xmlns:xlink="http://www.w3.org/1999/xlink"><mask id="a" height="43" maskUnits="userSpaceOnUse" width="59" x="1" y="3"><rect fill="#fff" height="42.5" rx="4.24286" width="59" x="1" y="3"/></mask><g mask="url(#a)"><path d="m1 3h59v42.5h-59z" fill="#ee343c"/><path clip-rule="evenodd" d="m27.1089 12.3301c-.4777-.4817-1.2303-.5564-1.7934-.1778l-1.2384.8326c-.8974.6034-.8133 1.9497.1523 2.4365l2.6836 1.3532c.4768.2404.7775.7289.7775 1.2628v.5483c0 .7811-.6332 1.4143-1.4143 1.4143h-1.0588c-.2212 0-.4393-.0519-.6368-.1515l-4.4012-2.2192c-.5471-.2759-1.2096-.1681-1.641.267l-.7154.7215c-.6765.6822-.4904 1.826.3675 2.2586l1.9931 1.005c.8447.4259.9183 1.6038.1332 2.1316-.912.6132-.6316 2.0224.4457 2.2397l1.1702.236c1.1446.2308 1.4808 1.7046.5495 2.4089l-1.0691.8087c-.6923.5236-.322 1.627.546 1.627.0746 0 .1489-.0092.2213-.0274l2.6397-.6656c1.0161-.2561 1.8158.8716 1.2379 1.7458-.5043.763.0428 1.7806.9574 1.7806h1.2168c.5151 0 .9722.3303 1.1339.8194.3611 1.0926 1.9067 1.0926 2.2678 0 .1617-.4891.6188-.8194 1.1339-.8194h1.2168c.9146 0 1.4618-1.0176.9574-1.7806-.5779-.8742.2218-2.0019 1.238-1.7458l2.6397.6656c.0723.0182.1466.0274.2212.0274.868 0 1.2383-1.1034.546-1.627l-1.0691-.8087c-.9312-.7043-.5951-2.1781.5495-2.4089l1.1702-.236c1.0773-.2173 1.3578-1.6265.4457-2.2397-.7851-.5278-.7114-1.7057.1333-2.1316l1.993-1.005c.8579-.4326 1.044-1.5764.3675-2.2586l-.7154-.7215c-.4314-.4351-1.0939-.5429-1.641-.267l-4.4012 2.2192c-.1975.0996-.4156.1515-.6367.1515h-1.0589c-.7811 0-1.4143-.6332-1.4143-1.4143v-.5483c0-.5339.3007-1.0224.7775-1.2628.8293-.4181 1.8174-.9164 2.6841-1.3534.9655-.4868 1.0493-1.8329.1519-2.4363l-1.2385-.8326c-.5631-.3786-1.3156-.3039-1.7934.1778l-2.3868 2.4071c-.5533.558-1.4553.558-2.0085 0z" fill="#262626" fill-rule="evenodd"/></g></svg>