<svg width="61" height="53" viewBox="0 0 61 53" fill="none" xmlns="http://www.w3.org/2000/svg">
<rect x="1.53036" y="3.53036" width="57.9393" height="41.4393" rx="3.7125" fill="white" stroke="#F5F5F5" stroke-width="1.06071"/>
<mask id="mask0" mask-type="alpha" maskUnits="userSpaceOnUse" x="1" y="3" width="59" height="43">
<rect x="1.53036" y="3.53036" width="57.9393" height="41.4393" rx="3.7125" fill="white" stroke="white" stroke-width="1.06071"/>
</mask>
<g mask="url(#mask0)">
<rect x="23.4763" y="3" width="14.0476" height="42.5" fill="#D6182D"/>
<rect x="1" y="17.1667" width="59" height="14.1667" fill="#1425A2"/>
<path fill-rule="evenodd" clip-rule="evenodd" d="M24.8811 27.7917L23.8878 28.0851L24.1787 27.0833L23.8878 26.0816L24.8811 26.375L25.8744 26.0816L25.5835 27.0833L25.8744 28.0851L24.8811 27.7917Z" fill="white"/>
<path fill-rule="evenodd" clip-rule="evenodd" d="M36.1191 27.7917L35.1258 28.0851L35.4167 27.0833L35.1258 26.0816L36.1191 26.375L37.1124 26.0816L36.8215 27.0833L37.1124 28.0851L36.1191 27.7917Z" fill="white"/>
<path fill-rule="evenodd" clip-rule="evenodd" d="M19.2619 24.9583L18.2686 25.2517L18.5596 24.25L18.2686 23.2483L19.2619 23.5417L20.2553 23.2483L19.9643 24.25L20.2553 25.2517L19.2619 24.9583Z" fill="white"/>
<path fill-rule="evenodd" clip-rule="evenodd" d="M41.738 24.9583L40.7447 25.2517L41.0356 24.25L40.7447 23.2483L41.738 23.5417L42.7313 23.2483L42.4404 24.25L42.7313 25.2517L41.738 24.9583Z" fill="white"/>
<path fill-rule="evenodd" clip-rule="evenodd" d="M30.5 22.125L29.5067 22.4184L29.7976 21.4167L29.5067 20.4149L30.5 20.7083L31.4933 20.4149L31.2024 21.4167L31.4933 22.4184L30.5 22.125Z" fill="white"/>
</g>
</svg>
