<svg fill="none" height="53" viewBox="0 0 61 53" width="61" xmlns="http://www.w3.org/2000/svg" xmlns:xlink="http://www.w3.org/1999/xlink"><mask id="a" height="43" maskUnits="userSpaceOnUse" width="59" x="1" y="3"><rect fill="#fff" height="41.4393" rx="3.7125" stroke="#fff" stroke-width="1.06071" width="57.9393" x="1.53036" y="3.53036"/></mask><rect fill="#fff" height="41.4393" rx="3.7125" stroke="#f5f5f5" stroke-width="1.06071" width="57.9393" x="1.53036" y="3.53036"/><g mask="url(#a)"><path d="m23.4763 3h14.0476v42.5h-14.0476z" fill="#d6182d"/><path d="m1 17.1667h59v14.1667h-59z" fill="#1425a2"/><g clip-rule="evenodd" fill="#fff" fill-rule="evenodd"><path d="m24.8811 27.7917-.9933.2934.2909-1.0018-.2909-1.0017.9933.2934.9933-.2934-.2909 1.0017.2909 1.0018z"/><path d="m36.1191 27.7917-.9933.2934.2909-1.0018-.2909-1.0017.9933.2934.9933-.2934-.2909 1.0017.2909 1.0018z"/><path d="m19.2619 24.9583-.9933.2934.291-1.0017-.291-1.0017.9933.2934.9934-.2934-.291 1.0017.291 1.0017z"/><path d="m41.738 24.9583-.9933.2934.2909-1.0017-.2909-1.0017.9933.2934.9933-.2934-.2909 1.0017.2909 1.0017z"/><path d="m30.5 22.125-.9933.2934.2909-1.0017-.2909-1.0018.9933.2934.9933-.2934-.2909 1.0018.2909 1.0017z"/></g></g></svg>