<svg fill="none" height="53" viewBox="0 0 61 53" width="61" xmlns="http://www.w3.org/2000/svg" xmlns:xlink="http://www.w3.org/1999/xlink"><filter id="a" color-interpolation-filters="sRGB" filterUnits="userSpaceOnUse" height="19.8333" width="59" x="1" y="25.6667"><feFlood flood-opacity="0" result="BackgroundImageFix"/><feColorMatrix in="SourceAlpha" type="matrix" values="0 0 0 0 0 0 0 0 0 0 0 0 0 0 0 0 0 0 127 0"/><feOffset/><feColorMatrix type="matrix" values="0 0 0 0 0 0 0 0 0 0 0 0 0 0 0 0 0 0 0.06 0"/><feBlend in2="BackgroundImageFix" mode="normal" result="effect1_dropShadow"/><feBlend in="SourceGraphic" in2="effect1_dropShadow" mode="normal" result="shape"/></filter><filter id="b" color-interpolation-filters="sRGB" filterUnits="userSpaceOnUse" height="22.6667" width="59" x="1" y="3"><feFlood flood-opacity="0" result="BackgroundImageFix"/><feColorMatrix in="SourceAlpha" type="matrix" values="0 0 0 0 0 0 0 0 0 0 0 0 0 0 0 0 0 0 127 0"/><feOffset/><feColorMatrix type="matrix" values="0 0 0 0 0 0 0 0 0 0 0 0 0 0 0 0 0 0 0.06 0"/><feBlend in2="BackgroundImageFix" mode="normal" result="effect1_dropShadow"/><feBlend in="SourceGraphic" in2="effect1_dropShadow" mode="normal" result="shape"/></filter><filter id="c" color-interpolation-filters="sRGB" filterUnits="userSpaceOnUse" height="18.8825" width="12.9368" x="24.5872" y="15.0744"><feFlood flood-opacity="0" result="BackgroundImageFix"/><feColorMatrix in="SourceAlpha" type="matrix" values="0 0 0 0 0 0 0 0 0 0 0 0 0 0 0 0 0 0 127 0"/><feOffset dy="2.12143"/><feColorMatrix type="matrix" values="0 0 0 0 0 0 0 0 0 0 0 0 0 0 0 0 0 0 0.06 0"/><feBlend in2="BackgroundImageFix" mode="normal" result="effect1_dropShadow"/><feBlend in="SourceGraphic" in2="effect1_dropShadow" mode="normal" result="shape"/></filter><linearGradient id="d" gradientUnits="userSpaceOnUse" x1="1" x2="1" y1="3" y2="45.5"><stop offset="0" stop-color="#ff323e"/><stop offset="1" stop-color="#fd0d1b"/></linearGradient><mask id="e" height="43" maskUnits="userSpaceOnUse" width="59" x="1" y="3"><rect fill="#fff" height="42.5" rx="4.24286" width="59" x="1" y="3"/></mask><rect fill="#fff" height="42.5" rx="4.24286" width="59" x="1" y="3"/><g mask="url(#e)"><path d="m1 3h59v42.5h-59z" fill="url(#d)"/><g filter="url(#a)"><path clip-rule="evenodd" d="m1 45.5h59v-19.8333h-59z" fill="#262626" fill-rule="evenodd"/></g><g filter="url(#b)"><path clip-rule="evenodd" d="m1 25.6667h59v-22.6667h-59z" fill="#dd2137" fill-rule="evenodd"/></g><g filter="url(#c)"><path clip-rule="evenodd" d="m35.131 27.5498c.3505-.62.6288-1.2949.8205-2.0165 1.2048-4.5345-1.4635-9.1953-5.9599-10.4103-.7494-.2025-1.5196.246-1.7204 1.0017-.2008.7558.2439 1.5326.9933 1.7351 2.9976.81 4.7764 3.9172 3.9732 6.9402-.1102.415-.2634.8069-.4535 1.172l-4.3145-2.9007c-.6455-.434-1.5177-.2581-1.948.3929-.4304.651-.256 1.5305.3896 1.9645l3.9557 2.6595c-1.2884.8417-2.9116 1.1509-4.5112.7187-.7493-.2025-1.5196.246-1.7204 1.0018-.2008.7557.2439 1.5325.9933 1.735 2.8091.7591 5.6671-.0064 7.7103-1.7935l2.0008 1.3452c.6456.434 1.5177.2581 1.9481-.3929.4303-.651.2559-1.5306-.3896-1.9646zm-7.4405-6.1331c.7758 0 1.4047-.6343 1.4047-1.4167s-.6289-1.4167-1.4047-1.4167c-.7759 0-1.4048.6343-1.4048 1.4167s.6289 1.4167 1.4048 1.4167z" fill="#f8d84b" fill-rule="evenodd"/></g></g></svg>