<svg fill="none" height="53" viewBox="0 0 61 53" width="61" xmlns="http://www.w3.org/2000/svg" xmlns:xlink="http://www.w3.org/1999/xlink"><linearGradient id="a" gradientUnits="userSpaceOnUse" x1="1" x2="1" y1="3" y2="24.25"><stop offset="0" stop-color="#fff"/><stop offset="1" stop-color="#f0f0f0"/></linearGradient><linearGradient id="b" gradientUnits="userSpaceOnUse" x1="1" x2="1" y1="3" y2="22.8333"><stop offset="0" stop-color="#ff2e3b"/><stop offset="1" stop-color="#fc0d1b"/></linearGradient><mask id="c" height="43" maskUnits="userSpaceOnUse" width="59" x="1" y="3"><rect fill="#fff" height="42.5" rx="4.24286" width="59" x="1" y="3"/></mask><rect fill="#fff" height="42.5" rx="4.24286" width="59" x="1" y="3"/><g mask="url(#c)"><path d="m1 3h59v42.5h-59z" fill="#0a17a7"/><path d="m1 2.29286h-1.899402l1.436963 1.24212 9.588639 8.28852v2.1477l-9.539515 6.8717-.293828.2116v.3622 1.4166 1.2816l1.084203-.6833 11.06534-6.9745h2.377l9.526 6.862c.1998.1439.4399.2214.6862.2214 1.0876 0 1.5906-1.3511.7678-2.0623l-8.6399-7.4683v-2.1478l9.2457-6.66c.369-.26579.5877-.6928.5877-1.14756v-1.05454-1.2816l-1.0842.68337-11.0653 6.97442h-2.3771l-9.64822-6.94997-.18514-.13336h-.22818z" fill="#ff2e3b" stroke="#fff" stroke-width="1.41429"/><g clip-rule="evenodd" fill-rule="evenodd"><path d="m1 10.0833v5.6667h9.8333v7.0857c0 .7811.6332 1.4143 1.4143 1.4143h2.7905c.7811 0 1.4143-.6332 1.4143-1.4143v-7.0857h9.8238c.7811 0 1.4143-.6332 1.4143-1.4143v-2.8381c0-.7811-.6332-1.4143-1.4143-1.4143h-9.8238v-7.0833h-5.6191v7.0833z" fill="url(#a)"/><path d="m1 11.5h11.2381v-1.4167-7.0833h2.8095v7.0833 1.4167h11.2381v2.8333h-11.2381v1.4167 7.0833h-2.8095v-7.0833-1.4167h-11.2381z" fill="url(#b)"/><path d="m13.643 37.7083-2.4771 1.3134.4731-2.7817-2.00403-1.97 2.76943-.4058 1.2386-2.5309 1.2385 2.5309 2.7695.4058-2.004 1.97.4731 2.7817z" fill="#fff"/><path d="m43.1428 39.8333-1.9867.5868.5819-2.0034-.5819-2.0035 1.9867.5868 1.9866-.5868-.5819 2.0035.5819 2.0034z" fill="#fff"/><path d="m43.1428 12.9167-1.9867.5868.5819-2.0035-.5819-2.00346 1.9867.58676 1.9866-.58676-.5819 2.00346.5819 2.0035z" fill="#fff"/><path d="m51.5715 21.4167-1.9866.5868.5818-2.0035-.5818-2.0035 1.9866.5868 1.9866-.5868-.5818 2.0035.5818 2.0035z" fill="#fff"/><path d="m34.7143 24.25-1.9866.5868.5818-2.0035-.5818-2.0034 1.9866.5868 1.9866-.5868-.5818 2.0034.5818 2.0035z" fill="#fff"/><path d="m47.3572 27.7917-.9934.2934.291-1.0018-.291-1.0017.9934.2934.9933-.2934-.291 1.0017.291 1.0018z" fill="#fff"/></g></g></svg>