<svg fill="none" height="53" viewBox="0 0 61 53" width="61" xmlns="http://www.w3.org/2000/svg" xmlns:xlink="http://www.w3.org/1999/xlink"><filter id="a" color-interpolation-filters="sRGB" filterUnits="userSpaceOnUse" height="46.7429" width="63.2429" x="-1.12143" y="3"><feFlood flood-opacity="0" result="BackgroundImageFix"/><feColorMatrix in="SourceAlpha" type="matrix" values="0 0 0 0 0 0 0 0 0 0 0 0 0 0 0 0 0 0 127 0"/><feOffset dy="2.12143"/><feGaussianBlur stdDeviation="1.06071"/><feColorMatrix type="matrix" values="0 0 0 0 0 0 0 0 0 0 0 0 0 0 0 0 0 0 0.16 0"/><feBlend in2="BackgroundImageFix" mode="normal" result="effect1_dropShadow"/><feBlend in="SourceGraphic" in2="effect1_dropShadow" mode="normal" result="shape"/></filter><mask id="b" height="43" maskUnits="userSpaceOnUse" width="59" x="1" y="3"><rect fill="#fff" height="42.5" rx="4.24286" width="59" x="1" y="3"/></mask><rect fill="#fff" height="42.5" rx="4.24286" width="59" x="1" y="3"/><g mask="url(#b)"><g filter="url(#a)"><path d="m1 3h59v42.5h-59z" fill="#4189dd"/></g><path d="m12.866 8.33816-.6242-1.20652-.6243 1.20652-1.3427 2.59494-2.57307 1.354-1.19639.6296 1.19639.6295 2.57307 1.3541 1.3427 2.5949.6243 1.2065.6242-1.2065 1.3427-2.5949 2.5731-1.3541 1.1964-.6295-1.1964-.6296-2.5731-1.354z" fill="#d21034" stroke="#fff" stroke-width="1.41429"/><g fill="#f9d616"><path d="m1 34.1667h59v2.83333h-59z"/><path d="m1 28.5h59v2.83333h-59z"/></g></g></svg>