<svg width="61" height="53" viewBox="0 0 61 53" fill="none" xmlns="http://www.w3.org/2000/svg">
<rect x="1" y="3" width="59" height="42.5" rx="4.24286" fill="white"/>
<mask id="mask0" mask-type="alpha" maskUnits="userSpaceOnUse" x="1" y="3" width="59" height="43">
<rect x="1" y="3" width="59" height="42.5" rx="4.24286" fill="white"/>
</mask>
<g mask="url(#mask0)">
<g filter="url(#filter0_d)">
<rect x="1" y="3" width="59" height="42.5" fill="#4189DD"/>
</g>
<path d="M12.866 8.33816L12.2418 7.13164L11.6175 8.33816L10.2748 10.9331L7.70173 12.2871L6.50534 12.9167L7.70173 13.5462L10.2748 14.9003L11.6175 17.4952L12.2418 18.7017L12.866 17.4952L14.2087 14.9003L16.7818 13.5462L17.9782 12.9167L16.7818 12.2871L14.2087 10.9331L12.866 8.33816Z" fill="#D21034" stroke="white" stroke-width="1.41429"/>
<rect x="1" y="34.1667" width="59" height="2.83333" fill="#F9D616"/>
<rect x="1" y="28.5" width="59" height="2.83333" fill="#F9D616"/>
</g>
<defs>
<filter id="filter0_d" x="-1.12143" y="3" width="63.2429" height="46.7429" filterUnits="userSpaceOnUse" color-interpolation-filters="sRGB">
<feFlood flood-opacity="0" result="BackgroundImageFix"/>
<feColorMatrix in="SourceAlpha" type="matrix" values="0 0 0 0 0 0 0 0 0 0 0 0 0 0 0 0 0 0 127 0"/>
<feOffset dy="2.12143"/>
<feGaussianBlur stdDeviation="1.06071"/>
<feColorMatrix type="matrix" values="0 0 0 0 0 0 0 0 0 0 0 0 0 0 0 0 0 0 0.16 0"/>
<feBlend mode="normal" in2="BackgroundImageFix" result="effect1_dropShadow"/>
<feBlend mode="normal" in="SourceGraphic" in2="effect1_dropShadow" result="shape"/>
</filter>
</defs>
</svg>
