<svg width="61" height="53" viewBox="0 0 61 53" fill="none" xmlns="http://www.w3.org/2000/svg">
<rect x="1" y="3" width="59" height="42.5" rx="4.24286" fill="white"/>
<mask id="mask0" mask-type="alpha" maskUnits="userSpaceOnUse" x="1" y="3" width="59" height="43">
<rect x="1" y="3" width="59" height="42.5" rx="4.24286" fill="white"/>
</mask>
<g mask="url(#mask0)">
<rect x="1" y="3" width="59" height="42.5" fill="#0B36B2"/>
<g filter="url(#filter0_d)">
<path fill-rule="evenodd" clip-rule="evenodd" d="M48.7617 45.5V3H19.2617L48.7617 45.5Z" fill="#FFD045"/>
</g>
<path fill-rule="evenodd" clip-rule="evenodd" d="M37.5239 42.6667L35.5372 43.2535L36.1191 41.25L35.5372 39.2465L37.5239 39.8333L39.5105 39.2465L38.9286 41.25L39.5105 43.2535L37.5239 42.6667Z" fill="white"/>
<path fill-rule="evenodd" clip-rule="evenodd" d="M31.9047 34.1667L29.9181 34.7535L30.5 32.75L29.9181 30.7465L31.9047 31.3333L33.8914 30.7465L33.3095 32.75L33.8914 34.7535L31.9047 34.1667Z" fill="white"/>
<path fill-rule="evenodd" clip-rule="evenodd" d="M26.2856 25.6667L24.299 26.2535L24.8808 24.25L24.299 22.2465L26.2856 22.8333L28.2722 22.2465L27.6904 24.25L28.2722 26.2535L26.2856 25.6667Z" fill="white"/>
<path fill-rule="evenodd" clip-rule="evenodd" d="M20.6669 17.1667L18.6803 17.7535L19.2622 15.75L18.6803 13.7465L20.6669 14.3333L22.6536 13.7465L22.0717 15.75L22.6536 17.7535L20.6669 17.1667Z" fill="white"/>
<path fill-rule="evenodd" clip-rule="evenodd" d="M15.0473 8.66666L13.0607 9.25346L13.6426 7.24999L13.0607 5.24652L15.0473 5.83332L17.0339 5.24652L16.4521 7.24999L17.0339 9.25346L15.0473 8.66666Z" fill="white"/>
</g>
<defs>
<filter id="filter0_d" x="19.2617" y="3" width="29.5" height="42.5" filterUnits="userSpaceOnUse" color-interpolation-filters="sRGB">
<feFlood flood-opacity="0" result="BackgroundImageFix"/>
<feColorMatrix in="SourceAlpha" type="matrix" values="0 0 0 0 0 0 0 0 0 0 0 0 0 0 0 0 0 0 127 0"/>
<feOffset/>
<feColorMatrix type="matrix" values="0 0 0 0 0 0 0 0 0 0 0 0 0 0 0 0 0 0 0.06 0"/>
<feBlend mode="normal" in2="BackgroundImageFix" result="effect1_dropShadow"/>
<feBlend mode="normal" in="SourceGraphic" in2="effect1_dropShadow" result="shape"/>
</filter>
</defs>
</svg>
