<svg fill="none" height="53" viewBox="0 0 61 53" width="61" xmlns="http://www.w3.org/2000/svg" xmlns:xlink="http://www.w3.org/1999/xlink"><filter id="a" color-interpolation-filters="sRGB" filterUnits="userSpaceOnUse" height="42.5" width="29.5" x="19.2617" y="3"><feFlood flood-opacity="0" result="BackgroundImageFix"/><feColorMatrix in="SourceAlpha" type="matrix" values="0 0 0 0 0 0 0 0 0 0 0 0 0 0 0 0 0 0 127 0"/><feOffset/><feColorMatrix type="matrix" values="0 0 0 0 0 0 0 0 0 0 0 0 0 0 0 0 0 0 0.06 0"/><feBlend in2="BackgroundImageFix" mode="normal" result="effect1_dropShadow"/><feBlend in="SourceGraphic" in2="effect1_dropShadow" mode="normal" result="shape"/></filter><mask id="b" height="43" maskUnits="userSpaceOnUse" width="59" x="1" y="3"><rect fill="#fff" height="42.5" rx="4.24286" width="59" x="1" y="3"/></mask><rect fill="#fff" height="42.5" rx="4.24286" width="59" x="1" y="3"/><g mask="url(#b)"><path d="m1 3h59v42.5h-59z" fill="#0b36b2"/><g filter="url(#a)"><path clip-rule="evenodd" d="m48.7617 45.5v-42.5h-29.5z" fill="#ffd045" fill-rule="evenodd"/></g><g clip-rule="evenodd" fill="#fff" fill-rule="evenodd"><path d="m37.5239 42.6667-1.9867.5868.5819-2.0035-.5819-2.0035 1.9867.5868 1.9866-.5868-.5819 2.0035.5819 2.0035z"/><path d="m31.9047 34.1667-1.9866.5868.5819-2.0035-.5819-2.0035 1.9866.5868 1.9867-.5868-.5819 2.0035.5819 2.0035z"/><path d="m26.2856 25.6667-1.9866.5868.5818-2.0035-.5818-2.0035 1.9866.5868 1.9866-.5868-.5818 2.0035.5818 2.0035z"/><path d="m20.6669 17.1667-1.9866.5868.5819-2.0035-.5819-2.0035 1.9866.5868 1.9867-.5868-.5819 2.0035.5819 2.0035z"/><path d="m15.0473 8.66666-1.9866.5868.5819-2.00347-.5819-2.00347 1.9866.5868 1.9866-.5868-.5818 2.00347.5818 2.00347z"/></g></g></svg>