<svg fill="none" height="53" viewBox="0 0 61 53" width="61" xmlns="http://www.w3.org/2000/svg" xmlns:xlink="http://www.w3.org/1999/xlink"><linearGradient id="a" gradientUnits="userSpaceOnUse" x1="1" x2="1" y1="3" y2="45.5"><stop offset="0" stop-color="#1132c7"/><stop offset="1" stop-color="#0522a5"/></linearGradient><mask id="b" height="43" maskUnits="userSpaceOnUse" width="59" x="1" y="3"><rect fill="#fff" height="42.5" rx="4.24286" width="59" x="1" y="3"/></mask><rect fill="#fff" height="42.5" rx="4.24286" width="59" x="1" y="3"/><g mask="url(#b)"><path d="m1 3h59v42.5h-59z" fill="url(#a)"/><path d="m29.0952 3h30.9048v42.5h-30.9048z" fill="#08379d"/><g clip-rule="evenodd" fill-rule="evenodd"><path d="m1 45.5h19.6667v-42.5h-19.6667z" fill="#08379d"/><path d="m20.6665 45.5h19.6667v-42.5h-19.6667z" fill="#ffcc50"/><path d="m29.9581 16.637c.2835-.4203.9041-.4146 1.1798.0109l1.4643 2.2605c.3047.4705-.033 1.0916-.5935 1.0916h-.0258c-.4182 0-.745.3608-.7037.7769l.5621 5.6691c.0359.3617.3402.6373.7037.6373h.4718c.1873 0 .3669-.0742.4995-.2065l.99-.9877c.133-.1327.2077-.3128.2077-.5006v-2.264c0-.1865-.0737-.3655-.205-.4979l-.4002-.4036c-.3686-.3718-.2194-1.0013.2769-1.1682l2.0018-.6729c.5104-.1716 1.0176.2674.921.7971l-1.036 5.6813c-.0265.1451-.0976.2782-.2035.3809l-2.554 2.476c-.132.128-.3085.1995-.4922.1995h-.4112c-.3905 0-.7071.3166-.7071.7071v1.4191c0 .3905-.3166.7071-.7071.7071h-1.3953c-.3905 0-.7071-.3166-.7071-.7071v-1.4191c0-.3905-.3166-.7071-.7072-.7071h-.4029c-.1886 0-.3694-.0753-.5022-.2093l-2.452-2.4727c-.0978-.0987-.1644-.2241-.1915-.3604l-1.126-5.6778c-.1057-.5328.404-.9809.919-.8078l1.9816.6661c.4963.1669.6455.7964.2768 1.1682l-.4001.4036c-.1314.1324-.205.3114-.205.4979v2.264c0 .1878.0747.3679.2077.5006l.99.9877c.1326.1323.3122.2065.4994.2065h.4719c.3635 0 .6678-.2756.7037-.6373l.5622-5.6703c.0412-.4154-.2851-.7757-.7025-.7757-.5656 0-.9016-.6318-.5854-1.1007z" fill="#262626"/></g></g></svg>