<svg fill="none" height="53" viewBox="0 0 61 53" width="61" xmlns="http://www.w3.org/2000/svg" xmlns:xlink="http://www.w3.org/1999/xlink"><mask id="a" height="43" maskUnits="userSpaceOnUse" width="59" x="1" y="3"><rect fill="#fff" height="42.5" rx="4.24286" width="59" x="1" y="3"/></mask><rect fill="#fff" height="42.5" rx="4.24286" width="59" x="1" y="3"/><g mask="url(#a)"><path d="m1 3h59v42.5h-59z" fill="#e4233b"/><g clip-rule="evenodd" fill-rule="evenodd"><path d="m1 3 25.2857 21.25-25.2857 21.25z" fill="#34cd4e"/><path d="m60 3-25.2857 21.25 25.2857 21.25z" fill="#34cd4e"/><path d="m24.2584 16.5867-25.96075-17.65915-3.14213 4.69788 25.95878 17.65777c-.2909.9368-.4476 1.9333-.4476 2.9668s.1567 2.03.4476 2.9668l-25.95878 17.6578 3.14213 4.6978 25.96075-17.6591c1.6979 1.408 3.8718 2.2534 6.2416 2.2534 2.3697 0 4.5437-.8454 6.2415-2.2534l25.9608 17.6591 3.1422-4.6978-25.9588-17.6578c.2909-.9368.4476-1.9333.4476-2.9668s-.1567-2.03-.4476-2.9668l25.9588-17.65777-3.1422-4.69788-25.9608 17.65915c-1.6978-1.408-3.8718-2.2534-6.2415-2.2534-2.3698 0-4.5437.8454-6.2416 2.2534z" fill="#fff"/><path d="m30.5 21.4167-1.9867.5868.5819-2.0035-.5819-2.0035 1.9867.5868 1.9866-.5868-.5819 2.0035.5819 2.0035zm-4.2143 7.0833-1.9866.5868.5818-2.0035-.5818-2.0034 1.9866.5868 1.9866-.5868-.5818 2.0034.5818 2.0035zm6.442.5868 1.9866-.5868 1.9866.5868-.5818-2.0035.5818-2.0034-1.9866.5868-1.9866-.5868.5818 2.0034z" fill="#df2239"/></g></g></svg>