<svg width="61" height="53" viewBox="0 0 61 53" fill="none" xmlns="http://www.w3.org/2000/svg">
<rect x="1" y="3" width="59" height="42.5" rx="4.24286" fill="white"/>
<mask id="mask0" mask-type="alpha" maskUnits="userSpaceOnUse" x="1" y="3" width="59" height="43">
<rect x="1" y="3" width="59" height="42.5" rx="4.24286" fill="white"/>
</mask>
<g mask="url(#mask0)">
<rect x="1" y="3" width="59" height="42.5" fill="#E4233B"/>
<path fill-rule="evenodd" clip-rule="evenodd" d="M1 3L26.2857 24.25L1 45.5V3Z" fill="#34CD4E"/>
<path fill-rule="evenodd" clip-rule="evenodd" d="M60 3L34.7143 24.25L60 45.5V3Z" fill="#34CD4E"/>
<path fill-rule="evenodd" clip-rule="evenodd" d="M24.2584 16.5867L-1.70235 -1.07245L-4.84448 3.62543L21.1143 21.2832C20.8234 22.22 20.6667 23.2165 20.6667 24.25C20.6667 25.2835 20.8234 26.28 21.1143 27.2168L-4.84448 44.8746L-1.70235 49.5724L24.2584 31.9133C25.9563 33.3213 28.1302 34.1667 30.5 34.1667C32.8697 34.1667 35.0437 33.3213 36.7415 31.9133L62.7023 49.5724L65.8445 44.8746L39.8857 27.2168C40.1766 26.28 40.3333 25.2835 40.3333 24.25C40.3333 23.2165 40.1766 22.22 39.8857 21.2832L65.8445 3.62543L62.7023 -1.07245L36.7415 16.5867C35.0437 15.1787 32.8697 14.3333 30.5 14.3333C28.1302 14.3333 25.9563 15.1787 24.2584 16.5867Z" fill="white"/>
<path fill-rule="evenodd" clip-rule="evenodd" d="M30.5 21.4167L28.5133 22.0035L29.0952 20L28.5133 17.9965L30.5 18.5833L32.4866 17.9965L31.9047 20L32.4866 22.0035L30.5 21.4167ZM26.2857 28.5L24.2991 29.0868L24.8809 27.0833L24.2991 25.0799L26.2857 25.6667L28.2723 25.0799L27.6905 27.0833L28.2723 29.0868L26.2857 28.5ZM32.7277 29.0868L34.7143 28.5L36.7009 29.0868L36.1191 27.0833L36.7009 25.0799L34.7143 25.6667L32.7277 25.0799L33.3095 27.0833L32.7277 29.0868Z" fill="#DF2239"/>
</g>
</svg>
