<svg fill="none" height="53" viewBox="0 0 61 53" width="61" xmlns="http://www.w3.org/2000/svg" xmlns:xlink="http://www.w3.org/1999/xlink"><linearGradient id="a" gradientUnits="userSpaceOnUse" x1="38.9287" x2="38.9287" y1="20" y2="25.6667"><stop offset="0" stop-color="#e20b0c"/><stop offset="1" stop-color="#d40001"/></linearGradient><linearGradient id="b" gradientUnits="userSpaceOnUse" x1="1" x2="1" y1="3" y2="22.8333"><stop offset="0" stop-color="#db1e36"/><stop offset="1" stop-color="#d51931"/></linearGradient><mask id="c" height="43" maskUnits="userSpaceOnUse" width="59" x="1" y="3"><rect fill="#fff" height="42.5" rx="4.24286" width="59" x="1" y="3"/></mask><mask id="d" height="15" maskUnits="userSpaceOnUse" width="12" x="37" y="17"><path clip-rule="evenodd" d="m37.5239 24.25c0-4.25 0-7.0833 0-7.0833h5.6191 5.619v7.0833c0 4.25-5.619 7.0833-5.619 7.0833s-5.6191-2.8333-5.6191-7.0833z" fill="#fff" fill-rule="evenodd"/></mask><rect fill="#fff" height="42.5" rx="4.24286" width="59" x="1" y="3"/><g mask="url(#c)"><path d="m1 3h59v42.5h-59z" fill="#dc1f37"/><path d="m1 3h25.2857v19.8333h-25.2857z" fill="#042c90"/><path clip-rule="evenodd" d="m37.5239 24.25c0-4.25 0-7.0833 0-7.0833h5.6191 5.619v7.0833c0 4.25-5.619 7.0833-5.619 7.0833s-5.6191-2.8333-5.6191-7.0833z" fill="#fff" fill-rule="evenodd"/><g mask="url(#d)"><path clip-rule="evenodd" d="m43.143 28.5c1.5517 0 2.8095-1.2685 2.8095-2.8334 0-1.5648-1.2578-2.8333-2.8095-2.8333-1.5516 0-2.8095 1.2685-2.8095 2.8333 0 1.5649 1.2579 2.8334 2.8095 2.8334z" fill="#65b5d2" fill-rule="evenodd"/><path clip-rule="evenodd" d="m43.143 22.8333c.7758 0 1.4047-.6342 1.4047-1.4166s-.6289-1.4167-1.4047-1.4167c-.7759 0-1.4048.6343-1.4048 1.4167s.6289 1.4166 1.4048 1.4166zm-2.8095 2.8334c.7758 0 1.4047-.6343 1.4047-1.4167s-.6289-1.4167-1.4047-1.4167c-.7759 0-1.4048.6343-1.4048 1.4167s.6289 1.4167 1.4048 1.4167zm7.0238-1.4167c0 .7824-.6289 1.4167-1.4048 1.4167-.7758 0-1.4047-.6343-1.4047-1.4167s.6289-1.4167 1.4047-1.4167c.7759 0 1.4048.6343 1.4048 1.4167z" fill="url(#a)" fill-rule="evenodd"/><path d="m37.5239 28.5h11.2381v2.83333h-11.2381z" fill="#2f8f22"/></g><path d="m1 2.29286h-1.899402l1.436963 1.24212 9.588639 8.28852v2.1477l-9.539515 6.8717-.293828.2116v.3622 1.4166 1.2816l1.084203-.6833 11.06534-6.9745h2.377l9.526 6.862c.1998.1439.4399.2214.6862.2214 1.0876 0 1.5906-1.3511.7678-2.0623l-8.6399-7.4683v-2.1478l9.2457-6.66c.369-.26579.5877-.6928.5877-1.14756v-1.05454-1.2816l-1.0842.68337-11.0653 6.97442h-2.3771l-9.64822-6.94997-.18514-.13336h-.22818z" fill="#db1e36" stroke="#fff" stroke-width="1.41429"/><g clip-rule="evenodd" fill-rule="evenodd"><path d="m1 10.0833v5.6667h9.8333v7.0857c0 .7811.6332 1.4143 1.4143 1.4143h2.7905c.7811 0 1.4143-.6332 1.4143-1.4143v-7.0857h9.8238c.7811 0 1.4143-.6332 1.4143-1.4143v-2.8381c0-.7811-.6332-1.4143-1.4143-1.4143h-9.8238v-7.0833h-5.6191v7.0833z" fill="#fff"/><path d="m1 11.5h11.2381v-1.4167-7.0833h2.8095v7.0833 1.4167h11.2381v2.8333h-11.2381v1.4167 7.0833h-2.8095v-7.0833-1.4167h-11.2381z" fill="url(#b)"/></g></g></svg>