<svg fill="none" height="53" viewBox="0 0 61 53" width="61" xmlns="http://www.w3.org/2000/svg" xmlns:xlink="http://www.w3.org/1999/xlink"><mask id="a" height="43" maskUnits="userSpaceOnUse" width="59" x="1" y="3"><rect fill="#fff" height="42.5" rx="4.24286" width="59" x="1" y="3"/></mask><mask id="b" height="21" maskUnits="userSpaceOnUse" width="21" x="20" y="14"><path clip-rule="evenodd" d="m30.5001 34.1667c5.4308 0 9.8333-4.4399 9.8333-9.9167s-4.4025-9.9167-9.8333-9.9167-9.8334 4.4399-9.8334 9.9167 4.4026 9.9167 9.8334 9.9167z" fill="#fff" fill-rule="evenodd"/></mask><rect fill="#fff" height="42.5" rx="4.24286" width="59" x="1" y="3"/><g mask="url(#a)"><path d="m1 3h59v42.5h-59z" fill="#05ab41"/><path clip-rule="evenodd" d="m8.43398 25.4344c-.8552-.558-.8552-1.8108 0-2.3688l21.29302-13.8946c.4696-.30649 1.0761-.30649 1.5457 0l21.293 13.8946c.8552.558.8552 1.8108 0 2.3688l-21.293 13.8946c-.4696.3065-1.0761.3065-1.5457 0z" fill="#fdd216" fill-rule="evenodd"/><path clip-rule="evenodd" d="m30.5001 34.1667c5.4308 0 9.8333-4.4399 9.8333-9.9167s-4.4025-9.9167-9.8333-9.9167-9.8334 4.4399-9.8334 9.9167 4.4026 9.9167 9.8334 9.9167z" fill="#053087" fill-rule="evenodd"/><g mask="url(#b)"><path d="m19.5007 21.658c1.5439-1.2608 6.5259-.0664 11.1765 1.1847s9.501 3.8734 10.736 5.4114" stroke="#fff" stroke-linecap="square" stroke-width="2.82857"/></g></g></svg>