<svg width="61" height="53" viewBox="0 0 61 53" fill="none" xmlns="http://www.w3.org/2000/svg">
<rect x="1" y="3" width="59" height="42.5" rx="4.24286" fill="white"/>
<mask id="mask0" mask-type="alpha" maskUnits="userSpaceOnUse" x="1" y="3" width="59" height="43">
<rect x="1" y="3" width="59" height="42.5" rx="4.24286" fill="white"/>
</mask>
<g mask="url(#mask0)">
<rect x="1" y="3" width="59" height="42.5" fill="#05AB41"/>
<path fill-rule="evenodd" clip-rule="evenodd" d="M8.43398 25.4344C7.57878 24.8764 7.57878 23.6236 8.43398 23.0656L29.727 9.171C30.1966 8.86451 30.8031 8.86451 31.2727 9.171L52.5657 23.0656C53.4209 23.6236 53.4209 24.8764 52.5657 25.4344L31.2727 39.329C30.8031 39.6355 30.1966 39.6355 29.727 39.329L8.43398 25.4344Z" fill="#FDD216"/>
<path fill-rule="evenodd" clip-rule="evenodd" d="M30.5001 34.1667C35.9309 34.1667 40.3334 29.7268 40.3334 24.25C40.3334 18.7732 35.9309 14.3333 30.5001 14.3333C25.0693 14.3333 20.6667 18.7732 20.6667 24.25C20.6667 29.7268 25.0693 34.1667 30.5001 34.1667Z" fill="#053087"/>
<mask id="mask1" mask-type="alpha" maskUnits="userSpaceOnUse" x="20" y="14" width="21" height="21">
<path fill-rule="evenodd" clip-rule="evenodd" d="M30.5001 34.1667C35.9309 34.1667 40.3334 29.7268 40.3334 24.25C40.3334 18.7732 35.9309 14.3333 30.5001 14.3333C25.0693 14.3333 20.6667 18.7732 20.6667 24.25C20.6667 29.7268 25.0693 34.1667 30.5001 34.1667Z" fill="white"/>
</mask>
<g mask="url(#mask1)">
<path d="M19.5007 21.658C21.0446 20.3972 26.0266 21.5916 30.6772 22.8427C35.3278 24.0938 40.1782 26.7161 41.4132 28.2541" stroke="white" stroke-width="2.82857" stroke-linecap="square"/>
</g>
</g>
</svg>
