<svg width="64" height="53" viewBox="0 0 64 53" fill="none" xmlns="http://www.w3.org/2000/svg">
<rect x="5" y="3" width="59" height="42.5" rx="4.24286" fill="white"/>
<mask id="mask0" mask-type="alpha" maskUnits="userSpaceOnUse" x="5" y="3" width="59" height="43">
<rect x="5" y="3" width="59" height="42.5" rx="4.24286" fill="white"/>
</mask>
<g mask="url(#mask0)">
<path fill-rule="evenodd" clip-rule="evenodd" d="M5 31.3333H64V3H5V31.3333Z" fill="#E54252"/>
<path fill-rule="evenodd" clip-rule="evenodd" d="M5 45.5H64V31.3333H5V45.5Z" fill="#5CBE6B"/>
<path fill-rule="evenodd" clip-rule="evenodd" d="M5 3H13.4286V9.37509L12.0239 11.5L13.4286 13.6249V17.8751L12.0239 20L13.4286 22.1249V26.3751L12.0239 28.5L13.4286 30.6249V34.8751L12.0239 37L13.4286 39.1249V45.5H5V3Z" fill="white"/>
<path fill-rule="evenodd" clip-rule="evenodd" d="M3.59518 7.25L0.785653 11.5L3.59518 15.75L0.785645 20L3.59517 24.25L6.40469 20L3.59518 15.75L6.4047 11.5L3.59518 7.25ZM0.785645 28.5L3.59517 24.25L6.40469 28.5L3.59517 32.75L0.785645 28.5ZM3.59517 32.75L6.40469 37L3.59517 41.25L0.785645 37L3.59517 32.75Z" fill="#E54252"/>
<path fill-rule="evenodd" clip-rule="evenodd" d="M6.40479 7.25L9.21431 3L12.0238 7.25L9.21431 11.5L6.40479 7.25ZM6.40481 15.75L9.21433 11.5L12.0239 15.75L9.21433 20L6.40481 15.75ZM9.21433 20L12.0239 24.25L9.21433 28.5L6.40481 24.25L9.21433 20ZM6.40481 32.75L9.21433 28.5L12.0239 32.75L9.21433 37L6.40481 32.75ZM9.21433 37L12.0239 41.25L9.21433 45.5L6.40481 41.25L9.21433 37Z" fill="#E54252"/>
</g>
</svg>
