<svg fill="none" height="53" viewBox="0 0 64 53" width="64" xmlns="http://www.w3.org/2000/svg" xmlns:xlink="http://www.w3.org/1999/xlink"><mask id="a" height="43" maskUnits="userSpaceOnUse" width="59" x="5" y="3"><rect fill="#fff" height="42.5" rx="4.24286" width="59" x="5" y="3"/></mask><rect fill="#fff" height="42.5" rx="4.24286" width="59" x="5" y="3"/><g clip-rule="evenodd" fill-rule="evenodd" mask="url(#a)"><path d="m5 31.3333h59v-28.3333h-59z" fill="#e54252"/><path d="m5 45.5h59v-14.1667h-59z" fill="#5cbe6b"/><path d="m5 3h8.4286v6.37509l-1.4047 2.12491 1.4047 2.1249v4.2502l-1.4047 2.1249 1.4047 2.1249v4.2502l-1.4047 2.1249 1.4047 2.1249v4.2502l-1.4047 2.1249 1.4047 2.1249v6.3751h-8.4286z" fill="#fff"/><g fill="#e54252"><path d="m3.59518 7.25-2.809527 4.25 2.809527 4.25-2.809535 4.25 2.809525 4.25 2.80952-4.25-2.80951-4.25 2.80952-4.25zm-2.809535 21.25 2.809525-4.25 2.80952 4.25-2.80952 4.25zm2.809525 4.25 2.80952 4.25-2.80952 4.25-2.809525-4.25z"/><path d="m6.40479 7.25 2.80952-4.25 2.80949 4.25-2.80949 4.25zm.00002 8.5 2.80952-4.25 2.80957 4.25-2.80957 4.25zm2.80952 4.25 2.80957 4.25-2.80957 4.25-2.80952-4.25zm-2.80952 12.75 2.80952-4.25 2.80957 4.25-2.80957 4.25zm2.80952 4.25 2.80957 4.25-2.80957 4.25-2.80952-4.25z"/></g></g></svg>