<svg fill="none" height="53" viewBox="0 0 61 53" width="61" xmlns="http://www.w3.org/2000/svg" xmlns:xlink="http://www.w3.org/1999/xlink"><mask id="a" height="43" maskUnits="userSpaceOnUse" width="59" x="1" y="3"><rect fill="#fff" height="42.5" rx="4.24286" width="59" x="1" y="3"/></mask><rect fill="#fff" height="42.5" rx="4.24286" width="59" x="1" y="3"/><g clip-rule="evenodd" fill-rule="evenodd" mask="url(#a)"><path d="m1 39.8333h59v-31.16664h-59z" fill="#094995"/><path d="m1 8.66667h59v-5.66667h-59z" fill="#d5182f"/><path d="m1 45.5h59v-5.6667h-59z" fill="#d5182f"/><path d="m30.5 37c6.9825 0 12.6429-5.7084 12.6429-12.75s-5.6604-12.75-12.6429-12.75c-6.9824 0-12.6428 5.7084-12.6428 12.75s5.6604 12.75 12.6428 12.75z" fill="#fff"/><path d="m30.5001 32.75c4.655 0 8.4286-3.8056 8.4286-8.5s-3.7736-8.5-8.4286-8.5-8.4286 3.8056-8.4286 8.5 3.7736 8.5 8.4286 8.5z" stroke="#118014" stroke-dasharray="1.41 4.24" stroke-linecap="round" stroke-width="2.82857"/></g></svg>