<svg fill="none" height="53" viewBox="0 0 61 53" width="61" xmlns="http://www.w3.org/2000/svg" xmlns:xlink="http://www.w3.org/1999/xlink"><mask id="a" height="43" maskUnits="userSpaceOnUse" width="59" x="1" y="3"><rect fill="#fff" height="41.4393" rx="3.7125" stroke="#fff" stroke-width="1.06071" width="57.9393" x="1.53036" y="3.53036"/></mask><rect fill="#fff" height="41.4393" rx="3.7125" stroke="#f5f5f5" stroke-width="1.06071" width="57.9393" x="1.53036" y="3.53036"/><g fill="#ff3131" mask="url(#a)"><path d="m43.1431 3h16.8571v42.5h-16.8571z"/><g clip-rule="evenodd" fill-rule="evenodd"><path d="m1 45.5h16.8571v-42.5h-16.8571z"/><path d="m34.9616 22.5838c-.4933.4975-1.3321.0517-1.1958-.6355l.9483-4.7816-2.8095 1.4166-1.4048-4.25-1.4047 4.25-2.8095-1.4166.9482 4.7816c.1363.6872-.7024 1.133-1.1957.6355l-.6552-.6607c-.2766-.279-.7276-.279-1.0042 0l-.9027.9102-2.8095-1.4166 1.4048 2.8333-.9111.9188c-.2733.2756-.2733.7201 0 .9958l3.7206 3.7521h4.2143l.7024 4.25h1.4047l.7024-4.25h4.2143l3.7205-3.7521c.2734-.2757.2734-.7202 0-.9958l-.911-.9188 1.4048-2.8333-2.8096 1.4166-.9026-.9102c-.2766-.279-.7276-.279-1.0042 0z"/></g></g></svg>