<svg fill="none" height="53" viewBox="0 0 61 53" width="61" xmlns="http://www.w3.org/2000/svg" xmlns:xlink="http://www.w3.org/1999/xlink"><mask id="a" height="43" maskUnits="userSpaceOnUse" width="59" x="1" y="3"><rect fill="#fff" height="42.5" rx="4.24286" width="59" x="1" y="3"/></mask><rect fill="#fff" height="42.5" rx="4.24286" width="59" x="1" y="3"/><g mask="url(#a)"><path d="m1 3h59v42.5h-59z" fill="#19bfbf"/><g clip-rule="evenodd" fill="#fff" fill-rule="evenodd"><path d="m17.9164 14.6899c-.0371-.2239.0357-.452.1955-.6132l5.1571-5.20081c.1328-.13391.3135-.20923.5021-.20923h3.481c.2687 0 .5142.15229.6335.39303l1.0151 2.04731c.1193.2407.3648.393.6335.393h4.7417c.2687 0 .5142.1523.6335.393l3.8246 7.714c.1193.2407.3648.393.6335.393h2.3685c.5814 0 .9144.6626.5674 1.1291l-3.3366 4.4866c-.0253.0339-.0474.07-.0662.1079l-1.3029 2.628c-.0484.0976-.0736.2051-.0736.3141v2.5019c0 .109-.0252.2165-.0736.3142l-1.3312 2.6849-1.4047 2.8333-1.2099 2.4403c-.1194.2407-.3649.393-.6336.393h-1.9321c-.2687 0-.5142-.1523-.6336-.393l-1.1363-2.2919c-.0484-.0976-.0736-.2051-.0736-.3141v-8.0431c0-.1866-.0737-.3655-.205-.498l-1.0826-1.0918c-.0771-.0777-.135-.1721-.1693-.276l-1.1922-3.6069c-.0958-.2896-.3664-.4852-.6714-.4852h-5.9129c-.3461 0-.6413-.2504-.6977-.5918z"/><path d="m40.3335 32.0405c0-.3906.3166-.7072.7071-.7072h1.3953c.3905 0 .7071.3166.7071.7072v1.9605c0 .109-.0252.2165-.0736.3141l-1.1363 2.2919c-.1193.2407-.3648.393-.6335.393h-.259c-.3905 0-.7071-.3166-.7071-.7071z"/></g></g></svg>