<svg fill="none" height="53" viewBox="0 0 61 53" width="61" xmlns="http://www.w3.org/2000/svg" xmlns:xlink="http://www.w3.org/1999/xlink"><mask id="a" height="43" maskUnits="userSpaceOnUse" width="59" x="1" y="3"><rect fill="#fff" height="42.5" rx="4.24286" width="59" x="1" y="3"/></mask><rect fill="#fff" height="42.5" rx="4.24286" width="59" x="1" y="3"/><g mask="url(#a)"><path d="m1 3h59v42.5h-59z" fill="#19bfbf"/><path clip-rule="evenodd" d="m12.5502 20.7874c-.1726.3482-.0319.7705.3152.9455l4.3647 2.2009c.3471.1749.4878.5972.3152.9455l-.7765 1.5662c-.1743.3516-.6016.494-.952.3173l-2.0236-1.0204c-.0988-.0498-.2078-.0757-.3184-.0757h-3.3389c-.39059 0-.70719.3166-.70719.7071v1.6179c0 .3037.19394.5735.48182.6703l2.65607.8928c.4963.1669.6455.7964.2768 1.1682l-.4002.4036c-.1313.1324-.205.3114-.205.4979v1.0117c0 .0754.0121.1503.0358.2219l1.2772 3.8641c.0588.1779.1857.3252.353.4095l2.0896 1.0536c.2735.138.6048.0841.8205-.1335l2.4477-2.4685.7195-.7255c.3383-.3412.2452-.9131-.1838-1.1294l-1.5517-.7824c-.2384-.1202-.3887-.3644-.3887-.6314v-.0737c0-.4606.4333-.7983.88-.6857l4.2048 1.0601c.3141.0792.5342.3617.5342.6857v2.0697c0 .1387.0408.2743.1173.39l2.4826 3.7554c.1309.1981.3525.3172.5899.3172h.5443c.2899 0 .5504-.1769.6573-.4464l2.0469-5.1608c.2258-.5691 1.019-.6019 1.2909-.0534l.6486 1.3081c.0336.0679.078.13.1314.1838l2.6479 2.6704c.0537.0541.1157.0992.1838.1335l1.6812.8477c.4703.2372 1.0255-.1047 1.0255-.6314v-1.3936c0-.1866-.0736-.3655-.205-.498l-.706-.712c-.2733-.2756-.2733-.7201 0-.9958l.7036-.7095c.1328-.1339.3135-.2092.5021-.2092h2.3467c.1106 0 .2196-.026.3184-.0758l2.2705-1.1449c.2384-.1202.3888-.3644.3888-.6314v-2.1068c0-.1865-.0737-.3655-.205-.4979l-.706-.712c-.2734-.2757-.2734-.7202 0-.9958l1.6194-1.6332c.3414-.3443.9203-.2506 1.1357.1838l.792 1.5975c.1062.2143.3247.3498.5638.3498.4669 0 .7712-.4905.5638-.9088l-.6422-1.2953c-.1726-.3482-.0319-.7705.3152-.9455l1.5552-.7842c.347-.175.4878-.5973.3151-.9455l-.9625-1.9413c-.0834-.1682-.2302-.2964-.4082-.3562l-2.8599-.9614c-.4963-.1668-.6455-.7964-.2768-1.1682l1.8024-1.8177c.1328-.1339.3136-.2092.5022-.2092h3.4809c.2687 0 .5142-.1523.6336-.3931l.7517-1.5161c.2206-.4451-.0743-.973-.569-1.0183l-12.9314-1.1856c-.5954-.0546-.8586-.7775-.4376-1.2021l.1435-.1448c.1314-.1324.205-.3114.205-.4979v-1.835c0-.39054-.3166-.70714-.7071-.70714h-6.022c-.1886 0-.3694.07532-.5021.20923l-3.8683 3.90111c-.0907.0914-.2045.1563-.3293.1877l-5.4283 1.3686-5.3633 1.3522c-.1649.0416-.3394.0223-.4912-.0543l-1.0478-.5283c-.5628-.2838-1.1876.2549-.9898.8533l.7771 2.3513c.0584.1767.0448.3693-.0378.5361zm19.3548 17.6293c0 .7824-.629 1.4166-1.4048 1.4166s-1.4048-.6342-1.4048-1.4166.629-1.4167 1.4048-1.4167 1.4048.6343 1.4048 1.4167zm-9.8335-12.75c.7758 0 1.4047-.6343 1.4047-1.4167s-.6289-1.4167-1.4047-1.4167c-.7759 0-1.4048.6343-1.4048 1.4167s.6289 1.4167 1.4048 1.4167zm26.6905 4.25v1.4166l-1.6146 1.6283c-.4426.4463-.1264 1.2051.5021 1.2051h.6738c.2687 0 .5142-.1523.6335-.3931l1.2099-2.4403zm0 0 .7829-.3948c.5078-.2561.3256-1.0219-.2431-1.0219-.2981 0-.5398.2417-.5398.5398z" fill="#fff" fill-rule="evenodd"/></g></svg>