<svg fill="none" height="53" viewBox="0 0 61 53" width="61" xmlns="http://www.w3.org/2000/svg" xmlns:xlink="http://www.w3.org/1999/xlink"><mask id="a" height="43" maskUnits="userSpaceOnUse" width="59" x="1" y="3"><rect fill="#fff" height="42.5" rx="4.24286" width="59" x="1" y="3"/></mask><rect fill="#fff" height="42.5" rx="4.24286" width="59" x="1" y="3"/><g mask="url(#a)"><rect fill="#158aff" height="42.5" rx="4.24286" width="59" x="1" y="3"/><path clip-rule="evenodd" d="m69.1855 14.0597-72.59578 37.3028-7.65302-15.1471 72.5959-37.30285z" fill="#fdd216" fill-rule="evenodd"/><path d="m0 0h81.619v11.3138h-81.619z" fill="#ce1120" transform="matrix(-.889448 .457037 -.450954 -.892547 68.6851 11.0193)"/><path clip-rule="evenodd" d="m10.8334 15.6792-4.12851 2.968 1.52327-4.8769-4.07482-3.0425 5.06993-.046 1.61013-4.84846 1.6101 4.84846 5.0699.046-4.0748 3.0425 1.5233 4.8769z" fill="#fdd216" fill-rule="evenodd"/></g></svg>