<svg fill="none" height="53" viewBox="0 0 61 53" width="61" xmlns="http://www.w3.org/2000/svg" xmlns:xlink="http://www.w3.org/1999/xlink"><mask id="a" height="43" maskUnits="userSpaceOnUse" width="59" x="1" y="3"><rect fill="#fff" height="42.5" rx="4.24286" width="59" x="1" y="3"/></mask><rect fill="#fff" height="42.5" rx="4.24286" width="59" x="1" y="3"/><g mask="url(#a)"><path d="m1 3h59v42.5h-59z" fill="#19bfbf"/><g clip-rule="evenodd" fill="#fff" fill-rule="evenodd"><path d="m37.0219 40.7436-2.1903-2.2089c-.077-.0776-.1349-.1721-.1693-.2759l-1.1933-3.6104c-.0951-.2875-.3638-.4817-.6666-.4817-.4562 0-.7912.4282-.6815.871l1.0932 4.4098c.0594.2396-.0104.4928-.1842.6681l-.6228.628c-.2766.279-.7276.279-1.0042 0l-.6977-.7035c-.1313-.1325-.205-.3114-.205-.4979v-2.3765c0-.109-.0252-.2165-.0736-.3141l-1.1363-2.2919c-.1193-.2407-.3648-.393-.6335-.393h-3.6074c-.1106 0-.2197.0259-.3184.0757l-2.3981 1.2092c-.1673.0844-.2943.2316-.3531.4095l-1.2211 3.6945c-.0588.1778-.1858.3251-.353.4094l-2.2299 1.1245c-.2003.1009-.4366.1009-.6368 0l-2.1024-1.0601c-.2384-.1203-.3887-.3645-.3887-.6315v-4.5241c0-.3905.3166-.7071.7071-.7071h2.8c.3905 0 .7071-.3166.7071-.7072v-2.0123c0-.0754.0121-.1504.0358-.222l1.2086-3.6567c.0957-.2896.3664-.4852.6714-.4852h2.1303c.1106 0 .2197-.0259.3184-.0757l2.5092-1.2652c.0987-.0498.2078-.0757.3183-.0757h1.9342c.3906 0 .7072-.3166.7072-.7072v-.4183c0-.1866.0737-.3655.205-.498l.5034-.5076c.3414-.3443.9202-.2507 1.1356.1838l.7706 1.5542c.1194.2408.3649.3931.6336.3931h3.2645c.3051 0 .5757-.1956.6715-.4853l1.084-3.2795c.0957-.2896.3663-.4852.6714-.4852h1.5913c.3906 0 .7072-.3178.7072-.7084 0-.3905-.3166-.7083-.7072-.7083h-1.3952c-.3906 0-.7072-.3166-.7072-.7072v-1.9605c0-.1089.0252-.2164.0736-.3141l1.1066-2.2319c.1343-.2709.0815-.5973-.1314-.812l-.5466-.5513c-.2767-.2789-.7277-.2789-1.0043 0l-2.1024 2.1202c-.1313.1325-.205.3114-.205.498v2.4283c0 .0754-.012.1503-.0357.2219l-1.2087 3.6567c-.0957.2896-.3663.4852-.6714.4852h-.5991c-.1885 0-.3693-.0753-.5021-.2092l-.9955-1.004c-.1293-.1303-.2018-.3064-.2018-.4899 0-.5184-.5463-.8547-1.0091-.6214l-1.3416.6765c-.2736.138-.6048.0841-.8206-.1335l-.8379-.8451c-.1314-.1324-.2051-.3114-.2051-.4979v-2.251c0-.1865.0737-.3655.2051-.4979l2.6045-2.6266 4.0963-4.131c.0776-.0782.1723-.1373.2768-.1724l3.9458-1.32639c.0726-.02441.1487-.03685.2253-.03685h2.2552c.2687 0 .5142.15229.6335.39303l1.1363 2.29191c.0484.0976.0736.2051.0736.3141v3.7931c0 .1865.0737.3655.205.4979l.8944.902c.1874.1889.2528.4671.1693.7198l-1.1003 3.3287c-.0995.3012.0136.6318.2769.8088l3.769 2.534 2.0995 1.0586c.378.1906.5049.6683.2715 1.0214l-2.2537 3.4093c-.0765.1157-.1173.2513-.1173.39v3.529c0 .3038-.1939.5736-.4818.6703l-3.4545 1.1613c-.178.0598-.3248.1879-.4082.3562l-1.2237 2.468c-.0337.0679-.078.13-.1314.1838l-2.2268 2.2457c-.2767.279-.7277.279-1.0043 0zm-12.1408-.9103c.7758 0 1.4048-.6342 1.4048-1.4166s-.629-1.4167-1.4048-1.4167-1.4048.6343-1.4048 1.4167.629 1.4166 1.4048 1.4166zm-4.2142-18.4166c0 .7824-.629 1.4166-1.4048 1.4166s-1.4048-.6342-1.4048-1.4166.629-1.4167 1.4048-1.4167 1.4048.6343 1.4048 1.4167z"/><path d="m21.9977 21.5651c.0484-.0976.0736-.2051.0736-.3141v-1.0853c0-.109-.0252-.2165-.0736-.3141l-.8249-1.6637c-.233-.47.109-1.0212.6336-1.0212h.9625c.3905 0 .7071.3166.7071.7071v3.3772c0 .109.0252.2165.0736.3141l.8249 1.6636c.233.4701-.109 1.0213-.6336 1.0213h-1.9345c-.5246 0-.8666-.5512-.6336-1.0213z"/></g></g></svg>