<svg width="61" height="53" viewBox="0 0 61 53" fill="none" xmlns="http://www.w3.org/2000/svg">
<rect x="1.53036" y="3.53036" width="57.9393" height="41.4393" rx="3.7125" fill="white" stroke="#F5F5F5" stroke-width="1.06071"/>
<mask id="mask0" mask-type="alpha" maskUnits="userSpaceOnUse" x="1" y="3" width="59" height="43">
<rect x="1.53036" y="3.53036" width="57.9393" height="41.4393" rx="3.7125" fill="white" stroke="white" stroke-width="1.06071"/>
</mask>
<g mask="url(#mask0)">
<path fill-rule="evenodd" clip-rule="evenodd" d="M1 14.3333H60V3H1V14.3333Z" fill="#083D96"/>
<path fill-rule="evenodd" clip-rule="evenodd" d="M1 34.1667H60V22.8333H1V34.1667Z" fill="#37AE39"/>
<path fill-rule="evenodd" clip-rule="evenodd" d="M1 45.5H60V34.1667H1V45.5Z" fill="#FFD13F"/>
<path fill-rule="evenodd" clip-rule="evenodd" d="M23.4761 45.5H37.5237V3H23.4761V45.5Z" fill="#E42346"/>
<path fill-rule="evenodd" clip-rule="evenodd" d="M10.8334 10.3242L8.35633 12.105L9.2703 9.17885L6.8254 7.35333L9.86736 7.32571L10.8334 4.41666L11.7995 7.32571L14.8414 7.35333L12.3966 9.17885L13.3105 12.105L10.8334 10.3242Z" fill="#FFD03B"/>
</g>
</svg>
