<svg fill="none" height="53" viewBox="0 0 61 53" width="61" xmlns="http://www.w3.org/2000/svg" xmlns:xlink="http://www.w3.org/1999/xlink"><mask id="a" height="43" maskUnits="userSpaceOnUse" width="59" x="1" y="3"><rect fill="#fff" height="42.5" rx="4.24286" width="59" x="1" y="3"/></mask><rect fill="#fff" height="42.5" rx="4.24286" width="59" x="1" y="3"/><g mask="url(#a)"><path d="m1 3h59v42.5h-59z" fill="#f00"/><path clip-rule="evenodd" d="m26.2857 28.5h-7.7214c-.3905 0-.7071-.3166-.7071-.7071v-7.0858c0-.3905.3166-.7071.7071-.7071h7.7214v-7.7929c0-.3905.3166-.7071.7072-.7071h7.0143c.3905 0 .7071.3166.7071.7071v7.7929h7.7214c.3906 0 .7072.3166.7072.7071v7.0858c0 .3905-.3166.7071-.7072.7071h-7.7214v7.7929c0 .3905-.3166.7071-.7071.7071h-7.0143c-.3906 0-.7072-.3166-.7072-.7071z" fill="#fff" fill-rule="evenodd"/></g></svg>