<svg fill="none" height="53" viewBox="0 0 61 53" width="61" xmlns="http://www.w3.org/2000/svg" xmlns:xlink="http://www.w3.org/1999/xlink"><linearGradient id="a" gradientUnits="userSpaceOnUse" x1="29.0952" x2="29.0952" y1="3" y2="45.5"><stop offset="0" stop-color="#ffdc44"/><stop offset="1" stop-color="#fdd216"/></linearGradient><mask id="b" height="43" maskUnits="userSpaceOnUse" width="59" x="1" y="3"><rect fill="#fff" height="42.5" rx="4.24286" width="59" x="1" y="3"/></mask><rect fill="#fff" height="42.5" rx="4.24286" width="59" x="1" y="3"/><g mask="url(#b)"><path d="m29.0952 3h30.9048v42.5h-30.9048z" fill="url(#a)"/><g clip-rule="evenodd" fill-rule="evenodd"><path d="m1 45.5h19.6667v-42.5h-19.6667z" fill="#059170"/><path d="m20.6667 45.5h19.6667v-42.5h-19.6667z" fill="#e21a30"/><path d="m40.3333 45.5h19.6666v-42.5h-19.6666z" fill="#ffdc44"/><path d="m30.4999 27.0125-4.1285 2.968 1.5233-4.8769-4.0749-3.0425 5.07-.046 1.6101-4.8484 1.6101 4.8484 5.0699.046-4.0748 3.0425 1.5233 4.8769z" fill="#ffdc42"/></g></g></svg>