<svg fill="none" height="53" viewBox="0 0 61 53" width="61" xmlns="http://www.w3.org/2000/svg" xmlns:xlink="http://www.w3.org/1999/xlink"><mask id="a" height="43" maskUnits="userSpaceOnUse" width="59" x="1" y="3"><rect fill="#fff" height="42.5" rx="4.24286" width="59" x="1" y="3"/></mask><rect fill="#fff" height="42.5" rx="4.24286" width="59" x="1" y="3"/><g mask="url(#a)"><path d="m1 3h59v42.5h-59z" fill="#f1361d"/><g clip-rule="evenodd" fill="#ffdc42" fill-rule="evenodd"><path d="m22.2246 9.58911 2.0407.35085 1.5305 1.40564.3479-2.05791 1.3938-1.54346-2.0406-.35085-1.5305-1.40568-.3479 2.05794zm5.466 7.19799 1.7683-1.0854 2.0696.0483-1.0762-1.7833.0478-2.0871-1.7683 1.0853-2.0696-.0482 1.0763 1.7833zm-2.3988 11.651-1.7297 1.1469-.0244-2.0875-1.1373-1.7443 2.07-.0246 1.7297-1.1469.0244 2.0874 1.1373 1.7444zm1.5021-5.3963 2.0575-.23 1.8554.9258-.228-2.0749.918-1.8712-2.0575.23-1.8554-.9258.228 2.075z"/><path d="m15.0477 20.4817-4.9542 3.5616 1.828-5.8523-4.88984-3.651 6.08394-.0552 1.9321-5.81814 1.9321 5.81814 6.084.0552-4.8898 3.651 1.8279 5.8523z"/></g></g></svg>