<svg fill="none" height="53" viewBox="0 0 61 53" width="61" xmlns="http://www.w3.org/2000/svg" xmlns:xlink="http://www.w3.org/1999/xlink"><mask id="a" height="43" maskUnits="userSpaceOnUse" width="59" x="1" y="3"><rect fill="#fff" height="42.5" rx="4.24286" width="59" x="1" y="3"/></mask><rect fill="#fff" height="42.5" rx="4.24286" width="59" x="1" y="3"/><g mask="url(#a)"><path d="m1 3h59v42.5h-59z" fill="#19bfbf"/><path clip-rule="evenodd" d="m29.0951 34.1667-1.2099-2.4403c-.1193-.2408-.3648-.3931-.6335-.3931h-.6714c-.1886 0-.3694-.0753-.5022-.2092l-5.2065-5.2507c-.1314-.1324-.205-.3114-.205-.4979v-2.251c0-.1865-.0737-.3655-.2051-.4979l-2.4671-2.4881c-.0899-.0907-.1536-.2039-.1843-.3278l-1.2645-5.1008c-.0581-.2346-.232-.4232-.461-.5002l-3.7987-1.2769c-.0319-.0108-.063-.0238-.0931-.0389l-2.37557-1.1979c-.2384-.1202-.38876-.3644-.38876-.6314v-1.6908c0-.39055.3166-.70714.70713-.70714h1.8077c.1886 0 .3694.07532.5022.20923l.9898.9982c.1328.13391.3135.20921.5021.20921h2.2202c.1886 0 .3694-.0753.5021-.20921l.9899-.9982c.1327-.13391.3135-.20923.5021-.20923h5.1562c.1106 0 .2196.02593.3184.07573l2.5091 1.26521c.0988.0498.2078.0757.3184.0757h2.4731c.1106 0 .2197-.0259.3184-.0757l2.5092-1.26521c.0987-.0498.2078-.07573.3184-.07573h4.7437c.3905 0 .7071.3166.7071.70714v1.419c0 .3906-.3166.7072-.7071.7072h-1.3953c-.3905 0-.7071.3166-.7071.7071v3.1075c0 .267.1503.5112.3887.6314l1.3953.7035c.4703.2372 1.0255-.1046 1.0255-.6314v-2.3943c0-.3905.3166-.7071.7071-.7071h2.8c.3906 0 .7072.3177.7072.7083 0 .3905.3166.7083.7071.7083h2.8c.3906 0 .7072.3166.7072.7072v2.0123c0 .0754-.0121.1503-.0358.2219l-1.3168 3.9841c-.0343.1038-.0923.1983-.1693.2759l-4.0166 4.0507c-.0534.0538-.0977.1159-.1314.1838l-1.2803 2.5824c-.0484.0976-.0736.2051-.0736.3141v1.9605c0 .3905-.3166.7071-.7072.7071h-.2589c-.2687 0-.5142-.1523-.6336-.393l-1.015-2.0473c-.1194-.2407-.3648-.393-.6335-.393h-3.337c-.2687 0-.5141.1523-.6335.393l-1.0542 2.1262c-.0981.1979-.0981.4303 0 .6282l1.0542 2.1262c.1194.2408.3648.3931.6335.3931h2.0762c.1886 0 .3694.0753.5022.2092l2.397 2.4173c.1313.1325.205.3114.205.498v1.835c0 .3905-.3166.7071-.7071.7071h-1.6637c-.2687 0-.5142-.1523-.6336-.393l-1.015-2.0473c-.1194-.2407-.3649-.393-.6336-.393h-1.9321c-.2687 0-.5142-.1523-.6336-.393z" fill="#fff" fill-rule="evenodd"/></g></svg>