<svg fill="none" height="53" viewBox="0 0 61 53" width="61" xmlns="http://www.w3.org/2000/svg" xmlns:xlink="http://www.w3.org/1999/xlink"><linearGradient id="a" gradientUnits="userSpaceOnUse" x1="1" x2="1" y1="3" y2="45.5"><stop offset="0" stop-color="#19bfbf"/><stop offset="1" stop-color="#10acac"/></linearGradient><mask id="b" height="43" maskUnits="userSpaceOnUse" width="59" x="1" y="3"><rect fill="#fff" height="42.5" rx="4.24286" width="59" x="1" y="3"/></mask><rect fill="#fff" height="42.5" rx="4.24286" width="59" x="1" y="3"/><g mask="url(#b)"><path d="m1 3h59v42.5h-59z" fill="url(#a)"/><path clip-rule="evenodd" d="m29.3324 10.0833c-.1539 0-.3037.0503-.4265.1432l-5.3153 4.0202c-.0756.0572-.1618.0986-.2537.1217l-5.4041 1.3625c-.0504.0127-.0991.0309-.1455.0543l-5.3388 2.692c-.1367.0689-.2472.1802-.3152.3173l-2.52406 5.0909c-.11191.2257-.09528.4939.04365.7041l2.46791 3.7331c.0764.1157.1172.2513.1172.39v3.7462c0 .1865.0737.3655.205.4979l2.2428 2.2618c.2157.2175.5469.2714.8205.1335l7.8196-3.943c.0988-.0497.2078-.0757.3184-.0757h5.1932c.1664 0 .3275.0587.4549.1658l8.034 6.7518c.1275.107.2886.1658.455.1658h4.9811c.2374 0 .459-.1192.5899-.3172l5.2922-8.0055c.0764-.1157.1172-.2513.1172-.39v-5.2414c0-.1387-.0408-.2743-.1172-.39l-5.5018-8.3226-4.0087-6.73777c-.1275-.21427-.3584-.34557-.6077-.34557h-.8703c-.5694 0-.8557.68721-.4548 1.09147.1928.19449.2406.49007.119.73547l-1.0065 2.03c-.1193.2408-.3648.3931-.6335.3931h-3.337c-.2687 0-.5141-.1523-.6335-.3931l-1.015-2.0472c-.1194-.2408-.3649-.3931-.6336-.3931zm12.4056 29.75h-2.8095l.9026.9103c.2767.279.7277.279 1.0043 0z" fill="#fff" fill-rule="evenodd"/></g></svg>