<svg fill="none" height="53" viewBox="0 0 61 53" width="61" xmlns="http://www.w3.org/2000/svg" xmlns:xlink="http://www.w3.org/1999/xlink"><mask id="a" height="43" maskUnits="userSpaceOnUse" width="59" x="1" y="3"><rect fill="#fff" height="42.5" rx="4.24286" width="59" x="1" y="3"/></mask><rect fill="#fff" height="42.5" rx="4.24286" width="59" x="1" y="3"/><g mask="url(#a)"><path d="m1 3h59v42.5h-59z" fill="#19bfbf"/><path clip-rule="evenodd" d="m22.0715 37.0863c0-.0573.007-.1145.0208-.1701l1.384-5.5829 1.3556-5.4684c.0321-.1295.0269-.2655-.0149-.3921l-1.2489-3.7784c-.0588-.1778-.1858-.3251-.3531-.4095l-2.1595-1.0889c-.2384-.1202-.3888-.3644-.3888-.6314v-5.0656c0-.109.0252-.2165.0736-.3141l1.3312-2.6849 1.2099-2.44031c.1194-.24074.3649-.39303.6336-.39303h7.2827c.3905 0 .7071.3166.7071.70714v1.419c0 .3906.3166.7072.7072.7072h1.3952c.3906 0 .7072.3166.7072.7071v1.6908c0 .267.1503.5112.3887.6315l4.8416 2.4412c.2383.1202.3887.3645.3887.6314v2.2323c0 .109-.0252.2165-.0736.3141l-1.2478 2.5169c-.0546.1101-.137.2041-.239.2727l-3.903 2.624c-.102.0686-.1844.1626-.239.2727l-2.6428 5.3306c-.0546.1101-.137.2041-.239.2727l-3.903 2.624c-.102.0686-.1844.1626-.239.2727l-2.5313 5.1056c-.1194.2407-.3648.393-.6336.393h-1.6636c-.3906 0-.7072-.3166-.7072-.7071z" fill="#fff" fill-rule="evenodd"/></g></svg>