<svg width="61" height="53" viewBox="0 0 61 53" fill="none" xmlns="http://www.w3.org/2000/svg">
<rect x="1" y="3" width="59" height="42.5" rx="4.24286" fill="white"/>
<mask id="mask0" mask-type="alpha" maskUnits="userSpaceOnUse" x="1" y="3" width="59" height="43">
<rect x="1" y="3" width="59" height="42.5" rx="4.24286" fill="white"/>
</mask>
<g mask="url(#mask0)">
<path fill-rule="evenodd" clip-rule="evenodd" d="M1 25.6667H60V3H1V25.6667Z" fill="#0C49AE"/>
<path fill-rule="evenodd" clip-rule="evenodd" d="M1 45.5H60V34.1667H1V45.5Z" fill="#0C49AE"/>
<path fill-rule="evenodd" clip-rule="evenodd" d="M1 34.1667H60V25.6667H1V34.1667Z" fill="white"/>
<path fill-rule="evenodd" clip-rule="evenodd" d="M1 31.3333H60V28.5H1V31.3333Z" fill="#CD232E"/>
<path fill-rule="evenodd" clip-rule="evenodd" d="M23.4762 38.4167C28.1311 38.4167 31.9047 34.6111 31.9047 29.9167C31.9047 25.2222 28.1311 21.4167 23.4762 21.4167C18.8212 21.4167 15.0476 25.2222 15.0476 29.9167C15.0476 34.6111 18.8212 38.4167 23.4762 38.4167Z" stroke="#F7D035" stroke-width="2.82857" stroke-linecap="round" stroke-dasharray="1.41 4.24"/>
</g>
</svg>
