<svg fill="none" height="53" viewBox="0 0 61 53" width="61" xmlns="http://www.w3.org/2000/svg" xmlns:xlink="http://www.w3.org/1999/xlink"><mask id="a" height="43" maskUnits="userSpaceOnUse" width="59" x="1" y="3"><rect fill="#fff" height="42.5" rx="4.24286" width="59" x="1" y="3"/></mask><rect fill="#fff" height="42.5" rx="4.24286" width="59" x="1" y="3"/><g clip-rule="evenodd" fill-rule="evenodd" mask="url(#a)"><path d="m1 25.6667h59v-22.6667h-59z" fill="#0c49ae"/><path d="m1 45.5h59v-11.3333h-59z" fill="#0c49ae"/><path d="m1 34.1667h59v-8.5h-59z" fill="#fff"/><path d="m1 31.3333h59v-2.8333h-59z" fill="#cd232e"/><path d="m23.4762 38.4167c4.6549 0 8.4285-3.8056 8.4285-8.5 0-4.6945-3.7736-8.5-8.4285-8.5-4.655 0-8.4286 3.8055-8.4286 8.5 0 4.6944 3.7736 8.5 8.4286 8.5z" stroke="#f7d035" stroke-dasharray="1.41 4.24" stroke-linecap="round" stroke-width="2.82857"/></g></svg>