<svg fill="none" height="53" viewBox="0 0 61 53" width="61" xmlns="http://www.w3.org/2000/svg" xmlns:xlink="http://www.w3.org/1999/xlink"><mask id="a" height="43" maskUnits="userSpaceOnUse" width="59" x="1" y="3"><rect fill="#fff" height="41.4393" rx="3.7125" stroke="#fff" stroke-width="1.06071" width="57.9393" x="1.53036" y="3.53036"/></mask><rect fill="#fff" height="41.4393" rx="3.7125" stroke="#f5f5f5" stroke-width="1.06071" width="57.9393" x="1.53036" y="3.53036"/><g mask="url(#a)"><path clip-rule="evenodd" d="m43.1429 10.0833c.7657-.38606 1.5472.4928 1.0743 1.2082l-.9325 1.4106c-.0936.1416-.2144.2633-.3553.3581l-3.8844 2.6115c-.0774.0521-.1495.1117-.2152.1779l-.3185.3212c-.5467.5514-.5467 1.4403 0 1.9917l.8346.8417c.5467.5513.5467 1.4403 0 1.9916l-1.0986 1.1079c-.4314.4351-1.0939.5428-1.641.267l-.6206-.313c-.7008-.3533-1.5553-.0685-1.9039.6346l-.5117 1.0322c-.1668.3364-.4606.5927-.8165.7124l-3.4391 1.156c-.1452.0489-.2974.0738-.4506.0738h-1.7008c-.5374 0-1.0284.3045-1.2671.786l-.3826.7716c-.3486.7031-1.203.988-1.9038.6346l-4.1422-2.0886c-.1361-.0687-.2602-.1588-.3675-.267l-2.2375-2.2565c-.2626-.2649-.41-.6228-.41-.9958v-1.2594c0-.5477.4439-.9916.9916-.9916.2644 0 .5179-.1056.7041-.2934l2.1036-2.1215c.2656-.2678.6271-.4184 1.0043-.4184h1.1981c.6101 0 1.1514-.3912 1.3429-.9705l.6905-2.0891c.2245-.6794.9211-1.084 1.6225-.9426l5.4804 1.1054c.207.0418.4206.0366.6254-.015l5.1565-1.3c.1007-.0254.1983-.0618.291-.1086l2.67-1.3463z" fill="#e7832c" fill-rule="evenodd"/><path clip-rule="evenodd" d="m30.5 37c.7758 0 1.4047-.6343 1.4047-1.4167s-.6289-1.4166-1.4047-1.4166c-.7759 0-1.4048.6342-1.4048 1.4166s.6289 1.4167 1.4048 1.4167z" fill="#445128" fill-rule="evenodd"/><g stroke="#445128" stroke-linecap="round" stroke-width="2.82857"><path d="m34.7144 34.1667s4.2142-1.4167 5.619-4.25" opacity=".75"/><path d="m26.2856 34.1667s-4.2142-1.4167-5.619-4.25" opacity=".75"/></g></g></svg>