<svg width="61" height="53" viewBox="0 0 61 53" fill="none" xmlns="http://www.w3.org/2000/svg">
<rect x="1.53036" y="3.53036" width="57.9393" height="41.4393" rx="3.7125" fill="white" stroke="#F5F5F5" stroke-width="1.06071"/>
<mask id="mask0" mask-type="alpha" maskUnits="userSpaceOnUse" x="1" y="3" width="59" height="43">
<rect x="1.53036" y="3.53036" width="57.9393" height="41.4393" rx="3.7125" fill="white" stroke="white" stroke-width="1.06071"/>
</mask>
<g mask="url(#mask0)">
<path fill-rule="evenodd" clip-rule="evenodd" d="M5.24286 3C2.89959 3 1 4.89959 1 7.24286V20H17.8571V3H5.24286ZM26.2857 3V20H60V7.24286C60 4.89959 58.1004 3 55.7571 3H26.2857ZM60 28.5H26.2857V45.5H55.7571C58.1004 45.5 60 43.6004 60 41.2571V28.5ZM17.8571 45.5V28.5H1V41.2571C1 43.6004 2.89959 45.5 5.24286 45.5H17.8571Z" fill="#EF264D"/>
</g>
</svg>
