<svg width="61" height="53" viewBox="0 0 61 53" fill="none" xmlns="http://www.w3.org/2000/svg">
<rect x="1" y="3" width="59" height="42.5" rx="4.24286" fill="white"/>
<mask id="mask0" mask-type="alpha" maskUnits="userSpaceOnUse" x="1" y="3" width="59" height="43">
<rect x="1" y="3" width="59" height="42.5" rx="4.24286" fill="white"/>
</mask>
<g mask="url(#mask0)">
<path fill-rule="evenodd" clip-rule="evenodd" d="M1 20H60V3H1V20Z" fill="#108753"/>
<path fill-rule="evenodd" clip-rule="evenodd" d="M1 45.5H60V28.5H1V45.5Z" fill="#108753"/>
<path fill-rule="evenodd" clip-rule="evenodd" d="M34.7143 45.5H26.2857V28.5H1V20H26.2857V3H34.7143V20H60V28.5H34.7143V45.5Z" fill="white"/>
<path fill-rule="evenodd" clip-rule="evenodd" d="M31.9047 45.5H29.0952V25.6667H1V22.8333H29.0952V3H31.9047V22.8333H60V25.6667H31.9047V45.5Z" fill="#262626"/>
<path fill-rule="evenodd" clip-rule="evenodd" d="M29.0952 45.5H26.2857V22.8333H1V20H26.2857V3H29.0952V20H60V22.8333H29.0952V45.5Z" fill="#FCD449"/>
<path fill-rule="evenodd" clip-rule="evenodd" d="M30.4998 34.1667C35.9306 34.1667 40.3332 29.7268 40.3332 24.25C40.3332 18.7732 35.9306 14.3333 30.4998 14.3333C25.069 14.3333 20.6665 18.7732 20.6665 24.25C20.6665 29.7268 25.069 34.1667 30.4998 34.1667Z" fill="url(#paint0_linear)"/>
<path fill-rule="evenodd" clip-rule="evenodd" d="M30.4999 31.3333C34.379 31.3333 37.5237 28.162 37.5237 24.25C37.5237 20.338 34.379 17.1667 30.4999 17.1667C26.6207 17.1667 23.4761 20.338 23.4761 24.25C23.4761 28.162 26.6207 31.3333 30.4999 31.3333Z" stroke="#0E673F" stroke-width="2.82857" stroke-linecap="round" stroke-dasharray="1.41 5.66"/>
<path fill-rule="evenodd" clip-rule="evenodd" d="M30.5003 27.0833C32.0519 27.0833 31.905 25.8148 31.905 24.25C31.905 22.6852 32.0519 21.4167 30.5003 21.4167C28.9486 21.4167 29.0955 22.6852 29.0955 24.25C29.0955 25.8148 28.9486 27.0833 30.5003 27.0833Z" fill="#0E673F"/>
</g>
<defs>
<linearGradient id="paint0_linear" x1="20.6665" y1="14.3333" x2="20.6665" y2="34.1667" gradientUnits="userSpaceOnUse">
<stop stop-color="#E02C42"/>
<stop offset="1" stop-color="#D22036"/>
</linearGradient>
</defs>
</svg>
