<svg fill="none" height="53" viewBox="0 0 61 53" width="61" xmlns="http://www.w3.org/2000/svg" xmlns:xlink="http://www.w3.org/1999/xlink"><linearGradient id="a" gradientUnits="userSpaceOnUse" x1="20.6665" x2="20.6665" y1="14.3333" y2="34.1667"><stop offset="0" stop-color="#e02c42"/><stop offset="1" stop-color="#d22036"/></linearGradient><mask id="b" height="43" maskUnits="userSpaceOnUse" width="59" x="1" y="3"><rect fill="#fff" height="42.5" rx="4.24286" width="59" x="1" y="3"/></mask><rect fill="#fff" height="42.5" rx="4.24286" width="59" x="1" y="3"/><g clip-rule="evenodd" fill-rule="evenodd" mask="url(#b)"><path d="m1 20h59v-17h-59z" fill="#108753"/><path d="m1 45.5h59v-17h-59z" fill="#108753"/><path d="m34.7143 45.5h-8.4286v-17h-25.2857v-8.5h25.2857v-17h8.4286v17h25.2857v8.5h-25.2857z" fill="#fff"/><path d="m31.9047 45.5h-2.8095v-19.8333h-28.0952v-2.8334h28.0952v-19.8333h2.8095v19.8333h28.0953v2.8334h-28.0953z" fill="#262626"/><path d="m29.0952 45.5h-2.8095v-22.6667h-25.2857v-2.8333h25.2857v-17h2.8095v17h30.9048v2.8333h-30.9048z" fill="#fcd449"/><path d="m30.4998 34.1667c5.4308 0 9.8334-4.4399 9.8334-9.9167s-4.4026-9.9167-9.8334-9.9167-9.8333 4.4399-9.8333 9.9167 4.4025 9.9167 9.8333 9.9167z" fill="url(#a)"/><path d="m30.4999 31.3333c3.8791 0 7.0238-3.1713 7.0238-7.0833s-3.1447-7.0833-7.0238-7.0833c-3.8792 0-7.0238 3.1713-7.0238 7.0833s3.1446 7.0833 7.0238 7.0833z" stroke="#0e673f" stroke-dasharray="1.41 5.66" stroke-linecap="round" stroke-width="2.82857"/><path d="m30.5003 27.0833c1.5516 0 1.4047-1.2685 1.4047-2.8333s.1469-2.8333-1.4047-2.8333c-1.5517 0-1.4048 1.2685-1.4048 2.8333s-.1469 2.8333 1.4048 2.8333z" fill="#0e673f"/></g></svg>