<svg fill="none" height="53" viewBox="0 0 61 53" width="61" xmlns="http://www.w3.org/2000/svg" xmlns:xlink="http://www.w3.org/1999/xlink"><mask id="a" height="43" maskUnits="userSpaceOnUse" width="59" x="1" y="3"><rect fill="#fff" height="41.4393" rx="3.7125" stroke="#fff" stroke-width="1.06071" width="57.9393" x="1.53036" y="3.53036"/></mask><mask id="b" fill="#fff"><path clip-rule="evenodd" d="m27.52 21.2448c-1.6458 1.6597-1.6458 4.3507 0 6.0104s4.3141 1.6597 5.9599 0 1.6458-4.3507 0-6.0104" fill="#fff" fill-rule="evenodd"/></mask><rect fill="#fff" height="41.4393" rx="3.7125" stroke="#f5f5f5" stroke-width="1.06071" width="57.9393" x="1.53036" y="3.53036"/><g mask="url(#a)"><g clip-rule="evenodd" fill-rule="evenodd"><path d="m1 20h25.2857v-17h-25.2857z" fill="#083d7a"/><path d="m34.7144 45.5h25.2857v-17h-25.2857z" fill="#083d7a"/><path d="m1 45.5h25.2857v-17h-25.2857z" fill="#df1e35"/><path d="m34.7144 20h25.2857v-17h-25.2857z" fill="#df1e35"/></g><path d="m26.5242 20.2405c-2.1958 2.2144-2.1958 5.8046 0 8.019l1.9916-2.0086c-1.0958-1.105-1.0958-2.8968 0-4.0018zm0 8.019c2.1957 2.2143 5.7558 2.2143 7.9515 0l-1.9916-2.0086c-1.0958 1.1051-2.8725 1.1051-3.9683 0zm7.9515 0c2.1958-2.2144 2.1958-5.8046 0-8.019l-1.9916 2.0086c1.0958 1.105 1.0958 2.8968 0 4.0018z" fill="#0f6d1a" mask="url(#b)"/><path clip-rule="evenodd" d="m30.5 25.6667c.7758 0 1.4047-.6343 1.4047-1.4167s-.6289-1.4167-1.4047-1.4167c-.7759 0-1.4048.6343-1.4048 1.4167s.6289 1.4167 1.4048 1.4167z" fill="#042f60" fill-rule="evenodd"/></g></svg>