<svg fill="none" height="53" viewBox="0 0 61 53" width="61" xmlns="http://www.w3.org/2000/svg" xmlns:xlink="http://www.w3.org/1999/xlink"><mask id="a" height="43" maskUnits="userSpaceOnUse" width="59" x="1" y="3"><rect fill="#fff" height="41.4393" rx="3.7125" stroke="#fff" stroke-width="1.06071" width="57.9393" x="1.53036" y="3.53036"/></mask><rect fill="#fff" height="41.4393" rx="3.7125" stroke="#f5f5f5" stroke-width="1.06071" width="57.9393" x="1.53036" y="3.53036"/><g clip-rule="evenodd" fill-rule="evenodd" mask="url(#a)"><path d="m1 45.5h30.9048v-42.5h-30.9048z" fill="#048345"/><g fill="#e81b42"><path d="m37.5238 26.46-3.3028 2.3744 1.2187-3.9015-3.2599-2.434 4.0559-.0368 1.2881-3.8788 1.2881 3.8788 4.056.0368-3.2599 2.434 1.2186 3.9015z"/><path d="m38.2545 33.5604c-2.1663 2.1334-5.0777 3.4396-8.2791 3.4396-6.6926 0-12.118-5.7084-12.118-12.75s5.4254-12.75 12.118-12.75c3.2014 0 6.1128 1.3062 8.2791 3.4396-1.4942-.7172-3.1843-1.1214-4.9742-1.1214-6.0841 0-11.0163 4.6705-11.0163 10.4318s4.9322 10.4318 11.0163 10.4318c1.7899 0 3.48-.4042 4.9742-1.1214z"/></g></g></svg>