<svg fill="none" height="53" viewBox="0 0 61 53" width="61" xmlns="http://www.w3.org/2000/svg" xmlns:xlink="http://www.w3.org/1999/xlink"><mask id="a" height="43" maskUnits="userSpaceOnUse" width="59" x="1" y="3"><rect fill="#fff" height="41.4393" rx="3.7125" stroke="#fff" stroke-width="1.06071" width="57.9393" x="1.53036" y="3.53036"/></mask><rect fill="#fff" height="41.4393" rx="3.7125" stroke="#f5f5f5" stroke-width="1.06071" width="57.9393" x="1.53036" y="3.53036"/><g mask="url(#a)"><path clip-rule="evenodd" d="m1 17.1667h59v-14.1667h-59z" fill="#e41d33" fill-rule="evenodd"/><path clip-rule="evenodd" d="m1 45.5h59v-14.1667h-59z" fill="#262626" fill-rule="evenodd"/><path d="m27.0568 23.1474.6041 1.2184.6503-1.1939.0001-.0001.0001-.0002.0001-.0004.0024-.0043.0112-.0201c.0102-.0182.0259-.046.0466-.082.0415-.0719.103-.1762.1808-.3019.1565-.2527.3754-.5859.6286-.9155.2564-.3338.5308-.6412.795-.8587.2827-.2326.4561-.2816.5238-.2816.1173 0 .313.0644.5876.286.2645.2133.5311.5156.7765.8456.2423.3258.447.6555.5918.906.0721.1245.1283.2276.166.2986.0188.0355.033.0628.0421.0806l.0099.0195.002.004h.0001l.0001.0003v.0001l.0001.0001.6333 1.2774.6336-1.2779 1.2099-2.4403h.9565c.3906 0 .7072.3166.7072.7072v4.4306c0 .5661-.632.9027-1.1017.5869l-2.0109-1.352-.179-.1203h-.2156-1.4048-.7071v.7072 1.4285c0 .3853-.3123.6977-.6976.6977s-.6976-.3124-.6976-.6977v-1.4285-.7072h-.7072-1.4047-.2157l-.1789.1203-2.0109 1.352c-.4697.3158-1.1017-.0208-1.1017-.5869v-4.4306c0-.3906.3166-.7072.7072-.7072h.9565z" fill="#f4b32e" fill-opacity=".25" stroke="#c6a846" stroke-width="1.41429"/></g></svg>