<svg fill="none" height="53" viewBox="0 0 61 53" width="61" xmlns="http://www.w3.org/2000/svg" xmlns:xlink="http://www.w3.org/1999/xlink"><mask id="a" height="43" maskUnits="userSpaceOnUse" width="59" x="1" y="3"><rect fill="#fff" height="42.5" rx="4.24286" width="59" x="1" y="3"/></mask><rect fill="#fff" height="42.5" rx="4.24286" width="59" x="1" y="3"/><g mask="url(#a)"><path clip-rule="evenodd" d="m60 3v21.25h-59v-21.25z" fill="#29c53f" fill-rule="evenodd"/><path clip-rule="evenodd" d="m60 24.25v22.6667h-59v-22.6667z" fill="#579ded" fill-rule="evenodd"/><path clip-rule="evenodd" d="m1 45.5 59-21.25-59-21.25z" fill="#f42d56" fill-rule="evenodd"/><path d="m27.6808 24.25c0 4.707-3.7805 8.5024-8.419 8.5024s-8.419-3.7954-8.419-8.5024 3.7805-8.5024 8.419-8.5024 8.419 3.7954 8.419 8.5024z" stroke="#ffc63c" stroke-width="2.82857"/><g clip-rule="evenodd" fill-rule="evenodd"><path d="m17.8572 22.8333c.7758 0 1.4047-.6342 1.4047-1.4166s-.6289-1.4167-1.4047-1.4167c-.7759 0-1.4048.6343-1.4048 1.4167s.6289 1.4166 1.4048 1.4166z" fill="#ffc63c"/><path d="m20.6667 24.25c.7759 0 1.4048-.6342 1.4048-1.4166s-.6289-1.4167-1.4048-1.4167c-.7758 0-1.4047.6343-1.4047 1.4167s.6289 1.4166 1.4047 1.4166z" fill="#ffc63c"/><path d="m19.2619 21.4166c.7759 0 1.4048-.6342 1.4048-1.4166s-.6289-1.4167-1.4048-1.4167c-.7758 0-1.4047.6343-1.4047 1.4167s.6289 1.4166 1.4047 1.4166z" fill="#ffc63c"/><path d="m17.8572 25.6667c.7758 0 1.4047-.6343 1.4047-1.4167s-.6289-1.4167-1.4047-1.4167c-.7759 0-1.4048.6343-1.4048 1.4167s.6289 1.4167 1.4048 1.4167z" fill="#ffc63c"/><path d="m20.6667 27.0833c.7759 0 1.4048-.6342 1.4048-1.4166s-.6289-1.4167-1.4048-1.4167c-.7758 0-1.4047.6343-1.4047 1.4167s.6289 1.4166 1.4047 1.4166z" fill="#ffc63c"/><path d="m17.8572 28.5c.7758 0 1.4047-.6342 1.4047-1.4166 0-.7825-.6289-1.4167-1.4047-1.4167-.7759 0-1.4048.6342-1.4048 1.4167 0 .7824.6289 1.4166 1.4048 1.4166z" fill="#ffc63c"/><path d="m20.6667 29.9167c.7759 0 1.4048-.6343 1.4048-1.4167s-.6289-1.4167-1.4048-1.4167c-.7758 0-1.4047.6343-1.4047 1.4167s.6289 1.4167 1.4047 1.4167z" fill="#ffc63c"/></g></g></svg>