<svg width="61" height="53" viewBox="0 0 61 53" fill="none" xmlns="http://www.w3.org/2000/svg">
<rect x="1" y="3" width="59" height="42.5" rx="4.24286" fill="white"/>
<mask id="mask0" mask-type="alpha" maskUnits="userSpaceOnUse" x="1" y="3" width="59" height="43">
<rect x="1" y="3" width="59" height="42.5" rx="4.24286" fill="white"/>
</mask>
<g mask="url(#mask0)">
<path fill-rule="evenodd" clip-rule="evenodd" d="M60 3V24.25H1V3H60Z" fill="#29C53F"/>
<path fill-rule="evenodd" clip-rule="evenodd" d="M60 24.25V46.9167H1V24.25H60Z" fill="#579DED"/>
<path fill-rule="evenodd" clip-rule="evenodd" d="M1 45.5L60 24.25L1 3V45.5Z" fill="#F42D56"/>
<path d="M27.6808 24.25C27.6808 28.957 23.9003 32.7524 19.2618 32.7524C14.6233 32.7524 10.8428 28.957 10.8428 24.25C10.8428 19.543 14.6233 15.7476 19.2618 15.7476C23.9003 15.7476 27.6808 19.543 27.6808 24.25Z" stroke="#FFC63C" stroke-width="2.82857"/>
<path fill-rule="evenodd" clip-rule="evenodd" d="M17.8572 22.8333C18.633 22.8333 19.2619 22.1991 19.2619 21.4167C19.2619 20.6343 18.633 20 17.8572 20C17.0813 20 16.4524 20.6343 16.4524 21.4167C16.4524 22.1991 17.0813 22.8333 17.8572 22.8333Z" fill="#FFC63C"/>
<path fill-rule="evenodd" clip-rule="evenodd" d="M20.6667 24.25C21.4426 24.25 22.0715 23.6158 22.0715 22.8334C22.0715 22.051 21.4426 21.4167 20.6667 21.4167C19.8909 21.4167 19.262 22.051 19.262 22.8334C19.262 23.6158 19.8909 24.25 20.6667 24.25Z" fill="#FFC63C"/>
<path fill-rule="evenodd" clip-rule="evenodd" d="M19.2619 21.4166C20.0378 21.4166 20.6667 20.7824 20.6667 20C20.6667 19.2176 20.0378 18.5833 19.2619 18.5833C18.4861 18.5833 17.8572 19.2176 17.8572 20C17.8572 20.7824 18.4861 21.4166 19.2619 21.4166Z" fill="#FFC63C"/>
<path fill-rule="evenodd" clip-rule="evenodd" d="M17.8572 25.6667C18.633 25.6667 19.2619 25.0324 19.2619 24.25C19.2619 23.4676 18.633 22.8333 17.8572 22.8333C17.0813 22.8333 16.4524 23.4676 16.4524 24.25C16.4524 25.0324 17.0813 25.6667 17.8572 25.6667Z" fill="#FFC63C"/>
<path fill-rule="evenodd" clip-rule="evenodd" d="M20.6667 27.0833C21.4426 27.0833 22.0715 26.4491 22.0715 25.6667C22.0715 24.8843 21.4426 24.25 20.6667 24.25C19.8909 24.25 19.262 24.8843 19.262 25.6667C19.262 26.4491 19.8909 27.0833 20.6667 27.0833Z" fill="#FFC63C"/>
<path fill-rule="evenodd" clip-rule="evenodd" d="M17.8572 28.5C18.633 28.5 19.2619 27.8658 19.2619 27.0834C19.2619 26.3009 18.633 25.6667 17.8572 25.6667C17.0813 25.6667 16.4524 26.3009 16.4524 27.0834C16.4524 27.8658 17.0813 28.5 17.8572 28.5Z" fill="#FFC63C"/>
<path fill-rule="evenodd" clip-rule="evenodd" d="M20.6667 29.9167C21.4426 29.9167 22.0715 29.2824 22.0715 28.5C22.0715 27.7176 21.4426 27.0833 20.6667 27.0833C19.8909 27.0833 19.262 27.7176 19.262 28.5C19.262 29.2824 19.8909 29.9167 20.6667 29.9167Z" fill="#FFC63C"/>
</g>
</svg>
