<svg fill="none" height="53" viewBox="0 0 61 53" width="61" xmlns="http://www.w3.org/2000/svg" xmlns:xlink="http://www.w3.org/1999/xlink"><mask id="a" height="43" maskUnits="userSpaceOnUse" width="59" x="1" y="3"><rect fill="#fff" height="42.5" rx="4.24286" width="59" x="1" y="3"/></mask><rect fill="#fff" height="42.5" rx="4.24286" width="59" x="1" y="3"/><g mask="url(#a)"><g clip-rule="evenodd" fill-rule="evenodd"><path d="m1 14.3333h59v-11.3333h-59z" fill="#dd172c"/><path d="m1 45.5h59v-11.3333h-59z" fill="#dd172c"/><path d="m1 34.1667h59v-19.8334h-59z" fill="#ffd133"/><path d="m16.4524 22.8333h2.8095v1.4167h-2.8095z" fill="#ffedb1"/></g><path d="m14.4764 22.1238h3.9519c.4135 0 .7388.3533.7047.7654l-.3614 4.3736c-.0909 1.1002-1.0103 1.9467-2.1142 1.9467h-.4101c-1.1039 0-2.0233-.8465-2.1142-1.9467l-.3614-4.3736c-.0341-.4121.2912-.7654.7047-.7654z" stroke="#a41517" stroke-width="1.41429"/><path clip-rule="evenodd" d="m13.6428 24.25h5.6191v1.4167h-1.4048l-1.4048 2.8333-1.4047-2.8333h-1.4048z" fill="#a41517" fill-rule="evenodd"/><rect fill="#a41517" height="9.91667" rx="1.40476" width="2.80952" x="9.42847" y="20"/><rect fill="#a41517" height="9.91667" rx="1.40476" width="2.80952" x="20.6667" y="20"/><path d="m13.6428 19.4333c0-1.2518 1.0148-2.2666 2.2667-2.2666h1.0857c1.2518 0 2.2667 1.0148 2.2667 2.2666 0 .313-.2537.5667-.5667.5667h-4.4857c-.313 0-.5667-.2537-.5667-.5667z" fill="#a41517"/></g></svg>