<svg fill="none" height="53" viewBox="0 0 61 53" width="61" xmlns="http://www.w3.org/2000/svg" xmlns:xlink="http://www.w3.org/1999/xlink"><mask id="a" height="43" maskUnits="userSpaceOnUse" width="59" x="1" y="3"><rect fill="#fff" height="42.5" rx="4.24286" width="59" x="1" y="3"/></mask><rect fill="#fff" height="42.5" rx="4.24286" width="59" x="1" y="3"/><g mask="url(#a)"><g clip-rule="evenodd" fill-rule="evenodd"><path d="m1 17.1667h59v-14.1667h-59z" fill="#20aa46"/><path d="m1 45.5h59v-14.1667h-59z" fill="#e92f3b"/><path d="m1 31.3333h59v-14.1666h-59z" fill="#fadf50"/><path d="m30.5001 34.1667c5.4308 0 9.8333-4.4399 9.8333-9.9167s-4.4025-9.9167-9.8333-9.9167-9.8334 4.4399-9.8334 9.9167 4.4026 9.9167 9.8334 9.9167z" fill="#205cca"/></g><path d="m30.9129 26.4383-.4128-.2967-.4127.2967-2.4096 1.7323.8921-2.8561.1493-.4779-.4012-.2996-2.3944-1.7878 2.9728-.027.5054-.0046.1593-.4797.939-2.8275.939 2.8275.1593.4797.5054.0046 2.9729.027-2.3944 1.7878-.4012.2996.1493.4779.8921 2.8561z" stroke="#ffdb3d" stroke-width="1.41429"/></g></svg>