<svg fill="none" height="53" viewBox="0 0 61 53" width="61" xmlns="http://www.w3.org/2000/svg" xmlns:xlink="http://www.w3.org/1999/xlink"><mask id="a" height="43" maskUnits="userSpaceOnUse" width="59" x="1" y="3"><rect fill="#fff" height="42.5" rx="4.24286" width="59" x="1" y="3"/></mask><rect fill="#fff" height="42.5" rx="4.24286" width="59" x="1" y="3"/><g mask="url(#a)"><path d="m1 3h59v42.5h-59z" fill="#043cae"/><path clip-rule="evenodd" d="m28.5135 12.0868 1.9866-.5868 1.9867.5868-.5819-2.0035.5819-2.00344-1.9867.58681-1.9866-.58681.5819 2.00344zm0 28.3333 1.9866-.5868 1.9867.5868-.5819-2.0034.5819-2.0035-1.9867.5868-1.9866-.5868.5819 2.0035zm16.0342-14.7534-1.9866.5868.5819-2.0035-.5819-2.0035 1.9866.5868 1.9867-.5868-.5819 2.0035.5819 2.0035zm-30.0819.5868 1.9867-.5868 1.9866.5868-.5819-2.0035.5819-2.0035-1.9866.5868-1.9867-.5868.5819 2.0035zm28.1999-7.6702-1.9866.5868.5818-2.0034-.5818-2.0035 1.9866.5868 1.9866-.5868-.5818 2.0035.5818 2.0034zm-26.3178 14.7535 1.9866-.5868 1.9867.5868-.5819-2.0035.5819-2.0034-1.9867.5868-1.9866-.5868.5819 2.0034zm21.176-19.9389-1.9866.5868.5819-2.0034-.5819-2.00349 1.9866.58679 1.9867-.58679-.5819 2.00349.5819 2.0034zm-16.0342 25.1242 1.9866-.5868 1.9867.5868-.5819-2.0034.5819-2.0035-1.9867.5868-1.9866-.5868.5819 2.0035zm21.176-5.7721-1.9866.5868.5818-2.0035-.5818-2.0034 1.9866.5868 1.9866-.5868-.5818 2.0034.5818 2.0035zm-26.3178-13.5799 1.9866-.5868 1.9867.5868-.5819-2.0034.5819-2.0035-1.9867.5868-1.9866-.5868.5819 2.0035zm21.176 18.7652-1.9866.5868.5819-2.0034-.5819-2.0035 1.9866.5868 1.9867-.5868-.5819 2.0035.5819 2.0034zm-16.0342-23.9506 1.9866-.5868 1.9867.5868-.5819-2.0034.5819-2.00349-1.9867.58679-1.9866-.58679.5819 2.00349z" fill="#ffd429" fill-rule="evenodd"/></g></svg>