<svg width="61" height="53" viewBox="0 0 61 53" fill="none" xmlns="http://www.w3.org/2000/svg">
<rect x="1" y="3" width="59" height="42.5" rx="4.24286" fill="white"/>
<mask id="mask0" mask-type="alpha" maskUnits="userSpaceOnUse" x="1" y="3" width="59" height="43">
<rect x="1" y="3" width="59" height="42.5" rx="4.24286" fill="white"/>
</mask>
<g mask="url(#mask0)">
<rect x="1" y="3" width="59" height="42.5" fill="#07319C"/>
<path fill-rule="evenodd" clip-rule="evenodd" d="M37.5239 24.25C37.5239 21.924 37.5239 19.1736 37.5239 17.1601C37.5239 15.5979 38.7903 14.3333 40.3525 14.3333H48.743C50.3051 14.3333 51.5715 15.5979 51.5715 17.1601C51.5715 19.1736 51.5715 21.924 51.5715 24.25C51.5715 31.3333 44.5477 34.1667 44.5477 34.1667C44.5477 34.1667 37.5239 31.3333 37.5239 24.25Z" fill="#0072C4"/>
<mask id="mask1" mask-type="alpha" maskUnits="userSpaceOnUse" x="37" y="14" width="15" height="21">
<path fill-rule="evenodd" clip-rule="evenodd" d="M37.5239 24.25C37.5239 21.924 37.5239 19.1736 37.5239 17.1601C37.5239 15.5979 38.7903 14.3333 40.3525 14.3333H48.743C50.3051 14.3333 51.5715 15.5979 51.5715 17.1601C51.5715 19.1736 51.5715 21.924 51.5715 24.25C51.5715 31.3333 44.5477 34.1667 44.5477 34.1667C44.5477 34.1667 37.5239 31.3333 37.5239 24.25Z" fill="white"/>
</mask>
<g mask="url(#mask1)">
<path fill-rule="evenodd" clip-rule="evenodd" d="M40.76 22.6939C39.3204 24.1602 42.1417 23.9743 42.1417 23.9743L44.1511 23.3254C44.1511 23.3254 45.0545 23.4357 45.6643 23.621C46.0683 23.7438 47.1924 24.25 47.1924 24.25C47.1924 24.25 49.5665 23.772 48.7318 22.6939C47.897 21.6157 42.1996 21.2275 40.76 22.6939Z" fill="#005121"/>
<path fill-rule="evenodd" clip-rule="evenodd" d="M46.7459 21.1706C46.8037 21.1573 46.9385 21.1603 46.9888 21.2221C47.0678 21.3187 47.2295 21.2866 47.3084 21.3797C47.3871 21.4731 47.4786 21.5591 47.4786 21.6919C47.4786 21.8247 47.4633 22.1539 47.4661 22.2262C47.4701 22.3376 47.4892 22.3549 47.6028 22.3519C47.7399 22.3484 47.929 22.3376 47.935 22.0902C47.939 21.9178 47.7689 21.8101 47.7193 21.1967C47.7939 21.1323 47.8604 21.0748 47.8354 20.989C47.8104 20.9029 47.9765 20.8597 47.9599 20.7305C47.9431 20.6015 48.1257 20.5224 48.0511 20.3791C47.9765 20.2356 48.1423 20.2286 48.0761 20.1136C48.0096 19.9989 48.1838 19.8983 48.1092 19.7982C48.0346 19.6975 48.2087 19.6044 48.1176 19.4824C48.0261 19.3605 48.1672 19.2887 48.0761 19.1953C48.1341 19.1022 48.0842 18.8367 47.9016 18.6861C47.7193 18.5353 47.462 18.4565 47.3125 18.399C47.0344 18.2922 46.5158 18.3416 46.1506 18.3847C45.7854 18.4276 45.1048 18.4708 44.8973 18.4422C44.69 18.4136 44.2005 18.3847 43.8143 18.4492C43.6823 18.4713 43.5321 18.4314 43.4535 18.3561C43.3904 18.296 43.3539 18.3024 43.2958 18.3059C43.2378 18.3094 43.2044 18.2914 43.1753 18.2196C43.1241 18.0933 43.0096 18.1802 42.9556 18.0223C42.9193 17.9168 42.7311 18.008 42.6734 17.9184C42.615 17.8289 42.5447 17.8181 42.3868 17.8289C42.3787 17.7749 42.2916 17.7355 42.2126 17.7498C42.2251 17.6602 42.138 17.5884 41.9928 17.5919C42.0094 17.4808 41.8061 17.3947 41.7022 17.463C41.636 17.3804 41.503 17.3982 41.4699 17.463C41.3994 17.3804 41.1753 17.4055 41.1213 17.4951C41.026 17.4414 40.8406 17.5733 40.8559 17.7822C40.86 17.8397 40.8637 17.8993 40.7685 17.9184C40.5903 17.9543 40.4866 18.1551 40.3327 18.1837C40.1794 18.2126 40.0258 18.2628 39.9968 18.3488C39.9678 18.4349 40.0218 18.5248 39.9637 18.5677C39.9057 18.6109 40.0009 18.6503 40.0299 18.6716C40.0589 18.6932 40.1045 18.729 40.1129 18.7792C40.1248 18.8505 40.2412 18.8718 40.3621 18.7935C40.4117 18.7614 40.4988 18.8583 40.6399 18.79C40.781 18.722 40.9814 18.7579 40.9471 18.8691C40.9305 18.9228 40.9677 18.9803 41.0136 19.034C41.0591 19.0877 41.1275 19.2498 41.0882 19.3424C41.0301 19.4787 41.1462 19.5542 41.1172 19.6759C41.0882 19.7982 41.1337 19.9093 41.0716 20.0742C41.0092 20.2391 41.0082 20.4455 41.1006 20.5046C41.2293 20.5872 41.1515 20.7507 41.2624 20.8203C41.3535 20.8775 41.2998 21.0176 41.4699 21.0605C41.6401 21.1037 41.5405 21.2183 41.7187 21.2434C41.8973 21.2685 41.9594 21.3978 42.1461 21.3689C42.2838 21.3479 42.3562 21.3816 42.4364 21.4134C42.453 21.5284 42.4161 21.9501 42.4077 22.0578C42.4002 22.1531 42.3496 22.305 42.3496 22.3986C42.3496 22.4558 42.4658 22.4701 42.5987 22.4701C42.7311 22.4701 42.7895 22.4164 42.7561 22.2659C42.723 22.115 42.7149 21.7478 42.7233 21.5181C42.8385 21.574 42.9481 21.6522 42.9431 21.7386C42.9346 21.8784 42.9368 22.1293 42.9137 22.2586C42.8975 22.3519 42.9222 22.499 42.9306 22.5959C42.939 22.6315 43.1628 22.628 43.2543 22.5959C43.3455 22.5635 43.3455 22.4774 43.337 22.0864C43.333 21.8929 43.1294 21.6951 43.387 21.5985C43.5115 21.5519 43.6857 21.4442 43.7522 21.3441C43.8184 21.2434 43.9639 21.2828 44.0675 21.3333C44.1711 21.3835 44.3372 21.4601 44.4412 21.4264C44.5738 21.3835 44.7149 21.4909 44.8311 21.4264C44.9472 21.3619 45.0967 21.4731 45.1919 21.3943C45.2875 21.3152 45.4535 21.3905 45.5241 21.3152C45.5946 21.2399 45.885 21.3584 45.9889 21.258C46.0925 21.1574 46.2336 21.2866 46.3292 21.2113C46.3541 21.1914 46.3838 21.187 46.4163 21.1895C46.4125 21.3592 46.381 21.6293 46.3747 21.7135C46.3673 21.809 46.3167 21.9607 46.3167 22.054C46.3167 22.1115 46.4328 22.1258 46.5655 22.1258C46.6985 22.1258 46.7565 22.0721 46.7234 21.9215C46.69 21.771 46.7378 21.4005 46.7459 21.1706" fill="#A3A3A3"/>
<path fill-rule="evenodd" clip-rule="evenodd" d="M40.0313 18.555C40.0868 18.5143 40.0353 18.4295 40.0631 18.348C40.0909 18.2668 40.2379 18.2193 40.3849 18.1923C40.532 18.1651 40.6313 17.9754 40.8023 17.9414C40.8935 17.9233 40.8897 17.8669 40.8857 17.8127C40.8713 17.6154 41.0486 17.4907 41.1401 17.5417C41.1916 17.4567 41.4064 17.433 41.4738 17.511C41.5056 17.45 41.6327 17.433 41.6964 17.511C41.7956 17.4468 41.9904 17.528 41.9745 17.633C42.1137 17.6297 42.1971 17.6974 42.1852 17.7822C42.2608 17.7687 42.3441 17.8059 42.3522 17.8567C42.3394 17.94 42.5283 17.9614 42.4409 18.0153C42.3644 18.0625 42.2917 18.0439 42.2046 17.9794C42.1175 17.9147 41.8269 17.9721 41.7853 18.0045C41.7438 18.0369 41.6982 18.0512 41.6648 18.0261C41.6318 18.001 41.5531 17.9614 41.5156 17.9651C41.4782 17.9686 41.3995 17.9686 41.3536 17.8934C41.308 17.8181 41.1919 17.8073 41.1713 17.8359C41.1507 17.8645 41.2169 17.9686 41.2834 18.008C41.3496 18.0477 41.3165 18.123 41.3954 18.1659C41.447 18.1942 41.3995 18.2914 41.3705 18.3488C41.3414 18.4063 41.2294 18.3882 41.2209 18.3453C41.2128 18.3024 41.1835 18.2736 41.1173 18.338C41.0508 18.4028 40.91 18.3847 40.8766 18.3669C40.8435 18.3488 40.7521 18.3167 40.6899 18.3345C40.6275 18.3526 40.719 18.3812 40.7274 18.4063C40.7355 18.4314 40.6275 18.4422 40.5654 18.4422C40.5033 18.4422 40.4823 18.4778 40.5198 18.4851C40.5573 18.4924 40.7021 18.4997 40.7605 18.4708C40.8186 18.4422 40.9968 18.4708 41.0137 18.5248C41.0302 18.5785 40.91 18.6001 40.8392 18.5928C40.7349 18.5823 40.5819 18.6395 40.5073 18.6573C40.4327 18.6754 40.2335 18.6287 40.1546 18.6503C40.0759 18.6716 39.9982 18.5871 40.0313 18.555" fill="#A3A3A3"/>
<path fill-rule="evenodd" clip-rule="evenodd" d="M41.3659 18.9946C41.2913 19.0232 41.3163 19.1092 41.3827 19.1451C41.4492 19.181 41.5985 19.1953 41.694 19.1775C41.7892 19.1594 41.8101 19.1883 41.748 19.2242C41.6856 19.2598 41.8432 19.2671 41.8307 19.3246C41.8185 19.3818 41.8888 19.371 41.9553 19.3675C42.0218 19.364 42.1089 19.3208 42.1835 19.2814C42.2581 19.242 42.3121 19.2706 42.2415 19.3389C42.1713 19.4069 41.9347 19.4932 41.748 19.4824C41.561 19.4716 41.4614 19.5146 41.5029 19.5755C41.5445 19.6365 41.7436 19.6473 41.8473 19.6149C41.9512 19.5828 41.9347 19.6403 41.8557 19.6794C41.7767 19.7191 41.6646 19.7226 41.5694 19.7191C41.4739 19.7156 41.3909 19.7982 41.5154 19.8446C41.64 19.8912 41.806 19.8626 41.8682 19.902C41.9306 19.9414 42.1213 19.8805 42.1254 19.9487C42.1295 20.0167 42.0714 20.0418 41.9593 20.0348C41.8473 20.0275 41.8803 20.0785 41.9637 20.1063C42.0383 20.1317 42.1713 20.1317 42.2415 20.1244C42.3121 20.1174 42.2915 20.1889 42.2209 20.214C42.1504 20.2391 41.9222 20.275 41.8101 20.2715C41.698 20.2679 41.7517 20.3397 41.8972 20.3397C42.3411 20.3397 42.4906 20.1279 42.6027 19.9808C42.6576 19.9088 42.7644 19.8697 42.7894 19.9128C42.8144 19.9557 42.8184 19.9665 42.7688 20.0024C42.7188 20.0383 42.731 20.0599 42.8225 20.0634C42.9136 20.0669 43.0466 20.0418 43.1256 20.0205C43.2043 19.9989 43.4365 20.1346 43.2458 20.1387C42.9096 20.146 42.4947 20.2679 42.358 20.3181C42.2209 20.3683 41.9924 20.4628 41.8516 20.4579C41.748 20.4544 41.7062 20.4938 41.748 20.5405C41.7892 20.5872 41.9222 20.5872 41.9968 20.5656C42.0714 20.544 42.0879 20.5656 42.0383 20.6085C41.9887 20.6517 41.8641 20.6695 41.7767 20.684C41.6899 20.6983 41.6468 20.7545 41.7146 20.7771C41.8432 20.8203 41.7271 20.8597 41.8185 20.8813C41.9097 20.9029 41.8101 20.9709 41.9097 20.9925C42.0093 21.0141 42.0673 21.0033 42.1419 20.9531C42.2169 20.9029 42.2581 20.874 42.337 20.8813C42.416 20.8886 42.47 20.8524 42.5156 20.7987C42.5612 20.745 42.7148 20.6482 42.7644 20.6948C42.8144 20.7415 42.918 20.6552 42.9389 20.7019C42.9595 20.7485 43.0466 20.7199 43.0675 20.7844C43.0903 20.8562 43.1877 20.8705 43.2542 20.8454C43.3204 20.8203 43.3744 20.7593 43.3744 20.6695C43.3744 20.5799 43.3994 20.544 43.4243 20.6409C43.449 20.7377 43.5405 20.7663 43.586 20.7199C43.6316 20.6732 43.6482 20.5119 43.6151 20.4366C43.582 20.361 43.5776 20.2642 43.611 20.2464C43.6441 20.2286 43.7231 20.3934 43.7562 20.4652C43.7896 20.537 43.8764 20.5154 43.8807 20.4436C43.8848 20.3718 43.9638 20.3359 44.0218 20.3899C44.0799 20.4436 44.0468 20.6231 44.0633 20.7091C44.0799 20.7952 44.2416 20.6876 44.2584 20.7162C44.275 20.745 44.3371 20.752 44.3621 20.6911C44.3871 20.6301 44.4451 20.5764 44.4782 20.6123C44.5116 20.6482 44.5613 20.7091 44.5819 20.7771C44.6028 20.8454 44.6774 20.8813 44.723 20.8095C44.7685 20.7377 44.8019 20.598 44.7854 20.5008C44.7685 20.4042 44.7979 20.3432 44.8391 20.3934C44.8806 20.4436 44.8765 20.5799 44.8806 20.6911C44.885 20.8022 45.0217 20.7917 45.0217 20.6266C45.0217 20.5513 45.0632 20.537 45.0757 20.5799C45.0882 20.6231 45.0882 20.6948 45.1007 20.7269C45.1313 20.8066 45.2377 20.7628 45.2499 20.7091C45.2624 20.6552 45.2418 20.4614 45.2168 20.3756C45.1918 20.2893 45.2418 20.2286 45.2833 20.275C45.3248 20.3216 45.3329 20.4436 45.3414 20.5799C45.3495 20.7162 45.4366 20.7234 45.4825 20.684C45.528 20.6444 45.528 20.5297 45.5074 20.4471C45.4865 20.3648 45.553 20.3648 45.582 20.415C45.6111 20.4652 45.661 20.4328 45.6526 20.3934C45.6445 20.354 45.6857 20.3181 45.7272 20.3718C45.7687 20.4258 45.7562 20.5478 45.7356 20.6444C45.7147 20.7415 45.8393 20.7305 45.8973 20.6482C45.9554 20.5656 45.9264 20.3397 45.8767 20.2679C45.8268 20.1962 45.8312 20.1028 45.8599 20.0205C45.8892 19.9379 45.9432 19.9342 45.9473 19.9703C45.9513 20.0059 45.9763 20.0669 46.0219 20.1136C46.0675 20.1603 46.0924 20.1676 46.1006 20.0955C46.109 20.024 46.1505 20.0418 46.1671 20.0955C46.1839 20.1495 46.2126 20.1924 46.2541 20.146C46.2957 20.0993 46.3497 20.1352 46.3166 20.207C46.2832 20.2787 46.2832 20.3432 46.3082 20.415C46.3331 20.4868 46.4202 20.476 46.4286 20.3934C46.4458 20.2218 46.4702 20.3359 46.4908 20.4112C46.5114 20.4868 46.5738 20.483 46.5863 20.4401C46.5988 20.3969 46.6113 20.3864 46.6113 20.4328C46.6113 20.4795 46.6319 20.5189 46.6859 20.5189C46.7399 20.5189 46.7274 20.4258 46.7521 20.3683C46.777 20.3109 46.8226 20.3899 46.885 20.5224C46.9472 20.6552 46.9927 20.5297 47.1382 20.8311C47.1975 20.9539 47.2834 20.8489 47.2793 20.806C47.2749 20.7628 47.2874 20.7342 47.358 20.7342C47.4285 20.7342 47.4866 20.7199 47.4619 20.6732C47.437 20.6266 47.4535 20.5405 47.4494 20.4436C47.4454 20.3467 47.4576 20.293 47.47 20.3467C47.4825 20.4004 47.524 20.476 47.5902 20.5154C47.6567 20.5548 47.7023 20.4471 47.6483 20.3791C47.5946 20.3109 47.52 20.1495 47.524 20.0132C47.5272 19.9128 47.5737 19.9449 47.5737 20.0167C47.5737 20.0885 47.6152 20.2178 47.6776 20.2464C47.7398 20.275 47.7647 20.1422 47.7357 20.0742C47.7067 20.0059 47.6901 19.9128 47.7522 19.8948C47.8144 19.8769 47.7357 19.8017 47.6817 19.7477C47.6277 19.694 47.5946 19.6403 47.6901 19.6438C47.7853 19.6473 47.7067 19.5863 47.6608 19.5469C47.6152 19.5075 47.5365 19.4285 47.6608 19.4393C47.7853 19.4501 47.7441 19.3856 47.6942 19.3497C47.6442 19.3138 47.6152 19.2455 47.7023 19.2493C47.7897 19.2528 47.8434 19.2096 47.8353 19.1775C47.8034 19.0531 47.5946 18.9085 47.466 18.7973C47.3374 18.6861 47.1298 18.575 47.0177 18.5569C46.9056 18.5388 46.9016 18.6109 46.9306 18.6538C46.9596 18.6967 47.0177 18.7255 47.0261 18.6824C47.0343 18.6395 47.1214 18.6861 47.1629 18.7433C47.2044 18.8008 47.3455 18.8726 47.4329 18.9371C47.52 19.0016 47.3165 18.9695 47.2169 18.8834C47.1601 18.834 47.1669 18.8939 47.2418 18.9622C47.3165 19.0305 47.2209 19.0591 47.1423 19.0016C47.0633 18.9444 46.8601 18.783 46.7315 18.6789C46.6028 18.575 46.5819 18.6001 46.5779 18.6681C46.5738 18.7363 46.6194 18.783 46.7024 18.8402C46.7855 18.8977 46.8891 18.9873 46.9681 19.0483C47.0467 19.1092 46.9806 19.1486 46.9306 19.1055C46.8807 19.0626 46.7108 18.9444 46.6113 18.8618C46.5114 18.7792 46.4202 18.7398 46.3581 18.7506C46.2957 18.7614 46.3 18.8224 46.3746 18.8869C46.4493 18.9514 46.5407 19.0734 46.5407 19.1451C46.5407 19.2169 46.4742 19.2671 46.4408 19.1381C46.4077 19.0089 46.2501 18.8583 46.134 18.7433C46.0178 18.6287 45.9014 18.6071 45.8143 18.6144C45.7272 18.6214 45.7313 18.7075 45.7313 18.7757C45.7313 18.8437 45.6732 18.8043 45.6691 18.7541C45.6651 18.7039 45.5986 18.661 45.5611 18.6646C45.524 18.6681 45.5365 18.7722 45.524 18.8189C45.5115 18.8653 45.4534 18.9085 45.4534 18.8008C45.4534 18.6932 45.3164 18.6395 45.2583 18.6357C45.2003 18.6322 45.1463 18.6538 45.1753 18.7004C45.2043 18.7469 45.1918 18.8726 45.1712 18.9444C45.1503 19.0159 45.0882 18.8904 45.0757 18.7576C45.0632 18.6252 44.8684 18.5318 44.7314 18.5712C44.5943 18.6109 44.6983 18.6967 44.6733 18.7792C44.6483 18.8618 44.6109 18.7865 44.5984 18.7004C44.5862 18.6144 44.5197 18.5604 44.4286 18.582C44.3371 18.6036 44.275 18.6465 44.2791 18.7039C44.2831 18.7614 44.2831 18.8116 44.2625 18.9047C44.2416 18.9981 44.2044 18.9514 44.2085 18.8904C44.2129 18.8294 44.192 18.729 44.171 18.6716C44.1504 18.6144 44.117 18.6681 44.1255 18.7398C44.1339 18.8116 44.113 18.9765 44.0799 19.0771C44.0468 19.1775 43.9969 19.181 44.0218 19.0448C44.0468 18.9085 43.9844 18.7075 43.9222 18.6144C43.8776 18.5477 43.7771 18.5248 43.7771 18.6179C43.7771 18.7112 43.8061 18.7792 43.8807 18.8475C43.9553 18.9155 43.8973 19.0842 43.8227 19.174C43.7477 19.2636 43.7521 19.1343 43.7771 19.0375C43.8017 18.9406 43.665 18.9085 43.611 18.8904C43.557 18.8726 43.6691 18.7757 43.694 18.6465C43.7062 18.5828 43.6897 18.5426 43.64 18.5388C43.5901 18.5353 43.4574 18.6573 43.3994 18.7469C43.4159 18.6538 43.3994 18.5712 43.3494 18.5712C43.2998 18.5712 43.2458 18.661 43.2086 18.7255C43.1712 18.79 43.1337 18.7541 43.1712 18.6861C43.2086 18.6179 43.2664 18.4349 43.1918 18.3955C43.1172 18.3561 43.0507 18.5175 42.972 18.4886C42.9274 18.4724 42.9885 18.3704 43.0135 18.3237C43.0382 18.2771 42.9885 18.2412 42.8765 18.3273C42.7644 18.4136 42.7148 18.5534 42.6854 18.6395C42.6567 18.7255 42.4575 18.8653 42.3495 18.9406C42.2415 19.0159 42.1959 18.9873 42.25 18.9549C42.304 18.9228 42.4117 18.8224 42.4657 18.783C42.5197 18.7433 42.4947 18.7201 42.3911 18.7881C42.2874 18.8564 42.0986 18.9803 41.9053 19.0232C41.792 19.0485 41.7767 19.0269 41.8888 18.9946C42.0008 18.9622 42.2581 18.8078 42.3205 18.7363C42.3595 18.6913 42.2581 18.729 42.2084 18.7398C42.1588 18.7506 42.1173 18.7363 42.2169 18.7004C42.3161 18.6646 42.6317 18.3812 42.6982 18.2771C42.7644 18.1732 42.7063 18.1335 42.6648 18.1373C42.6233 18.1408 42.5652 18.1659 42.5777 18.123C42.5902 18.0798 42.5612 18.0223 42.5072 18.0404C42.4532 18.0582 42.4575 18.1624 42.4366 18.2196C42.416 18.2771 42.2996 18.3526 42.225 18.3526C42.1504 18.3526 42.0467 18.3669 41.9678 18.4206C41.8888 18.4743 41.8516 18.4241 41.8888 18.3812C41.9262 18.338 42.0093 18.3273 42.0923 18.3237C42.1753 18.3202 42.2665 18.3094 42.337 18.2412C42.4076 18.1732 42.4117 18.1192 42.358 18.1157C42.304 18.1122 42.2125 18.0512 42.1835 18.0261C42.0361 17.8985 41.7661 18.0763 41.6606 18.1802C41.6025 18.2377 41.4034 18.4028 41.3412 18.4457C41.2788 18.4886 41.3038 18.5496 41.4074 18.4673C41.5114 18.3847 41.5445 18.4422 41.4492 18.5032C41.3534 18.5642 41.2832 18.6538 41.3163 18.6861C41.3493 18.7182 41.478 18.6789 41.5485 18.6395C41.6191 18.6001 41.6525 18.6967 41.478 18.729C41.3609 18.7509 41.32 18.7925 41.4118 18.7973C41.4823 18.8008 41.59 18.7722 41.6899 18.722C41.7892 18.6716 41.8682 18.7004 41.7851 18.7506C41.7021 18.8008 41.5195 18.8691 41.4283 18.8691C41.3518 18.8691 41.4408 18.966 41.3659 18.9946Z" fill="white"/>
<path fill-rule="evenodd" clip-rule="evenodd" d="M41.8474 18.1928C41.9473 18.088 42.0344 18.0421 42.1256 18.1175C42.2083 18.1858 42.217 18.2155 42.1131 18.1928C42.0094 18.1702 41.9389 18.1928 41.8768 18.2606C41.8143 18.3286 41.7438 18.3019 41.8474 18.1928" fill="#A3A3A3"/>
<path fill-rule="evenodd" clip-rule="evenodd" d="M40.2044 18.4591C40.279 18.3837 40.3992 18.3837 40.4532 18.301C40.5072 18.218 40.5653 18.2483 40.4988 18.3274C40.4326 18.4064 40.304 18.4217 40.25 18.4781C40.196 18.5345 40.1669 18.4968 40.2044 18.4591" fill="#A3A3A3"/>
<path fill-rule="evenodd" clip-rule="evenodd" d="M40.6692 18.1711C40.7141 18.1649 40.8019 18.1107 40.8559 18.0467C40.9099 17.9827 41.026 17.96 41.0962 18.0354C41.1668 18.1107 41.2042 18.1371 41.2417 18.1524C41.2788 18.1674 41.2788 18.2164 41.2208 18.2312C41.1627 18.2465 41.0841 18.2578 41.0425 18.2388C41.001 18.2201 40.9386 18.2051 40.8889 18.2164C40.839 18.2275 40.8184 18.2051 40.8599 18.1861C40.9014 18.1674 40.9511 18.1107 40.976 18.0881C41.001 18.0657 41.0672 18.0844 41.03 18.1071C40.9926 18.1297 41.0091 18.1785 41.0466 18.1974C41.0841 18.2164 41.1587 18.2164 41.1918 18.1824C41.1421 18.1334 41.0591 18.0694 41.026 18.0507C40.9926 18.0317 40.9636 18.024 40.922 18.0694C40.8805 18.1147 40.7809 18.2238 40.6857 18.2201C40.5902 18.2164 40.6152 18.1785 40.6692 18.1711" fill="#A3A3A3"/>
<path fill-rule="evenodd" clip-rule="evenodd" d="M43.2914 18.8469C43.2546 18.8987 43.2209 18.9656 43.2168 19.0183C43.2127 19.071 43.2605 19.107 43.2664 19.041C43.2727 18.9749 43.2789 18.9356 43.3307 18.8865C43.3829 18.8375 43.3329 18.7885 43.2914 18.8469" fill="#A3A3A3"/>
<path fill-rule="evenodd" clip-rule="evenodd" d="M42.7833 18.8457C42.8264 18.8281 42.8995 18.7873 42.9347 18.7496C42.97 18.7122 42.9928 18.7366 42.9575 18.7779C42.9222 18.8193 42.8414 18.8683 42.8039 18.8797C42.7668 18.891 42.7378 18.8646 42.7833 18.8457" fill="#A3A3A3"/>
<path fill-rule="evenodd" clip-rule="evenodd" d="M42.8475 19.0553C42.7879 19.1276 42.5528 19.2995 42.4823 19.3316C42.4117 19.364 42.4367 19.4107 42.5157 19.3856C42.4576 19.432 42.3287 19.5075 42.246 19.5288C42.1629 19.5504 42.1461 19.6149 42.2706 19.5755C42.3952 19.5361 42.5694 19.432 42.6149 19.3856C42.6608 19.3389 42.6028 19.3173 42.6733 19.2671C42.7439 19.2169 42.8744 19.1252 42.8931 19.0877C42.9221 19.0305 42.889 19.0051 42.8475 19.0553" fill="#A3A3A3"/>
<path fill-rule="evenodd" clip-rule="evenodd" d="M42.5904 19.6403C42.6794 19.5966 42.8455 19.442 42.8932 19.3532C42.9223 19.2995 42.9803 19.3065 42.9348 19.3891C42.8892 19.4716 42.719 19.6187 42.661 19.6581C42.6029 19.6975 42.4949 19.6867 42.5904 19.6403" fill="#A3A3A3"/>
<path fill-rule="evenodd" clip-rule="evenodd" d="M44.4783 18.79C44.454 18.8405 44.4493 18.9587 44.4577 19.0159C44.4658 19.0734 44.5158 19.1165 44.5074 19.0305C44.4992 18.9444 44.4992 18.8583 44.528 18.8332C44.5573 18.8078 44.5198 18.7039 44.4783 18.79" fill="#A3A3A3"/>
<path fill-rule="evenodd" clip-rule="evenodd" d="M44.9847 19.0016C45.0268 19.0407 45.0468 19.2242 45.0427 19.2922C45.0387 19.3605 45.1092 19.3605 45.1049 19.2636C45.1008 19.1667 45.0924 19.0447 45.0552 18.9803C45.0178 18.9155 44.9266 18.9479 44.9847 19.0016" fill="#A3A3A3"/>
<path fill-rule="evenodd" clip-rule="evenodd" d="M45.4286 19.1201C45.4542 19.167 45.4867 19.2563 45.4867 19.3208C45.4867 19.3856 45.5407 19.3567 45.5447 19.2814C45.5488 19.2061 45.5366 19.1416 45.5076 19.0915C45.4786 19.0413 45.3912 19.0518 45.4286 19.1201" fill="#A3A3A3"/>
<path fill-rule="evenodd" clip-rule="evenodd" d="M45.7026 19.064C45.6798 19.0062 45.6445 18.9546 45.6192 18.9622C45.5946 18.9699 45.6111 19.0226 45.6445 19.079C45.6773 19.1356 45.7273 19.128 45.7026 19.064" fill="#A3A3A3"/>
<path fill-rule="evenodd" clip-rule="evenodd" d="M43.968 19.4643C43.9555 19.6146 43.8765 19.7477 43.7813 19.7944C43.6858 19.841 43.7023 19.9163 43.8185 19.841C43.9349 19.7658 44.022 19.6365 44.047 19.5218C44.0716 19.4069 43.9764 19.364 43.968 19.4643" fill="#A3A3A3"/>
<path fill-rule="evenodd" clip-rule="evenodd" d="M43.7603 19.3964C43.7107 19.4465 43.6816 19.5542 43.6816 19.6365C43.6816 19.7191 43.7147 19.6581 43.7232 19.6114C43.7316 19.5647 43.7478 19.5002 43.7897 19.4787C43.8309 19.4571 43.8103 19.3462 43.7603 19.3964" fill="#A3A3A3"/>
<path fill-rule="evenodd" clip-rule="evenodd" d="M47.3541 19.5002C47.3978 19.5728 47.4621 19.6905 47.4827 19.7585C47.5037 19.8267 47.4537 19.8446 47.4372 19.7836C47.4203 19.7226 47.3416 19.5863 47.3126 19.5396C47.2836 19.4932 47.3042 19.4177 47.3541 19.5002" fill="#A3A3A3"/>
<path d="M34.7144 22.8333C34.7144 22.8333 39.4932 24.2652 40.2998 24.2652C40.5265 24.2652 43.6219 23.5492 44.5499 23.5492C44.897 23.5492 48.1011 24.0397 48.9376 24.2652C49.7742 24.4907 54.3854 22.8333 54.3854 22.8333" stroke="white" stroke-width="1.41429" stroke-linecap="round" stroke-linejoin="round"/>
<path d="M34.7144 25.6667C34.7144 25.6667 39.4932 27.0985 40.2998 27.0985C40.5265 27.0985 43.6219 26.3826 44.5499 26.3826C44.897 26.3826 48.1011 26.873 48.9376 27.0985C49.7742 27.324 54.3854 25.6667 54.3854 25.6667" stroke="white" stroke-width="1.41429" stroke-linecap="round" stroke-linejoin="round"/>
<path d="M34.7144 31.3333C34.7144 31.3333 39.4932 32.7652 40.2998 32.7652C40.5265 32.7652 42.3717 31.6066 44.5499 31.6066C46.7281 31.6066 48.1011 32.5397 48.9377 32.7652C49.7742 32.9907 54.3854 31.3333 54.3854 31.3333L69.5091 33.7727" stroke="white" stroke-width="2.82857" stroke-linecap="round" stroke-linejoin="round"/>
</g>
<path d="M38.2311 24.25V24.1407V24.0307V23.9202V23.8092V23.6976V23.5856V23.4731V23.3601V23.2468V23.133V23.0189V22.9045V22.8472V22.8329V22.8185V22.7898V22.6748V22.5595V22.4441V22.3284V22.2126V22.0966V21.9805V21.8643V21.748V21.6317V21.5736V21.5591V21.5445V21.53V21.5154V21.5009V21.4864V21.4718V21.4573V21.4428V21.4282V21.4137V21.3992V21.3846V21.3701V21.3556V21.341V21.3265V21.312V21.2974V21.2829V21.2684V21.2539V21.2393V21.2248V21.2103V21.1958V21.1813V21.1668V21.1522V21.1377V21.1232V21.1087V21.0942V21.0797V21.0652V21.0507V21.0362V21.0217V21.0072V20.9927V20.9782V20.9637V20.9492V20.9347V20.9202V20.9058V20.8913V20.8768V20.8623V20.8479V20.8334V20.8189V20.8045V20.79V20.7755V20.7611V20.7466V20.7322V20.7177V20.7033V20.6889V20.6744V20.66V20.6456V20.6311V20.6167V20.6023V20.5879V20.5735V20.559V20.5446V20.5302V20.5158V20.5014V20.4871V20.4727V20.4583V20.4439V20.4295V20.4152V20.4008V20.3864V20.3721V20.3577V20.3434V20.329V20.3147V20.3004V20.286V20.2717V20.2574V20.2431V20.2288V20.2145V20.2002V20.1859V20.1716V20.1573V20.143V20.1287V20.1144V20.1002V20.0859V20.0717V20.0574V20.0432V20.0289V20.0147V20.0005V19.9863V19.972V19.9578V19.9436V19.9294V19.9152V19.9011V19.8869V19.8727V19.8585V19.8444V19.8302V19.8161V19.8019V19.7878V19.6749V19.5625V19.4506V19.3391V19.2282V19.1178V19.008V18.8988V18.7903V18.6823V18.5751V18.4686V18.3628V18.2577V18.1535V18.05V17.9475V17.7449V17.546V17.351V17.1601C38.2311 15.9891 39.1803 15.0405 40.3525 15.0405H48.743C49.9152 15.0405 50.8644 15.9891 50.8644 17.1601V17.1719V17.1837V17.1956V17.2074V17.2193V17.2312V17.2431V17.255V17.267V17.2789V17.2909V17.3029V17.3149V17.3269V17.339V17.351V17.3631V17.3752V17.3873V17.3994V17.4115V17.4237V17.4358V17.448V17.4602V17.4724V17.4846V17.4969V17.5091V17.5214V17.5337V17.546V17.5583V17.5707V17.583V17.5954V17.6077V17.6201V17.6325V17.645V17.6574V17.6699V17.6823V17.6948V17.7073V17.7198V17.7323V17.7449V17.7574V17.77V17.7826V17.7952V17.8078V17.8204V17.8331V17.8457V17.8584V17.8711V17.8838V17.8965V17.9092V17.9219V17.9347V17.9475V17.9602V17.973V17.9858V17.9986V18.0115V18.0243V18.0372V18.05V18.0629V18.0758V18.0887V18.1017V18.1146V18.1275V18.1405V18.1535V18.1665V18.1795V18.1925V18.2055V18.2185V18.2316V18.2447V18.2577V18.2708V18.2839V18.297V18.3102V18.3233V18.3364V18.3496V18.3628V18.376V18.3891V18.4024V18.4156V18.4288V18.442V18.4553V18.4686V18.4818V18.4951V18.5084V18.5217V18.5351V18.5484V18.5617V18.5751V18.5885V18.6018V18.6152V18.6286V18.642V18.6555V18.6689V18.6823V18.6958V18.7093V18.7227V18.7362V18.7497V18.7632V18.7767V18.7903V18.8038V18.8173V18.8309V18.8445V18.858V18.8716V18.8852V18.8988V18.9124V18.9261V18.9397V18.9534V18.967V18.9807V18.9943V19.008V19.0217V19.0354V19.0491V19.0629V19.0766V19.0903V19.1041V19.1178V19.1316V19.1454V19.1592V19.173V19.1868V19.2006V19.2144V19.2282V19.242V19.2559V19.2697V19.2836V19.2975V19.3114V19.3252V19.3391V19.353V19.367V19.3809V19.3948V19.4087V19.4227V19.4366V19.4506V19.4645V19.4785V19.4925V19.5065V19.5205V19.5345V19.5485V19.5625V19.5765V19.5906V19.6046V19.6187V19.6327V19.6468V19.6609V19.6749V19.689V19.7031V19.7172V19.7313V19.7454V19.7595V19.7737V19.7878V19.8019V19.8161V19.8302V19.8444V19.8585V19.8727V19.8869V19.901V19.9152V19.9294V19.9436V19.9578V19.972V19.9863V20.0005V20.0147V20.0289V20.0432V20.0574V20.0717V20.0859V20.1002V20.1144V20.1287V20.143V20.1573V20.1716V20.1859V20.2001V20.2144V20.2288V20.2431V20.2574V20.2717V20.286V20.3004V20.3147V20.329V20.3434V20.3577V20.3721V20.3864V20.4008V20.4152V20.4295V20.4439V20.4583V20.4727V20.4871V20.5014V20.5158V20.5302V20.5446V20.559V20.5735V20.5879V20.6023V20.6167V20.6311V20.6455V20.66V20.6744V20.6888V20.7033V20.7177V20.7322V20.7466V20.7611V20.7755V20.79V20.8045V20.8189V20.8334V20.8479V20.8623V20.8768V20.8913V20.9058V20.9202V20.9347V20.9492V20.9637V20.9782V20.9927V21.0072V21.0217V21.0362V21.0507V21.0652V21.0797V21.0942V21.1087V21.1232V21.1377V21.1522V21.1667V21.1813V21.1958V21.2103V21.2248V21.2393V21.2539V21.2684V21.2829V21.2974V21.312V21.3265V21.341V21.3556V21.3701V21.3846V21.3992V21.4137V21.4282V21.4428V21.4573V21.4718V21.4864V21.5009V21.5154V21.53V21.5445V21.5591V21.5736V21.5881V21.6027V21.6172V21.6317V21.6463V21.6608V21.6754V21.6899V21.7044V21.719V21.7335V21.748V21.7626V21.7771V21.7916V21.8062V21.8207V21.8352V21.8498V21.8643V21.8788V21.8933V21.9079V21.9224V21.9369V21.9514V21.966V21.9805V21.995V22.0095V22.024V22.0385V22.0531V22.0676V22.0821V22.0966V22.1111V22.1256V22.1401V22.1546V22.1691V22.1836V22.1981V22.2126V22.227V22.2415V22.256V22.2705V22.285V22.2995V22.3139V22.3284V22.3429V22.3573V22.3718V22.3863V22.4007V22.4152V22.4296V22.4441V22.4585V22.473V22.4874V22.5018V22.5163V22.5307V22.5451V22.5595V22.574V22.5884V22.6028V22.6172V22.6316V22.646V22.6604V22.6748V22.6892V22.7036V22.7179V22.7323V22.7467V22.7611V22.7754V22.7898V22.8042V22.8185V22.8329V22.8472V22.8615V22.8759V22.8902V22.9045V22.9188V22.9332V22.9475V22.9618V22.9761V22.9904V23.0047V23.0189V23.0332V23.0475V23.0618V23.076V23.0903V23.1045V23.1188V23.133V23.1473V23.1615V23.1757V23.1899V23.2042V23.2184V23.2326V23.2468V23.261V23.2751V23.2893V23.3035V23.3177V23.3318V23.346V23.3601V23.3743V23.3884V23.4025V23.4167V23.4308V23.4449V23.459V23.4731V23.4872V23.5012V23.5153V23.5294V23.5434V23.5575V23.5715V23.5856V23.5996V23.6136V23.6277V23.6417V23.6557V23.6697V23.6837V23.6976V23.7116V23.7256V23.7395V23.7535V23.7674V23.7813V23.7953V23.8092V23.8231V23.837V23.8509V23.8648V23.8787V23.8925V23.9064V23.9202V23.9341V23.9479V23.9617V23.9756V23.9894V24.0032V24.017V24.0307V24.0445V24.0583V24.072V24.0858V24.0995V24.1132V24.127V24.1407V24.1544V24.1681V24.1817V24.1954V24.2091V24.2227V24.2364V24.25C50.8644 27.531 49.2451 29.8336 47.5844 31.341C46.7533 32.0953 45.9199 32.6418 45.2943 32.9993C44.9833 33.1771 44.7256 33.307 44.5477 33.3916C44.3699 33.307 44.1122 33.1771 43.8011 32.9993C43.1756 32.6418 42.3422 32.0953 41.5111 31.341C39.8503 29.8336 38.2311 27.531 38.2311 24.25Z" stroke="white" stroke-width="1.41429"/>
<mask id="mask2" mask-type="alpha" maskUnits="userSpaceOnUse" x="37" y="14" width="15" height="21">
<path d="M38.2311 24.25V24.1407V24.0307V23.9202V23.8092V23.6976V23.5856V23.4731V23.3601V23.2468V23.133V23.0189V22.9045V22.8472V22.8329V22.8185V22.7898V22.6748V22.5595V22.4441V22.3284V22.2126V22.0966V21.9805V21.8643V21.748V21.6317V21.5736V21.5591V21.5445V21.53V21.5154V21.5009V21.4864V21.4718V21.4573V21.4428V21.4282V21.4137V21.3992V21.3846V21.3701V21.3556V21.341V21.3265V21.312V21.2974V21.2829V21.2684V21.2539V21.2393V21.2248V21.2103V21.1958V21.1813V21.1668V21.1522V21.1377V21.1232V21.1087V21.0942V21.0797V21.0652V21.0507V21.0362V21.0217V21.0072V20.9927V20.9782V20.9637V20.9492V20.9347V20.9202V20.9058V20.8913V20.8768V20.8623V20.8479V20.8334V20.8189V20.8045V20.79V20.7755V20.7611V20.7466V20.7322V20.7177V20.7033V20.6889V20.6744V20.66V20.6456V20.6311V20.6167V20.6023V20.5879V20.5735V20.559V20.5446V20.5302V20.5158V20.5014V20.4871V20.4727V20.4583V20.4439V20.4295V20.4152V20.4008V20.3864V20.3721V20.3577V20.3434V20.329V20.3147V20.3004V20.286V20.2717V20.2574V20.2431V20.2288V20.2145V20.2002V20.1859V20.1716V20.1573V20.143V20.1287V20.1144V20.1002V20.0859V20.0717V20.0574V20.0432V20.0289V20.0147V20.0005V19.9863V19.972V19.9578V19.9436V19.9294V19.9152V19.9011V19.8869V19.8727V19.8585V19.8444V19.8302V19.8161V19.8019V19.7878V19.6749V19.5625V19.4506V19.3391V19.2282V19.1178V19.008V18.8988V18.7903V18.6823V18.5751V18.4686V18.3628V18.2577V18.1535V18.05V17.9475V17.7449V17.546V17.351V17.1601C38.2311 15.9891 39.1803 15.0405 40.3525 15.0405H48.743C49.9152 15.0405 50.8644 15.9891 50.8644 17.1601V17.1719V17.1837V17.1956V17.2074V17.2193V17.2312V17.2431V17.255V17.267V17.2789V17.2909V17.3029V17.3149V17.3269V17.339V17.351V17.3631V17.3752V17.3873V17.3994V17.4115V17.4237V17.4358V17.448V17.4602V17.4724V17.4846V17.4969V17.5091V17.5214V17.5337V17.546V17.5583V17.5707V17.583V17.5954V17.6077V17.6201V17.6325V17.645V17.6574V17.6699V17.6823V17.6948V17.7073V17.7198V17.7323V17.7449V17.7574V17.77V17.7826V17.7952V17.8078V17.8204V17.8331V17.8457V17.8584V17.8711V17.8838V17.8965V17.9092V17.9219V17.9347V17.9475V17.9602V17.973V17.9858V17.9986V18.0115V18.0243V18.0372V18.05V18.0629V18.0758V18.0887V18.1017V18.1146V18.1275V18.1405V18.1535V18.1665V18.1795V18.1925V18.2055V18.2185V18.2316V18.2447V18.2577V18.2708V18.2839V18.297V18.3102V18.3233V18.3364V18.3496V18.3628V18.376V18.3891V18.4024V18.4156V18.4288V18.442V18.4553V18.4686V18.4818V18.4951V18.5084V18.5217V18.5351V18.5484V18.5617V18.5751V18.5885V18.6018V18.6152V18.6286V18.642V18.6555V18.6689V18.6823V18.6958V18.7093V18.7227V18.7362V18.7497V18.7632V18.7767V18.7903V18.8038V18.8173V18.8309V18.8445V18.858V18.8716V18.8852V18.8988V18.9124V18.9261V18.9397V18.9534V18.967V18.9807V18.9943V19.008V19.0217V19.0354V19.0491V19.0629V19.0766V19.0903V19.1041V19.1178V19.1316V19.1454V19.1592V19.173V19.1868V19.2006V19.2144V19.2282V19.242V19.2559V19.2697V19.2836V19.2975V19.3114V19.3252V19.3391V19.353V19.367V19.3809V19.3948V19.4087V19.4227V19.4366V19.4506V19.4645V19.4785V19.4925V19.5065V19.5205V19.5345V19.5485V19.5625V19.5765V19.5906V19.6046V19.6187V19.6327V19.6468V19.6609V19.6749V19.689V19.7031V19.7172V19.7313V19.7454V19.7595V19.7737V19.7878V19.8019V19.8161V19.8302V19.8444V19.8585V19.8727V19.8869V19.901V19.9152V19.9294V19.9436V19.9578V19.972V19.9863V20.0005V20.0147V20.0289V20.0432V20.0574V20.0717V20.0859V20.1002V20.1144V20.1287V20.143V20.1573V20.1716V20.1859V20.2001V20.2144V20.2288V20.2431V20.2574V20.2717V20.286V20.3004V20.3147V20.329V20.3434V20.3577V20.3721V20.3864V20.4008V20.4152V20.4295V20.4439V20.4583V20.4727V20.4871V20.5014V20.5158V20.5302V20.5446V20.559V20.5735V20.5879V20.6023V20.6167V20.6311V20.6455V20.66V20.6744V20.6888V20.7033V20.7177V20.7322V20.7466V20.7611V20.7755V20.79V20.8045V20.8189V20.8334V20.8479V20.8623V20.8768V20.8913V20.9058V20.9202V20.9347V20.9492V20.9637V20.9782V20.9927V21.0072V21.0217V21.0362V21.0507V21.0652V21.0797V21.0942V21.1087V21.1232V21.1377V21.1522V21.1667V21.1813V21.1958V21.2103V21.2248V21.2393V21.2539V21.2684V21.2829V21.2974V21.312V21.3265V21.341V21.3556V21.3701V21.3846V21.3992V21.4137V21.4282V21.4428V21.4573V21.4718V21.4864V21.5009V21.5154V21.53V21.5445V21.5591V21.5736V21.5881V21.6027V21.6172V21.6317V21.6463V21.6608V21.6754V21.6899V21.7044V21.719V21.7335V21.748V21.7626V21.7771V21.7916V21.8062V21.8207V21.8352V21.8498V21.8643V21.8788V21.8933V21.9079V21.9224V21.9369V21.9514V21.966V21.9805V21.995V22.0095V22.024V22.0385V22.0531V22.0676V22.0821V22.0966V22.1111V22.1256V22.1401V22.1546V22.1691V22.1836V22.1981V22.2126V22.227V22.2415V22.256V22.2705V22.285V22.2995V22.3139V22.3284V22.3429V22.3573V22.3718V22.3863V22.4007V22.4152V22.4296V22.4441V22.4585V22.473V22.4874V22.5018V22.5163V22.5307V22.5451V22.5595V22.574V22.5884V22.6028V22.6172V22.6316V22.646V22.6604V22.6748V22.6892V22.7036V22.7179V22.7323V22.7467V22.7611V22.7754V22.7898V22.8042V22.8185V22.8329V22.8472V22.8615V22.8759V22.8902V22.9045V22.9188V22.9332V22.9475V22.9618V22.9761V22.9904V23.0047V23.0189V23.0332V23.0475V23.0618V23.076V23.0903V23.1045V23.1188V23.133V23.1473V23.1615V23.1757V23.1899V23.2042V23.2184V23.2326V23.2468V23.261V23.2751V23.2893V23.3035V23.3177V23.3318V23.346V23.3601V23.3743V23.3884V23.4025V23.4167V23.4308V23.4449V23.459V23.4731V23.4872V23.5012V23.5153V23.5294V23.5434V23.5575V23.5715V23.5856V23.5996V23.6136V23.6277V23.6417V23.6557V23.6697V23.6837V23.6976V23.7116V23.7256V23.7395V23.7535V23.7674V23.7813V23.7953V23.8092V23.8231V23.837V23.8509V23.8648V23.8787V23.8925V23.9064V23.9202V23.9341V23.9479V23.9617V23.9756V23.9894V24.0032V24.017V24.0307V24.0445V24.0583V24.072V24.0858V24.0995V24.1132V24.127V24.1407V24.1544V24.1681V24.1817V24.1954V24.2091V24.2227V24.2364V24.25C50.8644 27.531 49.2451 29.8336 47.5844 31.341C46.7533 32.0953 45.9199 32.6418 45.2943 32.9993C44.9833 33.1771 44.7256 33.307 44.5477 33.3916C44.3699 33.307 44.1122 33.1771 43.8011 32.9993C43.1756 32.6418 42.3422 32.0953 41.5111 31.341C39.8503 29.8336 38.2311 27.531 38.2311 24.25Z" fill="white" stroke="white" stroke-width="1.41429"/>
</mask>
<g mask="url(#mask2)">
</g>
<path d="M1 2.29286H-0.899402L0.537561 3.53498L10.1262 11.8235V13.9712L0.586685 20.8429L0.292857 21.0545V21.4167V22.8333V24.1149L1.37706 23.4316L12.4424 16.4571H14.8194L24.3454 23.3191C24.5452 23.463 24.7853 23.5405 25.0316 23.5405C26.1192 23.5405 26.6222 22.1894 25.7994 21.4782L17.1595 14.0099V11.8621L26.4052 5.2021C26.7742 4.93631 26.9929 4.5093 26.9929 4.05454V3V1.7184L25.9087 2.40177L14.8434 9.37619H12.4663L2.81808 2.42622L2.63294 2.29286H2.40476H1Z" fill="#DB1E36" stroke="white" stroke-width="1.41429"/>
<path fill-rule="evenodd" clip-rule="evenodd" d="M1 10.0833V15.75H10.8333V22.8357C10.8333 23.6168 11.4665 24.25 12.2476 24.25H15.0381C15.8192 24.25 16.4524 23.6168 16.4524 22.8357V15.75H26.2762C27.0573 15.75 27.6905 15.1168 27.6905 14.3357V11.4976C27.6905 10.7165 27.0573 10.0833 26.2762 10.0833H16.4524V3H10.8333V10.0833H1Z" fill="white"/>
<path fill-rule="evenodd" clip-rule="evenodd" d="M1 11.5H12.2381V10.0833V3H15.0476V10.0833V11.5H26.2857V14.3333H15.0476V15.75V22.8333H12.2381V15.75V14.3333H1V11.5Z" fill="#DB1E36"/>
</g>
</svg>
