<svg fill="none" height="53" viewBox="0 0 61 53" width="61" xmlns="http://www.w3.org/2000/svg" xmlns:xlink="http://www.w3.org/1999/xlink"><mask id="a" height="43" maskUnits="userSpaceOnUse" width="59" x="1" y="3"><rect fill="#fff" height="42.5" rx="4.24286" width="59" x="1" y="3"/></mask><mask id="b" height="21" maskUnits="userSpaceOnUse" width="15" x="37" y="14"><path clip-rule="evenodd" d="m37.5239 24.25c0-2.326 0-5.0764 0-7.0899 0-1.5622 1.2664-2.8268 2.8286-2.8268h8.3905c1.5621 0 2.8285 1.2646 2.8285 2.8268v7.0899c0 7.0833-7.0238 9.9167-7.0238 9.9167s-7.0238-2.8334-7.0238-9.9167z" fill="#fff" fill-rule="evenodd"/></mask><mask height="21" maskUnits="userSpaceOnUse" width="15" x="37" y="14"><path d="m38.2311 24.25v-.1093-.11-.1105-.111-.1116-.112-.1125-.113-.1133-.1138-.1141-.1144-.0573-.0143-.0144-.0287-.115-.1153-.1154-.1157-.1158-.116-.1161-.1162-.1163-.1163-.0581-.0145-.0146-.0145-.0146-.0145-.0145-.0146-.0145-.0145-.0146-.0145-.0145-.0146-.0145-.0145-.0146-.0145-.0145-.0146-.0145-.0145-.0145-.0146-.0145-.0145-.0145-.0145-.0145-.0146-.0145-.0145-.0145-.0145-.0145-.0145-.0145-.0145-.0145-.0145-.0145-.0145-.0145-.0145-.0145-.0145-.0144-.0145-.0145-.0145-.0144-.0145-.0145-.0144-.0145-.0145-.0144-.0145-.0144-.0145-.0144-.0144-.0145-.0144-.0144-.0145-.0144-.0144-.0144-.0144-.0145-.0144-.0144-.0144-.0144-.0143-.0144-.0144-.0144-.0144-.0143-.0144-.0144-.0143-.0144-.0143-.0144-.0143-.0143-.0144-.0143-.0143-.0143-.0143-.0143-.0143-.0143-.0143-.0143-.0143-.0143-.0143-.0142-.0143-.0142-.0143-.0142-.0143-.0142-.0142-.0142-.0143-.0142-.0142-.0142-.0142-.0141-.0142-.0142-.0142-.0141-.0142-.0141-.0142-.0141-.1129-.1124-.1119-.1115-.1109-.1104-.1098-.1092-.1085-.108-.1072-.1065-.1058-.1051-.1042-.1035-.1025-.2026-.1989-.195-.1909c0-1.171.9492-2.1196 2.1214-2.1196h8.3905c1.1722 0 2.1214.9486 2.1214 2.1196v.0118.0118.0119.0118.0119.0119.0119.0119.012.0119.012.012.012.012.0121.012.0121.0121.0121.0121.0121.0122.0121.0122.0122.0122.0122.0123.0122.0123.0123.0123.0123.0124.0123.0124.0123.0124.0124.0125.0124.0125.0124.0125.0125.0125.0125.0126.0125.0126.0126.0126.0126.0126.0127.0126.0127.0127.0127.0127.0127.0127.0128.0128.0127.0128.0128.0128.0129.0128.0129.0128.0129.0129.0129.013.0129.0129.013.013.013.013.013.013.013.0131.0131.013.0131.0131.0131.0132.0131.0131.0132.0132.0132.0131.0133.0132.0132.0132.0133.0133.0132.0133.0133.0133.0134.0133.0133.0134.0134.0133.0134.0134.0134.0135.0134.0134.0135.0135.0134.0135.0135.0135.0135.0136.0135.0135.0136.0136.0135.0136.0136.0136.0136.0137.0136.0137.0136.0137.0136.0137.0137.0137.0137.0138.0137.0137.0138.0137.0138.0138.0138.0138.0138.0138.0138.0138.0138.0139.0138.0139.0139.0139.0138.0139.0139.014.0139.0139.0139.014.0139.014.0139.014.014.014.014.014.014.014.014.0141.014.0141.014.0141.0141.014.0141.0141.0141.0141.0141.0141.0142.0141.0141.0142.0141.0142.0141.0142.0142.0141.0142.0142.0142.0142.0142.0143.0142.0142.0142.0143.0142.0143.0142.0143.0142.0143.0143.0143.0143.0143.0142.0143.0144.0143.0143.0143.0143.0144.0143.0143.0144.0143.0144.0143.0144.0144.0143.0144.0144.0144.0144.0143.0144.0144.0144.0144.0145.0144.0144.0144.0144.0144.0145.0144.0144.0145.0144.0145.0144.0145.0144.0145.0145.0144.0145.0145.0144.0145.0145.0145.0144.0145.0145.0145.0145.0145.0145.0145.0145.0145.0145.0145.0145.0145.0145.0145.0145.0145.0146.0145.0145.0145.0145.0146.0145.0145.0145.0146.0145.0145.0146.0145.0145.0146.0145.0145.0146.0145.0145.0146.0145.0145.0146.0145.0146.0145.0145.0146.0145.0145.0146.0145.0146.0145.0145.0146.0145.0145.0146.0145.0145.0146.0145.0145.0146.0145.0145.0145.0146.0145.0145.0145.0146.0145.0145.0145.0145.0145.0146.0145.0145.0145.0145.0145.0145.0145.0145.0145.0145.0145.0144.0145.0145.0145.0145.0145.0144.0145.0145.0144.0145.0145.0144.0145.0144.0145.0144.0145.0144.0144.0145.0144.0144.0144.0145.0144.0144.0144.0144.0144.0144.0144.0144.0144.0143.0144.0144.0144.0143.0144.0144.0143.0144.0143.0143.0144.0143.0143.0143.0144.0143.0143.0143.0143.0143.0142.0143.0143.0143.0142.0143.0142.0143.0142.0143.0142.0142.0142.0143.0142.0142.0142.0142.0141.0142.0142.0142.0141.0142.0141.0142.0141.0141.0142.0141.0141.0141.0141.0141.014.0141.0141.014.0141.014.0141.014.014.0141.014.014.014.014.0139.014.014.0139.014.0139.0139.014.0139.0139.0139.0139.0139.0139.0138.0139.0138.0139.0138.0138.0139.0138.0138.0138.0137.0138.0138.0137.0138.0137.0137.0138.0137.0137.0137.0136.0137.0137.0136.0137.0136c0 3.281-1.6193 5.5836-3.28 7.091-.8311.7543-1.6645 1.3008-2.2901 1.6583-.311.1778-.5687.3077-.7466.3923-.1778-.0846-.4355-.2145-.7466-.3923-.6255-.3575-1.4589-.904-2.29-1.6583-1.6608-1.5074-3.28-3.81-3.28-7.091z" fill="#fff" stroke="#fff" stroke-width="1.41429"/></mask><rect fill="#fff" height="42.5" rx="4.24286" width="59" x="1" y="3"/><g mask="url(#a)"><path d="m1 3h59v42.5h-59z" fill="#07319c"/><path clip-rule="evenodd" d="m37.5239 24.25c0-2.326 0-5.0764 0-7.0899 0-1.5622 1.2664-2.8268 2.8286-2.8268h8.3905c1.5621 0 2.8285 1.2646 2.8285 2.8268v7.0899c0 7.0833-7.0238 9.9167-7.0238 9.9167s-7.0238-2.8334-7.0238-9.9167z" fill="#0072c4" fill-rule="evenodd"/><g mask="url(#b)"><g clip-rule="evenodd" fill-rule="evenodd"><path d="m40.76 22.6939c-1.4396 1.4663 1.3817 1.2804 1.3817 1.2804l2.0094-.6489s.9034.1103 1.5132.2956c.404.1228 1.5281.629 1.5281.629s2.3741-.478 1.5394-1.5561c-.8348-1.0782-6.5322-1.4664-7.9718 0z" fill="#005121"/><path d="m46.7459 21.1706c.0578-.0133.1926-.0103.2429.0515.079.0966.2407.0645.3196.1576.0787.0934.1702.1794.1702.3122s-.0153.462-.0125.5343c.004.1114.0231.1287.1367.1257.1371-.0035.3262-.0143.3322-.2617.004-.1724-.1661-.2801-.2157-.8935.0746-.0644.1411-.1219.1161-.2077-.025-.0861.1411-.1293.1245-.2585-.0168-.129.1658-.2081.0912-.3514-.0746-.1435.0912-.1505.025-.2655-.0665-.1147.1077-.2153.0331-.3154-.0746-.1007.0995-.1938.0084-.3158-.0915-.1219.0496-.1937-.0415-.2871.058-.0931.0081-.3586-.1745-.5092-.1823-.1508-.4396-.2296-.5891-.2871-.2781-.1068-.7967-.0574-1.1619-.0143-.3652.0429-1.0458.0861-1.2533.0575-.2073-.0286-.6968-.0575-1.083.007-.132.0221-.2822-.0178-.3608-.0931-.0631-.0601-.0996-.0537-.1577-.0502-.058.0035-.0914-.0145-.1205-.0863-.0512-.1263-.1657-.0394-.2197-.1973-.0363-.1055-.2245-.0143-.2822-.1039-.0584-.0895-.1287-.1003-.2866-.0895-.0081-.054-.0952-.0934-.1742-.0791.0125-.0896-.0746-.1614-.2198-.1579.0166-.1111-.1867-.1972-.2906-.1289-.0662-.0826-.1992-.0648-.2323 0-.0705-.0826-.2946-.0575-.3486.0321-.0953-.0537-.2807.0782-.2654.2871.0041.0575.0078.1171-.0874.1362-.1782.0359-.2819.2367-.4358.2653-.1533.0289-.3069.0791-.3359.1651-.029.0861.025.176-.0331.2189-.058.0432.0372.0826.0662.1039.029.0216.0746.0574.083.1076.0119.0713.1283.0926.2492.0143.0496-.0321.1367.0648.2778-.0035.1411-.068.3415-.0321.3072.0791-.0166.0537.0206.1112.0665.1649.0455.0537.1139.2158.0746.3084-.0581.1363.058.2118.029.3335-.029.1223.0165.2334-.0456.3983-.0624.1649-.0634.3713.029.4304.1287.0826.0509.2461.1618.3157.0911.0572.0374.1973.2075.2402.1702.0432.0706.1578.2488.1829.1786.0251.2407.1544.4274.1255.1377-.021.2101.0127.2903.0445.0166.115-.0203.5367-.0287.6444-.0075.0953-.0581.2472-.0581.3408 0 .0572.1162.0715.2491.0715.1324 0 .1908-.0537.1574-.2042-.0331-.1509-.0412-.5181-.0328-.7478.1152.0559.2248.1341.2198.2205-.0085.1398-.0063.3907-.0294.52-.0162.0933.0085.2404.0169.3373.0084.0356.2322.0321.3237 0 .0912-.0324.0912-.1185.0827-.5095-.004-.1935-.2076-.3913.05-.4879.1245-.0466.2987-.1543.3652-.2544.0662-.1007.2117-.0613.3153-.0108.1036.0502.2697.1268.3737.0931.1326-.0429.2737.0645.3899 0 .1161-.0645.2656.0467.3608-.0321.0956-.0791.2616-.0038.3322-.0791.0705-.0753.3609.0432.4648-.0572.1036-.1006.2447.0286.3403-.0467.0249-.0199.0546-.0243.0871-.0218-.0038.1697-.0353.4398-.0416.524-.0074.0955-.058.2472-.058.3405 0 .0575.1161.0718.2488.0718.133 0 .191-.0537.1579-.2043-.0334-.1505.0144-.521.0225-.7509" fill="#a3a3a3"/><path d="m40.0313 18.555c.0555-.0407.004-.1255.0318-.207.0278-.0812.1748-.1287.3218-.1557.1471-.0272.2464-.2169.4174-.2509.0912-.0181.0874-.0745.0834-.1287-.0144-.1973.1629-.322.2544-.271.0515-.085.2663-.1087.3337-.0307.0318-.061.1589-.078.2226 0 .0992-.0642.294.017.2781.122.1392-.0033.2226.0644.2107.1492.0756-.0135.1589.0237.167.0745-.0128.0833.1761.1047.0887.1586-.0765.0472-.1492.0286-.2363-.0359-.0871-.0647-.3777-.0073-.4193.0251-.0415.0324-.0871.0467-.1205.0216-.033-.0251-.1117-.0647-.1492-.061-.0374.0035-.1161.0035-.162-.0717-.0456-.0753-.1617-.0861-.1823-.0575s.0456.1327.1121.1721c.0662.0397.0331.115.112.1579.0516.0283.0041.1255-.0249.1829-.0291.0575-.1411.0394-.1496-.0035-.0081-.0429-.0374-.0717-.1036-.0073-.0665.0648-.2073.0467-.2407.0289-.0331-.0181-.1245-.0502-.1867-.0324-.0624.0181.0291.0467.0375.0718.0081.0251-.0999.0359-.162.0359s-.0831.0356-.0456.0429.1823.0146.2407-.0143c.0581-.0286.2363 0 .2532.054.0165.0537-.1037.0753-.1745.068-.1043-.0105-.2573.0467-.3319.0645-.0746.0181-.2738-.0286-.3527-.007-.0787.0213-.1564-.0632-.1233-.0953" fill="#a3a3a3"/><path d="m41.3659 18.9946c-.0746.0286-.0496.1146.0168.1505.0665.0359.2158.0502.3113.0324.0952-.0181.1161.0108.054.0467-.0624.0356.0952.0429.0827.1004-.0122.0572.0581.0464.1246.0429s.1536-.0467.2282-.0861.1286-.0108.058.0575c-.0702.068-.3068.1543-.4935.1435-.187-.0108-.2866.0322-.2451.0931.0416.061.2407.0718.3444.0394.1039-.0321.0874.0254.0084.0645-.079.0397-.1911.0432-.2863.0397-.0955-.0035-.1785.0791-.054.1255.1246.0466.2906.018.3528.0574.0624.0394.2531-.0215.2572.0467.0041.068-.054.0931-.1661.0861-.112-.0073-.079.0437.0044.0715.0746.0254.2076.0254.2778.0181.0706-.007.05.0645-.0206.0896-.0705.0251-.2987.061-.4108.0575-.1121-.0036-.0584.0682.0871.0682.4439 0 .5934-.2118.7055-.3589.0549-.072.1617-.1111.1867-.068.025.0429.029.0537-.0206.0896-.05.0359-.0378.0575.0537.061.0911.0035.2241-.0216.3031-.0429.0787-.0216.3109.1141.1202.1182-.3362.0073-.7511.1292-.8878.1794-.1371.0502-.3656.1447-.5064.1398-.1036-.0035-.1454.0359-.1036.0826.0412.0467.1742.0467.2488.0251s.0911 0 .0415.0429c-.0496.0432-.1742.061-.2616.0755-.0868.0143-.1299.0705-.0621.0931.1286.0432.0125.0826.1039.1042.0912.0216-.0084.0896.0912.1112s.1576.0108.2322-.0394c.075-.0502.1162-.0791.1951-.0718.079.0073.133-.0289.1786-.0826s.1992-.1505.2488-.1039c.05.0467.1536-.0396.1745.0071.0206.0466.1077.018.1286.0825.0228.0718.1202.0861.1867.061.0662-.0251.1202-.0861.1202-.1759 0-.0896.025-.1255.0499-.0286.0247.0968.1162.1254.1617.079.0456-.0467.0622-.208.0291-.2833-.0331-.0756-.0375-.1724-.0041-.1902.0331-.0178.1121.147.1452.2188.0334.0718.1202.0502.1245-.0216.0041-.0718.0831-.1077.1411-.0537.0581.0537.025.2332.0415.3192.0166.0861.1783-.0215.1951.0071.0166.0288.0787.0358.1037-.0251.025-.061.083-.1147.1161-.0788.0334.0359.0831.0968.1037.1648.0209.0683.0955.1042.1411.0324.0455-.0718.0789-.2115.0624-.3087-.0169-.0966.0125-.1576.0537-.1074.0415.0502.0374.1865.0415.2977.0044.1111.1411.1006.1411-.0645 0-.0753.0415-.0896.054-.0467.0125.0432.0125.1149.025.147.0306.0797.137.0359.1492-.0178.0125-.0539-.0081-.2477-.0331-.3335-.025-.0863.025-.147.0665-.1006.0415.0466.0496.1686.0581.3049.0081.1363.0952.1435.1411.1041.0455-.0396.0455-.1543.0249-.2369-.0209-.0823.0456-.0823.0746-.0321.0291.0502.079.0178.0706-.0216-.0081-.0394.0331-.0753.0746-.0216.0415.054.029.176.0084.2726-.0209.0971.1037.0861.1617.0038.0581-.0826.0291-.3085-.0206-.3803-.0499-.0717-.0455-.1651-.0168-.2474.0293-.0826.0833-.0863.0874-.0502.004.0356.029.0966.0746.1433s.0705.054.0787-.0181c.0084-.0715.0499-.0537.0665 0 .0168.054.0455.0969.087.0505.0416-.0467.0956-.0108.0625.061-.0334.0717-.0334.1362-.0084.208.0249.0718.112.061.1204-.0216.0172-.1716.0416-.0575.0622.0178.0206.0756.083.0718.0955.0289.0125-.0432.025-.0537.025-.0073 0 .0467.0206.0861.0746.0861s.0415-.0931.0662-.1506c.0249-.0574.0705.0216.1329.1541.0622.1328.1077.0073.2532.3087.0593.1228.1452.0178.1411-.0251-.0044-.0432.0081-.0718.0787-.0718.0705 0 .1286-.0143.1039-.061-.0249-.0466-.0084-.1327-.0125-.2296-.004-.0969.0082-.1506.0206-.0969.0125.0537.054.1293.1202.1687.0665.0394.1121-.0683.0581-.1363-.0537-.0682-.1283-.2296-.1243-.3659.0032-.1004.0497-.0683.0497.0035s.0415.2011.1039.2297c.0622.0286.0871-.1042.0581-.1722-.029-.0683-.0456-.1614.0165-.1794.0622-.0179-.0165-.0931-.0705-.1471-.054-.0537-.0871-.1074.0084-.1039.0952.0035.0166-.0575-.0293-.0969-.0456-.0394-.1243-.1184 0-.1076.1245.0108.0833-.0537.0334-.0896-.05-.0359-.079-.1042.0081-.1004.0874.0035.1411-.0397.133-.0718-.0319-.1244-.2407-.269-.3693-.3802s-.3362-.2223-.4483-.2404-.1161.054-.0871.0969.0871.0717.0955.0286c.0082-.0429.0953.0037.1368.0609.0415.0575.1826.1293.27.1938.0871.0645-.1164.0324-.216-.0537-.0568-.0494-.05.0105.0249.0788.0747.0683-.0209.0969-.0995.0394-.079-.0572-.2822-.2186-.4108-.3227-.1287-.1039-.1496-.0788-.1536-.0108-.0041.0682.0415.1149.1245.1721.0831.0575.1867.1471.2657.2081.0786.0609.0125.1003-.0375.0572-.0499-.0429-.2198-.1611-.3193-.2437-.0999-.0826-.1911-.122-.2532-.1112-.0624.0108-.0581.0718.0165.1363.0747.0645.1661.1865.1661.2582 0 .0718-.0665.122-.0999-.007-.0331-.1292-.1907-.2798-.3068-.3948-.1162-.1146-.2326-.1362-.3197-.1289-.0871.007-.083.0931-.083.1613 0 .068-.0581.0286-.0622-.0216-.004-.0502-.0705-.0931-.108-.0895-.0371.0035-.0246.1076-.0371.1543-.0125.0464-.0706.0896-.0706-.0181 0-.1076-.137-.1613-.1951-.1651-.058-.0035-.112.0181-.083.0647.029.0465.0165.1722-.0041.244-.0209.0715-.083-.054-.0955-.1868-.0125-.1324-.2073-.2258-.3443-.1864-.1371.0397-.0331.1255-.0581.208-.025.0826-.0624.0073-.0749-.0788-.0122-.086-.0787-.14-.1698-.1184-.0915.0216-.1536.0645-.1495.1219.004.0575.004.1077-.0166.2008-.0209.0934-.0581.0467-.054-.0143.0044-.061-.0165-.1614-.0375-.2188-.0206-.0572-.054-.0035-.0455.0682.0084.0718-.0125.2367-.0456.3373-.0331.1004-.083.1039-.0581-.0323.025-.1363-.0374-.3373-.0996-.4304-.0446-.0667-.1451-.0896-.1451.0035 0 .0933.029.1613.1036.2296.0746.068.0166.2367-.058.3265-.075.0896-.0706-.0397-.0456-.1365.0246-.0969-.1121-.129-.1661-.1471-.054-.0178.0581-.1147.083-.2439.0122-.0637-.0043-.1039-.054-.1077-.0499-.0035-.1826.1185-.2406.2081.0165-.0931 0-.1757-.05-.1757-.0496 0-.1036.0898-.1408.1543-.0374.0645-.0749.0286-.0374-.0394.0374-.0682.0952-.2512.0206-.2906s-.1411.122-.2198.0931c-.0446-.0162.0165-.1182.0415-.1649.0247-.0466-.025-.0825-.137.0036-.1121.0863-.1617.2261-.1911.3122-.0287.086-.2279.2258-.3359.3011s-.1536.0467-.0995.0143c.054-.0321.1617-.1325.2157-.1719.054-.0397.029-.0629-.0746.0051-.1037.0683-.2925.1922-.4858.2351-.1133.0253-.1286.0037-.0165-.0286.112-.0324.3693-.1868.4317-.2583.039-.045-.0624-.0073-.1121.0035-.0496.0108-.0911-.0035.0085-.0394.0992-.0358.4148-.3192.4813-.4233.0662-.1039.0081-.1436-.0334-.1398-.0415.0035-.0996.0286-.0871-.0143.0125-.0432-.0165-.1007-.0705-.0826-.054.0178-.0497.122-.0706.1792-.0206.0575-.137.133-.2116.133s-.1783.0143-.2572.068c-.079.0537-.1162.0035-.079-.0394.0374-.0432.1205-.0539.2035-.0575.083-.0035.1742-.0143.2447-.0825.0706-.068.0747-.122.021-.1255-.054-.0035-.1455-.0645-.1745-.0896-.1474-.1276-.4174.0502-.5229.1541-.0581.0575-.2572.2226-.3194.2655-.0624.0429-.0374.1039.0662.0216.104-.0826.1371-.0251.0418.0359-.0958.061-.166.1506-.1329.1829.033.0321.1617-.0072.2322-.0466.0706-.0394.104.0572-.0705.0895-.1171.0219-.158.0635-.0662.0683.0705.0035.1782-.0251.2781-.0753.0993-.0504.1783-.0216.0952.0286-.083.0502-.2656.1185-.3568.1185-.0765 0 .0125.0969-.0624.1255z" fill="#fff"/><path d="m41.8474 18.1928c.0999-.1048.187-.1507.2782-.0753.0827.0683.0914.098-.0125.0753-.1037-.0226-.1742 0-.2363.0678-.0625.068-.133.0413-.0294-.0678" fill="#a3a3a3"/><path d="m40.2044 18.4591c.0746-.0754.1948-.0754.2488-.1581.054-.083.1121-.0527.0456.0264-.0662.079-.1948.0943-.2488.1507s-.0831.0187-.0456-.019" fill="#a3a3a3"/><path d="m40.6692 18.1711c.0449-.0062.1327-.0604.1867-.1244s.1701-.0867.2403-.0113c.0706.0753.108.1017.1455.117.0371.015.0371.064-.0209.0788-.0581.0153-.1367.0266-.1783.0076-.0415-.0187-.1039-.0337-.1536-.0224-.0499.0111-.0705-.0113-.029-.0303.0415-.0187.0912-.0754.1161-.098.025-.0224.0912-.0037.054.019-.0374.0226-.0209.0714.0166.0903.0375.019.1121.019.1452-.015-.0497-.049-.1327-.113-.1658-.1317-.0334-.019-.0624-.0267-.104.0187-.0415.0453-.1411.1544-.2363.1507-.0955-.0037-.0705-.0416-.0165-.049" fill="#a3a3a3"/><path d="m43.2914 18.8469c-.0368.0518-.0705.1187-.0746.1714s.0437.0887.0496.0227c.0063-.0661.0125-.1054.0643-.1545.0522-.049.0022-.098-.0393-.0396" fill="#a3a3a3"/><path d="m42.7833 18.8457c.0431-.0176.1162-.0584.1514-.0961.0353-.0374.0581-.013.0228.0283-.0353.0414-.1161.0904-.1536.1018-.0371.0113-.0661-.0151-.0206-.034" fill="#a3a3a3"/><path d="m42.8475 19.0553c-.0596.0723-.2947.2442-.3652.2763-.0706.0324-.0456.0791.0334.054-.0581.0464-.187.1219-.2697.1432-.0831.0216-.0999.0861.0246.0467.1246-.0394.2988-.1435.3443-.1899.0459-.0467-.0121-.0683.0584-.1185.0706-.0502.2011-.1419.2198-.1794.029-.0572-.0041-.0826-.0456-.0324" fill="#a3a3a3"/><path d="m42.5904 19.6403c.089-.0437.2551-.1983.3028-.2871.0291-.0537.0871-.0467.0416.0359-.0456.0825-.2158.2296-.2738.269-.0581.0394-.1661.0286-.0706-.0178" fill="#a3a3a3"/><path d="m44.4783 18.79c-.0243.0505-.029.1687-.0206.2259.0081.0575.0581.1006.0497.0146-.0082-.0861-.0082-.1722.0206-.1973.0293-.0254-.0082-.1293-.0497-.0432" fill="#a3a3a3"/><path d="m44.9847 19.0016c.0421.0391.0621.2226.058.2906-.004.0683.0665.0683.0622-.0286-.0041-.0969-.0125-.2189-.0497-.2833-.0374-.0648-.1286-.0324-.0705.0213" fill="#a3a3a3"/><path d="m45.4286 19.1201c.0256.0469.0581.1362.0581.2007 0 .0648.054.0359.058-.0394.0041-.0753-.0081-.1398-.0371-.1899-.029-.0502-.1164-.0397-.079.0286" fill="#a3a3a3"/><path d="m45.7026 19.064c-.0228-.0578-.0581-.1094-.0834-.1018-.0246.0077-.0081.0604.0253.1168.0328.0566.0828.049.0581-.015" fill="#a3a3a3"/><path d="m43.968 19.4643c-.0125.1503-.0915.2834-.1867.3301-.0955.0466-.079.1219.0372.0466.1164-.0752.2035-.2045.2285-.3192.0246-.1149-.0706-.1578-.079-.0575" fill="#a3a3a3"/><path d="m43.7603 19.3964c-.0496.0501-.0787.1578-.0787.2401 0 .0826.0331.0216.0416-.0251.0084-.0467.0246-.1112.0665-.1327.0412-.0216.0206-.1325-.0294-.0823" fill="#a3a3a3"/><path d="m47.3541 19.5002c.0437.0726.108.1903.1286.2583.021.0682-.029.0861-.0455.0251-.0169-.061-.0956-.1973-.1246-.244-.029-.0464-.0084-.1219.0415-.0394" fill="#a3a3a3"/></g><path d="m34.7144 22.8333s4.7788 1.4319 5.5854 1.4319c.2267 0 3.3221-.716 4.2501-.716.3471 0 3.5512.4905 4.3877.716.8366.2255 5.4478-1.4319 5.4478-1.4319" stroke="#fff" stroke-linecap="round" stroke-linejoin="round" stroke-width="1.41429"/><path d="m34.7144 25.6667s4.7788 1.4318 5.5854 1.4318c.2267 0 3.3221-.7159 4.2501-.7159.3471 0 3.5512.4904 4.3877.7159.8366.2255 5.4478-1.4318 5.4478-1.4318" stroke="#fff" stroke-linecap="round" stroke-linejoin="round" stroke-width="1.41429"/><path d="m34.7144 31.3333s4.7788 1.4319 5.5854 1.4319c.2267 0 2.0719-1.1586 4.2501-1.1586s3.5512.9331 4.3878 1.1586c.8365.2255 5.4477-1.4319 5.4477-1.4319l15.1237 2.4394" stroke="#fff" stroke-linecap="round" stroke-linejoin="round" stroke-width="2.82857"/></g><path d="m38.2311 24.25v-.1093-.11-.1105-.111-.1116-.112-.1125-.113-.1133-.1138-.1141-.1144-.0573-.0143-.0144-.0287-.115-.1153-.1154-.1157-.1158-.116-.1161-.1162-.1163-.1163-.0581-.0145-.0146-.0145-.0146-.0145-.0145-.0146-.0145-.0145-.0146-.0145-.0145-.0146-.0145-.0145-.0146-.0145-.0145-.0146-.0145-.0145-.0145-.0146-.0145-.0145-.0145-.0145-.0145-.0146-.0145-.0145-.0145-.0145-.0145-.0145-.0145-.0145-.0145-.0145-.0145-.0145-.0145-.0145-.0145-.0145-.0144-.0145-.0145-.0145-.0144-.0145-.0145-.0144-.0145-.0145-.0144-.0145-.0144-.0145-.0144-.0144-.0145-.0144-.0144-.0145-.0144-.0144-.0144-.0144-.0145-.0144-.0144-.0144-.0144-.0143-.0144-.0144-.0144-.0144-.0143-.0144-.0144-.0143-.0144-.0143-.0144-.0143-.0143-.0144-.0143-.0143-.0143-.0143-.0143-.0143-.0143-.0143-.0143-.0143-.0143-.0143-.0142-.0143-.0142-.0143-.0142-.0143-.0142-.0142-.0142-.0143-.0142-.0142-.0142-.0142-.0141-.0142-.0142-.0142-.0141-.0142-.0141-.0142-.0141-.1129-.1124-.1119-.1115-.1109-.1104-.1098-.1092-.1085-.108-.1072-.1065-.1058-.1051-.1042-.1035-.1025-.2026-.1989-.195-.1909c0-1.171.9492-2.1196 2.1214-2.1196h8.3905c1.1722 0 2.1214.9486 2.1214 2.1196v.0118.0118.0119.0118.0119.0119.0119.0119.012.0119.012.012.012.012.0121.012.0121.0121.0121.0121.0121.0122.0121.0122.0122.0122.0122.0123.0122.0123.0123.0123.0123.0124.0123.0124.0123.0124.0124.0125.0124.0125.0124.0125.0125.0125.0125.0126.0125.0126.0126.0126.0126.0126.0127.0126.0127.0127.0127.0127.0127.0127.0128.0128.0127.0128.0128.0128.0129.0128.0129.0128.0129.0129.0129.013.0129.0129.013.013.013.013.013.013.013.0131.0131.013.0131.0131.0131.0132.0131.0131.0132.0132.0132.0131.0133.0132.0132.0132.0133.0133.0132.0133.0133.0133.0134.0133.0133.0134.0134.0133.0134.0134.0134.0135.0134.0134.0135.0135.0134.0135.0135.0135.0135.0136.0135.0135.0136.0136.0135.0136.0136.0136.0136.0137.0136.0137.0136.0137.0136.0137.0137.0137.0137.0138.0137.0137.0138.0137.0138.0138.0138.0138.0138.0138.0138.0138.0138.0139.0138.0139.0139.0139.0138.0139.0139.014.0139.0139.0139.014.0139.014.0139.014.014.014.014.014.014.014.014.0141.014.0141.014.0141.0141.014.0141.0141.0141.0141.0141.0141.0142.0141.0141.0142.0141.0142.0141.0142.0142.0141.0142.0142.0142.0142.0142.0143.0142.0142.0142.0143.0142.0143.0142.0143.0142.0143.0143.0143.0143.0143.0142.0143.0144.0143.0143.0143.0143.0144.0143.0143.0144.0143.0144.0143.0144.0144.0143.0144.0144.0144.0144.0143.0144.0144.0144.0144.0145.0144.0144.0144.0144.0144.0145.0144.0144.0145.0144.0145.0144.0145.0144.0145.0145.0144.0145.0145.0144.0145.0145.0145.0144.0145.0145.0145.0145.0145.0145.0145.0145.0145.0145.0145.0145.0145.0145.0145.0145.0145.0146.0145.0145.0145.0145.0146.0145.0145.0145.0146.0145.0145.0146.0145.0145.0146.0145.0145.0146.0145.0145.0146.0145.0145.0146.0145.0146.0145.0145.0146.0145.0145.0146.0145.0146.0145.0145.0146.0145.0145.0146.0145.0145.0146.0145.0145.0146.0145.0145.0145.0146.0145.0145.0145.0146.0145.0145.0145.0145.0145.0146.0145.0145.0145.0145.0145.0145.0145.0145.0145.0145.0145.0144.0145.0145.0145.0145.0145.0144.0145.0145.0144.0145.0145.0144.0145.0144.0145.0144.0145.0144.0144.0145.0144.0144.0144.0145.0144.0144.0144.0144.0144.0144.0144.0144.0144.0143.0144.0144.0144.0143.0144.0144.0143.0144.0143.0143.0144.0143.0143.0143.0144.0143.0143.0143.0143.0143.0142.0143.0143.0143.0142.0143.0142.0143.0142.0143.0142.0142.0142.0143.0142.0142.0142.0142.0141.0142.0142.0142.0141.0142.0141.0142.0141.0141.0142.0141.0141.0141.0141.0141.014.0141.0141.014.0141.014.0141.014.014.0141.014.014.014.014.0139.014.014.0139.014.0139.0139.014.0139.0139.0139.0139.0139.0139.0138.0139.0138.0139.0138.0138.0139.0138.0138.0138.0137.0138.0138.0137.0138.0137.0137.0138.0137.0137.0137.0136.0137.0137.0136.0137.0136c0 3.281-1.6193 5.5836-3.28 7.091-.8311.7543-1.6645 1.3008-2.2901 1.6583-.311.1778-.5687.3077-.7466.3923-.1778-.0846-.4355-.2145-.7466-.3923-.6255-.3575-1.4589-.904-2.29-1.6583-1.6608-1.5074-3.28-3.81-3.28-7.091z" stroke="#fff" stroke-width="1.41429"/><path d="m1 2.29286h-1.899402l1.436963 1.24212 9.588639 8.28852v2.1477l-9.539515 6.8717-.293828.2116v.3622 1.4166 1.2816l1.084203-.6833 11.06534-6.9745h2.377l9.526 6.862c.1998.1439.4399.2214.6862.2214 1.0876 0 1.5906-1.3511.7678-2.0623l-8.6399-7.4683v-2.1478l9.2457-6.66c.369-.26579.5877-.6928.5877-1.14756v-1.05454-1.2816l-1.0842.68337-11.0653 6.97442h-2.3771l-9.64822-6.94997-.18514-.13336h-.22818z" fill="#db1e36" stroke="#fff" stroke-width="1.41429"/><g clip-rule="evenodd" fill-rule="evenodd"><path d="m1 10.0833v5.6667h9.8333v7.0857c0 .7811.6332 1.4143 1.4143 1.4143h2.7905c.7811 0 1.4143-.6332 1.4143-1.4143v-7.0857h9.8238c.7811 0 1.4143-.6332 1.4143-1.4143v-2.8381c0-.7811-.6332-1.4143-1.4143-1.4143h-9.8238v-7.0833h-5.6191v7.0833z" fill="#fff"/><path d="m1 11.5h11.2381v-1.4167-7.0833h2.8095v7.0833 1.4167h11.2381v2.8333h-11.2381v1.4167 7.0833h-2.8095v-7.0833-1.4167h-11.2381z" fill="#db1e36"/></g></g></svg>