<svg fill="none" height="53" viewBox="0 0 61 53" width="61" xmlns="http://www.w3.org/2000/svg" xmlns:xlink="http://www.w3.org/1999/xlink"><mask id="a" height="43" maskUnits="userSpaceOnUse" width="59" x="1" y="3"><rect fill="#fff" height="42.5" rx="4.24286" width="59" x="1" y="3"/></mask><rect fill="#fff" height="42.5" rx="4.24286" width="59" x="1" y="3"/><g mask="url(#a)"><path d="m1 3h59v42.5h-59z" fill="#95cef5"/><path clip-rule="evenodd" d="m27.1973 17.5011 3.3028-2.2611 3.3028 2.2611-1.1117-3.8665 3.1529-2.469-3.9898-.1285-1.3542-3.7871-1.3541 3.7871-3.9899.1285 3.153 2.469zm0 22.6666 3.3028-2.261 3.3028 2.261-1.1117-3.8664 3.1529-2.4691-3.9898-.1285-1.3542-3.787-1.3541 3.787-3.9899.1285 3.153 2.4691zm14.5409-13.5944-3.3028 2.2611 1.1118-3.8664-3.153-2.4691 3.9899-.1285 1.3541-3.7871 1.3542 3.7871 3.9899.1285-3.153 2.4691 1.1117 3.8664zm-25.779 2.2611 3.3028-2.2611 3.3028 2.2611-1.1117-3.8664 3.1529-2.4691-3.9899-.1285-1.3541-3.7871-1.3541 3.7871-3.9899.1285 3.1529 2.4691z" fill="#fff" fill-rule="evenodd"/></g></svg>