<svg fill="none" height="53" viewBox="0 0 61 53" width="61" xmlns="http://www.w3.org/2000/svg" xmlns:xlink="http://www.w3.org/1999/xlink"><mask id="a" height="43" maskUnits="userSpaceOnUse" width="59" x="1" y="3"><rect fill="#fff" height="42.5" rx="4.24286" width="59" x="1" y="3"/></mask><rect fill="#fff" height="42.5" rx="4.24286" width="59" x="1" y="3"/><g mask="url(#a)"><path d="m1 3h59v42.5h-59z" fill="#0a17a7"/><path clip-rule="evenodd" d="m-1.70259-1.07245 25.17869 17.12715v-15.888041h14.0477v15.887941l25.1784-17.12703 3.1421 4.69788-19.9069 13.54125h14.0625v14.1666h-14.0627l19.907 13.5413-3.1421 4.6978-25.1783-17.1269v15.8878h-14.0477v-15.8879l-25.17857 17.1271-3.14213-4.6979 19.907-13.5413h-14.062452v-14.1666h14.062352l-19.90703-13.54127z" fill="#fff" fill-rule="evenodd"/><g stroke="#db1f35" stroke-linecap="round" stroke-width="1.41429"><path d="m40.3359 16.4559 26.6878-17.7059"/><path d="m43.1699 32.1072 23.9242 16.2622"/><path d="m17.869 16.4098-24.95494-16.960612"/><path d="m20.5756 31.9104-27.66154 18.4993"/></g><path clip-rule="evenodd" d="m1 28.5h25.2857v17h8.4286v-17h25.2857v-8.5h-25.2857v-17h-8.4286v17h-25.2857z" fill="#e6273e" fill-rule="evenodd"/></g></svg>