<svg fill="none" height="53" viewBox="0 0 61 53" width="61" xmlns="http://www.w3.org/2000/svg" xmlns:xlink="http://www.w3.org/1999/xlink"><linearGradient id="a" gradientUnits="userSpaceOnUse" x1="23.4766" x2="23.4766" y1="17.1667" y2="31.3333"><stop offset="0" stop-color="#e21c30"/><stop offset="1" stop-color="#ce1225"/></linearGradient><mask id="b" height="43" maskUnits="userSpaceOnUse" width="59" x="1" y="3"><rect fill="#fff" height="42.5" rx="4.24286" width="59" x="1" y="3"/></mask><mask id="c" height="32" maskUnits="userSpaceOnUse" width="49" x="6" y="8"><path d="m6.61914 8.66666h47.7619v31.1667h-47.7619z" fill="#fff"/></mask><rect fill="#fff" height="42.5" rx="4.24286" width="59" x="1" y="3"/><g mask="url(#b)"><path d="m1 3h59v42.5h-59z" fill="#e42235"/><path d="m6.61914 8.66666h47.7619v31.1667h-47.7619z" fill="#079b77"/><g clip-rule="evenodd" fill-rule="evenodd" mask="url(#c)"><path d="m10.2571 24.5301c.7954 1.2837 1.9374 2.1311 3.0011 2.3486.5856.1197-.4865-2.5886-.0193-2.883.3986-.2513 2.3167 2.001 2.4846 1.5311.3865-1.0811.1585-2.6121-.7012-3.9996-1.2334-1.9906-1.2815-.6768-4.6159-2.1028.3487 2.0393-1.38271 3.1151-.1493 5.1057z" fill="#ffd938"/><path d="m30.5001 24.25 23.881-15.58334h-47.76193l23.88093 15.58334-23.88096 15.5833h47.76186z" fill="#ffd93b"/><path d="m30.5004 31.3333c3.8791 0 7.0238-3.1713 7.0238-7.0833s-3.1447-7.0833-7.0238-7.0833c-3.8792 0-7.0238 3.1713-7.0238 7.0833s3.1446 7.0833 7.0238 7.0833z" fill="url(#a)"/><path d="m30.4999 26.4353-3.3028 2.3991 1.2419-3.9091-3.2831-2.4264 4.0703-.0169 1.2737-3.8987 1.2737 3.8987 4.0703.0169-3.2831 2.4264 1.2419 3.9091z" fill="#ffd938"/></g></g></svg>