<svg fill="none" height="53" viewBox="0 0 61 53" width="61" xmlns="http://www.w3.org/2000/svg" xmlns:xlink="http://www.w3.org/1999/xlink"><mask id="a" height="43" maskUnits="userSpaceOnUse" width="59" x="1" y="3"><rect fill="#fff" height="41.4393" rx="3.7125" stroke="#fff" stroke-width="1.06071" width="57.9393" x="1.53036" y="3.53036"/></mask><rect fill="#fff" height="41.4393" rx="3.7125" stroke="#f5f5f5" stroke-width="1.06071" width="57.9393" x="1.53036" y="3.53036"/><g clip-rule="evenodd" fill-rule="evenodd" mask="url(#a)"><path d="m34.7142 48.3333h-8.4286v-19.8333h-28.09517v-8.5h28.09517v-19.833344h8.4286v19.833344h28.0953v8.5h-28.0953z" fill="#ff2b37"/><g fill="#fd0d1b"><path d="m46.5145 12.35-3.3714.5667v-2.8334l3.3714.5667-.5619-3.4h2.8095l-.5619 3.4 3.3714-.5667v2.8334l-3.3714-.5667.5619 3.4h-2.8095z"/><path d="m12.8001 12.35-3.37139.5667v-2.8334l3.37139.5667-.5619-3.4h2.8095l-.5619 3.4 3.3715-.5667v2.8334l-3.3715-.5667.5619 3.4h-2.8095z"/><path d="m12.8001 37.85-3.37139.5667v-2.8334l3.37139.5667-.5619-3.4h2.8095l-.5619 3.4 3.3715-.5667v2.8334l-3.3715-.5667.5619 3.4h-2.8095z"/><path d="m46.5145 37.85-3.3714.5667v-2.8334l3.3714.5667-.5619-3.4h2.8095l-.5619 3.4 3.3714-.5667v2.8334l-3.3714-.5667.5619 3.4h-2.8095z"/></g></g></svg>