<svg width="61" height="53" viewBox="0 0 61 53" fill="none" xmlns="http://www.w3.org/2000/svg">
<rect x="1.53036" y="3.53036" width="57.9393" height="41.4393" rx="3.7125" fill="white" stroke="#F5F5F5" stroke-width="1.06071"/>
<mask id="mask0" mask-type="alpha" maskUnits="userSpaceOnUse" x="1" y="3" width="59" height="43">
<rect x="1.53036" y="3.53036" width="57.9393" height="41.4393" rx="3.7125" fill="white" stroke="white" stroke-width="1.06071"/>
</mask>
<g mask="url(#mask0)">
<rect x="23.4761" y="3" width="14.0476" height="42.5" fill="#E8112D"/>
<rect x="1" y="17.1667" width="59" height="14.1667" fill="#E8112D"/>
<rect x="29.0957" y="8.66666" width="2.80952" height="31.1667" fill="#F9DD16"/>
<path fill-rule="evenodd" clip-rule="evenodd" d="M30.5004 37L33.31 39.8333H27.6909L30.5004 37Z" fill="#F9DD16"/>
<rect x="15.0479" y="22.8333" width="30.9048" height="2.83334" fill="#F9DD16"/>
<path fill-rule="evenodd" clip-rule="evenodd" d="M30.5004 11.5L33.31 8.66664H27.6909L30.5004 11.5Z" fill="#F9DD16"/>
<path fill-rule="evenodd" clip-rule="evenodd" d="M17.8574 24.25L15.0479 21.4166V27.0833L17.8574 24.25Z" fill="#F9DD16"/>
<path fill-rule="evenodd" clip-rule="evenodd" d="M43.1431 24.25L45.9526 21.4166V27.0833L43.1431 24.25Z" fill="#F9DD16"/>
</g>
</svg>
