<svg fill="none" height="53" viewBox="0 0 61 53" width="61" xmlns="http://www.w3.org/2000/svg" xmlns:xlink="http://www.w3.org/1999/xlink"><mask id="a" height="43" maskUnits="userSpaceOnUse" width="59" x="1" y="3"><rect fill="#fff" height="41.4393" rx="3.7125" stroke="#fff" stroke-width="1.06071" width="57.9393" x="1.53036" y="3.53036"/></mask><rect fill="#fff" height="41.4393" rx="3.7125" stroke="#f5f5f5" stroke-width="1.06071" width="57.9393" x="1.53036" y="3.53036"/><g clip-rule="evenodd" fill-rule="evenodd" mask="url(#a)"><path d="m1 45.5h59v-14.1667h-59z" fill="#e34f4f"/><path d="m20.6665 31.3333h16.8571v-11.3333h-16.8571z" fill="#e34f4f"/><g fill="#181a1a"><path d="m23.4761 31.3333h2.8095v-2.8333h-2.8095z"/><path d="m31.9048 31.3333h2.8095v-2.8333h-2.8095z"/><path d="m20.6665 20h2.8095v-2.8333h-2.8095z"/><path d="m29.0952 20h2.8095v-2.8333h-2.8095z"/><path d="m26.2856 20h2.8096v-2.8333h-2.8096z"/><path d="m34.7144 20h2.8095v-2.8333h-2.8095z"/></g><path d="m20.6665 17.1667h2.8095v-2.8334h-2.8095z" fill="#e34f4f"/><path d="m29.0952 17.1667h2.8095v-2.8334h-2.8095z" fill="#e34f4f"/><path d="m26.2856 17.1667h2.8096v-2.8334h-2.8096z" fill="#e34f4f"/><path d="m34.7144 17.1667h2.8095v-2.8334h-2.8095z" fill="#e34f4f"/></g></svg>