<svg width="61" height="53" viewBox="0 0 61 53" fill="none" xmlns="http://www.w3.org/2000/svg">
<rect x="1.53036" y="3.53036" width="57.9393" height="41.4393" rx="3.7125" fill="white" stroke="#F5F5F5" stroke-width="1.06071"/>
<mask id="mask0" mask-type="alpha" maskUnits="userSpaceOnUse" x="1" y="3" width="59" height="43">
<rect x="1.53036" y="3.53036" width="57.9393" height="41.4393" rx="3.7125" fill="white" stroke="white" stroke-width="1.06071"/>
</mask>
<g mask="url(#mask0)">
<path fill-rule="evenodd" clip-rule="evenodd" d="M1 45.5H60V31.3333H1V45.5Z" fill="#E34F4F"/>
<path fill-rule="evenodd" clip-rule="evenodd" d="M20.6665 31.3333H37.5236V20H20.6665V31.3333Z" fill="#E34F4F"/>
<path fill-rule="evenodd" clip-rule="evenodd" d="M23.4761 31.3333H26.2856V28.5H23.4761V31.3333Z" fill="#181A1A"/>
<path fill-rule="evenodd" clip-rule="evenodd" d="M31.9048 31.3333H34.7143V28.5H31.9048V31.3333Z" fill="#181A1A"/>
<path fill-rule="evenodd" clip-rule="evenodd" d="M20.6665 20H23.476V17.1667H20.6665V20Z" fill="#181A1A"/>
<path fill-rule="evenodd" clip-rule="evenodd" d="M29.0952 20H31.9047V17.1667H29.0952V20Z" fill="#181A1A"/>
<path fill-rule="evenodd" clip-rule="evenodd" d="M26.2856 20H29.0952V17.1667H26.2856V20Z" fill="#181A1A"/>
<path fill-rule="evenodd" clip-rule="evenodd" d="M34.7144 20H37.5239V17.1667H34.7144V20Z" fill="#181A1A"/>
<path fill-rule="evenodd" clip-rule="evenodd" d="M20.6665 17.1667H23.476V14.3333H20.6665V17.1667Z" fill="#E34F4F"/>
<path fill-rule="evenodd" clip-rule="evenodd" d="M29.0952 17.1667H31.9047V14.3333H29.0952V17.1667Z" fill="#E34F4F"/>
<path fill-rule="evenodd" clip-rule="evenodd" d="M26.2856 17.1667H29.0952V14.3333H26.2856V17.1667Z" fill="#E34F4F"/>
<path fill-rule="evenodd" clip-rule="evenodd" d="M34.7144 17.1667H37.5239V14.3333H34.7144V17.1667Z" fill="#E34F4F"/>
</g>
</svg>
