<svg fill="none" height="53" viewBox="0 0 61 53" width="61" xmlns="http://www.w3.org/2000/svg" xmlns:xlink="http://www.w3.org/1999/xlink"><mask id="a" height="43" maskUnits="userSpaceOnUse" width="59" x="1" y="3"><rect fill="#fff" height="41.4393" rx="3.7125" stroke="#fff" stroke-width="1.06071" width="57.9393" x="1.53036" y="3.53036"/></mask><rect fill="#fff" height="41.4393" rx="3.7125" stroke="#f5f5f5" stroke-width="1.06071" width="57.9393" x="1.53036" y="3.53036"/><g clip-rule="evenodd" fill-rule="evenodd" mask="url(#a)"><path d="m1 45.5h59v-14.1667h-59z" fill="#ec3938"/><path d="m1 17.1667h59v-14.1667h-59z" fill="#51b422"/><path d="m29.6715 27.8946c.0629-.0661.0983-.1538.0988-.245l.0237-4.194c.002-.3431-.2756-.6223-.6187-.6223-.55 0-.8266-.6638-.4393-1.0544l1.2618-1.2725c.2767-.279.7277-.279 1.0043 0l1.2601 1.2708c.3879.3912.1108 1.0561-.4401 1.0561-.3423 0-.6198.2775-.6198.6198v4.1925c0 .0936.037.1833.1029.2498.222.2239.0634.6046-.2519.6046h-1.1223c-.315 0-.4767-.3772-.2595-.6054z" fill="#159940"/><path d="m1 3 19.6667 21.25-19.6667 21.25z" fill="#258de7"/></g></svg>