<svg width="61" height="53" viewBox="0 0 61 53" fill="none" xmlns="http://www.w3.org/2000/svg">
<rect x="1.53036" y="3.53036" width="57.9393" height="41.4393" rx="3.7125" fill="white" stroke="#F5F5F5" stroke-width="1.06071"/>
<mask id="mask0" mask-type="alpha" maskUnits="userSpaceOnUse" x="1" y="3" width="59" height="43">
<rect x="1.53036" y="3.53036" width="57.9393" height="41.4393" rx="3.7125" fill="white" stroke="white" stroke-width="1.06071"/>
</mask>
<g mask="url(#mask0)">
<path fill-rule="evenodd" clip-rule="evenodd" d="M12.2381 3H1V14.3333H12.2381V3ZM29.0952 3H17.8571V14.3333H29.0952V3ZM29.0952 3H60V8.66667H29.0952V3ZM60 14.3333H29.0952V20H60V14.3333ZM29.0952 25.6667H60V31.3334H29.0952V25.6667ZM60 37H1V42.6667H60V37ZM17.8571 20H29.0952V31.3333H17.8571V20ZM12.2381 20H1V31.3333H12.2381V20Z" fill="#1C6DC1"/>
</g>
</svg>
