<svg fill="none" height="53" viewBox="0 0 61 53" width="61" xmlns="http://www.w3.org/2000/svg" xmlns:xlink="http://www.w3.org/1999/xlink"><mask id="a" height="43" maskUnits="userSpaceOnUse" width="59" x="1" y="3"><rect fill="#fff" height="41.4393" rx="3.7125" stroke="#fff" stroke-width="1.06071" width="57.9393" x="1.53036" y="3.53036"/></mask><rect fill="#fff" height="41.4393" rx="3.7125" stroke="#f5f5f5" stroke-width="1.06071" width="57.9393" x="1.53036" y="3.53036"/><g mask="url(#a)"><path d="m40.3333 3h19.6667v42.5h-19.6667z" fill="#63aee3"/><path clip-rule="evenodd" d="m1 45.5h19.6667v-42.5h-19.6667z" fill="#63aee3" fill-rule="evenodd"/><path d="m26.2951 22.8333c0-.7811-.6332-1.4143-1.4142-1.4143-.7811 0-1.4143.6332-1.4143 1.4143zm.6746 6.1255c.6741.3945 1.5404.1678 1.9349-.5064s.1678-1.5405-.5064-1.9349zm5.7871-2.5367c-.6564.4233-.8453 1.2987-.422 1.9551.4234.6564 1.2987.8453 1.9551.4219zm4.7764-3.5888c0-.7811-.6332-1.4143-1.4142-1.4143-.7811 0-1.4143.6332-1.4143 1.4143zm-14.0666 0c0 2.6136 1.4079 4.8995 3.5031 6.1255l1.4285-2.4413c-1.2568-.7355-2.1031-2.1082-2.1031-3.6842zm10.8233 5.9658c1.9506-1.2581 3.2433-3.4617 3.2433-5.9658h-2.8285c0 1.5102-.7768 2.8334-1.9479 3.5888z" fill="#628a40"/><path clip-rule="evenodd" d="m30.5 25.6667c1.5516 0 2.8095-1.2686 2.8095-2.8334s-1.2579-2.8333-2.8095-2.8333c-1.5517 0-2.8096 1.2685-2.8096 2.8333s1.2579 2.8334 2.8096 2.8334z" fill="#dcc26d" fill-rule="evenodd"/></g></svg>