<svg fill="none" height="53" viewBox="0 0 61 53" width="61" xmlns="http://www.w3.org/2000/svg" xmlns:xlink="http://www.w3.org/1999/xlink"><mask id="a" height="43" maskUnits="userSpaceOnUse" width="59" x="1" y="3"><rect fill="#fff" height="42.5" rx="4.24286" width="59" x="1" y="3"/></mask><rect fill="#fff" height="42.5" rx="4.24286" width="59" x="1" y="3"/><g clip-rule="evenodd" fill-rule="evenodd" mask="url(#a)"><path d="m1 45.5h59v-42.5h-59z" fill="#f0371d"/><path d="m30.4663 20.3096c2.0288-1.7125 2.1522-2.0954 2.6383-3.6042.1622-.5036.0478-.9172-.0874-1.4057-.1948-.7043-.4328-1.5643.0537-3.074-2.2136-.7254-4.7855 1.0995-5.7445 4.0759-.9589 2.9765.0581 5.9774 2.2717 6.7027.3963.1298.3518.036.2315-.2183-.211-.446-.6556-1.3856.6367-2.4764zm-4.2014 3.1278c-.9881-2.475-1.3111-2.7117-2.5837-3.6442-.4248-.3112-.8502-.3293-1.3527-.3506-.7244-.0307-1.609-.0683-2.8825-1.0014-1.368 1.899-.4418 4.9296 2.0688 6.7691 2.5107 1.8396 5.655 1.7914 7.023-.1075.2449-.3399.1427-.3263-.1342-.2895-.4859.0646-1.5094.2006-2.1387-1.3759zm12.6637 1.352c-1.5731 0-1.9724 0-4.2143-1.4167-1.428-.9023-2.1768-.1856-2.5322.1547-.2025.1939-.2774.2655-.2774-.1547 0-2.3472 2.5158-4.25 5.6191-4.25s5.619 1.9028 5.619 4.25c-1.5741 0-2.3116.494-2.9156.8985-.4189.2806-.7736.5182-1.2986.5182zm0-2.6644c0 .3912-.3145.7083-.7024.7083s-.7024-.3171-.7024-.7083.3145-.7083.7024-.7083.7024.3171.7024.7083zm-5.7903 6.2686c-.6432 2.5881-.5198 2.971-.0337 4.4798.1622.5036.4959.7704.8899 1.0854.5682.4543 1.2619 1.009 1.7484 2.5188 2.2135-.7253 3.2306-3.7262 2.2716-6.7026-.959-2.9765-3.5308-4.8014-5.7444-4.076-.3963.1298-.3056.1794-.0601.3138.4307.2357 1.338.7323.9283 2.3808zm2.479 3.6564c-.369.1209-.7652-.0827-.8851-.4548-.1199-.372.082-.7716.451-.8925.3689-.1209.7651.0827.885.4548.1199.372-.082.7716-.4509.8925zm-7.701-3.6164c-2.6394.1828-2.9625.4195-4.2351 1.352-.4248.3112-.5733.7137-.7486 1.189-.2529.6853-.5616 1.5221-1.8351 2.4552 1.368 1.8989 4.5123 1.947 7.023.1075 2.5106-1.8395 3.4368-4.8702 2.0688-6.7691-.2449-.3399-.2637-.2377-.3146.0393-.0892.486-.2772 1.5096-1.9584 1.6261zm-2.6822 3.5075c-.228-.3165-.1584-.7594.1554-.9894.3138-.2299.7531-.1598.9811.1567s.1584.7595-.1554.9894c-.3138.23-.7531.1598-.9811-.1567zm-3.1059-9.9923c.228-.3165.6673-.3867.9811-.1567.3138.2299.3834.6729.1554.9894-.228.3164-.6673.3866-.9811.1567-.3138-.23-.3834-.6729-.1554-.9894zm8.4637-6.0667c.3689.1209.5708.5205.451.8925-.1199.3721-.5162.5757-.8851.4548s-.5708-.5205-.451-.8925c.1199-.3721.5162-.5757.8851-.4548z" fill="#fff"/></g></svg>