<svg fill="none" height="53" viewBox="0 0 61 53" width="61" xmlns="http://www.w3.org/2000/svg" xmlns:xlink="http://www.w3.org/1999/xlink"><mask id="a" height="43" maskUnits="userSpaceOnUse" width="59" x="1" y="3"><rect fill="#fff" height="41.4393" rx="3.7125" stroke="#fff" stroke-width="1.06071" width="57.9393" x="1.53036" y="3.53036"/></mask><rect fill="#fff" height="41.4393" rx="3.7125" stroke="#f5f5f5" stroke-width="1.06071" width="57.9393" x="1.53036" y="3.53036"/><g clip-rule="evenodd" fill-rule="evenodd" mask="url(#a)"><path d="m1 17.1667h59v-14.1667h-59z" fill="#0884e6"/><path d="m1 45.5h59v-14.1667h-59z" fill="#0884e6"/><g fill="#0e88e9"><path d="m30.5 25.6667-1.9867.5868.5819-2.0035-.5819-2.0034 1.9867.5868 1.9866-.5868-.5819 2.0034.5819 2.0035z"/><path d="m41.738 22.8333-1.9866.5868.5818-2.0035-.5818-2.0034 1.9866.5868 1.9866-.5868-.5818 2.0034.5818 2.0035z"/><path d="m41.738 28.5-1.9866.5868.5818-2.0035-.5818-2.0034 1.9866.5868 1.9866-.5868-.5818 2.0034.5818 2.0035z"/><path d="m19.2619 28.5-1.9866.5868.5819-2.0035-.5819-2.0034 1.9866.5868 1.9867-.5868-.5819 2.0034.5819 2.0035z"/><path d="m19.2619 22.8333-1.9866.5868.5819-2.0035-.5819-2.0034 1.9866.5868 1.9867-.5868-.5819 2.0034.5819 2.0035z"/></g></g></svg>