<svg width="61" height="53" viewBox="0 0 61 53" fill="none" xmlns="http://www.w3.org/2000/svg">
<rect x="1.53036" y="3.53036" width="57.9393" height="41.4393" rx="3.7125" fill="white" stroke="#F5F5F5" stroke-width="1.06071"/>
<mask id="mask0" mask-type="alpha" maskUnits="userSpaceOnUse" x="1" y="3" width="59" height="43">
<rect x="1.53036" y="3.53036" width="57.9393" height="41.4393" rx="3.7125" fill="white" stroke="white" stroke-width="1.06071"/>
</mask>
<g mask="url(#mask0)">
<path fill-rule="evenodd" clip-rule="evenodd" d="M1 17.1667H60V3H1V17.1667Z" fill="#0884E6"/>
<path fill-rule="evenodd" clip-rule="evenodd" d="M1 45.5H60V31.3333H1V45.5Z" fill="#0884E6"/>
<path fill-rule="evenodd" clip-rule="evenodd" d="M30.5 25.6667L28.5133 26.2535L29.0952 24.25L28.5133 22.2466L30.5 22.8334L32.4866 22.2466L31.9047 24.25L32.4866 26.2535L30.5 25.6667Z" fill="#0E88E9"/>
<path fill-rule="evenodd" clip-rule="evenodd" d="M41.738 22.8333L39.7514 23.4201L40.3332 21.4166L39.7514 19.4132L41.738 20L43.7246 19.4132L43.1428 21.4166L43.7246 23.4201L41.738 22.8333Z" fill="#0E88E9"/>
<path fill-rule="evenodd" clip-rule="evenodd" d="M41.738 28.5L39.7514 29.0868L40.3332 27.0833L39.7514 25.0799L41.738 25.6667L43.7246 25.0799L43.1428 27.0833L43.7246 29.0868L41.738 28.5Z" fill="#0E88E9"/>
<path fill-rule="evenodd" clip-rule="evenodd" d="M19.2619 28.5L17.2753 29.0868L17.8572 27.0833L17.2753 25.0799L19.2619 25.6667L21.2486 25.0799L20.6667 27.0833L21.2486 29.0868L19.2619 28.5Z" fill="#0E88E9"/>
<path fill-rule="evenodd" clip-rule="evenodd" d="M19.2619 22.8333L17.2753 23.4201L17.8572 21.4166L17.2753 19.4132L19.2619 20L21.2486 19.4132L20.6667 21.4166L21.2486 23.4201L19.2619 22.8333Z" fill="#0E88E9"/>
</g>
</svg>
