<svg fill="none" height="53" viewBox="0 0 61 53" width="61" xmlns="http://www.w3.org/2000/svg" xmlns:xlink="http://www.w3.org/1999/xlink"><linearGradient id="a" gradientUnits="userSpaceOnUse" x1="23.4763" x2="23.4763" y1="17.1667" y2="34.1667"><stop offset="0" stop-color="#ff212e"/><stop offset="1" stop-color="#fd0d1b"/></linearGradient><mask id="b" height="43" maskUnits="userSpaceOnUse" width="59" x="1" y="3"><rect fill="#fff" height="41.4393" rx="3.7125" stroke="#fff" stroke-width="1.06071" width="57.9393" x="1.53036" y="3.53036"/></mask><rect fill="#fff" height="41.4393" rx="3.7125" stroke="#f5f5f5" stroke-width="1.06071" width="57.9393" x="1.53036" y="3.53036"/><g clip-rule="evenodd" fill-rule="evenodd" mask="url(#b)"><path d="m1 17.1667h59v-14.1667h-59z" fill="#ff202d"/><path d="m29.0953 14.3334 1.4048-1.4167 1.4048 1.4167v2.8333h-2.8096zm-5.619 0 1.4048-1.4167 1.4047 1.4167v2.8333h-2.8095zm12.6429-1.4167-1.4048 1.4167v2.8333h2.8096v-2.8333z" fill="#1895db" opacity=".5"/><path d="m33.3094 12.9167-1.4048 1.4167v2.8333h2.8096v-2.8333zm-5.619 0-1.4048 1.4167v2.8333h2.8096v-2.8333z" fill="#191f94" opacity=".5"/><path d="m1 45.5h59v-14.1667h-59z" fill="#2027ac"/><path d="m26.2858 17.1667h-1.4047l-1.4048 2.8333h2.8095v2.8333h2.8096v-2.8333h2.8095v-2.8333h-2.8096v2.8333h-2.8095zm8.4286 0h1.4048l1.4048 2.8333h-2.8095v2.8333h-2.8095v-2.8333h2.8094zm-5.6191 5.6667h2.8096v2.8333h-2.8095v2.8333h-2.8096v-2.8333h-2.8095v-2.8333h2.8096v2.8333h2.8094zm8.4287 2.8333v-2.8333h-2.8096v2.8333h-2.8094v2.8333h2.8095v-2.8333zm-11.2381 2.8333h-2.8096v2.8334h2.8095v2.8333h2.8096v-2.8333h2.8095v-2.8334h-2.8096v2.8334h-2.8094zm11.2381 2.8334v-2.8334h-2.8096v2.8334h-2.8094v2.8333h2.8095v-2.8333z" fill="url(#a)"/></g></svg>