<svg fill="none" height="53" viewBox="0 0 61 53" width="61" xmlns="http://www.w3.org/2000/svg" xmlns:xlink="http://www.w3.org/1999/xlink"><linearGradient id="a" gradientUnits="userSpaceOnUse" x1="20.6667" x2="20.6667" y1="17.1667" y2="34.1667"><stop offset="0" stop-color="#fff"/><stop offset="1" stop-color="#f0f0f0"/></linearGradient><mask id="b" height="43" maskUnits="userSpaceOnUse" width="59" x="1" y="3"><rect fill="#fff" height="42.5" rx="4.24286" width="59" x="1" y="3"/></mask><mask id="c" height="18" maskUnits="userSpaceOnUse" width="21" x="20" y="17"><rect fill="#fff" height="17" rx="1.41429" width="19.6667" x="20.6667" y="17.1667"/></mask><rect fill="#fff" height="42.5" rx="4.24286" width="59" x="1" y="3"/><g mask="url(#b)"><path clip-rule="evenodd" d="m1 22.8333h59v-19.8333h-59z" fill="#112ebc" fill-rule="evenodd"/><path clip-rule="evenodd" d="m1 45.5h59v-22.6667h-59z" fill="#e3264a" fill-rule="evenodd"/><rect fill="url(#a)" height="17" rx="1.41429" width="19.6667" x="20.6667" y="17.1667"/><g mask="url(#c)"><path d="m21.3739 33.4596v-1.6908l4.0288-2.0315c.6912-.3485 1.4546-.5301 2.2287-.5301h5.7374c.7741 0 1.5374.1816 2.2287.5301l4.0288 2.0315v1.6908z" fill="#aabcae" stroke="#366c14" stroke-width="1.41429"/><path clip-rule="evenodd" d="m30.4999 28.5c2.3275 0 4.2143-1.9028 4.2143-4.25s-1.8868-4.25-4.2143-4.25-4.2143 1.9028-4.2143 4.25 1.8868 4.25 4.2143 4.25z" fill="#d4b872" fill-rule="evenodd"/><path d="m25.3346 26.6578 3.8335 3.0928c.7773.6271 1.8868.6271 2.6641 0l3.8334-3.0928c.4626-.3731 1.1512-.0439 1.1512.5504v2.7109c0 .3905-.3166.7071-.7071.7071h-11.2191c-.3905 0-.7071-.3166-.7071-.7071v-2.7109c0-.5943.6886-.9235 1.1511-.5504z" fill="#c28321" stroke="#0d3488" stroke-width="1.41429"/><path clip-rule="evenodd" d="m27.4806 21.2051c-.4426-.4464-.1265-1.2051.5021-1.2051h5.0345c.6285 0 .9447.7587.5021 1.2051l-2.5172 2.5385c-.2767.279-.7277.279-1.0043 0z" fill="#216c30" fill-rule="evenodd"/></g></g></svg>