<svg width="61" height="53" viewBox="0 0 61 53" fill="none" xmlns="http://www.w3.org/2000/svg">
<rect x="1" y="3" width="59" height="42.5" rx="4.24286" fill="white"/>
<mask id="mask0" mask-type="alpha" maskUnits="userSpaceOnUse" x="1" y="3" width="59" height="43">
<rect x="1" y="3" width="59" height="42.5" rx="4.24286" fill="white"/>
</mask>
<g mask="url(#mask0)">
<path fill-rule="evenodd" clip-rule="evenodd" d="M1 22.8333H60V3H1V22.8333Z" fill="#112EBC"/>
<path fill-rule="evenodd" clip-rule="evenodd" d="M1 45.5H60V22.8333H1V45.5Z" fill="#E3264A"/>
<rect x="20.6667" y="17.1667" width="19.6667" height="17" rx="1.41429" fill="url(#paint0_linear)"/>
<mask id="mask1" mask-type="alpha" maskUnits="userSpaceOnUse" x="20" y="17" width="21" height="18">
<rect x="20.6667" y="17.1667" width="19.6667" height="17" rx="1.41429" fill="white"/>
</mask>
<g mask="url(#mask1)">
<path d="M21.3739 33.4596V31.7688L25.4027 29.7373C26.0939 29.3888 26.8573 29.2072 27.6314 29.2072H33.3688C34.1429 29.2072 34.9062 29.3888 35.5975 29.7373L39.6263 31.7688V33.4596H21.3739Z" fill="#AABCAE" stroke="#366C14" stroke-width="1.41429"/>
<path fill-rule="evenodd" clip-rule="evenodd" d="M30.4999 28.5C32.8274 28.5 34.7142 26.5972 34.7142 24.25C34.7142 21.9028 32.8274 20 30.4999 20C28.1724 20 26.2856 21.9028 26.2856 24.25C26.2856 26.5972 28.1724 28.5 30.4999 28.5Z" fill="#D4B872"/>
<path d="M25.3346 26.6578L29.1681 29.7506C29.9454 30.3777 31.0549 30.3777 31.8322 29.7506L35.6656 26.6578C36.1282 26.2847 36.8168 26.6139 36.8168 27.2082V29.9191C36.8168 30.3096 36.5002 30.6262 36.1097 30.6262H24.8906C24.5001 30.6262 24.1835 30.3096 24.1835 29.9191V27.2082C24.1835 26.6139 24.8721 26.2847 25.3346 26.6578Z" fill="#C28321" stroke="#0D3488" stroke-width="1.41429"/>
<path fill-rule="evenodd" clip-rule="evenodd" d="M27.4806 21.2051C27.038 20.7587 27.3541 20 27.9827 20H33.0172C33.6457 20 33.9619 20.7587 33.5193 21.2051L31.0021 23.7436C30.7254 24.0226 30.2744 24.0226 29.9978 23.7436L27.4806 21.2051Z" fill="#216C30"/>
</g>
</g>
<defs>
<linearGradient id="paint0_linear" x1="20.6667" y1="17.1667" x2="20.6667" y2="34.1667" gradientUnits="userSpaceOnUse">
<stop stop-color="white"/>
<stop offset="1" stop-color="#F0F0F0"/>
</linearGradient>
</defs>
</svg>
