<svg width="61" height="53" viewBox="0 0 61 53" fill="none" xmlns="http://www.w3.org/2000/svg">
<rect x="1" y="3" width="59" height="42.5" rx="4.24286" fill="#D01129"/>
<mask id="mask0" mask-type="alpha" maskUnits="userSpaceOnUse" x="1" y="3" width="59" height="43">
<rect x="1" y="3" width="59" height="42.5" rx="4.24286" fill="white"/>
</mask>
<g mask="url(#mask0)">
<path fill-rule="evenodd" clip-rule="evenodd" d="M30.2646 24.3368C31.6573 24.3368 32.7863 23.1414 32.7863 21.667C32.7863 20.1923 31.6573 18.9969 30.2646 18.9969C28.8719 18.9969 27.7432 20.1923 27.7432 21.667C27.7432 23.1414 28.8719 24.3368 30.2646 24.3368" fill="#FFF101"/>
<path fill-rule="evenodd" clip-rule="evenodd" d="M27.9663 20.5935C28.6805 20.3522 29.607 20.633 30.2165 21.2524C30.8636 21.1276 31.5125 20.2672 31.7135 19.5012C31.4926 16.9556 29.92 15.0271 29.4417 13.7038C29.2905 13.2855 28.5894 12.6279 27.8603 12.9341C27.2608 13.186 26.9576 12.99 24.9441 14.0534C23.8553 14.6284 22.9389 15.219 22.456 15.3219C21.9729 15.4248 21.4632 15.5166 21.0768 15.1961C20.5453 14.7552 19.9493 14.6333 19.5982 14.3011C19.1681 13.894 18.8922 13.5868 18.6013 13.4623C18.3104 13.3375 17.8179 13.6146 18.0259 14.2741C18.495 15.7635 19.6009 16.0048 20.0757 17.397C20.2998 18.0551 20.6185 18.5498 21.3307 18.051C22.0428 17.5522 23.0494 16.8896 24.7654 16.8199C25.9177 16.7729 27.1086 16.3242 27.6558 15.5881C27.6504 16.2249 27.8625 16.7469 27.8065 17.5753C27.7508 18.404 27.7596 19.4346 27.9663 20.5935" fill="white"/>
<path fill-rule="evenodd" clip-rule="evenodd" d="M29.3161 20.6634C29.1045 19.4102 29.4882 19.2296 29.0301 17.7607C28.7547 16.8774 28.5787 15.7703 28.5743 15.2551L28.3901 15.3118C28.3946 15.827 28.5708 16.9343 28.846 17.8176C29.2891 19.2379 28.9447 19.4537 29.1131 20.5997C29.1652 20.6109 29.2744 20.6478 29.3161 20.6634" fill="#FFF101"/>
<path fill-rule="evenodd" clip-rule="evenodd" d="M28.2323 20.5259C28.2338 20.3665 28.2242 20.2002 28.2009 20.0572C28.5247 19.9748 29.0792 20.2917 29.0638 20.0562C29.0591 19.9816 29.0662 19.7403 29.0706 19.6124C29.0635 19.8123 28.2924 19.4749 28.1596 19.562C28.017 18.8329 28.1937 18.0827 28.0806 17.625C28.3381 17.5504 28.8114 17.7131 28.7535 17.4994C28.7206 17.39 28.6577 17.1178 28.6162 16.9476C28.6567 17.1259 28.2809 16.9782 28.1537 17.0801C28.0877 16.6848 27.9912 15.9346 27.9932 15.5917L27.6559 15.5881C27.6505 16.2249 27.8626 16.7469 27.8066 17.5753C27.7509 18.404 27.7597 19.4346 27.9664 20.5935C28.0403 20.5706 28.1621 20.5412 28.2323 20.5259" fill="#FFF101"/>
<path fill-rule="evenodd" clip-rule="evenodd" d="M27.3803 14.7045C26.8776 15.4732 25.6766 16.0037 24.5663 16.1209C23.2666 16.2582 22.3941 16.7162 21.7517 17.1646C21.6965 17.0593 21.5968 17.0027 21.5087 16.9333C20.5687 16.1961 20.9551 15.1971 21.311 15.3398C21.1767 15.2847 21.0987 15.2104 21.0253 15.1545C20.9011 15.057 20.5426 15.4306 20.5876 16.0237C20.6067 16.2764 20.811 16.6491 20.9772 16.8467C20.6737 16.7882 20.5284 16.7061 20.3502 16.4781C20.4503 16.4121 20.58 16.3746 20.6845 16.3661C20.6489 16.2756 20.5993 16.1753 20.5876 16.0237C20.439 16.0224 20.2579 16.0773 20.1025 16.1891C19.7296 15.7958 19.3456 15.482 19.123 15.0178C18.7667 14.2741 19.1291 13.8046 19.5982 14.3011C19.1681 13.8941 18.8922 13.5868 18.6013 13.4623C18.3104 13.3375 17.8179 13.6146 18.0259 14.2741C18.495 15.7635 19.6009 16.0048 20.0757 17.397C20.2998 18.0552 20.6303 18.568 21.3307 18.051C21.423 17.9829 21.4475 17.9668 21.5278 17.9065C21.75 17.7705 22.102 17.9987 22.0644 18.495C22.2444 18.0393 22.1295 17.8997 21.9768 17.6265C21.8639 17.6902 21.873 17.3172 21.8032 17.2681C22.2029 17.005 22.689 16.7412 23.3022 16.5532C23.3248 16.776 23.3827 17.0125 23.5764 16.9782C23.6803 16.9538 23.7856 16.9317 23.8963 16.9122C23.7026 16.9465 23.6481 16.6876 23.6258 16.4651C23.9164 16.3944 24.2341 16.3409 24.5822 16.3107C24.9833 16.2759 25.398 16.1896 25.7873 16.0557C25.8453 16.2694 25.9651 16.6294 26.1647 16.5587C26.3417 16.4986 26.5137 16.4308 26.6753 16.352C26.3976 16.4921 26.2884 16.0921 26.2216 15.8805C26.729 15.6468 27.1614 15.3281 27.4199 14.9478L27.3803 14.7045" fill="#FFF101"/>
<path fill-rule="evenodd" clip-rule="evenodd" d="M29.601 15.0861C29.846 14.885 30.0563 14.7898 29.845 14.3638C29.4993 13.6671 29.7141 13.6648 28.9572 13.2216C28.1864 12.7708 28.2838 12.7355 27.2638 13.1163C27.0129 13.2099 27.0689 13.3055 27.1128 13.6907C27.2074 14.521 27.387 15.1896 27.5513 15.8727C28.1925 15.7841 29.179 15.4332 29.601 15.0861Z" fill="#FFF101"/>
<path fill-rule="evenodd" clip-rule="evenodd" d="M27.2081 14.8974C27.0736 14.4898 27.1097 14.5452 27.5973 14.6694C27.7568 14.1321 27.9772 13.6787 28.1007 13.2438C28.2387 12.7569 28.2819 12.6693 28.4849 12.7886C28.7446 12.941 29.0299 13.1019 29.2157 13.1986C29.5403 13.367 29.4924 13.426 29.3375 13.6937C29.1826 13.9615 28.6759 14.5041 28.3634 15.0703C28.7756 15.3775 28.9079 15.4053 28.6151 15.5376C28.2873 15.6855 27.7428 15.8688 27.5135 15.9122C27.4716 15.6447 27.336 15.2839 27.2081 14.8974Z" fill="#FFF101"/>
<path fill-rule="evenodd" clip-rule="evenodd" d="M22.3688 18.7303L22.3364 19.1495L22.0445 18.8688L21.718 19.1035L21.7396 18.685L21.3638 18.5647L21.6849 18.3208L21.5432 17.932L21.9201 18.0484L22.1191 17.6884L22.2704 18.0729L22.6592 18.0107L22.4687 18.3775L22.7555 18.6608L22.3688 18.7303" fill="#FFF101"/>
<path fill-rule="evenodd" clip-rule="evenodd" d="M30.5367 24.3116C29.9821 23.7772 29.7484 22.7874 29.9504 21.9186C29.5247 21.3879 28.4966 21.2228 27.7695 21.4214C25.7979 22.8971 25.0069 25.3033 24.1637 26.4036C23.8971 26.7514 23.7098 27.7228 24.325 28.2385C24.8307 28.6622 24.8221 29.0381 26.6984 30.3529C27.713 31.0638 28.6542 31.6089 28.98 32.0004C29.306 32.3918 29.6357 32.8135 29.5667 33.3279C29.472 34.0357 29.6701 34.6434 29.5741 35.1311C29.456 35.7289 29.3428 36.1357 29.3863 36.4648C29.43 36.7939 29.9026 37.1069 30.3381 36.5865C31.3215 35.4116 30.966 34.2769 31.8675 33.1454C32.2934 32.6107 32.5389 32.0711 31.7749 31.6674C31.0107 31.264 29.9656 30.6721 29.0505 29.1338C28.436 28.1005 27.4737 27.2326 26.5977 27.099C27.1214 26.7857 27.4425 26.3301 28.148 25.9669C28.8536 25.6038 29.6922 25.0808 30.5367 24.3116" fill="white"/>
<path fill-rule="evenodd" clip-rule="evenodd" d="M29.9181 23.0387C28.9992 23.8593 28.6594 23.5976 27.687 24.7522C27.1025 25.4465 26.285 26.1616 25.8657 26.4231L26.0042 26.5635C26.4235 26.302 27.241 25.5869 27.8257 24.8926C28.766 23.7761 29.1146 23.9841 29.9679 23.2565C29.951 23.2035 29.9262 23.0847 29.9181 23.0387" fill="#FFF101"/>
<path fill-rule="evenodd" clip-rule="evenodd" d="M30.3477 24.1016C30.2169 24.1799 30.0855 24.2719 29.9802 24.3647C29.7509 24.1089 29.7328 23.4419 29.5482 23.5742C29.4892 23.6153 29.2884 23.7296 29.1814 23.7894C29.3488 23.6961 29.4581 24.5718 29.5958 24.6501C29.0707 25.1455 28.3688 25.3584 28.0512 25.6911C27.8614 25.492 27.7578 24.9771 27.612 25.1369C27.5391 25.2217 27.3478 25.4153 27.2292 25.5386C27.3549 25.4122 27.422 25.8307 27.5688 25.8962C27.2786 26.1546 26.7132 26.6181 26.4316 26.7878L26.5973 27.099C27.121 26.7857 27.4421 26.3301 28.1476 25.9669C28.8532 25.6038 29.6918 25.0808 30.5363 24.3116C30.4805 24.2552 30.3954 24.1583 30.3477 24.1016" fill="#FFF101"/>
<path fill-rule="evenodd" clip-rule="evenodd" d="M26.0127 27.7932C26.8928 27.8699 27.927 28.7059 28.5781 29.6656C29.3401 30.7888 30.1512 31.3596 30.8391 31.7245C30.7806 31.828 30.7841 31.9476 30.7716 32.0632C30.6385 33.2938 29.6283 33.4388 29.5669 33.0411C29.589 33.1919 29.5672 33.3006 29.5583 33.3959C29.5407 33.5587 30.0255 33.7003 30.488 33.3627C30.6852 33.2187 30.8877 32.8451 30.9665 32.594C31.0701 32.9013 31.0755 33.0757 30.9785 33.3531C30.8742 33.2943 30.7789 33.194 30.7195 33.1027C30.6633 33.1805 30.6061 33.2761 30.488 33.3627C30.5612 33.4997 30.6967 33.6382 30.8658 33.7248C30.7306 34.2634 30.666 34.7723 30.3974 35.2085C29.9676 35.907 29.4022 35.8095 29.5738 35.131C29.4557 35.7289 29.3426 36.1357 29.386 36.4648C29.4297 36.7939 29.9023 37.1068 30.3378 36.5864C31.3212 35.4115 30.9657 34.2769 31.8672 33.1454C32.2931 32.6107 32.5477 32.0513 31.7746 31.6674C31.6725 31.6169 31.6472 31.6026 31.5579 31.559C31.3355 31.4233 31.3463 30.9863 31.7707 30.7726C31.3082 30.8356 31.2515 31.0108 31.1045 31.2873C31.2127 31.3588 30.9031 31.5371 30.8977 31.6258C30.4829 31.3908 30.0243 31.077 29.5637 30.6084C29.7349 30.4766 29.8993 30.305 29.7741 30.1446C29.7022 30.0617 29.6315 29.9759 29.5601 29.8842C29.6853 30.0448 29.5009 30.2239 29.3298 30.356C29.1268 30.1249 28.9242 29.8603 28.7254 29.5561C28.4963 29.2055 28.2184 28.8686 27.9143 28.5785C28.0601 28.4184 28.2945 28.1288 28.1369 27.9809C27.9995 27.8486 27.8578 27.7246 27.7127 27.6162C27.9661 27.8008 27.6933 28.101 27.5539 28.2679C27.1088 27.9196 26.6321 27.6822 26.1919 27.6357L26.0127 27.7932" fill="#FFF101"/>
<path fill-rule="evenodd" clip-rule="evenodd" d="M24.857 25.7327C24.5698 25.6087 24.7115 25.4411 24.4687 25.848C24.0718 26.5131 23.9951 26.36 24.0113 27.2757C24.0277 28.2076 24.1986 28.0589 25.0203 28.8039C25.6519 28.3025 26.4058 27.5445 26.8823 27.0522C26.4893 26.5087 25.3517 25.9467 24.857 25.7327Z" fill="#FFF101"/>
<path fill-rule="evenodd" clip-rule="evenodd" d="M26.2567 27.8546C25.9906 28.1819 26.0178 28.1213 25.8757 27.6118C25.3565 27.734 24.956 27.8751 24.5389 27.9794C24.0715 28.0961 23.9784 28.1002 23.9743 27.8546C23.9691 27.5401 23.9583 27.1983 23.9443 26.9794C23.92 26.5978 23.9919 26.6118 24.2885 26.6201C24.585 26.6282 25.2011 26.7054 25.8205 26.7088C25.8656 26.1772 25.8222 26.042 26.077 26.2445C26.3615 26.4709 26.7838 26.8788 26.934 27.0672C26.7362 27.2393 26.5091 27.5442 26.2567 27.8546Z" fill="#FFF101"/>
<path fill-rule="evenodd" clip-rule="evenodd" d="M31.8109 30.3763L32.1701 30.1961L32.0864 30.604L32.4418 30.7862L32.0886 30.9754L32.1779 31.3804L31.8178 31.2078L31.5706 31.5322L31.4775 31.1283L31.0835 31.1257L31.3226 30.795L31.0771 30.4696L31.4726 30.4607L31.561 30.0563L31.8109 30.3763" fill="#FFF101"/>
<path fill-rule="evenodd" clip-rule="evenodd" d="M32.2923 20.096C32.1328 20.8714 31.4397 21.5807 30.6284 21.83C30.407 22.4856 30.786 23.5105 31.3121 24.0785C33.5046 25.1484 35.8684 24.6706 37.1899 24.8937C37.6077 24.9641 38.4959 24.6501 38.6101 23.8284C38.7039 23.1528 39.0154 22.973 39.1526 20.5948C39.2268 19.3089 39.202 18.1732 39.3593 17.6788C39.5167 17.1844 39.6966 16.671 40.1518 16.4771C40.778 16.2101 41.176 15.7243 41.6233 15.5686C42.171 15.3778 42.5603 15.2783 42.8075 15.0739C43.055 14.8696 43.0746 14.2796 42.4314 14.1405C40.9786 13.826 40.2284 14.7194 38.8521 14.4584C38.2018 14.3352 37.6377 14.3797 37.6897 15.2824C37.7418 16.1849 37.7803 17.4391 36.9795 19.0474C36.4417 20.1277 36.2131 21.444 36.5416 22.314C36.0236 21.9904 35.4904 21.9239 34.8408 21.4586C34.191 20.993 33.3438 20.4859 32.2923 20.096" fill="white"/>
<path fill-rule="evenodd" clip-rule="evenodd" d="M31.5601 21.299C32.6908 21.7312 32.6466 22.1736 34.0771 22.4882C34.9373 22.6771 35.9308 23.0691 36.3545 23.3228L36.3999 23.1255C35.9765 22.8718 34.9827 22.4801 34.1228 22.2909C32.7394 21.9867 32.7352 21.563 31.7135 21.1443C31.6786 21.1867 31.5937 21.2685 31.5601 21.299" fill="#FFF101"/>
<path fill-rule="evenodd" clip-rule="evenodd" d="M32.2146 20.3736C32.3442 20.4544 32.4851 20.5287 32.6135 20.5792C32.5193 20.9171 31.9826 21.2675 32.1832 21.3707C32.2463 21.4042 32.44 21.5311 32.5423 21.5992C32.3825 21.4923 33.0439 20.9543 33.0392 20.7887C33.7072 21.0226 34.2321 21.5599 34.6632 21.685C34.5954 21.9584 34.2257 22.3109 34.4294 22.3647C34.5353 22.3891 34.7893 22.4676 34.9494 22.5147C34.7832 22.4627 35.092 22.1918 35.0721 22.0247C35.4286 22.1614 36.0902 22.4481 36.3698 22.6215L36.5414 22.314C36.0234 21.9904 35.4902 21.9238 34.8406 21.4585C34.1908 20.993 33.3436 20.4859 32.2922 20.0959C32.274 20.175 32.2372 20.3016 32.2146 20.3736" fill="#FFF101"/>
<path fill-rule="evenodd" clip-rule="evenodd" d="M37.4015 22.503C37.0242 21.6577 37.1908 20.2912 37.6504 19.2143C38.188 17.9538 38.2494 16.9247 38.2037 16.1116C38.3177 16.1137 38.4136 16.0505 38.5148 16.0043C39.5876 15.5112 40.2114 16.3648 39.9165 16.6198C40.029 16.5241 40.1289 16.4901 40.2111 16.4506C40.353 16.3851 40.2266 15.8699 39.7192 15.6146C39.5029 15.5057 39.0961 15.5067 38.8511 15.56C39.0509 15.3113 39.1906 15.2193 39.4661 15.1696C39.4702 15.2946 39.4359 15.4321 39.3907 15.5322C39.4825 15.5447 39.5893 15.5494 39.7192 15.6146C39.7945 15.4789 39.8402 15.2855 39.8264 15.0869C40.3346 14.9419 40.7831 14.7467 41.2741 14.7748C42.0604 14.8197 42.2635 15.3869 41.623 15.5686C42.1707 15.3778 42.56 15.2783 42.8072 15.0739C43.0547 14.8696 43.0743 14.2796 42.4311 14.1405C40.9783 13.826 40.2281 14.7194 38.8518 14.4584C38.2015 14.3352 37.6168 14.3815 37.6894 15.2824C37.699 15.4012 37.7 15.4316 37.7091 15.5353C37.7091 15.8072 37.3465 16.0157 36.9596 15.7332C37.2421 16.1262 37.4137 16.0906 37.7135 16.0872C37.7179 15.9518 38.0184 16.1465 38.0935 16.1072C38.109 16.6052 38.0815 17.1828 37.9285 17.8392C37.7351 17.7485 37.5129 17.6832 37.4439 17.8782C37.412 17.9855 37.3774 18.0931 37.3381 18.2044C37.4069 18.0094 37.6457 18.0892 37.8389 18.18C37.7515 18.4817 37.6364 18.7999 37.4872 19.1342C37.3148 19.5194 37.1783 19.9426 37.0931 20.3668C36.8894 20.313 36.5351 20.2428 36.4929 20.4614C36.4536 20.6535 36.4229 20.8454 36.4067 21.0328C36.431 20.7081 36.8128 20.8079 37.0192 20.8524C36.9569 21.4347 37.0011 21.9904 37.183 22.4177L37.4015 22.503" fill="#FFF101"/>
<path fill-rule="evenodd" clip-rule="evenodd" d="M35.8916 24.2701C35.9339 24.5955 35.9064 24.836 36.3605 24.8549C37.1031 24.8864 37.0427 24.9833 37.7836 24.5108C38.5375 24.0296 38.5577 24.1246 38.7563 22.9988C38.8051 22.722 38.6988 22.7254 38.3618 22.5731C37.6358 22.2445 37.0013 22.2669 36.3605 22.0759C36.1123 22.7083 35.819 23.7096 35.8916 24.2701Z" fill="#FFF101"/>
<path fill-rule="evenodd" clip-rule="evenodd" d="M37.3301 22.249C37.731 22.3291 37.6677 22.3345 37.3223 22.7197C37.6819 23.1346 37.9572 23.4265 38.2513 23.7571C38.5805 24.1273 38.6303 24.2105 38.4315 24.3371C38.1769 24.499 37.9029 24.6799 37.7309 24.8023C37.4306 25.0155 37.4063 24.9422 37.2647 24.6661C37.123 24.3903 36.9179 23.7912 36.6113 23.2219C36.1537 23.446 36.0648 23.5536 36.1031 23.2188C36.1461 22.8445 36.2686 22.2534 36.3476 22.0215C36.5872 22.1167 36.9501 22.1726 37.3301 22.249Z" fill="#FFF101"/>
<path fill-rule="evenodd" clip-rule="evenodd" d="M36.6148 15.8948L36.2881 15.6554L36.6637 15.528L36.6347 15.1111L36.9661 15.3403L37.2529 15.056L37.2917 15.4724L37.6805 15.5369L37.3967 15.8243L37.5916 16.1867L37.2016 16.1329L37.0579 16.5207L36.8532 16.1625L36.4781 16.2839L36.6148 15.8948" fill="#FFF101"/>
<path fill-rule="evenodd" clip-rule="evenodd" d="M30.2056 21.2641C29.5953 20.6439 28.674 20.3714 27.9707 20.6089L27.951 20.5965C27.7663 19.5609 27.7246 18.5607 27.791 17.5741C27.8167 17.1925 27.7945 16.9132 27.7204 16.4151C27.6897 16.2085 27.6855 16.1796 27.6746 16.0941C27.6527 15.9226 27.6412 15.7773 27.6402 15.6341C27.1001 16.3246 25.9578 16.7875 24.7657 16.8362C23.3555 16.8934 22.4748 17.2689 21.3389 18.0645C20.7078 18.5066 20.3474 18.2435 20.061 17.4025C19.8714 16.8464 19.6401 16.5254 19.0855 15.9345L19.0428 15.8891C18.4619 15.27 18.2094 14.9088 18.0111 14.2792C17.8259 13.6919 18.226 13.2839 18.6068 13.4472C18.6327 13.4583 18.6587 13.4709 18.685 13.4851C18.8077 13.5513 18.9335 13.6491 19.1001 13.8024C19.1571 13.8549 19.3243 14.0159 19.4537 14.1406L19.4537 14.1406C19.5247 14.2089 19.5843 14.2664 19.6082 14.289C19.6274 14.3071 19.6472 14.3247 19.6679 14.3418C19.6387 14.3223 19.6083 14.3095 19.5772 14.303C19.5486 14.2757 19.495 14.2241 19.4328 14.1641C19.3034 14.0395 19.1368 13.879 19.0801 13.8268C18.9153 13.6751 18.7912 13.5787 18.6713 13.514C18.6458 13.5003 18.6205 13.488 18.5954 13.4773C18.2391 13.3245 17.8633 13.7076 18.0403 14.2689C18.2368 14.8926 18.4869 15.2503 19.0647 15.8661L19.1074 15.9116C19.665 16.5056 19.8985 16.8297 20.0901 17.3914C20.3707 18.2155 20.7121 18.4647 21.3221 18.0374C22.4623 17.2388 23.3479 16.8611 24.7647 16.8036C25.9691 16.7544 27.122 16.2798 27.6436 15.578L27.671 15.5882C27.6697 15.7449 27.6811 15.9011 27.7051 16.0897C27.716 16.1749 27.7202 16.2037 27.7509 16.41C27.8253 16.9103 27.8477 17.1917 27.8217 17.5764C27.7559 18.5546 27.7966 19.5461 27.9781 20.5724L27.9616 20.5779L27.9813 20.5904L27.9781 20.5724C28.6904 20.3408 29.6136 20.6173 30.2137 21.2364C30.8197 21.1195 31.4854 20.3093 31.6982 19.5026C31.5931 18.2919 31.2053 17.1971 30.5082 15.8522C30.4007 15.6447 30.1069 15.1002 29.9643 14.836L29.8861 14.6908C29.6639 14.2716 29.5237 13.9762 29.4273 13.7095C29.2277 13.1574 28.4813 12.6907 27.8658 12.9491C27.7821 12.9843 27.7007 13.0123 27.6115 13.0375C27.5543 13.0536 27.4961 13.0681 27.4166 13.0865C26.5972 13.2757 26.1436 13.4379 24.9508 14.0679L24.8502 14.1213C24.6209 14.2437 24.0686 14.5512 23.7248 14.7425C23.5788 14.8238 23.4704 14.8842 23.4404 14.9005C22.9681 15.1571 22.6724 15.2923 22.4589 15.3378C21.7531 15.4881 21.3963 15.4817 21.0673 15.2088C20.9637 15.1229 20.8529 15.0452 20.7309 14.9711C20.6994 14.952 20.6675 14.9333 20.6345 14.9146L20.6442 14.9025L20.64 14.881C20.6764 14.9015 20.7115 14.922 20.746 14.943C20.8693 15.0178 20.9812 15.0963 21.086 15.1833C21.4054 15.4482 21.7555 15.4545 22.4527 15.306C22.6624 15.2613 22.9565 15.1269 23.4262 14.8716C23.4562 14.8554 23.5643 14.7952 23.71 14.7141L23.71 14.7141C24.0537 14.5228 24.6066 14.215 24.8362 14.0924L24.937 14.0388C26.1321 13.4077 26.5881 13.2445 27.4099 13.0548C27.489 13.0365 27.5468 13.0222 27.6034 13.0062C27.6915 12.9813 27.7718 12.9537 27.8544 12.919C28.4874 12.6531 29.2506 13.1303 29.4558 13.698C29.5515 13.9628 29.6912 14.257 29.9127 14.6749L29.9906 14.8195C30.133 15.0835 30.4272 15.6288 30.535 15.8367C31.2339 17.1851 31.623 18.2837 31.7281 19.5055C31.5119 20.329 30.8382 21.149 30.2056 21.2641ZM20.6069 14.8626L20.64 14.881L20.6392 14.8773C20.6285 14.8718 20.6177 14.8669 20.6069 14.8626ZM20.4963 14.8395C20.533 14.8402 20.5699 14.8478 20.6069 14.8626C20.5507 14.8316 20.4911 14.8003 20.4252 14.7671C20.3933 14.7509 20.3223 14.7159 20.2562 14.6834L20.2555 14.6767C20.2295 14.6643 20.2041 14.6538 20.1793 14.6455L20.1196 14.616C19.9266 14.5194 19.7947 14.4427 19.6883 14.3583L19.6883 14.3567C19.6816 14.3514 19.6748 14.3464 19.6679 14.3418L19.6883 14.3583L19.6876 14.3832L19.6776 14.3903C19.6689 14.3834 19.6603 14.3765 19.6518 14.3696L19.652 14.3695C19.6581 14.3735 19.6641 14.378 19.6701 14.3827L19.6708 14.3562L19.652 14.3695C19.6515 14.3692 19.6511 14.3689 19.6507 14.3687C19.6289 14.3507 19.6081 14.3323 19.5879 14.3132L19.5772 14.303C19.38 14.2618 19.1542 14.4734 19.0261 14.8142L19.0488 14.8337L19.6776 14.3903C19.7756 14.4667 19.8942 14.5371 20.0593 14.6214C19.8191 14.6093 19.6174 14.8352 19.3596 15.4137L19.383 15.4334L20.2466 14.7143C20.3117 14.7464 20.3808 14.7805 20.4122 14.7963C20.4414 14.8111 20.4693 14.8254 20.4963 14.8395ZM20.5959 14.893C20.564 14.8754 20.531 14.8576 20.4963 14.8395C20.2225 14.8347 19.962 15.2175 19.8058 15.899L19.8324 15.9134L20.6345 14.9146L20.6067 14.899L20.6075 14.8979C20.6136 14.9006 20.6197 14.9034 20.6257 14.9066L20.6207 14.8814L20.6075 14.8979L20.5959 14.893ZM19.8515 15.8392C20.0268 15.1284 20.3154 14.7817 20.5959 14.893L20.6067 14.899L19.8515 15.8392ZM19.8515 15.8392C19.8461 15.8614 19.8407 15.8839 19.8355 15.9067L19.8089 15.8923L19.8515 15.8392ZM20.2154 14.699L20.2466 14.7143L20.2586 14.7043L20.2562 14.6834L20.2156 14.6634L20.2155 14.6633L20.1793 14.6455C20.138 14.6315 20.0982 14.6234 20.0593 14.6214L20.1067 14.6453L20.1695 14.6763C19.8998 14.5862 19.6943 14.7577 19.4157 15.3648L19.364 15.4079L19.3874 15.4276C19.3969 15.4062 19.4064 15.3853 19.4157 15.3648L20.2154 14.699ZM20.2194 14.6956C20.2025 14.6882 20.1859 14.6818 20.1695 14.6763L20.2029 14.6928L20.2154 14.699L20.2194 14.6956ZM20.2194 14.6956C20.2272 14.699 20.235 14.7026 20.2428 14.7063L20.2397 14.6788L20.2194 14.6956ZM19.0745 14.7767L19.6518 14.3696C19.6515 14.3693 19.6511 14.369 19.6507 14.3687C19.466 14.247 19.2199 14.4308 19.0745 14.7767ZM19.0745 14.7767L19.032 14.8067L19.0548 14.8262C19.0611 14.8094 19.0677 14.7929 19.0745 14.7767Z" fill="black"/>
<path fill-rule="evenodd" clip-rule="evenodd" d="M29.2728 19.4911C29.251 19.9715 29.2586 20.2299 29.3313 20.6605L29.3111 20.6787C29.2879 20.67 29.2579 20.6597 29.2268 20.6489C29.1802 20.6328 29.1311 20.6158 29.098 20.6022C29.0425 20.2246 29.0379 19.9895 29.0581 19.5461L29.0622 19.454C29.0865 18.8843 29.0437 18.5028 28.8315 17.8227C28.5757 17.0018 28.3797 15.8814 28.3859 15.2962L28.5896 15.2549C28.5945 15.8213 28.7898 16.9381 29.0447 17.7555C29.2581 18.4398 29.3014 18.8254 29.2769 19.3989L29.2728 19.4911ZM29.3215 20.648L29.3012 20.6662C29.2997 20.6571 29.2982 20.648 29.2967 20.639C29.3055 20.6422 29.3138 20.6452 29.3215 20.648ZM29.1164 20.5838C29.1555 20.5922 29.2373 20.618 29.2967 20.639C29.2277 20.2217 29.2209 19.9619 29.2424 19.4895L29.2465 19.3974C29.2708 18.8277 29.2279 18.446 29.0158 17.7657C28.7599 16.9453 28.564 15.8252 28.5788 15.2707L28.4057 15.3116C28.4105 15.8775 28.606 16.9947 28.8608 17.8125C29.0742 18.4966 29.1175 18.882 29.093 19.4555L29.0889 19.5477C29.0689 19.989 29.0734 20.2222 29.1164 20.5838Z" fill="black"/>
<path fill-rule="evenodd" clip-rule="evenodd" d="M25.6933 13.6475C25.5214 13.7256 25.5228 14.0023 25.6617 14.4334C25.7729 14.7781 25.9698 15.2112 26.2065 15.6535L26.2346 15.6412L25.7142 13.6581L25.6933 13.6475ZM28.2158 20.0545C28.2384 20.1925 28.249 20.3579 28.2475 20.5261L28.2352 20.5418L28.1827 20.5535C28.1059 20.5709 28.0189 20.5906 27.9512 20.5965C27.7665 19.5609 27.7248 18.5607 27.7912 17.5742C27.8169 17.1925 27.7947 16.9132 27.7206 16.4151C27.6899 16.2085 27.6857 16.1796 27.6748 16.0941C27.6506 15.9042 27.639 15.7464 27.6559 15.5718L28.0084 15.5918C28.0067 15.8858 28.0837 16.5617 28.1647 17.0534C28.2084 17.029 28.2697 17.0223 28.3661 17.0242L28.4055 17.0252C28.4954 17.0278 28.53 17.0269 28.5615 17.018C28.5977 17.0078 28.6098 16.9894 28.6012 16.9514L28.631 16.9435L28.631 16.9438L28.6012 16.9516L28.618 17.021C28.607 17.034 28.5906 17.0435 28.5694 17.0494C28.5338 17.0594 28.4982 17.0604 28.4046 17.0577L28.3655 17.0567C28.2601 17.0546 28.1999 17.0634 28.1628 17.0931L28.1385 17.083C28.0557 16.5876 27.976 15.8928 27.9929 15.608L27.6711 15.5882C27.6697 15.745 27.6812 15.9012 27.7052 16.0898C27.716 16.1749 27.7202 16.2038 27.7509 16.4101C27.8254 16.9104 27.8478 17.1918 27.8218 17.5765C27.7556 18.5604 27.7971 19.5578 27.962 20.5779C28.0242 20.5586 28.1311 20.5317 28.2169 20.5126L28.2168 20.5257L28.229 20.51L28.2169 20.5126C28.2178 20.3508 28.2075 20.1919 28.1971 20.0414C28.2833 20.0195 28.3876 20.0231 28.5215 20.0466C28.5664 20.0545 28.6112 20.0639 28.6742 20.0782C28.8675 20.1219 28.8961 20.1275 28.9529 20.1287C29.0233 20.1301 29.0518 20.1097 29.0483 20.0572C29.0448 20.0012 29.0474 19.8524 29.0531 19.6728C29.0737 19.6599 29.0849 19.6403 29.0858 19.6131C29.0788 19.8177 29.0752 19.9945 29.0789 20.0551C29.0839 20.1304 29.0385 20.1629 28.9523 20.1612C28.8925 20.16 28.8642 20.1544 28.6678 20.11C28.6052 20.0958 28.5608 20.0865 28.5165 20.0787C28.3863 20.0558 28.2856 20.0523 28.2158 20.0545ZM29.0531 19.6728C29.0256 19.6903 28.9811 19.6958 28.922 19.6919C28.8471 19.6868 28.763 19.6702 28.602 19.6321L28.5844 19.628C28.3092 19.5627 28.2107 19.5475 28.1676 19.5758L28.1445 19.5653C28.135 19.5169 28.1268 19.4676 28.1197 19.4173C28.0805 19.1382 28.0782 18.9026 28.0954 18.4426C28.1128 17.9748 28.11 17.8088 28.0764 17.6093C28.1439 17.5897 28.2259 17.5847 28.3401 17.5887C28.3667 17.5896 28.3907 17.5908 28.4336 17.5932C28.5766 17.601 28.6267 17.6015 28.6754 17.5915C28.7332 17.5797 28.7524 17.5549 28.7387 17.5043C28.7218 17.4482 28.6976 17.3524 28.6604 17.1981L28.6561 17.1801C28.6581 17.1885 28.6353 17.0933 28.618 17.021C28.6337 17.0025 28.6385 16.9768 28.631 16.9438C28.6419 16.9883 28.6887 17.1838 28.6859 17.1721L28.6902 17.1901C28.7272 17.3437 28.7513 17.4392 28.7681 17.4949C28.7875 17.5665 28.7551 17.6083 28.6812 17.6235C28.629 17.6342 28.5782 17.6337 28.432 17.6256C28.3893 17.6233 28.3655 17.6221 28.3391 17.6212C28.2701 17.6187 28.2134 17.6197 28.1676 17.6205H28.1676H28.1676H28.1676H28.1676H28.1676C28.1394 17.6209 28.1154 17.6214 28.0953 17.6209C28.1408 17.805 28.1436 17.9724 28.126 18.4439C28.109 18.902 28.1113 19.136 28.1501 19.4125C28.156 19.4552 28.1629 19.4972 28.1706 19.5384C28.2282 19.5164 28.3307 19.5345 28.5911 19.5963L28.6087 19.6004C28.768 19.6381 28.8513 19.6546 28.9239 19.6594C29.0116 19.6653 29.0538 19.6494 29.0552 19.6119L29.0531 19.6728ZM25.6894 13.6857L25.6845 13.6668L25.7053 13.6774C25.6998 13.6799 25.6945 13.6826 25.6894 13.6857ZM26.1707 15.5194C25.9627 15.1202 25.7912 14.7347 25.6906 14.4229C25.5616 14.0228 25.5557 13.7649 25.6894 13.6857L26.1707 15.5194ZM26.1707 15.5194C26.1911 15.5587 26.2119 15.5981 26.233 15.6375L26.2049 15.6499L26.1707 15.5194ZM25.7838 16.0649L25.7823 16.0655L25.7824 16.0656L25.7818 16.0658L25.792 16.1009C25.9372 16.0436 26.0824 15.9763 26.2277 15.8997L26.2161 15.8653L26.2153 15.8657L26.2153 15.8656L26.2137 15.8664L25.7838 16.0649ZM25.7838 16.0649C25.927 16.0083 26.0703 15.942 26.2137 15.8664L26.2153 15.8657L26.2268 15.9L25.7926 16.1005L25.7824 16.0656L25.7838 16.0649ZM23.6222 16.4493C23.5113 16.48 23.4035 16.5136 23.2979 16.5504L23.3059 16.5863L23.3064 16.5861L23.3064 16.5861C23.3065 16.5861 23.3065 16.5861 23.3066 16.5861L23.629 16.4856C23.6291 16.4855 23.6291 16.4855 23.6292 16.4855L23.6292 16.4855L23.6295 16.4854L23.6222 16.4493ZM23.6292 16.4855L23.6219 16.4494L23.2984 16.5502L23.3064 16.5861L23.3066 16.5861C23.4116 16.5495 23.5188 16.5161 23.629 16.4856L23.6292 16.4855Z" fill="black"/>
<path fill-rule="evenodd" clip-rule="evenodd" d="M24.5645 16.1048C25.7391 15.9807 26.8925 15.4215 27.3675 14.6953L27.3952 14.7018L27.4321 14.9573C27.1811 15.3266 26.7586 15.6508 26.2359 15.8753C26.2347 15.8714 26.2572 15.9435 26.2642 15.9652C26.2761 16.0021 26.2869 16.0338 26.2982 16.0639C26.3908 16.3121 26.5001 16.4175 26.6612 16.3409C26.6214 16.3602 26.5806 16.379 26.5387 16.3974C26.4268 16.3834 26.3416 16.2683 26.2698 16.0758C26.2583 16.0451 26.2473 16.013 26.2353 15.9757C26.2283 15.9537 26.2057 15.8816 26.2154 15.8655C26.7418 15.6231 27.1599 15.3023 27.4047 14.9505L27.3714 14.7458C27.3787 14.7351 27.3858 14.7244 27.3929 14.7137L27.3651 14.7072L27.3714 14.7458C26.8781 15.4653 25.7332 16.014 24.5677 16.137C23.4408 16.256 22.5771 16.6078 21.7382 17.1724C21.7032 17.1058 21.6612 17.0665 21.5557 16.9887L21.5553 16.9884C21.5273 16.9677 21.5147 16.9583 21.4994 16.9462C21.0746 16.6131 20.8802 16.1936 20.9085 15.8053C20.9282 15.5339 21.0616 15.3315 21.2153 15.3112C21.2439 15.3274 21.2735 15.3418 21.3054 15.3549L21.3053 15.355C21.1373 15.2877 20.9616 15.4966 20.9389 15.8078C20.9115 16.1846 21.1009 16.5935 21.5176 16.9202C21.5325 16.932 21.545 16.9413 21.5727 16.9617L21.5731 16.962C21.6824 17.0427 21.7269 17.0843 21.743 17.151C22.564 16.578 23.4324 16.2243 24.5645 16.1048ZM21.312 15.3229C21.2794 15.3106 21.2469 15.3071 21.2153 15.3112C21.1875 15.2955 21.1607 15.2782 21.1338 15.2588C21.1084 15.2406 21.0412 15.1874 21.0215 15.1718C21.0183 15.1692 21.0163 15.1677 21.0161 15.1675C20.8676 15.051 20.565 15.5235 20.6028 16.0224C20.6199 16.2482 20.801 16.6129 20.9885 16.8358L20.9743 16.8626C20.664 16.8028 20.517 16.717 20.342 16.4642C20.4321 16.4048 20.5518 16.3644 20.6621 16.3519C20.6656 16.3607 20.6687 16.3682 20.6703 16.3723L20.6707 16.3716L20.6833 16.3498C20.6763 16.3504 20.6693 16.3511 20.6623 16.3519C20.6622 16.3519 20.6622 16.3519 20.6621 16.3519C20.6587 16.3436 20.6549 16.3342 20.6513 16.3255C20.646 16.3124 20.6413 16.3007 20.6394 16.296C20.6179 16.2421 20.602 16.1946 20.5933 16.1492C20.5862 16.1122 20.5839 16.0766 20.5873 16.0399C20.5827 16.0399 20.578 16.0399 20.5734 16.04C20.4238 16.0422 20.2524 16.1003 20.0916 16.2005C20.0686 16.1763 20.0449 16.1516 20.0199 16.1259C19.9769 16.0817 19.8653 15.9697 19.7871 15.8912C19.7486 15.8525 19.7182 15.822 19.7081 15.8118C19.4074 15.5061 19.2368 15.2912 19.1092 15.025C18.9405 14.6728 18.9205 14.352 19.0387 14.1846C19.1175 14.073 19.2422 14.0499 19.3833 14.1164C19.4001 14.1327 19.4167 14.1487 19.4328 14.1641C19.4619 14.1922 19.4892 14.2185 19.5129 14.2413C19.3261 14.0801 19.1567 14.0716 19.0631 14.2041C18.9532 14.3598 18.9724 14.6681 19.1364 15.0104C19.2621 15.2725 19.4307 15.4851 19.7292 15.7884C19.7392 15.7985 19.7694 15.8289 19.8079 15.8675C19.886 15.9459 19.9979 16.0583 20.0411 16.1027C20.0662 16.1285 20.09 16.1532 20.0936 16.1756C20.2361 16.0731 20.4068 16.0134 20.5717 16.0203C20.5345 15.5008 20.8554 15.0011 21.034 15.1413C21.0343 15.1416 21.0367 15.1434 21.0405 15.1464C21.0614 15.163 21.1265 15.2145 21.1509 15.232C21.2025 15.2691 21.2533 15.2984 21.312 15.3229ZM20.6757 16.3831C20.567 16.3937 20.447 16.4326 20.3617 16.4677C20.5272 16.6794 20.6625 16.7639 20.9366 16.822C20.8382 16.6973 20.7439 16.5381 20.6757 16.3831ZM19.5129 14.2413C19.5453 14.2725 19.571 14.2971 19.5857 14.311C19.5612 14.2852 19.5369 14.262 19.5129 14.2413ZM19.5872 14.3125L19.5871 14.3126C19.5866 14.3121 19.5861 14.3115 19.5857 14.311C19.5862 14.3115 19.5867 14.312 19.5872 14.3125ZM19.5304 14.2145C19.4803 14.1715 19.4308 14.1389 19.3833 14.1164C19.2638 14.0014 19.1298 13.8726 19.0801 13.8268C18.9153 13.6751 18.7912 13.5787 18.6713 13.514C18.6458 13.5003 18.6205 13.488 18.5954 13.4773C18.2391 13.3245 17.8633 13.7076 18.0403 14.2689C18.2368 14.8926 18.4869 15.2503 19.0647 15.8661L19.1074 15.9116C19.665 16.5056 19.8985 16.8297 20.0901 17.3914C20.2199 17.7727 20.3583 18.0225 20.5333 18.1513C20.7414 18.3045 20.9977 18.2769 21.3218 18.0376C21.3602 18.0093 21.3869 17.9899 21.4317 17.9575L21.4331 17.9565C21.4632 17.9346 21.4868 17.9172 21.52 17.8923C21.7672 17.7411 22.0699 17.9934 22.0819 18.4033C22.0725 18.4305 22.0619 18.4589 22.0502 18.4886L22.0796 18.4962C22.0821 18.4644 22.0827 18.4334 22.0819 18.4033C22.1634 18.1668 22.1576 18.0171 22.0823 17.8535C22.068 17.8226 22.0513 17.7905 22.0282 17.7491C22.0278 17.7483 22.0273 17.7475 22.0268 17.7466C22.0147 17.725 21.9754 17.6547 21.9839 17.6408C21.9449 17.6628 21.9134 17.6451 21.8912 17.5987C21.876 17.5668 21.8659 17.5286 21.8499 17.4517L21.846 17.433C21.8256 17.3353 21.8126 17.2942 21.7947 17.2815L21.7951 17.2542C22.2691 16.9422 22.748 16.7061 23.3174 16.5514C23.3468 16.8415 23.4209 16.9892 23.573 16.9623C23.6455 16.9452 23.7164 16.9299 23.7872 16.916C23.819 16.9315 23.8559 16.9357 23.8986 16.9282L23.8986 16.9282C23.7925 16.9469 23.6879 16.9686 23.5787 16.9942C23.4001 17.0259 23.3179 16.8622 23.3062 16.5688C22.7658 16.7344 22.2942 16.9658 21.8279 17.2708C21.8458 17.2955 21.8578 17.3396 21.8758 17.426L21.8797 17.4448C21.8951 17.5188 21.9048 17.5555 21.9184 17.584C21.9337 17.616 21.9481 17.6241 21.9898 17.6182C21.9955 17.6284 22.0091 17.6525 22.0226 17.6763C22.0361 17.7001 22.0494 17.7236 22.0545 17.7326C22.0779 17.7747 22.095 17.8075 22.1097 17.8393C22.1978 18.0307 22.1952 18.2054 22.0784 18.5012L22.0489 18.4937C22.0822 18.0538 21.7765 17.7729 21.5364 17.9197C21.5043 17.9438 21.4805 17.9614 21.4502 17.9833L21.4489 17.9843C21.404 18.0168 21.3775 18.0361 21.3392 18.0643C21.0054 18.3107 20.7355 18.3398 20.5156 18.178C20.334 18.0443 20.1929 17.7897 20.061 17.4025C19.8714 16.8464 19.6401 16.5254 19.0855 15.9345L19.0428 15.889C18.4619 15.2699 18.2094 14.9088 18.0111 14.2792C17.8259 13.6918 18.226 13.2839 18.6068 13.4472C18.6327 13.4583 18.6587 13.4709 18.685 13.4851C18.8077 13.5513 18.9335 13.6491 19.1001 13.8023C19.1571 13.8548 19.3243 14.0159 19.4537 14.1406C19.4815 14.1673 19.5076 14.1925 19.5304 14.2145ZM23.8907 16.8966C23.8561 16.9028 23.8216 16.9092 23.7872 16.916C23.6869 16.8671 23.6378 16.7064 23.6223 16.4492C23.9243 16.3757 24.2431 16.3237 24.5809 16.2944C24.9851 16.2593 25.3983 16.1723 25.802 16.0512C25.8961 16.3984 26.0101 16.5962 26.1599 16.5431C26.2955 16.4971 26.4214 16.4489 26.5387 16.3974C26.5787 16.4023 26.622 16.3945 26.6694 16.3726C26.5183 16.4455 26.3525 16.5119 26.1693 16.5741C25.9924 16.6367 25.872 16.4276 25.7918 16.0711C25.4054 16.204 24.9898 16.2916 24.5832 16.3269C24.2469 16.356 23.9295 16.4078 23.6408 16.4634C23.6711 16.7648 23.7422 16.9208 23.8907 16.8966ZM26.6684 16.3374C26.6686 16.3373 26.6687 16.3373 26.6688 16.3372L26.6818 16.3666C26.6776 16.3687 26.6735 16.3707 26.6694 16.3726C26.6734 16.3707 26.6774 16.3687 26.6815 16.3668L26.6684 16.3374ZM26.6684 16.3374C26.6677 16.3377 26.6669 16.3381 26.6661 16.3385C26.6669 16.3381 26.6677 16.3377 26.6684 16.3373L26.6684 16.3374ZM23.8907 16.8966C23.8917 16.8965 23.8927 16.8963 23.8937 16.8961L23.8988 16.9282C23.8987 16.9282 23.8986 16.9282 23.8986 16.9282L23.8935 16.8962C23.8926 16.8963 23.8916 16.8965 23.8907 16.8966ZM19.5304 14.2145C19.5565 14.2367 19.5827 14.2618 19.609 14.2896L19.5879 14.3132C19.5877 14.3129 19.5875 14.3127 19.5872 14.3125L19.6082 14.289C19.5937 14.2752 19.5659 14.2486 19.5304 14.2145ZM21.312 15.3229C21.3134 15.3234 21.3149 15.324 21.3164 15.3246L21.3054 15.3549C21.3054 15.3549 21.3054 15.3549 21.3054 15.3549L21.3163 15.3247C21.3149 15.3241 21.3134 15.3235 21.312 15.3229ZM26.6661 16.3385C26.6645 16.3393 26.6628 16.3401 26.6612 16.3409C26.6628 16.3401 26.6645 16.3393 26.6661 16.3385Z" fill="black"/>
<path fill-rule="evenodd" clip-rule="evenodd" d="M29.9648 21.9225C29.7625 22.7922 30.0003 23.7733 30.5464 24.2996L30.5461 24.3239C29.7918 25.0109 28.9951 25.5487 28.1542 25.9815C27.9071 26.1087 27.6964 26.2513 27.4662 26.4375C27.4092 26.4837 27.3527 26.531 27.2797 26.5932C27.2863 26.5876 27.1407 26.7122 27.1006 26.7462C26.9208 26.8981 26.7868 27.0004 26.6426 27.09C27.4775 27.2399 28.4272 28.0561 29.0629 29.1251C29.8151 30.3895 30.5635 31.01 31.7812 31.6528C32.4581 32.0105 32.4231 32.4723 31.8786 33.1558C31.5161 33.6109 31.372 33.9786 31.1616 34.7997C30.9325 35.6942 30.7729 36.0907 30.349 36.5972C29.9611 37.0607 29.4277 36.8979 29.3705 36.467C29.3502 36.3129 29.362 36.1386 29.404 35.8958C29.4228 35.7869 29.4996 35.414 29.5376 35.2297L29.5376 35.2295L29.5585 35.1277C29.5636 35.1018 29.568 35.0765 29.5717 35.0513C29.5708 35.0864 29.5757 35.1193 29.5856 35.15L29.5677 35.2373L29.5677 35.2374C29.5297 35.4221 29.4532 35.7934 29.4345 35.9016C29.393 36.1412 29.3814 36.3124 29.4012 36.4624C29.4548 36.8656 29.9557 37.0185 30.3263 36.5756C30.7463 36.0738 30.9044 35.6811 31.1323 34.7911C31.3438 33.9658 31.4893 33.5945 31.8555 33.1348C32.389 32.4651 32.4222 32.0276 31.7678 31.6818C30.5455 31.0366 29.7929 30.4126 29.0372 29.1423C28.3949 28.0622 27.4303 27.2423 26.5953 27.1149L26.5899 27.0847C26.7475 26.9905 26.8876 26.8848 27.0817 26.7207C27.1218 26.6868 27.2673 26.5623 27.2607 26.5679C27.3339 26.5054 27.3906 26.458 27.4479 26.4116C27.6796 26.2242 27.892 26.0804 28.1411 25.9522C28.9749 25.5231 29.765 24.9905 30.5133 24.3111L30.5261 24.3235L30.5264 24.2992L30.5133 24.3111C29.9675 23.7735 29.732 22.7888 29.9385 21.929C29.5398 21.4319 28.5442 21.2264 27.7781 21.4345C27.0411 21.9862 26.4275 22.6928 25.8453 23.5947C25.6849 23.843 25.3607 24.412 25.0451 24.9658C24.7172 25.5412 24.3986 26.1002 24.2829 26.2663C24.2465 26.3185 24.2107 26.3676 24.1753 26.4138C23.8234 26.8728 23.8149 27.7904 24.3342 28.2257C24.3585 28.246 24.382 28.2666 24.4049 28.2875C24.4751 28.3516 24.5389 28.4179 24.6139 28.5029C24.6265 28.5173 24.6616 28.5581 24.7024 28.6055C24.7615 28.6743 24.8326 28.757 24.8651 28.7936C24.9777 28.9208 25.09 29.0381 25.2244 29.1661C25.5713 29.4966 26.0408 29.8727 26.7066 30.3392C27.0454 30.5766 28.1109 31.2863 28.1056 31.2826C28.5765 31.6031 28.8433 31.8118 28.9913 31.9895C29.4668 32.5606 29.6404 32.8919 29.5817 33.33C29.5574 33.5114 29.5502 33.6724 29.5572 33.8741L29.5422 33.8712L29.5266 33.8861C29.5189 33.6775 29.526 33.5124 29.551 33.3255C29.608 32.9002 29.4377 32.5752 28.9679 32.0111C28.8226 31.8364 28.5572 31.6288 28.0887 31.31C28.0943 31.3138 27.0285 30.604 26.6894 30.3664C26.0224 29.899 25.5517 29.522 25.2036 29.1903C25.0685 29.0617 24.9556 28.9437 24.8424 28.8159C24.8097 28.7791 24.7383 28.696 24.6791 28.6271L24.679 28.6271L24.6789 28.6269L24.6788 28.6267C24.6383 28.5796 24.6036 28.5393 24.5911 28.5252C24.5168 28.4409 24.4539 28.3754 24.3846 28.3122C24.3619 28.2915 24.3388 28.2713 24.3149 28.2512C23.7807 27.8034 23.7894 26.8653 24.1512 26.3933C24.1863 26.3476 24.2218 26.2989 24.2579 26.247C24.3727 26.0822 24.6898 25.5258 25.0169 24.9519L25.0169 24.9519C25.333 24.3971 25.6585 23.826 25.8196 23.5764C26.4037 22.6715 27.0197 21.9622 27.7651 21.4056C28.5466 21.1922 29.5542 21.4001 29.9648 21.9225ZM29.5282 33.9247L29.5266 33.8861L29.5242 33.8884C29.525 33.9008 29.5263 33.9129 29.5282 33.9247ZM29.5654 34.0395C29.5471 34.005 29.5346 33.9667 29.5282 33.9247C29.5332 34.0374 29.5422 34.1632 29.5549 34.3116L29.557 34.3363L29.5519 34.3403C29.5547 34.3704 29.5588 34.399 29.5644 34.426C29.5882 34.7225 29.5932 34.8761 29.5759 35.0192L29.5738 35.0204C29.5726 35.0309 29.5719 35.0412 29.5717 35.0513C29.5732 35.0406 29.5746 35.0299 29.5759 35.0192L29.5959 35.0078L29.6078 35.0141C29.6065 35.0255 29.6051 35.0368 29.6035 35.0481L29.6024 35.0475C29.6027 35.0399 29.6033 35.0322 29.6042 35.0243L29.5822 35.0369L29.6024 35.0475C29.6023 35.0506 29.6023 35.0536 29.6023 35.0566C29.5985 35.0822 29.5941 35.1079 29.5889 35.1343L29.5856 35.15C29.6511 35.3509 29.9368 35.4518 30.2789 35.3987L30.2835 35.3681L29.6078 35.0141C29.6217 34.8928 29.62 34.7631 29.6048 34.5482C29.7151 34.7741 30.0009 34.8461 30.6027 34.7932L30.6071 34.7619L29.5875 34.3299L29.5857 34.3086C29.5773 34.2097 29.5705 34.1209 29.5654 34.0395ZM29.5592 33.9244C29.5608 33.9613 29.5629 33.9995 29.5654 34.0395C29.6992 34.2918 30.1421 34.3388 30.7764 34.1417L30.7749 34.1101L29.5572 33.8741L29.5585 33.9074L29.5567 33.9071C29.5558 33.9002 29.5552 33.8932 29.5547 33.886L29.5366 33.9032L29.5567 33.9071C29.5574 33.9129 29.5582 33.9187 29.5592 33.9244ZM30.7045 34.1295C30.0388 34.3232 29.6119 34.2337 29.5592 33.9244L29.5585 33.9074L30.7045 34.1295ZM30.7045 34.1295C30.7253 34.1235 30.7464 34.1171 30.7677 34.1105L30.7692 34.1421L30.7045 34.1295ZM29.5906 34.3661L29.5875 34.3299L29.5729 34.3236L29.557 34.3363L29.5644 34.426C29.5736 34.4709 29.5869 34.5115 29.6048 34.5482C29.602 34.5093 29.5988 34.4678 29.5952 34.4229C29.6574 34.7123 29.9013 34.8141 30.5346 34.7662L30.5957 34.792L30.6002 34.7608C30.5779 34.7627 30.556 34.7645 30.5346 34.7662L29.5906 34.3661ZM29.5853 34.3639C29.5879 34.3844 29.5912 34.4041 29.5952 34.4229L29.5906 34.3661L29.5853 34.3639ZM29.5853 34.3639C29.5842 34.3551 29.5833 34.3462 29.5824 34.3371L29.5615 34.3538L29.5853 34.3639ZM30.2242 35.3733L29.6035 35.0481C29.6031 35.0509 29.6027 35.0538 29.6023 35.0566C29.6012 35.2823 29.8727 35.4127 30.2242 35.3733ZM30.2242 35.3733L30.2698 35.3972L30.2744 35.3666C30.2575 35.3692 30.2407 35.3714 30.2242 35.3733Z" fill="black"/>
<path fill-rule="evenodd" clip-rule="evenodd" d="M28.9444 23.6845C29.3948 23.4387 29.582 23.3176 29.9081 23.0263L29.9331 23.0357C29.9376 23.0611 29.9443 23.0944 29.9512 23.129C29.9613 23.1792 29.972 23.2325 29.9775 23.2692C29.6863 23.5175 29.5167 23.6247 29.0969 23.8539C29.0621 23.8729 29.036 23.8873 29.0104 23.9015C28.5699 24.1463 28.2721 24.3869 27.8372 24.9034C27.2938 25.5486 26.4755 26.2884 25.9935 26.5752L25.8579 26.4091C26.3187 26.1218 27.1345 25.3841 27.6756 24.7414C28.1133 24.2217 28.414 23.9787 28.858 23.732C28.8836 23.7178 28.9097 23.7035 28.9444 23.6845ZM29.9032 23.0417L29.9282 23.0511C29.9215 23.0571 29.9148 23.063 29.9082 23.0689C29.9063 23.0592 29.9047 23.05 29.9032 23.0417ZM29.9082 23.0689C29.592 23.3494 29.4017 23.4716 28.9587 23.7134C28.924 23.7323 28.898 23.7466 28.8725 23.7608C28.4317 24.0057 28.1339 24.2463 27.6987 24.763C27.1556 25.4081 26.3374 26.1479 25.8765 26.4114L25.9966 26.5495C26.4572 26.2622 27.2731 25.5246 27.8145 24.8818C28.252 24.3623 28.5527 24.1193 28.9964 23.8727C29.022 23.8584 29.0482 23.844 29.083 23.825C29.5012 23.5968 29.6693 23.4905 29.9536 23.2617C29.9408 23.2217 29.9206 23.1331 29.9082 23.0689Z" fill="black"/>
<path fill-rule="evenodd" clip-rule="evenodd" d="M29.9702 24.3522C30.0719 24.2625 30.2019 24.17 30.3399 24.0874L30.3589 24.0908L30.3952 24.1334L30.3952 24.1335C30.4472 24.1945 30.5072 24.2648 30.546 24.3239C29.7917 25.011 28.995 25.5487 28.1541 25.9815C27.907 26.1087 27.6963 26.2513 27.4662 26.4375C27.4091 26.4837 27.3526 26.531 27.2796 26.5933C27.2862 26.5876 27.1406 26.7122 27.1005 26.7462C26.9051 26.9113 26.7639 27.0178 26.5837 27.1069L26.4238 26.7737C26.6655 26.628 27.1809 26.2185 27.5411 25.8994C27.4977 25.8708 27.4612 25.8158 27.4105 25.7176L27.3821 25.6622C27.3714 25.6416 27.3628 25.6258 27.3546 25.6116C27.3082 25.5315 27.2775 25.5127 27.2402 25.5497L27.289 25.4992C27.3194 25.5068 27.3492 25.54 27.3808 25.5946C27.3893 25.6093 27.3981 25.6256 27.409 25.6466L27.4374 25.702C27.4927 25.8091 27.5299 25.8613 27.5745 25.8812L27.5784 25.9086C27.2163 26.2311 26.6867 26.6526 26.4448 26.7798L26.5896 27.0848C26.7471 26.9906 26.8872 26.8849 27.0814 26.7208C27.1214 26.6869 27.2669 26.5624 27.2604 26.568C27.3336 26.5055 27.3903 26.4581 27.4476 26.4117C27.6792 26.2242 27.8916 26.0805 28.1407 25.9523C28.9794 25.5207 29.7738 24.9844 30.5254 24.3234C30.4782 24.2755 30.4018 24.1901 30.3443 24.1222L30.3551 24.1157L30.336 24.1124L30.3443 24.1222C30.2118 24.2022 30.0869 24.2911 29.9689 24.3758C29.8987 24.2976 29.8456 24.1838 29.7901 24.0144C29.7826 23.9915 29.7657 23.9367 29.7494 23.8838L29.7494 23.8838L29.7494 23.8837C29.7337 23.8331 29.7187 23.7843 29.7129 23.7668C29.6853 23.6832 29.6624 23.631 29.6381 23.6007C29.6128 23.5693 29.5886 23.5646 29.5564 23.5877C29.5119 23.6188 29.3797 23.6961 29.2394 23.7751C29.2184 23.7628 29.1968 23.7623 29.174 23.775L29.1883 23.8038L29.1883 23.8038L29.174 23.775C29.3311 23.6873 29.4908 23.5945 29.5393 23.5607C29.5848 23.5281 29.6264 23.536 29.6615 23.5797C29.6889 23.6139 29.7131 23.6688 29.7419 23.7561C29.7477 23.774 29.763 23.8234 29.7787 23.8743L29.7788 23.8744L29.7788 23.8745C29.795 23.9271 29.8117 23.9813 29.8191 24.0038C29.8732 24.1691 29.9248 24.2795 29.9702 24.3522ZM29.1891 23.8033L29.2394 23.7751C29.2677 23.7919 29.2947 23.8305 29.3214 23.8877C29.3548 23.9595 29.3829 24.0443 29.4331 24.2142C29.4673 24.3298 29.468 24.3321 29.4805 24.3722C29.5301 24.531 29.568 24.616 29.6028 24.6357L29.6058 24.6622C29.4547 24.8047 29.2823 24.9313 29.0718 25.0609C28.9847 25.1145 28.77 25.236 28.6111 25.3259L28.611 25.3259L28.6109 25.326C28.5231 25.3757 28.4524 25.4157 28.4297 25.4293C28.2624 25.5293 28.1467 25.6136 28.0401 25.7027C27.9862 25.646 27.939 25.5678 27.8779 25.444L27.8601 25.4073L27.8601 25.4073L27.86 25.4071C27.8411 25.3682 27.8134 25.311 27.8034 25.2911C27.7764 25.2378 27.7549 25.2004 27.7344 25.173C27.6919 25.116 27.6598 25.1076 27.6231 25.1479C27.5845 25.1928 27.5162 25.2649 27.4015 25.3833L27.3978 25.3871C27.4118 25.3726 27.3419 25.4447 27.289 25.4992C27.2662 25.4934 27.243 25.502 27.2185 25.5267L27.2398 25.5501L27.2396 25.5503L27.2182 25.5269C27.2493 25.4947 27.3975 25.342 27.3761 25.3641L27.3801 25.36C27.4943 25.2421 27.5623 25.1702 27.6007 25.1256C27.6529 25.0684 27.7058 25.0822 27.7585 25.1528C27.7803 25.1821 27.8027 25.2209 27.8304 25.2758C27.8406 25.296 27.8686 25.3538 27.8875 25.3928L27.8876 25.3929L27.8876 25.3929L27.9051 25.429C27.9505 25.5211 27.988 25.5871 28.0162 25.6371C28.0251 25.6527 28.0331 25.6668 28.0401 25.6796C28.1275 25.5881 28.2451 25.5023 28.4146 25.401C28.4376 25.3872 28.509 25.3468 28.5975 25.2967C28.7563 25.2068 28.9699 25.086 29.0564 25.0328C29.2586 24.9084 29.4251 24.7868 29.571 24.6513C29.5327 24.6148 29.4973 24.5298 29.4514 24.3824C29.4388 24.3421 29.4381 24.3397 29.4038 24.2239C29.3541 24.0557 29.3263 23.9718 29.2938 23.902C29.2548 23.8182 29.2206 23.7866 29.1891 23.8033ZM29.1891 23.8033L29.1883 23.8038L29.1883 23.8038L29.1891 23.8033ZM27.2398 25.5501L27.2402 25.5497L27.2398 25.5501L27.2398 25.5501ZM25.991 29.8686C26.1409 29.9872 26.3666 29.8476 26.6497 29.5047C26.8762 29.2305 27.132 28.8333 27.3752 28.3954L27.351 28.3758L25.9893 29.8442L25.991 29.8686ZM26.0242 29.853L26.0112 29.867L26.0095 29.8426C26.0143 29.8464 26.0192 29.8498 26.0242 29.853ZM26.6267 29.4834C26.3639 29.8016 26.1559 29.936 26.0242 29.853L27.2834 28.4951C27.0611 28.8851 26.8315 29.2353 26.6267 29.4834ZM27.2834 28.4951C27.3053 28.4568 27.3271 28.418 27.3488 28.379L27.373 28.3986L27.2834 28.4951ZM27.544 28.2807C27.6705 28.3795 27.7905 28.4827 27.9033 28.5903L27.9232 28.5657L27.5628 28.255L27.544 28.2807ZM27.5438 28.2805L27.5626 28.2548C27.6898 28.3542 27.8105 28.4581 27.9241 28.5664L27.9041 28.5911L27.5438 28.2805ZM29.5737 30.6403C29.5743 30.6409 29.5749 30.6415 29.5755 30.6421L29.5992 30.6171C29.5993 30.6172 29.5994 30.6173 29.5994 30.6174L29.5757 30.6424L29.5737 30.6403ZM29.3201 30.371L29.5737 30.6403C29.4908 30.5571 29.4069 30.4679 29.3201 30.371ZM29.3185 30.3692C29.3191 30.3698 29.3196 30.3704 29.3201 30.371L29.3185 30.3692L29.3185 30.3692ZM29.3429 30.3449L29.3185 30.3692C29.3184 30.3691 29.3183 30.369 29.3182 30.3688L29.3426 30.3446L29.3429 30.3449ZM29.3431 30.3451L29.5992 30.6171L29.5992 30.6171C29.5155 30.5332 29.4308 30.4432 29.3431 30.3451Z" fill="black"/>
<path fill-rule="evenodd" clip-rule="evenodd" d="M26.0221 27.8057L26.0135 27.7771C26.0258 27.7781 26.0382 27.7793 26.0506 27.7807L26.0221 27.8057ZM27.815 27.7163C27.8406 27.7788 27.836 27.8505 27.8051 27.9295C27.777 28.0015 27.7293 28.076 27.6607 28.1628C27.6352 28.1951 27.6099 28.2254 27.5444 28.281C27.0822 27.9192 26.6109 27.6964 26.2013 27.6482L26.0506 27.7807C26.8857 27.8733 27.9068 28.6488 28.5901 29.6561C29.2507 30.6297 29.97 31.2455 30.8518 31.7329C30.8147 31.7986 30.8036 31.8569 30.7928 31.9932L30.7925 31.9967C30.79 32.029 30.7885 32.0459 30.7864 32.0651C30.7263 32.6213 30.4803 33.0093 30.1486 33.1775C29.917 33.2949 29.6849 33.2739 29.5913 33.1435C29.5903 33.1103 29.5873 33.0772 29.582 33.0407C29.6127 33.2266 29.8705 33.2824 30.1353 33.1481C30.4572 32.9849 30.6969 32.6068 30.7559 32.0614C30.7579 32.0425 30.7594 32.0259 30.7619 31.9939L30.7622 31.9904C30.7734 31.8492 30.7851 31.7876 30.8317 31.739C29.952 31.2723 29.2288 30.6532 28.5652 29.675C27.8765 28.6598 26.8425 27.8818 26.011 27.8094L26.0024 27.7807L26.193 27.6195C26.62 27.6646 27.0963 27.8898 27.542 28.2571C27.587 28.2037 27.6119 28.1738 27.6371 28.1419C27.7039 28.0574 27.75 27.9854 27.7767 27.9171C27.8219 27.8014 27.8055 27.7087 27.7123 27.6361C27.7464 27.6617 27.7806 27.6885 27.815 27.7163ZM27.7274 27.6076C27.7697 27.6398 27.7986 27.6762 27.815 27.7163C27.9166 27.7986 28.0199 27.8906 28.1262 27.9929C28.2445 28.1039 28.1399 28.3069 27.9028 28.5672C28.204 28.8771 28.4818 29.2124 28.7124 29.5654C28.9056 29.8609 29.1076 30.1274 29.3181 30.3671C29.5209 30.224 29.6277 30.0987 29.6175 29.9825C29.665 30.0413 29.7131 30.0988 29.7624 30.1556C29.8607 30.2816 29.7768 30.4239 29.5543 30.5952C29.9656 31.0403 30.398 31.3614 30.8901 31.6401L30.9126 31.6268C30.9141 31.6026 30.9401 31.5725 31.0225 31.4927L31.0365 31.479C31.0844 31.4323 31.1109 31.4026 31.1273 31.3738C31.1507 31.3328 31.1477 31.297 31.1122 31.2736C31.1222 31.2833 31.167 31.2002 31.1865 31.1641C31.1885 31.1603 31.1903 31.1571 31.1917 31.1545C31.307 30.9432 31.4194 30.851 31.687 30.8022C31.3575 31.0181 31.3024 31.4221 31.5498 31.5731C31.5858 31.5907 31.6107 31.6032 31.6451 31.6206L31.6462 31.6211C31.7161 31.6565 31.7234 31.6602 31.7677 31.6821C32.1255 31.8598 32.2761 32.0809 32.2548 32.3485C32.237 32.5733 32.102 32.825 31.8551 33.1349C31.4888 33.5946 31.3433 33.9659 31.1319 34.7912C30.9039 35.6812 30.7459 36.0739 30.3259 36.5757C29.9552 37.0186 29.4543 36.8657 29.4008 36.4625C29.381 36.3125 29.3926 36.1413 29.434 35.9017C29.4476 35.8228 29.492 35.6042 29.5298 35.4199C29.5457 35.5828 29.627 35.6858 29.7578 35.7023C29.954 35.727 30.2063 35.5482 30.4099 35.2174C30.5798 34.9414 30.663 34.6815 30.7853 34.1378C30.8461 33.8673 30.8525 33.8395 30.8802 33.729C30.7176 33.6315 30.5843 33.5033 30.5079 33.3673C30.5055 33.3631 30.5032 33.3589 30.501 33.3547C30.5191 33.3511 30.5372 33.3407 30.555 33.3266C30.5702 33.3146 30.585 33.3 30.5993 33.2847C30.6248 33.2574 30.6479 33.229 30.6728 33.195C30.6807 33.1841 30.6994 33.1578 30.7137 33.1375C30.7154 33.135 30.7172 33.1326 30.7188 33.1303C30.7846 33.2254 30.8773 33.3147 30.9709 33.3674C31.0897 33.0806 31.0864 32.9027 30.9805 32.5886L30.9515 32.5889C30.8646 32.8659 30.6648 33.2041 30.4916 33.3397C30.4873 33.3431 30.4831 33.3463 30.4789 33.3493C30.4789 33.3493 30.4789 33.3493 30.4789 33.3493C30.0898 33.6333 29.5521 33.5921 29.5732 33.3978C29.5748 33.3806 29.5765 33.3649 29.5806 33.3301C29.5891 33.2561 29.593 33.1996 29.5913 33.1435C29.571 33.1153 29.5573 33.0819 29.5514 33.0438L29.5817 33.0387C29.5818 33.0394 29.5819 33.04 29.582 33.0407C29.5819 33.04 29.5818 33.0394 29.5817 33.0387L29.5817 33.0387C29.5816 33.0386 29.5816 33.0385 29.5816 33.0385L29.5513 33.0436C29.5653 33.1391 29.5634 33.2102 29.5501 33.3262C29.546 33.3609 29.5442 33.377 29.5426 33.3943C29.5172 33.6281 30.0864 33.6725 30.4926 33.3787C30.5692 33.5333 30.7034 33.6599 30.8587 33.7394C30.8227 33.8315 30.8163 33.8593 30.7554 34.1302C30.6339 34.6704 30.5516 34.9277 30.3841 35.1996C30.1863 35.5211 29.9438 35.6929 29.7614 35.6699C29.6063 35.6504 29.5285 35.4908 29.567 35.239C29.5671 35.2384 29.5672 35.2379 29.5673 35.2373C29.5785 35.1831 29.5863 35.145 29.5884 35.1344L29.5586 35.1269C29.5585 35.1271 29.5584 35.1274 29.5584 35.1277L29.5583 35.1277C29.5583 35.1279 29.5583 35.128 29.5582 35.1282C29.5494 35.1632 29.5425 35.1969 29.5375 35.2293C29.5375 35.2294 29.5375 35.2294 29.5374 35.2295C29.4995 35.4138 29.4226 35.7868 29.4038 35.8957C29.3618 36.1385 29.35 36.3129 29.3704 36.467C29.4276 36.8979 29.961 37.0606 30.3488 36.5972C30.7728 36.0907 30.9324 35.6941 31.1615 34.7997C31.3718 33.9786 31.5159 33.6109 31.8785 33.1558C32.1292 32.8411 32.2668 32.5845 32.2854 32.3512C32.3079 32.0686 32.1491 31.8356 31.7807 31.6526C31.7364 31.6308 31.7292 31.6271 31.6594 31.5918L31.6583 31.5912C31.6238 31.5737 31.5987 31.5612 31.5639 31.5442C31.3236 31.3975 31.4005 30.9767 31.7769 30.7873L31.7683 30.7565C31.4284 30.8027 31.2967 30.897 31.1651 31.1382C31.154 31.1585 31.1223 31.219 31.1039 31.2541C31.0971 31.267 31.0922 31.2764 31.0906 31.2793C31.1152 31.3139 31.1166 31.3297 31.101 31.3569C31.0866 31.3822 31.0614 31.4104 31.0157 31.4551L31.0017 31.4687C30.9286 31.5395 30.8978 31.5723 30.8869 31.6014C30.4045 31.3263 29.9797 31.0096 29.5739 30.5966C29.808 30.44 29.901 30.2822 29.7855 30.1342C29.7118 30.0492 29.6414 29.9636 29.5714 29.8738L29.5478 29.8945C29.5478 29.8945 29.5478 29.8945 29.5478 29.8945L29.5478 29.8945C29.5481 29.8949 29.5483 29.8952 29.5486 29.8955C29.6445 30.0201 29.553 30.1632 29.3203 30.3428C29.131 30.1063 28.9299 29.8411 28.7375 29.5468C28.5056 29.1918 28.2263 28.8546 27.9241 28.5664C28.1757 28.3143 28.2863 28.0997 28.1467 27.9687C28.0027 27.8302 27.8639 27.7101 27.7274 27.6076ZM27.7274 27.6076C27.7253 27.606 27.7232 27.6045 27.7211 27.6029L27.7211 27.6029C27.7232 27.6045 27.7253 27.606 27.7274 27.6076ZM29.5486 29.8955C29.5715 29.9249 29.5944 29.9539 29.6175 29.9825C29.6142 29.9454 29.5991 29.9093 29.5715 29.8739L29.5478 29.8945C29.5481 29.8949 29.5483 29.8952 29.5486 29.8955ZM29.5375 35.2293C29.5266 35.2993 29.5242 35.3632 29.5298 35.4199C29.5437 35.352 29.5567 35.2888 29.567 35.239C29.572 35.2059 29.579 35.1713 29.5882 35.1352L29.5584 35.1277C29.5583 35.1279 29.5583 35.128 29.5582 35.1282C29.556 35.1394 29.5483 35.1766 29.5375 35.2293ZM30.7301 33.1126L30.7313 33.1126C30.7294 33.1152 30.7247 33.1218 30.7188 33.1303C30.7187 33.1301 30.7186 33.13 30.7184 33.1298C30.7143 33.1239 30.7104 33.1179 30.7065 33.112L30.7301 33.1126ZM30.7373 33.1019C30.8299 32.962 30.9129 32.796 30.966 32.6433C31.0552 32.9234 31.0537 33.0898 30.9637 33.3474C30.8924 33.287 30.8008 33.1966 30.7373 33.1019ZM31.687 30.8022C31.7138 30.7973 31.7422 30.7929 31.7723 30.7888L31.7637 30.758C31.7367 30.7716 31.7111 30.7864 31.687 30.8022ZM27.7211 27.6029L27.7036 27.6296C27.7066 27.6317 27.7095 27.6339 27.7123 27.6361C27.7094 27.6339 27.7064 27.6317 27.7035 27.6295L27.721 27.6028C27.721 27.6029 27.7211 27.6029 27.7211 27.6029Z" fill="black"/>
<path fill-rule="evenodd" clip-rule="evenodd" d="M31.8149 30.3561L31.5726 30.0459L31.5458 30.0526L31.4575 30.4571L31.0766 30.4533L31.0649 30.4797L31.3104 30.8051L31.0711 31.1158L31.0832 31.1419L31.4772 31.1445L31.5555 31.536L31.5823 31.5424L31.8295 31.218L32.1714 31.3952L32.1927 31.3767L32.1033 30.9717L32.4485 30.8007L32.4483 30.7715L32.0928 30.5893L32.1849 30.1995L32.1633 30.1814L31.8149 30.3561ZM32.1483 30.2249L31.8173 30.3909L31.7989 30.3866L31.5681 30.091L31.5758 30.0599L31.549 30.0666L31.5681 30.091L31.4728 30.4769L31.1073 30.4851L31.089 30.4594L31.0773 30.4858L31.1073 30.4851L31.3347 30.8048L31.1136 31.1105L31.0835 31.1094L31.0956 31.1355L31.1136 31.1105L31.4923 31.1244L31.5782 31.4975L31.5585 31.522L31.5853 31.5283L31.5782 31.4975L31.824 31.193L32.1568 31.3524L32.1628 31.384L32.1841 31.3656L32.1568 31.3524L32.0815 30.9609L32.4081 30.7859L32.435 30.8008L32.4348 30.7716L32.4081 30.7859L32.0712 30.6005L32.1483 30.2249ZM32.1483 30.2249L32.1765 30.2108L32.1549 30.1926L32.1483 30.2249Z" fill="black"/>
<path fill-rule="evenodd" clip-rule="evenodd" d="M30.6236 21.8144C31.436 21.5648 32.1197 20.856 32.2768 20.0925L32.2969 20.0806C33.2366 20.4291 34.0754 20.891 34.8489 21.4451C35.1698 21.6749 35.3613 21.7673 35.9243 21.9973C36.1925 22.1069 36.3504 22.1799 36.5111 22.2768C36.2164 21.4361 36.4091 20.1572 36.9654 19.0398C37.6236 17.718 37.7569 16.7221 37.6739 15.2834C37.6278 14.4836 38.0228 14.2849 38.8543 14.4424C39.3967 14.5452 39.7838 14.4944 40.5151 14.2898L40.5718 14.274C41.4011 14.0416 41.8116 13.9898 42.434 14.1246C43.0068 14.2484 43.1404 14.8193 42.8164 15.0867C42.6937 15.1882 42.5355 15.2673 42.2913 15.357C42.2145 15.3853 41.9772 15.4655 41.8057 15.5235C41.7217 15.5519 41.6534 15.575 41.6275 15.584C41.6191 15.587 41.6106 15.59 41.6021 15.5932C41.6274 15.5769 41.649 15.5578 41.6669 15.5363L41.7971 15.4923L41.7971 15.4923L41.7971 15.4923C41.9685 15.4343 42.2049 15.3543 42.2814 15.3263C42.5226 15.2376 42.6781 15.1598 42.7976 15.061C43.1007 14.8108 42.9753 14.2747 42.4279 14.1563C41.8114 14.0229 41.4048 14.0741 40.5797 14.3053L40.523 14.3212C39.7877 14.5268 39.3969 14.5782 38.849 14.4743C38.0342 14.3199 37.66 14.5082 37.7046 15.2813C37.7879 16.7254 37.6538 17.727 36.9926 19.0549C36.4305 20.184 36.2422 21.4784 36.5554 22.3079L36.5333 22.3279C36.3608 22.2201 36.201 22.1451 35.9133 22.0275C35.3482 21.7966 35.1552 21.7036 34.8317 21.4719C34.0648 20.9225 33.2336 20.464 32.3031 20.1173L32.3069 20.0993L32.2868 20.1112L32.3031 20.1173C32.1366 20.8861 31.4487 21.5946 30.6424 21.8354C30.435 22.4494 30.7646 23.4646 31.3181 24.0636C31.6171 24.2096 31.9278 24.3308 32.2513 24.4297C33.2482 24.7345 34.0646 24.8009 35.6868 24.8049C36.5196 24.807 36.8446 24.8189 37.1919 24.8775C37.7434 24.9705 38.4981 24.5196 38.5945 23.826C38.6104 23.7108 38.6331 23.6053 38.6663 23.4844C38.6869 23.4097 38.7772 23.112 38.7685 23.1413C38.8143 22.9869 38.8503 22.8519 38.8853 22.6961C38.9992 22.189 39.0826 21.5342 39.1369 20.5937C39.1578 20.2312 39.1634 20.0875 39.1906 19.3135C39.2247 18.3441 39.2562 17.9503 39.3443 17.6735C39.5742 16.9513 39.758 16.627 40.1456 16.4619C40.3008 16.3958 40.4446 16.3163 40.6026 16.2122L40.6076 16.2273L40.6274 16.2341C40.4646 16.342 40.3169 16.424 40.157 16.4921C39.7808 16.6524 39.6004 16.9705 39.3733 17.684C39.2866 17.9564 39.2551 18.3496 39.2212 19.3148C39.194 20.0891 39.1883 20.2328 39.1674 20.5958C39.113 21.538 39.0294 22.1946 38.9151 22.7036C38.8799 22.8603 38.8437 22.996 38.7977 23.1511C38.8062 23.1223 38.7161 23.4194 38.6957 23.4936C38.6629 23.6131 38.6405 23.7172 38.6247 23.8308C38.5256 24.5442 37.754 25.0053 37.187 24.9097C36.8419 24.8514 36.5177 24.8396 35.6867 24.8375C34.0617 24.8335 33.2432 24.7669 32.2428 24.461C31.9177 24.3616 31.6056 24.2398 31.3006 24.0898C30.7351 23.4794 30.4015 22.4518 30.6236 21.8144ZM40.6588 16.2131L40.6274 16.2341L40.6307 16.2353C40.6405 16.2282 40.6499 16.2208 40.6588 16.2131ZM40.7331 16.1229C40.7142 16.1564 40.6894 16.1866 40.6588 16.2131C40.7099 16.1786 40.7626 16.1416 40.8177 16.1016C40.8486 16.0792 40.9167 16.0286 40.9806 15.9813L40.9864 15.9839C41.0098 15.9662 41.0311 15.948 41.0505 15.9293L41.1148 15.8817C41.2261 15.8004 41.3118 15.7424 41.3948 15.694C41.4436 15.6656 41.4905 15.6411 41.5363 15.6205L41.5421 15.6238C41.564 15.6151 41.584 15.6049 41.6021 15.5932C41.5804 15.6014 41.5585 15.6105 41.5363 15.6205L41.5177 15.6099L41.5166 15.5941C41.5278 15.5889 41.539 15.584 41.5501 15.5793L41.5504 15.5839C41.5431 15.5875 41.5355 15.5908 41.5277 15.5939L41.5521 15.6078L41.5504 15.5839C41.561 15.5787 41.5711 15.5731 41.5805 15.5669C41.5931 15.562 41.6055 15.5574 41.618 15.5531L41.6669 15.5363C41.8037 15.3726 41.7322 15.0683 41.4928 14.7878L41.4615 14.7989L41.5166 15.5941C41.4723 15.6144 41.427 15.6381 41.38 15.6655C41.3043 15.7097 41.2266 15.7616 41.13 15.8313C41.2594 15.6171 41.1754 15.319 40.8315 14.7938L40.8037 14.8054L40.9601 15.9568C40.8972 16.0035 40.8307 16.0527 40.8004 16.0747C40.7776 16.0913 40.7552 16.1073 40.7331 16.1229ZM40.6405 16.1869C40.6708 16.1665 40.7016 16.1452 40.7331 16.1229C40.8737 15.8742 40.6909 15.444 40.2116 14.9603L40.1866 14.9775L40.6026 16.2122L40.6292 16.1945L40.6297 16.196C40.6245 16.2003 40.6191 16.2044 40.6135 16.2084L40.6366 16.2164L40.6297 16.196L40.6405 16.1869ZM40.2376 15.0322C40.7306 15.5473 40.8702 15.9848 40.6405 16.1869L40.6292 16.1945L40.2376 15.0322ZM40.2376 15.0322C40.2223 15.0161 40.2066 15 40.1905 14.9838L40.2155 14.9666L40.2376 15.0322ZM40.9883 15.9358L40.9601 15.9568L40.9623 15.973L40.9806 15.9813L41.015 15.9557L41.0505 15.9293C41.0825 15.8984 41.109 15.866 41.13 15.8313L41.0975 15.8549L41.0309 15.9042C41.238 15.7022 41.1999 15.4277 40.8435 14.8698L40.8341 14.8007L40.8063 14.8123C40.8191 14.8318 40.8315 14.8509 40.8435 14.8698L40.9883 15.9358ZM40.989 15.9414C41.0039 15.9292 41.0179 15.9169 41.0309 15.9042L40.9977 15.9289L40.9972 15.9292L40.9883 15.9358L40.989 15.9414ZM40.989 15.9414C40.9824 15.9468 40.9756 15.9522 40.9686 15.9575L40.9927 15.9684L40.989 15.9414ZM41.4996 14.8507L41.5501 15.5793C41.5603 15.575 41.5704 15.5709 41.5805 15.5669C41.7681 15.4453 41.7291 15.1428 41.4996 14.8507ZM41.4996 14.8507L41.4959 14.7968L41.4646 14.8079C41.4767 14.8221 41.4884 14.8364 41.4996 14.8507Z" fill="black"/>
<path fill-rule="evenodd" clip-rule="evenodd" d="M31.785 21.4092C31.7119 21.3767 31.6354 21.3451 31.5546 21.3142L31.5498 21.2865C31.5695 21.2687 31.5945 21.245 31.6202 21.2205C31.6555 21.1869 31.6922 21.152 31.7187 21.1291C31.7589 21.1455 31.7979 21.1622 31.8361 21.1791C32.1331 21.3108 32.263 21.3901 32.656 21.6571C33.1273 21.9772 33.4532 22.1271 34.1256 22.2749C34.9252 22.4509 35.9396 22.8312 36.4146 23.1293L36.3467 23.3369C35.8811 23.0581 34.8699 22.679 34.0737 22.504C33.3973 22.3553 33.0681 22.2038 32.5936 21.8816C32.2043 21.6172 32.0768 21.5392 31.785 21.4092ZM31.5698 21.3112L31.5651 21.2836C31.5733 21.2867 31.5814 21.2899 31.5896 21.293C31.5826 21.2995 31.576 21.3056 31.5698 21.3112ZM31.7249 21.1549C31.6986 21.1867 31.6367 21.2489 31.5896 21.293C31.6619 21.3211 31.7309 21.3498 31.797 21.3792C32.0909 21.5101 32.2196 21.5888 32.6103 21.8542C33.0817 22.1744 33.4075 22.3243 34.08 22.4722C34.8792 22.6477 35.8933 23.028 36.3394 23.3189L36.3922 23.1396C35.9275 22.8612 34.9161 22.482 34.1194 22.3067C33.4431 22.158 33.1138 22.0065 32.6395 21.6844C32.2479 21.4184 32.1192 21.3398 31.8243 21.209C31.8222 21.2081 31.8201 21.2072 31.8181 21.2063C31.7822 21.1904 31.7464 21.1745 31.7249 21.1549Z" fill="black"/>
<path fill-rule="evenodd" clip-rule="evenodd" d="M37.9605 17.8435C37.9606 17.8433 37.9606 17.8432 37.9606 17.843L37.9267 17.8348L37.8241 18.1756L37.8578 18.1847C37.8579 18.1845 37.8579 18.1844 37.858 18.1842L37.8581 18.1843L37.8593 18.1802C37.8978 18.0637 37.931 17.9536 37.9596 17.8471L37.9606 17.8435L37.9605 17.8435ZM37.9605 17.8435L37.9267 17.8352C37.8977 17.9437 37.8638 18.0561 37.8244 18.1751L37.858 18.1842C37.8584 18.1829 37.8589 18.1815 37.8593 18.1802L37.9596 17.8471C37.9599 17.8459 37.9602 17.8447 37.9605 17.8435ZM32.6081 20.5944C32.4838 20.5456 32.3431 20.4726 32.2067 20.3875L32.2 20.3684L32.2169 20.3134C32.2409 20.2351 32.2684 20.1453 32.2972 20.0806C33.2369 20.429 34.0757 20.8909 34.8492 21.4451C35.1701 21.6749 35.3616 21.7672 35.9246 21.9972C36.2138 22.1154 36.3747 22.191 36.5545 22.3222L36.362 22.6355C36.1217 22.4865 35.5283 22.2183 35.0882 22.0482C35.0865 22.0941 35.0664 22.1468 35.0293 22.2154C35.0209 22.231 35.012 22.2468 34.9996 22.2682C34.9418 22.3681 34.9304 22.3894 34.9203 22.4243C34.9083 22.4659 34.9169 22.4875 34.9537 22.4991L34.9452 22.5303L34.9449 22.5302L34.9533 22.499L34.8881 22.4796C34.8826 22.4616 34.8837 22.4398 34.8909 22.4148C34.9022 22.376 34.9136 22.3546 34.9733 22.2512C34.9856 22.2301 34.9944 22.2145 35.0026 22.1993C35.0436 22.1234 35.0618 22.0695 35.0568 22.0267L35.0772 22.0094C35.5208 22.1796 36.1312 22.4548 36.3564 22.6132L36.5334 22.328C36.3609 22.2202 36.2012 22.1451 35.9135 22.0276C35.3483 21.7967 35.1553 21.7037 34.8319 21.472C34.0605 20.9194 33.224 20.4588 32.3069 20.0998C32.2915 20.1667 32.2599 20.279 32.2329 20.3662L32.2222 20.3595L32.229 20.3787L32.2329 20.3662C32.3645 20.4475 32.4997 20.5176 32.6281 20.5838C32.6235 20.6003 32.6178 20.6171 32.611 20.6342C32.5722 20.7321 32.5053 20.8292 32.3944 20.9617L32.3409 21.0247L32.3408 21.0248L32.3406 21.025L32.3406 21.0251C32.3144 21.0558 32.2871 21.0879 32.2769 21.1001C32.2358 21.1496 32.2078 21.1863 32.1878 21.2184C32.1423 21.2912 32.1421 21.3315 32.1899 21.3561C32.2375 21.3814 32.3642 21.4623 32.5015 21.553C32.5019 21.5773 32.5115 21.5968 32.5315 21.6112C32.3783 21.5093 32.2278 21.4126 32.1764 21.3853C32.1076 21.3499 32.108 21.2874 32.1622 21.2005C32.1832 21.1668 32.212 21.1291 32.254 21.0786C32.2643 21.0662 32.2919 21.0338 32.3182 21.0028L32.3184 21.0027L32.3184 21.0026L32.3715 20.9401C32.4803 20.8101 32.5457 20.7153 32.5828 20.6216L32.5838 20.6191C32.5897 20.604 32.5951 20.5902 32.6081 20.5944ZM32.534 21.6128L32.5503 21.5854L32.5015 21.553C32.501 21.5197 32.5179 21.4773 32.5493 21.4267C32.5897 21.3615 32.646 21.2915 32.7531 21.1679L32.7669 21.1521C32.9649 20.924 33.0253 20.8436 33.0237 20.7891L33.0439 20.7732C33.2915 20.86 33.5229 20.9854 33.8232 21.1814L33.834 21.1885L33.834 21.1886C33.8944 21.2288 34.1896 21.4252 34.2737 21.4774C34.4318 21.5753 34.555 21.6368 34.6778 21.6891C34.6644 21.7432 34.6393 21.8025 34.6022 21.8715C34.5833 21.9066 34.5624 21.9426 34.5339 21.9894L34.5325 21.9918C34.4398 22.1443 34.4214 22.1747 34.4079 22.2071C34.4045 22.2152 34.4014 22.2234 34.3976 22.2336L34.3971 22.2349C34.3721 22.3019 34.3814 22.3353 34.4325 22.3488C34.4889 22.3618 34.5824 22.3885 34.7387 22.435L34.7507 22.4386L34.8571 22.4704L34.8881 22.4796C34.8952 22.5028 34.9132 22.5199 34.9431 22.5297L34.8488 22.5017L34.7424 22.4699L34.7305 22.4663C34.5749 22.4199 34.4816 22.3934 34.4256 22.3804C34.353 22.3612 34.3376 22.3061 34.3687 22.223L34.3695 22.2208L34.3695 22.2208L34.3695 22.2208L34.3695 22.2208L34.3695 22.2208C34.3736 22.2099 34.3768 22.2012 34.3804 22.1926C34.3943 22.1593 34.4133 22.1281 34.506 21.9754L34.506 21.9754L34.5082 21.9718C34.5364 21.9254 34.557 21.89 34.5756 21.8554C34.5884 21.8315 34.5998 21.8089 34.6101 21.7882L34.6101 21.7882C34.6286 21.7512 34.644 21.7206 34.659 21.7006C34.5439 21.6672 34.4185 21.6047 34.2583 21.5054C34.1733 21.4527 33.8751 21.2542 33.817 21.2155L33.817 21.2155L33.8072 21.209C33.5163 21.0192 33.291 20.8962 33.0529 20.8107C33.0424 20.8747 32.9771 20.9581 32.7895 21.174L32.7758 21.1899C32.6698 21.3121 32.6142 21.3813 32.575 21.4445C32.5282 21.52 32.5208 21.5656 32.5504 21.5854L32.5341 21.6129L32.534 21.6128ZM32.534 21.6128L32.5315 21.6112L32.534 21.6129L32.534 21.6128ZM34.9431 22.5297L34.9449 22.5302L34.9449 22.5302L34.9431 22.5297ZM39.1096 21.4846C39.1317 21.288 38.9047 21.1509 38.4827 21.0628C38.1452 20.9924 37.6926 20.9564 37.2125 20.9523L37.2086 20.9843L39.0905 21.4984L39.1096 21.4846ZM39.0805 21.4621L39.0984 21.467L39.0793 21.4808C39.08 21.4745 39.0804 21.4682 39.0805 21.4621ZM37.3403 20.9866C37.7706 20.9955 38.1717 21.0309 38.4769 21.0946C38.8687 21.1764 39.0826 21.2999 39.0805 21.4621L37.3403 20.9866ZM37.3403 20.9866C37.2979 20.9858 37.2553 20.9851 37.2125 20.9848L37.2164 20.9528L37.3403 20.9866ZM37.1228 20.3725L37.1233 20.3702L37.1232 20.3701L37.1233 20.3694L37.0888 20.3634C37.0526 20.5211 37.0245 20.6836 37.004 20.8505L37.0388 20.8549L37.0389 20.8542L37.039 20.8542L37.0393 20.8516L37.1228 20.3725ZM37.1228 20.3725C37.0872 20.5276 37.0596 20.6875 37.0393 20.8516L37.0389 20.8542L37.0042 20.8498L37.0888 20.3642L37.1232 20.3701L37.1228 20.3725Z" fill="black"/>
<path fill-rule="evenodd" clip-rule="evenodd" d="M37.6645 19.2209C37.1784 20.3601 37.059 21.6974 37.4155 22.496L37.3963 22.5182L37.1691 22.4244C36.9927 22.0098 36.9388 21.4606 37.0163 20.8683L36.9387 20.8514C36.8749 20.8379 36.8248 20.8291 36.7761 20.8238C36.5627 20.8004 36.4406 20.854 36.4232 21.0231C36.4272 20.9783 36.432 20.9327 36.4378 20.8863C36.4986 20.7997 36.6161 20.7735 36.7792 20.7914C36.8291 20.7968 36.8801 20.8058 36.9448 20.8195C36.9625 20.8233 37.0178 20.8354 37.0346 20.8541C36.9699 21.4588 37.0232 22.0023 37.1884 22.4024L37.3723 22.4741C37.3773 22.4862 37.3825 22.4981 37.3878 22.5099L37.4069 22.4877L37.3723 22.4741C37.0304 21.6621 37.1542 20.3378 37.6366 19.2075C38.1027 18.1147 38.2467 17.1469 38.2042 16.0953C38.2752 16.0966 38.3297 16.0775 38.4411 16.0221L38.4465 16.0195C38.477 16.0042 38.4913 15.9973 38.5088 15.9893C38.9937 15.7664 39.434 15.7979 39.7374 16.018C39.9482 16.1709 40.0471 16.3928 39.9889 16.5438C39.9631 16.5606 39.9403 16.5788 39.909 16.6054C40.0453 16.4843 39.962 16.2204 39.72 16.0449C39.4256 15.8313 38.9965 15.8006 38.521 16.0192C38.5038 16.027 38.4898 16.0339 38.4595 16.0489L38.4542 16.0516C38.3386 16.109 38.2808 16.1293 38.2192 16.1106C38.2776 17.15 38.1328 18.1231 37.6645 19.2209ZM39.9071 16.6071L39.9264 16.6323C39.9553 16.6073 39.976 16.5773 39.9889 16.5438C40.0305 16.5166 40.0798 16.4934 40.1848 16.4452L40.2052 16.4356C40.3746 16.3574 40.1396 15.844 39.7128 15.6292C39.7128 15.6292 39.7127 15.6292 39.7127 15.6292C39.7095 15.6276 39.7061 15.6259 39.7028 15.6243C39.5065 15.5314 39.1266 15.5166 38.8544 15.5759L38.8396 15.5494C39.0439 15.2951 39.1875 15.2033 39.4816 15.1689C39.4853 15.2812 39.4585 15.411 39.4136 15.5187L39.3928 15.516L39.3933 15.517L39.4047 15.5391C39.4077 15.5326 39.4106 15.5259 39.4134 15.5192C39.4134 15.519 39.4135 15.5188 39.4136 15.5187L39.4246 15.5201C39.5125 15.5307 39.5702 15.5403 39.6195 15.559C39.6499 15.5705 39.677 15.5855 39.7061 15.6063C39.7084 15.6021 39.7107 15.5979 39.7129 15.5936C39.786 15.4553 39.8242 15.269 39.8226 15.0712C39.9037 15.048 39.9831 15.0238 40.0965 14.9881C40.4576 14.8744 40.5195 14.8558 40.6731 14.82C40.8921 14.7689 41.0846 14.7476 41.2751 14.7584C41.6475 14.7797 41.9199 14.9217 41.9978 15.1139C42.0498 15.2419 42.0064 15.3678 41.8816 15.4638C41.8525 15.4736 41.8242 15.4832 41.7974 15.4923C41.7687 15.502 41.7418 15.5111 41.7178 15.5192C41.9406 15.4285 42.031 15.2781 41.9696 15.1268C41.8972 14.9481 41.6354 14.8117 41.2734 14.791C41.086 14.7802 40.8962 14.8013 40.6797 14.8518C40.5271 14.8873 40.4654 14.9058 40.1053 15.0193C39.9916 15.0551 39.912 15.0794 39.8419 15.0857C39.8545 15.2679 39.818 15.4541 39.7299 15.6019C40.1733 15.8275 40.4214 16.3713 40.2176 16.4654L40.1969 16.475C40.0285 16.5524 40.0068 16.5639 39.9263 16.6324L39.907 16.6072C39.907 16.6072 39.9071 16.6071 39.9071 16.6071ZM41.6279 15.584C41.6276 15.5841 41.6274 15.5841 41.6271 15.5842L41.6183 15.5531C41.6355 15.5471 41.6712 15.535 41.7178 15.5192C41.6874 15.5316 41.6545 15.5429 41.6191 15.5529L41.6279 15.584ZM41.6285 15.5838C41.6283 15.5839 41.6281 15.584 41.6279 15.584L41.6279 15.584C41.6281 15.5839 41.6283 15.5839 41.6285 15.5838ZM41.7246 15.5511C41.7862 15.5262 41.8387 15.4968 41.8816 15.4638C42.0388 15.4106 42.2172 15.35 42.2817 15.3263C42.523 15.2376 42.6784 15.1598 42.7979 15.061C43.1011 14.8108 42.9756 14.2747 42.4282 14.1563C41.8117 14.0229 41.4051 14.0741 40.5801 14.3053L40.5233 14.3212C39.788 14.5268 39.3972 14.5782 38.8493 14.4743C38.4723 14.4029 38.199 14.4049 38.0062 14.501C37.7768 14.6152 37.6713 14.864 37.7049 15.2809C37.7063 15.2981 37.7072 15.3092 37.708 15.3202C37.7096 15.3402 37.711 15.3602 37.7151 15.4163L37.7156 15.4231C37.7185 15.4621 37.7209 15.4924 37.7246 15.5352C37.7246 15.8375 37.3671 15.9889 37.0261 15.7951C37.0084 15.7728 36.9904 15.7489 36.972 15.7232L36.951 15.7464C36.9759 15.7646 37.0009 15.7808 37.0261 15.7951C37.1268 15.9218 37.2168 15.9958 37.3109 16.0342C37.3991 16.0703 37.4661 16.0756 37.6523 16.0719C37.6823 16.0713 37.6957 16.0711 37.6983 16.0865C37.6998 16.0402 37.7295 16.02 37.7778 16.0224C37.8111 16.0241 37.8479 16.034 37.9167 16.0569L37.9257 16.06C38.0282 16.0943 38.0666 16.1031 38.0869 16.0925L38.109 16.1066C38.1273 16.6962 38.0808 17.254 37.9225 17.8539C37.6705 17.7358 37.5129 17.7299 37.4587 17.883C37.4366 17.9575 37.4137 18.0302 37.3896 18.1023C37.361 18.1237 37.3391 18.1556 37.3239 18.1986L37.3239 18.1986L37.3527 18.21C37.3653 18.1741 37.3776 18.1383 37.3896 18.1023C37.4796 18.0349 37.6354 18.0702 37.8538 18.1846C37.7631 18.4976 37.6462 18.8162 37.5012 19.1411C37.3277 19.5287 37.1925 19.9509 37.0896 20.3825C36.7586 20.2951 36.5398 20.3007 36.5081 20.4648C36.4777 20.6132 36.4542 20.7531 36.4378 20.8863C36.4133 20.9211 36.398 20.9656 36.3925 21.0209C36.3922 21.0241 36.392 21.0272 36.3917 21.0304C36.3919 21.0272 36.3922 21.0241 36.3925 21.0209C36.4081 20.8457 36.4368 20.6595 36.478 20.4582M36.3917 21.0304C36.3917 21.0307 36.3916 21.031 36.3916 21.0313L36.3916 21.0313C36.3916 21.031 36.3917 21.0307 36.3917 21.0304ZM38.079 16.1288C38.0497 16.1332 38.0074 16.1215 37.9165 16.091L37.9074 16.088C37.8414 16.0659 37.806 16.0565 37.7763 16.055C37.7433 16.0533 37.7298 16.0625 37.7138 16.1034L37.6528 16.1044C37.4627 16.1082 37.393 16.1027 37.2998 16.0646C37.1833 16.017 37.074 15.9189 36.9475 15.743L36.9684 15.7198C37.3114 15.9703 37.6939 15.8305 37.6939 15.5368C37.6903 15.4953 37.6879 15.4648 37.685 15.4256L37.6845 15.4189C37.6804 15.3628 37.679 15.3429 37.6774 15.3229C37.6766 15.3119 37.6757 15.3009 37.6743 15.2838C37.6397 14.8544 37.7508 14.5923 37.9931 14.4716C38.1932 14.372 38.4719 14.3699 38.8547 14.4424C39.3971 14.5452 39.7842 14.4944 40.5154 14.2898L40.5722 14.274C41.4015 14.0416 41.812 13.9898 42.4343 14.1246C43.0072 14.2484 43.1408 14.8193 42.8168 15.0867C42.694 15.1882 42.5359 15.2673 42.2917 15.357C42.2148 15.3853 41.9776 15.4655 41.8061 15.5235C41.7766 15.5335 41.7491 15.5428 41.7246 15.5511C41.6799 15.5662 41.6455 15.5779 41.6285 15.5838M39.3811 15.5159C39.4269 15.4106 39.4551 15.2813 39.4688 15.1856C39.2131 15.2317 39.0764 15.3133 38.8916 15.5354C39.0432 15.5077 39.2204 15.5009 39.3811 15.5159ZM39.9071 16.6071L39.9071 16.607C39.9077 16.6065 39.9084 16.606 39.909 16.6054C39.9084 16.606 39.9077 16.6065 39.9071 16.6071ZM36.3916 21.0313L36.4222 21.034C36.4225 21.0303 36.4228 21.0267 36.4232 21.0231C36.4228 21.0268 36.4225 21.0305 36.4222 21.0342L36.3916 21.0314C36.3916 21.0314 36.3916 21.0313 36.3916 21.0313Z" fill="black"/>
</g>
</svg>
