<svg fill="none" height="53" viewBox="0 0 61 53" width="61" xmlns="http://www.w3.org/2000/svg" xmlns:xlink="http://www.w3.org/1999/xlink"><mask id="a" height="43" maskUnits="userSpaceOnUse" width="59" x="1" y="3"><rect fill="#fff" height="42.5" rx="4.24286" width="59" x="1" y="3"/></mask><rect fill="#d01129" height="42.5" rx="4.24286" width="59" x="1" y="3"/><g clip-rule="evenodd" fill-rule="evenodd" mask="url(#a)"><path d="m30.2646 24.3368c1.3927 0 2.5217-1.1954 2.5217-2.6698 0-1.4747-1.129-2.6701-2.5217-2.6701s-2.5214 1.1954-2.5214 2.6701c0 1.4744 1.1287 2.6698 2.5214 2.6698" fill="#fff101"/><path d="m27.9663 20.5935c.7142-.2413 1.6407.0395 2.2502.6589.6471-.1248 1.296-.9852 1.497-1.7512-.2209-2.5456-1.7935-4.4741-2.2718-5.7974-.1512-.4183-.8523-1.0759-1.5814-.7697-.5995.2519-.9027.0559-2.9162 1.1193-1.0888.575-2.0052 1.1656-2.4881 1.2685-.4831.1029-.9928.1947-1.3792-.1258-.5315-.4409-1.1275-.5628-1.4786-.895-.4301-.4071-.706-.7143-.9969-.8388-.2909-.1248-.7834.1523-.5754.8118.4691 1.4894 1.575 1.7307 2.0498 3.1229.2241.6581.5428 1.1528 1.255.654.7121-.4988 1.7187-1.1614 3.4347-1.2311 1.1523-.047 2.3432-.4957 2.8904-1.2318-.0054.6368.2067 1.1588.1507 1.9872-.0557.8287-.0469 1.8593.1598 3.0182" fill="#fff"/><path d="m29.3161 20.6634c-.2116-1.2532.1721-1.4338-.286-2.9027-.2754-.8833-.4514-1.9904-.4558-2.5056l-.1842.0567c.0045.5152.1807 1.6225.4559 2.5058.4431 1.4203.0987 1.6361.2671 2.7821.0521.0112.1613.0481.203.0637" fill="#fff101"/><path d="m28.2323 20.5259c.0015-.1594-.0081-.3257-.0314-.4687.3238-.0824.8783.2345.8629-.001-.0047-.0746.0024-.3159.0068-.4438-.0071.1999-.7782-.1375-.911-.0504-.1426-.7291.0341-1.4793-.079-1.937.2575-.0746.7308.0881.6729-.1256-.0329-.1094-.0958-.3816-.1373-.5518.0405.1783-.3353.0306-.4625.1325-.066-.3953-.1625-1.1455-.1605-1.4884l-.3373-.0036c-.0054.6368.2067 1.1588.1507 1.9872-.0557.8287-.0469 1.8593.1598 3.0182.0739-.0229.1957-.0523.2659-.0676" fill="#fff101"/><path d="m27.3803 14.7045c-.5027.7687-1.7037 1.2992-2.814 1.4164-1.2997.1373-2.1722.5953-2.8146 1.0437-.0552-.1053-.1549-.1619-.243-.2313-.94-.7372-.5536-1.7362-.1977-1.5935-.1343-.0551-.2123-.1294-.2857-.1853-.1242-.0975-.4827.2761-.4377.8692.0191.2527.2234.6254.3896.823-.3035-.0585-.4488-.1406-.627-.3686.1001-.066.2298-.1035.3343-.112-.0356-.0905-.0852-.1908-.0969-.3424-.1486-.0013-.3297.0536-.4851.1654-.3729-.3933-.7569-.7071-.9795-1.1713-.3563-.7437.0061-1.2132.4752-.7167-.4301-.407-.706-.7143-.9969-.8388-.2909-.1248-.7834.1523-.5754.8118.4691 1.4894 1.575 1.7307 2.0498 3.1229.2241.6582.5546 1.171 1.255.654.0923-.0681.1168-.0842.1971-.1445.2222-.136.5742.0922.5366.5885.18-.4557.0651-.5953-.0876-.8685-.1129.0637-.1038-.3093-.1736-.3584.3997-.2631.8858-.5269 1.499-.7149.0226.2228.0805.4593.2742.425.1039-.0244.2092-.0465.3199-.066-.1937.0343-.2482-.2246-.2705-.4471.2906-.0707.6083-.1242.9564-.1544.4011-.0348.8158-.1211 1.2051-.255.058.2137.1778.5737.3774.503.177-.0601.349-.1279.5106-.2067-.2777.1401-.3869-.2599-.4537-.4715.5074-.2337.9398-.5524 1.1983-.9327z" fill="#fff101"/><path d="m29.601 15.0861c.245-.2011.4553-.2963.244-.7223-.3457-.6967-.1309-.699-.8878-1.1422-.7708-.4508-.6734-.4861-1.6934-.1053-.2509.0936-.1949.1892-.151.5744.0946.8303.2742 1.4989.4385 2.182.6412-.0886 1.6277-.4395 2.0497-.7866z" fill="#fff101"/><path d="m27.2081 14.8974c-.1345-.4076-.0984-.3522.3892-.228.1595-.5373.3799-.9907.5034-1.4256.138-.4869.1812-.5745.3842-.4552.2597.1524.545.3133.7308.41.3246.1684.2767.2274.1218.4951-.1549.2678-.6616.8104-.9741 1.3766.4122.3072.5445.335.2517.4673-.3278.1479-.8723.3312-1.1016.3746-.0419-.2675-.1775-.6283-.3054-1.0148z" fill="#fff101"/><path d="m22.3688 18.7303-.0324.4192-.2919-.2807-.3265.2347.0216-.4185-.3758-.1203.3211-.2439-.1417-.3888.3769.1164.199-.36.1513.3845.3888-.0622-.1905.3668.2868.2833z" fill="#fff101"/><path d="m30.5367 24.3116c-.5546-.5344-.7883-1.5242-.5863-2.393-.4257-.5307-1.4538-.6958-2.1809-.4972-1.9716 1.4757-2.7626 3.8819-3.6058 4.9822-.2666.3478-.4539 1.3192.1613 1.8349.5057.4237.4971.7996 2.3734 2.1144 1.0146.7109 1.9558 1.256 2.2816 1.6475.326.3914.6557.8131.5867 1.3275-.0947.7078.1034 1.3155.0074 1.8032-.1181.5978-.2313 1.0046-.1878 1.3337.0437.3291.5163.6421.9518.1217.9834-1.1749.6279-2.3096 1.5294-3.4411.4259-.5347.6714-1.0743-.0926-1.478-.7642-.4034-1.8093-.9953-2.7244-2.5336-.6145-1.0333-1.5768-1.9012-2.4528-2.0348.5237-.3133.8448-.7689 1.5503-1.1321.7056-.3631 1.5442-.8861 2.3887-1.6553" fill="#fff"/><path d="m29.9181 23.0387c-.9189.8206-1.2587.5589-2.2311 1.7135-.5845.6943-1.402 1.4094-1.8213 1.6709l.1385.1404c.4193-.2615 1.2368-.9766 1.8215-1.6709.9403-1.1165 1.2889-.9085 2.1422-1.6361-.0169-.053-.0417-.1718-.0498-.2178" fill="#fff101"/><path d="m30.3477 24.1016c-.1308.0783-.2622.1703-.3675.2631-.2293-.2558-.2474-.9228-.432-.7905-.059.0411-.2598.1554-.3668.2152.1674-.0933.2767.7824.4144.8607-.5251.4954-1.227.7083-1.5446 1.041-.1898-.1991-.2934-.714-.4392-.5542-.0729.0848-.2642.2784-.3828.4017.1257-.1264.1928.2921.3396.3576-.2902.2584-.8556.7219-1.1372.8916l.1657.3112c.5237-.3133.8448-.7689 1.5503-1.1321.7056-.3631 1.5442-.8861 2.3887-1.6553-.0558-.0564-.1409-.1533-.1886-.21" fill="#fff101"/><path d="m26.0127 27.7932c.8801.0767 1.9143.9127 2.5654 1.8724.762 1.1232 1.5731 1.694 2.261 2.0589-.0585.1035-.055.2231-.0675.3387-.1331 1.2306-1.1433 1.3756-1.2047.9779.0221.1508.0003.2595-.0086.3548-.0176.1628.4672.3044.9297-.0332.1972-.144.3997-.5176.4785-.7687.1036.3073.109.4817.012.7591-.1043-.0588-.1996-.1591-.259-.2504-.0562.0778-.1134.1734-.2315.26.0732.137.2087.2755.3778.3621-.1352.5386-.1998 1.0475-.4684 1.4837-.4298.6985-.9952.601-.8236-.0775-.1181.5979-.2312 1.0047-.1878 1.3338.0437.3291.5163.642.9518.1216.9834-1.1749.6279-2.3095 1.5294-3.441.4259-.5347.6805-1.0941-.0926-1.478-.1021-.0505-.1274-.0648-.2167-.1084-.2224-.1357-.2116-.5727.2128-.7864-.4625.063-.5192.2382-.6662.5147.1082.0715-.2014.2498-.2068.3385-.4148-.235-.8734-.5488-1.334-1.0174.1712-.1318.3356-.3034.2104-.4638-.0719-.0829-.1426-.1687-.214-.2604.1252.1606-.0592.3397-.2303.4718-.203-.2311-.4056-.4957-.6044-.7999-.2291-.3506-.507-.6875-.8111-.9776.1458-.1601.3802-.4497.2226-.5976-.1374-.1323-.2791-.2563-.4242-.3647.2534.1846-.0194.4848-.1588.6517-.4451-.3483-.9218-.5857-1.362-.6322z" fill="#fff101"/><path d="m24.857 25.7327c-.2872-.124-.1455-.2916-.3883.1153-.3969.6651-.4736.512-.4574 1.4277.0164.9319.1873.7832 1.009 1.5282.6316-.5014 1.3855-1.2594 1.862-1.7517-.393-.5435-1.5306-1.1055-2.0253-1.3195z" fill="#fff101"/><path d="m26.2567 27.8546c-.2661.3273-.2389.2667-.381-.2428-.5192.1222-.9197.2633-1.3368.3676-.4674.1167-.5605.1208-.5646-.1248-.0052-.3145-.016-.6563-.03-.8752-.0243-.3816.0476-.3676.3442-.3593.2965.0081.9126.0853 1.532.0887.0451-.5316.0017-.6668.2565-.4643.2845.2264.7068.6343.857.8227-.1978.1721-.4249.477-.6773.7874z" fill="#fff101"/><path d="m31.8109 30.3763.3592-.1802-.0837.4079.3554.1822-.3532.1892.0893.405-.3601-.1726-.2472.3244-.0931-.4039-.394-.0026.2391-.3307-.2455-.3254.3955-.0089.0884-.4044z" fill="#fff101"/><path d="m32.2923 20.096c-.1595.7754-.8526 1.4847-1.6639 1.734-.2214.6556.1576 1.6805.6837 2.2485 2.1925 1.0699 4.5563.5921 5.8778.8152.4178.0704 1.306-.2436 1.4202-1.0653.0938-.6756.4053-.8554.5425-3.2336.0742-1.2859.0494-2.4216.2067-2.916.1574-.4944.3373-1.0078.7925-1.2017.6262-.267 1.0242-.7528 1.4715-.9085.5477-.1908.937-.2903 1.1842-.4947.2475-.2043.2671-.7943-.3761-.9334-1.4528-.3145-2.203.5789-3.5793.3179-.6503-.1232-1.2144-.0787-1.1624.824.0521.9025.0906 2.1567-.7102 3.765-.5378 1.0803-.7664 2.3966-.4379 3.2666-.518-.3236-1.0512-.3901-1.7008-.8554-.6498-.4656-1.497-.9727-2.5485-1.3626" fill="#fff"/><path d="m31.5601 21.299c1.1307.4322 1.0865.8746 2.517 1.1892.8602.1889 1.8537.5809 2.2774.8346l.0454-.1973c-.4234-.2537-1.4172-.6454-2.2771-.8346-1.3834-.3042-1.3876-.7279-2.4093-1.1466-.0349.0424-.1198.1242-.1534.1547" fill="#fff101"/><path d="m32.2146 20.3736c.1296.0808.2705.1551.3989.2056-.0942.3379-.6309.6883-.4303.7915.0631.0335.2568.1604.3591.2285-.1598-.1069.5016-.6449.4969-.8105.668.2339 1.1929.7712 1.624.8963-.0678.2734-.4375.6259-.2338.6797.1059.0244.3599.1029.52.15-.1662-.052.1426-.3229.1227-.49.3565.1367 1.0181.4234 1.2977.5968l.1716-.3075c-.518-.3236-1.0512-.3902-1.7008-.8555-.6498-.4655-1.497-.9726-2.5484-1.3626-.0182.0791-.055.2057-.0776.2777" fill="#fff101"/><path d="m37.4015 22.503c-.3773-.8453-.2107-2.2118.2489-3.2887.5376-1.2605.599-2.2896.5533-3.1027.114.0021.2099-.0611.3111-.1073 1.0728-.4931 1.6966.3605 1.4017.6155.1125-.0957.2124-.1297.2946-.1692.1419-.0655.0155-.5807-.4919-.836-.2163-.1089-.6231-.1079-.8681-.0546.1998-.2487.3395-.3407.615-.3904.0041.125-.0302.2625-.0754.3626.0918.0125.1986.0172.3285.0824.0753-.1357.121-.3291.1072-.5277.5082-.145.9567-.3402 1.4477-.3121.7863.0449.9894.6121.3489.7938.5477-.1908.937-.2903 1.1842-.4947.2475-.2043.2671-.7943-.3761-.9334-1.4528-.3145-2.203.5789-3.5793.3179-.6503-.1232-1.235-.0769-1.1624.824.0096.1188.0106.1492.0197.2529 0 .2719-.3626.4804-.7495.1979.2825.393.4541.3574.7539.354.0044-.1354.3049.0593.38.02.0155.498-.012 1.0756-.165 1.732-.1934-.0907-.4156-.156-.4846.039-.0319.1073-.0665.2149-.1058.3262.0688-.195.3076-.1152.5008-.0244-.0874.3017-.2025.6199-.3517.9542-.1724.3852-.3089.8084-.3941 1.2326-.2037-.0538-.558-.124-.6002.0946-.0393.1921-.07.384-.0862.5714.0243-.3247.4061-.2249.6125-.1804-.0623.5823-.0181 1.138.1638 1.5653z" fill="#fff101"/><path d="m35.8916 24.2701c.0423.3254.0148.5659.4689.5848.7426.0315.6822.1284 1.4231-.3441.7539-.4812.7741-.3862.9727-1.512.0488-.2768-.0575-.2734-.3945-.4257-.726-.3286-1.3605-.3062-2.0013-.4972-.2482.6324-.5415 1.6337-.4689 2.1942z" fill="#fff101"/><path d="m37.3301 22.249c.4009.0801.3376.0855-.0078.4707.3596.4149.6349.7068.929 1.0374.3292.3702.379.4534.1802.58-.2546.1619-.5286.3428-.7006.4652-.3003.2132-.3246.1399-.4662-.1362-.1417-.2758-.3468-.8749-.6534-1.4442-.4576.2241-.5465.3317-.5082-.0031.043-.3743.1655-.9654.2445-1.1973.2396.0952.6025.1511.9825.2275z" fill="#fff101"/><path d="m36.6148 15.8948-.3267-.2394.3756-.1274-.029-.4169.3314.2292.2868-.2843.0388.4164.3888.0645-.2838.2874.1949.3624-.39-.0538-.1437.3878-.2047-.3582-.3751.1214z" fill="#fff101"/><g fill="#000"><path d="m30.2056 21.2641c-.6103-.6202-1.5316-.8927-2.2349-.6552l-.0197-.0124c-.1847-1.0356-.2264-2.0358-.16-3.0224.0257-.3816.0035-.6609-.0706-1.159-.0307-.2066-.0349-.2355-.0458-.321-.0219-.1715-.0334-.3168-.0344-.46-.5401.6905-1.6824 1.1534-2.8745 1.2021-1.4102.0572-2.2909.4327-3.4268 1.2283-.6311.4421-.9915.179-1.2779-.662-.1896-.5561-.4209-.8771-.9755-1.468l-.0427-.0454c-.5809-.6191-.8334-.9803-1.0317-1.6099-.1852-.5873.2149-.9953.5957-.832.0259.0111.0519.0237.0782.0379.1227.0662.2485.164.4151.3173.057.0525.2242.2135.3536.3382.071.0683.1306.1258.1545.1484.0192.0181.039.0357.0597.0528-.0292-.0195-.0596-.0323-.0907-.0388-.0286-.0273-.0822-.0789-.1444-.1389-.1294-.1246-.296-.2851-.3527-.3373-.1648-.1517-.2889-.2481-.4088-.3128-.0255-.0137-.0508-.026-.0759-.0367-.3563-.1528-.7321.2303-.5551.7916.1965.6237.4466.9814 1.0244 1.5972l.0427.0455c.5576.594.7911.9181.9827 1.4798.2806.8241.622 1.0733 1.232.646 1.1402-.7986 2.0258-1.1763 3.4426-1.2338 1.2044-.0492 2.3573-.5238 2.8789-1.2256l.0274.0102c-.0013.1567.0101.3129.0341.5015.0109.0852.0151.114.0458.3203.0744.5003.0968.7817.0708 1.1664-.0658.9782-.0251 1.9697.1564 2.996l-.0165.0055.0197.0125-.0032-.018c.7123-.2316 1.6355.0449 2.2356.664.606-.1169 1.2717-.9271 1.4845-1.7338-.1051-1.2107-.4929-2.3055-1.19-3.6504-.1075-.2075-.4013-.752-.5439-1.0162l-.0782-.1452c-.2222-.4192-.3624-.7146-.4588-.9813-.1996-.5521-.946-1.0188-1.5615-.7604-.0837.0352-.1651.0632-.2543.0884-.0572.0161-.1154.0306-.1949.049-.8194.1892-1.273.3514-2.4658.9814l-.1006.0534c-.2293.1224-.7816.4299-1.1254.6212-.146.0813-.2544.1417-.2844.158-.4723.2566-.768.3918-.9815.4373-.7058.1503-1.0626.1439-1.3916-.129-.1036-.0859-.2144-.1636-.3364-.2377-.0315-.0191-.0634-.0378-.0964-.0565l.0097-.0121-.0042-.0215c.0364.0205.0715.041.106.062.1233.0748.2352.1533.34.2403.3194.2649.6695.2712 1.3667.1227.2097-.0447.5038-.1791.9735-.4344.03-.0162.1381-.0764.2838-.1575.3437-.1913.8966-.4991 1.1262-.6217l.1008-.0536c1.1951-.6311 1.6511-.7943 2.4729-.984.0791-.0183.1369-.0326.1935-.0486.0881-.0249.1684-.0525.251-.0872.633-.2659 1.3962.2113 1.6014.779.0957.2648.2354.559.4569.9769l.0779.1446c.1424.264.4366.8093.5444 1.0172.6989 1.3484 1.088 2.447 1.1931 3.6688-.2162.8235-.8899 1.6435-1.5225 1.7586zm-9.5987-6.4015.0331.0184-.0008-.0037c-.0107-.0055-.0215-.0104-.0323-.0147zm-.1106-.0231c.0367.0007.0736.0083.1106.0231-.0562-.031-.1158-.0623-.1817-.0955-.0319-.0162-.1029-.0512-.169-.0837l-.0007-.0067c-.026-.0124-.0514-.0229-.0762-.0312l-.0597-.0295c-.193-.0966-.3249-.1733-.4313-.2577v-.0016c-.0067-.0053-.0135-.0103-.0204-.0149l.0204.0165-.0007.0249-.01.0071c-.0087-.0069-.0173-.0138-.0258-.0207l.0002-.0001c.0061.004.0121.0085.0181.0132l.0007-.0265-.0188.0133c-.0005-.0003-.0009-.0006-.0013-.0008-.0218-.018-.0426-.0364-.0628-.0555l-.0107-.0102c-.1972-.0412-.423.1704-.5511.5112l.0227.0195.6288-.4434c.098.0764.2166.1468.3817.2311-.2402-.0121-.4419.2138-.6997.7923l.0234.0197.8636-.7191c.0651.0321.1342.0662.1656.082.0292.0148.0571.0291.0841.0432zm.0996.0535c-.0319-.0176-.0649-.0354-.0996-.0535-.2738-.0048-.5343.378-.6905 1.0595l.0266.0144.8021-.9988-.0278-.0156.0008-.0011c.0061.0027.0122.0055.0182.0087l-.005-.0252-.0132.0165zm-.7444.9462c.1753-.7108.4639-1.0575.7444-.9462l.0108.006zm0 0c-.0054.0222-.0108.0447-.016.0675l-.0266-.0144zm.3639-1.1402.0312.0153.012-.01-.0024-.0209-.0406-.02-.0001-.0001-.0362-.0178c-.0413-.014-.0811-.0221-.12-.0241l.0474.0239.0628.031c-.2697-.0901-.4752.0814-.7538.6885l-.0517.0431.0234.0197c.0095-.0214.019-.0423.0283-.0628zm.004-.0034c-.0169-.0074-.0335-.0138-.0499-.0193l.0334.0165.0125.0062zm0 0c.0078.0034.0156.007.0234.0107l-.0031-.0275zm-1.1449.0811.5773-.4071c-.0003-.0003-.0007-.0006-.0011-.0009-.1847-.1217-.4308.0621-.5762.408zm0 0-.0425.03.0228.0195c.0063-.0168.0129-.0333.0197-.0495z"/><path d="m29.2728 19.4911c-.0218.4804-.0142.7388.0585 1.1694l-.0202.0182c-.0232-.0087-.0532-.019-.0843-.0298-.0466-.0161-.0957-.0331-.1288-.0467-.0555-.3776-.0601-.6127-.0399-1.0561l.0041-.0921c.0243-.5697-.0185-.9512-.2307-1.6313-.2558-.8209-.4518-1.9413-.4456-2.5265l.2037-.0413c.0049.5664.2002 1.6832.4551 2.5006.2134.6843.2567 1.0699.2322 1.6434zm.0487 1.1569-.0203.0182c-.0015-.0091-.003-.0182-.0045-.0272.0088.0032.0171.0062.0248.009zm-.2051-.0642c.0391.0084.1209.0342.1803.0552-.069-.4173-.0758-.6771-.0543-1.1495l.0041-.0921c.0243-.5697-.0186-.9514-.2307-1.6317-.2559-.8204-.4518-1.9405-.437-2.495l-.1731.0409c.0048.5659.2003 1.6831.4551 2.5009.2134.6841.2567 1.0695.2322 1.643l-.0041.0922c-.02.4413-.0155.6745.0275 1.0361z"/><path d="m25.6933 13.6475c-.1719.0781-.1705.3548-.0316.7859.1112.3447.3081.7778.5448 1.2201l.0281-.0123-.5204-1.9831zm2.5225 6.407c.0226.138.0332.3034.0317.4716l-.0123.0157-.0525.0117c-.0768.0174-.1638.0371-.2315.043-.1847-1.0356-.2264-2.0358-.16-3.0223.0257-.3817.0035-.661-.0706-1.1591-.0307-.2066-.0349-.2355-.0458-.321-.0242-.1899-.0358-.3477-.0189-.5223l.3525.02c-.0017.294.0753.9699.1563 1.4616.0437-.0244.105-.0311.2014-.0292l.0394.001c.0899.0026.1245.0017.156-.0072.0362-.0102.0483-.0286.0397-.0666l.0298-.0079v.0003l-.0298.0078.0168.0694c-.011.013-.0274.0225-.0486.0284-.0356.01-.0712.011-.1648.0083l-.0391-.001c-.1054-.0021-.1656.0067-.2027.0364l-.0243-.0101c-.0828-.4954-.1625-1.1902-.1456-1.475l-.3218-.0198c-.0014.1568.0101.313.0341.5016.0108.0851.015.114.0457.3203.0745.5003.0969.7817.0709 1.1664-.0662.9839-.0247 1.9813.1402 3.0014.0622-.0193.1691-.0462.2549-.0653l-.0001.0131.0122-.0157-.0121.0026c.0009-.1618-.0094-.3207-.0198-.4712.0862-.0219.1905-.0183.3244.0052.0449.0079.0897.0173.1527.0316.1933.0437.2219.0493.2787.0505.0704.0014.0989-.019.0954-.0715-.0035-.056-.0009-.2048.0048-.3844.0206-.0129.0318-.0325.0327-.0597-.007.2046-.0106.3814-.0069.442.005.0753-.0404.1078-.1266.1061-.0598-.0012-.0881-.0068-.2845-.0512-.0626-.0142-.107-.0235-.1513-.0313-.1302-.0229-.2309-.0264-.3007-.0242zm.8373-.3817c-.0275.0175-.072.023-.1311.0191-.0749-.0051-.159-.0217-.32-.0598l-.0176-.0041c-.2752-.0653-.3737-.0805-.4168-.0522l-.0231-.0105c-.0095-.0484-.0177-.0977-.0248-.148-.0392-.2791-.0415-.5147-.0243-.9747.0174-.4678.0146-.6338-.019-.8333.0675-.0196.1495-.0246.2637-.0206.0266.0009.0506.0021.0935.0045.143.0078.1931.0083.2418-.0017.0578-.0118.077-.0366.0633-.0872-.0169-.0561-.0411-.1519-.0783-.3062l-.0043-.018c.002.0084-.0208-.0868-.0381-.1591.0157-.0185.0205-.0442.013-.0772.0109.0445.0577.24.0549.2283l.0043.018c.037.1536.0611.2491.0779.3048.0194.0716-.013.1134-.0869.1286-.0522.0107-.103.0102-.2492.0021-.0427-.0023-.0665-.0035-.0929-.0044-.069-.0025-.1257-.0015-.1715-.0007-.0282.0004-.0522.0009-.0723.0004.0455.1841.0483.3515.0307.823-.017.4581-.0147.6921.0241.9686.0059.0427.0128.0847.0205.1259.0576-.022.1601-.0039.4205.0579l.0176.0041c.1593.0377.2426.0542.3152.059.0877.0059.1299-.01.1313-.0475zm-3.3637-5.9871-.0049-.0189.0208.0106c-.0055.0025-.0108.0052-.0159.0083zm.4813 1.8337c-.208-.3992-.3795-.7847-.4801-1.0965-.129-.4001-.1349-.658-.0012-.7372zm0 0c.0204.0393.0412.0787.0623.1181l-.0281.0124zm-.3869.5455-.0015.0006.0001.0001-.0006.0002.0102.0351c.1452-.0573.2904-.1246.4357-.2012l-.0116-.0344-.0008.0004v-.0001l-.0016.0008zm0 0c.1432-.0566.2865-.1229.4299-.1985l.0016-.0007.0115.0343-.4342.2005-.0102-.0349zm-2.1616.3844c-.1109.0307-.2187.0643-.3243.1011l.008.0359.0005-.0002h.0002l.3224-.1005c.0001-.0001.0001-.0001.0002-.0001l.0003-.0001zm.007.0362-.0073-.0361-.3235.1008.008.0359h.0002c.105-.0366.2122-.07.3224-.1005z"/><path d="m24.5645 16.1048c1.1746-.1241 2.328-.6833 2.803-1.4095l.0277.0065.0369.2555c-.251.3693-.6735.6935-1.1962.918-.0012-.0039.0213.0682.0283.0899.0119.0369.0227.0686.034.0987.0926.2482.2019.3536.363.277-.0398.0193-.0806.0381-.1225.0565-.1119-.014-.1971-.1291-.2689-.3216-.0115-.0307-.0225-.0628-.0345-.1001-.007-.022-.0296-.0941-.0199-.1102.5264-.2424.9445-.5632 1.1893-.915l-.0333-.2047c.0073-.0107.0144-.0214.0215-.0321l-.0278-.0065.0063.0386c-.4933.7195-1.6382 1.2682-2.8037 1.3912-1.1269.119-1.9906.4708-2.8295 1.0354-.035-.0666-.077-.1059-.1825-.1837l-.0004-.0003c-.028-.0207-.0406-.0301-.0559-.0422-.4248-.3331-.6192-.7526-.5909-1.1409.0197-.2714.1531-.4738.3068-.4941.0286.0162.0582.0306.0901.0437l-.0001.0001c-.168-.0673-.3437.1416-.3664.4528-.0274.3768.162.7857.5787 1.1124.0149.0118.0274.0211.0551.0415l.0004.0003c.1093.0807.1538.1223.1699.189.821-.573 1.6894-.9267 2.8215-1.0462zm-3.2525-.7819c-.0326-.0123-.0651-.0158-.0967-.0117-.0278-.0157-.0546-.033-.0815-.0524-.0254-.0182-.0926-.0714-.1123-.087-.0032-.0026-.0052-.0041-.0054-.0043-.1485-.1165-.4511.356-.4133.8549.0171.2258.1982.5905.3857.8134l-.0142.0268c-.3103-.0598-.4573-.1456-.6323-.3984.0901-.0594.2098-.0998.3201-.1123.0035.0088.0066.0163.0082.0204l.0004-.0007.0126-.0218c-.007.0006-.014.0013-.021.0021-.0001 0-.0001 0-.0002 0-.0034-.0083-.0072-.0177-.0108-.0264-.0053-.0131-.01-.0248-.0119-.0295-.0215-.0539-.0374-.1014-.0461-.1468-.0071-.037-.0094-.0726-.006-.1093-.0046 0-.0093 0-.0139.0001-.1496.0022-.321.0603-.4818.1605-.023-.0242-.0467-.0489-.0717-.0746-.043-.0442-.1546-.1562-.2328-.2347-.0385-.0387-.0689-.0692-.079-.0794-.3007-.3057-.4713-.5206-.5989-.7868-.1687-.3522-.1887-.673-.0705-.8404.0788-.1116.2035-.1347.3446-.0682.0168.0163.0334.0323.0495.0477.0291.0281.0564.0544.0801.0772-.1868-.1612-.3562-.1697-.4498-.0372-.1099.1557-.0907.464.0733.8063.1257.2621.2943.4747.5928.778.01.0101.0402.0405.0787.0791.0781.0784.19.1908.2332.2352.0251.0258.0489.0505.0525.0729.1425-.1025.3132-.1622.4781-.1553-.0372-.5195.2837-1.0192.4623-.879.0003.0003.0027.0021.0065.0051.0209.0166.086.0681.1104.0856.0516.0371.1024.0664.1611.0909zm-.6363 1.0602c-.1087.0106-.2287.0495-.314.0846.1655.2117.3008.2962.5749.3543-.0984-.1247-.1927-.2839-.2609-.4389zm-1.1628-2.1418c.0324.0312.0581.0558.0728.0697-.0245-.0258-.0488-.049-.0728-.0697zm.0743.0712-.0001.0001c-.0005-.0005-.001-.0011-.0014-.0016.0005.0005.001.001.0015.0015zm-.0568-.098c-.0501-.043-.0996-.0756-.1471-.0981-.1195-.115-.2535-.2438-.3032-.2896-.1648-.1517-.2889-.2481-.4088-.3128-.0255-.0137-.0508-.026-.0759-.0367-.3563-.1528-.7321.2303-.5551.7916.1965.6237.4466.9814 1.0244 1.5972l.0427.0455c.5576.594.7911.9181.9827 1.4798.1298.3813.2682.6311.4432.7599.2081.1532.4644.1256.7885-.1137.0384-.0283.0651-.0477.1099-.0801l.0014-.001c.0301-.0219.0537-.0393.0869-.0642.2472-.1512.5499.1011.5619.511-.0094.0272-.02.0556-.0317.0853l.0294.0076c.0025-.0318.0031-.0628.0023-.0929.0815-.2365.0757-.3862.0004-.5498-.0143-.0309-.031-.063-.0541-.1044-.0004-.0008-.0009-.0016-.0014-.0025-.0121-.0216-.0514-.0919-.0429-.1058-.039.022-.0705.0043-.0927-.0421-.0152-.0319-.0253-.0701-.0413-.147l-.0039-.0187c-.0204-.0977-.0334-.1388-.0513-.1515l.0004-.0273c.474-.312.9529-.5481 1.5223-.7028.0294.2901.1035.4378.2556.4109.0725-.0171.1434-.0324.2142-.0463.0318.0155.0687.0197.1114.0122-.1061.0187-.2107.0404-.3199.066-.1786.0317-.2608-.132-.2725-.4254-.5404.1656-1.012.397-1.4783.702.0179.0247.0299.0688.0479.1552l.0039.0188c.0154.074.0251.1107.0387.1392.0153.032.0297.0401.0714.0342.0057.0102.0193.0343.0328.0581s.0268.0473.0319.0563c.0234.0421.0405.0749.0552.1067.0881.1914.0855.3661-.0313.6619l-.0295-.0075c.0333-.4399-.2724-.7208-.5125-.574-.0321.0241-.0559.0417-.0862.0636l-.0013.001c-.0449.0325-.0714.0518-.1097.08-.3338.2464-.6037.2755-.8236.1137-.1816-.1337-.3227-.3883-.4546-.7755-.1896-.5561-.4209-.8771-.9755-1.468l-.0427-.0455c-.5809-.6191-.8334-.9802-1.0317-1.6098-.1852-.5874.2149-.9953.5957-.832.0259.0111.0519.0237.0782.0379.1227.0662.2485.164.4151.3172.057.0525.2242.2136.3536.3383.0278.0267.0539.0519.0767.0739zm4.3603 2.6821c-.0346.0062-.0691.0126-.1035.0194-.1003-.0489-.1494-.2096-.1649-.4668.302-.0735.6208-.1255.9586-.1548.4042-.0351.8174-.1221 1.2211-.2432.0941.3472.2081.545.3579.4919.1356-.046.2615-.0942.3788-.1457.04.0049.0833-.0029.1307-.0248-.1511.0729-.3169.1393-.5001.2015-.1769.0626-.2973-.1465-.3775-.503-.3864.1329-.802.2205-1.2086.2558-.3363.0291-.6537.0809-.9424.1365.0303.3014.1014.4574.2499.4332zm2.7777-.5592c.0002-.0001.0003-.0001.0004-.0002l.013.0294c-.0042.0021-.0083.0041-.0124.006.004-.0019.008-.0039.0121-.0058zm0 0c-.0007.0003-.0015.0007-.0023.0011.0008-.0004.0016-.0008.0023-.0012zm-2.7777.5592c.001-.0001.002-.0003.003-.0005l.0051.0321c-.0001 0-.0002 0-.0002 0l-.0051-.032c-.0009.0001-.0019.0003-.0028.0004zm-4.3603-2.6821c.0261.0222.0523.0473.0786.0751l-.0211.0236c-.0002-.0003-.0004-.0005-.0007-.0007l.021-.0235c-.0145-.0138-.0423-.0404-.0778-.0745zm1.7816 1.1084c.0014.0005.0029.0011.0044.0017l-.011.0303.0109-.0302c-.0014-.0006-.0029-.0012-.0043-.0018zm5.3541 1.0156c-.0016.0008-.0033.0016-.0049.0024.0016-.0008.0033-.0016.0049-.0024z"/><path d="m29.9648 21.9225c-.2023.8697.0355 1.8508.5816 2.3771l-.0003.0243c-.7543.687-1.551 1.2248-2.3919 1.6576-.2471.1272-.4578.2698-.688.456-.057.0462-.1135.0935-.1865.1557.0066-.0056-.139.119-.1791.153-.1798.1519-.3138.2542-.458.3438.8349.1499 1.7846.9661 2.4203 2.0351.7522 1.2644 1.5006 1.8849 2.7183 2.5277.6769.3577.6419.8195.0974 1.503-.3625.4551-.5066.8228-.717 1.6439-.2291.8945-.3887 1.291-.8126 1.7975-.3879.4635-.9213.3007-.9785-.1302-.0203-.1541-.0085-.3284.0335-.5712.0188-.1089.0956-.4818.1336-.6661v-.0002l.0209-.1018c.0051-.0259.0095-.0512.0132-.0764-.0009.0351.004.068.0139.0987l-.0179.0873v.0001c-.038.1847-.1145.556-.1332.6642-.0415.2396-.0531.4108-.0333.5608.0536.4032.5545.5561.9251.1132.42-.5018.5781-.8945.806-1.7845.2115-.8253.357-1.1966.7232-1.6563.5335-.6697.5667-1.1072-.0877-1.453-1.2223-.6452-1.9749-1.2692-2.7306-2.5395-.6423-1.0801-1.6069-1.9-2.4419-2.0274l-.0054-.0302c.1576-.0942.2977-.1999.4918-.364.0401-.0339.1856-.1584.179-.1528.0732-.0625.1299-.1099.1872-.1563.2317-.1874.4441-.3312.6932-.4594.8338-.4291 1.6239-.9617 2.3722-1.6411l.0128.0124.0003-.0243-.0131.0119c-.5458-.5376-.7813-1.5223-.5748-2.3821-.3987-.4971-1.3943-.7026-2.1604-.4945-.737.5517-1.3506 1.2583-1.9328 2.1602-.1604.2483-.4846.8173-.8002 1.3711-.3279.5754-.6465 1.1344-.7622 1.3005-.0364.0522-.0722.1013-.1076.1475-.3519.459-.3604 1.3766.1589 1.8119.0243.0203.0478.0409.0707.0618.0702.0641.134.1304.209.2154.0126.0144.0477.0552.0885.1026.0591.0688.1302.1515.1627.1881.1126.1272.2249.2445.3593.3725.3469.3305.8164.7066 1.4822 1.1731.3388.2374 1.4043.9471 1.399.9434.4709.3205.7377.5292.8857.7069.4755.5711.6491.9024.5904 1.3405-.0243.1814-.0315.3424-.0245.5441l-.015-.0029-.0156.0149c-.0077-.2086-.0006-.3737.0244-.5606.057-.4253-.1133-.7503-.5831-1.3144-.1453-.1747-.4107-.3823-.8792-.7011.0056.0038-1.0602-.706-1.3993-.9436-.667-.4674-1.1377-.8444-1.4858-1.1761-.1351-.1286-.248-.2466-.3612-.3744-.0327-.0368-.1041-.1199-.1633-.1888h-.0001l-.0001-.0002-.0001-.0002c-.0405-.0471-.0752-.0874-.0877-.1015-.0743-.0843-.1372-.1498-.2065-.213-.0227-.0207-.0458-.0409-.0697-.061-.5342-.4478-.5255-1.3859-.1637-1.8579.0351-.0457.0706-.0944.1067-.1463.1148-.1648.4319-.7212.759-1.2951.3161-.5548.6416-1.1259.8027-1.3755.5841-.9049 1.2001-1.6142 1.9455-2.1708.7815-.2134 1.7891-.0055 2.1997.5169zm-.4366 12.0022-.0016-.0386-.0024.0023c.0008.0124.0021.0245.004.0363zm.0372.1148c-.0183-.0345-.0308-.0728-.0372-.1148.005.1127.014.2385.0267.3869l.0021.0247-.0051.004c.0028.0301.0069.0587.0125.0857.0238.2965.0288.4501.0115.5932l-.0021.0012c-.0012.0105-.0019.0208-.0021.0309.0015-.0107.0029-.0214.0042-.0321l.02-.0114.0119.0063c-.0013.0114-.0027.0227-.0043.034l-.0011-.0006c.0003-.0076.0009-.0153.0018-.0232l-.022.0126.0202.0106c-.0001.0031-.0001.0061-.0001.0091-.0038.0256-.0082.0513-.0134.0777l-.0033.0157c.0655.2009.3512.3018.6933.2487l.0046-.0306-.6757-.354c.0139-.1213.0122-.251-.003-.4659.1103.2259.3961.2979.9979.245l.0044-.0313-1.0196-.432-.0018-.0213c-.0084-.0989-.0152-.1877-.0203-.2691zm-.0062-.1151c.0016.0369.0037.0751.0062.1151.1338.2523.5767.2993 1.211.1022l-.0015-.0316-1.2177-.236.0013.0333-.0018-.0003c-.0009-.0069-.0015-.0139-.002-.0211l-.0181.0172.0201.0039c.0007.0058.0015.0116.0025.0173zm1.1453.2051c-.6657.1937-1.0926.1042-1.1453-.2051l-.0007-.017zm0 0c.0208-.006.0419-.0124.0632-.019l.0015.0316zm-1.1139.2366-.0031-.0362-.0146-.0063-.0159.0127.0074.0897c.0092.0449.0225.0855.0404.1222-.0028-.0389-.006-.0804-.0096-.1253.0622.2894.3061.3912.9394.3433l.0611.0258.0045-.0312c-.0223.0019-.0442.0037-.0656.0054zm-.0053-.0022c.0026.0205.0059.0402.0099.059l-.0046-.0568zm0 0c-.0011-.0088-.002-.0177-.0029-.0268l-.0209.0167zm.6389 1.0094-.6207-.3252c-.0004.0028-.0008.0057-.0012.0085-.0011.2257.2704.3561.6219.3167zm0 0 .0456.0239.0046-.0306c-.0169.0026-.0337.0048-.0502.0067z"/><path d="m28.9444 23.6845c.4504-.2458.6376-.3669.9637-.6582l.025.0094c.0045.0254.0112.0587.0181.0933.0101.0502.0208.1035.0263.1402-.2912.2483-.4608.3555-.8806.5847-.0348.019-.0609.0334-.0865.0476-.4405.2448-.7383.4854-1.1732 1.0019-.5434.6452-1.3617 1.385-1.8437 1.6718l-.1356-.1661c.4608-.2873 1.2766-1.025 1.8177-1.6677.4377-.5197.7384-.7627 1.1824-1.0094.0256-.0142.0517-.0285.0864-.0475zm.9588-.6428.025.0094c-.0067.006-.0134.0119-.02.0178-.0019-.0097-.0035-.0189-.005-.0272zm.005.0272c-.3162.2805-.5065.4027-.9495.6445-.0347.0189-.0607.0332-.0862.0474-.4408.2449-.7386.4855-1.1738 1.0022-.5431.6451-1.3613 1.3849-1.8222 1.6484l.1201.1381c.4606-.2873 1.2765-1.0249 1.8179-1.6677.4375-.5195.7382-.7625 1.1819-1.0091.0256-.0143.0518-.0287.0866-.0477.4182-.2282.5863-.3345.8706-.5633-.0128-.04-.033-.1286-.0454-.1928z"/><path d="m29.9702 24.3522c.1017-.0897.2317-.1822.3697-.2648l.019.0034.0363.0426v.0001c.052.061.112.1313.1508.1904-.7543.6871-1.551 1.2248-2.3919 1.6576-.2471.1272-.4578.2698-.6879.456-.0571.0462-.1136.0935-.1866.1558.0066-.0057-.139.1189-.1791.1529-.1954.1651-.3366.2716-.5168.3607l-.1599-.3332c.2417-.1457.7571-.5552 1.1173-.8743-.0434-.0286-.0799-.0836-.1306-.1818l-.0284-.0554c-.0107-.0206-.0193-.0364-.0275-.0506-.0464-.0801-.0771-.0989-.1144-.0619l.0488-.0505c.0304.0076.0602.0408.0918.0954.0085.0147.0173.031.0282.052l.0284.0554c.0553.1071.0925.1593.1371.1792l.0039.0274c-.3621.3225-.8917.744-1.1336.8712l.1448.305c.1575-.0942.2976-.1999.4918-.364.04-.0339.1855-.1584.179-.1528.0732-.0625.1299-.1099.1872-.1563.2316-.1875.444-.3312.6931-.4594.8387-.4316 1.6331-.9679 2.3847-1.6289-.0472-.0479-.1236-.1333-.1811-.2012l.0108-.0065-.0191-.0033.0083.0098c-.1325.08-.2574.1689-.3754.2536-.0702-.0782-.1233-.192-.1788-.3614-.0075-.0229-.0244-.0777-.0407-.1306v-.0001c-.0157-.0506-.0307-.0994-.0365-.1169-.0276-.0836-.0505-.1358-.0748-.1661-.0253-.0314-.0495-.0361-.0817-.013-.0445.0311-.1767.1084-.317.1874-.021-.0123-.0426-.0128-.0654-.0001l.0143.0288-.0143-.0288c.1571-.0877.3168-.1805.3653-.2143.0455-.0326.0871-.0247.1222.019.0274.0342.0516.0891.0804.1764.0058.0179.0211.0673.0368.1182l.0001.0001v.0001c.0162.0526.0329.1068.0403.1293.0541.1653.1057.2757.1511.3484zm-.7811-.5489.0503-.0282c.0283.0168.0553.0554.082.1126.0334.0718.0615.1566.1117.3265.0342.1156.0349.1179.0474.158.0496.1588.0875.2438.1223.2635l.003.0265c-.1511.1425-.3235.2691-.534.3987-.0871.0536-.3018.1751-.4607.265h-.0001l-.0001.0001c-.0878.0497-.1585.0897-.1812.1033-.1673.1-.283.1843-.3896.2734-.0539-.0567-.1011-.1349-.1622-.2587l-.0178-.0367-.0001-.0002c-.0189-.0389-.0466-.0961-.0566-.116-.027-.0533-.0485-.0907-.069-.1181-.0425-.057-.0746-.0654-.1113-.0251-.0386.0449-.1069.117-.2216.2354l-.0037.0038c.014-.0145-.0559.0576-.1088.1121-.0228-.0058-.046.0028-.0705.0275l.0213.0234-.0002.0002-.0214-.0234c.0311-.0322.1793-.1849.1579-.1628l.004-.0041c.1142-.1179.1822-.1898.2206-.2344.0522-.0572.1051-.0434.1578.0272.0218.0293.0442.0681.0719.123.0102.0202.0382.078.0571.117l.0001.0001.0175.0361c.0454.0921.0829.1581.1111.2081.0089.0156.0169.0297.0239.0425.0874-.0915.205-.1773.3745-.2786.023-.0138.0944-.0542.1829-.1043.1588-.0899.3724-.2107.4589-.2639.2022-.1244.3687-.246.5146-.3815-.0383-.0365-.0737-.1215-.1196-.2689-.0126-.0403-.0133-.0427-.0476-.1585-.0497-.1682-.0775-.2521-.11-.3219-.039-.0838-.0732-.1154-.1047-.0987zm0 0-.0008.0005zm-1.9493 1.7468.0004-.0004zm-1.2488 4.3185c.1499.1186.3756-.021.6587-.3639.2265-.2742.4823-.6714.7255-1.1093l-.0242-.0196-1.3617 1.4684zm.0332-.0156-.013.014-.0017-.0244c.0048.0038.0097.0072.0147.0104zm.6025-.3696c-.2628.3182-.4708.4526-.6025.3696l1.2592-1.3579c-.2223.39-.4519.7402-.6567.9883zm.6567-.9883c.0219-.0383.0437-.0771.0654-.1161l.0242.0196zm.2606-.2144c.1265.0988.2465.202.3593.3096l.0199-.0246-.3604-.3107zm-.0002-.0002.0188-.0257c.1272.0994.2479.2033.3615.3116l-.02.0247zm2.0299 2.3598c.0006.0006.0012.0012.0018.0018l.0237-.025c.0001.0001.0002.0002.0002.0003l-.0237.025zm-.2536-.2693.2536.2693c-.0829-.0832-.1668-.1724-.2536-.2693zm-.0016-.0018c.0006.0006.0011.0012.0016.0018zm.0244-.0243-.0244.0243c-.0001-.0001-.0002-.0002-.0003-.0004l.0244-.0242zm.0002.0002.2561.272c-.0837-.0839-.1684-.1739-.2561-.272z"/><path d="m26.0221 27.8057-.0086-.0286c.0123.001.0247.0022.0371.0036zm1.7929-.0894c.0256.0625.021.1342-.0099.2132-.0281.072-.0758.1465-.1444.2333-.0255.0323-.0508.0626-.1163.1182-.4622-.3618-.9335-.5846-1.3431-.6328l-.1507.1325c.8351.0926 1.8562.8681 2.5395 1.8754.6606.9736 1.3799 1.5894 2.2617 2.0768-.0371.0657-.0482.124-.059.2603l-.0003.0035c-.0025.0323-.004.0492-.0061.0684-.0601.5562-.3061.9442-.6378 1.1124-.2316.1174-.4637.0964-.5573-.034-.001-.0332-.004-.0663-.0093-.1028.0307.1859.2885.2417.5533.1074.3219-.1632.5616-.5413.6206-1.0867.002-.0189.0035-.0355.006-.0675l.0003-.0035c.0112-.1412.0229-.2028.0695-.2514-.8797-.4667-1.6029-1.0858-2.2665-2.064-.6887-1.0152-1.7227-1.7932-2.5542-1.8656l-.0086-.0287.1906-.1612c.427.0451.9033.2703 1.349.6376.045-.0534.0699-.0833.0951-.1152.0668-.0845.1129-.1565.1396-.2248.0452-.1157.0288-.2084-.0644-.281.0341.0256.0683.0524.1027.0802zm-.0876-.1087c.0423.0322.0712.0686.0876.1087.1016.0823.2049.1743.3112.2766.1183.111.0137.314-.2234.5743.3012.3099.579.6452.8096.9982.1932.2955.3952.562.6057.8017.2028-.1431.3096-.2684.2994-.3846.0475.0588.0956.1163.1449.1731.0983.126.0144.2683-.2081.4396.4113.4451.8437.7662 1.3358 1.0449l.0225-.0133c.0015-.0242.0275-.0543.1099-.1341l.014-.0137c.0479-.0467.0744-.0764.0908-.1052.0234-.041.0204-.0768-.0151-.1002.01.0097.0548-.0734.0743-.1095.002-.0038.0038-.007.0052-.0096.1153-.2113.2277-.3035.4953-.3523-.3295.2159-.3846.6199-.1372.7709.036.0176.0609.0301.0953.0475l.0011.0005c.0699.0354.0772.0391.1215.061.3578.1777.5084.3988.4871.6664-.0178.2248-.1528.4765-.3997.7864-.3663.4597-.5118.831-.7232 1.6563-.228.89-.386 1.2827-.806 1.7845-.3707.4429-.8716.29-.9251-.1132-.0198-.15-.0082-.3212.0332-.5608.0136-.0789.058-.2975.0958-.4818.0159.1629.0972.2659.228.2824.1962.0247.4485-.1541.6521-.4849.1699-.276.2531-.5359.3754-1.0796.0608-.2705.0672-.2983.0949-.4088-.1626-.0975-.2959-.2257-.3723-.3617-.0024-.0042-.0047-.0084-.0069-.0126.0181-.0036.0362-.014.054-.0281.0152-.012.03-.0266.0443-.0419.0255-.0273.0486-.0557.0735-.0897.0079-.0109.0266-.0372.0409-.0575.0017-.0025.0035-.0049.0051-.0072.0658.0951.1585.1844.2521.2371.1188-.2868.1155-.4647.0096-.7788l-.029.0003c-.0869.277-.2867.6152-.4599.7508-.0043.0034-.0085.0066-.0127.0096-.3891.284-.9268.2428-.9057.0485.0016-.0172.0033-.0329.0074-.0677.0085-.074.0124-.1305.0107-.1866-.0203-.0282-.034-.0616-.0399-.0997l.0303-.0051c.0001.0007.0002.0013.0003.002-.0001-.0007-.0002-.0013-.0003-.002-.0001-.0001-.0001-.0002-.0001-.0002l-.0303.0051c.014.0955.0121.1666-.0012.2826-.0041.0347-.0059.0508-.0075.0681-.0254.2338.5438.2782.95-.0156.0766.1546.2108.2812.3661.3607-.036.0921-.0424.1199-.1033.3908-.1215.5402-.2038.7975-.3713 1.0694-.1978.3215-.4403.4933-.6227.4703-.1551-.0195-.2329-.1791-.1944-.4309.0001-.0006.0002-.0011.0003-.0017.0112-.0542.019-.0923.0211-.1029l-.0298-.0075c-.0001.0002-.0002.0005-.0002.0008h-.0001c0 .0002 0 .0003-.0001.0005-.0088.035-.0157.0687-.0207.1011 0 .0001 0 .0001-.0001.0002-.0379.1843-.1148.5573-.1336.6662-.042.2428-.0538.4172-.0334.5713.0572.4309.5906.5936.9784.1302.424-.5065.5836-.9031.8127-1.7975.2103-.8211.3544-1.1888.717-1.6439.2507-.3147.3883-.5713.4069-.8046.0225-.2826-.1363-.5156-.5047-.6986-.0443-.0218-.0515-.0255-.1213-.0608l-.0011-.0006c-.0345-.0175-.0596-.03-.0944-.047-.2403-.1467-.1634-.5675.213-.7569l-.0086-.0308c-.3399.0462-.4716.1405-.6032.3817-.0111.0203-.0428.0808-.0612.1159-.0068.0129-.0117.0223-.0133.0252.0246.0346.026.0504.0104.0776-.0144.0253-.0396.0535-.0853.0982l-.014.0136c-.0731.0708-.1039.1036-.1148.1327-.4824-.2751-.9072-.5918-1.313-1.0048.2341-.1566.3271-.3144.2116-.4624-.0737-.085-.1441-.1706-.2141-.2604l-.0236.0207c.0003.0004.0005.0007.0008.001.0959.1246.0044.2677-.2283.4473-.1893-.2365-.3904-.5017-.5828-.796-.2319-.355-.5112-.6922-.8134-.9804.2516-.2521.3622-.4667.2226-.5977-.144-.1385-.2828-.2586-.4193-.3611zm0 0c-.0021-.0016-.0042-.0031-.0063-.0047.0021.0016.0042.0031.0063.0047zm1.8212 2.2879c.0229.0294.0458.0584.0689.087-.0033-.0371-.0184-.0732-.046-.1086l-.0237.0206c.0003.0004.0005.0007.0008.001zm-.0111 5.3338c-.0109.07-.0133.1339-.0077.1906.0139-.0679.0269-.1311.0372-.1809.005-.0331.012-.0677.0212-.1038l-.0298-.0075c-.0001.0002-.0001.0003-.0002.0005-.0022.0112-.0099.0484-.0207.1011zm1.1926-2.1167h.0012c-.0019.0026-.0066.0092-.0125.0177-.0001-.0002-.0002-.0003-.0004-.0005-.0041-.0059-.008-.0119-.0119-.0178zm.0072-.0107c.0926-.1399.1756-.3059.2287-.4586.0892.2801.0877.4465-.0023.7041-.0713-.0604-.1629-.1508-.2264-.2455zm.9497-2.2997c.0268-.0049.0552-.0093.0853-.0134l-.0086-.0308c-.027.0136-.0526.0284-.0767.0442zm-3.9659-3.1993-.0175.0267c.003.0021.0059.0043.0087.0065-.0029-.0022-.0059-.0044-.0088-.0066l.0175-.0267c0 .0001.0001.0001.0001.0001z"/><path d="m31.8149 30.3561-.2423-.3102-.0268.0067-.0883.4045-.3809-.0038-.0117.0264.2455.3254-.2393.3107.0121.0261.394.0026.0783.3915.0268.0064.2472-.3244.3419.1772.0213-.0185-.0894-.405.3452-.171-.0002-.0292-.3555-.1822.0921-.3898-.0216-.0181zm.3334-.1312-.331.166-.0184-.0043-.2308-.2956.0077-.0311-.0268.0067.0191.0244-.0953.3859-.3655.0082-.0183-.0257-.0117.0264.03-.0007.2274.3197-.2211.3057-.0301-.0011.0121.0261.018-.025.3787.0139.0859.3731-.0197.0245.0268.0063-.0071-.0308.2458-.3045.3328.1594.006.0316.0213-.0184-.0273-.0132-.0753-.3915.3266-.175.0269.0149-.0002-.0292-.0267.0143-.3369-.1854zm0 0 .0282-.0141-.0216-.0182z"/><path d="m30.6236 21.8144c.8124-.2496 1.4961-.9584 1.6532-1.7219l.0201-.0119c.9397.3485 1.7785.8104 2.552 1.3645.3209.2298.5124.3222 1.0754.5522.2682.1096.4261.1826.5868.2795-.2947-.8407-.102-2.1196.4543-3.237.6582-1.3218.7915-2.3177.7085-3.7564-.0461-.7998.3489-.9985 1.1804-.841.5424.1028.9295.052 1.6608-.1526l.0567-.0158c.8293-.2324 1.2398-.2842 1.8622-.1494.5728.1238.7064.6947.3824.9621-.1227.1015-.2809.1806-.5251.2703-.0768.0283-.3141.1085-.4856.1665-.084.0284-.1523.0515-.1782.0605-.0084.003-.0169.006-.0254.0092.0253-.0163.0469-.0354.0648-.0569l.1302-.044c.1714-.058.4078-.138.4843-.166.2412-.0887.3967-.1665.5162-.2653.3031-.2502.1777-.7863-.3697-.9047-.6165-.1334-1.0231-.0822-1.8482.149l-.0567.0159c-.7353.2056-1.1261.257-1.674.1531-.8148-.1544-1.189.0339-1.1444.807.0833 1.4441-.0508 2.4457-.712 3.7736-.5621 1.1291-.7504 2.4235-.4372 3.253l-.0221.02c-.1725-.1078-.3323-.1828-.62-.3004-.5651-.2309-.7581-.3239-1.0816-.5556-.7669-.5494-1.5981-1.0079-2.5286-1.3546l.0038-.018-.0201.0119.0163.0061c-.1665.7688-.8544 1.4773-1.6607 1.7181-.2074.614.1222 1.6292.6757 2.2282.299.146.6097.2672.9332.3661.9969.3048 1.8133.3712 3.4355.3752.8328.0021 1.1578.014 1.5051.0726.5515.093 1.3062-.3579 1.4026-1.0515.0159-.1152.0386-.2207.0718-.3416.0206-.0747.1109-.3724.1022-.3431.0458-.1544.0818-.2894.1168-.4452.1139-.5071.1973-1.1619.2516-2.1024.0209-.3625.0265-.5062.0537-1.2802.0341-.9694.0656-1.3632.1537-1.64.2299-.7222.4137-1.0465.8013-1.2116.1552-.0661.299-.1456.457-.2497l.005.0151.0198.0068c-.1628.1079-.3105.1899-.4704.258-.3762.1603-.5566.4784-.7837 1.1919-.0867.2724-.1182.6656-.1521 1.6308-.0272.7743-.0329.918-.0538 1.281-.0544.9422-.138 1.5988-.2523 2.1078-.0352.1567-.0714.2924-.1174.4475.0085-.0288-.0816.2683-.102.3425-.0328.1195-.0552.2236-.071.3372-.0991.7134-.8707 1.1745-1.4377 1.0789-.3451-.0583-.6693-.0701-1.5003-.0722-1.625-.004-2.4435-.0706-3.4439-.3765-.3251-.0994-.6372-.2212-.9422-.3712-.5655-.6104-.8991-1.638-.677-2.2754zm10.0352-5.6013-.0314.021.0033.0012c.0098-.0071.0192-.0145.0281-.0222zm.0743-.0902c-.0189.0335-.0437.0637-.0743.0902.0511-.0345.1038-.0715.1589-.1115.0309-.0224.099-.073.1629-.1203l.0058.0026c.0234-.0177.0447-.0359.0641-.0546l.0643-.0476c.1113-.0813.197-.1393.28-.1877.0488-.0284.0957-.0529.1415-.0735l.0058.0033c.0219-.0087.0419-.0189.06-.0306-.0217.0082-.0436.0173-.0658.0273l-.0186-.0106-.0011-.0158c.0112-.0052.0224-.0101.0335-.0148l.0003.0046c-.0073.0036-.0149.0069-.0227.01l.0244.0139-.0017-.0239c.0106-.0052.0207-.0108.0301-.017.0126-.0049.025-.0095.0375-.0138l.0489-.0168c.1368-.1637.0653-.468-.1741-.7485l-.0313.0111.0551.7952c-.0443.0203-.0896.044-.1366.0714-.0757.0442-.1534.0961-.25.1658.1294-.2142.0454-.5123-.2985-1.0375l-.0278.0116.1564 1.1514c-.0629.0467-.1294.0959-.1597.1179-.0228.0166-.0452.0326-.0673.0482zm-.0926.064c.0303-.0204.0611-.0417.0926-.064.1406-.2487-.0422-.6789-.5215-1.1626l-.025.0172.416 1.2347.0266-.0177.0005.0015c-.0052.0043-.0106.0084-.0162.0124l.0231.008-.0069-.0204zm-.4029-1.1547c.493.5151.6326.9526.4029 1.1547l-.0113.0076zm0 0c-.0153-.0161-.031-.0322-.0471-.0484l.025-.0172zm.7507.9036-.0282.021.0022.0162.0183.0083.0344-.0256.0355-.0264c.032-.0309.0585-.0633.0795-.098l-.0325.0236-.0666.0493c.2071-.202.169-.4765-.1874-1.0344l-.0094-.0691-.0278.0116c.0128.0195.0252.0386.0372.0575zm.0007.0056c.0149-.0122.0289-.0245.0419-.0372l-.0332.0247-.0005.0003-.0089.0066zm0 0c-.0066.0054-.0134.0108-.0204.0161l.0241.0109zm.5106-1.0907.0505.7286c.0102-.0043.0203-.0084.0304-.0124.1876-.1216.1486-.4241-.0809-.7162zm0 0-.0037-.0539-.0313.0111c.0121.0142.0238.0285.035.0428z"/><path d="m31.785 21.4092c-.0731-.0325-.1496-.0641-.2304-.095l-.0048-.0277c.0197-.0178.0447-.0415.0704-.066.0353-.0336.072-.0685.0985-.0914.0402.0164.0792.0331.1174.05.297.1317.4269.211.8199.478.4713.3201.7972.47 1.4696.6178.7996.176 1.814.5563 2.289.8544l-.0679.2076c-.4656-.2788-1.4768-.6579-2.273-.8329-.6764-.1487-1.0056-.3002-1.4801-.6224-.3893-.2644-.5168-.3424-.8086-.4724zm-.2152-.098-.0047-.0276c.0082.0031.0163.0063.0245.0094-.007.0065-.0136.0126-.0198.0182zm.1551-.1563c-.0263.0318-.0882.094-.1353.1381.0723.0281.1413.0568.2074.0862.2939.1309.4226.2096.8133.475.4714.3202.7972.4701 1.4697.618.7992.1755 1.8133.5558 2.2594.8467l.0528-.1793c-.4647-.2784-1.4761-.6576-2.2728-.8329-.6763-.1487-1.0056-.3002-1.4799-.6223-.3916-.266-.5203-.3446-.8152-.4754-.0021-.0009-.0042-.0018-.0062-.0027-.0359-.0159-.0717-.0318-.0932-.0514z"/><path d="m37.9605 17.8435c.0001-.0002.0001-.0003.0001-.0005l-.0339-.0082-.1026.3408.0337.0091c.0001-.0002.0001-.0003.0002-.0005l.0001.0001.0012-.0041c.0385-.1165.0717-.2266.1003-.3331l.001-.0036zm0 0-.0338-.0083c-.029.1085-.0629.2209-.1023.3399l.0336.0091c.0004-.0013.0009-.0027.0013-.004l.1003-.3331c.0003-.0012.0006-.0024.0009-.0036zm-5.3524 2.7509c-.1243-.0488-.265-.1218-.4014-.2069l-.0067-.0191.0169-.055c.024-.0783.0515-.1681.0803-.2328.9397.3484 1.7785.8103 2.552 1.3645.3209.2298.5124.3221 1.0754.5521.2892.1182.4501.1938.6299.325l-.1925.3133c-.2403-.149-.8337-.4172-1.2738-.5873-.0017.0459-.0218.0986-.0589.1672-.0084.0156-.0173.0314-.0297.0528-.0578.0999-.0692.1212-.0793.1561-.012.0416-.0034.0632.0334.0748l-.0085.0312-.0003-.0001.0084-.0312-.0652-.0194c-.0055-.018-.0044-.0398.0028-.0648.0113-.0388.0227-.0602.0824-.1636.0123-.0211.0211-.0367.0293-.0519.041-.0759.0592-.1298.0542-.1726l.0204-.0173c.4436.1702 1.054.4454 1.2792.6038l.177-.2852c-.1725-.1078-.3322-.1829-.6199-.3004-.5652-.2309-.7582-.3239-1.0816-.5556-.7714-.5526-1.6079-1.0132-2.525-1.3722-.0154.0669-.047.1792-.074.2664l-.0107-.0067.0068.0192.0039-.0125c.1316.0813.2668.1514.3952.2176-.0046.0165-.0103.0333-.0171.0504-.0388.0979-.1057.195-.2166.3275l-.0535.063-.0001.0001-.0002.0002v.0001c-.0262.0307-.0535.0628-.0637.075-.0411.0495-.0691.0862-.0891.1183-.0455.0728-.0457.1131.0021.1377.0476.0253.1743.1062.3116.1969.0004.0243.01.0438.03.0582-.1532-.1019-.3037-.1986-.3551-.2259-.0688-.0354-.0684-.0979-.0142-.1848.021-.0337.0498-.0714.0918-.1219.0103-.0124.0379-.0448.0642-.0758l.0002-.0001v-.0001l.0531-.0625c.1088-.13.1742-.2248.2113-.3185l.001-.0025c.0059-.0151.0113-.0289.0243-.0247zm-.0741 1.0184.0163-.0274-.0488-.0324c-.0005-.0333.0164-.0757.0478-.1263.0404-.0652.0967-.1352.2038-.2588l.0138-.0158c.198-.2281.2584-.3085.2568-.363l.0202-.0159c.2476.0868.479.2122.7793.4082l.0108.0071v.0001c.0604.0402.3556.2366.4397.2888.1581.0979.2813.1594.4041.2117-.0134.0541-.0385.1134-.0756.1824-.0189.0351-.0398.0711-.0683.1179l-.0014.0024c-.0927.1525-.1111.1829-.1246.2153-.0034.0081-.0065.0163-.0103.0265l-.0005.0013c-.025.067-.0157.1004.0354.1139.0564.013.1499.0397.3062.0862l.012.0036.1064.0318.031.0092c.0071.0232.0251.0403.055.0501l-.0943-.028-.1064-.0318-.0119-.0036c-.1556-.0464-.2489-.0729-.3049-.0859-.0726-.0192-.088-.0743-.0569-.1574l.0008-.0022c.0041-.0109.0073-.0196.0109-.0282.0139-.0333.0329-.0645.1256-.2172l.0022-.0036c.0282-.0464.0488-.0818.0674-.1164.0128-.0239.0242-.0465.0345-.0672.0185-.037.0339-.0676.0489-.0876-.1151-.0334-.2405-.0959-.4007-.1952-.085-.0527-.3832-.2512-.4413-.2899l-.0098-.0065c-.2909-.1898-.5162-.3128-.7543-.3983-.0105.064-.0758.1474-.2634.3633l-.0137.0159c-.106.1222-.1616.1914-.2008.2546-.0468.0755-.0542.1211-.0246.1409l-.0163.0275zm0 0-.0025-.0016.0025.0017zm2.4091.9169.0018.0005zm4.1665-1.0451c.0221-.1966-.2049-.3337-.6269-.4218-.3375-.0704-.7901-.1064-1.2702-.1105l-.0039.032 1.8819.5141zm-.0291-.0225.0179.0049-.0191.0138c.0007-.0063.0011-.0126.0012-.0187zm-1.7402-.4755c.4303.0089.8314.0443 1.1366.108.3918.0818.6057.2053.6036.3675zm0 0c-.0424-.0008-.085-.0015-.1278-.0018l.0039-.032zm-.2175-.6141.0005-.0023-.0001-.0001.0001-.0007-.0345-.006c-.0362.1577-.0643.3202-.0848.4871l.0348.0044.0001-.0007h.0001l.0003-.0026zm0 0c-.0356.1551-.0632.315-.0835.4791l-.0004.0026-.0347-.0044.0846-.4856.0344.0059z"/><path d="m37.6645 19.2209c-.4861 1.1392-.6055 2.4765-.249 3.2751l-.0192.0222-.2272-.0938c-.1764-.4146-.2303-.9638-.1528-1.5561l-.0776-.0169c-.0638-.0135-.1139-.0223-.1626-.0276-.2134-.0234-.3355.0302-.3529.1993.004-.0448.0088-.0904.0146-.1368.0608-.0866.1783-.1128.3414-.0949.0499.0054.1009.0144.1656.0281.0177.0038.073.0159.0898.0346-.0647.6047-.0114 1.1482.1538 1.5483l.1839.0717c.005.0121.0102.024.0155.0358l.0191-.0222-.0346-.0136c-.3419-.812-.2181-2.1363.2643-3.2666.4661-1.0928.6101-2.0606.5676-3.1122.071.0013.1255-.0178.2369-.0732l.0054-.0026c.0305-.0153.0448-.0222.0623-.0302.4849-.2229.9252-.1914 1.2286.0287.2108.1529.3097.3748.2515.5258-.0258.0168-.0486.035-.0799.0616.1363-.1211.053-.385-.189-.5605-.2944-.2136-.7235-.2443-1.199-.0257-.0172.0078-.0312.0147-.0615.0297l-.0053.0027c-.1156.0574-.1734.0777-.235.059.0584 1.0394-.0864 2.0125-.5547 3.1103zm2.2426-2.6138.0193.0252c.0289-.025.0496-.055.0625-.0885.0416-.0272.0909-.0504.1959-.0986l.0204-.0096c.1694-.0782-.0656-.5916-.4924-.8064h-.0001c-.0032-.0016-.0066-.0033-.0099-.0049-.1963-.0929-.5762-.1077-.8484-.0484l-.0148-.0265c.2043-.2543.3479-.3461.642-.3805.0037.1123-.0231.2421-.068.3498l-.0208-.0027.0005.001.0114.0221c.003-.0065.0059-.0132.0087-.0199 0-.0002.0001-.0004.0002-.0005l.011.0014c.0879.0106.1456.0202.1949.0389.0304.0115.0575.0265.0866.0473.0023-.0042.0046-.0084.0068-.0127.0731-.1383.1113-.3246.1097-.5224.0811-.0232.1605-.0474.2739-.0831.3611-.1137.423-.1323.5766-.1681.219-.0511.4115-.0724.602-.0616.3724.0213.6448.1633.7227.3555.052.128.0086.2539-.1162.3499-.0291.0098-.0574.0194-.0842.0285-.0287.0097-.0556.0188-.0796.0269.2228-.0907.3132-.2411.2518-.3924-.0724-.1787-.3342-.3151-.6962-.3358-.1874-.0108-.3772.0103-.5937.0608-.1526.0355-.2143.054-.5744.1675-.1137.0358-.1933.0601-.2634.0664.0126.1822-.0239.3684-.112.5162.4434.2256.6915.7694.4877.8635l-.0207.0096c-.1684.0774-.1901.0889-.2706.1574l-.0193-.0252s.0001-.0001.0001-.0001zm1.7208-1.0231c-.0003.0001-.0005.0001-.0008.0002l-.0088-.0311c.0172-.006.0529-.0181.0995-.0339-.0304.0124-.0633.0237-.0987.0337zm.0006-.0002c-.0002.0001-.0004.0002-.0006.0002.0002-.0001.0004-.0001.0006-.0002zm.0961-.0327c.0616-.0249.1141-.0543.157-.0873.1572-.0532.3356-.1138.4001-.1375.2413-.0887.3967-.1665.5162-.2653.3032-.2502.1777-.7863-.3697-.9047-.6165-.1334-1.0231-.0822-1.8481.149l-.0568.0159c-.7353.2056-1.1261.257-1.674.1531-.377-.0714-.6503-.0694-.8431.0267-.2294.1142-.3349.363-.3013.7799.0014.0172.0023.0283.0031.0393.0016.02.003.04.0071.0961l.0005.0068c.0029.039.0053.0693.009.1121 0 .3023-.3575.4537-.6985.2599-.0177-.0223-.0357-.0462-.0541-.0719l-.021.0232c.0249.0182.0499.0344.0751.0487.1007.1267.1907.2007.2848.2391.0882.0361.1552.0414.3414.0377.03-.0006.0434-.0008.046.0146.0015-.0463.0312-.0665.0795-.0641.0333.0017.0701.0116.1389.0345l.009.0031c.1025.0343.1409.0431.1612.0325l.0221.0141c.0183.5896-.0282 1.1474-.1865 1.7473-.252-.1181-.4096-.124-.4638.0291-.0221.0745-.045.1472-.0691.2193-.0286.0214-.0505.0533-.0657.0963l.0288.0114c.0126-.0359.0249-.0717.0369-.1077.09-.0674.2458-.0321.4642.0823-.0907.313-.2076.6316-.3526.9565-.1735.3876-.3087.8098-.4116 1.2414-.331-.0874-.5498-.0818-.5815.0823-.0304.1484-.0539.2883-.0703.4215-.0245.0348-.0398.0793-.0453.1346-.0003.0032-.0005.0063-.0008.0095.0002-.0032.0005-.0063.0008-.0095.0156-.1752.0443-.3614.0855-.5627m-.0863.5722c0 .0003-.0001.0006-.0001.0009 0-.0003.0001-.0006.0001-.0009zm1.6873-4.9016c-.0293.0044-.0716-.0073-.1625-.0378l-.0091-.003c-.066-.0221-.1014-.0315-.1311-.033-.033-.0017-.0465.0075-.0625.0484l-.061.001c-.1901.0038-.2598-.0017-.353-.0398-.1165-.0476-.2258-.1457-.3523-.3216l.0209-.0232c.343.2505.7255.1107.7255-.183-.0036-.0415-.006-.072-.0089-.1112l-.0005-.0067c-.0041-.0561-.0055-.076-.0071-.096-.0008-.011-.0017-.022-.0031-.0391-.0346-.4294.0765-.6915.3188-.8122.2001-.0996.4788-.1017.8616-.0292.5424.1028.9295.052 1.6607-.1526l.0568-.0158c.8293-.2324 1.2398-.2842 1.8621-.1494.5729.1238.7065.6947.3825.9621-.1228.1015-.2809.1806-.5251.2703-.0769.0283-.3141.1085-.4856.1665-.0295.01-.057.0193-.0815.0276-.0447.0151-.0791.0268-.0961.0327m-2.2474-.0679c.0458-.1053.074-.2346.0877-.3303-.2557.0461-.3924.1277-.5772.3498.1516-.0277.3288-.0345.4895-.0195zm.526 1.0912v-.0001c.0006-.0005.0013-.001.0019-.0016-.0006.0006-.0013.0011-.0019.0017zm-3.5155 4.4242.0306.0027c.0003-.0037.0006-.0073.001-.0109-.0004.0037-.0007.0074-.001.0111l-.0306-.0028z"/></g></g></svg>