<svg fill="none" height="53" viewBox="0 0 61 53" width="61" xmlns="http://www.w3.org/2000/svg" xmlns:xlink="http://www.w3.org/1999/xlink"><mask id="a" height="43" maskUnits="userSpaceOnUse" width="59" x="1" y="3"><rect fill="#fff" height="41.4393" rx="3.7125" stroke="#fff" stroke-width="1.06071" width="57.9393" x="1.53036" y="3.53036"/></mask><rect fill="#fff" height="41.4393" rx="3.7125" stroke="#f5f5f5" stroke-width="1.06071" width="57.9393" x="1.53036" y="3.53036"/><g clip-rule="evenodd" fill-rule="evenodd" mask="url(#a)"><path d="m1 17.1667h59v-14.1667h-59z" fill="#df1e35"/><path d="m1 45.5h59v-14.1667h-59z" fill="#262626"/><g fill="#0f7a40"><path d="m40.3335 21.1485c0-.5267.5552-.8685 1.0255-.6314l1.3953.7035c.2384.1202.3887.3645.3887.6315v5.9408c0 .3905-.3166.7071-.7071.7071h-1.3953c-.3905 0-.7071-.3166-.7071-.7071z"/><path d="m23.4761 21.1485c0-.5267.5552-.8685 1.0255-.6314l1.3952.7035c.2384.1202.3888.3645.3888.6315v5.9408c0 .3905-.3166.7071-.7071.7071h-1.3953c-.3905 0-.7071-.3166-.7071-.7071z"/><path d="m34.7144 21.8521c0-.267.1503-.5113.3887-.6315l1.3953-.7035c.4703-.2371 1.0255.1047 1.0255.6314v6.6444c0 .3905-.3166.7071-.7072.7071h-1.3952c-.3905 0-.7071-.3166-.7071-.7071z"/><path d="m29.0952 24.6854c0-.267.1504-.5112.3888-.6314l1.3952-.7035c.4703-.2372 1.0255.1047 1.0255.6314v1.8117h4.2143v2.7064h-4.2143-2.1023c-.3906 0-.7072-.3166-.7072-.7071z"/><path d="m17.8574 24.6854c0-.267.1504-.5112.3888-.6314l1.3952-.7035c.4703-.2372 1.0255.1047 1.0255.6314v1.8117h4.2143v2.7064h-4.2143-2.1023c-.3906 0-.7072-.3166-.7072-.7071z"/></g></g></svg>