<svg fill="none" height="53" viewBox="0 0 61 53" width="61" xmlns="http://www.w3.org/2000/svg" xmlns:xlink="http://www.w3.org/1999/xlink"><mask id="a" height="43" maskUnits="userSpaceOnUse" width="59" x="1" y="3"><rect fill="#fff" height="41.4393" rx="3.7125" stroke="#fff" stroke-width="1.06071" width="57.9393" x="1.53036" y="3.53036"/></mask><mask id="b" fill="#fff"><path clip-rule="evenodd" d="m27.6627 21.1074c-.8461.7773-1.3771 1.8974-1.3771 3.1426 0 2.3472 1.8868 4.25 4.2143 4.25 2.3275 0 4.2143-1.9028 4.2143-4.25 0-1.2217-.5111-2.3229-1.3295-3.0982" fill="#fff" fill-rule="evenodd"/></mask><rect fill="#fff" height="41.4393" rx="3.7125" stroke="#f5f5f5" stroke-width="1.06071" width="57.9393" x="1.53036" y="3.53036"/><g mask="url(#a)"><g clip-rule="evenodd" fill-rule="evenodd"><path d="m1 17.1667h59v-14.1667h-59z" fill="#38bb56"/><path d="m1 45.5h59v-14.1667h-59z" fill="#de1b27"/><path d="m4.51671 14.3333c-.39054 0-.70714.3166-.70714.7072v1.419c0 .3905.3166.7071.70714.7071h1.39524c.39055 0 .70714-.3166.70714-.7071v-1.419c0-.3906-.31659-.7072-.70714-.7072zm5.61899 0c-.3905 0-.70709.3166-.70709.7072v1.419c0 .3905.31659.7071.70709.7071h1.3953c.3905 0 .7071-.3166.7071-.7071v-1.419c0-.3906-.3166-.7072-.7071-.7072zm4.9119.7072c0-.3906.3166-.7072.7071-.7072h1.3953c.3905 0 .7071.3166.7071.7072v1.419c0 .3905-.3166.7071-.7071.7071h-1.3953c-.3905 0-.7071-.3166-.7071-.7071zm6.3264-.7072c-.3906 0-.7072.3166-.7072.7072v1.419c0 .3905.3166.7071.7072.7071h1.3952c.3906 0 .7072-.3166.7072-.7071v-1.419c0-.3906-.3166-.7072-.7072-.7072zm4.9118.7072c0-.3906.3166-.7072.7072-.7072h1.3952c.3906 0 .7072.3166.7072.7072v1.419c0 .3905-.3166.7071-.7072.7071h-1.3952c-.3906 0-.7072-.3166-.7072-.7071zm6.3262-.7072c-.3906 0-.7072.3166-.7072.7072v1.419c0 .3905.3166.7071.7072.7071h1.3952c.3906 0 .7071-.3166.7071-.7071v-1.419c0-.3906-.3165-.7072-.7071-.7072zm4.9118.7072c0-.3906.3166-.7072.7072-.7072h1.3952c.3905 0 .7071.3166.7071.7072v1.419c0 .3905-.3166.7071-.7071.7071h-1.3952c-.3906 0-.7072-.3166-.7072-.7071zm6.3264-.7072c-.3905 0-.7071.3166-.7071.7072v1.419c0 .3905.3166.7071.7071.7071h1.3952c.3906 0 .7072-.3166.7072-.7071v-1.419c0-.3906-.3166-.7072-.7072-.7072zm4.9119.7072c0-.3906.3165-.7072.7071-.7072h1.3952c.3906 0 .7072.3166.7072.7072v1.419c0 .3905-.3166.7071-.7072.7071h-1.3952c-.3905 0-.7071-.3166-.7071-.7071zm6.3261-.7072c-.3906 0-.7072.3166-.7072.7072v1.419c0 .3905.3166.7071.7072.7071h1.3952c.3906 0 .7072-.3166.7072-.7071v-1.419c0-.3906-.3166-.7072-.7072-.7072zm-51.27858 17.7072c0-.3906.3166-.7072.70714-.7072h1.39524c.39054 0 .70714.3166.70714.7072v1.419c0 .3906-.3166.7072-.70714.7072h-1.39524c-.39054 0-.70714-.3166-.70714-.7072zm6.32608-.7072c-.3905 0-.70709.3166-.70709.7072v1.419c0 .3906.31659.7072.70709.7072h1.3953c.3905 0 .7071-.3166.7071-.7072v-1.419c0-.3906-.3166-.7072-.7071-.7072zm4.9119.7072c0-.3906.3166-.7072.7071-.7072h1.3953c.3905 0 .7071.3166.7071.7072v1.419c0 .3906-.3166.7072-.7071.7072h-1.3953c-.3905 0-.7071-.3166-.7071-.7072zm6.3264-.7072c-.3906 0-.7072.3166-.7072.7072v1.419c0 .3906.3166.7072.7072.7072h1.3952c.3906 0 .7072-.3166.7072-.7072v-1.419c0-.3906-.3166-.7072-.7072-.7072zm4.9118.7072c0-.3906.3166-.7072.7072-.7072h1.3952c.3906 0 .7072.3166.7072.7072v1.419c0 .3906-.3166.7072-.7072.7072h-1.3952c-.3906 0-.7072-.3166-.7072-.7072zm6.3262-.7072c-.3906 0-.7072.3166-.7072.7072v1.419c0 .3906.3166.7072.7072.7072h1.3952c.3906 0 .7071-.3166.7071-.7072v-1.419c0-.3906-.3165-.7072-.7071-.7072zm4.9118.7072c0-.3906.3166-.7072.7072-.7072h1.3952c.3905 0 .7071.3166.7071.7072v1.419c0 .3906-.3166.7072-.7071.7072h-1.3952c-.3906 0-.7072-.3166-.7072-.7072zm6.3264-.7072c-.3905 0-.7071.3166-.7071.7072v1.419c0 .3906.3166.7072.7071.7072h1.3952c.3906 0 .7072-.3166.7072-.7072v-1.419c0-.3906-.3166-.7072-.7072-.7072zm4.9119.7072c0-.3906.3165-.7072.7071-.7072h1.3952c.3906 0 .7072.3166.7072.7072v1.419c0 .3906-.3166.7072-.7072.7072h-1.3952c-.3905 0-.7071-.3166-.7071-.7072zm6.3261-.7072c-.3906 0-.7072.3166-.7072.7072v1.419c0 .3906.3166.7072.7072.7072h1.3952c.3906 0 .7072-.3166.7072-.7072v-1.419c0-.3906-.3166-.7072-.7072-.7072z" fill="#fff" fill-opacity=".5"/></g><path d="m26.7058 20.066c-1.1268 1.0353-1.8344 2.5286-1.8344 4.184h2.8285c0-.835.3544-1.5818.9196-2.1011zm-1.8344 4.184c0 3.117 2.5087 5.6643 5.6285 5.6643v-2.8286c-1.5351 0-2.8-1.2583-2.8-2.8357zm5.6285 5.6643c3.1198 0 5.6286-2.5473 5.6286-5.6643h-2.8286c0 1.5774-1.2648 2.8357-2.8 2.8357zm5.6286-5.6643c0-1.624-.6811-3.0923-1.7711-4.1249l-1.9453 2.0534c.5467.5179.8878 1.2522.8878 2.0715z" fill="#d80915" mask="url(#b)"/><rect fill="#d80915" height="5.66667" rx="1.40476" width="2.80952" x="29.0952" y="22.8333"/></g></svg>