<svg fill="none" height="53" viewBox="0 0 61 53" width="61" xmlns="http://www.w3.org/2000/svg" xmlns:xlink="http://www.w3.org/1999/xlink"><mask id="a" height="43" maskUnits="userSpaceOnUse" width="59" x="0" y="3"><rect fill="#fff" height="41.4393" rx="3.7125" stroke="#fff" stroke-width="1.06071" width="57.9393" x=".530357" y="3.53036"/></mask><mask id="b" height="12" maskUnits="userSpaceOnUse" width="10" x="26" y="8"><path clip-rule="evenodd" d="m26.6904 13.9791c0-.7895 0-1.6703 0-2.4841 0-1.56213 1.2664-2.82837 2.8286-2.82837h2.7714c1.5622 0 2.8286 1.26624 2.8286 2.82837v2.4841c0 3.7947-4.2143 5.3125-4.2143 5.3125s-4.2143-1.5178-4.2143-5.3125z" fill="#fff" fill-rule="evenodd"/></mask><rect fill="#fff" height="41.4393" rx="3.7125" stroke="#f5f5f5" stroke-width="1.06071" width="57.9393" x=".530357" y="3.53036"/><g mask="url(#a)"><path d="m0 0h5.65105v104.243h-5.65105z" fill="#e3243b" transform="matrix(.570329 -.821417 .816868 .576824 -13.2993 -2.48846)"/><path d="m0 0h5.65105v104.243h-5.65105z" fill="#e3243b" transform="matrix(-.570329 -.821417 -.816868 .576825 75.0767 -2.48846)"/><path clip-rule="evenodd" d="m33.1681 8.66664h-4.5266l.1839-.1088-2.0793-1.2109 2.6884.30273-.378-1.81636 1.8483 1.51363 1.8483-1.51363-.378 1.81636 2.6884-.30273-2.0794 1.2109z" fill="#faef32" fill-rule="evenodd"/><path clip-rule="evenodd" d="m26.6904 13.9791c0-.7895 0-1.6703 0-2.4841 0-1.56213 1.2664-2.82837 2.8286-2.82837h2.7714c1.5622 0 2.8286 1.26624 2.8286 2.82837v2.4841c0 3.7947-4.2143 5.3125-4.2143 5.3125s-4.2143-1.5178-4.2143-5.3125z" fill="#e3243b" fill-rule="evenodd"/><g fill="#faef32" mask="url(#b)"><rect height="1.41667" rx=".70238" width="1.40476" x="30.2024" y="17.1667"/><rect height="1.41667" rx=".708333" width="5.61905" x="28.0952" y="14.3333"/><rect height="1.41667" rx=".708334" width="5.61905" x="28.0952" y="11.4999"/></g></g></svg>