<svg width="61" height="53" viewBox="0 0 61 53" fill="none" xmlns="http://www.w3.org/2000/svg">
<rect x="1" y="3" width="59" height="42.5" rx="4.24286" fill="white"/>
<mask id="mask0" mask-type="alpha" maskUnits="userSpaceOnUse" x="1" y="3" width="59" height="43">
<rect x="1" y="3" width="59" height="42.5" rx="4.24286" fill="white"/>
</mask>
<g mask="url(#mask0)">
<rect x="1" y="3" width="59" height="42.5" fill="#1DBE4F"/>
<path fill-rule="evenodd" clip-rule="evenodd" d="M1 3L26.2857 24.25L1 45.5V3Z" fill="#262626"/>
<path fill-rule="evenodd" clip-rule="evenodd" d="M60 3L34.7143 24.25L60 45.5V3Z" fill="#262626"/>
<path fill-rule="evenodd" clip-rule="evenodd" d="M25.4757 24.25L-4.84448 44.8746L-1.70235 49.5724L30.5 27.6676L62.7023 49.5725L65.8445 44.8746L35.5242 24.25L65.8445 3.62543L62.7023 -1.07245L30.5 20.8324L-1.70235 -1.07242L-4.84448 3.62546L25.4757 24.25Z" fill="#FFD646"/>
</g>
</svg>
