<svg fill="none" height="53" viewBox="0 0 63 53" width="63" xmlns="http://www.w3.org/2000/svg" xmlns:xlink="http://www.w3.org/1999/xlink"><mask id="a" height="43" maskUnits="userSpaceOnUse" width="59" x="4" y="3"><rect fill="#fff" height="41.4393" rx="3.7125" stroke="#fff" stroke-width="1.06071" width="57.9393" x="4.53036" y="3.53036"/></mask><rect fill="#fff" height="41.4393" rx="3.7125" stroke="#f5f5f5" stroke-width="1.06071" width="57.9393" x="4.53036" y="3.53036"/><g clip-rule="evenodd" fill-rule="evenodd" mask="url(#a)"><path d="m4 45.5h59v-14.1667h-59z" fill="#199e56"/><path d="m4 17.1667h59v-14.1667h-59z" fill="#262626"/><path d="m4 3 28.0952 21.25-28.0952 21.25z" fill="#e6223a"/><path d="m13.8334 26.375-1.8285 1.7041.1811-2.5042-2.4612-.3792 2.0543-1.4186-1.2405-2.1769 2.3806.7352.9142-2.3354.9143 2.3354 2.3806-.7352-1.2406 2.1769 2.0544 1.4186-2.4612.3792.181 2.5042z" fill="#fff"/></g></svg>