<svg fill="none" height="53" viewBox="0 0 61 53" width="61" xmlns="http://www.w3.org/2000/svg" xmlns:xlink="http://www.w3.org/1999/xlink"><filter id="a" color-interpolation-filters="sRGB" filterUnits="userSpaceOnUse" height="33.288" width="2.80953" x="29.0955" y="8.66669"><feFlood flood-opacity="0" result="BackgroundImageFix"/><feColorMatrix in="SourceAlpha" type="matrix" values="0 0 0 0 0 0 0 0 0 0 0 0 0 0 0 0 0 0 127 0"/><feOffset dy="2.12143"/><feColorMatrix type="matrix" values="0 0 0 0 0 0 0 0 0 0 0 0 0 0 0 0 0 0 0.06 0"/><feBlend in2="BackgroundImageFix" mode="normal" result="effect1_dropShadow"/><feBlend in="SourceGraphic" in2="effect1_dropShadow" mode="normal" result="shape"/></filter><linearGradient id="b" gradientUnits="userSpaceOnUse" x1="29.0955" x2="29.0955" y1="8.66669" y2="39.8334"><stop offset="0" stop-color="#fff"/><stop offset="1" stop-color="#f0f0f0"/></linearGradient><mask id="c" height="43" maskUnits="userSpaceOnUse" width="59" x="1" y="3"><rect fill="#fff" height="42.5" rx="4.24286" width="59" x="1" y="3"/></mask><mask id="d" height="29" maskUnits="userSpaceOnUse" width="15" x="23" y="10"><path clip-rule="evenodd" d="m30.5001 38.4167c2.8096 0 7.0238-5.5602 7.0238-14.1667 0-8.6064-4.2142-14.1666-7.0238-14.1666-2.8095 0-7.0238 5.5602-7.0238 14.1666 0 8.6065 4.2143 14.1667 7.0238 14.1667z" fill="#fff" fill-rule="evenodd"/></mask><rect fill="#fff" height="42.5" rx="4.24286" width="59" x="1" y="3"/><g mask="url(#c)"><g clip-rule="evenodd" fill-rule="evenodd"><path d="m1 14.3333h59v-11.3333h-59z" fill="#262626"/><path d="m1 45.5h59v-11.3334h-59z" fill="#018301"/><path d="m1 34.1666h59v-19.8333h-59z" fill="#fff"/><path d="m1 31.3334h59v-14.1667h-59z" fill="#dc0808"/><path d="m30.5001 38.4167c2.8096 0 7.0238-5.5602 7.0238-14.1667 0-8.6064-4.2142-14.1666-7.0238-14.1666-2.8095 0-7.0238 5.5602-7.0238 14.1666 0 8.6065 4.2143 14.1667 7.0238 14.1667z" fill="#bc0000"/></g><g mask="url(#d)"><path clip-rule="evenodd" d="m19.2621 39.8334c3.8791 0 7.0238-6.9769 7.0238-15.5834 0-8.6064-3.1447-15.58331-7.0238-15.58331-3.8792 0-7.0238 6.97691-7.0238 15.58331 0 8.6065 3.1446 15.5834 7.0238 15.5834z" fill="#262626" fill-rule="evenodd"/><path clip-rule="evenodd" d="m41.7382 39.8334c3.8791 0 7.0238-6.9769 7.0238-15.5834 0-8.6064-3.1447-15.58331-7.0238-15.58331-3.8792 0-7.0238 6.97691-7.0238 15.58331 0 8.6065 3.1446 15.5834 7.0238 15.5834z" fill="#262626" fill-rule="evenodd"/><g filter="url(#a)"><path clip-rule="evenodd" d="m30.5019 20c.775-.0036 1.4031-2.5392 1.4031-5.6666 0-3.1297-.6289-5.66671-1.4048-5.66671-.7758 0-1.4047 2.53701-1.4047 5.66671 0 3.1273.628 5.663 1.4031 5.6666-.7751.0027-1.4031 1.9045-1.4031 4.25 0 2.3431.6267 4.2433 1.4006 4.25-.7739.009-1.4006 2.5426-1.4006 5.6666 0 3.1297.6289 5.6667 1.4047 5.6667s1.4048-2.537 1.4048-5.6667c0-3.124-.6267-5.6576-1.4006-5.6666.7739-.0067 1.4006-1.9069 1.4006-4.25 0-2.3455-.6281-4.2473-1.4031-4.25z" fill="url(#b)" fill-rule="evenodd"/></g></g></g></svg>