<svg fill="none" height="53" viewBox="0 0 61 53" width="61" xmlns="http://www.w3.org/2000/svg" xmlns:xlink="http://www.w3.org/1999/xlink"><mask id="a" height="43" maskUnits="userSpaceOnUse" width="59" x="1" y="3"><rect fill="#fff" height="42.5" rx="4.24286" width="59" x="1" y="3"/></mask><rect fill="#fff" height="42.5" rx="4.24286" width="59" x="1" y="3"/><g mask="url(#a)"><path d="m1 3h59v42.5h-59z" fill="#f22a46"/><g clip-rule="evenodd" fill="#fff04d" fill-rule="evenodd"><path d="m30.5001 31.3334c3.8792 0 7.0238-3.1714 7.0238-7.0834s-3.1446-7.0833-7.0238-7.0833c-3.8791 0-7.0238 3.1713-7.0238 7.0833s3.1447 7.0834 7.0238 7.0834z"/><path d="m27.0615 39.4426 3.4385-5.1762 3.4385 5.1762.8709-6.1681 5.325 3.159-1.8691-5.9384 6.1568.5163-4.2389-4.5325 5.7692-2.2289-5.7692-2.2289 4.2389-4.5325-6.1568.5163 1.8691-5.9384-5.325 3.159-.8709-6.16813-3.4385 5.17623-3.4385-5.17623-.871 6.16813-5.3249-3.159 1.869 5.9384-6.1567-.5163 4.2389 4.5325-5.7692 2.2289 5.7692 2.2289-4.2389 4.5325 6.1567-.5163-1.869 5.9384 5.3249-3.159zm13.2718-15.1926c0 5.4768-4.4025 9.9166-9.8333 9.9166s-9.8333-4.4398-9.8333-9.9166c0-5.4769 4.4025-9.9167 9.8333-9.9167s9.8333 4.4398 9.8333 9.9167z"/></g></g></svg>