<svg fill="none" height="53" viewBox="0 0 61 53" width="61" xmlns="http://www.w3.org/2000/svg" xmlns:xlink="http://www.w3.org/1999/xlink"><mask id="a" height="43" maskUnits="userSpaceOnUse" width="59" x="1" y="3"><rect fill="#fff" height="42.5" rx="4.24286" width="59" x="1" y="3"/></mask><rect fill="#fff" height="42.5" rx="4.24286" width="59" x="1" y="3"/><g clip-rule="evenodd" fill-rule="evenodd" mask="url(#a)"><path d="m1 14.3333h59v-11.3333h-59z" fill="#0f3eb6"/><path d="m1 45.5h59v-11.3334h-59z" fill="#0f3eb6"/><path d="m1 34.1666h59v-19.8333h-59z" fill="#ed1a3c"/><path d="m26.2858 21.5453h2.8095v-1.5572c0-.7759.6289-1.4048 1.4047-1.4048.7759 0 1.4048.6289 1.4048 1.4048v1.5572h2.8095v2.7047h-8.4285zm11.2381-1.5453c-.7758 0-1.4048.6289-1.4048 1.4047v2.8453h2.8095v-2.8453c0-.7758-.6289-1.4047-1.4047-1.4047zm-12.6429 5.6667h-2.8095l-2.8095 5.6666h5.619zm1.4048 0v5.6666h8.4285v-5.6666zm9.8333 5.6666v-5.6666h2.8095l2.8096 5.6666zm-12.6429-11.3333c-.7758 0-1.4047.6289-1.4047 1.4047v2.8453h2.8095v-2.8453c0-.7758-.629-1.4047-1.4048-1.4047z" fill="#fff"/></g></svg>