<svg fill="none" height="53" viewBox="0 0 65 53" width="65" xmlns="http://www.w3.org/2000/svg" xmlns:xlink="http://www.w3.org/1999/xlink"><mask id="a" height="43" maskUnits="userSpaceOnUse" width="59" x="6" y="3"><rect fill="#fff" height="41.4393" rx="3.7125" stroke="#fff" stroke-width="1.06071" width="57.9393" x="6.53036" y="3.53036"/></mask><rect fill="#fff" height="41.4393" rx="3.7125" stroke="#f5f5f5" stroke-width="1.06071" width="57.9393" x="6.53036" y="3.53036"/><g clip-rule="evenodd" fill-rule="evenodd" mask="url(#a)"><path d="m6 14.3333h59v-11.3333h-59z" fill="#ffcb49"/><path d="m6 34.1667h59v-11.3333h-59z" fill="#dc1d34"/><path d="m6 45.5h59v-11.3334h-59z" fill="#4985d4"/><path d="m6 45.5 28.0952-21.25-28.0952-21.25z" fill="#4ba343"/><path d="m17.2381 32.75c.7276 0 1.4337-.093 2.1072-.2678-3.6354-.9436-6.3215-4.2715-6.3215-8.2322s2.6861-7.2886 6.3215-8.2322c-.6735-.1748-1.3796-.2678-2.1072-.2678-4.6549 0-8.42853 3.8056-8.42853 8.5s3.77363 8.5 8.42853 8.5zm5.6191-14.1667c0 .7824-.6289 1.4167-1.4048 1.4167-.7758 0-1.4047-.6343-1.4047-1.4167s.6289-1.4166 1.4047-1.4166c.7759 0 1.4048.6342 1.4048 1.4166zm-1.4048 7.0834c.7759 0 1.4048-.6343 1.4048-1.4167s-.6289-1.4166-1.4048-1.4166c-.7758 0-1.4047.6342-1.4047 1.4166s.6289 1.4167 1.4047 1.4167zm1.4048 4.25c0 .7824-.6289 1.4166-1.4048 1.4166-.7758 0-1.4047-.6342-1.4047-1.4166s.6289-1.4167 1.4047-1.4167c.7759 0 1.4048.6343 1.4048 1.4167z" fill="#fff"/></g></svg>