<svg fill="none" height="53" viewBox="0 0 61 53" width="61" xmlns="http://www.w3.org/2000/svg" xmlns:xlink="http://www.w3.org/1999/xlink"><mask id="a" height="43" maskUnits="userSpaceOnUse" width="59" x="1" y="3"><rect fill="#fff" height="42.5" rx="4.24286" width="59" x="1" y="3"/></mask><rect fill="#fff" height="42.5" rx="4.24286" width="59" x="1" y="3"/><g clip-rule="evenodd" fill-rule="evenodd" mask="url(#a)"><path d="m1 31.3333 59-28.3333h-59z" fill="#1ec160"/><path d="m1 45.5h59v-28.3333z" fill="#df2a40"/><path d="m2.65183 56.8334 69.09577-43.5417-13.3994-21.6252-69.0958 43.5417z" fill="#ffd956"/><path d="m-.325916 52.0278 69.095716-43.54168-7.4441-12.01401-69.09572 43.54169z" fill="#262626"/><g fill="#fff"><path d="m43.7948 19.5696-1.9921 3.1819-1.2926-3.5301-3.6163-.9274 2.9296-2.3306-.2429-3.755 3.1032 2.0896 3.4662-1.3933-1.0117 3.6221 2.3851 2.8939z"/><path d="m21.3185 33.3112-1.9921 3.1819-1.2926-3.53-3.6163-.9274 2.9296-2.3306-.2429-3.7551 3.1032 2.0897 3.4662-1.3934-1.0117 3.6221 2.3851 2.8939z"/></g></g></svg>