<svg fill="none" height="53" viewBox="0 0 61 53" width="61" xmlns="http://www.w3.org/2000/svg" xmlns:xlink="http://www.w3.org/1999/xlink"><mask id="a" height="43" maskUnits="userSpaceOnUse" width="59" x="1" y="3"><rect fill="#fff" height="42.5" rx="4.24286" width="59" x="1" y="3"/></mask><rect fill="#fff" height="42.5" rx="4.24286" width="59" x="1" y="3"/><g clip-rule="evenodd" fill-rule="evenodd" mask="url(#a)"><path d="m1 11.5h59v-8.5h-59z" fill="#1461b6"/><path d="m1 45.5h59v-8.5h-59z" fill="#1461b6"/><path d="m1 37h59v-25.5h-59z" fill="#fff"/><path d="m1 34.1666h59v-19.8333h-59z" fill="#f53846"/><path d="m29.0952 24.25c0 3.912-3.1446 7.0834-7.0238 7.0834-3.8791 0-7.0238-3.1714-7.0238-7.0834s3.1447-7.0833 7.0238-7.0833l-1.6566 4.7838-5.0234.1107 3.9995 3.0672-1.448 4.8522 4.1285-2.8882 4.1285 2.8882-1.448-4.8522 3.9996-3.0672-5.0234-.1107-1.6567-4.7838c3.8792 0 7.0238 3.1713 7.0238 7.0833z" fill="#fff"/></g></svg>