<svg fill="none" height="53" viewBox="0 0 61 53" width="61" xmlns="http://www.w3.org/2000/svg" xmlns:xlink="http://www.w3.org/1999/xlink"><mask id="a" height="43" maskUnits="userSpaceOnUse" width="59" x="1" y="3"><rect fill="#fff" height="41.4393" rx="3.7125" stroke="#fff" stroke-width="1.06071" width="57.9393" x="1.53036" y="3.53036"/></mask><mask id="b" height="21" maskUnits="userSpaceOnUse" width="21" x="20" y="14"><path clip-rule="evenodd" d="m30.5001 34.1666c5.4308 0 9.8333-4.4398 9.8333-9.9166s-4.4025-9.9167-9.8333-9.9167-9.8334 4.4399-9.8334 9.9167 4.4026 9.9166 9.8334 9.9166z" fill="#fff" fill-rule="evenodd"/></mask><rect fill="#fff" height="41.4393" rx="3.7125" stroke="#f5f5f5" stroke-width="1.06071" width="57.9393" x="1.53036" y="3.53036"/><g mask="url(#a)"><path clip-rule="evenodd" d="m30.5001 34.1666c5.4308 0 9.8333-4.4398 9.8333-9.9166s-4.4025-9.9167-9.8333-9.9167-9.8334 4.4399-9.8334 9.9167 4.4026 9.9166 9.8334 9.9166z" fill="#e01b41" fill-rule="evenodd"/><g mask="url(#b)"><path clip-rule="evenodd" d="m20.6666 25.6666c2.8096 2.6563 7.0239 4.25 9.8334 0s8.4285-4.25 9.8333 0 0 8.5 0 8.5h-19.6667s-2.8095-11.1562 0-8.5z" fill="#0e4b9c" fill-rule="evenodd"/></g><path clip-rule="evenodd" d="m44.8192 11.0052c-.3375.1965-.4538.6306-.2598.9695l3.5116 6.1338c.1941.339.625.4544.9625.2579l1.2109-.705c.3375-.1965.4538-.6306.2598-.9695l-3.5116-6.1339c-.1941-.3389-.625-.4544-.9625-.2578zm-3.6496 2.125c-.3375.1965-.4538.6306-.2597.9695l3.5116 6.1338c.194.339.6249.4544.9624.2579l1.2109-.705c.3375-.1966.4538-.6306.2598-.9695l-3.5116-6.1339c-.1941-.3389-.625-.4544-.9625-.2579zm-30.6738 18.6779c-.1941-.339-.0778-.773.2597-.9695l1.2109-.7051c.3376-.1965.7685-.081.9625.2579l3.5116 6.1338c.194.339.0777.773-.2598.9695l-1.2109.7051c-.3375.1965-.7684.081-.9624-.2579zm3.9094-3.0945c-.3375.1965-.4538.6305-.2597.9695l3.5116 6.1338c.194.3389.6249.4544.9624.2579l1.2109-.7051c.3375-.1965.4538-.6305.2598-.9695l-3.5116-6.1338c-.194-.3389-.6249-.4544-.9624-.2579zm30.0162-.4473c.1941-.3389.625-.4543.9625-.2578l1.2109.705c.3375.1965.4538.6306.2598.9695l-3.5117 6.1339c-.194.3389-.6249.4543-.9624.2578l-1.2109-.705c-.3375-.1965-.4538-.6306-.2598-.9695zm4.6122 1.8672c-.3375-.1965-.7684-.081-.9625.2579l-3.5116 6.1338c-.194.339-.0777.773.2598.9695l1.2109.7051c.3375.1965.7684.081.9624-.2579l3.5117-6.1338c.194-.339.0777-.773-.2598-.9695zm-35.0261-19.5755c.194-.3389.6249-.4544.9624-.2578l1.2109.705c.3375.1965.4538.6306.2598.9695l-3.5116 6.1338c-.1941.339-.625.4544-.9625.2579l-1.2109-.705c-.3375-.1965-.4538-.6306-.2597-.9695zm4.6121 1.8671c-.3375-.1965-.7684-.081-.9624.2579l-3.5116 6.1339c-.1941.3389-.0778.773.2597.9695l1.2109.705c.3375.1965.7684.0811.9625-.2579l3.5116-6.1338c.194-.3389.0777-.773-.2598-.9695z" fill="#262626" fill-rule="evenodd" opacity=".75"/></g></svg>