<svg fill="none" height="53" viewBox="0 0 61 53" width="61" xmlns="http://www.w3.org/2000/svg" xmlns:xlink="http://www.w3.org/1999/xlink"><linearGradient id="a" gradientUnits="userSpaceOnUse" x1="37.5239" x2="37.5239" y1="14.3333" y2="34.1666"><stop offset="0" stop-color="#fff"/><stop offset="1" stop-color="#f0f0f0"/></linearGradient><mask id="b" height="43" maskUnits="userSpaceOnUse" width="59" x="1" y="3"><rect fill="#fff" height="42.5" rx="4.24286" width="59" x="1" y="3"/></mask><mask id="c" height="21" maskUnits="userSpaceOnUse" width="15" x="37" y="14"><path clip-rule="evenodd" d="m37.5239 24.25c0-4.25 0-9.9167 0-9.9167h14.0476v9.9167c0 7.0833-7.0238 9.9166-7.0238 9.9166s-7.0238-2.8333-7.0238-9.9166z" fill="#fff" fill-rule="evenodd"/></mask><rect fill="#fff" height="42.5" rx="4.24286" width="59" x="1" y="3"/><g mask="url(#b)"><path d="m1 3h59v42.5h-59z" fill="#07319c"/><g clip-rule="evenodd" fill-rule="evenodd"><path d="m44.5475 17.1667c2.3275 0 4.2143-1.2686 4.2143-2.8334s-1.8868-2.8333-4.2143-2.8333c-2.3274 0-4.2142 1.2685-4.2142 2.8333s1.8868 2.8334 4.2142 2.8334z" fill="#fad051"/><path d="m37.5239 24.25c0-4.25 0-9.9167 0-9.9167h14.0476v9.9167c0 7.0833-7.0238 9.9166-7.0238 9.9166s-7.0238-2.8333-7.0238-9.9166z" fill="url(#a)"/><g mask="url(#c)"><path d="m37.5239 14.3333h14.0476v2.8333h-5.619-2.8095-5.6191z" fill="#cf142c"/><path d="m51.5715 19.9999h-14.0476v2.8334h5.6191 2.8095 5.619zm-14.0476 5.6667h14.0477v2.8333h-5.6191-2.8095-5.6191zm0 5.6667h14.0477v2.8333h-5.6191-2.8095-5.6191z" fill="#125fba"/></g></g><path d="m1 2.29286h-1.899402l1.436963 1.24212 9.588639 8.28852v2.1477l-9.539515 6.8717-.293828.2116v.3622 1.4166 1.2816l1.084203-.6833 11.06534-6.9745h2.377l9.526 6.862c.1998.1439.4399.2214.6862.2214 1.0876 0 1.5906-1.3511.7678-2.0623l-8.6399-7.4683v-2.1478l9.2457-6.66c.369-.26579.5877-.6928.5877-1.14756v-1.05454-1.2816l-1.0842.68337-11.0653 6.97442h-2.3771l-9.64822-6.94997-.18514-.13336h-.22818z" fill="#db1e36" stroke="#fff" stroke-width="1.41429"/><path clip-rule="evenodd" d="m1 10.0833v5.6667h9.8333v7.0857c0 .7811.6332 1.4143 1.4143 1.4143h2.7905c.7811 0 1.4143-.6332 1.4143-1.4143v-7.0857h9.8238c.7811 0 1.4143-.6332 1.4143-1.4143v-2.8381c0-.7811-.6332-1.4143-1.4143-1.4143h-9.8238v-7.0833h-5.6191v7.0833z" fill="#fff" fill-rule="evenodd"/><path clip-rule="evenodd" d="m1 11.5h11.2381v-1.4167-7.0833h2.8095v7.0833 1.4167h11.2381v2.8333h-11.2381v1.4167 7.0833h-2.8095v-7.0833-1.4167h-11.2381z" fill="#db1e36" fill-rule="evenodd"/></g></svg>