<svg width="61" height="53" viewBox="0 0 61 53" fill="none" xmlns="http://www.w3.org/2000/svg">
<rect x="1" y="3" width="59" height="42.5" rx="4.24286" fill="white"/>
<mask id="mask0" mask-type="alpha" maskUnits="userSpaceOnUse" x="1" y="3" width="59" height="43">
<rect x="1" y="3" width="59" height="42.5" rx="4.24286" fill="white"/>
</mask>
<g mask="url(#mask0)">
<rect x="1" y="3" width="59" height="42.5" fill="#07319C"/>
<path fill-rule="evenodd" clip-rule="evenodd" d="M44.5475 17.1667C46.875 17.1667 48.7618 15.8981 48.7618 14.3333C48.7618 12.7685 46.875 11.5 44.5475 11.5C42.2201 11.5 40.3333 12.7685 40.3333 14.3333C40.3333 15.8981 42.2201 17.1667 44.5475 17.1667Z" fill="#FAD051"/>
<path fill-rule="evenodd" clip-rule="evenodd" d="M37.5239 24.25C37.5239 20 37.5239 14.3333 37.5239 14.3333H51.5715C51.5715 14.3333 51.5715 20 51.5715 24.25C51.5715 31.3333 44.5477 34.1666 44.5477 34.1666C44.5477 34.1666 37.5239 31.3333 37.5239 24.25Z" fill="url(#paint0_linear)"/>
<mask id="mask1" mask-type="alpha" maskUnits="userSpaceOnUse" x="37" y="14" width="15" height="21">
<path fill-rule="evenodd" clip-rule="evenodd" d="M37.5239 24.25C37.5239 20 37.5239 14.3333 37.5239 14.3333H51.5715C51.5715 14.3333 51.5715 20 51.5715 24.25C51.5715 31.3333 44.5477 34.1666 44.5477 34.1666C44.5477 34.1666 37.5239 31.3333 37.5239 24.25Z" fill="white"/>
</mask>
<g mask="url(#mask1)">
<path fill-rule="evenodd" clip-rule="evenodd" d="M37.5239 14.3333H51.5715V17.1666H45.9525H43.143H37.5239V14.3333Z" fill="#CF142C"/>
<path fill-rule="evenodd" clip-rule="evenodd" d="M51.5715 19.9999H37.5239V22.8333H43.143H45.9525H51.5715V19.9999ZM37.5239 25.6666H51.5716V28.4999H45.9525H43.143H37.5239V25.6666ZM37.5239 31.3333H51.5716V34.1666H45.9525H43.143H37.5239V31.3333Z" fill="#125FBA"/>
</g>
<path d="M1 2.29286H-0.899402L0.537561 3.53498L10.1262 11.8235V13.9712L0.586685 20.8429L0.292857 21.0545V21.4167V22.8333V24.1149L1.37706 23.4316L12.4424 16.4571H14.8194L24.3454 23.3191C24.5452 23.463 24.7853 23.5405 25.0316 23.5405C26.1192 23.5405 26.6222 22.1894 25.7994 21.4782L17.1595 14.0099V11.8621L26.4052 5.2021C26.7742 4.93631 26.9929 4.5093 26.9929 4.05454V3V1.7184L25.9087 2.40177L14.8434 9.37619H12.4663L2.81808 2.42622L2.63294 2.29286H2.40476H1Z" fill="#DB1E36" stroke="white" stroke-width="1.41429"/>
<path fill-rule="evenodd" clip-rule="evenodd" d="M1 10.0833V15.75H10.8333V22.8357C10.8333 23.6168 11.4665 24.25 12.2476 24.25H15.0381C15.8192 24.25 16.4524 23.6168 16.4524 22.8357V15.75H26.2762C27.0573 15.75 27.6905 15.1168 27.6905 14.3357V11.4976C27.6905 10.7165 27.0573 10.0833 26.2762 10.0833H16.4524V3H10.8333V10.0833H1Z" fill="white"/>
<path fill-rule="evenodd" clip-rule="evenodd" d="M1 11.5H12.2381V10.0833V3H15.0476V10.0833V11.5H26.2857V14.3333H15.0476V15.75V22.8333H12.2381V15.75V14.3333H1V11.5Z" fill="#DB1E36"/>
</g>
<defs>
<linearGradient id="paint0_linear" x1="37.5239" y1="14.3333" x2="37.5239" y2="34.1666" gradientUnits="userSpaceOnUse">
<stop stop-color="white"/>
<stop offset="1" stop-color="#F0F0F0"/>
</linearGradient>
</defs>
</svg>
