<svg fill="none" height="53" viewBox="0 0 61 53" width="61" xmlns="http://www.w3.org/2000/svg" xmlns:xlink="http://www.w3.org/1999/xlink"><mask id="a" height="43" maskUnits="userSpaceOnUse" width="59" x="1" y="3"><rect fill="#fff" height="42.5" rx="4.24286" width="59" x="1" y="3"/></mask><rect fill="#fff" height="42.5" rx="4.24286" width="59" x="1" y="3"/><g mask="url(#a)"><path d="m1 3h59v42.5h-59z" fill="#30c6e0"/><g clip-rule="evenodd" fill="#ffcd4b" fill-rule="evenodd"><path d="m30.4999 32.75c4.6549 0 8.4285-3.8056 8.4285-8.5s-3.7736-8.5-8.4285-8.5c-4.655 0-8.4286 3.8056-8.4286 8.5s3.7736 8.5 8.4286 8.5z"/><path d="m27.0618 39.4426 3.4384-5.1762 3.4385 5.1762.871-6.1681 5.3249 3.159-1.869-5.9384 6.1567.5163-4.2388-4.5325 5.7691-2.2289-5.7691-2.2289 4.2388-4.5325-6.1567.5163 1.869-5.9384-5.3249 3.159-.871-6.16813-3.4385 5.17623-3.4384-5.17623-.871 6.16813-5.325-3.159 1.8691 5.9384-6.1568-.5163 4.2389 4.5325-5.7691 2.2289 5.7691 2.2289-4.2389 4.5325 6.1568-.5163-1.8691 5.9384 5.325-3.159zm13.2717-15.1926c0 5.4768-4.4025 9.9166-9.8333 9.9166s-9.8334-4.4398-9.8334-9.9166c0-5.4769 4.4026-9.9167 9.8334-9.9167s9.8333 4.4398 9.8333 9.9167z"/><path d="m3.80957 6.54046c0-.39055.3166-.70715.70714-.70715h1.39524c.39055 0 .70714.3166.70714.70715v1.41904c0 .39055-.31659.70715-.70714.70715h-1.39524c-.39054 0-.70714-.3166-.70714-.70715zm.00005 5.66664c0-.3905.3166-.7071.70714-.7071h1.39524c.39054 0 .70714.3166.70714.7071v1.419c0 .3906-.3166.7072-.70714.7072h-1.39524c-.39054 0-.70714-.3166-.70714-.7072zm.70714 4.9596c-.39054 0-.70714.3166-.70714.7071v1.4191c0 .3905.3166.7071.70714.7071h1.39524c.39054 0 .70714-.3166.70714-.7071v-1.4191c0-.3905-.3166-.7071-.70714-.7071zm-.70714 6.3737c0-.3905.3166-.7071.70714-.7071h1.39524c.39054 0 .70714.3166.70714.7071v1.4191c0 .3905-.3166.7071-.70714.7071h-1.39524c-.39054 0-.70714-.3166-.70714-.7071zm.70714 4.9596c-.39054 0-.70714.3166-.70714.7071v1.4191c0 .3905.3166.7071.70714.7071h1.39524c.39054 0 .70714-.3166.70714-.7071v-1.4191c0-.3905-.3166-.7071-.70714-.7071zm-.70714 6.3738c0-.3906.3166-.7072.70714-.7072h1.39524c.39054 0 .70714.3166.70714.7072v1.419c0 .3906-.3166.7072-.70714.7072h-1.39524c-.39054 0-.70714-.3166-.70714-.7072zm.70714 4.9595c-.39054 0-.70714.3166-.70714.7072v1.419c0 .3906.3166.7072.70714.7072h1.39524c.39054 0 .70714-.3166.70714-.7072v-1.419c0-.3906-.3166-.7072-.70714-.7072zm2.10235-2.1262c0-.3905.3166-.7071.70714-.7071h1.39524c.39055 0 .70714.3166.70714.7071v1.419c0 .3906-.31659.7072-.70714.7072h-1.39524c-.39054 0-.70714-.3166-.70714-.7071zm.70714-6.3738c-.39054 0-.70714.3166-.70714.7072v1.419c0 .3906.3166.7072.70714.7072h1.39524c.39055 0 .70714-.3166.70714-.7072v-1.419c0-.3906-.31659-.7072-.70714-.7072zm-.70714-4.9595c0-.3906.3166-.7072.70714-.7072h1.39524c.39055 0 .70714.3166.70714.7072v1.419c0 .3906-.31659.7072-.70714.7072h-1.39524c-.39054 0-.70714-.3166-.70714-.7072zm.70714-6.3738c-.39054 0-.70714.3166-.70714.7071v1.4191c0 .3905.3166.7071.70714.7071h1.39524c.39055 0 .70714-.3166.70714-.7071v-1.4191c0-.3905-.31659-.7071-.70714-.7071zm-.70714-4.9595c0-.3906.3166-.7072.70714-.7072h1.39524c.39055 0 .70714.3166.70714.7072v1.419c0 .3906-.31659.7072-.70714.7072h-1.39524c-.39054 0-.70714-.3166-.70714-.7072zm.70714-6.37386c-.39054 0-.70714.3166-.70714.70714v1.41902c0 .3906.3166.7072.70714.7072h1.39524c.39055 0 .70714-.3166.70714-.7072v-1.41902c0-.39054-.31659-.70714-.70714-.70714z"/></g></g></svg>