<svg fill="none" height="53" viewBox="0 0 61 53" width="61" xmlns="http://www.w3.org/2000/svg" xmlns:xlink="http://www.w3.org/1999/xlink"><mask id="a" height="43" maskUnits="userSpaceOnUse" width="59" x="1" y="3"><rect fill="#fff" height="41.4393" rx="3.7125" stroke="#fff" stroke-width="1.06071" width="57.9393" x="1.53036" y="3.53036"/></mask><rect fill="#fff" height="41.4393" rx="3.7125" stroke="#f5f5f5" stroke-width="1.06071" width="57.9393" x="1.53036" y="3.53036"/><g clip-rule="evenodd" fill-rule="evenodd" mask="url(#a)"><path d="m1 14.3333h59v-11.3333h-59z" fill="#f03340"/><path d="m1 45.5h59v-11.3334h-59z" fill="#f03340"/><path d="m28.2737 29.3284c.4547-.4586.4547-1.1981 0-1.6568l-.16-.1613c-.2624-.2646-.645-.3711-1.0064-.2799l-.7795.1965c-.9418.2374-1.5301-.989-.7554-1.5749l.7238-.5475c.4486-.3394.2087-1.0545-.3539-1.0545-.6179 0-.8159-.8322-.2641-1.1104l1.2147-.6125c.5518-.2782.3539-1.1104-.2641-1.1104-.5625 0-.8025-.7151-.3538-1.0545l3.3717-2.5502c.5047-.3818 1.2016-.3818 1.7063 0l3.3718 2.5502c.4486.3394.2086 1.0545-.3539 1.0545-.6179 0-.8159.8322-.2641 1.1104l1.2147.6125c.5518.2782.3538 1.1104-.2641 1.1104-.5625 0-.8025.7151-.3539 1.0545l.7239.5475c.7746.5859.1863 1.8123-.7555 1.5749l-.7795-.1965c-.3613-.0912-.744.0153-1.0064.2799l-.1599.1613c-.4548.4587-.4548 1.1982 0 1.6568.7363.7426.2103 2.005-.8355 2.005h-2.7815c-1.0458 0-1.5718-1.2624-.8354-2.005z" fill="#1fc065"/></g></svg>