<svg fill="none" height="53" viewBox="0 0 61 53" width="61" xmlns="http://www.w3.org/2000/svg" xmlns:xlink="http://www.w3.org/1999/xlink"><mask id="a" height="43" maskUnits="userSpaceOnUse" width="59" x="1" y="3"><rect fill="#fff" height="42.5" rx="4.24286" width="59" x="1" y="3"/></mask><rect fill="#fff" height="42.5" rx="4.24286" width="59" x="1" y="3"/><g mask="url(#a)"><path d="m1 3h59v42.5h-59z" fill="#ffbf19"/><path clip-rule="evenodd" d="m23.4761 5.83331h30.8857c1.5622 0 2.8286 1.2664 2.8286 2.82857v31.17622c0 1.5622-1.2664 2.8285-2.8286 2.8285h-30.8857z" fill="#a52531" fill-rule="evenodd"/><path d="m3.80957 8.66188c0-1.56218 1.26639-2.82857 2.82857-2.82857h5.59996v36.83329h-5.59996c-1.56218 0-2.82857-1.2663-2.82857-2.8285z" fill="#03664f"/><rect fill="#ff6816" height="36.8333" rx="1.41429" width="8.42857" x="12.2378" y="5.83331"/><g clip-rule="evenodd" fill="#ffbf18" fill-rule="evenodd"><path d="m29.0952 10.0833c0 .7824-.6289 1.4167-1.4047 1.4167-.7759 0-1.4048-.6343-1.4048-1.4167v-1.41667h1.4048c.7758 0 1.4047.63426 1.4047 1.41667zm22.4761 0c0 .7824.629 1.4167 1.4048 1.4167s1.4048-.6343 1.4048-1.4167v-1.41666h-1.4048c-.7758 0-1.4048.63426-1.4048 1.41666zm1.4048 26.9166c-.7758 0-1.4048.6343-1.4048 1.4167s.629 1.4167 1.4048 1.4167h1.4048v-1.4167c0-.7824-.629-1.4167-1.4048-1.4167zm-23.8809 1.4167c0-.7824-.629-1.4167-1.4048-1.4167s-1.4048.6343-1.4048 1.4167v1.4167h1.4048c.7758 0 1.4048-.6343 1.4048-1.4167z"/><path d="m34.7144 29.7073c0-.6667-.5405-1.2073-1.2073-1.2073-.1307 0-.2602-.021-.3833-.0653-.8144-.2937-4.0284-1.5308-4.0284-2.768 0-.7776.4232-1.5551.805-2.0985.3303-.47.4533-1.079.2511-1.6167-.4772-1.2691-1.2538-3.5889-1.0561-4.7848.1041-.6304.5177-1.183.9968-1.6288.7508-.6986 1.8127-.0456 1.8127.9799v5.4448c0 .534.3007 1.0224.7775 1.2628l1.4165.7143c.367.185.8115.1127 1.1009-.1791.4538-.4577.3289-1.225-.2466-1.5151l-1.6435-.8288v-1.4167c.7039 0 .9294-.948.3008-1.2649l-.3008-.1517v-1.4167h2.2202c.3771 0 .7387-.1506 1.0042-.4185l.5749-.5797c.2656-.2678.6271-.4185 1.0043-.4185h1.3428c.5374 0 1.0284.3046 1.2671.7861l.757 1.5268c.1653.3335.1925.7187.0757 1.0721l-.6083 1.8402c-.3024.9152.379 1.8582 1.3429 1.8582h4.6031c.2968 0 .5812-.1185.7901-.3292.5323-.5368.3859-1.4367-.2891-1.777l-1.1417-.5757c-.1975-.0996-.4156-.1515-.6368-.1515h-1.0588c-.7811 0-1.4143-.6332-1.4143-1.4142v-.8368c0-.373.1474-.7309.41-.9958l.9947-1.0032v1.4286c0 .7758.629 1.4048 1.4048 1.4048h1.9322c.5374 0 1.0283.3046 1.2671.786l.9031 1.8217c.074.1492.1211.3095.1362.4754.0644.7109.2191 2.7729-.0243 4.0002-.1973.9949-.7503 1.9157-1.1007 2.4236-.1875.2717-.3041.5905-.3041.9206v4.0802c0 .594-.4815 1.0756-1.0756 1.0756-.798 0-1.3182-.8385-.9637-1.5534l.4884-.9851c.0921-.1857.0921-.4039 0-.5897l-.0655-.1321c-.2955-.5959-1.1931-.3856-1.1931.2795 0 .097-.0224.1927-.0655.2796l-.9924 2.0017c-.2125.4285-.6494.6995-1.1276.6995-.9338 0-1.5424-.981-1.1276-1.8176l.3564-.7189c.0968-.1952.1472-.4102.1472-.6282v-1.0877c0-.7811-.6332-1.4143-1.4143-1.4143h-2.7905c-.7811 0-1.4143.6332-1.4143 1.4143v1.0877c0 .218-.0503.433-.1471.6282l-.9108 1.837c-.2124.4285-.6494.6995-1.1276.6995-.9337 0-1.5423-.981-1.1276-1.8176l.3564-.7189c.0968-.1952.1472-.4102.1472-.6282z"/></g></g></svg>