<svg width="61" height="53" viewBox="0 0 61 53" fill="none" xmlns="http://www.w3.org/2000/svg">
<rect x="1.53036" y="3.53036" width="57.9393" height="41.4393" rx="3.7125" fill="white" stroke="#F5F5F5" stroke-width="1.06071"/>
<mask id="mask0" mask-type="alpha" maskUnits="userSpaceOnUse" x="1" y="3" width="59" height="43">
<rect x="1.53036" y="3.53036" width="57.9393" height="41.4393" rx="3.7125" fill="white" stroke="white" stroke-width="1.06071"/>
</mask>
<g mask="url(#mask0)">
<path fill-rule="evenodd" clip-rule="evenodd" d="M60 3H29.0952V8.66667H60V3ZM60 14.3333H29.0952V20H60V14.3333ZM29.0952 25.6667H60V31.3334H29.0952V25.6667ZM60 37H1V42.6667H60V37Z" fill="#E1244A"/>
<rect x="1" y="3" width="28.0952" height="28.3333" fill="#0C3F8E"/>
<path fill-rule="evenodd" clip-rule="evenodd" d="M15.0477 20.4816L10.0935 24.0433L11.9215 18.191L7.03166 14.54L13.1156 14.4847L15.0477 8.66663L16.9798 14.4847L23.0638 14.54L18.174 18.191L20.0019 24.0433L15.0477 20.4816Z" fill="white"/>
</g>
</svg>
