<svg fill="none" height="53" viewBox="0 0 61 53" width="61" xmlns="http://www.w3.org/2000/svg" xmlns:xlink="http://www.w3.org/1999/xlink"><mask id="a" height="43" maskUnits="userSpaceOnUse" width="59" x="1" y="3"><rect fill="#fff" height="41.4393" rx="3.7125" stroke="#fff" stroke-width="1.06071" width="57.9393" x="1.53036" y="3.53036"/></mask><rect fill="#fff" height="41.4393" rx="3.7125" stroke="#f5f5f5" stroke-width="1.06071" width="57.9393" x="1.53036" y="3.53036"/><g mask="url(#a)"><g clip-rule="evenodd" fill-rule="evenodd"><path d="m1 17.1667h59v-14.1667h-59z" fill="#0c33b8"/><path d="m1 45.5h59v-14.1667h-59z" fill="#1db158"/><path d="m29.0952 24.25.0619-.1873c.4277-1.294 2.258-1.294 2.6857 0l.0619.1873 2.4925 3.7704c.1847.2794.144.6465-.1331.8346-.6181.4197-1.8728 1.0617-3.7641 1.0617-1.8914 0-3.1461-.642-3.7642-1.0617-.2771-.1881-.3178-.5552-.1331-.8346z" fill="#262626"/></g><path d="m32.6023 21.4166c0 1.1799-.9468 2.1262-2.1023 2.1262s-2.1024-.9463-2.1024-2.1262.9469-2.1261 2.1024-2.1261 2.1023.9462 2.1023 2.1261z" stroke="#262626" stroke-width="1.41429"/></g></svg>