<svg fill="none" height="53" viewBox="0 0 61 53" width="61" xmlns="http://www.w3.org/2000/svg" xmlns:xlink="http://www.w3.org/1999/xlink"><filter id="a" color-interpolation-filters="sRGB" filterUnits="userSpaceOnUse" height="14.1667" width="59" x="1" y="17.1667"><feFlood flood-opacity="0" result="BackgroundImageFix"/><feColorMatrix in="SourceAlpha" type="matrix" values="0 0 0 0 0 0 0 0 0 0 0 0 0 0 0 0 0 0 127 0"/><feOffset/><feColorMatrix type="matrix" values="0 0 0 0 0 0 0 0 0 0 0 0 0 0 0 0 0 0 0.06 0"/><feBlend in2="BackgroundImageFix" mode="normal" result="effect1_dropShadow"/><feBlend in="SourceGraphic" in2="effect1_dropShadow" mode="normal" result="shape"/></filter><filter id="b" color-interpolation-filters="sRGB" filterUnits="userSpaceOnUse" height="14.1667" width="59" x="1" y="31.3333"><feFlood flood-opacity="0" result="BackgroundImageFix"/><feColorMatrix in="SourceAlpha" type="matrix" values="0 0 0 0 0 0 0 0 0 0 0 0 0 0 0 0 0 0 127 0"/><feOffset/><feColorMatrix type="matrix" values="0 0 0 0 0 0 0 0 0 0 0 0 0 0 0 0 0 0 0.06 0"/><feBlend in2="BackgroundImageFix" mode="normal" result="effect1_dropShadow"/><feBlend in="SourceGraphic" in2="effect1_dropShadow" mode="normal" result="shape"/></filter><mask id="c" height="43" maskUnits="userSpaceOnUse" width="59" x="1" y="3"><rect fill="#fff" height="42.5" rx="4.24286" width="59" x="1" y="3"/></mask><rect fill="#fff" height="42.5" rx="4.24286" width="59" x="1" y="3"/><g mask="url(#c)"><g filter="url(#a)"><path clip-rule="evenodd" d="m1 31.3334h59v-14.1667h-59z" fill="#262626" fill-rule="evenodd"/></g><g filter="url(#b)"><path clip-rule="evenodd" d="m1 45.5h59v-14.1667h-59z" fill="#34b857" fill-rule="evenodd"/></g><g clip-rule="evenodd" fill-rule="evenodd"><path d="m1 17.1667h59v-14.1667h-59z" fill="#f41f34"/><path d="m30.4999 28.5c.8666 0 1.6722-.2638 2.3419-.7161-.0776.0052-.1558.0078-.2348.0078-1.9395 0-3.5119-1.5857-3.5119-3.5417s1.5724-3.5417 3.5119-3.5417c.079 0 .1573.0027.2349.0078-.6698-.4523-1.4753-.7161-2.342-.7161-2.3275 0-4.2143 1.9028-4.2143 4.25s1.8868 4.25 4.2143 4.25zm4.2143-4.25c0 .7824-.6289 1.4167-1.4047 1.4167-.7759 0-1.4048-.6343-1.4048-1.4167s.6289-1.4167 1.4048-1.4167c.7758 0 1.4047.6343 1.4047 1.4167z" fill="#fff"/></g></g></svg>