<svg fill="none" height="53" viewBox="0 0 61 53" width="61" xmlns="http://www.w3.org/2000/svg" xmlns:xlink="http://www.w3.org/1999/xlink"><mask id="a" height="43" maskUnits="userSpaceOnUse" width="59" x="1" y="3"><rect fill="#fff" height="42.5" rx="4.24286" width="59" x="1" y="3"/></mask><rect fill="#fff" height="42.5" rx="4.24286" width="59" x="1" y="3"/><g mask="url(#a)"><path d="m1 3h59v42.5h-59z" fill="#e33b44"/><path d="m31.3256 28.0742-.8256-.5935-.8255.5935-3.9934 2.8709 1.4795-4.7369.2986-.9558-.8024-.5991-3.9739-2.9671 4.9318-.0448 1.0108-.0092.3185-.9593 1.556-4.6855 1.556 4.6855.3186.9593 1.0108.0092 4.9318.0448-3.9739 2.9671-.8024.5991.2986.9558 1.4795 4.7369z" stroke="#0a6135" stroke-width="2.82857"/></g></svg>