<svg fill="none" height="53" viewBox="0 0 61 53" width="61" xmlns="http://www.w3.org/2000/svg" xmlns:xlink="http://www.w3.org/1999/xlink"><mask id="a" height="43" maskUnits="userSpaceOnUse" width="59" x="1" y="3"><rect fill="#fff" height="42.5" rx="4.24286" width="59" x="1" y="3"/></mask><rect fill="#fff" height="42.5" rx="4.24286" width="59" x="1" y="3"/><g mask="url(#a)"><path d="m1 3h59v42.5h-59z" fill="#e6be53"/><g clip-rule="evenodd" fill-rule="evenodd"><path d="m3.80957 40.5452c0 1.1716.9498 2.1214 2.12143 2.1214h49.1381c1.1716 0 2.1214-.9498 2.1214-2.1214v-32.59046c0-1.17163-.9498-2.12143-2.1214-2.12143h-49.1381c-1.17163 0-2.12143.9498-2.12143 2.12143z" fill="#e01826"/><path d="m28.4385 10.7763c-.9926.3337-1.2909 1.5928-.5536 2.3364l.7954.8021c.2656.2679.6271.4185 1.0043.4185h1.6309c.3771 0 .7387-.1506 1.0042-.4185l.7955-.8021c.7373-.7436.4389-2.0027-.5537-2.3364l-1.6108-.5415c-.2924-.0983-.6089-.0983-.9013 0zm3.0658 6.7942c-.5533.558-1.4553.558-2.0086 0l-.4004-.4039-2.0861-2.1037c-.4314-.435-1.0939-.5428-1.641-.267l-.1539.0776c-.8579.4326-1.044 1.5764-.3675 2.2587l.0342.0344 2.0975 2.1153c.4258.4295.5315 1.0822.2628 1.624l-.8762 1.7674c-.0522.1052-.0794.2211-.0794.3386 0 .5678-.5985.9363-1.1055.6806l-.6686-.3371c-.511-.2577-.6219-.9391-.2189-1.3455.3257-.3285.3257-.8581 0-1.1865l-.6553-.6609c-.1068-.1077-.1955-.2318-.2629-.3676l-1.2345-2.4901c-.0456-.0918-.081-.1884-.1057-.2879l-.6471-2.6103c-.2875-1.1598-1.7945-1.4625-2.5076-.5037l-2.1478 2.888c-.1814.244-.2794.5399-.2794.844v4.867c0 .218.0504.433.1472.6283l1.1559 2.3314c.0673.1358.1561.2599.2628.3676l2.4864 2.5074c.1073.1082.2314.1983.3674.267l2.4698 1.2453c.0883.0445.1858.0677.2847.0677.6663 0 .8797.8973.2848 1.1972l-.3305.1667c-.0693.035-.1326.0809-.1872.136l-.6199.6251c-.3869.3903-1.0178.3903-1.4047 0-.387-.3902-1.0179-.3902-1.4048 0l-.1196.1206c-.3486.3515-.435.8858-.2151 1.3293l.6474 1.3057c.2387.4815.7296.7861 1.267.7861h1.5958c.2212 0 .4393-.0519.6368-.1515l2.0882-1.0529c.2732-.1378.4944-.3605.6303-.6346l.635-1.2807c.2748-.5542 1.0132-.6737 1.4487-.2344.3009.3033.3476.7762.112 1.1326l-1.6312 2.4675c-.4284.648-.2539 1.5202.3907 1.9536l2.2606 1.5199c.4772.3208 1.101.3208 1.5782 0l2.2606-1.5199c.6447-.4334.8191-1.3056.3907-1.9536l-1.6312-2.4675c-.2356-.3564-.1888-.8293.112-1.1326.4356-.4393 1.174-.3198 1.4488.2344l.6349 1.2807c.1359.2741.3571.4968.6303.6346l2.0883 1.0529c.1974.0996.4155.1515.6367.1515h1.5958c.5374 0 1.0284-.3046 1.2671-.7861l.6474-1.3057c.2198-.4435.1334-.9778-.2152-1.3293l-.1196-.1206c-.3869-.3902-1.0178-.3902-1.4047 0-.387.3903-1.0178.3903-1.4048 0l-.6198-.6251c-.0547-.0551-.1179-.101-.1873-.136l-.3305-.1667c-.5949-.2999-.3815-1.1972.2848-1.1972.0989 0 .1964-.0232.2847-.0677l2.4698-1.2453c.1361-.0687.2602-.1588.3675-.267l2.4863-2.5074c.1068-.1077.1955-.2318.2628-.3676l1.1559-2.3314c.0969-.1953.1472-.4103.1472-.6283v-4.867c0-.3041-.098-.6-.2794-.844l-2.1478-2.888c-.7131-.9588-2.2201-.6561-2.5076.5037l-.6471 2.6103c-.0247.0995-.0601.1961-.1056.2879l-1.2346 2.4901c-.0673.1358-.1561.2599-.2628.3676l-.6554.6609c-.3257.3284-.3257.858 0 1.1865.403.4064.2922 1.0878-.2189 1.3455l-.6686.3371c-.507.2557-1.1055-.1128-1.1055-.6806 0-.1175-.0272-.2334-.0793-.3386l-.8763-1.7674c-.2686-.5418-.163-1.1945.2629-1.624l2.0975-2.1153.0341-.0344c.6765-.6823.4904-1.8261-.3675-2.2587l-.1539-.0776c-.5471-.2758-1.2096-.168-1.641.267l-2.086 2.1037z" fill="#e6be53"/><path d="m27.6904 27.0834c0 .5181.874.6895 1.1249.2363.4895-.8839 1.0871-1.653 1.6847-1.653.5975 0 1.1951.7691 1.6846 1.653.251.4532 1.1249.2818 1.1249-.2363 0-2.3472-1.2579-4.25-2.8095-4.25-1.5517 0-2.8096 1.9028-2.8096 4.25z" fill="#215f90"/></g></g></svg>