<svg fill="none" height="53" viewBox="0 0 61 53" width="61" xmlns="http://www.w3.org/2000/svg" xmlns:xlink="http://www.w3.org/1999/xlink"><mask id="a" height="43" maskUnits="userSpaceOnUse" width="59" x="1" y="3"><rect fill="#fff" height="42.5" rx="4.24286" width="59" x="1" y="3"/></mask><rect fill="#fff" height="42.5" rx="4.24286" width="59" x="1" y="3"/><g mask="url(#a)"><path d="m1 3h59v42.5h-59z" fill="#e81b26"/><g clip-rule="evenodd" fill="#ffe94f" fill-rule="evenodd"><path d="m30.5001 31.3334c3.8792 0 7.0238-3.1714 7.0238-7.0834s-3.1446-7.0833-7.0238-7.0833c-3.8791 0-7.0238 3.1713-7.0238 7.0833s3.1447 7.0834 7.0238 7.0834z"/><path d="m38.4901 30.0316 23.0162 16.6543-5.6398 6.3167-18.8301-21.3438c.5416-.4863 1.0295-1.0321 1.4537-1.6272zm1.7456-4.379 19.7643 2.8474v-8.5l-19.7643 2.8474c.0643.4582.0976.9265.0976 1.4026s-.0333.9444-.0976 1.4026zm-1.7456-7.1841 23.0162-16.65439-5.6398-6.31673-18.8301 21.34382c.5416.4863 1.0295 1.0321 1.4537 1.6273zm-9.9189-3.9445c.6237-.1251 1.2686-.1907 1.9288-.1907s1.3052.0657 1.9289.1908l2.2854-11.52407h-8.4285zm3.8577 19.452c-.6237.1251-1.2687.1907-1.9289.1907s-1.3051-.0656-1.9288-.1907l-2.2854 11.524h8.4285zm-8.4653-2.3171-18.83013 21.3437-5.639818-6.3167 23.016248-16.6543c.4241.5951.9121 1.1409 1.4537 1.6273zm-3.1993-6.0063-19.76426 2.8474v-8.5l19.76426 2.8474c-.0644.4582-.0976.9265-.0976 1.4026s.0332.9444.0976 1.4026zm1.7456-7.1842c.4242-.5951.9121-1.141 1.4538-1.6273l-18.8302-21.34372-5.639817 6.31673z"/></g></g></svg>