<svg fill="none" height="53" viewBox="0 0 61 53" width="61" xmlns="http://www.w3.org/2000/svg" xmlns:xlink="http://www.w3.org/1999/xlink"><linearGradient id="a" gradientUnits="userSpaceOnUse" x1="6.61914" x2="6.61914" y1="24.25" y2="37"><stop offset="0" stop-color="#f8d246"/><stop offset="1" stop-color="#f9ce2f"/></linearGradient><mask id="b" height="43" maskUnits="userSpaceOnUse" width="59" x="1" y="3"><rect fill="#fff" height="42.5" rx="4.24286" width="59" x="1" y="3"/></mask><rect fill="#fff" height="42.5" rx="4.24286" width="59" x="1" y="3"/><g clip-rule="evenodd" fill-rule="evenodd" mask="url(#b)"><path d="m20.6665 45.5h19.6667v-42.5h-19.6667z" fill="#146bbc"/><path d="m1 45.5h19.6667v-42.5h-19.6667z" fill="#e43642"/><path d="m40.3335 45.5h19.6667v-42.5h-19.6667z" fill="#e43642"/><path d="m10.8334 24.25 1.4048 1.4167h-1.3973c.7724.004 1.3973.6367 1.3973 1.4166 0 .7803-.6256 1.4133-1.3985 1.4167h1.3984.0001 2.8095v8.5h-2.8096v-2.8333l-1.4047 2.8333-1.40474-2.8333v2.8333h-2.80952v-8.5h2.8095.00002 1.39844c-.7729-.0034-1.39846-.6364-1.39846-1.4167 0-.7799.62486-1.4126 1.39726-1.4166h-1.39726zm-1.40474 8.4908v-4.2408l1.40474 2.8333 1.4047-2.8333v4.241c-.0048-.7783-.6319-1.4076-1.4047-1.4076s-1.39984.6293-1.40474 1.4074zm0 .0184v1.4075h1.39834c-.7698-.0035-1.39345-.6315-1.39834-1.4075zm1.41114 1.4075h1.3983v-1.4076c-.0048.7761-.6284 1.4041-1.3983 1.4076z" fill="url(#a)"/></g></svg>