<svg fill="none" height="53" viewBox="0 0 61 53" width="61" xmlns="http://www.w3.org/2000/svg" xmlns:xlink="http://www.w3.org/1999/xlink"><mask id="a" height="43" maskUnits="userSpaceOnUse" width="59" x="1" y="3"><rect fill="#fff" height="42.5" rx="4.24286" width="59" x="1" y="3"/></mask><rect fill="#fff" height="42.5" rx="4.24286" width="59" x="1" y="3"/><g clip-rule="evenodd" fill-rule="evenodd" mask="url(#a)"><path d="m1 45.5h59v-42.5h-59z" fill="#079d7b"/><path d="m34.4727 21.4166c0 .6202-.0447 1.2217-.1287 1.795.2155-.0668.4349-.1305.658-.1907 3.747-1.0125 7.0913-.6785 7.4698.7461.3421 1.2875-1.8552 3.025-5.0471 4.095-.5639-1.6865-3.4493-2.1954-6.9239-2.1954-3.4786 0-6.3665.51-6.9259 2.2011-3.1488-1.072-5.3068-2.7914-4.9676-4.0681.3785-1.4246 3.7229-1.7587 7.4699-.7462.1967.0532.3906.109.5814.1672-.0848-.576-.13-1.1806-.13-1.804 0-3.912 1.7783-7.0833 3.9721-7.0833 2.1937 0 3.972 3.1713 3.972 7.0833zm-10.9957 7.0833h2.4578c-.3893-.077-.7865-.1691-1.1885-.2768.4521.0135 1.0096.0525 1.6476.097 1.155.0807 2.5736.1798 4.1069.1798s2.9519-.0991 4.1069-.1798c.6137-.0428 1.1531-.0805 1.5956-.0953-.4159.1082-.8264.1998-1.2279.2751h2.5492 4.2142c-.3332 1.0088-.7817 1.9592-1.3286 2.8333h-19.819c-.5469-.8741-.9954-1.8245-1.3286-2.8333zm7.0237 8.5c2.8378 0 5.4439-1.0613 7.4904-2.8333h-14.9808c2.0466 1.772 4.6527 2.8333 7.4904 2.8333z" fill="#fff"/><path d="m30.5002 11.5c.7758 0 1.4047-.6343 1.4047-1.4167 0-.78241-.6289-1.41667-1.4047-1.41667-.7759 0-1.4048.63426-1.4048 1.41667 0 .7824.6289 1.4167 1.4048 1.4167zm-11.238 7.0833c.7758 0 1.4047-.6342 1.4047-1.4166s-.6289-1.4167-1.4047-1.4167-1.4048.6343-1.4048 1.4167.629 1.4166 1.4048 1.4166zm23.881-1.4166c0 .7824-.629 1.4166-1.4048 1.4166s-1.4048-.6342-1.4048-1.4166.629-1.4167 1.4048-1.4167 1.4048.6343 1.4048 1.4167zm-5.6192-2.8334c.7759 0 1.4048-.6343 1.4048-1.4167s-.6289-1.4167-1.4048-1.4167c-.7758 0-1.4047.6343-1.4047 1.4167s.6289 1.4167 1.4047 1.4167zm-12.6427-1.4167c0 .7824-.6289 1.4167-1.4047 1.4167-.7759 0-1.4048-.6343-1.4048-1.4167s.6289-1.4167 1.4048-1.4167c.7758 0 1.4047.6343 1.4047 1.4167z" fill="#fcd117"/></g></svg>