<svg fill="none" height="53" viewBox="0 0 61 53" width="61" xmlns="http://www.w3.org/2000/svg" xmlns:xlink="http://www.w3.org/1999/xlink"><mask id="a" height="43" maskUnits="userSpaceOnUse" width="59" x="1" y="3"><rect fill="#fff" height="42.5" rx="4.24286" width="59" x="1" y="3"/></mask><rect fill="#fff" height="42.5" rx="4.24286" width="59" x="1" y="3"/><g mask="url(#a)"><path d="m1 3h59v42.5h-59z" fill="#108b4d"/><path clip-rule="evenodd" d="m42.7503 19.4334c.1024.6533.1555 1.3231.1555 2.0054 0 7.0416-5.6604 12.75-12.6428 12.75-6.9825 0-12.6429-5.7084-12.6429-12.75 0-.6823.0532-1.3521.1555-2.0054.9539 6.0888 6.1815 10.7446 12.4874 10.7446s11.5335-4.6558 12.4873-10.7446zm-12.2501 1.7653-3.4727 2.4966 1.2813-4.1023-3.4276-2.5592 4.2647-.0388 1.3543-4.0783 1.3544 4.0783 4.2647.0388-3.4276 2.5592 1.2813 4.1023z" fill="#ffc941" fill-rule="evenodd"/></g></svg>