<svg width="61" height="53" viewBox="0 0 61 53" fill="none" xmlns="http://www.w3.org/2000/svg">
<rect x="1.53036" y="3.53036" width="57.9393" height="41.4393" rx="3.7125" fill="white" stroke="#F5F5F5" stroke-width="1.06071"/>
<mask id="mask0" mask-type="alpha" maskUnits="userSpaceOnUse" x="1" y="3" width="59" height="43">
<rect x="1.53036" y="3.53036" width="57.9393" height="41.4393" rx="3.7125" fill="white" stroke="white" stroke-width="1.06071"/>
</mask>
<g mask="url(#mask0)">
<path fill-rule="evenodd" clip-rule="evenodd" d="M31.9048 45.5H60V3H31.9048V45.5Z" fill="#DE233C"/>
<mask id="path-4-outside-1" maskUnits="userSpaceOnUse" x="4.61914" y="6.66663" width="12" height="12" fill="black">
<rect fill="white" x="4.61914" y="6.66663" width="12" height="12"/>
<path fill-rule="evenodd" clip-rule="evenodd" d="M12.2382 8.66663H9.42864V11.4999H6.61914V14.3333H9.42864V17.1666H12.2382V14.3333H15.0477V11.4999H12.2382V8.66663Z"/>
</mask>
<path fill-rule="evenodd" clip-rule="evenodd" d="M12.2382 8.66663H9.42864V11.4999H6.61914V14.3333H9.42864V17.1666H12.2382V14.3333H15.0477V11.4999H12.2382V8.66663Z" fill="#CCCCCD"/>
<path d="M9.42864 8.66663V7.25234H8.01435V8.66663H9.42864ZM12.2382 8.66663H13.6524V7.25234H12.2382V8.66663ZM9.42864 11.4999V12.9142H10.8429V11.4999H9.42864ZM6.61914 11.4999V10.0857H5.20485V11.4999H6.61914ZM6.61914 14.3333H5.20485V15.7476H6.61914V14.3333ZM9.42864 14.3333H10.8429V12.919H9.42864V14.3333ZM9.42864 17.1666H8.01435V18.5809H9.42864V17.1666ZM12.2382 17.1666V18.5809H13.6524V17.1666H12.2382ZM12.2382 14.3333V12.919H10.8239V14.3333H12.2382ZM15.0477 14.3333V15.7476H16.462V14.3333H15.0477ZM15.0477 11.4999H16.462V10.0857H15.0477V11.4999ZM12.2382 11.4999H10.8239V12.9142H12.2382V11.4999ZM9.42864 10.0809H12.2382V7.25234H9.42864V10.0809ZM10.8429 11.4999V8.66663H8.01435V11.4999H10.8429ZM6.61914 12.9142H9.42864V10.0857H6.61914V12.9142ZM8.03343 14.3333V11.4999H5.20485V14.3333H8.03343ZM9.42864 12.919H6.61914V15.7476H9.42864V12.919ZM10.8429 17.1666V14.3333H8.01435V17.1666H10.8429ZM12.2382 15.7523H9.42864V18.5809H12.2382V15.7523ZM10.8239 14.3333V17.1666H13.6524V14.3333H10.8239ZM15.0477 12.919H12.2382V15.7476H15.0477V12.919ZM13.6334 11.4999V14.3333H16.462V11.4999H13.6334ZM12.2382 12.9142H15.0477V10.0857H12.2382V12.9142ZM10.8239 8.66663V11.4999H13.6524V8.66663H10.8239Z" fill="#7B716A" fill-opacity="0.66" mask="url(#path-4-outside-1)"/>
<path fill-rule="evenodd" clip-rule="evenodd" d="M10.8335 14.3333C11.6093 14.3333 12.2382 13.6991 12.2382 12.9167C12.2382 12.1343 11.6093 11.5 10.8335 11.5C10.0576 11.5 9.42871 12.1343 9.42871 12.9167C9.42871 13.6991 10.0576 14.3333 10.8335 14.3333Z" fill="#7B716A"/>
</g>
</svg>
