<svg fill="none" height="53" viewBox="0 0 61 53" width="61" xmlns="http://www.w3.org/2000/svg" xmlns:xlink="http://www.w3.org/1999/xlink"><mask id="a" height="43" maskUnits="userSpaceOnUse" width="59" x="1" y="3"><rect fill="#fff" height="41.4393" rx="3.7125" stroke="#fff" stroke-width="1.06071" width="57.9393" x="1.53036" y="3.53036"/></mask><mask id="b" fill="#000" height="12" maskUnits="userSpaceOnUse" width="12" x="4.61914" y="6.66663"><path d="m4.61914 6.66663h12v12h-12z" fill="#fff"/><path clip-rule="evenodd" d="m12.2382 8.66663h-2.80956v2.83327h-2.8095v2.8334h2.8095v2.8333h2.80956v-2.8333h2.8095v-2.8334h-2.8095z" fill="#000" fill-rule="evenodd"/></mask><rect fill="#fff" height="41.4393" rx="3.7125" stroke="#f5f5f5" stroke-width="1.06071" width="57.9393" x="1.53036" y="3.53036"/><g mask="url(#a)"><path clip-rule="evenodd" d="m31.9048 45.5h28.0952v-42.5h-28.0952z" fill="#de233c" fill-rule="evenodd"/><path clip-rule="evenodd" d="m12.2382 8.66663h-2.80956v2.83327h-2.8095v2.8334h2.8095v2.8333h2.80956v-2.8333h2.8095v-2.8334h-2.8095z" fill="#cccccd" fill-rule="evenodd"/><g fill="#7b716a"><path d="m9.42864 8.66663v-1.41429h-1.41429v1.41429zm2.80956 0h1.4142v-1.41429h-1.4142zm-2.80956 2.83327v1.4143h1.41426v-1.4143zm-2.8095 0v-1.4142h-1.41429v1.4142zm0 2.8334h-1.41429v1.4143h1.41429zm2.8095 0h1.41426v-1.4143h-1.41426zm0 2.8333h-1.41429v1.4143h1.41429zm2.80956 0v1.4143h1.4142v-1.4143zm0-2.8333v-1.4143h-1.4143v1.4143zm2.8095 0v1.4143h1.4143v-1.4143zm0-2.8334h1.4143v-1.4142h-1.4143zm-2.8095 0h-1.4143v1.4143h1.4143zm-2.80956-1.419h2.80956v-2.82856h-2.80956zm1.41426 1.419v-2.83327h-2.82855v2.83327zm-4.22376 1.4143h2.8095v-2.8285h-2.8095zm1.41429 1.4191v-2.8334h-2.82858v2.8334zm1.39521-1.4143h-2.8095v2.8286h2.8095zm1.41426 4.2476v-2.8333h-2.82855v2.8333zm1.3953-1.4143h-2.80956v2.8286h2.80956zm-1.4143-1.419v2.8333h2.8285v-2.8333zm4.2238-1.4143h-2.8095v2.8286h2.8095zm-1.4143-1.4191v2.8334h2.8286v-2.8334zm-1.3952 1.4143h2.8095v-2.8285h-2.8095zm-1.4143-4.24757v2.83327h2.8285v-2.83327z" fill-opacity=".66" mask="url(#b)"/><path clip-rule="evenodd" d="m10.8335 14.3333c.7758 0 1.4047-.6342 1.4047-1.4166s-.6289-1.4167-1.4047-1.4167c-.7759 0-1.40479.6343-1.40479 1.4167s.62889 1.4166 1.40479 1.4166z" fill-rule="evenodd"/></g></g></svg>