<svg fill="none" height="53" viewBox="0 0 61 53" width="61" xmlns="http://www.w3.org/2000/svg" xmlns:xlink="http://www.w3.org/1999/xlink"><mask id="a" height="43" maskUnits="userSpaceOnUse" width="59" x="1" y="3"><rect fill="#fff" height="42.5" rx="4.24286" width="59" x="1" y="3"/></mask><rect fill="#fff" height="42.5" rx="4.24286" width="59" x="1" y="3"/><g mask="url(#a)"><path d="m1 3h59v42.5h-59z" fill="#f32249"/><rect fill="#15a04f" height="25.5" rx="1.41429" width="42.1429" x="9.42871" y="11.5"/><path clip-rule="evenodd" d="m35.4166 33.9384c-.6788.1495-1.3839.2282-2.1072.2282-5.4308 0-9.8333-4.4398-9.8333-9.9166s4.4025-9.9167 9.8333-9.9167c.7233 0 1.4284.0788 2.1072.2282-4.4182.9728-7.7261 4.9411-7.7261 9.6885s3.3079 8.7156 7.7261 9.6884z" fill="#fff" fill-rule="evenodd"/></g></svg>