<svg fill="none" height="53" viewBox="0 0 61 53" width="61" xmlns="http://www.w3.org/2000/svg" xmlns:xlink="http://www.w3.org/1999/xlink"><mask id="a" height="43" maskUnits="userSpaceOnUse" width="59" x="1" y="3"><rect fill="#fff" height="41.4393" rx="3.7125" stroke="#fff" stroke-width="1.06071" width="57.9393" x="1.53036" y="3.53036"/></mask><rect fill="#fff" height="41.4393" rx="3.7125" stroke="#f5f5f5" stroke-width="1.06071" width="57.9393" x="1.53036" y="3.53036"/><g mask="url(#a)"><path d="m40.3333 3h19.6667v42.5h-19.6667z" fill="#e3283e"/><path clip-rule="evenodd" d="m1 45.5h19.6667v-42.5h-19.6667z" fill="#128a60" fill-rule="evenodd"/><path d="m26.2951 22.8334c0-.7811-.6332-1.4143-1.4142-1.4143-.7811 0-1.4143.6332-1.4143 1.4143zm.6746 6.1255c.6741.3944 1.5404.1677 1.9349-.5064.3945-.6742.1678-1.5405-.5064-1.935zm5.787-2.5368c-.6564.4234-.8453 1.2987-.4219 1.9551s1.2987.8453 1.9551.422zm4.7765-3.5887c0-.7811-.6332-1.4143-1.4143-1.4143-.781 0-1.4142.6332-1.4142 1.4143zm-14.0666 0c0 2.6135 1.4079 4.8994 3.5031 6.1255l1.4285-2.4414c-1.2568-.7354-2.1031-2.1081-2.1031-3.6841zm10.8233 5.9658c1.9506-1.2581 3.2433-3.4617 3.2433-5.9658h-2.8285c0 1.5101-.7768 2.8334-1.948 3.5887z" fill="#8c9157"/><path clip-rule="evenodd" d="m30.5 25.6667c1.5516 0 2.8095-1.9028 2.8095-4.25s-1.2579-4.25-2.8095-4.25c-1.5517 0-2.8096 1.9028-2.8096 4.25s1.2579 4.25 2.8096 4.25z" fill="#c59262" fill-rule="evenodd"/></g></svg>