<svg fill="none" height="53" viewBox="0 0 61 53" width="61" xmlns="http://www.w3.org/2000/svg" xmlns:xlink="http://www.w3.org/1999/xlink"><mask id="a" height="43" maskUnits="userSpaceOnUse" width="59" x="1" y="3"><rect fill="#fff" height="42.5" rx="4.24286" width="59" x="1" y="3"/></mask><rect fill="#fff" height="42.5" rx="4.24286" width="59" x="1" y="3"/><g mask="url(#a)"><path clip-rule="evenodd" d="m60 3h-30.9048v2.83333h30.9048zm0 5.66664h-30.9048v2.83336h30.9048zm-30.9048 5.66666h30.9048v2.8334h-30.9048zm30.9048 5.6667h-30.9048v2.8333h30.9048zm-59 5.6667h59v2.8333h-59zm59 5.6666h-59v2.8334h59zm-59 5.6667h59v2.8334h-59zm59 5.6667h-59v2.8333h59z" fill="#e1244a" fill-rule="evenodd"/><path d="m1 3h33.7143v22.6667h-33.7143z" fill="#0c3f8e"/><path clip-rule="evenodd" d="m15.0477 22.8333c1.9915 0 3.8217-.6965 5.264-1.8612-.764.2874-1.5911.4445-2.4545.4445-3.8791 0-7.0238-3.1713-7.0238-7.0833s3.1447-7.08332 7.0238-7.08332c.8634 0 1.6905.15711 2.4545.44453-1.4423-1.16467-3.2725-1.8612-5.264-1.8612-4.655 0-8.42856 3.80558-8.42856 8.49999 0 4.6944 3.77356 8.5 8.42856 8.5zm5.9906-3.3945 2.438-2.7822 2.438 2.7822-.6368-3.6569 3.677-.1876-3.2322-1.778 2.1471-3.0161-3.3935 1.4399-.9996-3.57346-.9996 3.57346-3.3935-1.4399 2.1471 3.0161-3.2322 1.778 3.677.1876z" fill="#ffd34f" fill-rule="evenodd"/></g></svg>