<svg width="65" height="53" viewBox="0 0 65 53" fill="none" xmlns="http://www.w3.org/2000/svg">
<rect x="6" y="3" width="59" height="42.5" rx="4.24286" fill="white"/>
<mask id="mask0" mask-type="alpha" maskUnits="userSpaceOnUse" x="6" y="3" width="59" height="43">
<rect x="6" y="3" width="59" height="42.5" rx="4.24286" fill="white"/>
</mask>
<g mask="url(#mask0)">
<path fill-rule="evenodd" clip-rule="evenodd" d="M6 45.5H65V34.1666H6V45.5Z" fill="#FFE547"/>
<path fill-rule="evenodd" clip-rule="evenodd" d="M6 14.3333H65V3H6V14.3333Z" fill="#118C81"/>
<path fill-rule="evenodd" clip-rule="evenodd" d="M6 34.1666H65V14.3333H6V34.1666Z" fill="white"/>
<path fill-rule="evenodd" clip-rule="evenodd" d="M6 31.3334H65V17.1667H6V31.3334Z" fill="#262626"/>
<path fill-rule="evenodd" clip-rule="evenodd" d="M6 3L34.0952 24.25L6 45.5V3Z" fill="#EF2147"/>
<path fill-rule="evenodd" clip-rule="evenodd" d="M15.8334 26.9574L11.7049 29.9806L13.2801 25.0867L9.15334 22.0612L14.2554 22.0597L15.8334 17.1667L17.4114 22.0597L22.5134 22.0612L18.3867 25.0867L19.9619 29.9806L15.8334 26.9574Z" fill="#FDE444"/>
</g>
</svg>
