<svg fill="none" height="53" viewBox="0 0 65 53" width="65" xmlns="http://www.w3.org/2000/svg" xmlns:xlink="http://www.w3.org/1999/xlink"><mask id="a" height="43" maskUnits="userSpaceOnUse" width="59" x="6" y="3"><rect fill="#fff" height="42.5" rx="4.24286" width="59" x="6" y="3"/></mask><rect fill="#fff" height="42.5" rx="4.24286" width="59" x="6" y="3"/><g clip-rule="evenodd" fill-rule="evenodd" mask="url(#a)"><path d="m6 45.5h59v-11.3334h-59z" fill="#ffe547"/><path d="m6 14.3333h59v-11.3333h-59z" fill="#118c81"/><path d="m6 34.1666h59v-19.8333h-59z" fill="#fff"/><path d="m6 31.3334h59v-14.1667h-59z" fill="#262626"/><path d="m6 3 28.0952 21.25-28.0952 21.25z" fill="#ef2147"/><path d="m15.8334 26.9574-4.1285 3.0232 1.5752-4.8939-4.12676-3.0255 5.10206-.0015 1.578-4.893 1.578 4.893 5.102.0015-4.1267 3.0255 1.5752 4.8939z" fill="#fde444"/></g></svg>