<svg width="61" height="53" viewBox="0 0 61 53" fill="none" xmlns="http://www.w3.org/2000/svg">
<rect x="1" y="3" width="59" height="42.5" rx="4.24286" fill="white"/>
<mask id="mask0" mask-type="alpha" maskUnits="userSpaceOnUse" x="1" y="3" width="59" height="43">
<rect x="1" y="3" width="59" height="42.5" rx="4.24286" fill="white"/>
</mask>
<g mask="url(#mask0)">
<path fill-rule="evenodd" clip-rule="evenodd" d="M1 31.3333L60 3H1V31.3333Z" fill="#0C4799"/>
<path fill-rule="evenodd" clip-rule="evenodd" d="M10.8334 15.75L8.68309 18.152L8.84677 14.9201L5.64208 15.0852L8.02388 12.9167L5.64208 10.7481L8.84677 10.9132L8.68309 7.68135L10.8334 10.0833L12.9837 7.68135L12.82 10.9132L16.0247 10.7481L13.6429 12.9167L16.0247 15.0852L12.82 14.9201L12.9837 18.152L10.8334 15.75Z" fill="#FFD243"/>
<path fill-rule="evenodd" clip-rule="evenodd" d="M1 45.5H60V17.1667L1 45.5Z" fill="#1BAC55"/>
<path fill-rule="evenodd" clip-rule="evenodd" d="M7.49507 51.1668L64.5741 15.1976L53.505 -2.66669L-3.57397 33.3025L7.49507 51.1668V51.1668Z" fill="white"/>
<path fill-rule="evenodd" clip-rule="evenodd" d="M-0.325916 52.0278L68.7698 8.48612L61.3257 -3.52789L-7.77002 40.0138L-0.325916 52.0278V52.0278Z" fill="#E52347"/>
</g>
</svg>
