<svg fill="none" height="53" viewBox="0 0 61 53" width="61" xmlns="http://www.w3.org/2000/svg" xmlns:xlink="http://www.w3.org/1999/xlink"><mask id="a" height="43" maskUnits="userSpaceOnUse" width="59" x="1" y="3"><rect fill="#fff" height="42.5" rx="4.24286" width="59" x="1" y="3"/></mask><rect fill="#fff" height="42.5" rx="4.24286" width="59" x="1" y="3"/><g clip-rule="evenodd" fill-rule="evenodd" mask="url(#a)"><path d="m1 31.3333 59-28.3333h-59z" fill="#0c4799"/><path d="m10.8334 15.75-2.15031 2.402.16368-3.2319-3.20469.1651 2.3818-2.1685-2.3818-2.1686 3.20469.1651-.16368-3.23185 2.15031 2.40195 2.1503-2.40195-.1637 3.23185 3.2047-.1651-2.3818 2.1686 2.3818 2.1685-3.2047-.1651.1637 3.2319z" fill="#ffd243"/><path d="m1 45.5h59v-28.3333z" fill="#1bac55"/><path d="m7.49507 51.1668 57.07903-35.9692-11.0691-17.86429-57.07897 35.96919z" fill="#fff"/><path d="m-.325916 52.0278 69.095716-43.54168-7.4441-12.01401-69.09572 43.54169z" fill="#e52347"/></g></svg>