<svg fill="none" height="53" viewBox="0 0 61 53" width="61" xmlns="http://www.w3.org/2000/svg" xmlns:xlink="http://www.w3.org/1999/xlink"><mask id="a" height="43" maskUnits="userSpaceOnUse" width="35" x="2" y="3"><path clip-rule="evenodd" d="m2 7.24286c0-2.34327 1.89959-4.24286 4.24286-4.24286h.94496c.2811 0 .55582.08376.78909.2406l25.65779 17.2501c2.3177 1.5583 1.2147 5.176-1.5782 5.176h-13.1994l16.8672 14.8838c1.954 1.7243.7345 4.9495-1.8715 4.9495h-27.60994c-2.34327 0-4.24286-1.8996-4.24286-4.2429z" fill="#fff" fill-rule="evenodd"/></mask><rect fill="#fff" height="41.4393" rx="3.7125" stroke="#f5f5f5" stroke-width="1.06071" width="57.9393" x="2.53036" y="3.53036"/><path clip-rule="evenodd" d="m2 7.24286c0-2.34327 1.89959-4.24286 4.24286-4.24286h.94496c.2811 0 .55582.08376.78909.2406l25.65779 17.2501c2.3177 1.5583 1.2147 5.176-1.5782 5.176h-13.1994l16.8672 14.8838c1.954 1.7243.7345 4.9495-1.8715 4.9495h-27.60994c-2.34327 0-4.24286-1.8996-4.24286-4.2429z" fill="#fff" fill-rule="evenodd"/><g mask="url(#a)"><path d="m33.8528 44.0857h-30.43851v-39.67141h3.77353l25.65778 17.25011c1.1589.7792.6073 2.588-.7891 2.588h-13.1994c-.5881 0-1.1148.3639-1.3228.9141-.208.5501-.0539 1.1715.3871 1.5606l16.8672 14.8839c.977.8621.3672 2.4747-.9358 2.4747z" fill="#ee1b44" stroke="#0543a8" stroke-linejoin="round" stroke-width="2.82857"/><path clip-rule="evenodd" d="m16.4362 19.5767c.8093-.2237 1.5555-.5297 2.2155-.9024-.6546 2.3978-2.8324 4.159-5.418 4.159-2.5857 0-4.76345-1.7612-5.41803-4.159.66178.3737 1.41025.6803 2.22223.9042l1.093-.9952-1.78637-1.6264 2.40347.1238-.1227-2.4238 1.6127 1.8014 1.6128-1.8014-.1228 2.4238 2.4035-.1238-1.7863 1.6264zm-5.3484 19.8252 2.1503-2.4019 2.1503 2.4019-.1637-3.2318 3.2047.1651-2.3818-2.1686 2.3818-2.1685-3.2047.1651.1637-3.2319-2.1503 2.402-2.1503-2.402.1637 3.2319-3.20472-.1651 2.38182 2.1685-2.38182 2.1686 3.20472-.1651z" fill="#fff" fill-rule="evenodd"/></g></svg>