<svg fill="none" height="53" viewBox="0 0 61 53" width="61" xmlns="http://www.w3.org/2000/svg" xmlns:xlink="http://www.w3.org/1999/xlink"><mask id="a" height="43" maskUnits="userSpaceOnUse" width="59" x="1" y="3"><rect fill="#fff" height="41.4393" rx="3.7125" stroke="#fff" stroke-width="1.06071" width="57.9393" x="1.53036" y="3.53036"/></mask><rect fill="#fff" height="41.4393" rx="3.7125" stroke="#f5f5f5" stroke-width="1.06071" width="57.9393" x="1.53036" y="3.53036"/><g clip-rule="evenodd" fill-rule="evenodd" mask="url(#a)"><path d="m60 22.8333h-30.9048v-19.8333h30.9048z" fill="#e52448"/><path d="m60 45.5h-30.9048v-22.6666h-28.0952v22.6667h59v-22.6667z" fill="#1367ae"/><path d="m15.0478 15.24-3.3028 2.2611 1.1117-3.8665-3.15297-2.469 3.98987-.1285 1.3542-3.7871 1.3541 3.7871 3.9899.1285-3.153 2.469 1.1118 3.8665z" fill="#1367ae"/><path d="m44.5478 36.49-3.3028 2.2611 1.1117-3.8665-3.153-2.469 3.9899-.1285 1.3542-3.7871 1.3541 3.7871 3.9899.1285-3.153 2.469 1.1118 3.8665z" fill="#e52448"/></g></svg>