<svg width="61" height="53" viewBox="0 0 61 53" fill="none" xmlns="http://www.w3.org/2000/svg">
<rect x="1.53036" y="3.53036" width="57.9393" height="41.4393" rx="3.7125" fill="white" stroke="#F5F5F5" stroke-width="1.06071"/>
<mask id="mask0" mask-type="alpha" maskUnits="userSpaceOnUse" x="1" y="3" width="59" height="43">
<rect x="1.53036" y="3.53036" width="57.9393" height="41.4393" rx="3.7125" fill="white" stroke="white" stroke-width="1.06071"/>
</mask>
<g mask="url(#mask0)">
<path fill-rule="evenodd" clip-rule="evenodd" d="M1 14.3333H60V3H1V14.3333Z" fill="#D82332"/>
<path fill-rule="evenodd" clip-rule="evenodd" d="M1 45.5H60V34.1666H1V45.5Z" fill="#D82332"/>
<path fill-rule="evenodd" clip-rule="evenodd" d="M28.5349 25.8495L27.9355 26.4132C28.4774 26.5665 29.229 26.388 29.5283 25.8495H28.5349" fill="#064A89"/>
<path fill-rule="evenodd" clip-rule="evenodd" d="M23.6992 26.2335C24.1048 26.6425 24.7766 26.5948 25.1822 26.3359C25.5881 26.0768 25.8862 26.0603 26.139 26.0875C26.1658 26.3183 26.2256 26.6142 26.3281 26.9067H23.922C23.8622 26.7568 23.7456 26.4074 23.6992 26.2335" fill="#064A89"/>
<path fill-rule="evenodd" clip-rule="evenodd" d="M24.145 27.3266C24.6173 27.1015 25.1 27.28 25.309 27.4422C25.6947 27.7422 26.332 27.6609 26.6446 27.4906C26.7639 27.6869 26.9088 27.88 27.0836 28.0274H24.5091C24.4046 27.8572 24.1785 27.4388 24.145 27.3266" fill="#064A89"/>
<path fill-rule="evenodd" clip-rule="evenodd" d="M35.3423 29.1904C35.4554 29.0746 35.6083 28.8838 35.7082 28.7476C35.5419 28.727 35.3486 28.6057 35.143 28.5022C34.7637 28.3112 34.4014 28.3112 34.0787 28.5362C33.6 28.8701 33.0013 28.9519 32.5357 28.618C32.0249 28.2515 31.5515 28.3317 31.1523 28.5637C30.7532 28.7951 30.5006 28.8088 30.2611 28.8088C30.0216 28.8088 29.769 28.7951 29.3699 28.5637C28.9707 28.3317 28.4973 28.2515 27.9865 28.618C27.5209 28.9519 26.9222 28.8701 26.4435 28.5362C26.1208 28.3112 25.7585 28.3112 25.3792 28.5022C25.1734 28.6057 24.9803 28.727 24.814 28.7476C24.9139 28.8838 25.0668 29.0746 25.1799 29.1904H35.3423" fill="#064A89"/>
<path fill-rule="evenodd" clip-rule="evenodd" d="M34.096 30.33C34.2023 30.2619 34.4951 30.0371 34.6414 29.9212C34.4817 29.9553 34.1178 29.8358 33.9298 29.7371C33.3842 29.4508 33.0252 29.4782 32.6196 29.6962C32.2138 29.9144 31.6419 30.0302 31.2229 29.7985C30.8039 29.5668 30.5044 29.5054 30.285 29.5054C30.0656 29.5054 29.7662 29.5668 29.3472 29.7985C28.9282 30.0302 28.3563 29.9144 27.9505 29.6962C27.5449 29.4782 27.1859 29.4508 26.6402 29.7371C26.4523 29.8358 26.0884 29.9553 25.9287 29.9212C26.075 30.0371 26.3678 30.2619 26.4741 30.33H34.096" fill="#064A89"/>
<path fill-rule="evenodd" clip-rule="evenodd" d="M31.6978 28.0645C31.5847 28.0033 31.4525 27.8605 31.3318 27.6772C31.139 27.3841 30.833 27.2205 30.3742 27.2205C29.9153 27.2205 29.6093 27.3841 29.4165 27.6772C29.2958 27.8605 29.1636 28.0033 29.0508 28.0645H31.6978" fill="#064A89"/>
<path fill-rule="evenodd" clip-rule="evenodd" d="M30.9429 27.0123C30.8963 26.9305 30.7967 26.6714 30.7634 26.535C30.6569 26.5692 30.4508 26.5827 30.3311 26.5827C30.2114 26.5827 30.0053 26.5692 29.8987 26.535C29.8655 26.6714 29.7658 26.9305 29.7192 27.0123H30.9429" fill="#064A89"/>
<path fill-rule="evenodd" clip-rule="evenodd" d="M32.0505 25.8495L32.6499 26.4132C32.108 26.5665 31.3564 26.388 31.0571 25.8495H32.0505" fill="#064A89"/>
<path fill-rule="evenodd" clip-rule="evenodd" d="M37.0308 26.2335C36.6252 26.6425 35.9533 26.5948 35.5477 26.3359C35.1419 26.0768 34.8438 26.0603 34.5909 26.0875C34.564 26.3183 34.5044 26.6142 34.4019 26.9067H36.808C36.8678 26.7568 36.9842 26.4074 37.0308 26.2335" fill="#064A89"/>
<path fill-rule="evenodd" clip-rule="evenodd" d="M36.6715 27.3266C36.1993 27.1015 35.7165 27.28 35.5076 27.4422C35.1218 27.7422 34.4846 27.6609 34.172 27.4906C34.0527 27.6869 33.9077 27.88 33.7329 28.0274H36.3074C36.412 27.8572 36.6383 27.4388 36.6715 27.3266" fill="#064A89"/>
<path fill-rule="evenodd" clip-rule="evenodd" d="M32.9419 30.7772C32.1354 31.1144 31.2529 31.3006 30.328 31.3006C29.4022 31.3006 28.5201 31.1146 27.7129 30.7767C27.8857 30.7564 28.1147 30.6709 28.2993 30.5656C28.5988 30.3951 29.144 30.3611 29.4035 30.5315C29.6628 30.702 29.9754 30.8722 30.328 30.8722C30.6805 30.8722 30.9931 30.702 31.2524 30.5315C31.5118 30.3611 32.0572 30.3951 32.3566 30.5656C32.541 30.6709 32.7689 30.7568 32.9419 30.7772" fill="#064A89"/>
<path fill-rule="evenodd" clip-rule="evenodd" d="M31.8175 17.2947C30.361 16.9881 29.0508 17.1652 29.0508 18.5693C29.0508 19.946 29.0508 21.9905 29.0508 22.4132C29.0508 22.8357 29.059 22.8892 29.5496 23.0062C30.6136 23.26 30.7133 23.2856 31.8706 23.558V19.6053C30.9662 19.5029 30.6203 18.9828 30.6203 18.3785C30.6203 17.7924 31.0192 17.4106 31.8175 17.2947" fill="#514537"/>
<path fill-rule="evenodd" clip-rule="evenodd" d="M28.085 28.1356C27.2736 28.1356 26.4223 27.4131 26.4223 26.0364C26.4223 24.6595 26.4223 22.9284 26.4223 22.6149C26.4223 22.3049 26.4564 22.2612 26.3857 22.189C26.3443 22.1465 26.4323 22.0834 26.4921 22.022C26.5819 21.9299 26.6435 21.8534 26.5222 21.7288C26.4007 21.6045 26.4524 21.5721 26.5289 21.4939C26.6054 21.4153 26.6352 21.3372 26.5621 21.262C26.489 21.1871 26.4722 21.1633 26.5521 21.0815C26.6319 20.9997 26.5987 20.9656 26.5322 20.8973C26.4656 20.8292 26.4341 20.7799 26.5188 20.6931C26.602 20.6078 26.6085 20.5941 26.705 20.5941C26.8016 20.5941 27.011 20.5941 27.1042 20.5941C27.1974 20.5941 27.1989 20.6231 27.1207 20.7033C27.0192 20.8071 26.9893 20.848 27.1042 20.9656C27.2188 21.0831 27.2139 21.1224 27.1407 21.1973C27.0308 21.3098 26.9826 21.3865 27.0941 21.5008C27.2056 21.6148 27.2154 21.666 27.1307 21.7528C27.046 21.8396 27.0375 21.9164 27.1307 22.0117C27.2023 22.085 27.2072 22.1278 27.2072 22.2571C27.2072 23.0376 27.2072 25.164 27.2072 25.7501C27.2072 26.3362 27.6195 26.6906 28.4043 26.6906C29.1892 26.6906 29.4552 26.3634 29.6813 26.1454C29.5351 27.1949 29.1094 28.1356 28.085 28.1356" fill="#514537"/>
<path fill-rule="evenodd" clip-rule="evenodd" d="M30.3748 24.7918C30.4845 24.8256 30.5909 24.9892 30.5909 25.1665H30.8072C30.8072 25.0166 30.7438 24.7849 30.6292 24.6417C30.6274 24.6042 30.6225 24.572 30.6143 24.5395C30.6941 24.4372 30.8105 24.2736 30.8072 24.1168C30.8049 24.0179 30.6908 24.0215 30.6774 24.0999C30.6665 24.1644 30.6243 24.2635 30.5445 24.2976C30.5445 24.1714 30.4745 24.0215 30.3748 24.0215C30.2751 24.0215 30.2051 24.1714 30.2051 24.2976C30.1253 24.2635 30.0832 24.1644 30.0722 24.0999C30.0588 24.0215 29.9445 24.0179 29.9425 24.1168C29.9391 24.2736 30.0555 24.4372 30.1353 24.5395C30.1271 24.572 30.1222 24.6042 30.1204 24.6417C30.0058 24.7849 29.9425 25.0166 29.9425 25.1665H30.1587C30.1587 24.9892 30.2651 24.8256 30.3748 24.7918" fill="#514537"/>
<path fill-rule="evenodd" clip-rule="evenodd" d="M29.2601 24.7918C29.3698 24.8256 29.4764 24.9892 29.4764 25.1665H29.6924C29.6924 25.0166 29.6293 24.7849 29.5145 24.6417C29.5129 24.6042 29.5078 24.572 29.4995 24.5395C29.5794 24.4372 29.6958 24.2736 29.6924 24.1168C29.6904 24.0179 29.576 24.0215 29.5626 24.0999C29.5517 24.1644 29.5094 24.2635 29.4297 24.2976C29.4297 24.1714 29.36 24.0215 29.2601 24.0215C29.1604 24.0215 29.0906 24.1714 29.0906 24.2976C29.0108 24.2635 28.9684 24.1644 28.9575 24.0999C28.9441 24.0215 28.8299 24.0179 28.8277 24.1168C28.8244 24.2736 28.9408 24.4372 29.0206 24.5395C29.0123 24.572 29.0074 24.6042 29.0056 24.6417C28.891 24.7849 28.8277 25.0166 28.8277 25.1665H29.044C29.044 24.9892 29.1504 24.8256 29.2601 24.7918" fill="#514537"/>
<path fill-rule="evenodd" clip-rule="evenodd" d="M28.1453 24.7918C28.255 24.8256 28.3614 24.9892 28.3614 25.1665H28.5777C28.5777 25.0166 28.5143 24.7849 28.3997 24.6417C28.398 24.6042 28.393 24.572 28.3848 24.5395C28.4646 24.4372 28.581 24.2736 28.5777 24.1168C28.5754 24.0179 28.4613 24.0215 28.4479 24.0999C28.437 24.1644 28.3946 24.2635 28.3148 24.2976C28.3148 24.1714 28.245 24.0215 28.1453 24.0215C28.0454 24.0215 27.9756 24.1714 27.9756 24.2976C27.8958 24.2635 27.8537 24.1644 27.8427 24.0999C27.8294 24.0215 27.715 24.0179 27.713 24.1168C27.7096 24.2736 27.826 24.4372 27.9058 24.5395C27.8976 24.572 27.8925 24.6042 27.8909 24.6417C27.7761 24.7849 27.713 25.0166 27.713 25.1665H27.929C27.929 24.9892 28.0356 24.8256 28.1453 24.7918" fill="#514537"/>
<path fill-rule="evenodd" clip-rule="evenodd" d="M31.4896 24.7918C31.3798 24.8256 31.2735 24.9892 31.2735 25.1665H31.0572C31.0572 25.0166 31.1203 24.7849 31.2351 24.6417C31.2367 24.6042 31.2418 24.572 31.2503 24.5395C31.1702 24.4372 31.0539 24.2736 31.0572 24.1168C31.0594 24.0179 31.1736 24.0215 31.187 24.0999C31.1979 24.1644 31.2403 24.2635 31.3199 24.2976C31.3199 24.1714 31.3899 24.0215 31.4896 24.0215C31.5894 24.0215 31.6592 24.1714 31.6592 24.2976C31.7388 24.2635 31.7812 24.1644 31.7921 24.0999C31.8055 24.0215 31.9197 24.0179 31.9219 24.1168C31.9253 24.2736 31.8089 24.4372 31.729 24.5395C31.7373 24.572 31.7424 24.6042 31.744 24.6417C31.8588 24.7849 31.9219 25.0166 31.9219 25.1665H31.7056C31.7056 24.9892 31.5993 24.8256 31.4896 24.7918" fill="#514537"/>
<path fill-rule="evenodd" clip-rule="evenodd" d="M32.6048 24.7918C32.4951 24.8256 32.3887 24.9892 32.3887 25.1665H32.1724C32.1724 25.0166 32.2358 24.7849 32.3504 24.6417C32.3522 24.6042 32.3571 24.572 32.3653 24.5395C32.2855 24.4372 32.1691 24.2736 32.1724 24.1168C32.1744 24.0179 32.2888 24.0215 32.3022 24.0999C32.3131 24.1644 32.3553 24.2635 32.4351 24.2976C32.4351 24.1714 32.5051 24.0215 32.6048 24.0215C32.7047 24.0215 32.7745 24.1714 32.7745 24.2976C32.8543 24.2635 32.8964 24.1644 32.9074 24.0999C32.9207 24.0215 33.0349 24.0179 33.0371 24.1168C33.0405 24.2736 32.9241 24.4372 32.8443 24.5395C32.8525 24.572 32.8574 24.6042 32.8592 24.6417C32.974 24.7849 33.0371 25.0166 33.0371 25.1665H32.8211C32.8211 24.9892 32.7145 24.8256 32.6048 24.7918" fill="#514537"/>
<path fill-rule="evenodd" clip-rule="evenodd" d="M27.4897 25.3925H33.3425V25.6758H27.4897V25.3925Z" fill="#514537"/>
<path fill-rule="evenodd" clip-rule="evenodd" d="M32.6534 28.1356C33.4648 28.1356 34.3162 27.4131 34.3162 26.0364C34.3162 24.6595 34.3162 22.9284 34.3162 22.6149C34.3162 22.3049 34.2821 22.2612 34.3527 22.189C34.3942 22.1465 34.3061 22.0834 34.2464 22.022C34.1565 21.9299 34.095 21.8534 34.2163 21.7288C34.3378 21.6045 34.2861 21.5721 34.2098 21.4939C34.1331 21.4153 34.1032 21.3372 34.1764 21.262C34.2495 21.1871 34.2662 21.1633 34.1864 21.0815C34.1066 20.9997 34.1398 20.9656 34.2062 20.8973C34.2729 20.8292 34.3044 20.7799 34.2196 20.6931C34.1365 20.6078 34.13 20.5941 34.0334 20.5941C33.9369 20.5941 33.7275 20.5941 33.6343 20.5941C33.5413 20.5941 33.5395 20.6231 33.6178 20.7033C33.7193 20.8071 33.7491 20.848 33.6343 20.9656C33.5197 21.0831 33.5246 21.1224 33.5977 21.1973C33.7077 21.3098 33.7556 21.3865 33.6443 21.5008C33.5329 21.6148 33.5228 21.666 33.6078 21.7528C33.6925 21.8396 33.701 21.9164 33.6078 22.0117C33.5362 22.085 33.5313 22.1278 33.5313 22.2571C33.5313 23.0376 33.5313 25.164 33.5313 25.7501C33.5313 26.3362 33.1188 26.6906 32.3341 26.6906C31.5492 26.6906 31.2835 26.3634 31.0571 26.1454C31.2034 27.1949 31.6291 28.1356 32.6534 28.1356" fill="#514537"/>
<path fill-rule="evenodd" clip-rule="evenodd" d="M27.4897 23.5579C27.4897 23.5579 27.49 23.3568 27.49 23.1075L28.6599 23.5581L27.4897 23.5579" fill="#EEA339"/>
<path fill-rule="evenodd" clip-rule="evenodd" d="M26.0941 23.7672L23.4761 23.4055C23.5521 22.8306 23.6959 22.2701 23.9029 21.7366L26.0941 22.6279V23.7672" fill="#EEA339"/>
<path fill-rule="evenodd" clip-rule="evenodd" d="M31.5034 19.3538L31.9688 17.3951C32.5133 17.5304 33.0426 17.7342 33.5443 18.0029L32.0435 20.9469L32.0488 19.4687C31.8756 19.4696 31.6098 19.4425 31.5034 19.3538" fill="#EEA339"/>
<path fill-rule="evenodd" clip-rule="evenodd" d="M26.1558 23.9589L23.489 23.793C23.4547 24.3661 23.4888 24.9444 23.5913 25.515C23.5913 25.515 26.1558 25.5314 26.1558 25.515V23.9589" fill="#EEA339"/>
<path fill-rule="evenodd" clip-rule="evenodd" d="M26.1293 22.1156C26.043 21.9998 26.0963 21.9381 26.1893 21.8766C26.2825 21.8154 26.2691 21.7676 26.2227 21.6792C26.1761 21.5906 26.1295 21.495 26.216 21.3998C26.3026 21.3043 26.2691 21.2634 26.2027 21.1953C26.1362 21.1272 26.1295 21.0522 26.1893 20.9976C26.2493 20.943 26.2359 20.9021 26.1962 20.8477C26.1561 20.7931 26.0778 20.6825 26.1478 20.611L25.0599 19.6801C24.7005 20.1207 24.3927 20.6069 24.145 21.1283L26.1293 22.1156" fill="#EEA339"/>
<path fill-rule="evenodd" clip-rule="evenodd" d="M28.7357 22.6232L27.4391 21.3347C27.6219 21.1473 27.6402 21.1167 27.5107 20.9837C27.3693 20.8389 27.3642 20.8238 27.6518 20.5288C27.7499 20.4285 27.6951 20.3583 27.5555 20.3583C27.4159 20.3583 26.774 20.3583 26.7008 20.3583C26.6277 20.3583 26.5702 20.3622 26.5166 20.4171L25.4829 19.3916C25.8774 18.9755 26.318 18.6124 26.7938 18.3092L28.7357 21.5093V22.6232" fill="#EEA339"/>
<path fill-rule="evenodd" clip-rule="evenodd" d="M27.387 22.8192C27.387 22.4991 27.3873 22.1821 27.3873 22.1371C27.3873 22.0416 27.3806 22.0041 27.3074 21.9292C27.2343 21.8542 27.2709 21.8184 27.3275 21.7366L28.5575 22.7865V23.403L27.387 22.8192" fill="#EEA339"/>
<path fill-rule="evenodd" clip-rule="evenodd" d="M28.5395 20.9485C28.5395 20.3336 28.5395 19.7649 28.5395 19.4372C28.5395 18.4558 28.5932 17.965 28.7328 17.8663L28.6211 17.3951C28.075 17.5457 27.5456 17.7495 27.0439 18.0182L28.5395 20.9485" fill="#EEA339"/>
<path fill-rule="evenodd" clip-rule="evenodd" d="M33.3426 23.5579C33.3426 23.5579 33.3423 23.3568 33.3423 23.1075L32.1724 23.5581L33.3426 23.5579" fill="#EEA339"/>
<path fill-rule="evenodd" clip-rule="evenodd" d="M34.625 23.7672L37.243 23.4055C37.1669 22.8306 37.0231 22.2701 36.8162 21.7366L34.625 22.6279V23.7672" fill="#EEA339"/>
<path fill-rule="evenodd" clip-rule="evenodd" d="M34.625 23.9589L37.2916 23.793C37.3259 24.3661 37.292 24.9444 37.1892 25.515C37.1892 25.515 34.625 25.5314 34.625 25.515V23.9589" fill="#EEA339"/>
<path fill-rule="evenodd" clip-rule="evenodd" d="M34.5406 22.1156C34.6271 21.9998 34.5736 21.9381 34.4806 21.8766C34.3874 21.8154 34.4008 21.7676 34.4471 21.6792C34.4937 21.5906 34.5404 21.495 34.4538 21.3998C34.3673 21.3043 34.4008 21.2634 34.4672 21.1953C34.5337 21.1272 34.5404 21.0522 34.4806 20.9976C34.4206 20.943 34.434 20.9021 34.4737 20.8477C34.5138 20.7931 34.5919 20.6825 34.5221 20.611L35.61 19.6801C35.9694 20.1207 36.2769 20.6069 36.5246 21.1283L34.5406 22.1156" fill="#EEA339"/>
<path fill-rule="evenodd" clip-rule="evenodd" d="M32.1724 22.6232L33.469 21.3347C33.2859 21.1473 33.2676 21.1167 33.3974 20.9837C33.5388 20.8389 33.5439 20.8238 33.2563 20.5288C33.1579 20.4285 33.213 20.3583 33.3526 20.3583C33.4922 20.3583 34.1341 20.3583 34.2073 20.3583C34.2804 20.3583 34.3379 20.3622 34.3914 20.4171L35.4252 19.3916C35.0307 18.9755 34.5901 18.6124 34.1143 18.3092L32.1724 21.5093V22.6232" fill="#EEA339"/>
<path fill-rule="evenodd" clip-rule="evenodd" d="M33.3428 22.8192C33.3428 22.4991 33.3425 22.1821 33.3425 22.1371C33.3425 22.0416 33.3492 22.0041 33.4224 21.9292C33.4955 21.8542 33.4589 21.8184 33.4023 21.7366L32.1724 22.7865V23.403L33.3428 22.8192" fill="#EEA339"/>
<path fill-rule="evenodd" clip-rule="evenodd" d="M26.5977 22.1935C26.6443 22.2413 26.6643 22.2888 26.6643 22.4047C26.6643 22.5205 26.6643 25.0559 26.6643 26.051C26.6643 27.2641 27.3825 27.9388 28.1208 27.9388C28.7991 27.9388 29.2449 27.305 29.4776 26.569C29.1784 26.8075 28.7394 26.8825 28.3202 26.8825C27.8347 26.8825 27.0501 26.5486 27.0501 25.8261C27.0501 25.1583 27.0501 22.6841 27.0501 22.2888C27.0501 22.1935 26.9569 22.1935 26.5977 22.1935" fill="#D82332"/>
<path fill-rule="evenodd" clip-rule="evenodd" d="M30.8395 17.4161C29.9121 17.3199 29.0519 17.5175 29.0519 18.814C29.0519 20.1772 29.0519 21.8399 29.0519 22.2585C29.0519 22.8337 29.0077 22.7654 29.4833 22.8862C30.3463 23.1056 30.4441 23.1335 31.4908 23.3784V19.8738C30.5971 19.7734 30.2098 19.1736 30.2098 18.5094C30.2098 17.9809 30.4377 17.4835 30.8395 17.4161" fill="#D82332"/>
<path fill-rule="evenodd" clip-rule="evenodd" d="M34.1603 22.1935C34.1137 22.2413 34.0936 22.2888 34.0936 22.4047C34.0936 22.5205 34.0936 25.0559 34.0936 26.051C34.0936 27.2641 33.3754 27.9388 32.6371 27.9388C31.9588 27.9388 31.5131 27.305 31.2803 26.569C31.5797 26.8075 32.0186 26.8825 32.4378 26.8825C32.9232 26.8825 33.7078 26.5486 33.7078 25.8261C33.7078 25.1583 33.7078 22.6841 33.7078 22.2888C33.7078 22.1935 33.801 22.1935 34.1603 22.1935" fill="#D82332"/>
<mask id="mask1" mask-type="alpha" maskUnits="userSpaceOnUse" x="23" y="17" width="15" height="15">
<path fill-rule="evenodd" clip-rule="evenodd" d="M30.4999 31.3334C34.379 31.3334 37.5237 28.162 37.5237 24.25C37.5237 20.338 34.379 17.1667 30.4999 17.1667C26.6207 17.1667 23.4761 20.338 23.4761 24.25C23.4761 28.162 26.6207 31.3334 30.4999 31.3334Z" fill="white"/>
</mask>
<g mask="url(#mask1)">
<path fill-rule="evenodd" clip-rule="evenodd" d="M30.4999 42.6667C34.379 42.6667 37.5237 39.4954 37.5237 35.5834C37.5237 31.6714 34.379 28.5001 30.4999 28.5001C26.6207 28.5001 23.4761 31.6714 23.4761 35.5834C23.4761 39.4954 26.6207 42.6667 30.4999 42.6667Z" fill="#064A89"/>
</g>
</g>
</svg>
