<svg fill="none" height="53" viewBox="0 0 61 53" width="61" xmlns="http://www.w3.org/2000/svg" xmlns:xlink="http://www.w3.org/1999/xlink"><mask id="a" height="43" maskUnits="userSpaceOnUse" width="59" x="1" y="3"><rect fill="#fff" height="41.4393" rx="3.7125" stroke="#fff" stroke-width="1.06071" width="57.9393" x="1.53036" y="3.53036"/></mask><mask id="b" height="15" maskUnits="userSpaceOnUse" width="15" x="23" y="17"><path clip-rule="evenodd" d="m30.4999 31.3334c3.8791 0 7.0238-3.1714 7.0238-7.0834s-3.1447-7.0833-7.0238-7.0833c-3.8792 0-7.0238 3.1713-7.0238 7.0833s3.1446 7.0834 7.0238 7.0834z" fill="#fff" fill-rule="evenodd"/></mask><rect fill="#fff" height="41.4393" rx="3.7125" stroke="#f5f5f5" stroke-width="1.06071" width="57.9393" x="1.53036" y="3.53036"/><g mask="url(#a)"><g clip-rule="evenodd" fill-rule="evenodd"><path d="m1 14.3333h59v-11.3333h-59z" fill="#d82332"/><path d="m1 45.5h59v-11.3334h-59z" fill="#d82332"/><path d="m28.5349 25.8495-.5994.5637c.5419.1533 1.2935-.0252 1.5928-.5637z" fill="#064a89"/><path d="m23.6992 26.2335c.4056.409 1.0774.3613 1.483.1024.4059-.2591.704-.2756.9568-.2484.0268.2308.0866.5267.1891.8192h-2.4061c-.0598-.1499-.1764-.4993-.2228-.6732" fill="#064a89"/><path d="m24.145 27.3266c.4723-.2251.955-.0466 1.164.1156.3857.3 1.023.2187 1.3356.0484.1193.1963.2642.3894.439.5368h-2.5745c-.1045-.1702-.3306-.5886-.3641-.7008" fill="#064a89"/><path d="m35.3423 29.1904c.1131-.1158.266-.3066.3659-.4428-.1663-.0206-.3596-.1419-.5652-.2454-.3793-.191-.7416-.191-1.0643.034-.4787.3339-1.0774.4157-1.543.0818-.5108-.3665-.9842-.2863-1.3834-.0543-.3991.2314-.6517.2451-.8912.2451s-.4921-.0137-.8912-.2451c-.3992-.232-.8726-.3122-1.3834.0543-.4656.3339-1.0643.2521-1.543-.0818-.3227-.225-.685-.225-1.0643-.034-.2058.1035-.3989.2248-.5652.2454.0999.1362.2528.327.3659.4428z" fill="#064a89"/><path d="m34.096 30.33c.1063-.0681.3991-.2929.5454-.4088-.1597.0341-.5236-.0854-.7116-.1841-.5456-.2863-.9046-.2589-1.3102-.0409-.4058.2182-.9777.334-1.3967.1023s-.7185-.2931-.9379-.2931-.5188.0614-.9378.2931-.9909.1159-1.3967-.1023c-.4056-.218-.7646-.2454-1.3103.0409-.1879.0987-.5518.2182-.7115.1841.1463.1159.4391.3407.5454.4088z" fill="#064a89"/><path d="m31.6978 28.0645c-.1131-.0612-.2453-.204-.366-.3873-.1928-.2931-.4988-.4567-.9576-.4567-.4589 0-.7649.1636-.9577.4567-.1207.1833-.2529.3261-.3657.3873z" fill="#064a89"/><path d="m30.9429 27.0123c-.0466-.0818-.1462-.3409-.1795-.4773-.1065.0342-.3126.0477-.4323.0477s-.3258-.0135-.4324-.0477c-.0332.1364-.1329.3955-.1795.4773z" fill="#064a89"/><path d="m32.0505 25.8495.5994.5637c-.5419.1533-1.2935-.0252-1.5928-.5637z" fill="#064a89"/><path d="m37.0308 26.2335c-.4056.409-1.0775.3613-1.4831.1024-.4058-.2591-.7039-.2756-.9568-.2484-.0269.2308-.0865.5267-.189.8192h2.4061c.0598-.1499.1762-.4993.2228-.6732" fill="#064a89"/><path d="m36.6715 27.3266c-.4722-.2251-.955-.0466-1.1639.1156-.3858.3-1.023.2187-1.3356.0484-.1193.1963-.2643.3894-.4391.5368h2.5745c.1046-.1702.3309-.5886.3641-.7008" fill="#064a89"/><path d="m32.9419 30.7772c-.8065.3372-1.689.5234-2.6139.5234-.9258 0-1.8079-.186-2.6151-.5239.1728-.0203.4018-.1058.5864-.2111.2995-.1705.8447-.2045 1.1042-.0341.2593.1705.5719.3407.9245.3407.3525 0 .6651-.1702.9244-.3407.2594-.1704.8048-.1364 1.1042.0341.1844.1053.4123.1912.5853.2116" fill="#064a89"/><path d="m31.8175 17.2947c-1.4565-.3066-2.7667-.1295-2.7667 1.2746v3.8439c0 .4225.0082.476.4988.593 1.064.2538 1.1637.2794 2.321.5518v-3.9527c-.9044-.1024-1.2503-.6225-1.2503-1.2268 0-.5861.3989-.9679 1.1972-1.0838" fill="#514537"/><path d="m28.085 28.1356c-.8114 0-1.6627-.7225-1.6627-2.0992 0-1.3769 0-3.108 0-3.4215 0-.31.0341-.3537-.0366-.4259-.0414-.0425.0466-.1056.1064-.167.0898-.0921.1514-.1686.0301-.2932-.1215-.1243-.0698-.1567.0067-.2349.0765-.0786.1063-.1567.0332-.2319-.0731-.0749-.0899-.0987-.01-.1805.0798-.0818.0466-.1159-.0199-.1842-.0666-.0681-.0981-.1174-.0134-.2042.0832-.0853.0897-.099.1862-.099h.3992c.0932 0 .0947.029.0165.1092-.1015.1038-.1314.1447-.0165.2623.1146.1175.1097.1568.0365.2317-.1099.1125-.1581.1892-.0466.3035.1115.114.1213.1652.0366.252s-.0932.1636 0 .2589c.0716.0733.0765.1161.0765.2454v3.493c0 .5861.4123.9405 1.1971.9405.7849 0 1.0509-.3272 1.277-.5452-.1462 1.0495-.5719 1.9902-1.5963 1.9902" fill="#514537"/><path d="m30.3748 24.7918c.1097.0338.2161.1974.2161.3747h.2163c0-.1499-.0634-.3816-.178-.5248-.0018-.0375-.0067-.0697-.0149-.1022.0798-.1023.1962-.2659.1929-.4227-.0023-.0989-.1164-.0953-.1298-.0169-.0109.0645-.0531.1636-.1329.1977 0-.1262-.07-.2761-.1697-.2761s-.1697.1499-.1697.2761c-.0798-.0341-.1219-.1332-.1329-.1977-.0134-.0784-.1277-.082-.1297.0169-.0034.1568.113.3204.1928.4227-.0082.0325-.0131.0647-.0149.1022-.1146.1432-.1779.3749-.1779.5248h.2162c0-.1773.1064-.3409.2161-.3747" fill="#514537"/><path d="m29.2601 24.7918c.1097.0338.2163.1974.2163.3747h.216c0-.1499-.0631-.3816-.1779-.5248-.0016-.0375-.0067-.0697-.015-.1022.0799-.1023.1963-.2659.1929-.4227-.002-.0989-.1164-.0953-.1298-.0169-.0109.0645-.0532.1636-.1329.1977 0-.1262-.0697-.2761-.1696-.2761-.0997 0-.1695.1499-.1695.2761-.0798-.0341-.1222-.1332-.1331-.1977-.0134-.0784-.1276-.082-.1298.0169-.0033.1568.1131.3204.1929.4227-.0083.0325-.0132.0647-.015.1022-.1146.1432-.1779.3749-.1779.5248h.2163c0-.1773.1064-.3409.2161-.3747" fill="#514537"/><path d="m28.1453 24.7918c.1097.0338.2161.1974.2161.3747h.2163c0-.1499-.0634-.3816-.178-.5248-.0017-.0375-.0067-.0697-.0149-.1022.0798-.1023.1962-.2659.1929-.4227-.0023-.0989-.1164-.0953-.1298-.0169-.0109.0645-.0533.1636-.1331.1977 0-.1262-.0698-.2761-.1695-.2761-.0999 0-.1697.1499-.1697.2761-.0798-.0341-.1219-.1332-.1329-.1977-.0133-.0784-.1277-.082-.1297.0169-.0034.1568.113.3204.1928.4227-.0082.0325-.0133.0647-.0149.1022-.1148.1432-.1779.3749-.1779.5248h.216c0-.1773.1066-.3409.2163-.3747" fill="#514537"/><path d="m31.4896 24.7918c-.1098.0338-.2161.1974-.2161.3747h-.2163c0-.1499.0631-.3816.1779-.5248.0016-.0375.0067-.0697.0152-.1022-.0801-.1023-.1964-.2659-.1931-.4227.0022-.0989.1164-.0953.1298-.0169.0109.0645.0533.1636.1329.1977 0-.1262.07-.2761.1697-.2761.0998 0 .1696.1499.1696.2761.0796-.0341.122-.1332.1329-.1977.0134-.0784.1276-.082.1298.0169.0034.1568-.113.3204-.1929.4227.0083.0325.0134.0647.015.1022.1148.1432.1779.3749.1779.5248h-.2163c0-.1773-.1063-.3409-.216-.3747" fill="#514537"/><path d="m32.6048 24.7918c-.1097.0338-.2161.1974-.2161.3747h-.2163c0-.1499.0634-.3816.178-.5248.0018-.0375.0067-.0697.0149-.1022-.0798-.1023-.1962-.2659-.1929-.4227.002-.0989.1164-.0953.1298-.0169.0109.0645.0531.1636.1329.1977 0-.1262.07-.2761.1697-.2761.0999 0 .1697.1499.1697.2761.0798-.0341.1219-.1332.1329-.1977.0133-.0784.1275-.082.1297.0169.0034.1568-.113.3204-.1928.4227.0082.0325.0131.0647.0149.1022.1148.1432.1779.3749.1779.5248h-.216c0-.1773-.1066-.3409-.2163-.3747" fill="#514537"/><path d="m27.4897 25.3925h5.8528v.2833h-5.8528z" fill="#514537"/><path d="m32.6534 28.1356c.8114 0 1.6628-.7225 1.6628-2.0992 0-1.3769 0-3.108 0-3.4215 0-.31-.0341-.3537.0365-.4259.0415-.0425-.0466-.1056-.1063-.167-.0899-.0921-.1514-.1686-.0301-.2932.1215-.1243.0698-.1567-.0065-.2349-.0767-.0786-.1066-.1567-.0334-.2319.0731-.0749.0898-.0987.01-.1805s-.0466-.1159.0198-.1842c.0667-.0681.0982-.1174.0134-.2042-.0831-.0853-.0896-.099-.1862-.099-.0965 0-.3059 0-.3991 0-.093 0-.0948.029-.0165.1092.1015.1038.1313.1447.0165.2623-.1146.1175-.1097.1568-.0366.2317.11.1125.1579.1892.0466.3035-.1114.114-.1215.1652-.0365.252.0847.0868.0932.1636 0 .2589-.0716.0733-.0765.1161-.0765.2454v3.493c0 .5861-.4125.9405-1.1972.9405-.7849 0-1.0506-.3272-1.277-.5452.1463 1.0495.572 1.9902 1.5963 1.9902" fill="#514537"/><path d="m27.4897 23.5579s.0003-.2011.0003-.4504l1.1699.4506z" fill="#eea339"/><path d="m26.0941 23.7672-2.618-.3617c.076-.5749.2198-1.1354.4268-1.6689l2.1912.8913z" fill="#eea339"/><path d="m31.5034 19.3538.4654-1.9587c.5445.1353 1.0738.3391 1.5755.6078l-1.5008 2.944.0053-1.4782c-.1732.0009-.439-.0262-.5454-.1149" fill="#eea339"/><path d="m26.1558 23.9589-2.6668-.1659c-.0343.5731-.0002 1.1514.1023 1.722 0 0 2.5645.0164 2.5645 0z" fill="#eea339"/><path d="m26.1293 22.1156c-.0863-.1158-.033-.1775.06-.239.0932-.0612.0798-.109.0334-.1974-.0466-.0886-.0932-.1842-.0067-.2794.0866-.0955.0531-.1364-.0133-.2045-.0665-.0681-.0732-.1431-.0134-.1977.06-.0546.0466-.0955.0069-.1499-.0401-.0546-.1184-.1652-.0484-.2367l-1.0879-.9309c-.3594.4406-.6672.9268-.9149 1.4482z" fill="#eea339"/><path d="m28.7357 22.6232-1.2966-1.2885c.1828-.1874.2011-.218.0716-.351-.1414-.1448-.1465-.1599.1411-.4549.0981-.1003.0433-.1705-.0963-.1705s-.7815 0-.8547 0c-.0731 0-.1306.0039-.1842.0588l-1.0337-1.0255c.3945-.4161.8351-.7792 1.3109-1.0824l1.9419 3.2001z" fill="#eea339"/><path d="m27.387 22.8192c0-.3201.0003-.6371.0003-.6821 0-.0955-.0067-.133-.0799-.2079-.0731-.075-.0365-.1108.0201-.1926l1.23 1.0499v.6165z" fill="#eea339"/><path d="m28.5395 20.9485c0-.6149 0-1.1836 0-1.5113 0-.9814.0537-1.4722.1933-1.5709l-.1117-.4712c-.5461.1506-1.0755.3544-1.5772.6231z" fill="#eea339"/><path d="m33.3426 23.5579s-.0003-.2011-.0003-.4504l-1.1699.4506z" fill="#eea339"/><path d="m34.625 23.7672 2.618-.3617c-.0761-.5749-.2199-1.1354-.4268-1.6689l-2.1912.8913z" fill="#eea339"/><path d="m34.625 23.9589 2.6666-.1659c.0343.5731.0004 1.1514-.1024 1.722 0 0-2.5642.0164-2.5642 0z" fill="#eea339"/><path d="m34.5406 22.1156c.0865-.1158.033-.1775-.06-.239-.0932-.0612-.0798-.109-.0335-.1974.0466-.0886.0933-.1842.0067-.2794-.0865-.0955-.053-.1364.0134-.2045.0665-.0681.0732-.1431.0134-.1977-.06-.0546-.0466-.0955-.0069-.1499.0401-.0546.1182-.1652.0484-.2367l1.0879-.9309c.3594.4406.6669.9268.9146 1.4482z" fill="#eea339"/><path d="m32.1724 22.6232 1.2966-1.2885c-.1831-.1874-.2014-.218-.0716-.351.1414-.1448.1465-.1599-.1411-.4549-.0984-.1003-.0433-.1705.0963-.1705h.8547c.0731 0 .1306.0039.1841.0588l1.0338-1.0255c-.3945-.4161-.8351-.7792-1.3109-1.0824l-1.9419 3.2001z" fill="#eea339"/><path d="m33.3428 22.8192c0-.3201-.0003-.6371-.0003-.6821 0-.0955.0067-.133.0799-.2079.0731-.075.0365-.1108-.0201-.1926l-1.2299 1.0499v.6165z" fill="#eea339"/><path d="m26.5977 22.1935c.0466.0478.0666.0953.0666.2112v3.6463c0 1.2131.7182 1.8878 1.4565 1.8878.6783 0 1.1241-.6338 1.3568-1.3698-.2992.2385-.7382.3135-1.1574.3135-.4855 0-1.2701-.3339-1.2701-1.0564 0-.6678 0-3.142 0-3.5373 0-.0953-.0932-.0953-.4524-.0953" fill="#d82332"/><path d="m30.8395 17.4161c-.9274-.0962-1.7876.1014-1.7876 1.3979v3.4445c0 .5752-.0442.5069.4314.6277.863.2194.9608.2473 2.0075.4922v-3.5046c-.8937-.1004-1.281-.7002-1.281-1.3644 0-.5285.2279-1.0259.6297-1.0933" fill="#d82332"/><path d="m34.1603 22.1935c-.0466.0478-.0667.0953-.0667.2112v3.6463c0 1.2131-.7182 1.8878-1.4565 1.8878-.6783 0-1.124-.6338-1.3568-1.3698.2994.2385.7383.3135 1.1575.3135.4854 0 1.27-.3339 1.27-1.0564 0-.6678 0-3.142 0-3.5373 0-.0953.0932-.0953.4525-.0953" fill="#d82332"/></g><g mask="url(#b)"><path clip-rule="evenodd" d="m30.4999 42.6667c3.8791 0 7.0238-3.1713 7.0238-7.0833s-3.1447-7.0833-7.0238-7.0833c-3.8792 0-7.0238 3.1713-7.0238 7.0833s3.1446 7.0833 7.0238 7.0833z" fill="#064a89" fill-rule="evenodd"/></g></g></svg>