<svg fill="none" height="53" viewBox="0 0 61 53" width="61" xmlns="http://www.w3.org/2000/svg" xmlns:xlink="http://www.w3.org/1999/xlink"><mask id="a" height="43" maskUnits="userSpaceOnUse" width="59" x="1" y="3"><rect fill="#fff" height="42.5" rx="4.24286" width="59" x="1" y="3"/></mask><rect fill="#fff" height="42.5" rx="4.24286" width="59" x="1" y="3"/><g mask="url(#a)"><path d="m1 3h59v42.5h-59z" fill="#262626"/><g clip-rule="evenodd" fill-rule="evenodd"><path d="m1 3h59v42.5z" fill="#e8283f"/><path d="m15.0473 38.4166-1.9866.5868.5819-2.0034-.5819-2.0035 1.9866.5868 1.9867-.5868-.5819 2.0035.5819 2.0034z" fill="#fff"/><path d="m15.0473 21.4167-1.9866.5868.5819-2.0035-.5819-2.0034 1.9866.5868 1.9867-.5868-.5819 2.0034.5819 2.0035z" fill="#fff"/><path d="m8.02388 28.5-1.98663.5868.58187-2.0035-.58187-2.0034 1.98663.5868 1.98662-.5868-.58186 2.0034.58186 2.0035z" fill="#fff"/><path d="m20.6669 27.0834-1.9866.5868.5819-2.0035-.5819-2.0035 1.9866.5868 1.9867-.5868-.5819 2.0035.5819 2.0035z" fill="#fff"/><path d="m40.7435 22.6893c-.3364-.2035-.609-.6829-.609-1.0665v-2.611c0-.3855-.275-.6055-.6912-.4656l-1.5976.5371c-.3817.1283-.9662.1398-1.3823 0l-1.5977-.5371c-.3817-.1283-.4241-.3939-.0821-.6008l3.7486-2.2682c.3363-.2036.5173-.6459.3786-1.0656l-.5326-1.6111c-.1272-.385.0447-.6046.4608-.4647l1.5976.5371c.3818.1283.8514-.037 1.0566-.3819l2.2491-3.78032c.2019-.3392.4571-.33683.5958.08284l.5326 1.61118c.1272.385.1387.9744 0 1.394l-.5326 1.6112c-.1272.385.0814.697.4617.697h2.5891c.3823 0 .8523.2693 1.0575.6142l2.2492 3.7803c.2018.3392.0395.6799-.3252.7535l-3.5854.7231c-.3814.077-.7558.468-.8287.8358l-.7171 3.6158c-.0763.3846-.4052.5348-.7471.3279z" fill="#ffd84e"/></g></g></svg>