<svg fill="none" height="53" viewBox="0 0 64 53" width="64" xmlns="http://www.w3.org/2000/svg" xmlns:xlink="http://www.w3.org/1999/xlink"><mask id="a" height="43" maskUnits="userSpaceOnUse" width="59" x="5" y="3"><rect fill="#fff" height="41.4393" rx="3.7125" stroke="#fff" stroke-width="1.06071" width="57.9393" x="5.53036" y="3.53036"/></mask><rect fill="#fff" height="41.4393" rx="3.7125" stroke="#f5f5f5" stroke-width="1.06071" width="57.9393" x="5.53036" y="3.53036"/><g clip-rule="evenodd" fill-rule="evenodd" mask="url(#a)"><path d="m5 45.5h59v-22.6666h-32.7777l1.8729 1.4166z" fill="#dd1c34"/><path d="m64 22.8333h-32.7778l-26.2222-19.8333h59z" fill="#0d4bc3"/><path d="m9.21433 11.5c.77583 0 1.40477-.6343 1.40477-1.4167 0-.78241-.62894-1.41667-1.40477-1.41667s-1.40476.63426-1.40476 1.41667c0 .7824.62893 1.4167 1.40476 1.4167zm16.85727 14.1666c.7758 0 1.4048-.6342 1.4048-1.4166s-.629-1.4167-1.4048-1.4167-1.4048.6343-1.4048 1.4167.629 1.4166 1.4048 1.4166zm-15.4525 12.75c0 .7824-.62889 1.4167-1.40472 1.4167s-1.40476-.6343-1.40476-1.4167.62893-1.4166 1.40476-1.4166 1.40472.6342 1.40472 1.4166zm3.9307-11.3476-2.4043 3.7251.9119-4.3487c-.1467-.1208-.2811-.2564-.4009-.4043l-4.31223.9196 3.69383-2.4248c-.0093-.094-.0141-.1894-.0141-.2859s.0048-.1919.0141-.286l-3.69383-2.4247 4.31213.9196c.1199-.148.2543-.2835.401-.4043l-.9119-4.3488 2.4043 3.7251c.0933-.0094.188-.0143.2837-.0143s.1903.0049.2835.0143l2.4043-3.7251-.9118 4.3486c.1468.1209.2812.2565.4011.4045l4.312-.9196-3.6937 2.4246c.0093.0941.0141.1895.0141.2861 0 .0965-.0048.192-.0141.2861l3.6937 2.4246-4.3121-.9196c-.1198.148-.2542.2835-.401.4044l.9118 4.3486-2.4043-3.725c-.0932.0094-.1878.0142-.2835.0142s-.1904-.0048-.2837-.0143z" fill="#fdd64d"/></g></svg>