<svg fill="none" height="106" viewBox="0 0 122 106" width="122" xmlns="http://www.w3.org/2000/svg" xmlns:xlink="http://www.w3.org/1999/xlink"><filter id="a" color-interpolation-filters="sRGB" filterUnits="userSpaceOnUse" height="14.9353" width="13.3601" x="4.15332" y="17.1667"><feFlood flood-opacity="0" result="BackgroundImageFix"/><feColorMatrix in="SourceAlpha" type="matrix" values="0 0 0 0 0 0 0 0 0 0 0 0 0 0 0 0 0 0 127 0"/><feOffset dy="2.12143"/><feColorMatrix type="matrix" values="0 0 0 0 0 0 0 0 0 0 0 0 0 0 0 0 0 0 0.06 0"/><feBlend in2="BackgroundImageFix" mode="normal" result="effect1_dropShadow"/><feBlend in="SourceGraphic" in2="effect1_dropShadow" mode="normal" result="shape"/></filter><linearGradient id="b" gradientUnits="userSpaceOnUse" x1="3.80957" x2="3.80957" y1="17.1667" y2="31.3334"><stop offset="0" stop-color="#fff"/><stop offset="1" stop-color="#f0f0f0"/></linearGradient><mask id="c" height="43" maskUnits="userSpaceOnUse" width="59" x="1" y="3"><rect fill="#fff" height="41.4393" rx="3.7125" stroke="#fff" stroke-width="1.06071" width="57.9393" x="1.53036" y="3.53036"/></mask><rect fill="#fff" height="41.4393" rx="3.7125" stroke="#f5f5f5" stroke-width="1.06071" width="57.9393" x="1.53036" y="3.53036"/><g mask="url(#c)"><path clip-rule="evenodd" d="m1 3h59v8.5h-59zm0 17h59v8.5h-59zm0 17v8.5h59v-8.5z" fill="#fa2222" fill-rule="evenodd"/><path clip-rule="evenodd" d="m1 3 28.0952 21.25-28.0952 21.25z" fill="#1d63f9" fill-rule="evenodd"/><g filter="url(#a)"><path clip-rule="evenodd" d="m10.8334 26.9575-4.12851 3.0231 1.57522-4.8939-4.12677-3.0255 5.10203-.0015 1.57803-4.893 1.578 4.893 5.102.0015-4.1267 3.0255 1.5752 4.8939z" fill="url(#b)" fill-rule="evenodd"/></g></g></svg>