<svg fill="none" height="53" viewBox="0 0 61 53" width="61" xmlns="http://www.w3.org/2000/svg" xmlns:xlink="http://www.w3.org/1999/xlink"><mask id="a" height="43" maskUnits="userSpaceOnUse" width="59" x="1" y="3"><rect fill="#fff" height="42.5" rx="4.24286" width="59" x="1" y="3"/></mask><rect fill="#fff" height="42.5" rx="4.24286" width="59" x="1" y="3"/><g mask="url(#a)"><path d="m1 3h59v42.5h-59z" fill="#ff2936"/><path clip-rule="evenodd" d="m1 45.5h22.4762v-42.5h-22.4762z" fill="#128415" fill-rule="evenodd"/><path d="m23.4762 31.331c3.8957 0 7.0334-3.1815 7.0334-7.081 0-3.8994-3.1377-7.0809-7.0334-7.0809-3.8956 0-7.0333 3.1815-7.0333 7.0809 0 3.8995 3.1377 7.081 7.0333 7.081z" stroke="#faf94f" stroke-width="2.82857"/><g clip-rule="evenodd" fill-rule="evenodd"><path d="m20.6667 20.7072c0-.3905.3166-.7071.7072-.7071h4.2048c.3905 0 .7071.3166.7071.7071v4.9833c0 1.5517-1.2579 2.8096-2.8095 2.8096-1.5517 0-2.8096-1.2579-2.8096-2.8096z" fill="#fff"/><path d="m23.4763 25.6667c.7758 0 1.4048-2.0509 1.4048-2.8333 0-.7825-.629-1.4167-1.4048-1.4167s-1.4048.6342-1.4048 1.4167c0 .7824.629 2.8333 1.4048 2.8333z" fill="#1d50b5"/></g></g></svg>