<svg fill="none" height="53" viewBox="0 0 61 53" width="61" xmlns="http://www.w3.org/2000/svg" xmlns:xlink="http://www.w3.org/1999/xlink"><mask id="a" height="43" maskUnits="userSpaceOnUse" width="59" x="1" y="3"><rect fill="#fff" height="41.4393" rx="3.7125" stroke="#fff" stroke-width="1.06071" width="57.9393" x="1.53036" y="3.53036"/></mask><rect fill="#fff" height="41.4393" rx="3.7125" stroke="#f5f5f5" stroke-width="1.06071" width="57.9393" x="1.53036" y="3.53036"/><g mask="url(#a)"><path clip-rule="evenodd" d="m1 17.1667h59v-14.1667h-59z" fill="#e33f39" fill-rule="evenodd"/><path clip-rule="evenodd" d="m1 45.5h59v-14.1667h-59z" fill="#124bba" fill-rule="evenodd"/><path d="m30.4999 29.2072c2.7237 0 4.9215-2.225 4.9215-4.9571 0-2.7322-2.1978-4.9572-4.9215-4.9572-2.7236 0-4.9214 2.225-4.9214 4.9572 0 2.7321 2.1978 4.9571 4.9214 4.9571z" stroke="#398153" stroke-width="1.41429"/><path clip-rule="evenodd" d="m30.5 25.6667c.7758 0 1.4047-.6343 1.4047-1.4167s-.6289-1.4166-1.4047-1.4166c-.7759 0-1.4048.6342-1.4048 1.4166s.6289 1.4167 1.4048 1.4167z" fill="#e5cf58" fill-rule="evenodd"/></g></svg>