<svg fill="none" height="53" viewBox="0 0 61 53" width="61" xmlns="http://www.w3.org/2000/svg" xmlns:xlink="http://www.w3.org/1999/xlink"><mask id="a" height="43" maskUnits="userSpaceOnUse" width="59" x="1" y="3"><rect fill="#fff" height="41.4393" rx="3.7125" stroke="#fff" stroke-width="1.06071" width="57.9393" x="1.53036" y="3.53036"/></mask><mask id="b" height="18" maskUnits="userSpaceOnUse" width="12" x="13" y="17"><path clip-rule="evenodd" d="m13.6428 24.2501c0-1.3705.7238-4.4232 1.1323-6.037.1567-.6188.7156-1.0464 1.354-1.0464h6.2681c.6372 0 1.1953.4259 1.3526 1.0433.4087 1.6044 1.1311 4.6383 1.1311 6.0401 0 1.5838-1.0552 5.7432-1.3365 6.8238-.0451.1731-.1218.3322-.2351.4706-.5376.657-2.2925 2.6222-4.0474 2.6222-1.756 0-3.512-1.9676-4.0485-2.6234-.1126-.1377-.189-.2957-.2341-.4677-.2815-1.0729-1.3365-5.2024-1.3365-6.8255z" fill="#fff" fill-rule="evenodd"/></mask><rect fill="#fff" height="41.4393" rx="3.7125" stroke="#f5f5f5" stroke-width="1.06071" width="57.9393" x="1.53036" y="3.53036"/><g mask="url(#a)"><g clip-rule="evenodd" fill-rule="evenodd"><path d="m1 31.3334h59v-14.1667h-59z" fill="#17508f"/><path d="m1 17.1667h59v-14.1667h-59z" fill="#e1444d"/><path d="m13.6428 24.2501c0-1.3705.7238-4.4232 1.1323-6.037.1567-.6188.7156-1.0464 1.354-1.0464h6.2681c.6372 0 1.1953.4259 1.3526 1.0433.4087 1.6044 1.1311 4.6383 1.1311 6.0401 0 1.5838-1.0552 5.7432-1.3365 6.8238-.0451.1731-.1218.3322-.2351.4706-.5376.657-2.2925 2.6222-4.0474 2.6222-1.756 0-3.512-1.9676-4.0485-2.6234-.1126-.1377-.189-.2957-.2341-.4677-.2815-1.0729-1.3365-5.2024-1.3365-6.8255z" fill="#fff"/></g><g mask="url(#b)" stroke="#e1444d" stroke-linecap="square" stroke-width="2.82857"><path d="m24.8809 18.5834-11.2381 14.1667"/><path d="m13.6428 18.5834 11.2381 14.1667"/></g></g></svg>