<svg fill="none" height="53" viewBox="0 0 61 53" width="61" xmlns="http://www.w3.org/2000/svg" xmlns:xlink="http://www.w3.org/1999/xlink"><filter id="a" color-interpolation-filters="sRGB" filterUnits="userSpaceOnUse" height="11.3333" width="59" x="1" y="34.1666"><feFlood flood-opacity="0" result="BackgroundImageFix"/><feColorMatrix in="SourceAlpha" type="matrix" values="0 0 0 0 0 0 0 0 0 0 0 0 0 0 0 0 0 0 127 0"/><feOffset/><feColorMatrix type="matrix" values="0 0 0 0 0 0 0 0 0 0 0 0 0 0 0 0 0 0 0.06 0"/><feBlend in2="BackgroundImageFix" mode="normal" result="effect1_dropShadow"/><feBlend in="SourceGraphic" in2="effect1_dropShadow" mode="normal" result="shape"/></filter><mask id="b" height="43" maskUnits="userSpaceOnUse" width="59" x="1" y="3"><rect fill="#fff" height="42.5" rx="4.24286" width="59" x="1" y="3"/></mask><rect fill="#fff" height="42.5" rx="4.24286" width="59" x="1" y="3"/><g mask="url(#b)"><g filter="url(#a)"><path clip-rule="evenodd" d="m1 45.5h59v-11.3334h-59z" fill="#2d754d" fill-rule="evenodd"/></g><g clip-rule="evenodd" fill-rule="evenodd"><path d="m1 22.8333h59v-19.8333h-59z" fill="#25b1eb"/><path d="m1 34.1667h59v-11.3333h-59z" fill="#fecb2f"/><path d="m45.9523 15.75-2.1503 2.402.1637-3.2319-3.2047.1651 2.3818-2.1685-2.3818-2.1686 3.2047.1651-.1637-3.23185 2.1503 2.40195 2.1503-2.40195-.1637 3.23185 3.2047-.1651-2.3818 2.1686 2.3818 2.1685-3.2047-.1651.1637 3.2319z" fill="#fecb2f"/></g></g></svg>