<svg fill="none" height="53" viewBox="0 0 61 53" width="61" xmlns="http://www.w3.org/2000/svg" xmlns:xlink="http://www.w3.org/1999/xlink"><mask id="a" height="43" maskUnits="userSpaceOnUse" width="59" x="1" y="3"><rect fill="#fff" height="42.5" rx="4.24286" width="59" x="1" y="3"/></mask><rect fill="#fff" height="42.5" rx="4.24286" width="59" x="1" y="3"/><g mask="url(#a)"><path d="m1 3h59v42.5h-59z" fill="#128c4b"/><g clip-rule="evenodd" fill="#fff" fill-rule="evenodd"><path d="m15.0476 28.5h22.4762v-1.9529c0-1.0535 1.1104-1.7372 2.051-1.2629l.7585.3825v2.8333h4.2048c.7811 0 1.4143.6332 1.4143 1.4143v1.4238c0 1.5622-1.2664 2.8286-2.8286 2.8286h-4.1857c-.7811 0-1.4143-.6332-1.4143-1.4143v-1.419h-19.0774c-.3771 0-.7387-.1507-1.0042-.4185z"/><path d="m15.0476 20.2911c0-.1865.0737-.3655.205-.4979l.706-.712c.2734-.2757.2734-.7202 0-.9959l-.706-.712c-.1313-.1324-.205-.3114-.205-.4979v-1.835c0-.3905.3166-.7071.7072-.7071h1.5645c.297 0 .5378.2407.5378.5378 0 .5685.7672.7482 1.0197.2389l.2068-.4172c.1092-.2202.3338-.3595.5796-.3595h3.1058c.3906 0 .7072.3177.7072.7083 0 .3905-.3166.7083-.7072.7083h-1.3952c-.3905 0-.7071.3178-.7071.7084 0 .3905.3166.7083.7071.7083h1.3952c.3906 0 .7072.3166.7072.7071v4.2524c0 .3906-.3166.7072-.7072.7072h-1.3952c-.3905 0-.7071-.3166-.7071-.7072v-1.4238c0-.3879.3144-.7024.7023-.7024.388 0 .7024-.318.7024-.7059 0-.3906-.3166-.7107-.7071-.7107h-1.3953c-.3905 0-.7071.3166-.7071.7071v2.8405c0 .3879-.3145.7024-.7024.7024-.3879 0-.7024-.3145-.7024-.7024v-1.4286c0-.3879-.3144-.7024-.7023-.7024-.388 0-.7024.3145-.7024.7024v1.4286c0 .3879-.3145.7024-.7024.7024-.3879 0-.7024-.3145-.7024-.7024z"/><path d="m37.5239 20.2911c0-.1865.0737-.3655.205-.4979l.7061-.712c.2733-.2757.2733-.7202 0-.9959l-.7061-.712c-.1313-.1324-.205-.3114-.205-.4979v-1.835c0-.3905.3166-.7071.7072-.7071h1.5645c.2971 0 .5378.2407.5378.5378 0 .5685.7672.7482 1.0197.2389l.2068-.4172c.1092-.2202.3338-.3595.5796-.3595h3.1059c.3905 0 .7071.3177.7071.7083 0 .3905-.3166.7083-.7071.7083h-1.3953c-.3905 0-.7071.3178-.7071.7084 0 .3905.3166.7083.7071.7083h1.3953c.3905 0 .7071.3166.7071.7071v4.2524c0 .3906-.3166.7072-.7071.7072h-1.3953c-.3905 0-.7071-.3166-.7071-.7072v-1.4238c0-.3879.3144-.7024.7024-.7024.3879 0 .7023-.318.7023-.7059 0-.3906-.3166-.7107-.7071-.7107h-1.3952c-.3906 0-.7072.3166-.7072.7071v2.8405c0 .3879-.3145.7024-.7024.7024-.3879 0-.7024-.3145-.7024-.7024v-1.4286c0-.3879-.3144-.7024-.7023-.7024-.3879 0-.7024.3145-.7024.7024v1.4286c0 .3879-.3145.7024-.7024.7024-.3879 0-.7024-.3145-.7024-.7024z"/><path d="m34.7142 16.4516c0 .3949-.2195.9363-.5071 1.2264l-.3905.3938c-.2801.2825-.2877.7328 0 1.0229l.3905.3938c.2801.2824.5071.8146.5071 1.2264v1.4034c0 .3948-.3007.715-.7089.715h-1.3916c-.3916 0-.709-.3033-.709-.715v-1.4034c0-.3949-.1296-.4535-.3258-.0578l-.7532 1.519c-.1799.3629-.6565.6572-1.0217.6572h-2.8225c-.3843 0-.6959-.3286-.6959-.7084 0-.3912.3007-.7083.709-.7083h1.3916c.3916 0 .709-.3286.709-.7083 0-.3913-.3007-.7084-.709-.7084h-1.3916c-.3915 0-.709-.3046-.709-.6948v-4.277c0-.3838.3007-.6948.709-.6948h1.3916c.3916 0 .709.3032.709.7149v1.4034c0 .3949-.3258.715-.7024.715-.3879 0-.7024.3286-.7024.7083 0 .3912.3007.7084.709.7084h1.3916c.3915 0 .7089-.3335.7089-.7018v-2.8464c0-.3876.3258-.7018.7024-.7018.3879 0 .7024.3032.7024.7149v1.4034c0 .3949.3258.715.7024.715.3879 0 .7024-.3032.7024-.715v-1.4034c0-.3948.3258-.7149.7023-.7149.3879 0 .7024.3032.7024.7149z"/></g></g></svg>