<svg fill="none" height="53" viewBox="0 0 61 53" width="61" xmlns="http://www.w3.org/2000/svg" xmlns:xlink="http://www.w3.org/1999/xlink"><filter id="a" color-interpolation-filters="sRGB" filterUnits="userSpaceOnUse" height="42.5" width="59" x="1" y="3"><feFlood flood-opacity="0" result="BackgroundImageFix"/><feColorMatrix in="SourceAlpha" type="matrix" values="0 0 0 0 0 0 0 0 0 0 0 0 0 0 0 0 0 0 127 0"/><feOffset/><feColorMatrix type="matrix" values="0 0 0 0 0 0 0 0 0 0 0 0 0 0 0 0 0 0 0.06 0"/><feBlend in2="BackgroundImageFix" mode="normal" result="effect1_dropShadow"/><feBlend in="SourceGraphic" in2="effect1_dropShadow" mode="normal" result="shape"/></filter><linearGradient id="b" gradientUnits="userSpaceOnUse" x1="1" x2="1" y1="3" y2="45.5"><stop offset="0" stop-color="#1dbe4f"/><stop offset="1" stop-color="#159b3f"/></linearGradient><linearGradient id="c" gradientUnits="userSpaceOnUse" x1="1" x2="1" y1="3" y2="45.5"><stop offset="0" stop-color="#0660d4"/><stop offset="1" stop-color="#0051bb"/></linearGradient><mask id="d" height="43" maskUnits="userSpaceOnUse" width="59" x="1" y="3"><rect fill="#fff" height="42.5" rx="4.24286" width="59" x="1" y="3"/></mask><rect fill="#fff" height="42.5" rx="4.24286" width="59" x="1" y="3"/><g mask="url(#d)"><path d="m1 3h59v42.5h-59z" fill="url(#b)"/><g filter="url(#a)"><path clip-rule="evenodd" d="m1 3h59l-59 42.5z" fill="url(#c)" fill-rule="evenodd"/></g><path clip-rule="evenodd" d="m60 3-59.000002 42.5h59.000002z" fill="#2c7442" fill-rule="evenodd"/><path d="m0 0h70.8768v50.5122h-70.8768z" fill="#ffd646" transform="matrix(.82684 -.562437 .55595 .831215 -4.84448 44.8745)"/><path clip-rule="evenodd" d="m5.25722 12.2402.39424-2.318-1.67001-1.64166 2.30789-.33819 1.03213-2.10904 1.03212 2.10904 2.30791.33819-1.67002 1.64166.39423 2.318-2.06424-1.0944zm14.04758 0 .3943-2.318-1.6701-1.64166 2.3079-.33819 1.0322-2.10904 1.0321 2.10904 2.3079.33819-1.67 1.64166.3942 2.318-2.0642-1.0944zm.3943 6.182-.3943 2.318 2.0643-1.0944 2.0642 1.0944-.3942-2.318 1.67-1.6417-2.3079-.3382-1.0321-2.109-1.0322 2.109-2.3079.3382zm-12.37763 1.2236-2.06425 1.0944.39424-2.318-1.67001-1.6417 2.30789-.3382 1.03213-2.109 1.03212 2.109 2.30791.3382-1.67002 1.6417.39423 2.318zm4.95953-3.1556 2.0642-1.0944 2.0642 1.0944-.3942-2.318 1.67-1.6417-2.3079-.3382-1.0321-2.109-1.0321 2.109-2.3079.3382 1.67 1.6417z" fill="#fff" fill-rule="evenodd"/></g></svg>