<svg fill="none" height="53" viewBox="0 0 61 53" width="61" xmlns="http://www.w3.org/2000/svg" xmlns:xlink="http://www.w3.org/1999/xlink"><mask id="a" height="43" maskUnits="userSpaceOnUse" width="59" x="1" y="3"><rect fill="#fff" height="41.4393" rx="3.7125" stroke="#fff" stroke-width="1.06071" width="57.9393" x="1.53036" y="3.53036"/></mask><rect fill="#fff" height="41.4393" rx="3.7125" stroke="#f5f5f5" stroke-width="1.06071" width="57.9393" x="1.53036" y="3.53036"/><g clip-rule="evenodd" fill-rule="evenodd" mask="url(#a)"><path d="m1 25.6667h59v-22.6667h-59z" fill="#e12237"/><path d="m15.0477 22.8333c1.9915 0 3.8216-.6965 5.264-1.8611-.764.2873-1.591.4444-2.4544.4444-3.8792 0-7.0238-3.1713-7.0238-7.0833s3.1446-7.08332 7.0238-7.08332c.8634 0 1.6904.1571 2.4544.44449-1.4424-1.16464-3.2725-1.86116-5.264-1.86116-4.655 0-8.42856 3.80558-8.42856 8.49999 0 4.6944 3.77356 8.5 8.42856 8.5zm2.8094-9.9167c0 .7824-.6289 1.4167-1.4047 1.4167-.7759 0-1.4048-.6343-1.4048-1.4167s.6289-1.4166 1.4048-1.4166c.7758 0 1.4047.6342 1.4047 1.4166zm1.4048 7.0833c.7758 0 1.4047-.6342 1.4047-1.4166s-.6289-1.4167-1.4047-1.4167c-.7759 0-1.4048.6343-1.4048 1.4167s.6289 1.4166 1.4048 1.4166zm7.024-1.4166c0 .7824-.629 1.4166-1.4048 1.4166s-1.4048-.6342-1.4048-1.4166.629-1.4167 1.4048-1.4167 1.4048.6343 1.4048 1.4167zm1.4047-4.25c.7758 0 1.4048-.6343 1.4048-1.4167s-.629-1.4166-1.4048-1.4166-1.4048.6342-1.4048 1.4166.629 1.4167 1.4048 1.4167zm-4.2142-5.66665c0 .7824-.629 1.41665-1.4048 1.41665s-1.4048-.63425-1.4048-1.41665c0-.78241.629-1.41667 1.4048-1.41667s1.4048.63426 1.4048 1.41667z" fill="#fff"/></g></svg>