<svg fill="none" height="53" viewBox="0 0 61 53" width="61" xmlns="http://www.w3.org/2000/svg" xmlns:xlink="http://www.w3.org/1999/xlink"><linearGradient id="a" gradientUnits="userSpaceOnUse" x1="1" x2="1" y1="3" y2="45.5"><stop offset="0" stop-color="#07319c"/><stop offset="1" stop-color="#00247e"/></linearGradient><mask id="b" height="43" maskUnits="userSpaceOnUse" width="59" x="1" y="3"><rect fill="#fff" height="42.5" rx="4.24286" width="59" x="1" y="3"/></mask><mask id="c" height="21" maskUnits="userSpaceOnUse" width="15" x="37" y="14"><path clip-rule="evenodd" d="m37.5239 24.2499c0-2.326 0-5.0764 0-7.0899 0-1.5621 1.2664-2.8267 2.8286-2.8267h8.3905c1.5621 0 2.8285 1.2645 2.8285 2.8267v7.0899c0 7.0834-7.0238 9.9167-7.0238 9.9167s-7.0238-2.8333-7.0238-9.9167z" fill="#fff" fill-rule="evenodd"/></mask><mask height="21" maskUnits="userSpaceOnUse" width="15" x="37" y="14"><path d="m38.2311 24.2499v-.1093-.11-.1105-.111-.1116-.112-.1125-.113-.1133-.1138-.114-.1145-.0573-.0143-.0144-.0287-.115-.1152-.1155-.1157-.1158-.116-.1161-.1162-.1163-.1162-.0582-.0145-.0146-.0145-.0145-.0146-.0145-.0146-.0145-.0145-.0146-.0145-.0145-.0146-.0145-.0145-.0146-.0145-.0145-.0145-.0146-.0145-.0145-.0145-.0146-.0145-.0145-.0145-.0145-.0146-.0145-.0145-.0145-.0145-.0145-.0145-.0145-.0145-.0145-.0145-.0145-.0145-.0145-.0145-.0145-.0145-.0144-.0145-.0145-.0145-.0144-.0145-.0145-.0144-.0145-.0145-.0144-.0145-.0144-.0145-.0144-.0144-.0145-.0144-.0144-.0145-.0144-.0144-.0144-.0144-.0144-.0145-.0144-.0144-.0143-.0144-.0144-.0144-.0144-.0144-.0143-.0144-.0144-.0143-.0144-.0143-.0144-.0143-.0143-.0144-.0143-.0143-.0143-.0143-.0143-.0143-.0143-.0143-.0143-.0143-.0143-.0142-.0143-.0143-.0142-.0143-.0142-.0143-.0142-.0142-.0142-.0143-.0142-.0142-.0142-.0142-.0141-.0142-.0142-.0142-.0141-.0142-.0141-.0142-.0141-.1129-.1124-.1119-.1115-.1109-.1104-.1098-.1092-.1085-.1079-.1073-.1065-.1058-.1051-.1042-.1034-.1026-.2026-.1989-.195-.1909c0-1.171.9492-2.1196 2.1214-2.1196h8.3905c1.1722 0 2.1214.9486 2.1214 2.1196v.0118.0119.0118.0119.0118.0119.0119.0119.012.0119.012.012.012.012.0121.012.0121.0121.0121.0121.0121.0122.0121.0122.0122.0122.0122.0123.0122.0123.0123.0123.0123.0124.0123.0124.0124.0123.0125.0124.0124.0125.0124.0125.0125.0125.0126.0125.0125.0126.0126.0126.0126.0126.0127.0126.0127.0127.0127.0127.0127.0127.0128.0128.0127.0128.0128.0129.0128.0128.0129.0129.0128.0129.0129.013.0129.013.0129.013.013.013.013.013.0131.013.0131.013.0131.0131.0131.0132.0131.0131.0132.0132.0132.0132.0132.0132.0132.0133.0132.0133.0133.0132.0133.0134.0133.0133.0134.0133.0134.0134.0133.0134.0135.0134.0134.0134.0135.0135.0134.0135.0135.0135.0135.0136.0135.0135.0136.0136.0136.0135.0136.0136.0137.0136.0136.0137.0136.0137.0137.0136.0137.0137.0137.0138.0137.0137.0138.0137.0138.0138.0138.0138.0138.0138.0138.0138.0139.0138.0139.0138.0139.0139.0139.0138.0139.014.0139.0139.0139.014.0139.014.014.0139.014.014.014.014.014.014.0141.014.014.0141.014.0141.0141.014.0141.0141.0141.0141.0141.0141.0142.0141.0141.0142.0141.0142.0141.0142.0142.0142.0141.0142.0142.0142.0142.0143.0142.0142.0142.0143.0142.0143.0142.0143.0143.0142.0143.0143.0143.0143.0143.0143.0143.0143.0143.0143.0143.0144.0143.0143.0144.0143.0144.0143.0144.0144.0143.0144.0144.0144.0144.0144.0143.0144.0144.0145.0144.0144.0144.0144.0144.0145.0144.0144.0145.0144.0144.0145.0144.0145.0144.0145.0145.0144.0145.0145.0144.0145.0145.0145.0144.0145.0145.0145.0145.0145.0145.0145.0145.0145.0145.0145.0145.0145.0145.0145.0145.0146.0145.0145.0145.0145.0146.0145.0145.0145.0146.0145.0145.0145.0146.0145.0145.0146.0145.0145.0146.0145.0145.0146.0145.0146.0145.0145.0146.0145.0145.0146.0145.0146.0145.0145.0146.0145.0145.0146.0145.0145.0146.0145.0145.0146.0145.0145.0146.0145.0145.0146.0145.0145.0145.0145.0146.0145.0145.0145.0145.0145.0146.0145.0145.0145.0145.0145.0145.0145.0145.0145.0145.0145.0145.0144.0145.0145.0145.0145.0144.0145.0145.0144.0145.0145.0144.0145.0144.0145.0144.0145.0144.0144.0145.0144.0144.0145.0144.0144.0144.0144.0144.0144.0144.0144.0144.0144.0144.0143.0144.0144.0143.0144.0144.0143.0144.0143.0143.0144.0143.0143.0143.0144.0143.0143.0143.0143.0143.0143.0142.0143.0143.0142.0143.0143.0142.0142.0143.0142.0142.0143.0142.0142.0142.0142.0142.0142.0141.0142.0142.0141.0142.0141.0142.0141.0141.0142.0141.0141.0141.0141.0141.0141.014.0141.0141.014.0141.014.014.014.0141.014.014.014.014.0139.014.014.0139.014.0139.014.0139.0139.0139.0139.0139.0139.0139.0138.0139.0138.0139.0138.0138.0139.0138.0138.0138.0137.0138.0138.0137.0138.0137.0138.0137.0137.0137.0137.0137.0136.0137.0136.0137.0136c0 3.281-1.6193 5.5836-3.28 7.091-.8311.7543-1.6645 1.3008-2.2901 1.6583-.311.1778-.5687.3077-.7466.3923-.1778-.0846-.4355-.2145-.7466-.3923-.6255-.3575-1.4589-.904-2.29-1.6583-1.6608-1.5074-3.28-3.81-3.28-7.091z" fill="#fff" stroke="#fff" stroke-width="1.41429"/></mask><rect fill="#fff" height="42.5" rx="4.24286" width="59" x="1" y="3"/><g mask="url(#b)"><path d="m1 3h59v42.5h-59z" fill="url(#a)"/><path clip-rule="evenodd" d="m37.5239 24.2499c0-2.326 0-5.0764 0-7.0899 0-1.5621 1.2664-2.8267 2.8286-2.8267h8.3905c1.5621 0 2.8285 1.2645 2.8285 2.8267v7.0899c0 7.0834-7.0238 9.9167-7.0238 9.9167s-7.0238-2.8333-7.0238-9.9167z" fill="#8fc5ff" fill-rule="evenodd"/><g mask="url(#c)"><path clip-rule="evenodd" d="m43.3322 28.2525s1.4061-1.8362 2.2332-1.8362c.827 0 .9789 1.2193 2.2507 1.2193s1.9426-1.9432 3.1676-1.9432 0 6.3751 0 6.3751l-1.66 1.7267-9.7168 1.1318z" fill="#366cc9" fill-rule="evenodd"/><path clip-rule="evenodd" d="m39.1945 25.4212 1.2401-1.1713 1.2185 3.0083 1.6358-3.0083 1.4067 8.5752-2.3394-.48-7.6418-3.5236z" fill="#cf6200" fill-rule="evenodd"/><path d="m37.5239 14.3333h14.0476v8.5h-14.0476z" fill="#ff0"/></g><path d="m38.2311 24.2499v-.1093-.11-.1105-.111-.1116-.112-.1125-.113-.1133-.1138-.114-.1145-.0573-.0143-.0144-.0287-.115-.1152-.1155-.1157-.1158-.116-.1161-.1162-.1163-.1162-.0582-.0145-.0146-.0145-.0145-.0146-.0145-.0146-.0145-.0145-.0146-.0145-.0145-.0146-.0145-.0145-.0146-.0145-.0145-.0145-.0146-.0145-.0145-.0145-.0146-.0145-.0145-.0145-.0145-.0146-.0145-.0145-.0145-.0145-.0145-.0145-.0145-.0145-.0145-.0145-.0145-.0145-.0145-.0145-.0145-.0145-.0144-.0145-.0145-.0145-.0144-.0145-.0145-.0144-.0145-.0145-.0144-.0145-.0144-.0145-.0144-.0144-.0145-.0144-.0144-.0145-.0144-.0144-.0144-.0144-.0144-.0145-.0144-.0144-.0143-.0144-.0144-.0144-.0144-.0144-.0143-.0144-.0144-.0143-.0144-.0143-.0144-.0143-.0143-.0144-.0143-.0143-.0143-.0143-.0143-.0143-.0143-.0143-.0143-.0143-.0143-.0142-.0143-.0143-.0142-.0143-.0142-.0143-.0142-.0142-.0142-.0143-.0142-.0142-.0142-.0142-.0141-.0142-.0142-.0142-.0141-.0142-.0141-.0142-.0141-.1129-.1124-.1119-.1115-.1109-.1104-.1098-.1092-.1085-.1079-.1073-.1065-.1058-.1051-.1042-.1034-.1026-.2026-.1989-.195-.1909c0-1.171.9492-2.1196 2.1214-2.1196h8.3905c1.1722 0 2.1214.9486 2.1214 2.1196v.0118.0119.0118.0119.0118.0119.0119.0119.012.0119.012.012.012.012.0121.012.0121.0121.0121.0121.0121.0122.0121.0122.0122.0122.0122.0123.0122.0123.0123.0123.0123.0124.0123.0124.0124.0123.0125.0124.0124.0125.0124.0125.0125.0125.0126.0125.0125.0126.0126.0126.0126.0126.0127.0126.0127.0127.0127.0127.0127.0127.0128.0128.0127.0128.0128.0129.0128.0128.0129.0129.0128.0129.0129.013.0129.013.0129.013.013.013.013.013.0131.013.0131.013.0131.0131.0131.0132.0131.0131.0132.0132.0132.0132.0132.0132.0132.0133.0132.0133.0133.0132.0133.0134.0133.0133.0134.0133.0134.0134.0133.0134.0135.0134.0134.0134.0135.0135.0134.0135.0135.0135.0135.0136.0135.0135.0136.0136.0136.0135.0136.0136.0137.0136.0136.0137.0136.0137.0137.0136.0137.0137.0137.0138.0137.0137.0138.0137.0138.0138.0138.0138.0138.0138.0138.0138.0139.0138.0139.0138.0139.0139.0139.0138.0139.014.0139.0139.0139.014.0139.014.014.0139.014.014.014.014.014.014.0141.014.014.0141.014.0141.0141.014.0141.0141.0141.0141.0141.0141.0142.0141.0141.0142.0141.0142.0141.0142.0142.0142.0141.0142.0142.0142.0142.0143.0142.0142.0142.0143.0142.0143.0142.0143.0143.0142.0143.0143.0143.0143.0143.0143.0143.0143.0143.0143.0143.0144.0143.0143.0144.0143.0144.0143.0144.0144.0143.0144.0144.0144.0144.0144.0143.0144.0144.0145.0144.0144.0144.0144.0144.0145.0144.0144.0145.0144.0144.0145.0144.0145.0144.0145.0145.0144.0145.0145.0144.0145.0145.0145.0144.0145.0145.0145.0145.0145.0145.0145.0145.0145.0145.0145.0145.0145.0145.0145.0145.0146.0145.0145.0145.0145.0146.0145.0145.0145.0146.0145.0145.0145.0146.0145.0145.0146.0145.0145.0146.0145.0145.0146.0145.0146.0145.0145.0146.0145.0145.0146.0145.0146.0145.0145.0146.0145.0145.0146.0145.0145.0146.0145.0145.0146.0145.0145.0146.0145.0145.0146.0145.0145.0145.0145.0146.0145.0145.0145.0145.0145.0146.0145.0145.0145.0145.0145.0145.0145.0145.0145.0145.0145.0145.0144.0145.0145.0145.0145.0144.0145.0145.0144.0145.0145.0144.0145.0144.0145.0144.0145.0144.0144.0145.0144.0144.0145.0144.0144.0144.0144.0144.0144.0144.0144.0144.0144.0144.0143.0144.0144.0143.0144.0144.0143.0144.0143.0143.0144.0143.0143.0143.0144.0143.0143.0143.0143.0143.0143.0142.0143.0143.0142.0143.0143.0142.0142.0143.0142.0142.0143.0142.0142.0142.0142.0142.0142.0141.0142.0142.0141.0142.0141.0142.0141.0141.0142.0141.0141.0141.0141.0141.0141.014.0141.0141.014.0141.014.014.014.0141.014.014.014.014.0139.014.014.0139.014.0139.014.0139.0139.0139.0139.0139.0139.0139.0138.0139.0138.0139.0138.0138.0139.0138.0138.0138.0137.0138.0138.0137.0138.0137.0138.0137.0137.0137.0137.0137.0136.0137.0136.0137.0136c0 3.281-1.6193 5.5836-3.28 7.091-.8311.7543-1.6645 1.3008-2.2901 1.6583-.311.1778-.5687.3077-.7466.3923-.1778-.0846-.4355-.2145-.7466-.3923-.6255-.3575-1.4589-.904-2.29-1.6583-1.6608-1.5074-3.28-3.81-3.28-7.091z" stroke="#fff" stroke-width="1.41429"/><path d="m1 2.29286h-1.899402l1.436963 1.24212 9.588639 8.28852v2.1477l-9.539515 6.8717-.293828.2116v.3622 1.4166 1.2816l1.084203-.6833 11.06534-6.9745h2.377l9.526 6.862c.1998.1439.4399.2214.6862.2214 1.0876 0 1.5906-1.3511.7678-2.0623l-8.6399-7.4683v-2.1478l9.2457-6.66c.369-.26579.5877-.6928.5877-1.14756v-1.05454-1.2816l-1.0842.68337-11.0653 6.97442h-2.3771l-9.64822-6.94997-.18514-.13336h-.22818z" fill="#db1e36" stroke="#fff" stroke-width="1.41429"/><g clip-rule="evenodd" fill-rule="evenodd"><path d="m1 10.0833v5.6667h9.8333v7.0857c0 .7811.6332 1.4143 1.4143 1.4143h2.7905c.7811 0 1.4143-.6332 1.4143-1.4143v-7.0857h9.8238c.7811 0 1.4143-.6332 1.4143-1.4143v-2.8381c0-.7811-.6332-1.4143-1.4143-1.4143h-9.8238v-7.0833h-5.6191v7.0833z" fill="#fff"/><path d="m1 11.5h11.2381v-1.4167-7.0833h2.8095v7.0833 1.4167h11.2381v2.8333h-11.2381v1.4167 7.0833h-2.8095v-7.0833-1.4167h-11.2381z" fill="#db1e36"/></g></g></svg>