<svg fill="none" height="53" viewBox="0 0 61 53" width="61" xmlns="http://www.w3.org/2000/svg" xmlns:xlink="http://www.w3.org/1999/xlink"><filter id="a" color-interpolation-filters="sRGB" filterUnits="userSpaceOnUse" height="14.1667" width="59" x="1" y="31.3333"><feFlood flood-opacity="0" result="BackgroundImageFix"/><feColorMatrix in="SourceAlpha" type="matrix" values="0 0 0 0 0 0 0 0 0 0 0 0 0 0 0 0 0 0 127 0"/><feOffset/><feColorMatrix type="matrix" values="0 0 0 0 0 0 0 0 0 0 0 0 0 0 0 0 0 0 0.06 0"/><feBlend in2="BackgroundImageFix" mode="normal" result="effect1_dropShadow"/><feBlend in="SourceGraphic" in2="effect1_dropShadow" mode="normal" result="shape"/></filter><mask id="b" height="43" maskUnits="userSpaceOnUse" width="59" x="1" y="3"><rect fill="#fff" height="41.4393" rx="3.7125" stroke="#fff" stroke-width="1.06071" width="57.9393" x="1.53036" y="3.53036"/></mask><rect fill="#fff" height="41.4393" rx="3.7125" stroke="#f5f5f5" stroke-width="1.06071" width="57.9393" x="1.53036" y="3.53036"/><g mask="url(#b)"><path clip-rule="evenodd" d="m1 31.3333h59v-14.1667h-39.5216v-2.8333s-1.9814-1.4167-4.026-1.4167c-2.0447 0-4.2143 1.4167-4.2143 1.4167v2.8333h-11.2381zm18.2619-11.3334c0 1.5648-1.2579 2.8333-2.8095 2.8333-1.5517 0-2.8095-1.2685-2.8095-2.8333s1.2578-2.8333 2.8095-2.8333c1.5516 0 2.8095 1.2685 2.8095 2.8333z" fill="#0c47b7" fill-rule="evenodd"/><g filter="url(#a)"><path clip-rule="evenodd" d="m1 45.5h59v-14.1667h-59z" fill="#e53b35" fill-rule="evenodd"/></g></g></svg>