<svg fill="none" height="53" viewBox="0 0 61 53" width="61" xmlns="http://www.w3.org/2000/svg" xmlns:xlink="http://www.w3.org/1999/xlink"><mask id="a" height="43" maskUnits="userSpaceOnUse" width="59" x="1" y="3"><rect fill="#fff" height="41.4393" rx="3.7125" stroke="#fff" stroke-width="1.06071" width="57.9393" x="1.53036" y="3.53036"/></mask><mask id="b" height="32" maskUnits="userSpaceOnUse" width="26" x="9" y="8"><path d="m28.4794 10.0857h-12.8164c-2.2804 0-4.1529 1.8024-4.2398 4.0811l-.5468 14.3373c-.0491 1.2881.49 2.5286 1.4652 3.3716l6.0301 5.2125c2.1245 1.8364 5.2745 1.8364 7.399 0l6.0301-5.2125c.9752-.843 1.5143-2.0835 1.4652-3.3716l-.5468-14.3373c-.0869-2.2787-1.9595-4.0811-4.2398-4.0811z" fill="#fff" stroke="#fff" stroke-width="2.82857"/></mask><rect fill="#fff" height="41.4393" rx="3.7125" stroke="#f5f5f5" stroke-width="1.06071" width="57.9393" x="1.53036" y="3.53036"/><g mask="url(#a)"><path clip-rule="evenodd" d="m1 31.3334h59v-14.1667h-59z" fill="#0c47b7" fill-rule="evenodd"/><path clip-rule="evenodd" d="m1 45.5h59v-14.1667h-59z" fill="#e53b35" fill-rule="evenodd"/><path d="m28.4794 10.0857h-12.8164c-2.2804 0-4.1529 1.8024-4.2398 4.0811l-.5468 14.3373c-.0491 1.2881.49 2.5286 1.4652 3.3716l6.0301 5.2125c2.1245 1.8364 5.2745 1.8364 7.399 0l6.0301-5.2125c.9752-.843 1.5143-2.0835 1.4652-3.3716l-.5468-14.3373c-.0869-2.2787-1.9595-4.0811-4.2398-4.0811z" fill="#f73744" stroke="#fff" stroke-width="2.82857"/><g clip-rule="evenodd" fill-rule="evenodd" mask="url(#b)"><path d="m20.6664 26.3737c0-.3905-.3166-.7071-.7071-.7071h-2.8c-.3906 0-.7072-.3166-.7072-.7072v-1.419c0-.3906.3166-.7071.7072-.7071h2.8c.3905 0 .7071-.3166.7071-.7072v-1.419c0-.3906-.3166-.7072-.7071-.7072h-1.3952c-.3906 0-.7072-.3166-.7072-.7071v-1.4191c0-.3905.3166-.7071.7072-.7071h1.3952c.3905 0 .7071-.3166.7071-.7072v-1.419c0-.3905.3166-.7071.7072-.7071h1.3952c.3906 0 .7072.3166.7072.7071v1.419c0 .3906.3166.7072.7071.7072h1.3952c.3906 0 .7072.3166.7072.7071v1.4191c0 .3905-.3166.7071-.7072.7071h-1.3952c-.3905 0-.7071.3166-.7071.7072v1.419c0 .3906.3166.7072.7071.7072h2.8c.3905 0 .7071.3165.7071.7071v1.419c0 .3906-.3166.7072-.7071.7072h-2.8c-.3905 0-.7071.3166-.7071.7071v4.2524c0 .3906-.3166.7072-.7072.7072h-1.3952c-.3906 0-.7072-.3166-.7072-.7072z" fill="#fff"/><path d="m19.5351 31.5291c-3.4157.5427-5.8925 2.1526-5.8925 4.0542 0 2.3473 3.7736 4.2501 8.4286 4.2501 4.6549 0 8.4285-1.9028 8.4285-4.2501 0-1.9016-2.4768-3.5115-5.8926-4.0542-.4523-.9537-1.4178-1.6124-2.536-1.6124s-2.0838.6587-2.536 1.6124z" fill="#1251a1"/></g></g></svg>