<svg fill="none" height="53" viewBox="0 0 61 53" width="61" xmlns="http://www.w3.org/2000/svg" xmlns:xlink="http://www.w3.org/1999/xlink"><mask id="a" height="43" maskUnits="userSpaceOnUse" width="59" x="1" y="3"><rect fill="#fff" height="42.5" rx="4.24286" width="59" x="1" y="3"/></mask><rect fill="#fff" height="42.5" rx="4.24286" width="59" x="1" y="3"/><g clip-rule="evenodd" fill-rule="evenodd" mask="url(#a)"><path d="m1 45.5h59v-14.1667h-59z" fill="#2acb41"/><path d="m1 17.1667h59v-14.1667h-59z" fill="#2acb41"/><path d="m1 31.3334h59v-14.1667h-59z" fill="#fdd043"/><path d="m1 3 22.4762 21.25-22.4762 21.25z" fill="#e71e43"/><g fill="#262626"><path d="m31.9047 26.5734-3.3028 2.2611 1.1117-3.8665-3.1529-2.4691 3.9898-.1285 1.3542-3.787 1.3541 3.787 3.9899.1285-3.153 2.4691 1.1118 3.8665z"/><path d="m45.9523 26.5734-3.3028 2.2611 1.1117-3.8665-3.1529-2.4691 3.9899-.1285 1.3541-3.787 1.3541 3.787 3.9899.1285-3.1529 2.4691 1.1117 3.8665z"/></g></g></svg>