<svg fill="none" height="53" viewBox="0 0 61 53" width="61" xmlns="http://www.w3.org/2000/svg" xmlns:xlink="http://www.w3.org/1999/xlink"><linearGradient id="a" gradientUnits="userSpaceOnUse" x1="24.8809" x2="24.8809" y1="19.7164" y2="29.9167"><stop offset="0" stop-color="#3c7839"/><stop offset="1" stop-color="#31642e"/></linearGradient><mask id="b" height="43" maskUnits="userSpaceOnUse" width="59" x="1" y="3"><rect fill="#fff" height="41.4393" rx="3.7125" stroke="#fff" stroke-width="1.06071" width="57.9393" x="1.53036" y="3.53036"/></mask><rect fill="#fff" height="41.4393" rx="3.7125" stroke="#f5f5f5" stroke-width="1.06071" width="57.9393" x="1.53036" y="3.53036"/><g clip-rule="evenodd" fill-rule="evenodd" mask="url(#b)"><path d="m1 17.1667h59v-14.1667h-59z" fill="#1b57c4"/><path d="m1 45.5h59v-14.1667h-59z" fill="#1b57c4"/><path d="m27.1284 19.7164c-1.3648 1.0338-2.2475 2.6798-2.2475 4.5336 0 3.1297 2.5157 5.6667 5.619 5.6667s5.6191-2.537 5.6191-5.6667c0-1.8538-.8828-3.4998-2.2476-4.5336l-1.9667 5.9503h-2.8096z" fill="url(#a)"/><path d="m30.5 18.5834 1.4047 7.0833h-2.8095z" fill="#f9c92e"/></g></svg>