<svg width="61" height="53" viewBox="0 0 61 53" fill="none" xmlns="http://www.w3.org/2000/svg">
<rect x="1.53036" y="3.53036" width="57.9393" height="41.4393" rx="3.7125" fill="white" stroke="#F5F5F5" stroke-width="1.06071"/>
<mask id="mask0" mask-type="alpha" maskUnits="userSpaceOnUse" x="1" y="3" width="59" height="43">
<rect x="1.53036" y="3.53036" width="57.9393" height="41.4393" rx="3.7125" fill="white" stroke="white" stroke-width="1.06071"/>
</mask>
<g mask="url(#mask0)">
<path fill-rule="evenodd" clip-rule="evenodd" d="M1 45.5H60V31.3333H1V45.5Z" fill="#262626"/>
<path fill-rule="evenodd" clip-rule="evenodd" d="M1 17.1667H60V3H1V17.1667Z" fill="#E32139"/>
<path fill-rule="evenodd" clip-rule="evenodd" d="M20.6667 26.5734L17.3639 28.8345L18.4756 24.968L15.3226 22.4989L19.3125 22.3704L20.6667 18.5834L22.0208 22.3704L26.0107 22.4989L22.8577 24.968L23.9694 28.8345L20.6667 26.5734Z" fill="#128A49"/>
<path fill-rule="evenodd" clip-rule="evenodd" d="M40.3334 26.5734L37.0306 28.8345L38.1423 24.968L34.9894 22.4989L38.9793 22.3704L40.3334 18.5834L41.6875 22.3704L45.6774 22.4989L42.5245 24.968L43.6362 28.8345L40.3334 26.5734Z" fill="#128A49"/>
</g>
</svg>
