<svg fill="none" height="53" viewBox="0 0 61 53" width="61" xmlns="http://www.w3.org/2000/svg" xmlns:xlink="http://www.w3.org/1999/xlink"><mask id="a" height="43" maskUnits="userSpaceOnUse" width="59" x="1" y="3"><rect fill="#fff" height="41.4393" rx="3.7125" stroke="#fff" stroke-width="1.06071" width="57.9393" x="1.53036" y="3.53036"/></mask><rect fill="#fff" height="41.4393" rx="3.7125" stroke="#f5f5f5" stroke-width="1.06071" width="57.9393" x="1.53036" y="3.53036"/><g clip-rule="evenodd" fill-rule="evenodd" mask="url(#a)"><path d="m1 45.5h59v-14.1667h-59z" fill="#262626"/><path d="m1 17.1667h59v-14.1667h-59z" fill="#e32139"/><g fill="#128a49"><path d="m20.6667 26.5734-3.3028 2.2611 1.1117-3.8665-3.153-2.4691 3.9899-.1285 1.3542-3.787 1.3541 3.787 3.9899.1285-3.153 2.4691 1.1117 3.8665z"/><path d="m40.3334 26.5734-3.3028 2.2611 1.1117-3.8665-3.1529-2.4691 3.9899-.1285 1.3541-3.787 1.3541 3.787 3.9899.1285-3.1529 2.4691 1.1117 3.8665z"/></g></g></svg>