<svg fill="none" height="53" viewBox="0 0 61 53" width="61" xmlns="http://www.w3.org/2000/svg" xmlns:xlink="http://www.w3.org/1999/xlink"><mask id="a" height="43" maskUnits="userSpaceOnUse" width="59" x="1" y="3"><rect fill="#fff" height="42.5" rx="4.24286" width="59" x="1" y="3"/></mask><mask id="b" height="15" maskUnits="userSpaceOnUse" width="27" x="17" y="17"><path clip-rule="evenodd" d="m30.5 31.3334c6.9825 0 12.6429-7.0833 12.6429-7.0833s-5.6604-7.0834-12.6429-7.0834c-6.9824 0-12.6428 7.0834-12.6428 7.0834s5.6604 7.0833 12.6428 7.0833z" fill="#fff" fill-rule="evenodd"/></mask><rect fill="#fff" height="42.5" rx="4.24286" width="59" x="1" y="3"/><g clip-rule="evenodd" fill-rule="evenodd" mask="url(#a)"><path d="m1 11.5h59v-8.5h-59z" fill="#486bca"/><path d="m1 45.4999h59v-8.5h-59z" fill="#486bca"/><path d="m1 36.9999h59v-25.5h-59z" fill="#ffdf20"/><path d="m1 34.1666h59v-19.8333h-59z" fill="#cf1615"/><path d="m30.5 31.3334c6.9825 0 12.6429-7.0833 12.6429-7.0833s-5.6604-7.0834-12.6429-7.0834c-6.9824 0-12.6428 7.0834-12.6428 7.0834s5.6604 7.0833 12.6428 7.0833z" fill="#fff"/><g mask="url(#b)"><path d="m31.9048 17.1667h-14.0476v14.1667h11.2381z" fill="#262626"/><path d="m33.3095 25.6667c.7759 0 1.4048-.6343 1.4048-1.4167s-.6289-1.4166-1.4048-1.4166c-.7758 0-1.4047.6342-1.4047 1.4166s.6289 1.4167 1.4047 1.4167z" fill="#1a1a1a"/><path d="m27.6904 25.6667c.7758 0 1.4048-.6343 1.4048-1.4167s-.629-1.4166-1.4048-1.4166-1.4048.6342-1.4048 1.4166.629 1.4167 1.4048 1.4167z" fill="#f6f6f6"/></g></g></svg>