<svg width="61" height="53" viewBox="0 0 61 53" fill="none" xmlns="http://www.w3.org/2000/svg">
<rect x="1" y="3" width="59" height="42.5" rx="4.24286" fill="white"/>
<mask id="mask0" mask-type="alpha" maskUnits="userSpaceOnUse" x="1" y="3" width="59" height="43">
<rect x="1" y="3" width="59" height="42.5" rx="4.24286" fill="white"/>
</mask>
<g mask="url(#mask0)">
<rect x="1" y="3" width="59" height="42.5" fill="#07319C"/>
<path d="M38.2311 24.2499V24.1406V24.0306V23.9201V23.8091V23.6975V23.5855V23.473V23.36V23.2467V23.1329V23.0189V22.9044V22.8471V22.8328V22.8184V22.7897V22.6747V22.5595V22.444V22.3283V22.2125V22.0965V21.9804V21.8642V21.7479V21.6317V21.5735V21.559V21.5444V21.5299V21.5154V21.5008V21.4863V21.4717V21.4572V21.4427V21.4281V21.4136V21.3991V21.3845V21.37V21.3555V21.3409V21.3264V21.3119V21.2974V21.2828V21.2683V21.2538V21.2393V21.2247V21.2102V21.1957V21.1812V21.1667V21.1521V21.1376V21.1231V21.1086V21.0941V21.0796V21.0651V21.0506V21.0361V21.0216V21.0071V20.9926V20.9781V20.9636V20.9491V20.9346V20.9201V20.9057V20.8912V20.8767V20.8622V20.8478V20.8333V20.8188V20.8044V20.7899V20.7754V20.761V20.7465V20.7321V20.7176V20.7032V20.6888V20.6743V20.6599V20.6455V20.631V20.6166V20.6022V20.5878V20.5734V20.559V20.5445V20.5301V20.5157V20.5014V20.487V20.4726V20.4582V20.4438V20.4294V20.4151V20.4007V20.3863V20.372V20.3576V20.3433V20.3289V20.3146V20.3003V20.2859V20.2716V20.2573V20.243V20.2287V20.2144V20.2001V20.1858V20.1715V20.1572V20.1429V20.1286V20.1144V20.1001V20.0858V20.0716V20.0573V20.0431V20.0288V20.0146V20.0004V19.9862V19.9719V19.9577V19.9435V19.9293V19.9151V19.901V19.8868V19.8726V19.8584V19.8443V19.8301V19.816V19.8018V19.7877V19.6748V19.5624V19.4505V19.339V19.2281V19.1177V19.0079V18.8987V18.7902V18.6823V18.575V18.4685V18.3627V18.2576V18.1534V18.05V17.9474V17.7448V17.5459V17.3509V17.16C38.2311 15.989 39.1803 15.0404 40.3525 15.0404H48.743C49.9152 15.0404 50.8644 15.989 50.8644 17.16V17.1718V17.1837V17.1955V17.2074V17.2192V17.2311V17.243V17.2549V17.2669V17.2788V17.2908V17.3028V17.3148V17.3268V17.3389V17.3509V17.363V17.3751V17.3872V17.3993V17.4114V17.4236V17.4357V17.4479V17.4601V17.4723V17.4845V17.4968V17.509V17.5213V17.5336V17.5459V17.5582V17.5706V17.5829V17.5953V17.6077V17.62V17.6325V17.6449V17.6573V17.6698V17.6822V17.6947V17.7072V17.7197V17.7323V17.7448V17.7573V17.7699V17.7825V17.7951V17.8077V17.8203V17.833V17.8456V17.8583V17.871V17.8837V17.8964V17.9091V17.9218V17.9346V17.9474V17.9601V17.9729V17.9857V17.9986V18.0114V18.0242V18.0371V18.05V18.0628V18.0757V18.0886V18.1016V18.1145V18.1275V18.1404V18.1534V18.1664V18.1794V18.1924V18.2054V18.2185V18.2315V18.2446V18.2576V18.2707V18.2838V18.2969V18.3101V18.3232V18.3363V18.3495V18.3627V18.3759V18.3891V18.4023V18.4155V18.4287V18.442V18.4552V18.4685V18.4818V18.495V18.5083V18.5217V18.535V18.5483V18.5617V18.575V18.5884V18.6018V18.6151V18.6285V18.642V18.6554V18.6688V18.6822V18.6957V18.7092V18.7226V18.7361V18.7496V18.7631V18.7766V18.7902V18.8037V18.8172V18.8308V18.8444V18.858V18.8715V18.8851V18.8987V18.9124V18.926V18.9396V18.9533V18.9669V18.9806V18.9943V19.0079V19.0216V19.0353V19.049V19.0628V19.0765V19.0902V19.104V19.1177V19.1315V19.1453V19.1591V19.1729V19.1867V19.2005V19.2143V19.2281V19.242V19.2558V19.2697V19.2835V19.2974V19.3113V19.3252V19.339V19.3529V19.3669V19.3808V19.3947V19.4086V19.4226V19.4365V19.4505V19.4645V19.4784V19.4924V19.5064V19.5204V19.5344V19.5484V19.5624V19.5765V19.5905V19.6045V19.6186V19.6326V19.6467V19.6608V19.6748V19.6889V19.703V19.7171V19.7312V19.7453V19.7594V19.7736V19.7877V19.8018V19.816V19.8301V19.8443V19.8584V19.8726V19.8868V19.901V19.9151V19.9293V19.9435V19.9577V19.9719V19.9862V20.0004V20.0146V20.0288V20.0431V20.0573V20.0716V20.0858V20.1001V20.1144V20.1286V20.1429V20.1572V20.1715V20.1858V20.2001V20.2144V20.2287V20.243V20.2573V20.2716V20.2859V20.3003V20.3146V20.3289V20.3433V20.3576V20.372V20.3863V20.4007V20.4151V20.4294V20.4438V20.4582V20.4726V20.487V20.5014V20.5157V20.5301V20.5445V20.559V20.5734V20.5878V20.6022V20.6166V20.631V20.6455V20.6599V20.6743V20.6888V20.7032V20.7176V20.7321V20.7465V20.761V20.7754V20.7899V20.8044V20.8188V20.8333V20.8478V20.8622V20.8767V20.8912V20.9057V20.9201V20.9346V20.9491V20.9636V20.9781V20.9926V21.0071V21.0216V21.0361V21.0506V21.0651V21.0796V21.0941V21.1086V21.1231V21.1376V21.1521V21.1667V21.1812V21.1957V21.2102V21.2247V21.2393V21.2538V21.2683V21.2828V21.2974V21.3119V21.3264V21.3409V21.3555V21.37V21.3845V21.3991V21.4136V21.4281V21.4427V21.4572V21.4717V21.4863V21.5008V21.5154V21.5299V21.5444V21.559V21.5735V21.588V21.6026V21.6171V21.6317V21.6462V21.6607V21.6753V21.6898V21.7043V21.7189V21.7334V21.7479V21.7625V21.777V21.7915V21.8061V21.8206V21.8351V21.8497V21.8642V21.8787V21.8933V21.9078V21.9223V21.9368V21.9513V21.9659V21.9804V21.9949V22.0094V22.0239V22.0384V22.053V22.0675V22.082V22.0965V22.111V22.1255V22.14V22.1545V22.169V22.1835V22.198V22.2125V22.227V22.2414V22.2559V22.2704V22.2849V22.2994V22.3138V22.3283V22.3428V22.3572V22.3717V22.3862V22.4006V22.4151V22.4295V22.444V22.4584V22.4729V22.4873V22.5017V22.5162V22.5306V22.545V22.5595V22.5739V22.5883V22.6027V22.6171V22.6315V22.6459V22.6603V22.6747V22.6891V22.7035V22.7179V22.7322V22.7466V22.761V22.7753V22.7897V22.8041V22.8184V22.8328V22.8471V22.8614V22.8758V22.8901V22.9044V22.9187V22.9331V22.9474V22.9617V22.976V22.9903V23.0046V23.0189V23.0331V23.0474V23.0617V23.0759V23.0902V23.1045V23.1187V23.1329V23.1472V23.1614V23.1756V23.1899V23.2041V23.2183V23.2325V23.2467V23.2609V23.2751V23.2892V23.3034V23.3176V23.3317V23.3459V23.36V23.3742V23.3883V23.4024V23.4166V23.4307V23.4448V23.4589V23.473V23.4871V23.5012V23.5152V23.5293V23.5434V23.5574V23.5715V23.5855V23.5995V23.6135V23.6276V23.6416V23.6556V23.6696V23.6836V23.6975V23.7115V23.7255V23.7394V23.7534V23.7673V23.7813V23.7952V23.8091V23.823V23.8369V23.8508V23.8647V23.8786V23.8924V23.9063V23.9201V23.934V23.9478V23.9616V23.9755V23.9893V24.0031V24.0169V24.0306V24.0444V24.0582V24.0719V24.0857V24.0994V24.1132V24.1269V24.1406V24.1543V24.168V24.1817V24.1953V24.209V24.2226V24.2363V24.2499C50.8644 27.5309 49.2451 29.8335 47.5844 31.3409C46.7533 32.0952 45.9199 32.6417 45.2943 32.9992C44.9833 33.177 44.7256 33.3069 44.5477 33.3915C44.3699 33.3069 44.1122 33.177 43.8011 32.9992C43.1756 32.6417 42.3422 32.0952 41.5111 31.3409C39.8503 29.8335 38.2311 27.5309 38.2311 24.2499Z" fill="#FFD033" stroke="white" stroke-width="1.41429"/>
<mask id="mask1" mask-type="alpha" maskUnits="userSpaceOnUse" x="37" y="14" width="15" height="21">
<path d="M38.2311 24.2499V24.1406V24.0306V23.9201V23.8091V23.6975V23.5855V23.473V23.36V23.2467V23.1329V23.0189V22.9044V22.8471V22.8328V22.8184V22.7897V22.6747V22.5595V22.444V22.3283V22.2125V22.0965V21.9804V21.8642V21.7479V21.6317V21.5735V21.559V21.5444V21.5299V21.5154V21.5008V21.4863V21.4717V21.4572V21.4427V21.4281V21.4136V21.3991V21.3845V21.37V21.3555V21.3409V21.3264V21.3119V21.2974V21.2828V21.2683V21.2538V21.2393V21.2247V21.2102V21.1957V21.1812V21.1667V21.1521V21.1376V21.1231V21.1086V21.0941V21.0796V21.0651V21.0506V21.0361V21.0216V21.0071V20.9926V20.9781V20.9636V20.9491V20.9346V20.9201V20.9057V20.8912V20.8767V20.8622V20.8478V20.8333V20.8188V20.8044V20.7899V20.7754V20.761V20.7465V20.7321V20.7176V20.7032V20.6888V20.6743V20.6599V20.6455V20.631V20.6166V20.6022V20.5878V20.5734V20.559V20.5445V20.5301V20.5157V20.5014V20.487V20.4726V20.4582V20.4438V20.4294V20.4151V20.4007V20.3863V20.372V20.3576V20.3433V20.3289V20.3146V20.3003V20.2859V20.2716V20.2573V20.243V20.2287V20.2144V20.2001V20.1858V20.1715V20.1572V20.1429V20.1286V20.1144V20.1001V20.0858V20.0716V20.0573V20.0431V20.0288V20.0146V20.0004V19.9862V19.9719V19.9577V19.9435V19.9293V19.9151V19.901V19.8868V19.8726V19.8584V19.8443V19.8301V19.816V19.8018V19.7877V19.6748V19.5624V19.4505V19.339V19.2281V19.1177V19.0079V18.8987V18.7902V18.6823V18.575V18.4685V18.3627V18.2576V18.1534V18.05V17.9474V17.7448V17.5459V17.3509V17.16C38.2311 15.989 39.1803 15.0404 40.3525 15.0404H48.743C49.9152 15.0404 50.8644 15.989 50.8644 17.16V17.1718V17.1837V17.1955V17.2074V17.2192V17.2311V17.243V17.2549V17.2669V17.2788V17.2908V17.3028V17.3148V17.3268V17.3389V17.3509V17.363V17.3751V17.3872V17.3993V17.4114V17.4236V17.4357V17.4479V17.4601V17.4723V17.4845V17.4968V17.509V17.5213V17.5336V17.5459V17.5582V17.5706V17.5829V17.5953V17.6077V17.62V17.6325V17.6449V17.6573V17.6698V17.6822V17.6947V17.7072V17.7197V17.7323V17.7448V17.7573V17.7699V17.7825V17.7951V17.8077V17.8203V17.833V17.8456V17.8583V17.871V17.8837V17.8964V17.9091V17.9218V17.9346V17.9474V17.9601V17.9729V17.9857V17.9986V18.0114V18.0242V18.0371V18.05V18.0628V18.0757V18.0886V18.1016V18.1145V18.1275V18.1404V18.1534V18.1664V18.1794V18.1924V18.2054V18.2185V18.2315V18.2446V18.2576V18.2707V18.2838V18.2969V18.3101V18.3232V18.3363V18.3495V18.3627V18.3759V18.3891V18.4023V18.4155V18.4287V18.442V18.4552V18.4685V18.4818V18.495V18.5083V18.5217V18.535V18.5483V18.5617V18.575V18.5884V18.6018V18.6151V18.6285V18.642V18.6554V18.6688V18.6822V18.6957V18.7092V18.7226V18.7361V18.7496V18.7631V18.7766V18.7902V18.8037V18.8172V18.8308V18.8444V18.858V18.8715V18.8851V18.8987V18.9124V18.926V18.9396V18.9533V18.9669V18.9806V18.9943V19.0079V19.0216V19.0353V19.049V19.0628V19.0765V19.0902V19.104V19.1177V19.1315V19.1453V19.1591V19.1729V19.1867V19.2005V19.2143V19.2281V19.242V19.2558V19.2697V19.2835V19.2974V19.3113V19.3252V19.339V19.3529V19.3669V19.3808V19.3947V19.4086V19.4226V19.4365V19.4505V19.4645V19.4784V19.4924V19.5064V19.5204V19.5344V19.5484V19.5624V19.5765V19.5905V19.6045V19.6186V19.6326V19.6467V19.6608V19.6748V19.6889V19.703V19.7171V19.7312V19.7453V19.7594V19.7736V19.7877V19.8018V19.816V19.8301V19.8443V19.8584V19.8726V19.8868V19.901V19.9151V19.9293V19.9435V19.9577V19.9719V19.9862V20.0004V20.0146V20.0288V20.0431V20.0573V20.0716V20.0858V20.1001V20.1144V20.1286V20.1429V20.1572V20.1715V20.1858V20.2001V20.2144V20.2287V20.243V20.2573V20.2716V20.2859V20.3003V20.3146V20.3289V20.3433V20.3576V20.372V20.3863V20.4007V20.4151V20.4294V20.4438V20.4582V20.4726V20.487V20.5014V20.5157V20.5301V20.5445V20.559V20.5734V20.5878V20.6022V20.6166V20.631V20.6455V20.6599V20.6743V20.6888V20.7032V20.7176V20.7321V20.7465V20.761V20.7754V20.7899V20.8044V20.8188V20.8333V20.8478V20.8622V20.8767V20.8912V20.9057V20.9201V20.9346V20.9491V20.9636V20.9781V20.9926V21.0071V21.0216V21.0361V21.0506V21.0651V21.0796V21.0941V21.1086V21.1231V21.1376V21.1521V21.1667V21.1812V21.1957V21.2102V21.2247V21.2393V21.2538V21.2683V21.2828V21.2974V21.3119V21.3264V21.3409V21.3555V21.37V21.3845V21.3991V21.4136V21.4281V21.4427V21.4572V21.4717V21.4863V21.5008V21.5154V21.5299V21.5444V21.559V21.5735V21.588V21.6026V21.6171V21.6317V21.6462V21.6607V21.6753V21.6898V21.7043V21.7189V21.7334V21.7479V21.7625V21.777V21.7915V21.8061V21.8206V21.8351V21.8497V21.8642V21.8787V21.8933V21.9078V21.9223V21.9368V21.9513V21.9659V21.9804V21.9949V22.0094V22.0239V22.0384V22.053V22.0675V22.082V22.0965V22.111V22.1255V22.14V22.1545V22.169V22.1835V22.198V22.2125V22.227V22.2414V22.2559V22.2704V22.2849V22.2994V22.3138V22.3283V22.3428V22.3572V22.3717V22.3862V22.4006V22.4151V22.4295V22.444V22.4584V22.4729V22.4873V22.5017V22.5162V22.5306V22.545V22.5595V22.5739V22.5883V22.6027V22.6171V22.6315V22.6459V22.6603V22.6747V22.6891V22.7035V22.7179V22.7322V22.7466V22.761V22.7753V22.7897V22.8041V22.8184V22.8328V22.8471V22.8614V22.8758V22.8901V22.9044V22.9187V22.9331V22.9474V22.9617V22.976V22.9903V23.0046V23.0189V23.0331V23.0474V23.0617V23.0759V23.0902V23.1045V23.1187V23.1329V23.1472V23.1614V23.1756V23.1899V23.2041V23.2183V23.2325V23.2467V23.2609V23.2751V23.2892V23.3034V23.3176V23.3317V23.3459V23.36V23.3742V23.3883V23.4024V23.4166V23.4307V23.4448V23.4589V23.473V23.4871V23.5012V23.5152V23.5293V23.5434V23.5574V23.5715V23.5855V23.5995V23.6135V23.6276V23.6416V23.6556V23.6696V23.6836V23.6975V23.7115V23.7255V23.7394V23.7534V23.7673V23.7813V23.7952V23.8091V23.823V23.8369V23.8508V23.8647V23.8786V23.8924V23.9063V23.9201V23.934V23.9478V23.9616V23.9755V23.9893V24.0031V24.0169V24.0306V24.0444V24.0582V24.0719V24.0857V24.0994V24.1132V24.1269V24.1406V24.1543V24.168V24.1817V24.1953V24.209V24.2226V24.2363V24.2499C50.8644 27.5309 49.2451 29.8335 47.5844 31.3409C46.7533 32.0952 45.9199 32.6417 45.2943 32.9992C44.9833 33.177 44.7256 33.3069 44.5477 33.3915C44.3699 33.3069 44.1122 33.177 43.8011 32.9992C43.1756 32.6417 42.3422 32.0952 41.5111 31.3409C39.8503 29.8335 38.2311 27.5309 38.2311 24.2499Z" fill="white" stroke="white" stroke-width="1.41429"/>
</mask>
<g mask="url(#mask1)">
<path fill-rule="evenodd" clip-rule="evenodd" d="M47.3574 22.8333C48.1332 22.8333 48.7622 21.5648 48.7622 20C48.7622 18.4352 48.1332 17.1666 47.3574 17.1666C46.5816 17.1666 45.9526 18.4352 45.9526 20C45.9526 21.5648 46.5816 22.8333 47.3574 22.8333Z" fill="#BA5B1F"/>
<path fill-rule="evenodd" clip-rule="evenodd" d="M42.1706 22.7479C42.8996 22.4803 43.0604 21.0713 42.5297 19.6009C41.999 18.1304 40.9778 17.1553 40.2488 17.4229C39.5197 17.6905 39.3589 19.0995 39.8896 20.5699C40.4203 22.0404 41.4415 23.0155 42.1706 22.7479Z" fill="#FF9F3E"/>
<path fill-rule="evenodd" clip-rule="evenodd" d="M41.1445 22.7005C41.8477 23.0311 42.9493 22.1495 43.605 20.7313C44.2608 19.3131 44.2224 17.8954 43.5192 17.5647C42.8161 17.2341 41.7145 18.1157 41.0587 19.5339C40.403 20.9521 40.4414 22.3698 41.1445 22.7005Z" fill="#FF937F"/>
<path fill-rule="evenodd" clip-rule="evenodd" d="M43.1428 25.6666L44.5476 22.8333L45.9523 25.6666V28.4999H43.1428V25.6666Z" fill="#01A827"/>
</g>
<path d="M1 2.29286H-0.899402L0.537561 3.53498L10.1262 11.8235V13.9712L0.586685 20.8429L0.292857 21.0545V21.4167V22.8333V24.1149L1.37706 23.4316L12.4424 16.4571H14.8194L24.3454 23.3191C24.5452 23.463 24.7853 23.5405 25.0316 23.5405C26.1192 23.5405 26.6222 22.1894 25.7994 21.4782L17.1595 14.0099V11.8621L26.4052 5.2021C26.7742 4.93631 26.9929 4.5093 26.9929 4.05454V3V1.7184L25.9087 2.40177L14.8434 9.37619H12.4663L2.81808 2.42622L2.63294 2.29286H2.40476H1Z" fill="#DB1E36" stroke="white" stroke-width="1.41429"/>
<path fill-rule="evenodd" clip-rule="evenodd" d="M1 10.0833V15.75H10.8333V22.8357C10.8333 23.6168 11.4665 24.25 12.2476 24.25H15.0381C15.8192 24.25 16.4524 23.6168 16.4524 22.8357V15.75H26.2762C27.0573 15.75 27.6905 15.1168 27.6905 14.3357V11.4976C27.6905 10.7165 27.0573 10.0833 26.2762 10.0833H16.4524V3H10.8333V10.0833H1Z" fill="white"/>
<path fill-rule="evenodd" clip-rule="evenodd" d="M1 11.5H12.2381V10.0833V3H15.0476V10.0833V11.5H26.2857V14.3333H15.0476V15.75V22.8333H12.2381V15.75V14.3333H1V11.5Z" fill="#DB1E36"/>
</g>
</svg>
