<svg fill="none" height="53" viewBox="0 0 61 53" width="61" xmlns="http://www.w3.org/2000/svg" xmlns:xlink="http://www.w3.org/1999/xlink"><mask id="a" height="43" maskUnits="userSpaceOnUse" width="59" x="1" y="3"><rect fill="#fff" height="42.5" rx="4.24286" width="59" x="1" y="3"/></mask><rect fill="#fff" height="42.5" rx="4.24286" width="59" x="1" y="3"/><g mask="url(#a)"><path d="m1 3h59v42.5h-59z" fill="#ffd44d"/><path clip-rule="evenodd" d="m26.2857 3h33.7143v8.5h-33.7143zm0 17h33.7143v8.5h-33.7143zm33.7143 17h-59v8.5h59z" fill="#159a74" fill-rule="evenodd"/><path d="m1 3h25.2857v25.5h-25.2857z" fill="#ed1f45"/><path clip-rule="evenodd" d="m13.6429 19.065-4.95416 3.5616 1.82796-5.8522-4.88982-3.651 6.08392-.0553 1.9321-5.8181 1.9322 5.8181 6.0839.0553-4.8898 3.651 1.8279 5.8522z" fill="#fff" fill-rule="evenodd"/></g></svg>