<svg fill="none" height="53" viewBox="0 0 61 53" width="61" xmlns="http://www.w3.org/2000/svg" xmlns:xlink="http://www.w3.org/1999/xlink"><mask id="a" height="43" maskUnits="userSpaceOnUse" width="59" x="1" y="3"><rect fill="#fff" height="41.4393" rx="3.7125" stroke="#fff" stroke-width="1.06071" width="57.9393" x="1.53036" y="3.53036"/></mask><rect fill="#fff" height="41.4393" rx="3.7125" stroke="#f5f5f5" stroke-width="1.06071" width="57.9393" x="1.53036" y="3.53036"/><g clip-rule="evenodd" fill-rule="evenodd" mask="url(#a)"><path d="m1 17.1667h59v-14.1667h-59z" fill="#d9101c"/><path d="m1 45.5h59v-14.1667h-59z" fill="#0f7811"/><path d="m29.0953 21.4167c0 .7824-.629 1.4167-1.4048 1.4167s-1.4048-.6343-1.4048-1.4167.629-1.4166 1.4048-1.4166 1.4048.6342 1.4048 1.4166zm2.8096 2.8333c0 .2563-.0675.8006-.1855 1.4167h1.5806c.7811 0 1.4143.6356 1.4143 1.4167s-.6332 1.4166-1.4143 1.4166h-2.7971-.0028-.0027-2.7974c-.7811 0-1.4143-.6355-1.4143-1.4166s.6332-1.4167 1.4143-1.4167h1.5808c-.118-.6161-.1854-1.1604-.1854-1.4167 0-.7824.6289-1.4166 1.4047-1.4166.7759 0 1.4048.6342 1.4048 1.4166zm2.8095-2.8333c0 .7824-.6289 1.4167-1.4048 1.4167-.7758 0-1.4047-.6343-1.4047-1.4167s.6289-1.4166 1.4047-1.4166c.7759 0 1.4048.6342 1.4048 1.4166zm4.2142 4.25c.7758 0 1.4048-.6342 1.4048-1.4167 0-.7824-.629-1.4166-1.4048-1.4166s-1.4048.6342-1.4048 1.4166c0 .7825.629 1.4167 1.4048 1.4167zm-15.4523-1.4167c0 .7825-.629 1.4167-1.4048 1.4167s-1.4048-.6342-1.4048-1.4167c0-.7824.629-1.4166 1.4048-1.4166s1.4048.6342 1.4048 1.4166z" fill="#fad14e"/></g></svg>