<svg fill="none" height="53" viewBox="0 0 61 53" width="61" xmlns="http://www.w3.org/2000/svg" xmlns:xlink="http://www.w3.org/1999/xlink"><mask id="a" height="43" maskUnits="userSpaceOnUse" width="59" x="1" y="3"><rect fill="#fff" height="42.5" rx="4.24286" width="59" x="1" y="3"/></mask><mask id="b" height="7" maskUnits="userSpaceOnUse" width="9" x="9" y="5"><path clip-rule="evenodd" d="m13.643 11.5c2.3275 0 4.2143-1.2685 4.2143-2.83335 0-1.56481-1.8868-2.83334-4.2143-2.83334s-4.21429 1.26853-4.21429 2.83334c0 1.56485 1.88679 2.83335 4.21429 2.83335z" fill="#fff" fill-rule="evenodd"/></mask><mask id="c" height="6" maskUnits="userSpaceOnUse" width="9" x="9" y="37"><path clip-rule="evenodd" d="m13.643 42.6666c2.3275 0 4.2143-1.2685 4.2143-2.8333s-1.8868-2.8334-4.2143-2.8334-4.21429 1.2686-4.21429 2.8334 1.88679 2.8333 4.21429 2.8333z" fill="#fff" fill-rule="evenodd"/></mask><mask id="d" height="7" maskUnits="userSpaceOnUse" width="9" x="9" y="22"><path clip-rule="evenodd" d="m13.643 28.5c2.3275 0 4.2143-1.2685 4.2143-2.8333s-1.8868-2.8333-4.2143-2.8333-4.21429 1.2685-4.21429 2.8333 1.88679 2.8333 4.21429 2.8333z" fill="#fff" fill-rule="evenodd"/></mask><mask height="4" maskUnits="userSpaceOnUse" width="9" x="9" y="31"><path clip-rule="evenodd" d="m13.643 34.1666c2.3275 0 4.2143-.6342 4.2143-1.4166s-1.8868-1.4167-4.2143-1.4167-4.21429.6343-4.21429 1.4167 1.88679 1.4166 4.21429 1.4166z" fill="#fff" fill-rule="evenodd"/></mask><mask id="e" height="6" maskUnits="userSpaceOnUse" width="9" x="9" y="14"><path clip-rule="evenodd" d="m13.643 19.9999c2.3275 0 4.2143-1.2685 4.2143-2.8333s-1.8868-2.8333-4.2143-2.8333-4.21429 1.2685-4.21429 2.8333 1.88679 2.8333 4.21429 2.8333z" fill="#fff" fill-rule="evenodd"/></mask><rect fill="#fff" height="42.5" rx="4.24286" width="59" x="1" y="3"/><g mask="url(#a)"><path clip-rule="evenodd" d="m1 45.5h59v-42.5h-59z" fill="#30c375" fill-rule="evenodd"/><path d="m9.42871 3h8.42857v42.5h-8.42857z" fill="#de414f"/><path clip-rule="evenodd" d="m13.643 11.5c2.3275 0 4.2143-1.2685 4.2143-2.83335 0-1.56481-1.8868-2.83334-4.2143-2.83334s-4.21429 1.26853-4.21429 2.83334c0 1.56485 1.88679 2.83335 4.21429 2.83335z" fill="#fff" fill-rule="evenodd"/><g mask="url(#b)"><path clip-rule="evenodd" d="m13.643 10.0833c.7759 0 1.4048-.63423 1.4048-1.41663 0-.78241-.6289-1.41667-1.4048-1.41667-.7758 0-1.4047.63426-1.4047 1.41667 0 .7824.6289 1.41663 1.4047 1.41663z" fill="#dd404f" fill-rule="evenodd"/><g fill="#fbaf29"><path d="m9.42871 5.83331h4.21429v2.83333h-4.21429z"/><path d="m13.6431 8.66663h4.21429v2.83333h-4.21429z"/></g></g><path clip-rule="evenodd" d="m13.643 42.6666c2.3275 0 4.2143-1.2685 4.2143-2.8333s-1.8868-2.8334-4.2143-2.8334-4.21429 1.2686-4.21429 2.8334 1.88679 2.8333 4.21429 2.8333z" fill="#fff" fill-rule="evenodd"/><g mask="url(#c)"><path clip-rule="evenodd" d="m13.643 41.25c.7759 0 1.4048-.6343 1.4048-1.4167s-.6289-1.4167-1.4048-1.4167c-.7758 0-1.4047.6343-1.4047 1.4167s.6289 1.4167 1.4047 1.4167z" fill="#dd404f" fill-rule="evenodd"/><g fill="#fbaf29"><path d="m9.42871 36.9999h4.21429v2.83333h-4.21429z"/><path d="m13.6431 39.8333h4.21429v2.83333h-4.21429z"/></g></g><path clip-rule="evenodd" d="m13.643 28.5c2.3275 0 4.2143-1.2685 4.2143-2.8333s-1.8868-2.8333-4.2143-2.8333-4.21429 1.2685-4.21429 2.8333 1.88679 2.8333 4.21429 2.8333z" fill="#28ae67" fill-rule="evenodd"/><g mask="url(#d)"><path clip-rule="evenodd" d="m13.643 27.0833c1.5517 0 2.8095-.6342 2.8095-1.4166s-1.2578-1.4167-2.8095-1.4167c-1.5516 0-2.8095.6343-2.8095 1.4167s1.2579 1.4166 2.8095 1.4166z" fill="#dd404f" fill-rule="evenodd"/></g><path clip-rule="evenodd" d="m13.643 34.1666c2.3275 0 4.2143-.6342 4.2143-1.4166s-1.8868-1.4167-4.2143-1.4167-4.21429.6343-4.21429 1.4167 1.88679 1.4166 4.21429 1.4166z" fill="#28ae67" fill-rule="evenodd"/><path clip-rule="evenodd" d="m13.643 19.9999c2.3275 0 4.2143-1.2685 4.2143-2.8333s-1.8868-2.8333-4.2143-2.8333-4.21429 1.2685-4.21429 2.8333 1.88679 2.8333 4.21429 2.8333z" fill="#fbaf29" fill-rule="evenodd"/><g mask="url(#e)"><path clip-rule="evenodd" d="m13.643 18.5833c.7759 0 1.4048-.6343 1.4048-1.4167s-.6289-1.4167-1.4048-1.4167c-.7758 0-1.4047.6343-1.4047 1.4167s.6289 1.4167 1.4047 1.4167z" fill="#dd404f" fill-rule="evenodd"/><g fill="#28ae67"><path d="m9.42871 14.3333h2.80952v5.66667h-2.80952z"/><path d="m15.0479 14.3333h2.80952v5.66667h-2.80952z"/></g></g><g clip-rule="evenodd" fill="#fff" fill-rule="evenodd"><path d="m32.2332 12.006c-.4987.5994-.4211 1.493.1732 1.9959s1.4804.4247 1.9791-.1746c.4987-.5994.4211-1.493-.1732-1.9959s-1.4804-.4247-1.9791.1746zm-3.6399 5.4921c-.5943-.503-1.4804-.4248-1.979.1746-.4987.5993-.4212 1.4929.1731 1.9958s1.4804.4248 1.9791-.1746.4211-1.4929-.1732-1.9958zm-2.8095-2.8334c-.5943-.5029-1.4803-.4247-1.979.1746-.4987.5994-.4212 1.493.1731 1.9959s1.4804.4247 1.9791-.1746c.4987-.5994.4211-1.4929-.1732-1.9959zm5.619-5.6666c-.5943-.50292-1.4804-.42475-1.9791.17461-.4986.59936-.4211 1.49289.1732 1.99589.5943.5029 1.4804.4247 1.9791-.1747.4987-.5993.4211-1.49288-.1732-1.9958zm-1.4046 4.25c-.5943-.5029-1.4804-.4248-1.9791.1746-.4987.5993-.4211 1.4929.1732 1.9958.5943.503 1.4804.4248 1.9791-.1746.4986-.5993.4211-1.4929-.1732-1.9958z"/><path d="m37.8244 23.0824c-3.3462 3.3746-8.7716 3.3746-12.1178 0-.3242-.327-.6171-.6737-.8785-1.0362 3.3506 2.457 8.0683 2.1617 11.0904-.8859 3.022-3.0476 3.3148-7.8053.8784-11.18435.3595.26365.7033.55895 1.0275.88595 3.3463 3.3746 3.3463 8.8459 0 12.2205z"/></g></g></svg>