<svg fill="none" height="53" viewBox="0 0 61 53" width="61" xmlns="http://www.w3.org/2000/svg" xmlns:xlink="http://www.w3.org/1999/xlink"><mask id="a" height="43" maskUnits="userSpaceOnUse" width="59" x="1" y="3"><rect fill="#fff" height="42.5" rx="4.24286" width="59" x="1" y="3"/></mask><rect fill="#fff" height="42.5" rx="4.24286" width="59" x="1" y="3"/><g mask="url(#a)"><path d="m1 3h59v42.5h-59z" fill="#e92434"/><path clip-rule="evenodd" d="m43.1431 24.2499c0 7.0417-5.6604 12.75-12.6428 12.75-6.9825 0-12.6429-5.7083-12.6429-12.75 0-7.0416 5.6604-12.75 12.6429-12.75 6.9824 0 12.6428 5.7084 12.6428 12.75zm-16.8571.0001c0-4.7101 3.5066-8.5943 8.0307-9.1422-1.1734-.4988-2.463-.7745-3.8164-.7745-5.4308 0-9.8333 4.4398-9.8333 9.9166 0 5.4769 4.4025 9.9167 9.8333 9.9167 1.3533 0 2.6428-.2757 3.8162-.7744-4.524-.5481-8.0305-4.4322-8.0305-9.1422zm6.594 5.642 2.5808-3.1556 3.7997 1.4315-2.1784-3.4505 2.5241-3.2019-3.9272 1.023-2.2397-3.4103-.2487 4.0827-3.9083 1.0943 3.7735 1.5002z" fill="#fff" fill-rule="evenodd"/></g></svg>