<svg fill="none" height="53" viewBox="0 0 61 53" width="61" xmlns="http://www.w3.org/2000/svg" xmlns:xlink="http://www.w3.org/1999/xlink"><linearGradient id="a" gradientUnits="userSpaceOnUse" x1="9.42871" x2="9.42871" y1="5.83331" y2="22.8333"><stop offset="0" stop-color="#df101b"/><stop offset="1" stop-color="#c00711"/></linearGradient><mask id="b" height="43" maskUnits="userSpaceOnUse" width="59" x="1" y="3"><rect fill="#fff" height="41.4393" rx="3.7125" stroke="#fff" stroke-width="1.06071" width="57.9393" x="1.53036" y="3.53036"/></mask><rect fill="#fff" height="41.4393" rx="3.7125" stroke="#f5f5f5" stroke-width="1.06071" width="57.9393" x="1.53036" y="3.53036"/><g clip-rule="evenodd" fill-rule="evenodd" mask="url(#b)"><path d="m60 3h-25.2857v22.6667h-33.7143v19.8333h59z" fill="#e20f1b"/><path d="m15.7548 5.83331c-.3905 0-.7071.3166-.7071.70715v4.95954h-4.9118c-.39059 0-.70719.3165-.70719.7071v4.2524c0 .3905.3166.7071.70719.7071h4.9118v4.9596c0 .3905.3166.7071.7071.7071h4.2048c.3905 0 .7071-.3166.7071-.7071v-4.9596h4.912c.3906 0 .7072-.3166.7072-.7071v-4.2524c0-.3905-.3166-.7071-.7072-.7071h-4.912v-4.95954c0-.39055-.3166-.70715-.7071-.70715z" fill="url(#a)"/></g></svg>