<svg fill="none" height="53" viewBox="0 0 61 53" width="61" xmlns="http://www.w3.org/2000/svg" xmlns:xlink="http://www.w3.org/1999/xlink"><mask id="a" height="43" maskUnits="userSpaceOnUse" width="59" x="1" y="3"><rect fill="#fff" height="42.5" rx="4.24286" width="59" x="1" y="3"/></mask><rect fill="#fff" height="42.5" rx="4.24286" width="59" x="1" y="3"/><g mask="url(#a)"><path d="m1 3h59v42.5h-59z" fill="#e92434"/><g clip-rule="evenodd" fill="#fff" fill-rule="evenodd"><path d="m41.0794 25.8828-2.5808 3.1556.1758-4.0867-3.7735-1.5002 3.9083-1.0942.2487-4.0828 2.2397 3.4104 3.9272-1.0231-2.5241 3.202 2.1784 3.4504z"/><path d="m37.6704 32.0786c-2.3134 2.995-5.9235 4.9213-9.9797 4.9213-6.9824 0-12.6428-5.7083-12.6428-12.75 0-7.0416 5.6604-12.75 12.6428-12.75 4.0562 0 7.6663 1.9264 9.9797 4.9214-1.7852-1.3086-4.0298-2.088-6.4678-2.088-5.8188 0-10.5358 4.4398-10.5358 9.9166 0 5.4769 4.717 9.9167 10.5358 9.9167 2.438 0 4.6826-.7794 6.4678-2.088z"/></g></g></svg>