<svg fill="none" height="53" viewBox="0 0 61 53" width="61" xmlns="http://www.w3.org/2000/svg" xmlns:xlink="http://www.w3.org/1999/xlink"><mask id="a" height="43" maskUnits="userSpaceOnUse" width="59" x="1" y="3"><rect fill="#fff" height="42.5" rx="4.24286" width="59" x="1" y="3"/></mask><rect fill="#fff" height="42.5" rx="4.24286" width="59" x="1" y="3"/><g clip-rule="evenodd" fill-rule="evenodd" mask="url(#a)"><path d="m1 8.66667h59v-5.66667h-59z" fill="#262626"/><path d="m1 31.3333h59v-5.6667h-59z" fill="#262626"/><path d="m1 25.6667h59v-8.5h-59z" fill="#ed1623"/><path d="m1 17.1666h59v-8.49997h-59z" fill="#fee044"/><path d="m1 45.4999h59v-5.6666h-59z" fill="#ed1623"/><path d="m1 39.8334h59v-8.5h-59z" fill="#fee044"/><path d="m30.5001 34.1666c5.4308 0 9.8333-4.4399 9.8333-9.9167s-4.4025-9.9166-9.8333-9.9166-9.8334 4.4398-9.8334 9.9166 4.4026 9.9167 9.8334 9.9167z" fill="#fff"/><path d="m28.1841 19.0813c-.2733-.2757-.2733-.7202 0-.9959l.8707-.8781c.0269-.027.0509-.0555.0738-.0859.0727-.0966.2561-.3302.4716-.5298.3735-.346 1.4529-.3821 1.8208-.0302.0965.0924.1848.1943.2587.2877.1505.1902.1597.4493.0519.6666l-1.1581 2.3359c-.0484.0976-.0736.2051-.0736.3141v.8156c0 .267.1504.5112.3888.6314l2.318 1.1688c.0681.0343.1301.0794.1838.1335l2.3725 2.3926c.2129.2148.2657.5411.1314.8121l-.7409 1.4942c-.2154.4345-.7942.5282-1.1357.1838l-.2062-.208c-.2766-.2789-.7276-.2789-1.0043 0l-.6976.7036c-.1313.1324-.205.3114-.205.4979v.8343c0 .1865.0744.3662.2057.4986.4426.4464.1306 1.2092-.498 1.2092h-.8202c-.6285 0-.9406-.7628-.498-1.2092.1313-.1324.2057-.3121.2057-.4986v-.4183c0-.3906-.3166-.7072-.7071-.7072h-.403c-.1886 0-.3693.0753-.5021.2092l-.6952.7011c-.2766.279-.7276.279-1.0042 0l-.4089-.4124c-.2734-.2756-.2734-.7201 0-.9958l.7035-.7095c.1328-.1339.3136-.2093.5022-.2093h.8178c.6285 0 .9447-.7587.5021-1.205l-2.5256-2.547c-.2734-.2757-.2734-.7202 0-.9959l1.822-1.8375c.2734-.2756.2734-.7201 0-.9958z" fill="#262626"/></g></svg>