<svg fill="none" height="53" viewBox="0 0 61 53" width="61" xmlns="http://www.w3.org/2000/svg" xmlns:xlink="http://www.w3.org/1999/xlink"><filter id="a" color-interpolation-filters="sRGB" filterUnits="userSpaceOnUse" height="16.288" width="19.6667" x="3.80957" y="5.83337"><feFlood flood-opacity="0" result="BackgroundImageFix"/><feColorMatrix in="SourceAlpha" type="matrix" values="0 0 0 0 0 0 0 0 0 0 0 0 0 0 0 0 0 0 127 0"/><feOffset dy="2.12143"/><feColorMatrix type="matrix" values="0 0 0 0 0 0 0 0 0 0 0 0 0 0 0 0 0 0 0.06 0"/><feBlend in2="BackgroundImageFix" mode="normal" result="effect1_dropShadow"/><feBlend in="SourceGraphic" in2="effect1_dropShadow" mode="normal" result="shape"/></filter><linearGradient id="b" gradientUnits="userSpaceOnUse" x1="3.80957" x2="3.80957" y1="5.83337" y2="20"><stop offset="0" stop-color="#fff"/><stop offset="1" stop-color="#f0f0f0"/></linearGradient><mask id="c" height="43" maskUnits="userSpaceOnUse" width="59" x="1" y="3"><rect fill="#fff" height="42.5" rx="4.24286" width="59" x="1" y="3"/></mask><rect fill="#fff" height="42.5" rx="4.24286" width="59" x="1" y="3"/><g mask="url(#c)"><path clip-rule="evenodd" d="m60 3h-59v2.83333h59zm0 5.66664h-59v2.83336h59zm-59 5.66666h59v2.8333h-59zm59 5.6667h-59v2.8334h59zm-59 5.6667h59v2.8333h-59zm59 5.6666h-59v2.8334h59zm-59 5.6667h59v2.8333h-59zm59 5.6667h-59v2.8334h59z" fill="#d02f44" fill-rule="evenodd"/><path d="m1 3h25.2857v19.8333h-25.2857z" fill="#46467f"/><g filter="url(#a)"><path clip-rule="evenodd" d="m6.61909 7.25004c0 .7824-.62893 1.41667-1.40476 1.41667s-1.40476-.63427-1.40476-1.41667.62893-1.41667 1.40476-1.41667 1.40476.63427 1.40476 1.41667zm5.61901.00001c0 .7824-.6289 1.41666-1.4047 1.41666s-1.40477-.63426-1.40477-1.41666c0-.78241.62897-1.41667 1.40477-1.41667s1.4047.63426 1.4047 1.41667zm4.2143 1.41666c.7759 0 1.4048-.63426 1.4048-1.41666 0-.78241-.6289-1.41667-1.4048-1.41667-.7758 0-1.4047.63426-1.4047 1.41667 0 .7824.6289 1.41666 1.4047 1.41666zm7.0238-1.41666c0 .7824-.6289 1.41666-1.4047 1.41666-.7759 0-1.4048-.63426-1.4048-1.41666 0-.78241.6289-1.41667 1.4048-1.41667.7758 0 1.4047.63426 1.4047 1.41667zm-15.45234 4.24995c.77583 0 1.40476-.6342 1.40476-1.4166 0-.78244-.62893-1.4167-1.40476-1.4167s-1.40476.63426-1.40476 1.4167c0 .7824.62893 1.4166 1.40476 1.4166zm7.02384-1.4166c0 .7824-.629 1.4166-1.4048 1.4166s-1.4047-.6342-1.4047-1.4166c0-.78244.6289-1.4167 1.4047-1.4167s1.4048.63426 1.4048 1.4167zm4.2143 1.4166c.7758 0 1.4047-.6342 1.4047-1.4166 0-.78244-.6289-1.4167-1.4047-1.4167-.7759 0-1.4048.63426-1.4048 1.4167 0 .7824.6289 1.4166 1.4048 1.4166zm4.2142 1.4167c0 .7824-.6289 1.4167-1.4047 1.4167-.7759 0-1.4048-.6343-1.4048-1.4167s.6289-1.4167 1.4048-1.4167c.7758 0 1.4047.6343 1.4047 1.4167zm-7.0238 1.4167c.7759 0 1.4048-.6343 1.4048-1.4167s-.6289-1.4167-1.4048-1.4167c-.7758 0-1.4047.6343-1.4047 1.4167s.6289 1.4167 1.4047 1.4167zm-4.2143-1.4167c0 .7824-.6289 1.4167-1.4047 1.4167s-1.40477-.6343-1.40477-1.4167.62897-1.4167 1.40477-1.4167 1.4047.6343 1.4047 1.4167zm-7.02377 1.4167c.77583 0 1.40477-.6343 1.40477-1.4167s-.62894-1.4167-1.40477-1.4167c-.77582 0-1.40476.6343-1.40476 1.4167s.62894 1.4167 1.40476 1.4167zm4.21429 1.4166c0 .7824-.62893 1.4167-1.40476 1.4167s-1.40476-.6343-1.40476-1.4167.62893-1.4167 1.40476-1.4167 1.40476.6343 1.40476 1.4167zm4.21428 1.4167c.7758 0 1.4048-.6343 1.4048-1.4167s-.629-1.4167-1.4048-1.4167-1.4047.6343-1.4047 1.4167.6289 1.4167 1.4047 1.4167zm7.0238-1.4167c0 .7824-.6289 1.4167-1.4047 1.4167-.7759 0-1.4048-.6343-1.4048-1.4167s.6289-1.4167 1.4048-1.4167c.7758 0 1.4047.6343 1.4047 1.4167zm1.4048 4.25c.7758 0 1.4047-.6343 1.4047-1.4167s-.6289-1.4166-1.4047-1.4166c-.7759 0-1.4048.6342-1.4048 1.4166s.6289 1.4167 1.4048 1.4167zm-4.2143-1.4167c0 .7824-.6289 1.4167-1.4048 1.4167-.7758 0-1.4047-.6343-1.4047-1.4167s.6289-1.4166 1.4047-1.4166c.7759 0 1.4048.6342 1.4048 1.4166zm-7.0238 1.4167c.7758 0 1.4047-.6343 1.4047-1.4167s-.6289-1.4166-1.4047-1.4166-1.40477.6342-1.40477 1.4166.62897 1.4167 1.40477 1.4167zm-4.2143-1.4167c0 .7824-.62894 1.4167-1.40477 1.4167-.77582 0-1.40476-.6343-1.40476-1.4167s.62894-1.4166 1.40476-1.4166c.77583 0 1.40477.6342 1.40477 1.4166z" fill="url(#b)" fill-rule="evenodd"/></g></g></svg>