<svg fill="none" height="53" viewBox="0 0 61 53" width="61" xmlns="http://www.w3.org/2000/svg" xmlns:xlink="http://www.w3.org/1999/xlink"><mask id="a" height="43" maskUnits="userSpaceOnUse" width="59" x="1" y="3"><rect fill="#fff" height="41.4393" rx="3.7125" stroke="#fff" stroke-width="1.06071" width="57.9393" x="1.53036" y="3.53036"/></mask><rect fill="#fff" height="41.4393" rx="3.7125" stroke="#f5f5f5" stroke-width="1.06071" width="57.9393" x="1.53036" y="3.53036"/><g clip-rule="evenodd" fill-rule="evenodd" mask="url(#a)"><path d="m60 8.66663h-30.9048v5.66657h30.9048zm-30.9048 11.33327v5.6667h30.9048v-5.6667zm0 11.3334h-28.0952v5.6666h59v-5.6666zm-28.0952 14.1667v-2.8334h59v2.8334z" fill="#0e4dc5"/><path d="m15.0477 22.8078-1.8755 2.8233-.4751-3.3644-2.90452 1.7231 1.01952-3.2391-3.35827.2816 2.31212-2.4723-3.14681-1.2157 3.14681-1.2158-2.31212-2.4723 3.35827.2816-1.01952-3.2391 2.90452 1.7231.4751-3.36443 1.8755 2.82343 1.8755-2.82343.4751 3.36443 2.9045-1.7231-1.0194 3.2391 3.3582-.2816-2.3121 2.4723 3.1468 1.2158-3.1468 1.2157 2.3121 2.4723-3.3582-.2816 1.0194 3.2391-2.9045-1.7231-.4751 3.3644zm0-.0544c2.9623 0 5.3636-2.4217 5.3636-5.4091 0-2.9873-2.4013-5.4091-5.3636-5.4091-2.9622 0-5.36363 2.4218-5.36363 5.4091 0 2.9874 2.40143 5.4091 5.36363 5.4091zm4.2143-5.5867c0 2.3472-1.8868 4.25-4.2143 4.25s-4.2143-1.9028-4.2143-4.25 1.8868-4.25 4.2143-4.25 4.2143 1.9028 4.2143 4.25z" fill="#fed443"/></g></svg>