<svg fill="none" height="53" viewBox="0 0 61 53" width="61" xmlns="http://www.w3.org/2000/svg" xmlns:xlink="http://www.w3.org/1999/xlink"><mask id="a" height="43" maskUnits="userSpaceOnUse" width="59" x="1" y="3"><rect fill="#fff" height="41.4393" rx="3.7125" stroke="#fff" stroke-width="1.06071" width="57.9393" x="1.53036" y="3.53036"/></mask><rect fill="#fff" height="41.4393" rx="3.7125" stroke="#f5f5f5" stroke-width="1.06071" width="57.9393" x="1.53036" y="3.53036"/><g clip-rule="evenodd" fill-rule="evenodd" mask="url(#a)"><path d="m1 17.1667h59v-14.1667h-59z" fill="#04aac8"/><path d="m1 45.5h59v-14.1666h-59z" fill="#23c840"/><path d="m10.8334 14.3334c.8666 0 1.6721-.2638 2.3419-.7161-.0776.0052-.1559.0078-.2348.0078-1.9395 0-3.51186-1.5857-3.51186-3.5417 0-1.95597 1.57236-3.54163 3.51186-3.54163.079 0 .1573.00263.235.0078-.6698-.45236-1.4754-.7162-2.3421-.7162-2.32746 0-4.21426 1.90279-4.21426 4.25003 0 2.3472 1.8868 4.25 4.21426 4.25zm7.0238-1.4167c0 .7824-.6289 1.4167-1.4047 1.4167-.7759 0-1.4048-.6343-1.4048-1.4167s.6289-1.4167 1.4048-1.4167c.7758 0 1.4047.6343 1.4047 1.4167zm4.2143-4.24999c.7758 0 1.4048-.63426 1.4048-1.41666 0-.78241-.629-1.41667-1.4048-1.41667s-1.4048.63426-1.4048 1.41667c0 .7824.629 1.41666 1.4048 1.41666zm7.0238-1.41666c0 .7824-.6289 1.41666-1.4047 1.41666-.7759 0-1.4048-.63426-1.4048-1.41666 0-.78241.6289-1.41667 1.4048-1.41667.7758 0 1.4047.63426 1.4047 1.41667zm-1.4047 7.08335c.7758 0 1.4047-.6343 1.4047-1.4167s-.6289-1.4167-1.4047-1.4167c-.7759 0-1.4048.6343-1.4048 1.4167s.6289 1.4167 1.4048 1.4167zm-4.2143-1.4167c0 .7824-.629 1.4167-1.4048 1.4167s-1.4048-.6343-1.4048-1.4167.629-1.4167 1.4048-1.4167 1.4048.6343 1.4048 1.4167z" fill="#fff"/></g></svg>