<svg fill="none" height="53" viewBox="0 0 61 53" width="61" xmlns="http://www.w3.org/2000/svg" xmlns:xlink="http://www.w3.org/1999/xlink"><mask id="a" height="43" maskUnits="userSpaceOnUse" width="59" x="1" y="3"><rect fill="#fff" height="42.5" rx="4.24286" width="59" x="1" y="3"/></mask><rect fill="#fff" height="42.5" rx="4.24286" width="59" x="1" y="3"/><g clip-rule="evenodd" fill-rule="evenodd" mask="url(#a)"><path d="m1 31.3334h59v-14.1667h-59z" fill="#063191"/><path d="m1 45.5h59v-14.1666h-59z" fill="#e2213b"/><path d="m30.5001 22.8333c.7758 0 1.4047-.6342 1.4047-1.4166s-.6289-1.4167-1.4047-1.4167c-.7759 0-1.4048.6343-1.4048 1.4167s.6289 1.4166 1.4048 1.4166zm-5.6191 1.4167c.7758 0 1.4048-.6343 1.4048-1.4167s-.629-1.4166-1.4048-1.4166-1.4048.6342-1.4048 1.4166.629 1.4167 1.4048 1.4167zm12.6429-1.4167c0 .7824-.629 1.4167-1.4048 1.4167s-1.4047-.6343-1.4047-1.4167.6289-1.4166 1.4047-1.4166 1.4048.6342 1.4048 1.4166zm-15.4524 5.6667c.7758 0 1.4048-.6343 1.4048-1.4167s-.629-1.4167-1.4048-1.4167-1.4048.6343-1.4048 1.4167.629 1.4167 1.4048 1.4167zm18.2619-1.4167c0 .7824-.6289 1.4167-1.4047 1.4167-.7759 0-1.4048-.6343-1.4048-1.4167s.6289-1.4167 1.4048-1.4167c.7758 0 1.4047.6343 1.4047 1.4167z" fill="#fff"/><path d="m1 17.1667h59v-14.1667h-59z" fill="#ffd044"/></g></svg>