<svg fill="none" height="53" viewBox="0 0 61 53" width="61" xmlns="http://www.w3.org/2000/svg" xmlns:xlink="http://www.w3.org/1999/xlink"><mask id="a" height="43" maskUnits="userSpaceOnUse" width="59" x="1" y="3"><rect fill="#fff" height="42.5" rx="4.24286" width="59" x="1" y="3"/></mask><mask id="b" height="21" maskUnits="userSpaceOnUse" width="15" x="37" y="14"><path clip-rule="evenodd" d="m37.5239 24.2499c0-2.326 0-5.0764 0-7.0899 0-1.5621 1.2664-2.8267 2.8286-2.8267h8.3905c1.5621 0 2.8285 1.2645 2.8285 2.8267v7.0899c0 7.0834-7.0238 9.9167-7.0238 9.9167s-7.0238-2.8333-7.0238-9.9167z" fill="#fff" fill-rule="evenodd"/></mask><rect fill="#fff" height="42.5" rx="4.24286" width="59" x="1" y="3"/><g mask="url(#a)"><path d="m1 3h59v42.5h-59z" fill="#07319c"/><path clip-rule="evenodd" d="m37.5239 24.2499c0-2.326 0-5.0764 0-7.0899 0-1.5621 1.2664-2.8267 2.8286-2.8267h8.3905c1.5621 0 2.8285 1.2645 2.8285 2.8267v7.0899c0 7.0834-7.0238 9.9167-7.0238 9.9167s-7.0238-2.8333-7.0238-9.9167z" fill="#008339" fill-rule="evenodd"/><g clip-rule="evenodd" fill-rule="evenodd" mask="url(#b)"><path d="m48.762 18.5833c0 .7824-.6289 1.4167-1.4048 1.4167-.7758 0-1.4047-.6343-1.4047-1.4167s.6289-1.4167 1.4047-1.4167c.7759 0 1.4048.6343 1.4048 1.4167zm-7.0237 1.4167c.7758 0 1.4047-.6343 1.4047-1.4167s-.6289-1.4166-1.4047-1.4166c-.7759 0-1.4048.6342-1.4048 1.4166s.6289 1.4167 1.4048 1.4167zm0 2.8333c.7758 0 1.4047-.6343 1.4047-1.4167s-.6289-1.4167-1.4047-1.4167c-.7759 0-1.4048.6343-1.4048 1.4167s.6289 1.4167 1.4048 1.4167zm1.4047 1.4166c0 .7813-.6271 1.4149-1.4015 1.4167.7744.0018 1.4015.6354 1.4015 1.4166 0 .7825-.6289 1.4167-1.4047 1.4167-.7759 0-1.4048-.6342-1.4048-1.4167 0-.7812.6272-1.4148 1.4015-1.4166-.7743-.0018-1.4015-.6354-1.4015-1.4167 0-.7824.6289-1.4166 1.4048-1.4166.7758 0 1.4047.6342 1.4047 1.4166zm5.619 2.8333c0 .7825-.6289 1.4167-1.4048 1.4167-.7758 0-1.4047-.6342-1.4047-1.4167 0-.7812.6271-1.4148 1.4015-1.4166-.7744-.0018-1.4015-.6354-1.4015-1.4167 0-.7824.6289-1.4166 1.4047-1.4166.7759 0 1.4048.6342 1.4048 1.4166 0 .7813-.6271 1.4149-1.4015 1.4167.7744.0018 1.4015.6354 1.4015 1.4166zm0-5.6666c0 .7824-.6289 1.4167-1.4048 1.4167-.7758 0-1.4047-.6343-1.4047-1.4167s.6289-1.4167 1.4047-1.4167c.7759 0 1.4048.6343 1.4048 1.4167z" fill="#ffd033"/><path d="m44.5476 27.0832c.7758 0 1.4047-1.9027 1.4047-4.2499 0-2.3473-.6289-4.25-1.4047-4.25s-1.4048 1.9027-1.4048 4.25c0 2.3472.629 4.2499 1.4048 4.2499z" fill="#fff"/></g><path d="m36.1191 31.3333c0 2.702 3.8376 4.25 8.4286 4.25 4.5911 0 8.4286-1.548 8.4286-4.25 0-.7824-.629-1.4167-1.4048-1.4167s-1.4047.6343-1.4047 1.4167c0 .0271-.3405.3518-1.1742.6881-1.1317.4565-2.726.7286-4.4449.7286-1.7188 0-3.3132-.2721-4.4449-.7286-.8336-.3363-1.1741-.661-1.1741-.6881 0-.7824-.629-1.4167-1.4048-1.4167s-1.4048.6343-1.4048 1.4167z" fill="#ffd033"/><path d="m1 2.29286h-1.899402l1.436963 1.24212 9.588639 8.28852v2.1477l-9.539515 6.8717-.293828.2116v.3622 1.4166 1.2816l1.084203-.6833 11.06534-6.9745h2.377l9.526 6.862c.1998.1439.4399.2214.6862.2214 1.0876 0 1.5906-1.3511.7678-2.0623l-8.6399-7.4683v-2.1478l9.2457-6.66c.369-.26579.5877-.6928.5877-1.14756v-1.05454-1.2816l-1.0842.68337-11.0653 6.97442h-2.3771l-9.64822-6.94997-.18514-.13336h-.22818z" fill="#db1e36" stroke="#fff" stroke-width="1.41429"/><g clip-rule="evenodd" fill-rule="evenodd"><path d="m1 10.0833v5.6667h9.8333v7.0857c0 .7811.6332 1.4143 1.4143 1.4143h2.7905c.7811 0 1.4143-.6332 1.4143-1.4143v-7.0857h9.8238c.7811 0 1.4143-.6332 1.4143-1.4143v-2.8381c0-.7811-.6332-1.4143-1.4143-1.4143h-9.8238v-7.0833h-5.6191v7.0833z" fill="#fff"/><path d="m1 11.5h11.2381v-1.4167-7.0833h2.8095v7.0833 1.4167h11.2381v2.8333h-11.2381v1.4167 7.0833h-2.8095v-7.0833-1.4167h-11.2381z" fill="#db1e36"/></g></g></svg>