<svg fill="none" height="53" viewBox="0 0 61 53" width="61" xmlns="http://www.w3.org/2000/svg" xmlns:xlink="http://www.w3.org/1999/xlink"><mask id="a" height="43" maskUnits="userSpaceOnUse" width="59" x="1" y="3"><rect fill="#fff" height="42.5" rx="4.24286" width="59" x="1" y="3"/></mask><rect fill="#fff" height="42.5" rx="4.24286" width="59" x="1" y="3"/><g mask="url(#a)"><path d="m1 3h59v42.5h-59z" fill="#e31f37"/><g clip-rule="evenodd" fill-rule="evenodd"><path d="m-1.80957 25.6666h33.71427v-25.499974h-33.71427z" fill="#083b9a"/><path d="m15.0475 8.6666-1.9866.5868.5819-2.00347-.5819-2.00347 1.9866.5868 1.9867-.5868-.5819 2.00347.5819 2.00347zm0 14.1666-1.9866.5868.5819-2.0035-.5819-2.0034 1.9866.5868 1.9867-.5868-.5819 2.0034.5819 2.0035zm-7.60561-6.4965 1.98664-.5868 1.98667.5868-.5819-2.0035.5819-2.0034-1.98667.5868-1.98664-.5868.58188 2.0034zm14.62951-2.0035-1.9866.5868.5818-2.0034-.5818-2.0035 1.9866.5868 1.9866-.5868-.5819 2.0035.5819 2.0034zm-2.8095 3.5417c0 .3912-.3145.7083-.7024.7083s-.7024-.3171-.7024-.7083.3145-.7084.7024-.7084.7024.3172.7024.7084z" fill="#fff"/></g></g></svg>