<svg fill="none" height="53" viewBox="0 0 61 53" width="61" xmlns="http://www.w3.org/2000/svg" xmlns:xlink="http://www.w3.org/1999/xlink"><mask id="a" height="43" maskUnits="userSpaceOnUse" width="59" x="1" y="3"><rect fill="#fff" height="42.5" rx="4.24286" width="59" x="1" y="3"/></mask><rect fill="#fff" height="42.5" rx="4.24286" width="59" x="1" y="3"/><g mask="url(#a)"><path d="m1 3h59v42.5h-59z" fill="#19bfbf"/><path clip-rule="evenodd" d="m30.5 39.8333c8.5341 0 15.4524-6.9769 15.4524-15.5833 0-8.6065-6.9183-15.58337-15.4524-15.58337s-15.4524 6.97687-15.4524 15.58337c0 8.6064 6.9183 15.5833 15.4524 15.5833zm12.5656-14.1666c-.5216 4.7582-3.6395 8.7272-7.8933 10.4343 1.3697-2.8135 2.1699-6.479 2.3241-10.4343zm-12.5656 11.3333c.2729 0 .5438-.0088.8124-.0259 1.9292-2.3044 3.1665-6.5282 3.3716-11.3074h-8.368c.2051 4.7792 1.4425 9.003 3.3717 11.3074.2685.0171.5394.0259.8123.0259zm-4.6722-.8989c-4.2539-1.7071-7.3719-5.6762-7.8935-10.4344h5.5694c.1541 3.9554.9543 7.6208 2.3241 10.4344zm.4882-13.2677h8.368c-.2051-4.7793-1.4425-9.0032-3.3717-11.3075-.2686-.0172-.5395-.0259-.8123-.0259-.2729 0-.5437.0087-.8122.0258-1.9293 2.3043-3.1667 6.5283-3.3718 11.3076zm-.4881-10.4346c-1.3698 2.8136-2.1701 6.4791-2.3242 10.4346h-5.5694c.5215-4.7583 3.6395-8.7275 7.8936-10.4346zm17.2378 10.4346h-5.5693c-.1542-3.9555-.9544-7.621-2.3242-10.4345 4.2539 1.7071 7.3719 5.6762 7.8935 10.4345z" fill="#fff" fill-rule="evenodd"/></g></svg>