<svg width="61" height="53" viewBox="0 0 61 53" fill="none" xmlns="http://www.w3.org/2000/svg">
<rect x="1" y="3" width="59" height="42.5" rx="4.24286" fill="#009F60"/>
<mask id="mask0" mask-type="alpha" maskUnits="userSpaceOnUse" x="1" y="3" width="59" height="43">
<rect x="1" y="3" width="59" height="42.5" rx="4.24286" fill="white"/>
</mask>
<g mask="url(#mask0)">
<rect x="51.5713" y="25.6666" width="8.42857" height="19.8333" fill="#EA8B42"/>
<path fill-rule="evenodd" clip-rule="evenodd" d="M43.1431 45.5H51.5716V25.6666H43.1431V45.5Z" fill="#1A1919"/>
<path fill-rule="evenodd" clip-rule="evenodd" d="M34.7144 45.5H43.1429V25.6666H34.7144V45.5Z" fill="#DB3C36"/>
<path fill-rule="evenodd" clip-rule="evenodd" d="M45.2796 10.4037C45.0859 10.4092 44.9436 10.3416 44.8927 10.2279C45.2084 10.041 45.4219 10.0827 45.6867 10.3207C45.7376 10.1346 45.6867 9.92735 45.5747 9.80304C45.4627 9.67874 45.371 9.67874 45.2185 9.66814C45.0657 9.6579 44.9129 9.61659 44.8111 9.61659C44.6619 9.285 44.288 9.42539 43.9289 9.56139C43.3452 9.78221 42.8207 10.1833 42.5852 10.5836C42.4775 10.7667 42.4645 10.8388 42.3984 10.9426C42.453 10.9356 42.4494 10.9356 42.4833 10.9148C42.4425 11.3707 42.3883 11.7919 42.4696 12.0613C42.3681 12.455 42.4494 12.7036 42.5715 12.8279C42.6939 12.9522 42.7445 13.0042 42.7651 13.1493C42.7853 13.2941 42.8464 13.4286 42.9482 13.5116C43.0501 13.5946 43.1111 13.7189 43.1212 13.7916C43.1314 13.864 43.4463 14.1762 43.5793 14.2578C43.6302 14.2885 43.6403 14.351 43.7017 14.4336C43.5692 15.2211 44.0987 16.0086 43.9763 16.7855C44.068 16.7957 44.1901 16.7855 44.3126 16.7544C44.4141 17.4172 44.4751 17.7386 43.9051 17.9353C43.3351 18.1323 43.0234 18.3261 43.1823 18.5465C43.2943 18.7019 43.5262 18.5666 43.671 18.4325C43.783 18.329 43.9152 18.2358 44.0171 18.2047C44.1189 18.1736 44.1395 18.2047 44.0882 18.3392C44.0373 18.4741 43.7628 18.7641 43.7523 18.9092C43.7422 19.0543 43.8643 19.1578 44.0579 19.0437C44.2512 18.9297 44.4213 18.6313 44.465 18.4533C44.4953 18.329 44.5466 18.246 44.5362 18.4533C44.526 18.6606 44.404 19.0335 44.6788 19.0956C44.9537 19.1578 45.0354 18.8262 44.9436 18.5257C44.8519 18.2255 44.8215 18.0596 44.862 17.9561C44.9028 17.8523 44.9436 17.7905 45.0451 17.8212C45.147 17.8523 45.3507 17.811 45.3406 17.6453C45.3301 17.4797 45.1878 17.3448 45.0249 17.4381C44.862 17.5313 44.7399 17.5174 44.8111 17.3138C44.862 17.1686 44.9537 16.9924 44.9639 16.8787C45.0758 17.0443 45.7069 17.0652 45.9616 16.9098C46.0226 17.2205 46.1855 17.5002 45.8293 17.7905C45.4728 18.0804 45.1878 18.3601 45.1979 18.5674C45.2084 18.7747 45.2897 18.8986 45.4728 18.7951C45.656 18.6917 45.7679 18.5465 45.8088 18.412C45.8496 18.2771 45.9312 18.2771 45.8904 18.4431C45.8496 18.6087 45.7784 18.847 45.8088 18.9922C45.8395 19.137 46.0634 19.1476 46.1548 19.0127C46.2466 18.8781 46.226 18.7019 46.2057 18.5257C46.1855 18.3495 46.2162 18.1634 46.2567 18.0906C46.2975 18.0182 46.3788 17.9144 46.4604 18.1115C46.542 18.3082 46.5825 18.4635 46.7454 18.5155C46.9083 18.5674 47.0304 18.4946 47.0001 18.2979C46.9694 18.1012 46.7555 17.8833 46.542 17.7177C46.3282 17.5521 46.3994 17.4691 46.4095 17.3138C46.4196 17.1584 46.3892 16.8787 46.3788 16.7544C46.5724 16.8995 46.7862 16.8787 46.8877 16.8787C46.9896 16.8787 47.1568 16.8469 46.9896 16.6922C46.6537 16.3815 46.7656 16.1947 46.5316 15.9669C46.2975 15.7392 46.0836 15.3867 46.0125 15.0866C45.941 14.7861 45.7842 14.2369 45.4728 13.9573C45.2998 13.8019 45.2489 13.3771 45.2897 12.8901C45.3301 12.4031 45.3406 11.8646 44.9028 11.616C44.465 11.3674 44.4751 11.1601 44.6178 10.9426C44.7601 10.7251 44.9433 10.5123 45.1777 10.4969C45.2304 10.4936 45.3522 10.4834 45.4017 10.4469C45.3796 10.4297 45.3439 10.4022 45.2796 10.4037" fill="#EA8B42"/>
<path fill-rule="evenodd" clip-rule="evenodd" d="M42.4327 11.5227C42.4219 11.7332 42.4269 11.9186 42.4699 12.0612C42.3684 12.4549 42.4497 12.7035 42.5718 12.8278C42.6942 12.9521 42.7448 13.004 42.7654 13.1492C42.7856 13.2939 42.8467 13.4285 42.9485 13.5115C43.0504 13.5945 43.1115 13.7188 43.1216 13.7915C43.1317 13.8639 43.4467 14.1761 43.5796 14.2576C43.6305 14.2884 43.6406 14.3509 43.7021 14.4335C43.6468 14.7607 43.7049 15.0879 43.7844 15.4144C43.0649 16.022 42.3547 15.7354 42.6534 15.1139C42.056 15.5972 41.0247 15.5836 41.2555 15.1139C40.3188 15.4455 40.0338 15.1691 40.1559 14.8653C39.3688 15.183 38.9613 14.8792 39.0701 14.658C38.4184 14.8375 37.9976 14.7271 37.9297 14.6167C37.8621 14.5062 38.0247 14.2576 38.1742 14.1333C37.8755 14.2438 37.5905 14.2438 37.3189 14.2024C37.0476 14.1608 37.1155 14.0778 37.1697 13.9535C37.2242 13.8292 37.2954 13.6325 37.5125 13.4391C36.9934 13.5425 36.3417 13.6153 35.8837 13.4596C35.7974 13.4303 35.6496 13.3974 35.741 13.3045C35.8328 13.2113 36.1077 12.9832 36.4436 12.8381C35.68 12.9521 34.2344 13.0351 33.8273 12.569C34.2242 12.6516 34.7332 12.486 35.059 12.3515C33.7763 12.2063 32.0255 11.3154 32.0049 10.4453C32.3715 11.0459 33.0029 11.2532 33.634 11.4397C32.7786 10.9319 32.4225 10.3206 32.3921 9.91661C32.8805 10.3933 33.6235 10.9319 34.3568 11.0565C33.8374 10.7768 33.1655 9.95829 32.9824 9.38833C33.3591 9.73016 34.3261 10.2793 34.9879 10.4555C34.5298 10.0928 33.7868 9.23296 33.8273 8.75659C34.0003 8.93281 34.428 9.26403 35.3032 9.78208C36.1788 10.3001 36.6538 10.2621 37.3767 10.4175C37.2444 10.238 37.1256 9.9996 37.1155 9.93745C37.3293 9.96853 37.5327 10.0515 38.1435 10.4347C38.7544 10.8182 40.0891 10.9355 40.8516 11.2741C41.4112 11.5227 42.2088 11.3673 42.4327 11.5227" fill="#EA8B42"/>
<path fill-rule="evenodd" clip-rule="evenodd" d="M47.0399 16.8432C47.0735 16.8161 47.0735 16.7693 46.9897 16.6922C46.6537 16.3814 46.7657 16.1946 46.5316 15.9669C46.2976 15.7391 46.0837 15.3867 46.0126 15.0865C45.941 14.786 45.7843 14.2369 45.4729 13.9572C45.2999 13.8018 45.2489 13.377 45.2898 12.89C45.3244 12.4733 45.3371 12.0188 45.0654 11.7406C45.5744 11.5955 46.0433 11.564 46.2058 11.7297C47.0507 11.5121 47.784 11.4463 48.5032 11.3984C49.3311 11.3429 50.892 10.9839 52.0053 10.2242C51.9374 10.5005 51.5574 10.9148 51.2178 11.122C52.3445 10.8457 53.7019 10.3346 54.8557 9.46446C54.842 10.0724 54.3536 10.528 54.0682 10.7769C54.8557 10.3346 56.0091 9.78215 56.4028 9.09155C56.5758 9.79934 55.3986 10.725 54.7603 11.2361C55.412 10.9184 56.2536 10.6248 56.5795 10.1551C56.5726 10.7283 55.8328 11.4397 55.127 11.854C55.8465 11.5779 56.6474 11.2877 57.1087 10.8596C57.1628 11.4365 54.9572 12.7625 53.8645 13.1248C54.8149 12.89 56.0499 12.5723 56.5928 12.2408C56.5657 12.3581 56.3443 12.5226 56.1832 12.6425C55.5193 13.1376 54.501 13.4033 53.8782 13.5254C53.9599 13.8709 53.8511 14.0643 53.4711 14.0917C53.0911 14.1195 52.1714 13.9711 51.7102 13.736C51.6422 13.7773 51.5606 13.7916 51.4689 13.8018C51.9168 14.1437 52.0696 14.3923 51.9778 14.5374C51.8864 14.6825 51.5657 14.6562 51.3215 14.6047C51.5147 15.1538 50.8681 15.1176 50.3288 14.8065C50.5427 15.0865 50.5734 15.3245 50.2779 15.3867C49.9828 15.4488 49.7483 15.4283 49.4633 15.2415C49.4431 15.4488 49.2462 15.587 48.9851 15.5179C49.8809 16.067 49.83 16.2674 49.6772 16.4743C49.5247 16.6816 48.9901 16.6403 48.7051 16.4538C48.583 16.8787 48.0961 16.8801 47.7327 16.5419C47.7295 16.7112 47.3827 17.0472 47.0399 16.8432" fill="#EA8B42"/>
<path fill-rule="evenodd" clip-rule="evenodd" d="M42.8841 18.9264C42.899 18.7955 42.9112 18.6434 43.0196 18.5466C43.1283 18.4497 43.1962 18.3671 43.2912 18.4636C43.3862 18.5604 43.3252 18.6504 43.1962 18.6917C43.0673 18.733 42.9791 18.8504 42.9586 18.9264C42.9383 19.0024 42.8704 19.0438 42.8841 18.9264" fill="black"/>
<path fill-rule="evenodd" clip-rule="evenodd" d="M43.6236 19.5617C43.5564 19.3446 43.59 19.0645 43.6645 18.9815C43.7392 18.8986 43.8342 18.8434 43.9224 18.9263C44.0105 19.0093 44.0445 19.1267 43.8815 19.1958C43.7374 19.2568 43.7255 19.4097 43.719 19.5204C43.7121 19.6308 43.6645 19.693 43.6236 19.5617" fill="black"/>
<path fill-rule="evenodd" clip-rule="evenodd" d="M44.5737 19.0023C44.5213 19.0912 44.587 19.4513 44.7637 19.5409C44.8886 19.6045 44.9468 19.5895 44.872 19.4718C44.7976 19.3544 44.8247 19.244 44.8655 19.1818C44.906 19.1197 44.8995 19.0093 44.811 18.9541C44.7228 18.8985 44.6141 18.9332 44.5737 19.0023" fill="black"/>
<path fill-rule="evenodd" clip-rule="evenodd" d="M45.3407 18.6777C45.2288 18.5921 45.1236 18.6949 45.0828 18.7673C45.0012 18.9124 45.0626 19.1197 45.1916 19.237C45.3205 19.3544 45.2999 19.1957 45.2591 19.1266C45.2186 19.0575 45.2118 18.9193 45.2999 18.9054C45.3881 18.8919 45.4495 18.7603 45.3407 18.6777" fill="black"/>
<path fill-rule="evenodd" clip-rule="evenodd" d="M45.9788 18.9124C45.8697 18.8799 45.7617 18.9954 45.7751 19.1336C45.7852 19.2367 45.7956 19.3683 45.8971 19.4374C45.9654 19.4835 46.0127 19.5134 45.9788 19.3891C45.9448 19.2648 45.9994 19.161 46.0601 19.1266C46.1211 19.0923 46.094 18.9471 45.9788 18.9124" fill="black"/>
<path fill-rule="evenodd" clip-rule="evenodd" d="M46.8814 18.3252C46.8023 18.3815 46.8067 18.512 46.8814 18.5603C46.9559 18.6085 47.0646 18.6776 47.0444 18.795C47.0238 18.9123 47.0848 18.954 47.1394 18.8228C47.1935 18.6915 47.2004 18.4981 47.1394 18.4082C47.078 18.3182 46.949 18.2769 46.8814 18.3252" fill="black"/>
<path fill-rule="evenodd" clip-rule="evenodd" d="M44.9132 10.2183C44.9604 10.3237 45.0957 10.386 45.2789 10.3808L45.279 10.3808C45.3372 10.3794 45.3725 10.3952 45.4149 10.4652C45.3702 10.4983 45.2859 10.513 45.1791 10.5196C44.9846 10.5324 44.8146 10.683 44.6365 10.9551C44.4762 11.1996 44.5323 11.3794 44.9138 11.596C45.2929 11.8112 45.3707 12.1862 45.3121 12.8919C45.2691 13.4047 45.331 13.7994 45.4877 13.9401C45.747 14.173 45.914 14.5754 46.0344 15.0811C46.1031 15.3708 46.311 15.7205 46.5472 15.9503C46.6027 16.0044 46.6423 16.0588 46.6741 16.121C46.6923 16.1567 46.7056 16.189 46.7272 16.2469C46.8017 16.4468 46.852 16.5339 47.0048 16.6753C47.0895 16.7536 47.106 16.8188 47.0536 16.8612C47.0191 16.8892 46.9569 16.9014 46.8877 16.9014C46.8704 16.9016 46.8704 16.9016 46.8501 16.902C46.6858 16.905 46.5799 16.8914 46.4582 16.8303C46.4403 16.8212 46.4227 16.8113 46.4055 16.8004C46.4063 16.8092 46.4071 16.8186 46.408 16.8281C46.4111 16.8625 46.4144 16.8989 46.4159 16.9157C46.4203 16.967 46.4239 17.0125 46.4267 17.0559C46.4339 17.1646 46.4361 17.2514 46.4319 17.3152C46.4304 17.3393 46.4277 17.3604 46.4226 17.3935C46.4131 17.4548 46.4112 17.4715 46.4131 17.4982C46.4175 17.5635 46.4558 17.6221 46.5557 17.6995C46.8173 17.9025 46.9939 18.1122 47.0223 18.2943C47.0539 18.499 46.9266 18.5971 46.7386 18.5371C46.6235 18.5005 46.5642 18.4245 46.4959 18.2599C46.4922 18.2508 46.4823 18.2263 46.4717 18.1998C46.4591 18.1685 46.4455 18.1346 46.4395 18.1202C46.4062 18.0399 46.3761 18.0141 46.3494 18.0219C46.3265 18.0285 46.301 18.0579 46.2763 18.1017C46.2344 18.1771 46.2098 18.3638 46.2281 18.523L46.2283 18.5246C46.2592 18.7938 46.2539 18.9074 46.1734 19.0255C46.0712 19.1762 45.8218 19.1626 45.7866 18.9968C45.7706 18.92 45.7795 18.8185 45.8082 18.6839C45.8161 18.6468 45.8252 18.6084 45.8371 18.5612C45.8382 18.5568 45.8413 18.5444 45.8453 18.5289C45.8533 18.4974 45.8646 18.453 45.8684 18.4374C45.8841 18.3736 45.8798 18.3378 45.876 18.3371C45.8696 18.3358 45.8462 18.3659 45.8303 18.4186C45.7846 18.5692 45.6612 18.7148 45.4838 18.815C45.2966 18.9207 45.1877 18.8131 45.1753 18.5684C45.1658 18.3734 45.3801 18.1264 45.8151 17.7726C45.8996 17.7037 45.9564 17.6338 45.9901 17.5606C46.0511 17.428 46.0422 17.3262 45.9752 17.0661C45.9614 17.0125 45.9528 16.9776 45.9456 16.9447C45.6885 17.0775 45.1503 17.0661 44.9792 16.9276C44.9675 16.9822 44.9424 17.0487 44.8918 17.1705L44.8916 17.1711C44.8598 17.2475 44.8462 17.2816 44.8323 17.3213C44.802 17.4078 44.8084 17.4535 44.8386 17.466C44.8714 17.4794 44.9356 17.4628 45.0137 17.4181C45.182 17.3218 45.3507 17.4479 45.3631 17.6438C45.373 17.8061 45.1853 17.8877 45.0386 17.843C44.9624 17.8199 44.9277 17.8504 44.8829 17.9644C44.8469 18.0564 44.8699 18.2074 44.9651 18.5188C45.0712 18.8664 44.9506 19.1804 44.6739 19.1178C44.5045 19.0796 44.4602 18.9441 44.4839 18.7071C44.4868 18.6778 44.4903 18.6497 44.4962 18.6059C44.5092 18.5101 44.5118 18.4883 44.5136 18.452C44.5152 18.4187 44.5153 18.3923 44.514 18.3733C44.5054 18.3938 44.4952 18.4245 44.4868 18.4587C44.4346 18.6716 44.2491 18.9572 44.0692 19.0634C43.876 19.1772 43.7171 19.0888 43.7297 18.9074C43.7345 18.8407 43.7817 18.7557 43.8789 18.618L43.9058 18.5802C44.0289 18.4084 44.0493 18.3782 44.0671 18.3309C44.1119 18.2135 44.1053 18.2015 44.0235 18.2265C43.9317 18.2545 43.8048 18.3397 43.6862 18.4492C43.485 18.6356 43.2717 18.7094 43.164 18.5599C43.0787 18.4416 43.1139 18.3248 43.2565 18.2139C43.382 18.1163 43.5933 18.0188 43.8978 17.9135C44.3802 17.7471 44.4172 17.5869 44.318 16.7765C44.1954 16.8076 44.0702 16.8189 43.9539 16.7818C44.0039 16.4649 43.9647 16.2102 43.8156 15.6282C43.6631 15.0329 43.623 14.7647 43.6836 14.4473C43.6678 14.426 43.6545 14.4051 43.6407 14.3808C43.6385 14.3769 43.6335 14.3677 43.6281 14.358C43.6214 14.3457 43.6141 14.3324 43.6114 14.3278C43.5962 14.3015 43.5841 14.2872 43.5675 14.2772C43.4229 14.1885 43.1098 13.8733 43.0988 13.7947C43.0878 13.7154 43.0212 13.6003 42.934 13.5293C42.8315 13.4458 42.7646 13.3098 42.7427 13.1524C42.7252 13.0296 42.6994 12.9902 42.5554 12.844C42.4048 12.6906 42.355 12.4149 42.4479 12.0679C42.3852 11.8598 42.391 11.6595 42.4496 11.0345L42.4569 10.9551C42.4503 10.9574 42.4431 10.9591 42.4335 10.9607C42.4278 10.9616 42.4245 10.9621 42.4212 10.9625C42.4166 10.9632 42.4121 10.9638 42.4012 10.9652L42.3794 10.9301C42.3928 10.909 42.4046 10.8884 42.4162 10.8658C42.4259 10.8465 42.426 10.8463 42.4353 10.8269C42.4341 10.8293 42.4724 10.7471 42.4857 10.7198C42.5091 10.6723 42.5343 10.6253 42.5657 10.5718C42.8049 10.1653 43.3347 9.76167 43.921 9.53989C44.4766 9.32945 44.6998 9.3143 44.811 9.59364C44.8601 9.59364 44.8849 9.5971 45.0293 9.62085C45.1119 9.63443 45.1648 9.64155 45.22 9.64525L45.2548 9.64761C45.385 9.65648 45.4395 9.66821 45.5055 9.71178C45.5345 9.7309 45.5626 9.75571 45.5913 9.78755C45.7115 9.92094 45.7601 10.1375 45.7084 10.3267L45.6716 10.3377C45.4053 10.0983 45.202 10.0712 44.9132 10.2183ZM45.388 10.4648C45.3525 10.4371 45.3262 10.4253 45.2802 10.4264L45.2803 10.4264C45.0807 10.432 44.9281 10.3618 44.8814 10.2079C45.186 10.0277 45.406 10.0495 45.6734 10.2786C45.671 10.2906 45.6682 10.3026 45.665 10.3144L45.7017 10.3034C45.6922 10.2949 45.6828 10.2866 45.6734 10.2786C45.7063 10.1133 45.6602 9.93162 45.5581 9.81824C45.5319 9.78914 45.5066 9.76687 45.481 9.74996C45.4234 9.71194 45.3748 9.70148 45.2519 9.69311L45.2171 9.69074C45.1602 9.68693 45.1062 9.67966 45.0222 9.66586C44.996 9.66155 44.9739 9.65793 44.9547 9.6548C44.8707 9.64107 44.8443 9.63676 44.7906 9.62586C44.6741 9.36703 44.4694 9.38091 43.9369 9.58259C43.3596 9.80098 42.8381 10.1983 42.6047 10.5951C42.5738 10.6475 42.5492 10.6936 42.5263 10.74C42.5128 10.7677 42.4726 10.8542 42.4764 10.846C42.4667 10.8665 42.4667 10.8665 42.4564 10.8868L42.4564 10.8868C42.4521 10.8952 42.4477 10.9034 42.4433 10.9114C42.4391 10.913 42.4343 10.9142 42.4264 10.9155C42.4216 10.9162 42.4186 10.9167 42.4157 10.9171C42.4113 10.9177 42.4069 10.9183 42.3957 10.9197L42.4175 10.9548C42.4267 10.9403 42.4352 10.9261 42.4433 10.9114C42.4441 10.9111 42.4449 10.9107 42.4457 10.9104C42.4504 10.9082 42.4545 10.9058 42.4717 10.8951L42.5059 10.9167L42.4947 11.0387C42.4369 11.6558 42.4311 11.8548 42.4915 12.0669C42.4026 12.4118 42.4494 12.6709 42.5875 12.8116C42.7379 12.9642 42.7684 13.0108 42.7875 13.1459C42.808 13.2925 42.8697 13.418 42.9625 13.4936C43.0584 13.5718 43.131 13.6972 43.1437 13.7883C43.1521 13.8487 43.4573 14.156 43.5909 14.2379C43.6151 14.2525 43.6318 14.2723 43.6505 14.3046C43.6535 14.3097 43.6613 14.324 43.6683 14.3367C43.6734 14.346 43.6781 14.3544 43.6801 14.358C43.6834 14.364 43.6868 14.3697 43.6903 14.3756C43.6999 14.3921 43.7102 14.4099 43.7241 14.4373C43.6691 14.7637 43.7086 15.0276 43.8595 15.6167C44.0101 16.2048 44.0499 16.4636 43.9788 16.7626C44.0625 16.7719 44.1708 16.7635 44.301 16.7533C44.3121 16.7525 44.3235 16.7516 44.335 16.7507C44.4649 17.5995 44.4232 17.7805 43.9125 17.9567C43.6124 18.0604 43.4047 18.1562 43.2842 18.25C43.1591 18.3474 43.1319 18.4375 43.2006 18.5329C43.2851 18.6501 43.4725 18.5852 43.6559 18.4154C43.779 18.3016 43.9111 18.213 44.0107 18.1826C44.1355 18.1445 44.1658 18.1992 44.1094 18.3472C44.0894 18.4003 44.07 18.4291 43.9425 18.6069L43.9158 18.6445C43.8241 18.7744 43.7789 18.8559 43.7749 18.9106C43.7649 19.0538 43.8836 19.1198 44.0466 19.0238C44.215 18.9244 44.3937 18.6493 44.4432 18.4476C44.4603 18.3775 44.4818 18.3244 44.5034 18.3098C44.53 18.2918 44.5497 18.3118 44.556 18.3437C44.5604 18.3665 44.5614 18.403 44.5588 18.4542C44.5569 18.4924 44.5543 18.5145 44.5411 18.612C44.5352 18.6553 44.5318 18.683 44.5289 18.7116C44.5073 18.9283 44.5444 19.0416 44.6839 19.0732C44.9148 19.1254 45.0198 18.8521 44.9221 18.5322C44.8237 18.2103 44.7998 18.0531 44.8411 17.9475C44.8935 17.8142 44.9468 17.7674 45.0517 17.7991C45.1727 17.836 45.3257 17.7695 45.3182 17.6466C45.3077 17.4813 45.172 17.38 45.0361 17.4577C44.947 17.5087 44.871 17.5285 44.8218 17.5082C44.7626 17.4838 44.7526 17.4125 44.7899 17.3059C44.8042 17.2651 44.818 17.2305 44.8501 17.1533L44.8503 17.1527C44.9138 16.9997 44.9361 16.9362 44.9415 16.8765L44.9826 16.8656C45.0868 17.0198 45.705 17.0395 45.95 16.89L45.9838 16.9051C45.9921 16.9476 46.0012 16.9852 46.019 17.0544C46.0887 17.3248 46.0982 17.4341 46.0312 17.5798C45.9944 17.6597 45.9332 17.7351 45.8436 17.8081C45.4216 18.1512 45.2121 18.3928 45.2206 18.566C45.2315 18.7818 45.3109 18.8603 45.4619 18.775C45.6295 18.6803 45.7451 18.5439 45.7873 18.4051C45.8094 18.332 45.8462 18.2848 45.8844 18.292C45.9267 18.3001 45.934 18.3605 45.9124 18.4484C45.9085 18.4641 45.8971 18.5088 45.8891 18.5404C45.8852 18.5558 45.882 18.5681 45.881 18.5724C45.8692 18.6191 45.8603 18.657 45.8525 18.6934C45.825 18.8222 45.8166 18.9185 45.8309 18.9872C45.8568 19.1094 46.0546 19.1202 46.1363 18.9995C46.2082 18.8941 46.2132 18.7876 46.1836 18.5298L46.1834 18.5281C46.1641 18.3602 46.1899 18.1641 46.2372 18.0791C46.2675 18.0253 46.2991 17.9889 46.3371 17.9779C46.3917 17.962 46.4403 18.0034 46.4813 18.1024C46.4874 18.1171 46.5013 18.1516 46.5139 18.183C46.5244 18.2092 46.5341 18.2333 46.5377 18.2421C46.6013 18.3955 46.6531 18.4619 46.7523 18.4935C46.9097 18.5436 47.004 18.4709 46.9779 18.3013C46.9518 18.1344 46.7814 17.9319 46.5284 17.7357C46.4191 17.651 46.3737 17.5814 46.3682 17.5012C46.366 17.4698 46.368 17.4514 46.3781 17.3863C46.3831 17.3544 46.3856 17.3345 46.387 17.3121C46.391 17.2508 46.3889 17.1657 46.3818 17.0588C46.379 17.0158 46.3754 16.9706 46.371 16.9196C46.3696 16.9029 46.3663 16.8668 46.3632 16.8325C46.3601 16.7984 46.3572 16.7661 46.3564 16.7561L46.3923 16.7358C46.4199 16.7565 46.4486 16.7742 46.4785 16.7892C46.592 16.8463 46.6918 16.8591 46.8494 16.8562C46.8697 16.8558 46.8698 16.8558 46.8877 16.8557L46.8878 16.8557C46.9474 16.8557 47.0014 16.845 47.0256 16.8254C47.0503 16.8054 47.0416 16.771 46.9745 16.7089C46.8155 16.5618 46.7619 16.4689 46.6851 16.2629C46.6641 16.2066 46.6514 16.1756 46.6341 16.1418C46.6046 16.0841 46.5679 16.0337 46.516 15.9832C46.2738 15.7475 46.0614 15.3902 45.9906 15.0917C45.8723 14.5947 45.7081 14.1988 45.4579 13.9742C45.2869 13.8205 45.2231 13.4144 45.2673 12.888C45.3245 12.1991 45.2497 11.839 44.8918 11.6357C44.4886 11.4068 44.4234 11.1976 44.5991 10.9298C44.7843 10.6467 44.9635 10.4879 45.1764 10.4739C45.207 10.472 45.236 10.4693 45.2624 10.4668C45.3195 10.4615 45.3645 10.4573 45.388 10.4648Z" fill="black"/>
<path fill-rule="evenodd" clip-rule="evenodd" d="M41.8824 11.4146C42.2305 11.427 42.3571 11.4428 42.4451 11.5038L42.4549 11.5238C42.4428 11.7582 42.4527 11.9269 42.4914 12.0669C42.4025 12.4119 42.4492 12.671 42.5874 12.8117C42.7377 12.9643 42.7682 13.0109 42.7874 13.146C42.8079 13.2926 42.8695 13.4181 42.9623 13.4937C43.0582 13.5718 43.1309 13.6973 43.1435 13.7883C43.152 13.8488 43.4572 14.1561 43.5908 14.238C43.615 14.2526 43.6316 14.2723 43.6504 14.3046C43.6534 14.3098 43.6612 14.324 43.6681 14.3367C43.6732 14.346 43.6779 14.3545 43.6799 14.358C43.6833 14.364 43.6866 14.3697 43.6901 14.3756C43.6997 14.3922 43.7101 14.4099 43.7239 14.4373C43.6763 14.7191 43.7066 15.0006 43.7985 15.4319C43.4579 15.7195 43.0899 15.8298 42.8299 15.7468C42.5942 15.6717 42.5015 15.4541 42.5993 15.1832C42.3221 15.3806 41.9539 15.4958 41.6433 15.4941C41.3235 15.4923 41.143 15.3634 41.2147 15.152C40.442 15.4136 40.0121 15.2654 40.118 14.9044C39.4784 15.1449 38.9485 14.9781 39.0323 14.6916C38.4832 14.8337 38.0053 14.7835 37.9101 14.6287C37.8508 14.5318 37.9431 14.3359 38.0832 14.1875C37.8405 14.2594 37.5932 14.2673 37.3151 14.225C37.1841 14.2049 37.1192 14.1739 37.1018 14.1209C37.0885 14.0806 37.0926 14.0684 37.1424 13.9583L37.1487 13.9442C37.1485 13.9446 37.1813 13.8683 37.1925 13.8434C37.2122 13.7998 37.2316 13.761 37.2535 13.7223C37.3035 13.6343 37.3636 13.5533 37.4397 13.4764C36.8047 13.5962 36.2629 13.6127 35.8762 13.4812C35.8714 13.4796 35.8583 13.4754 35.8455 13.4712C35.834 13.4675 35.8228 13.4639 35.8182 13.4624C35.7642 13.4443 35.731 13.4285 35.7099 13.4063C35.6781 13.3728 35.6829 13.3308 35.7247 13.2884C35.8482 13.1629 36.0665 13.0016 36.2988 12.8815C35.1966 13.028 34.1418 12.9641 33.81 12.5841L33.8314 12.5466C34.1407 12.611 34.5385 12.5313 34.9682 12.3632C33.5609 12.1737 32.001 11.2494 31.9819 10.4458L32.0237 10.4332C32.3092 10.9009 32.6901 11.1235 33.475 11.3678C32.7956 10.9246 32.4035 10.374 32.3692 9.91834L32.4074 9.90016C32.9624 10.4419 33.6235 10.865 34.2306 11.0077C33.7278 10.6778 33.1326 9.93106 32.9605 9.39539L32.997 9.37131C33.3806 9.71932 34.2704 10.2109 34.8872 10.4027C34.3256 9.927 33.7701 9.15833 33.8044 8.75463L33.8429 8.74048C34.0574 8.95898 34.5499 9.30993 35.3142 9.76234C35.7878 10.0425 36.1487 10.1712 36.624 10.2598C36.6913 10.2723 36.7563 10.2835 36.8587 10.3004C37.1113 10.3421 37.2045 10.3582 37.3241 10.3831C37.2133 10.2215 37.1041 10.0106 37.0928 9.94116L37.1183 9.91483C37.3558 9.94934 37.5828 10.0563 38.1551 10.4152C38.4308 10.5883 38.7678 10.6901 39.5857 10.882L39.6234 10.8908C40.2835 11.0457 40.5768 11.1273 40.8603 11.2531C41.0082 11.3188 41.181 11.3599 41.3871 11.3839C41.5265 11.4001 41.6273 11.4056 41.8824 11.4146ZM42.4091 11.5346C42.4093 11.5302 42.4095 11.5258 42.4097 11.5214L42.4195 11.5415C42.4161 11.5391 42.4127 11.5368 42.4091 11.5346ZM33.8939 12.6036C34.2225 12.6484 34.6308 12.5527 35.0671 12.3726L35.0611 12.3287C33.706 12.1754 32.1693 11.3053 32.0362 10.5366C32.344 10.9932 32.7677 11.2076 33.6273 11.4616L33.645 11.4199C32.9196 10.9893 32.488 10.436 32.421 9.97647C33.0127 10.5415 33.7169 10.9709 34.3527 11.079L34.367 11.0363C33.8781 10.7731 33.2472 10.0217 33.0319 9.46172C33.4743 9.8304 34.3893 10.3198 34.9817 10.4775L35.0014 10.4375C34.4467 9.99825 33.8642 9.22776 33.8483 8.80949C34.0826 9.03273 34.5651 9.37187 35.2914 9.80175C35.7698 10.0848 36.1355 10.2152 36.6158 10.3047C36.6834 10.3173 36.7487 10.3285 36.8514 10.3455C37.1415 10.3934 37.2206 10.4073 37.3715 10.4398L37.3943 10.4038C37.2912 10.2638 37.1794 10.059 37.1463 9.96559C37.3646 10.0045 37.5924 10.116 38.1312 10.454C38.413 10.6309 38.7519 10.7332 39.5754 10.9264L39.6132 10.9353C40.2703 11.0895 40.5622 11.1707 40.8421 11.2949C40.9947 11.3627 41.1717 11.4048 41.3819 11.4292C41.5229 11.4456 41.6244 11.4511 41.8808 11.4603C42.2021 11.4717 42.3308 11.4864 42.4091 11.5346C42.3978 11.7671 42.4083 11.9364 42.4479 12.0678C42.355 12.4148 42.4047 12.6905 42.5553 12.8439C42.6994 12.9901 42.7252 13.0295 42.7426 13.1524C42.7646 13.3097 42.8315 13.4457 42.934 13.5292C43.0211 13.6002 43.0878 13.7154 43.0988 13.7947C43.1098 13.8732 43.4228 14.1884 43.5675 14.2771C43.5841 14.2871 43.5962 14.3015 43.6114 14.3277C43.6141 14.3324 43.6213 14.3456 43.6281 14.3579C43.6334 14.3676 43.6385 14.3768 43.6407 14.3807C43.6544 14.405 43.6678 14.4259 43.6836 14.4472C43.6305 14.719 43.6613 15.0059 43.7621 15.4198C43.4398 15.6752 43.0871 15.7809 42.8434 15.7032C42.6131 15.6297 42.537 15.4073 42.6733 15.1238L42.6389 15.096C42.3644 15.318 41.9701 15.4502 41.6435 15.4484C41.3279 15.4466 41.177 15.324 41.2753 15.124L41.2476 15.0922C40.4404 15.378 40.0355 15.2245 40.1764 14.8738L40.1471 14.844C39.4853 15.1111 38.9604 14.9315 39.0899 14.6681L39.0637 14.6359C38.514 14.7873 38.032 14.7405 37.9484 14.6045C37.8956 14.5182 38.024 14.2874 38.1881 14.151L38.1661 14.1118C37.8992 14.2105 37.6305 14.2268 37.3218 14.1798C37.2065 14.1621 37.1547 14.1373 37.1446 14.1065C37.1369 14.0833 37.1413 14.0705 37.1834 13.9772L37.1899 13.9627C37.3051 13.7002 37.3478 13.6249 37.5 13.481C37.5065 13.4748 37.5098 13.4717 37.5132 13.4687C37.5166 13.4656 37.52 13.4625 37.527 13.4562L37.5077 13.4166C36.8467 13.5484 36.2833 13.5714 35.8905 13.4379C35.8854 13.4361 35.8716 13.4317 35.8585 13.4274C35.8473 13.4238 35.8366 13.4204 35.8323 13.419C35.7853 13.4032 35.7567 13.3896 35.7424 13.3746C35.7293 13.3607 35.7309 13.3468 35.7566 13.3206C35.9001 13.1749 36.1777 12.9775 36.452 12.859L36.4399 12.8154C35.3542 12.9776 34.278 12.9379 33.8939 12.6036ZM33.8939 12.6036C33.8756 12.5877 33.8588 12.5711 33.8438 12.5538L33.8223 12.5913C33.8457 12.5962 33.8696 12.6003 33.8939 12.6036ZM37.1463 9.96559C37.1417 9.95268 37.1387 9.94189 37.1373 9.93369L37.1119 9.96002C37.1233 9.96169 37.1348 9.96354 37.1463 9.96559ZM33.8483 8.80949C33.8476 8.79185 33.8479 8.77484 33.8493 8.7585L33.8108 8.77265C33.8225 8.78456 33.835 8.79684 33.8483 8.80949ZM33.0319 9.46172C33.0214 9.4344 33.0119 9.40754 33.0034 9.38122L32.9669 9.4053C32.9872 9.42374 33.0089 9.44256 33.0319 9.46172ZM32.421 9.97647C32.418 9.95573 32.4157 9.93518 32.4142 9.91483L32.376 9.93301C32.3909 9.94759 32.406 9.96207 32.421 9.97647ZM32.0362 10.5366C32.0308 10.5058 32.0278 10.4751 32.027 10.4447L31.9853 10.4572C32.0019 10.4845 32.0189 10.5109 32.0362 10.5366Z" fill="black"/>
<path fill-rule="evenodd" clip-rule="evenodd" d="M47.0284 16.8628L47.0258 16.8253C47.0505 16.8054 47.0417 16.7709 46.9745 16.709C46.8155 16.5619 46.7619 16.469 46.6851 16.263C46.6641 16.2067 46.6514 16.1757 46.6341 16.1419C46.6046 16.0842 46.5679 16.0338 46.516 15.9833C46.2738 15.7476 46.0614 15.3903 45.9906 15.0918C45.8723 14.5948 45.7081 14.1989 45.4579 13.9742C45.2869 13.8206 45.2231 13.4145 45.2673 12.8881C45.2726 12.8234 45.2769 12.7619 45.2799 12.7033L45.2944 12.7112L45.2941 12.7129L45.2966 12.7124C45.3056 12.7172 45.3147 12.7219 45.3237 12.7265C45.3208 12.7793 45.3169 12.8344 45.3121 12.892C45.2691 13.4048 45.331 13.7994 45.4877 13.9401C45.747 14.173 45.914 14.5754 46.0344 15.0812C46.103 15.3709 46.3109 15.7206 46.5471 15.9504C46.6026 16.0044 46.6423 16.0589 46.6741 16.121C46.6923 16.1568 46.7056 16.189 46.7272 16.2469C46.8017 16.4468 46.8519 16.534 47.0047 16.6753C47.0746 16.7396 47.0982 16.7954 47.0751 16.8366C47.067 16.8326 47.0591 16.8282 47.0512 16.8235L47.0538 16.8611C47.063 16.8536 47.0701 16.8455 47.0751 16.8366C47.3489 16.9748 47.706 16.75 47.71 16.5415L47.7478 16.5251C48.1148 16.8666 48.5709 16.8386 48.6833 16.4474L48.7172 16.4346C49.0093 16.6257 49.5221 16.6467 49.6589 16.4606C49.8474 16.2054 49.7366 16.0054 48.9732 15.5375L48.9906 15.4958C49.2291 15.5589 49.421 15.4411 49.4407 15.2393L49.4755 15.2224C49.7386 15.3949 49.9612 15.43 50.2731 15.3643C50.5289 15.3105 50.5338 15.1125 50.3108 14.8204L50.3399 14.7866C50.6078 14.9412 50.8993 15.0254 51.0975 15.0054C51.3065 14.9843 51.3853 14.8546 51.3 14.6123L51.3259 14.5823C51.639 14.6484 51.8876 14.638 51.9586 14.5251C52.0444 14.3894 51.8791 14.1437 51.4551 13.8201L51.4662 13.7791C51.5769 13.7668 51.6423 13.7506 51.7201 13.7156C52.1395 13.9293 53.0463 14.0999 53.4694 14.069C53.8233 14.0434 53.9375 13.8752 53.8738 13.503C54.7816 13.325 55.6168 13.0363 56.1697 12.6241C56.2296 12.5795 56.2564 12.5594 56.2906 12.5329C56.3392 12.4952 56.3805 12.4615 56.4166 12.4294C56.4723 12.38 56.514 12.3359 56.5403 12.2979C56.5624 12.2854 56.5837 12.2729 56.6043 12.2603L56.5707 12.2356C56.5664 12.254 56.5562 12.2748 56.5403 12.2979C56.0748 12.5602 55.2615 12.8032 53.8697 13.147L53.8573 13.103C55.0932 12.6933 57.0064 11.4455 57.0844 10.912C57.0977 10.9002 57.1108 10.8884 57.1238 10.8764L57.086 10.8617C57.0875 10.8777 57.0869 10.8945 57.0844 10.912C56.7639 11.1945 56.3122 11.4193 55.5579 11.7129C55.4947 11.7375 55.4298 11.7625 55.3452 11.7949L55.1348 11.8753L55.1155 11.8342C55.8757 11.3881 56.4885 10.7332 56.5514 10.2305C56.5677 10.2101 56.5831 10.1894 56.5978 10.1682L56.5567 10.1548C56.5564 10.1796 56.5546 10.2048 56.5514 10.2305C56.3411 10.4943 55.9929 10.6976 55.3232 11.0017L55.3018 11.0114C55.2408 11.039 55.0678 11.1172 55.012 11.1428C54.9192 11.1853 54.8418 11.2217 54.77 11.2567L54.7462 11.2182C55.0808 10.9503 55.1973 10.8549 55.3794 10.6949C55.7221 10.3936 55.9835 10.1201 56.1594 9.86182C56.3389 9.59823 56.4204 9.36149 56.3916 9.15414C56.4023 9.13715 56.4125 9.1201 56.4222 9.10297L56.3807 9.09704C56.3853 9.11582 56.389 9.13485 56.3916 9.15414C56.1483 9.54326 55.6779 9.89993 54.9245 10.3295C54.8052 10.3976 54.5063 10.5618 54.2959 10.6774L54.2954 10.6777L54.2953 10.6778C54.1889 10.7362 54.1052 10.7822 54.079 10.7969L54.0533 10.7596C54.5334 10.3408 54.8039 9.97395 54.831 9.51124L54.869 9.48278L54.833 9.46393C54.8326 9.47981 54.832 9.49558 54.831 9.51124C53.8037 10.2762 52.5432 10.8204 51.223 11.1443L51.2112 11.1152L51.2108 11.1141L51.2107 11.1141L51.206 11.1025C51.5276 10.9062 51.8648 10.5394 51.964 10.2792C51.9821 10.2672 52 10.2552 52.0177 10.2431L51.9832 10.2186C51.9784 10.238 51.972 10.2583 51.964 10.2792C50.9967 10.9193 49.5577 11.3505 48.5045 11.4212C47.5517 11.4847 46.9349 11.5655 46.1896 11.7458C46.0476 11.601 45.6288 11.6088 45.1074 11.7525C45.099 11.7431 45.0903 11.7337 45.0813 11.7246L45.0714 11.7626L45.1074 11.7525C45.2886 11.9561 45.3439 12.2256 45.3273 12.6519L45.2853 12.6603L45.2804 12.6921C45.3027 12.2334 45.2462 11.9582 45.0494 11.7566L45.0593 11.7186C45.6129 11.5607 46.0603 11.5489 46.2003 11.7075C46.9271 11.5203 47.5464 11.4392 48.5017 11.3756C49.5671 11.3041 51.0327 10.8602 51.9927 10.2052L52.0272 10.2296C51.9668 10.4754 51.6605 10.8381 51.3408 11.0676C52.625 10.7375 53.8465 10.197 54.8422 9.44608L54.8783 9.46492C54.8681 9.91657 54.6419 10.2742 54.229 10.6622L54.2745 10.6372C54.4849 10.5216 54.7835 10.3575 54.9025 10.2897C55.6819 9.84522 56.1553 9.47993 56.3833 9.08008L56.4247 9.08601C56.4824 9.32177 56.3995 9.58987 56.1967 9.8877C56.0183 10.1497 55.7545 10.4258 55.4091 10.7294C55.2571 10.863 55.1507 10.9516 54.9262 11.1322L54.9935 11.1012C55.0486 11.0759 55.2172 10.9997 55.2806 10.971L55.2807 10.9709L55.2834 10.9697L55.2835 10.9697L55.3049 10.96C56.0183 10.6359 56.3627 10.4278 56.561 10.1419L56.602 10.1553C56.5962 10.6422 56.0549 11.2781 55.3412 11.7475C55.42 11.7173 55.4817 11.6936 55.5419 11.6702C56.3224 11.3664 56.7762 11.137 57.0934 10.8427L57.1311 10.8573C57.1766 11.3411 55.5245 12.4773 54.2484 13.0051C55.4611 12.6973 56.1751 12.4692 56.5812 12.2211L56.6148 12.2459C56.6007 12.3071 56.5429 12.3782 56.4465 12.4637C56.4096 12.4965 56.3675 12.5309 56.3182 12.5691C56.2837 12.5958 56.2567 12.6161 56.1966 12.6609C55.6371 13.0781 54.7964 13.3686 53.9002 13.5201C53.9879 13.8913 53.8551 14.0869 53.4728 14.1145C53.0418 14.146 52.1269 13.9739 51.7218 13.7556C51.6693 13.7875 51.6115 13.805 51.5264 13.8175C51.9364 14.1387 52.098 14.3896 51.9969 14.5496C51.9142 14.6809 51.6692 14.6961 51.355 14.6347C51.4282 14.8818 51.3293 15.0279 51.1021 15.0508C50.9151 15.0697 50.6545 15.002 50.4042 14.8734C50.5835 15.1475 50.5547 15.3517 50.2825 15.409C49.971 15.4746 49.7418 15.4425 49.4806 15.2795C49.4462 15.4561 49.2908 15.5674 49.0926 15.5579C49.7897 15.9975 49.896 16.216 49.6953 16.4879C49.5452 16.692 49.0306 16.6765 48.7179 16.4886C48.5848 16.8795 48.1243 16.9106 47.75 16.5878C47.7003 16.8205 47.3167 17.0344 47.0284 16.8628ZM46.3261 12.5759C46.3371 12.5461 46.3453 12.5139 46.3505 12.4792L46.3238 12.4533L45.3273 12.6519L45.3259 12.6831C45.3175 12.6785 45.309 12.6738 45.3006 12.669L45.2944 12.7112L45.2966 12.7124L45.3248 12.7066L45.3237 12.7265C45.711 12.9225 46.139 12.9112 46.2955 12.6413C46.6347 12.8272 47.1707 12.736 47.3436 12.4755C47.8299 12.653 48.2846 12.5464 48.3656 12.0963L48.336 12.0706L47.3811 12.4009C47.3947 12.3625 47.4011 12.3213 47.3989 12.2776L46.3261 12.5759ZM46.3162 12.6004C46.3197 12.5924 46.323 12.5843 46.3261 12.5759L46.2808 12.5885L46.2758 12.6301C46.2823 12.6339 46.2889 12.6377 46.2955 12.6413L46.3019 12.6297L46.3466 12.6161C46.666 12.7703 47.1466 12.6827 47.3189 12.4662L47.3436 12.4755C47.3473 12.4699 47.3508 12.4643 47.3541 12.4586L47.3941 12.4448C47.8292 12.5917 48.2221 12.4986 48.3131 12.127L48.3508 12.1139L48.3213 12.0882C48.319 12.1014 48.3162 12.1144 48.3131 12.127L47.3941 12.4448C47.3849 12.4418 47.3758 12.4386 47.3667 12.4353C47.3721 12.4241 47.377 12.4126 47.3811 12.4009L47.3551 12.4099C47.372 12.3758 47.3818 12.3392 47.3831 12.3005L46.3466 12.6161C46.3363 12.6111 46.3261 12.6059 46.3162 12.6004ZM47.3455 12.4275C47.3526 12.4302 47.3596 12.4328 47.3667 12.4353C47.3628 12.4432 47.3586 12.451 47.3541 12.4586L47.3329 12.466L47.3332 12.4468C47.3376 12.4405 47.3417 12.434 47.3455 12.4275ZM47.3455 12.4275C47.3416 12.426 47.3376 12.4245 47.3337 12.423L47.3332 12.4468C47.3287 12.4534 47.3239 12.4599 47.3189 12.4662L47.3174 12.4656L47.3181 12.4227L47.3551 12.4099C47.3521 12.4158 47.3489 12.4217 47.3455 12.4275ZM46.3162 12.6004C46.3118 12.6105 46.307 12.6203 46.3019 12.6297L46.294 12.6321L46.2989 12.5906L46.306 12.5947L46.3162 12.6004ZM45.3577 12.6998L45.3248 12.7066L45.3259 12.6831C45.3365 12.6889 45.3471 12.6944 45.3577 12.6998ZM46.2999 12.5058C46.2221 12.8641 45.7718 12.9104 45.3577 12.6998L46.2999 12.5058ZM46.2999 12.5058C46.3023 12.495 46.3043 12.4838 46.3059 12.4724L46.3326 12.4991L46.2999 12.5058ZM51.2107 11.1141L51.2112 11.1152L51.2253 11.1574C51.2474 11.1494 50.6084 11.3827 50.3841 11.4618C50.3175 11.4853 50.2533 11.5077 50.191 11.5291C49.7403 11.684 49.4012 11.7848 49.1856 11.8212L49.1749 11.7769L51.2094 11.1146C51.1791 11.1257 50.5838 11.343 50.3691 11.4186C50.3027 11.4421 50.2386 11.4644 50.1764 11.4858C49.7279 11.64 49.3905 11.7402 49.178 11.7761L49.1887 11.8204L51.2245 11.1576L51.2101 11.1143L51.2106 11.1141L51.2107 11.1141ZM45.2804 12.6921L45.2799 12.7033L45.2788 12.7027L45.2804 12.6921ZM37.3475 10.4235C37.4915 10.6351 37.8692 10.9453 38.1068 11.0207C38.124 11.1886 38.1943 11.3514 38.3126 11.4825L37.2372 11.1346L37.2085 11.1622C37.2336 11.257 37.276 11.3405 37.331 11.4118L36.5903 11.1089C36.6516 11.1101 36.7189 11.1059 36.7922 11.096L36.8044 11.0564L36.2727 10.5701C36.3665 10.5916 36.4609 10.6082 36.5558 10.6197L36.5688 10.5767L34.5124 9.5062L34.4865 9.54311C34.9784 10.0144 35.5497 10.3745 36.151 10.5395C36.1127 10.627 36.1028 10.7383 36.1313 10.8358L34.9849 10.4237L34.963 10.4629C35.2148 10.6727 35.6082 10.7968 36.1529 10.892C36.1558 10.898 36.1589 10.9039 36.1622 10.9097C36.2111 10.9959 36.2943 11.0564 36.4128 11.0867C36.392 11.1382 36.3819 11.1878 36.3821 11.2343C35.8348 11.1293 35.4885 11.0957 35.3449 11.1595C35.2704 11.1928 35.2209 11.2401 35.1991 11.2946C35.1025 11.2566 35.0111 11.2248 34.9106 11.1936C34.8708 11.1813 34.8292 11.1689 34.7815 11.155C34.8091 11.163 34.4866 11.0716 34.3688 11.0364L34.363 11.0346L34.363 11.0347L34.3627 11.0346L34.35 11.0799L35.1875 11.3419C35.1792 11.4213 35.2244 11.5107 35.3301 11.5927C35.3674 11.6215 35.4118 11.6492 35.4625 11.6755C35.3553 11.7273 35.3149 11.812 35.3376 11.9027L33.6398 11.4177L33.6216 11.459C34.059 11.7398 34.6064 11.8897 35.3593 11.9585C35.3797 11.9974 35.4112 12.0364 35.4537 12.0735C35.4026 12.1334 35.3827 12.2009 35.3903 12.2696C35.2892 12.2664 35.1448 12.2924 35.0503 12.3323L35.0622 12.3775L35.4014 12.3222C35.4219 12.3881 35.4666 12.4536 35.5323 12.5133C36.0791 13.0123 37.429 13.0026 38.7056 12.5544C38.7345 12.6194 38.8089 12.6641 38.9279 12.6977C38.9762 12.7114 39.0252 12.7231 39.0747 12.7327L37.5032 13.4181L37.5154 13.4617C37.9926 13.391 38.6628 13.077 39.1579 12.7471C39.2893 12.7667 39.424 12.773 39.5596 12.7666C39.5016 12.8756 39.4915 13.0154 39.5335 13.1339L37.8712 13.7283L37.8851 13.7718C38.4325 13.6091 39.1479 13.3568 39.5517 13.1772C39.6014 13.2785 39.694 13.3572 39.8326 13.3753L38.1648 14.1125L38.1795 14.1556C38.5692 14.0536 39.3419 13.713 39.9333 13.3844C40.1027 13.3937 40.2899 13.3752 40.4828 13.3351C40.4468 13.4105 40.4254 13.485 40.4182 13.5557L38.8257 14.3093L38.8409 14.3521C39.3233 14.2273 39.759 14.0074 40.4155 13.6112C40.416 13.7179 40.4503 13.8139 40.5164 13.8894L39.0596 14.6306L39.0743 14.6734C39.2327 14.6398 39.4215 14.5676 39.6359 14.4626C39.7535 14.4051 39.8768 14.3386 40.0054 14.2644C40.189 14.1583 40.3334 14.0675 40.5515 13.9249C40.6253 13.991 40.7284 14.0365 40.8588 14.0523C40.8737 14.0541 40.8888 14.0554 40.9042 14.0563L39.7119 14.6201L39.7261 14.6631C39.9909 14.6064 40.2439 14.5018 40.5163 14.3505C40.5778 14.3164 40.7031 14.2411 40.8149 14.174L40.8149 14.1739L40.8151 14.1739C40.9018 14.1218 40.9803 14.0746 41.0144 14.0554C41.1505 14.0459 41.302 14.0065 41.4621 13.9402C41.3907 14.0533 41.3525 14.1437 41.3465 14.2233L40.1286 14.8379L40.1461 14.8799C40.3601 14.8044 40.9788 14.4859 41.3475 14.2762C41.3536 14.3292 41.3757 14.3782 41.4135 14.4271C41.4514 14.4761 41.4961 14.5026 41.5552 14.5073L40.7214 14.899L40.7208 14.8992L40.7208 14.8993L40.7198 14.8998L40.7377 14.9417C41.0249 14.8247 41.4163 14.6416 41.7473 14.47C41.8364 14.4372 41.9459 14.3832 42.0832 14.3085C42.1914 14.2499 42.3188 14.1667 42.4648 14.0611C42.5032 14.0333 42.5426 14.0042 42.5834 13.9735C42.5523 14.0875 42.5509 14.1858 42.5754 14.2678L41.2367 15.0874L41.2564 15.1283C41.6151 14.9893 42.2791 14.5699 42.5932 14.315C42.6275 14.3895 42.6865 14.448 42.7667 14.4897L41.8364 15.0876L41.8573 15.128C42.2116 14.9764 42.6215 14.7092 42.8195 14.5136L42.8283 14.5171C43.0351 14.5949 43.2434 14.5972 43.4385 14.4935L42.6395 15.0993L42.6645 15.1372C43.054 14.9039 43.5162 14.5591 43.668 14.3758L43.6372 14.3429L43.6353 14.3443L43.629 14.3091L42.6875 13.8942C42.7394 13.8541 42.7934 13.8117 42.8524 13.7649C42.8877 13.7369 42.9762 13.6661 43.0193 13.6317L43.0195 13.6315L43.0203 13.6309L43.0206 13.6307L43.0433 13.6125L43.0253 13.5721L42.4085 13.6874L42.8398 13.3539L42.8135 13.3167C42.6756 13.4103 42.4669 13.5633 42.2716 13.7129L41.7147 13.817C42.0454 13.6326 42.3955 13.3487 42.7109 12.9882L42.6908 12.9504L41.8764 13.0677C41.9115 13.0444 41.9477 13.0202 41.9852 12.9949L42.0786 12.9318L42.2319 12.8282C42.3241 12.7662 42.398 12.7175 42.4681 12.6731L42.471 12.6713L42.4709 12.6712L42.4714 12.6709L42.448 12.6319L41.6672 13.0978L40.9469 13.2015C41.3904 13.04 41.8135 12.7906 42.0726 12.5253C42.1828 12.5099 42.2965 12.4884 42.4122 12.4601L42.418 12.4612L42.4179 12.4587L42.4276 12.4563L42.4264 12.4117L41.0748 12.1498C41.161 12.1433 41.2497 12.1328 41.3401 12.1181L41.3428 12.0736L39.7921 11.6148L39.7632 11.6356C39.7625 11.6514 39.7631 11.6669 39.765 11.6823L38.1361 10.8803L38.1037 10.8996C38.1028 10.9172 38.1025 10.9348 38.1028 10.9524L37.3799 10.3924L37.3475 10.4235ZM38.1033 10.9714L38.1028 10.9524L38.1468 10.9865L38.1273 11.0267C38.1206 11.0249 38.1137 11.0229 38.1068 11.0207L38.106 11.0124L38.1193 11.0227L38.1388 10.9825C38.1274 10.9794 38.1155 10.9757 38.1033 10.9714ZM37.978 10.9133L37.5236 10.5612C37.467 10.5039 37.4189 10.4477 37.3848 10.3976L37.3525 10.4287L37.5236 10.5612C37.6532 10.6926 37.8271 10.8298 37.978 10.9133ZM37.978 10.9133C38.0223 10.9378 38.0647 10.9576 38.1033 10.9714C38.1039 10.9851 38.1048 10.9988 38.106 11.0124L37.978 10.9133ZM39.816 11.7073L39.765 11.6823C39.7663 11.6927 39.7683 11.703 39.7708 11.7132L39.7402 11.7209L38.1479 10.9369C38.1479 10.9253 38.1482 10.9136 38.1488 10.902L38.1164 10.9214L38.1479 10.9369C38.1466 11.257 38.3514 11.5743 38.7234 11.6873C39.0528 11.7874 39.376 11.7999 39.6491 11.7464C39.5796 11.7675 39.5102 11.792 39.4424 11.8191C39.2144 11.8344 38.9641 11.8081 38.7104 11.731C38.5842 11.6927 38.4761 11.6319 38.3877 11.5558L38.3982 11.5474L38.3909 11.5078L38.3126 11.4825C38.3257 11.497 38.3394 11.5111 38.3536 11.5248C38.3477 11.5293 38.3417 11.5337 38.3357 11.538L37.2644 11.1914C37.2599 11.178 37.2559 11.1644 37.2522 11.1505L37.2235 11.1782L37.2644 11.1914C37.3108 11.3302 37.3984 11.4409 37.5079 11.5195L37.4045 11.4931L37.4038 11.4924L37.4136 11.4894L37.4155 11.4463L37.331 11.4118C37.3427 11.4269 37.3549 11.4415 37.3677 11.4555L37.3384 11.464L36.4552 11.1028L36.4578 11.0965C36.4984 11.1038 36.5425 11.108 36.5903 11.1089L36.4517 11.0522L36.4228 11.0637C36.4193 11.0714 36.4159 11.0791 36.4128 11.0867C36.4214 11.0889 36.4302 11.091 36.4391 11.0928L36.4349 11.0945L36.4552 11.1028C36.4351 11.1523 36.4264 11.1997 36.4285 11.2439L36.4182 11.2413L36.4169 11.241L36.3821 11.2343C36.3822 11.2504 36.3835 11.2662 36.3861 11.2816C35.8442 11.1773 35.4949 11.1427 35.3629 11.2014C35.197 11.2756 35.1801 11.419 35.3573 11.5564C35.4031 11.5918 35.46 11.6253 35.5266 11.6569L35.5223 11.6559L35.5097 11.6564C35.4927 11.6621 35.477 11.6685 35.4625 11.6755C35.4785 11.6839 35.4952 11.6921 35.5125 11.7002L35.5112 11.7003L35.5142 11.701L35.5168 11.7022C35.3388 11.7663 35.3314 11.9187 35.4937 12.0499L35.4891 12.0492L35.4699 12.0557C35.4642 12.0616 35.4588 12.0675 35.4537 12.0735C35.4647 12.0831 35.4765 12.0926 35.4891 12.102C35.3933 12.2135 35.4266 12.3557 35.5625 12.4793C36.0833 12.9546 37.3762 12.9547 38.6165 12.5367L38.7033 12.549L38.7056 12.5544L38.7209 12.5489L38.7166 12.5048L38.7161 12.5047L38.7191 12.4638L38.6937 12.4574C38.6996 12.412 38.7187 12.3597 38.7512 12.2988C38.8012 12.2056 38.9134 12.1055 39.059 12.0129C39.1002 12.0059 39.1395 11.9984 39.1765 11.9903L39.1772 11.9458L39.1743 11.945C39.2579 11.8993 39.3486 11.8567 39.4424 11.8191C39.5178 11.8141 39.5908 11.8045 39.6607 11.7907C39.2747 11.908 38.8911 12.1336 38.7908 12.3207C38.6865 12.5155 38.731 12.5948 38.9399 12.6537C39.5477 12.8262 40.2714 12.6696 40.8243 12.2787L40.8468 12.2903C40.8504 12.297 40.8544 12.3036 40.8587 12.3101C40.6334 12.4709 40.3799 12.5933 40.1168 12.671L39.5968 12.7221L39.5803 12.732C39.5728 12.7431 39.5659 12.7546 39.5596 12.7666C39.5756 12.7658 39.5915 12.7649 39.6075 12.7638L39.6011 12.7676L39.6118 12.7666C39.4897 12.9612 39.5546 13.2938 39.8394 13.3302C39.8649 13.3335 39.891 13.336 39.9175 13.3378L39.8326 13.3753L39.8338 13.3754L39.8512 13.3775C39.6545 13.4849 39.4404 13.5927 39.2287 13.692L38.7404 13.9079C38.5151 14.0008 38.3141 14.0731 38.1682 14.1113L38.1829 14.1543L38.7404 13.9079C38.895 13.8441 39.0611 13.7707 39.2287 13.692L39.9257 13.384L39.9333 13.3844L39.9664 13.3659L39.9536 13.3397C40.1251 13.3471 40.315 13.3259 40.5102 13.2826C40.5003 13.3001 40.4912 13.3176 40.4828 13.3351C40.5017 13.3311 40.5207 13.327 40.5396 13.3227C40.3622 13.654 40.4875 13.9611 40.864 14.0068C40.9074 14.0121 40.9532 14.0132 41.0013 14.0104L40.9042 14.0563L40.9214 14.0571C40.8839 14.0795 40.8378 14.1071 40.7895 14.1362L40.7893 14.1363L40.7893 14.1363C40.7216 14.1769 40.6495 14.2203 40.5898 14.2555L39.9703 14.5484C39.8863 14.5768 39.8021 14.6002 39.7168 14.6185L39.731 14.6615L39.9703 14.5484C40.1424 14.4902 40.314 14.4108 40.4947 14.3105C40.5182 14.2975 40.5514 14.2781 40.5898 14.2555L41.0128 14.0555L41.0144 14.0554L41.0233 14.0505L41.0239 14.0503L41.0238 14.0502L41.0247 14.0497L41.0054 14.0102C41.1555 14.0007 41.3266 13.9527 41.5082 13.8705C41.4915 13.8946 41.4762 13.9178 41.4621 13.9402C41.4873 13.9297 41.5128 13.9186 41.5385 13.9068C41.3751 14.1463 41.3519 14.2727 41.4493 14.399C41.5016 14.4666 41.5776 14.4791 41.711 14.4341L41.5552 14.5073C41.5607 14.5077 41.5664 14.508 41.5721 14.508C41.2805 14.6543 40.9636 14.8004 40.7214 14.899L40.7208 14.8993L40.7387 14.9412L41.7241 14.4782C41.7317 14.4757 41.7394 14.4729 41.7473 14.47L41.7981 14.4436L41.7806 14.4077C41.8572 14.3758 41.9496 14.3294 42.0621 14.2683C42.1683 14.2107 42.2942 14.1284 42.4388 14.0239C42.4893 13.9874 42.5418 13.9484 42.5967 13.9066L42.6074 13.8985C42.598 13.9242 42.59 13.9492 42.5834 13.9735L42.6236 13.9431L42.6457 13.9262C42.545 14.214 42.6297 14.3941 42.8442 14.4743C43.0983 14.5699 43.3519 14.5454 43.5797 14.3371L43.6112 14.351L43.6045 14.3137C43.5962 14.3217 43.588 14.3296 43.5797 14.3371L42.6462 13.9258L42.6875 13.8942L42.6418 13.874L42.6363 13.8763C42.6955 13.8309 42.7568 13.7829 42.8248 13.7289L42.9441 13.6338L43.0337 13.617L43.0156 13.5766L42.9928 13.5948L42.9441 13.6338L42.3291 13.7487L42.4085 13.6874L42.3711 13.6943C42.5435 13.5637 42.7185 13.4362 42.8387 13.3546L42.8124 13.3175L42.3104 13.7057L42.2716 13.7129C42.2447 13.7335 42.2181 13.7541 42.192 13.7744L41.5748 13.8897C41.6209 13.8676 41.6676 13.8433 41.7147 13.817L41.5609 13.8458C41.9089 13.6774 42.2911 13.3872 42.6356 13.0044L42.697 12.9956L42.6769 12.9578C42.6632 12.9735 42.6494 12.989 42.6356 13.0044L41.7865 13.1267C41.8157 13.1077 41.8456 13.088 41.8764 13.0677L41.7846 13.0809L42.4681 12.6731L42.4709 12.6712L42.4475 12.6323C42.3761 12.6776 42.3009 12.727 42.2069 12.7902L42.0535 12.8939L41.9602 12.957C41.8933 13.0021 41.8302 13.044 41.7704 13.0829L41.6672 13.0978L41.5655 13.1585L40.6887 13.2847C40.7749 13.2606 40.8613 13.2327 40.9469 13.2015L40.6792 13.24C41.1791 13.0996 41.6895 12.8292 41.9984 12.5348C42.0229 12.532 42.0477 12.5288 42.0726 12.5253L42.0787 12.5191L42.0628 12.4856C42.1442 12.4742 42.2277 12.4592 42.3127 12.4405L42.4122 12.4601L42.4179 12.4587L42.4169 12.4159C42.3819 12.4248 42.3472 12.433 42.3127 12.4405L40.8756 12.1579C40.9403 12.1575 41.0068 12.1549 41.0748 12.1498L40.8812 12.1122C40.9925 12.1113 41.1094 12.1035 41.2304 12.088L41.3302 12.1175L41.333 12.073C41.2985 12.0786 41.2643 12.0836 41.2304 12.088L39.8089 11.6674C39.8081 11.6576 39.8079 11.6478 39.8084 11.6379L39.7795 11.6587L39.8089 11.6674C39.81 11.6809 39.8124 11.6942 39.816 11.7073ZM39.8191 11.7132L39.8194 11.7091L39.816 11.7073L39.8174 11.7123L39.8111 11.7092L39.8029 11.7081L39.803 11.7078L39.8022 11.708L39.7959 11.7073L39.7708 11.7132L39.7718 11.7171L39.7466 11.724L39.7402 11.7209C39.7099 11.7287 39.6795 11.7372 39.6491 11.7464C39.6824 11.7399 39.7149 11.7325 39.7466 11.724L39.7789 11.7399C39.7809 11.7455 39.7831 11.7511 39.7854 11.7567C39.7441 11.7666 39.7024 11.778 39.6607 11.7907C39.704 11.7821 39.7462 11.7719 39.787 11.7602C39.8548 11.9134 40.0616 12.0382 40.3537 12.105L39.4361 12.4094L39.4457 12.4553C39.8606 12.4022 40.0975 12.3129 40.4442 12.1241L40.4438 12.1232C40.4789 12.1295 40.5151 12.1349 40.5522 12.1396L40.8243 12.2787L40.8371 12.2695C40.8399 12.2765 40.8432 12.2835 40.8468 12.2903L40.8577 12.2958L40.8546 12.2569L40.8371 12.2695C40.8316 12.256 40.8276 12.2421 40.8251 12.2278L40.8782 12.255L40.8812 12.2939L40.8587 12.3101C40.9148 12.3942 41.0326 12.4601 41.194 12.5022L41.018 12.5826L40.1168 12.671C39.9514 12.72 39.7822 12.7512 39.6139 12.7633L39.6176 12.7577L39.6075 12.7638L39.6139 12.7633L39.6118 12.7666L40.8899 12.6412L40.1192 12.9935L40.1353 13.0361C40.4444 12.9378 40.7849 12.7849 41.0855 12.622L41.8116 12.5508C41.8723 12.5475 41.9347 12.5422 41.9984 12.5348L42.0011 12.5322L42.0646 12.526L42.0466 12.4878L42.0628 12.4856L42.0604 12.4804L41.7155 12.5142C41.1917 12.5252 40.8296 12.3764 40.871 12.1579L40.8756 12.1579L40.8711 12.157C40.8724 12.1504 40.8741 12.1437 40.8761 12.137L40.8503 12.1529L40.8711 12.157L40.871 12.1579C40.8555 12.158 40.8401 12.1579 40.8249 12.1577C40.8267 12.1465 40.8294 12.1351 40.8329 12.1236L40.8514 12.1123L40.8812 12.1122L40.8587 12.1079L40.8514 12.1123C40.7513 12.1121 40.6559 12.1062 40.5664 12.0955L39.8191 11.7132ZM39.8188 11.7171L39.8191 11.7132L39.8174 11.7123L39.8188 11.7171ZM39.8482 11.7794C39.8354 11.7592 39.8256 11.7384 39.8188 11.7171L39.8162 11.7514L39.8019 11.7558L39.7979 11.7537L39.8058 11.7519L39.7906 11.75L39.7979 11.7537L39.7854 11.7567L39.787 11.7602L39.8019 11.7558L39.8482 11.7794ZM40.4225 12.0732C40.4685 12.0821 40.5166 12.0896 40.5664 12.0955L40.6761 12.1516C40.6337 12.1486 40.5924 12.1446 40.5522 12.1396L40.4225 12.0732ZM39.8482 11.7794L40.4225 12.0732C40.1383 12.0185 39.9312 11.9109 39.8482 11.7794ZM40.6761 12.1516L40.8251 12.2278C40.8212 12.2054 40.821 12.182 40.8249 12.1577C40.7741 12.1571 40.7244 12.155 40.6761 12.1516ZM42.0456 12.488L42.0463 12.4873L42.0466 12.4878L42.0456 12.488ZM42.0456 12.488C41.9305 12.5035 41.8198 12.512 41.7155 12.5142L41.4242 12.5428C41.3691 12.5369 41.3168 12.529 41.2678 12.5191L41.2731 12.516L41.2524 12.4755L41.194 12.5022L41.2026 12.5044C41.1602 12.5288 41.1167 12.5532 41.0723 12.5773L41.018 12.5826L40.8899 12.6412L40.9662 12.6337C40.6932 12.7755 40.3949 12.9056 40.1218 12.9925L40.1379 13.0351L41.0295 12.6275L41.0855 12.622C41.1197 12.6035 41.1534 12.5848 41.1864 12.5661L41.4242 12.5428C41.5417 12.5553 41.6722 12.5583 41.8116 12.5508L42.0011 12.5322C42.0165 12.5175 42.0313 12.5028 42.0456 12.488ZM41.1576 12.569L41.1864 12.5661C41.214 12.5505 41.2411 12.5348 41.2678 12.5191L41.2669 12.519L41.271 12.5171L41.2504 12.4765L41.2026 12.5044C41.2234 12.5096 41.2448 12.5145 41.2669 12.519L41.1576 12.569ZM41.1576 12.569L41.0723 12.5773C41.0375 12.5963 41.002 12.6151 40.9662 12.6337L41.0295 12.6275L41.1576 12.569ZM40.4393 12.1224L40.4438 12.1232L40.4269 12.0807L40.3537 12.105L40.3731 12.1093C40.2855 12.1559 40.2045 12.1959 40.125 12.2304L39.7535 12.3536C39.659 12.3757 39.5568 12.3935 39.4402 12.4084L39.4498 12.4544L39.7535 12.3536C39.8865 12.3225 40.0041 12.2828 40.125 12.2304L40.4406 12.1257L40.4393 12.1224ZM40.4393 12.1224C40.4168 12.1184 40.3948 12.114 40.3731 12.1093L40.4234 12.0822L40.4393 12.1224ZM39.7789 11.7399C39.7762 11.7324 39.7738 11.7248 39.7718 11.7171C39.782 11.7142 39.7921 11.7112 39.8022 11.708L39.8029 11.7081L39.7997 11.7502L39.7789 11.7399ZM40.5495 13.3048L40.5396 13.3227C40.5891 13.3114 40.6389 13.2987 40.6887 13.2847L40.5495 13.3048ZM40.5495 13.3048L40.5549 13.2953L40.5387 13.3063L40.5495 13.3048ZM41.6783 13.1422L41.5655 13.1585L40.972 13.5126L40.9914 13.5537C41.2363 13.4609 41.4658 13.3352 41.7865 13.1267L41.6829 13.1416L41.7846 13.0809L41.7704 13.0829C41.7389 13.1035 41.7082 13.1232 41.6783 13.1422ZM41.6156 13.1818C41.6361 13.169 41.657 13.1558 41.6783 13.1422L41.6829 13.1416L41.6156 13.1818ZM41.6156 13.1818C41.5446 13.226 41.478 13.2658 41.4143 13.3019L41.6156 13.1818ZM41.4143 13.3019C41.2582 13.3903 41.1194 13.4565 40.9756 13.511L40.995 13.552L41.4143 13.3019ZM41.5466 13.895L41.5385 13.9068C41.5506 13.9012 41.5626 13.8956 41.5748 13.8897L41.5466 13.895ZM41.5466 13.895L41.5519 13.8874L41.5375 13.8967L41.5466 13.895ZM42.231 13.7671L42.192 13.7744C42.0128 13.9134 41.856 14.0418 41.7921 14.1067L41.8218 14.141L42.3291 13.7487L42.2902 13.756C42.317 13.7355 42.344 13.7149 42.3711 13.6943L42.3104 13.7057L42.231 13.7671ZM42.231 13.7671L41.7945 14.1046L41.8242 14.1389C41.8948 14.0671 42.0841 13.9141 42.2902 13.756L42.231 13.7671ZM42.6459 13.9256L42.6457 13.9262L42.6462 13.9258L42.6459 13.9256ZM42.6459 13.9256L42.6541 13.9031L42.6239 13.916L42.6459 13.9256ZM42.6363 13.8763L42.6074 13.8985L42.6117 13.8868L42.6363 13.8763ZM41.7797 14.4081L41.7806 14.4077L41.7782 14.4026L41.7773 14.403L41.7772 14.4029L41.7763 14.4034L41.711 14.4341L41.7308 14.4272C41.6792 14.4539 41.6261 14.481 41.5721 14.508C41.6148 14.5085 41.6647 14.4985 41.7241 14.4782L41.7971 14.444L41.7797 14.4081ZM41.7797 14.4081C41.7626 14.4152 41.7463 14.4215 41.7308 14.4272L41.7763 14.4034L41.7773 14.403L41.7797 14.4081ZM41.5609 13.8458C41.5432 13.8543 41.5257 13.8626 41.5082 13.8705L41.5147 13.861L41.5291 13.8517L41.5609 13.8458ZM41.0043 14.0102L41.0238 14.0502L41.0233 14.0505L41.0128 14.0555C40.9815 14.0577 40.951 14.0582 40.9214 14.0571C40.9586 14.0351 40.9874 14.0182 41.0018 14.0104L41.0043 14.0102ZM41.0043 14.0102L41.0054 14.0102L41.0047 14.0088L41.0013 14.0104L41.0018 14.0104L41.0038 14.0093L41.0043 14.0102ZM40.6792 13.24C40.6227 13.2559 40.5662 13.2702 40.5102 13.2826L40.5162 13.2722L40.5325 13.2612L40.6792 13.24ZM39.9512 13.3396L39.9644 13.3668L39.9257 13.384C39.9004 13.3824 39.8756 13.3803 39.8512 13.3775C39.8753 13.3644 39.8991 13.3512 39.9227 13.3381L39.9512 13.3396ZM39.9512 13.3396L39.9536 13.3397L39.9464 13.325L39.9175 13.3378L39.9227 13.3381L39.9445 13.3259L39.9512 13.3396ZM39.1667 11.9492L39.1743 11.945L38.1357 11.6798C38.226 11.6563 38.3119 11.6153 38.3877 11.5558L38.3762 11.5457L38.3699 11.5119C38.3646 11.5163 38.3591 11.5206 38.3536 11.5248C38.361 11.5319 38.3685 11.5389 38.3762 11.5457L38.3773 11.5514L38.3357 11.538C38.2447 11.6024 38.1399 11.6402 38.0317 11.6533L37.5079 11.5195C37.5605 11.5573 37.618 11.5876 37.6784 11.6103L37.4887 11.5618C37.4591 11.5411 37.4309 11.5182 37.4045 11.4931L37.4028 11.4927L37.4038 11.4924L37.3987 11.4875L37.4005 11.4456L37.3677 11.4555C37.3777 11.4666 37.3881 11.4772 37.3987 11.4875L37.3987 11.4886L37.3384 11.464L37.3153 11.4703L36.4285 11.2439C36.4294 11.2608 36.4318 11.2771 36.4358 11.293L36.4076 11.2858L36.4082 11.2859L36.407 11.2856L36.4076 11.2858L36.3861 11.2816C36.4259 11.5231 36.766 11.6619 37.3153 11.5176L37.4887 11.5618C37.6446 11.6711 37.8405 11.7201 38.0282 11.6996L39.0678 11.965C38.4837 12.0677 37.4663 12.0539 36.6256 11.9347L35.5266 11.6569C35.782 11.7782 36.1788 11.8714 36.6256 11.9347L36.9764 12.0234C36.8534 12.0107 36.7322 11.9959 36.6144 11.9791L35.5177 11.7019L35.5238 11.6998L35.5125 11.7002L35.5142 11.701L35.5177 11.7019L35.5168 11.7022C35.7767 11.823 36.1716 11.9157 36.6144 11.9791L38.5729 12.474C38.5554 12.4751 38.5375 12.4761 38.5195 12.4769L35.4937 12.0499C35.5185 12.0699 35.5473 12.0895 35.58 12.1082L35.4943 12.0961L35.502 12.0879L35.4829 12.0945L35.4943 12.0961L35.4891 12.102C35.5408 12.1406 35.6051 12.1764 35.6816 12.2067C36.2084 12.4158 37.6665 12.5631 38.5173 12.5227L38.6165 12.5367C38.6414 12.5283 38.6663 12.5198 38.6912 12.511L38.6934 12.5108C38.6952 12.5243 38.6985 12.537 38.7033 12.549L38.7104 12.55L38.7065 12.5096L38.7158 12.5087L38.7161 12.5047L38.7084 12.5036L38.7113 12.4633L38.6929 12.465L38.6937 12.4574L36.9764 12.0234C37.7296 12.1009 38.549 12.0994 39.059 12.0129C39.0777 12.001 39.0971 11.9892 39.1169 11.9776L39.166 11.9901L39.1667 11.9492ZM39.1667 11.9492C39.1498 11.9586 39.1332 11.968 39.1169 11.9776L39.0678 11.965C39.1023 11.959 39.1354 11.9525 39.1667 11.9456L39.1667 11.9492ZM38.6924 12.5013C38.6915 12.4898 38.6917 12.4777 38.6929 12.465C38.6547 12.4686 38.6146 12.4715 38.5729 12.474L38.6662 12.4976L38.5195 12.4769C38.4325 12.4811 38.339 12.4833 38.2408 12.4837L35.58 12.1082C35.6148 12.128 35.6541 12.1469 35.6979 12.1642C36.1653 12.3497 37.3853 12.4868 38.2408 12.4837L38.5173 12.5227C38.5786 12.5198 38.6367 12.5159 38.6912 12.511L38.6933 12.5103L38.6934 12.5108L38.7065 12.5096L38.7063 12.5078L38.708 12.5082L38.7084 12.5036L38.6924 12.5013ZM38.6927 12.5043L38.6924 12.5013L38.6662 12.4976L38.6927 12.5043ZM38.7029 12.5069L38.6933 12.5103L38.6927 12.5043L38.7029 12.5069ZM38.7029 12.5069L38.7063 12.5078L38.7061 12.5058L38.7029 12.5069ZM37.8377 11.6509L37.6784 11.6103C37.7299 11.6295 37.7834 11.6432 37.8377 11.6509ZM37.8377 11.6509L38.0282 11.6996C38.0644 11.6956 38.1004 11.689 38.1357 11.6798L38.0317 11.6533C37.9675 11.6611 37.9021 11.6601 37.8377 11.6509ZM37.2212 11.4935C37.2518 11.4868 37.2832 11.479 37.3153 11.4703L37.4028 11.4927C37.3731 11.5018 37.3439 11.51 37.3153 11.5176L37.2212 11.4935ZM37.2212 11.4935L36.4358 11.293C36.4839 11.4849 36.7614 11.5955 37.2212 11.4935ZM36.4391 11.0928L36.4578 11.0965L36.4638 11.083L36.4391 11.0928ZM43.6345 14.3476L43.6357 14.3464L43.6353 14.3443L43.4385 14.4935C43.5017 14.4599 43.5635 14.4152 43.6234 14.3583C43.4659 14.5395 43.0185 14.8721 42.6415 15.0979L42.6666 15.1359L43.6643 14.3795L43.6345 14.3476ZM43.6345 14.3476L43.6234 14.3583L43.6334 14.3465L43.6345 14.3476ZM42.816 14.5123L42.8195 14.5136L42.8315 14.5015L42.8034 14.4661L42.7667 14.4897L42.7747 14.4939C42.6964 14.569 42.5873 14.6544 42.4629 14.7392L42.281 14.8561C42.1369 14.9435 41.9836 15.0244 41.8398 15.0859L41.8607 15.1263L42.281 14.8561C42.3439 14.818 42.405 14.7787 42.4629 14.7392L42.816 14.5123ZM42.816 14.5123L42.8277 14.5048L42.7996 14.4694C42.7917 14.4774 42.7834 14.4856 42.7747 14.4939C42.7879 14.5004 42.8017 14.5066 42.816 14.5123ZM42.5916 14.3114L42.5932 14.315L42.6166 14.2958L42.5905 14.2586L42.5754 14.2678L42.5761 14.2702C42.4497 14.3741 42.2604 14.5079 42.0567 14.6388L41.7407 14.8323C41.5536 14.9409 41.3748 15.0335 41.2403 15.0856L41.26 15.1265L41.7407 14.8323C41.8456 14.7714 41.953 14.7055 42.0567 14.6388L42.5916 14.3114ZM42.5916 14.3114C42.5856 14.2982 42.5805 14.2844 42.5761 14.2702L42.5879 14.2605L42.6139 14.2977L42.5916 14.3114ZM41.3472 14.2741L41.3475 14.2762L41.3804 14.2573L41.3816 14.2567L41.3603 14.2164L41.3465 14.2233L41.3464 14.2243C40.9831 14.4323 40.3459 14.7611 40.1311 14.8368L40.1486 14.8788L41.3472 14.2741ZM41.3472 14.2741C41.3455 14.2579 41.3452 14.2414 41.3464 14.2243L41.3592 14.217L41.3804 14.2573L41.3472 14.2741ZM40.55 13.9235L40.5515 13.9249L40.568 13.9141L40.5456 13.8745L40.5164 13.8894L40.5187 13.892C40.3701 13.989 40.2558 14.0619 40.1391 14.1326L39.3044 14.5572C39.218 14.5892 39.1379 14.6132 39.065 14.6287L39.0798 14.6715L39.3044 14.5572C39.4006 14.5215 39.5049 14.476 39.6162 14.4215C39.7327 14.3645 39.8552 14.2985 39.9829 14.2247C40.0374 14.1933 40.0885 14.1631 40.1391 14.1326L40.55 13.9235ZM40.55 13.9235C40.5389 13.9135 40.5284 13.903 40.5187 13.892L40.5434 13.8758L40.5658 13.9154L40.55 13.9235ZM40.4155 13.6075L40.4155 13.6112L40.4453 13.5932L40.4241 13.5529L40.4182 13.5557L40.4182 13.5564C40.2599 13.6522 40.1145 13.7378 39.9783 13.8144L39.1307 14.2155C39.0306 14.2511 38.9311 14.2817 38.8296 14.3079L38.8447 14.3508L39.1307 14.2155C39.394 14.1217 39.6611 13.9927 39.9783 13.8144L40.4155 13.6075ZM40.4155 13.6075L40.4432 13.5944L40.422 13.5541L40.4182 13.5564C40.4164 13.5737 40.4155 13.5907 40.4155 13.6075ZM39.5512 13.1761L39.5517 13.1772L39.5675 13.1701L39.5509 13.1277L39.5335 13.1339L39.534 13.1352C39.1323 13.3139 38.4183 13.5657 37.8725 13.728L37.8863 13.7714L39.5512 13.1761ZM39.5512 13.1761C39.5447 13.1628 39.539 13.1492 39.534 13.1352L39.5494 13.1283L39.566 13.1708L39.5512 13.1761ZM39.1565 12.7469L39.1579 12.7471L39.1634 12.7434L39.1421 12.7034L39.0747 12.7327L39.092 12.736C39.0234 12.7808 38.9516 12.8251 38.8777 12.8684L37.7232 13.3719C37.6484 13.3914 37.5766 13.4065 37.5089 13.4165L37.5211 13.4601L37.7232 13.3719C38.081 13.2789 38.5064 13.0862 38.8777 12.8684L39.1565 12.7469ZM39.1565 12.7469C39.1349 12.7436 39.1134 12.74 39.092 12.736C39.1077 12.7258 39.1232 12.7156 39.1386 12.7053L39.16 12.7454L39.1565 12.7469ZM35.4 12.3173L35.4014 12.3222L35.4234 12.3186L35.4223 12.2718C35.4123 12.2707 35.4016 12.27 35.3903 12.2696L35.3911 12.2761L35.0552 12.3309L35.0671 12.3761C35.1595 12.337 35.3056 12.3118 35.4 12.3173ZM35.4 12.3173C35.3959 12.3035 35.393 12.2898 35.3911 12.2761L35.4164 12.2719L35.4176 12.3187C35.4119 12.3181 35.4061 12.3176 35.4 12.3173ZM35.358 11.956L35.3593 11.9585L35.3724 11.9597L35.3805 11.9149L35.3376 11.9027L35.3398 11.9108C35.2623 11.9035 35.1869 11.8954 35.1137 11.8862L33.7983 11.5105C33.7459 11.4821 33.6951 11.4521 33.6458 11.4205L33.6275 11.4617L33.7983 11.5105C34.1503 11.7012 34.5743 11.8191 35.1137 11.8862L35.358 11.956ZM35.358 11.956C35.3502 11.9409 35.3442 11.9258 35.3398 11.9108L35.3764 11.9142L35.3683 11.959L35.358 11.956ZM35.1876 11.3404L35.1875 11.3419L35.2051 11.3474L35.2196 11.3027L35.218 11.3021L35.218 11.3021L35.2179 11.302L35.1991 11.2946L35.1986 11.296L34.3688 11.0364L34.363 11.0347L34.3503 11.0799C34.4631 11.1138 34.7978 11.2087 34.7694 11.2005C34.817 11.2142 34.8582 11.2265 34.8978 11.2388C34.9988 11.2702 35.0904 11.3021 35.1876 11.3404ZM35.1876 11.3404C35.1893 11.3252 35.193 11.3104 35.1986 11.296L35.2179 11.302L35.218 11.3021L35.2035 11.3468L35.1876 11.3404ZM36.1513 10.8886L36.1529 10.892L36.1544 10.8922L36.1658 10.8482L36.1313 10.8358L36.1332 10.8421C36.0397 10.8254 35.9508 10.8079 35.8664 10.7891L35.1261 10.523C35.0772 10.4933 35.0324 10.4616 34.9917 10.4276L34.9697 10.4668L35.1261 10.523C35.313 10.6366 35.5594 10.7207 35.8664 10.7891L36.1506 10.8912L36.1513 10.8886ZM36.1513 10.8886C36.1442 10.8736 36.1381 10.858 36.1332 10.8421L36.162 10.8472L36.1513 10.8886ZM36.197 10.5046L36.1656 10.5098C36.1603 10.5194 36.1555 10.5293 36.151 10.5395L36.1807 10.5475L36.1924 10.5581C36.1495 10.6564 36.1465 10.7901 36.2015 10.887C36.2772 11.0204 36.4511 11.0861 36.7373 11.0566L36.7742 11.0903L36.7864 11.0507C36.7697 11.053 36.7533 11.0549 36.7373 11.0566L36.1924 10.5581L36.1954 10.5513C36.2211 10.558 36.2469 10.5642 36.2727 10.5701L36.2027 10.5061C36.2774 10.5254 36.3525 10.5417 36.4279 10.5547L36.5482 10.6173L36.5612 10.5743C36.5166 10.5689 36.4722 10.5624 36.4279 10.5547L34.6416 9.62489C34.5997 9.58739 34.5584 9.54906 34.5175 9.50996L34.4917 9.54687L34.6416 9.62489C35.1089 10.0434 35.641 10.3592 36.197 10.5046ZM36.197 10.5046L36.2004 10.504L36.2027 10.5061L36.197 10.5046ZM36.1954 10.5513L36.1807 10.5475L36.1703 10.5379L36.2051 10.5321C36.2017 10.5383 36.1985 10.5447 36.1954 10.5513ZM43.1782 15.2547L43.1758 15.2573L43.1759 15.2574L43.1753 15.2581L43.209 15.2885C43.3593 15.1252 43.595 14.8443 43.6892 14.7167L43.6539 14.6882L43.6529 14.6893L43.6528 14.6892L43.6515 14.691L43.1782 15.2547ZM43.1782 15.2547C43.3269 15.0929 43.558 14.8174 43.6515 14.691L43.6529 14.6893L43.6881 14.7177L43.2095 15.2877L43.1759 15.2574L43.1782 15.2547Z" fill="black"/>
<path fill-rule="evenodd" clip-rule="evenodd" d="M42.4904 10.9367C42.5585 10.9002 42.5923 10.8899 42.6688 10.8752C42.6877 10.8715 42.6994 10.8689 42.7118 10.8653C42.7601 10.8511 42.8017 10.8239 42.8571 10.7669C43.2151 10.3976 43.7897 9.98591 44.1284 9.83848L44.1311 9.84477C44.1436 9.83892 44.1522 9.84186 44.1672 9.85726C44.1736 9.86382 44.1956 9.89083 44.2047 9.90209L44.2087 9.90698C44.2759 9.98587 44.3495 10.0116 44.4691 9.96648C44.5443 9.93789 44.5822 9.88265 44.597 9.80311C44.6012 9.78044 44.6027 9.7659 44.6058 9.72405C44.6097 9.67184 44.614 9.65862 44.6227 9.65783L44.6226 9.6567L44.6246 9.65628C44.6867 9.64307 44.7473 9.63755 44.8156 9.63926L44.8168 9.59358C44.7461 9.59181 44.6828 9.59743 44.6184 9.6109C44.6113 9.61158 44.6052 9.6129 44.5998 9.61499C44.5437 9.62794 44.485 9.64698 44.4094 9.67588C44.3595 9.69495 44.1439 9.78251 44.1461 9.78163C43.8069 9.91736 43.1995 10.3485 42.8249 10.7348C42.7746 10.7866 42.7395 10.8096 42.6992 10.8214C42.6885 10.8245 42.678 10.8269 42.6603 10.8303C42.5799 10.8458 42.5421 10.8573 42.4692 10.8963L42.4904 10.9367ZM44.5668 9.66763C44.5724 9.63811 44.5816 9.6221 44.5998 9.61499L44.6153 9.61155L44.6184 9.6109L44.6187 9.61087L44.6226 9.6567C44.6086 9.65965 44.5983 9.66152 44.5897 9.66309C44.5834 9.66423 44.578 9.66521 44.5727 9.66634L44.5668 9.66763ZM44.1884 9.81384L44.2602 9.78507C44.4914 9.69237 44.5339 9.67533 44.5668 9.66763C44.5642 9.68189 44.5623 9.69931 44.5608 9.7204C44.5578 9.76033 44.5565 9.77386 44.5527 9.7941C44.5407 9.85864 44.5124 9.89985 44.4537 9.92217C44.3529 9.96022 44.2981 9.94105 44.2425 9.87567L44.2414 9.87438L44.2414 9.87437C44.2356 9.86721 44.2076 9.83265 44.1989 9.82368C44.1954 9.82008 44.1919 9.8168 44.1884 9.81384ZM44.1884 9.81384C44.1648 9.79399 44.1406 9.78868 44.1126 9.80177L44.1284 9.83848C44.1401 9.83337 44.1516 9.82858 44.1627 9.82412L44.1884 9.81384ZM52.2509 12.0196L52.2299 12.0274L52.2143 11.9846L52.2505 11.971C52.2517 11.9867 52.2518 12.0029 52.2509 12.0196ZM52.0787 12.4252C52.1474 12.3407 52.2108 12.2198 52.2372 12.1098C52.2447 12.0783 52.2493 12.0482 52.2509 12.0196C53.2362 11.6515 53.7859 11.4148 54.4469 11.0293C54.7885 10.83 55.1059 10.6148 55.3986 10.3802L55.3706 10.3444C55.0797 10.5775 54.7641 10.7915 54.4244 10.9897C53.7696 11.3716 53.2239 11.6071 52.2505 11.971C52.2435 11.8783 52.1992 11.806 52.1141 11.7639C52.976 11.4807 53.7819 11.0995 54.0906 10.7932L54.059 10.7605C53.7495 11.0676 52.9212 11.4555 52.0444 11.7385L52.0444 11.7385L52.0444 11.7385C51.7869 11.8216 51.5254 11.8957 51.2715 11.956C51.2124 11.9273 51.1408 11.903 51.0564 11.8836C50.517 11.7593 49.705 11.8908 49.2085 12.1801C49.1417 12.1631 49.0753 12.1474 49.0103 12.1334C49.1611 11.9976 49.2402 11.8233 49.1788 11.6597L49.1366 11.6759C49.2611 12.0077 48.7092 12.4088 48.2357 12.3184L48.2273 12.3633C48.4886 12.4132 48.7727 12.322 48.9659 12.1707C49.2049 12.2204 49.4665 12.2939 49.7006 12.3767L49.701 12.3796L49.7062 12.3787C49.9813 12.4763 50.2177 12.5868 50.334 12.6866C50.4683 12.8016 50.5391 12.9039 50.5348 12.9821C50.5302 13.0678 50.432 13.1338 50.2225 13.1713C49.9621 13.2181 49.7948 13.23 49.5629 13.2046C49.5175 13.1956 49.4721 13.1869 49.4266 13.1782L49.4251 13.1864C49.3388 13.1734 49.2423 13.1563 49.13 13.135C48.8099 12.9067 48.3186 12.6822 47.8113 12.5057L47.7966 12.5489C48.2963 12.7227 48.7815 12.9443 49.097 13.1674L49.0956 13.1749L49.1119 13.178C49.202 13.2428 49.2775 13.3077 49.3347 13.3715C49.4734 13.5263 49.4559 13.6291 49.3037 13.6884C49.1536 13.7469 48.887 13.7535 48.581 13.7068C48.0061 13.6187 47.0514 13.1246 46.5666 12.6865L46.5365 12.7206C46.8294 12.9852 47.2901 13.2693 47.7382 13.4744L47.7369 13.4757C47.8474 13.5883 47.9502 13.7525 47.9962 13.9018C48.0392 14.0418 47.9836 14.1102 47.8566 14.1C47.6861 14.0869 47.5603 14.057 47.396 13.9779L47.3895 13.9918C47.3108 13.9008 47.2049 13.8141 47.0714 13.7403C46.7067 13.5387 46.2315 13.115 46.0104 12.8042L45.9738 12.8309C46.1988 13.1472 46.6791 13.5755 47.0498 13.7805C47.4691 14.012 47.5975 14.3675 47.4697 14.5554C47.3568 14.7216 46.9798 14.7434 46.604 14.5176C46.1548 14.2475 45.6358 13.3887 45.5662 12.7838L45.5214 12.7891C45.5926 13.4078 46.1193 14.2792 46.5809 14.5569C46.656 14.602 46.7315 14.6377 46.8053 14.6646C46.8394 14.7599 46.8534 14.8788 46.8448 15.0645C46.834 15.2974 46.6646 15.4547 46.4581 15.3758C46.2542 15.2981 46.097 15.1252 45.9917 14.9103L45.9513 14.9306C46.0611 15.1549 46.2259 15.3361 46.4422 15.4186C46.4988 15.4402 46.5531 15.4465 46.6031 15.44C46.7252 15.7019 46.7922 15.8941 46.7837 15.9641C46.7708 16.0694 46.7437 16.1016 46.6483 16.0791L46.6381 16.1237C46.766 16.1537 46.8128 16.0983 46.8285 15.9697C46.8384 15.8884 46.7721 15.6965 46.6485 15.4303C46.6738 15.4226 46.6977 15.4115 46.72 15.3974C46.8918 15.6271 47.0177 15.7907 47.1728 15.98C47.2194 16.0368 47.2646 16.0908 47.3085 16.1419C47.4713 16.3314 47.61 16.4744 47.7185 16.5599L47.7463 16.5239C47.6406 16.4405 47.5036 16.2994 47.3426 16.1119C47.2989 16.0611 47.2539 16.0073 47.2076 15.9508C47.0531 15.7624 46.9276 15.5992 46.7563 15.3703C46.8339 15.303 46.884 15.1942 46.8899 15.0667C46.8951 14.9545 46.8922 14.8652 46.8816 14.79C47.3293 15.3131 48.3807 16.2945 48.6937 16.4737L48.7159 16.4339C48.3957 16.2506 47.2735 15.1982 46.8644 14.699L46.8635 14.6998L46.8587 14.6826C47.121 14.7642 47.356 14.7339 47.4722 14.6223C47.7344 14.9689 48.5521 15.4555 48.9737 15.537L48.9822 15.4921C48.568 15.412 47.7508 14.9243 47.5027 14.5873L47.5069 14.5813C47.5835 14.4687 47.5804 14.3077 47.495 14.1449C47.7931 14.3971 48.2942 14.7688 48.7581 15.0946L48.7838 15.0571C48.288 14.7088 47.7487 14.3073 47.4637 14.058C47.5942 14.1114 47.7086 14.1344 47.8531 14.1456C47.9201 14.151 47.9731 14.1364 48.008 14.1049C48.3234 14.4367 49.1344 15.1048 49.4566 15.2657L49.4765 15.2247C49.1583 15.0658 48.3451 14.3953 48.0363 14.0687C48.0599 14.0247 48.0624 13.9635 48.0393 13.8883C48.0004 13.7619 47.9236 13.6268 47.8348 13.5175C48.104 13.6343 48.3637 13.7197 48.5743 13.752C48.6376 13.7616 48.6993 13.7691 48.7588 13.7743L48.7558 13.7776C49.1525 14.1329 49.8874 14.6192 50.3187 14.8271L50.3381 14.7858C49.9249 14.5867 49.2278 14.1279 48.8264 13.7793C48.9464 13.7865 49.0558 13.784 49.1487 13.7718C49.2716 13.8723 49.4995 14.013 49.8266 14.1961C49.8689 14.2198 49.9128 14.2442 49.9587 14.2694C50.0705 14.331 50.3395 14.476 50.5061 14.5658L50.6436 14.64L50.6651 14.5998L50.5269 14.5252C50.3602 14.4354 50.0918 14.2907 49.9803 14.2293C49.9345 14.2041 49.8907 14.1798 49.8485 14.1562C49.551 13.9896 49.336 13.8583 49.2097 13.7619C49.2507 13.7539 49.2877 13.7436 49.32 13.731C49.3534 13.718 49.3815 13.7027 49.4042 13.6852C50.2398 14.218 50.7719 14.4992 51.3159 14.6269L51.3261 14.5824C50.7908 14.4567 50.2637 14.1788 49.4381 13.6528C49.4788 13.6033 49.4852 13.5414 49.455 13.4701C49.5499 13.5085 49.6616 13.5557 49.8037 13.6169C49.8673 13.6443 50.0472 13.7225 50.1651 13.7738L50.2691 13.8189L50.36 13.8583C50.8811 14.0828 51.2082 14.211 51.4326 14.2692L51.4439 14.225C51.2225 14.1675 50.8966 14.0398 50.3777 13.8162L50.2868 13.7769L50.1833 13.7319L50.1829 13.7318C50.0651 13.6806 49.8851 13.6023 49.8213 13.5748C49.6528 13.5022 49.5267 13.4493 49.4208 13.4073L49.4206 13.4076C49.4061 13.386 49.3887 13.3637 49.3681 13.3408C49.3253 13.293 49.2729 13.2449 49.2122 13.1967C49.3462 13.2212 49.4568 13.2388 49.556 13.2498C50.4182 13.4196 51.2502 13.6426 51.4537 13.8191L51.4831 13.7844C51.2936 13.6201 50.6113 13.4247 49.846 13.2624C49.9633 13.2585 50.0821 13.243 50.2304 13.2163C50.3547 13.1941 50.4455 13.1608 50.5035 13.1168L50.5038 13.12C50.5383 13.1164 50.5723 13.1125 50.6057 13.1081C50.9962 13.2784 51.6226 13.325 51.9252 13.1784C52.0204 13.3702 51.8729 13.6592 51.7028 13.7142L51.7166 13.7577C51.8103 13.7274 51.8966 13.638 51.9489 13.5291C52.3932 13.6339 53.3916 13.6541 53.8757 13.5466L53.8663 13.5004C53.3919 13.6057 52.4099 13.5866 51.9677 13.4851C51.987 13.4339 51.9987 13.3798 52.0002 13.3264C52.6639 13.3871 53.463 13.3366 53.8705 13.1399L53.8516 13.097C53.4522 13.2898 52.6562 13.3397 51.9988 13.2789C51.995 13.2364 51.9842 13.1951 51.965 13.1568C51.97 13.1537 51.975 13.1506 51.9798 13.1474C52.0312 13.1131 52.0734 13.0749 52.1065 13.0344C52.9233 12.9159 53.5257 12.7244 54.0754 12.4465C54.1943 12.3864 54.4432 12.2447 54.6444 12.1302L54.6445 12.1302L54.6445 12.1302C54.7783 12.0541 54.8911 11.9899 54.9304 11.9698C55.002 11.9331 55.0691 11.9019 55.135 11.875L55.1182 11.8326C55.0509 11.86 54.9827 11.8917 54.91 11.929C54.8698 11.9496 54.7554 12.0147 54.6203 12.0916C54.4194 12.2058 54.1727 12.3462 54.0552 12.4056C53.5195 12.6765 52.9332 12.8646 52.143 12.9828C52.1797 12.9224 52.1981 12.8584 52.1989 12.7953C53.5724 12.4472 54.7621 11.9279 55.5619 11.2639L55.5332 11.2286C54.7411 11.8862 53.5604 12.4022 52.1963 12.7489C52.1836 12.6489 52.1259 12.5542 52.0257 12.4836C52.7513 12.327 53.228 12.1121 54.1465 11.5948L54.2065 11.561C54.4673 11.4141 54.6079 11.3367 54.7703 11.2527L54.7497 11.212C54.5868 11.2963 54.4458 11.3739 54.1845 11.5211L54.1245 11.5549C53.2364 12.0551 52.7643 12.2708 52.0787 12.4252ZM52.0246 12.4829C52.0426 12.4666 52.0608 12.4471 52.0787 12.4252C52.0572 12.43 52.0355 12.4348 52.0136 12.4395L52.0224 12.4813C52.0151 12.4762 52.0075 12.4713 51.9998 12.4665L51.9762 12.5054L51.9882 12.5131C51.5979 12.8275 51.2126 13.0134 50.6956 13.0951C50.6704 13.0857 50.646 13.0759 50.6225 13.0656L50.6046 13.1076L50.6057 13.1081C50.6361 13.1041 50.6661 13.0998 50.6956 13.0951C51.0903 13.2414 51.6742 13.2706 51.9322 13.1233L51.9278 13.1579L51.9174 13.164C51.9202 13.1687 51.9227 13.1735 51.9252 13.1784C51.9391 13.1716 51.9524 13.1644 51.965 13.1568C51.9623 13.1515 51.9594 13.1462 51.9564 13.1409L51.9281 13.1577L51.933 13.1228C51.9406 13.1184 51.9479 13.1139 51.955 13.1092C52.2037 12.9435 52.2133 12.6856 52.0161 12.5331L52.023 12.4842L52.0224 12.4813L52.0246 12.4829ZM52.008 12.5269L52.0122 12.4935L51.9882 12.5131C51.995 12.5176 52.0016 12.5222 52.008 12.5269ZM52.008 12.5269L52.0161 12.5331L51.933 13.1228L51.9322 13.1233L52.008 12.5269ZM51.9281 13.1577L51.9278 13.1579L51.9252 13.1784L51.9281 13.1577ZM52.0246 12.4829L52.0231 12.4842L52.0257 12.4836L52.0246 12.4829ZM52.1963 12.7489C52.1982 12.7642 52.1991 12.7797 52.1989 12.7953L52.1734 12.8017L52.1625 12.7574L52.1963 12.7489ZM52.143 12.9828L52.083 12.9916L52.0893 13.0369L52.1065 13.0344C52.1202 13.0176 52.1324 13.0003 52.143 12.9828ZM51.9988 13.2789L51.9797 13.2771L51.9755 13.3241L52.0002 13.3264C52.0007 13.3105 52.0002 13.2946 51.9988 13.2789ZM51.9677 13.4851L51.9422 13.479L51.9318 13.5249L51.9489 13.5291C51.9558 13.5147 51.9621 13.5 51.9677 13.4851ZM50.5507 13.0689C50.5337 13.0709 50.5165 13.0728 50.4992 13.0745L50.5035 13.1168C50.5229 13.102 50.5386 13.0861 50.5507 13.0689ZM50.4484 12.7314C50.5376 12.8239 50.584 12.9089 50.5799 12.9846C50.5782 13.0153 50.5685 13.0434 50.5507 13.0689C51.1417 12.9995 51.5572 12.8073 51.9838 12.458C52.0668 12.3899 52.1608 12.2346 52.1933 12.099C52.2316 11.9394 52.1875 11.8277 52.0455 11.7862L52.1141 11.7639C52.0933 11.7536 52.0701 11.7451 52.0444 11.7385L52.0444 11.7385L52.0333 11.7828L52.0455 11.7862C51.8075 11.8626 51.5662 11.9314 51.3307 11.9887C51.3126 11.9772 51.2929 11.9663 51.2715 11.956L51.2701 11.9563L51.2804 12.0008L51.3307 11.9887C51.4139 12.0414 51.4631 12.1057 51.4793 12.1793C51.5033 12.2887 51.4499 12.4092 51.3519 12.5027C51.1842 12.6626 50.8227 12.7564 50.4484 12.7314ZM50.3967 12.6813L50.3919 12.6808L50.3874 12.7263C50.4077 12.7284 50.4281 12.7301 50.4484 12.7314C50.4325 12.715 50.4153 12.6983 50.3967 12.6813ZM49.7982 12.3636C50.0449 12.4558 50.2536 12.5576 50.3632 12.6517C50.3748 12.6617 50.3859 12.6715 50.3967 12.6813C50.7786 12.719 51.1556 12.6271 51.3209 12.4694C51.4084 12.386 51.4552 12.2804 51.4352 12.1893C51.4102 12.0757 51.286 11.9833 51.0464 11.9281C50.5327 11.8098 49.7616 11.9292 49.272 12.1966C49.2508 12.191 49.2297 12.1855 49.2085 12.1801L49.1974 12.1867L49.2202 12.2261C49.2371 12.2161 49.2543 12.2062 49.272 12.1966C49.4196 12.236 49.5681 12.2816 49.7074 12.3306L49.6935 12.333L49.7006 12.3767L49.7062 12.3787C49.7351 12.3737 49.7658 12.3686 49.7982 12.3636ZM49.7982 12.3636C50.1622 12.3068 50.7276 12.2515 51.0205 12.2515V12.2043C50.7015 12.2043 50.0646 12.269 49.7074 12.3306C49.7382 12.3414 49.7685 12.3524 49.7982 12.3636ZM49.846 13.2624C49.753 13.2655 49.6609 13.2614 49.556 13.2498C49.5101 13.2407 49.4642 13.2319 49.4183 13.2231L49.4251 13.1864C49.474 13.1937 49.5196 13.1998 49.5629 13.2046C49.658 13.2233 49.7526 13.2426 49.846 13.2624ZM49.4206 13.4076L49.4043 13.4498L49.455 13.4701C49.4465 13.45 49.435 13.4292 49.4206 13.4076ZM49.4381 13.6528C49.4286 13.6643 49.4173 13.6751 49.4042 13.6852L49.3898 13.676L49.4139 13.6374L49.4381 13.6528ZM49.2097 13.7619C49.1961 13.7516 49.1836 13.7417 49.1721 13.7321L49.1435 13.7675L49.1487 13.7718C49.1699 13.769 49.1902 13.7657 49.2097 13.7619ZM48.8264 13.7793C48.8042 13.7779 48.7817 13.7762 48.7588 13.7743L48.7858 13.7434C48.7989 13.7552 48.8125 13.7672 48.8264 13.7793ZM48.0363 14.0687L48.024 14.0556L47.9911 14.0869L48.008 14.1049C48.0194 14.0946 48.0289 14.0825 48.0363 14.0687ZM47.4317 14.0445C47.4425 14.0492 47.4531 14.0537 47.4637 14.058C47.4414 14.0385 47.4206 14.0199 47.4016 14.0024L47.4 14.0041L47.3895 13.9918L47.3766 14.0191L47.3835 14.0224L47.3712 14.0362C47.4069 14.0691 47.4485 14.1055 47.495 14.1449C47.4775 14.1114 47.4564 14.0778 47.4317 14.0445ZM47.4317 14.0445C47.416 14.0376 47.3999 14.0303 47.3835 14.0224L47.4 14.0041C47.4111 14.0175 47.4217 14.031 47.4317 14.0445ZM47.5027 14.5873C47.4937 14.5997 47.4835 14.6114 47.4722 14.6223C47.4653 14.6132 47.4588 14.6042 47.4527 14.5953L47.4898 14.5692C47.4939 14.5752 47.4982 14.5812 47.5027 14.5873ZM46.8635 14.6998C46.8709 14.7277 46.877 14.7575 46.8816 14.79C46.8632 14.7686 46.8459 14.748 46.8297 14.7282L46.8635 14.6998ZM46.7563 15.3703L46.7429 15.3524L46.7069 15.3799L46.72 15.3974C46.7327 15.3893 46.7448 15.3802 46.7563 15.3703ZM46.6485 15.4303L46.6332 15.3977L46.5925 15.4173L46.6031 15.44C46.6186 15.4379 46.6338 15.4347 46.6485 15.4303ZM46.8587 14.6826C46.841 14.6771 46.8232 14.6711 46.8053 14.6646L46.8029 14.658L46.8451 14.6419C46.85 14.6551 46.8545 14.6686 46.8587 14.6826ZM47.8348 13.5175C47.8027 13.5036 47.7705 13.4892 47.7382 13.4744L47.769 13.4435C47.7914 13.4664 47.8135 13.4912 47.8348 13.5175ZM49.2122 13.1967C49.1863 13.1761 49.1588 13.1555 49.13 13.135L49.104 13.13L49.097 13.1674L49.1119 13.178C49.1468 13.1847 49.1802 13.1909 49.2122 13.1967ZM48.9659 12.1707C48.9813 12.1586 48.9961 12.1462 49.0103 12.1334C48.9918 12.1294 48.9734 12.1255 48.9551 12.1218L48.9462 12.1666L48.9659 12.1707ZM46.21 11.7076C46.0207 11.7619 45.9146 11.8167 45.7153 11.946L45.7391 11.9861C45.9351 11.8591 46.0377 11.8059 46.222 11.7531L46.21 11.7076ZM47.0902 12.651C47.61 12.9485 48.3088 13.2828 48.7939 13.4606L48.8093 13.4176C48.3267 13.2408 47.6302 12.9075 47.1124 12.6112L47.0902 12.651ZM48.98 12.6768C48.605 12.5987 48.2811 12.5476 47.9546 12.519L47.9585 12.4735C48.2869 12.5023 48.6125 12.5536 48.9891 12.632C49.1402 12.6635 49.2962 12.6984 49.4961 12.7451L49.6851 12.7895C49.8099 12.8189 49.9576 12.8537 50.0177 12.8677L50.0076 12.9122C49.9474 12.8982 49.7996 12.8634 49.6748 12.834L49.486 12.7896C49.2864 12.7431 49.1307 12.7082 48.98 12.6768ZM45.7462 12.835C45.8379 13.1143 46.4877 13.9369 46.7941 14.1318L46.8181 14.0931C46.5205 13.9038 45.8774 13.0897 45.789 12.8206L45.7462 12.835ZM46.3167 14.8151C46.2154 14.5654 45.5871 13.6192 45.2508 13.1733L45.2867 13.1456C45.6255 13.5948 46.2551 14.5429 46.3585 14.7978L46.3167 14.8151ZM46.1582 12.7706C46.3679 13.0111 47.0548 13.5401 47.3677 13.6676L47.3846 13.6252C47.0788 13.5006 46.3974 12.9759 46.192 12.7403L46.1582 12.7706ZM44.8823 10.2073C44.7559 10.2735 44.6636 10.3704 44.5876 10.5054L44.6265 10.5294C44.6984 10.4018 44.7844 10.3114 44.9025 10.2495L44.8823 10.2073ZM42.7831 11.7002C42.7707 11.5282 42.7882 11.3043 42.8345 11.1434L42.8779 11.1562C42.8332 11.3114 42.8161 11.53 42.8281 11.6969L42.7831 11.7002ZM42.8139 11.9836C42.7769 12.1431 42.8043 12.5141 42.8548 12.7193L42.8986 12.7083C42.8497 12.5095 42.8228 12.1452 42.8579 11.9941L42.8139 11.9836ZM42.9736 13.2108C42.9526 13.1772 42.9368 13.1455 42.9266 13.1157L42.9691 13.0998C42.978 13.1257 42.9923 13.1543 43.0114 13.1851C43.0355 13.2236 43.0665 13.2647 43.1038 13.3086C43.1347 13.3449 43.1599 13.3722 43.208 13.4228L43.176 13.4561C43.1273 13.4049 43.1017 13.3771 43.0701 13.34C43.0314 13.2945 42.999 13.2516 42.9736 13.2108ZM43.1495 12.2564C43.1287 12.5215 43.2731 13.0247 43.4197 13.1953C43.4519 13.4775 43.6458 13.8814 43.9196 14.1597L43.9516 14.1275C43.6849 13.8563 43.4954 13.4617 43.4591 13.1773C43.3155 13.0044 43.1747 12.5134 43.1945 12.26L43.1495 12.2564ZM43.0886 11.9609C43.0652 11.7934 43.0596 11.6254 43.0786 11.5187L43.123 11.5267C43.1051 11.6277 43.1105 11.7914 43.1333 11.9546L43.0886 11.9609ZM43.4767 10.4781C43.3867 10.7071 43.3365 11.1917 43.3633 11.3808C43.3684 11.417 43.3677 11.4262 43.3519 11.5783C43.323 11.8557 43.3344 12.0662 43.4253 12.338L43.4681 12.3233C43.3796 12.0587 43.3685 11.8545 43.3968 11.5831C43.4133 11.4241 43.4139 11.4164 43.408 11.3743C43.3823 11.1929 43.4316 10.7164 43.5186 10.495L43.4767 10.4781ZM43.7918 12.2337C43.6955 11.9074 43.692 11.1238 43.7915 10.7093L43.8354 10.7201C43.7377 11.1271 43.7411 11.9024 43.8351 12.2206L43.7918 12.2337ZM43.6691 12.3567C43.6146 12.6 43.6204 12.8818 43.6902 13.0939L43.7331 13.0794C43.666 12.8758 43.6604 12.6024 43.7131 12.3667L43.6691 12.3567ZM44.4889 11.9833C44.2182 11.6784 44.0543 11.2239 44.0655 10.869L44.1106 10.8705C44.0998 11.2136 44.2596 11.6567 44.5224 11.9527L44.4889 11.9833ZM43.9943 12.0078C43.9631 12.4016 43.9855 12.7633 44.0565 12.9699C44.0748 13.0232 44.0877 13.088 44.1058 13.2068C44.1143 13.2634 44.1192 13.2957 44.1234 13.3224C44.1305 13.3679 44.137 13.4063 44.144 13.4431C44.1781 13.6223 44.2228 13.7543 44.2938 13.8563L44.3307 13.8299C44.2642 13.7344 44.2213 13.6079 44.1883 13.4344C44.1815 13.3982 44.175 13.3603 44.168 13.3152C44.1638 13.2887 44.159 13.2565 44.1504 13.1998C44.1319 13.0783 44.1187 13.0117 44.0992 12.9549C44.0306 12.7554 44.0086 12.3995 44.0393 12.0115L43.9943 12.0078ZM44.358 12.6499L44.341 12.5852L44.3847 12.5734L44.4017 12.6384C44.4251 12.73 44.439 12.7991 44.4454 12.868C44.4547 12.9676 44.4458 13.0535 44.4143 13.1269L44.3728 13.1087C44.401 13.0432 44.4091 12.9648 44.4004 12.8723C44.3943 12.8063 44.3809 12.7393 44.358 12.6499ZM44.6059 12.2853C44.681 12.5342 44.7278 12.8387 44.717 12.971L44.762 12.9748C44.7733 12.8358 44.7257 12.5259 44.6491 12.272L44.6059 12.2853ZM44.9236 14.2997C44.8306 14.1348 44.7464 13.8714 44.7271 13.6587L44.7721 13.6546C44.7907 13.8606 44.873 14.1177 44.9628 14.2771L44.9236 14.2997ZM44.3923 14.2853C44.4775 14.5445 44.6239 14.8121 44.7563 14.9176L44.7842 14.8817C44.6605 14.7831 44.5178 14.5223 44.4351 14.2709L44.3923 14.2853ZM45.6448 15.0107C45.5544 14.7345 45.4951 14.6003 45.3523 14.3951L45.3892 14.3688C45.5351 14.5784 45.596 14.7162 45.6876 14.9963L45.6448 15.0107Z" fill="black"/>
<path fill-rule="evenodd" clip-rule="evenodd" d="M43.6992 14.4562C43.7274 14.4592 43.7449 14.4604 43.7933 14.4628C43.9058 14.4685 43.9453 14.48 43.996 14.5342C44.0294 14.5698 44.0625 14.6238 44.0983 14.7023C44.2233 14.9763 44.5649 15.3953 44.7645 15.5258L44.7643 15.5258C45.0287 15.9951 45.1461 16.6144 45.064 16.9468C45.0405 16.8005 44.9583 16.6879 44.8316 16.5957C44.7824 16.5599 44.751 16.5416 44.6655 16.4957C44.5524 16.5955 44.3874 16.7103 44.3041 16.7282L44.3135 16.7729C44.4075 16.7527 44.5799 16.6327 44.6716 16.5313C44.7132 16.568 44.7406 16.5872 44.771 16.6085L44.771 16.6085L44.771 16.6085L44.771 16.6085L44.771 16.6085L44.771 16.6085C44.7818 16.616 44.7929 16.6238 44.8052 16.6328C44.9232 16.7186 44.9982 16.8215 45.0195 16.9546L45.0639 16.9473L45.0609 16.9589L45.1045 16.9708C45.1922 16.6429 45.0861 16.0401 44.8364 15.5637C45.1441 15.7066 45.3408 15.8677 45.3793 16.0949L45.4221 16.1004L45.4443 16.0504C45.5469 15.8172 45.5859 15.657 45.5468 15.4915L45.5506 15.4962L45.5868 15.5401C45.7 15.6776 45.7834 15.7789 45.8451 15.8554L45.8408 15.856C45.8469 15.8995 45.8526 15.9658 45.8594 16.0669C45.8606 16.0849 45.8639 16.1372 45.8676 16.1966C45.8726 16.2772 45.8785 16.3711 45.8812 16.4102C45.8974 16.6502 45.9136 16.8102 45.9358 16.9145L45.9799 16.9049C45.9584 16.8035 45.9423 16.6449 45.9262 16.4071C45.9236 16.3681 45.9177 16.2745 45.9127 16.1938C45.9089 16.1343 45.9056 16.0819 45.9044 16.0638C45.9003 16.0026 45.8966 15.954 45.893 15.9152C45.9891 16.0369 46.0143 16.0796 46.0273 16.1256C46.0312 16.1395 46.0341 16.1536 46.0374 16.1703L46.0374 16.1703L46.0374 16.1703L46.0374 16.1703L46.0374 16.1704L46.0412 16.189C46.0788 16.3707 46.2236 16.6199 46.3689 16.78L46.4021 16.749C46.2619 16.5945 46.1212 16.3522 46.0854 16.1796L46.0806 16.1557C46.077 16.1376 46.074 16.1223 46.0698 16.1074C46.0472 16.028 45.9899 15.9584 45.6272 15.5178L45.6272 15.5178L45.5853 15.4669C45.5545 15.4295 45.5267 15.3952 45.5004 15.362L45.4623 15.3859C45.5521 15.5834 45.5268 15.7475 45.408 16.0205C45.341 15.8028 45.1353 15.6489 44.8306 15.5109C44.6547 15.4313 44.2708 14.9714 44.1393 14.6831C44.1016 14.6005 44.066 14.5425 44.0288 14.5027C43.968 14.4378 43.9187 14.4234 43.7956 14.4172C43.748 14.4148 43.731 14.4137 43.704 14.4108L43.6992 14.4562ZM45.893 15.9152C45.8905 15.8892 45.8881 15.8676 45.8855 15.8496L45.8451 15.8554C45.8628 15.8773 45.8786 15.8971 45.893 15.9152ZM45.0639 16.9473L45.0641 16.9473L45.064 16.9468L45.0639 16.9473ZM44.8364 15.5637L44.8122 15.5526C44.7975 15.5459 44.7815 15.5369 44.7645 15.5258L44.8035 15.5032C44.8148 15.5231 44.8257 15.5433 44.8364 15.5637ZM44.0157 15.1489C44.0948 15.39 44.1577 15.6795 44.1641 15.847L44.2092 15.8453C44.2026 15.6727 44.1389 15.3793 44.0585 15.1344L44.0157 15.1489ZM44.7003 16.3375C44.6932 16.2023 44.6091 15.8481 44.5253 15.6121L44.5678 15.5967C44.6529 15.8365 44.738 16.1947 44.7454 16.3351L44.7003 16.3375ZM45.4892 16.2553C45.5547 16.4151 45.5961 16.6674 45.5829 16.8177L45.6279 16.8218C45.6418 16.6639 45.5991 16.4042 45.5309 16.2378L45.4892 16.2553Z" fill="black"/>
</g>
</svg>
