<svg fill="none" height="53" viewBox="0 0 61 53" width="61" xmlns="http://www.w3.org/2000/svg" xmlns:xlink="http://www.w3.org/1999/xlink"><mask id="a" height="43" maskUnits="userSpaceOnUse" width="59" x="1" y="3"><rect fill="#fff" height="42.5" rx="4.24286" width="59" x="1" y="3"/></mask><rect fill="#009f60" height="42.5" rx="4.24286" width="59" x="1" y="3"/><g mask="url(#a)"><path d="m51.5713 25.6666h8.42857v19.8333h-8.42857z" fill="#ea8b42"/><g clip-rule="evenodd" fill-rule="evenodd"><path d="m43.1431 45.5h8.4285v-19.8334h-8.4285z" fill="#1a1919"/><path d="m34.7144 45.5h8.4285v-19.8334h-8.4285z" fill="#db3c36"/><path d="m45.2796 10.4037c-.1937.0055-.336-.0621-.3869-.1758.3157-.1869.5292-.1452.794.0928.0509-.1861 0-.39335-.112-.51766-.112-.1243-.2037-.1243-.3562-.1349-.1528-.01024-.3056-.05155-.4074-.05155-.1492-.33159-.5231-.1912-.8822-.0552-.5837.22082-1.1082.62191-1.3437 1.02221-.1077.1831-.1207.2552-.1868.359.0546-.007.051-.007.0849-.0278-.0408.4559-.095.8771-.0137 1.1465-.1015.3937-.0202.6423.1019.7666.1224.1243.173.1763.1936.3214.0202.1448.0813.2793.1831.3623.1019.083.1629.2073.173.28.0102.0724.3251.3846.4581.4662.0509.0307.061.0932.1224.1758-.1325.7875.397 1.575.2746 2.3519.0917.0102.2138 0 .3363-.0311.1015.6628.1625.9842-.4075 1.1809-.57.197-.8817.3908-.7228.6112.112.1554.3439.0201.4887-.114.112-.1035.2442-.1967.3461-.2278.1018-.0311.1224 0 .0711.1345-.0509.1349-.3254.4249-.3359.57-.0101.1451.112.2486.3056.1345.1933-.114.3634-.4124.4071-.5904.0303-.1243.0816-.2073.0712 0-.0102.2073-.1322.5802.1426.6423.2749.0622.3566-.2694.2648-.5699-.0917-.3002-.1221-.4661-.0816-.5696.0408-.1038.0816-.1656.1831-.1349.1019.0311.3056-.0102.2955-.1759-.0105-.1656-.1528-.3005-.3157-.2072-.1629.0932-.285.0793-.2138-.1243.0509-.1452.1426-.3214.1528-.4351.1119.1656.743.1865.9977.0311.061.3107.2239.5904-.1323.8807-.3565.2899-.6415.5696-.6314.7769.0105.2073.0918.3312.2749.2277.1832-.1034.2951-.2486.336-.3831.0408-.1349.1224-.1349.0816.0311-.0408.1656-.112.4039-.0816.5491.0307.1448.2546.1554.346.0205.0918-.1346.0712-.3108.0509-.487-.0202-.1762.0105-.3623.051-.4351.0408-.0724.1221-.1762.2037.0209.0816.1967.1221.352.285.404.1629.0519.285-.0209.2547-.2176-.0307-.1967-.2446-.4146-.4581-.5802-.2138-.1656-.1426-.2486-.1325-.4039.0101-.1554-.0203-.4351-.0307-.5594.1936.1451.4074.1243.5089.1243.1019 0 .2691-.0318.1019-.1865-.3359-.3107-.224-.4975-.458-.7253-.2341-.2277-.448-.5802-.5191-.8803-.0715-.3005-.2283-.8497-.5397-1.1293-.173-.1554-.2239-.5802-.1831-1.0672.0404-.487.0509-1.0255-.3869-1.2741s-.4277-.4559-.285-.6734c.1423-.2175.3255-.4303.5599-.4457.0527-.0033.1745-.0135.224-.05-.0221-.0172-.0578-.0447-.1221-.0432" fill="#ea8b42"/><path d="m42.4327 11.5227c-.0108.2105-.0058.3959.0372.5385-.1015.3937-.0202.6423.1019.7666.1224.1243.173.1762.1936.3214.0202.1447.0813.2793.1831.3623.1019.083.163.2073.1731.28.0101.0724.3251.3846.458.4661.0509.0308.061.0933.1225.1759-.0553.3272.0028.6544.0823.9809-.7195.6076-1.4297.321-1.131-.3005-.5974.4833-1.6287.4697-1.3979 0-.9367.3316-1.2217.0552-1.0996-.2486-.7871.3177-1.1946.0139-1.0858-.2073-.6517.1795-1.0725.0691-1.1404-.0413-.0676-.1105.095-.3591.2445-.4834-.2987.1105-.5837.1105-.8553.0691-.2713-.0416-.2034-.1246-.1492-.2489.0545-.1243.1257-.321.3428-.5144-.5191.1034-1.1708.1762-1.6288.0205-.0863-.0293-.2341-.0622-.1427-.1551.0918-.0932.3667-.3213.7026-.4664-.7636.114-2.2092.197-2.6163-.2691.3969.0826.9059-.083 1.2317-.2175-1.2827-.1452-3.0335-1.0361-3.0541-1.9062.3666.6006.998.8079 1.6291.9944-.8554-.5078-1.2115-1.1191-1.2419-1.52309.4884.47669 1.2314 1.01529 1.9647 1.13989-.5194-.2797-1.1913-1.09821-1.3744-1.66817.3767.34183 1.3437.89097 2.0055 1.06717-.4581-.3627-1.2011-1.22254-1.1606-1.69891.173.17622.6007.50744 1.4759 1.02549.8756.51802 1.3506.48002 2.0735.63542-.1323-.1795-.2511-.4179-.2612-.48005.2138.03108.4172.11405 1.028.49725.6109.3835 1.9456.5008 2.7081.8394.5596.2486 1.3572.0932 1.5811.2486" fill="#ea8b42"/><path d="m47.0399 16.8432c.0336-.0271.0336-.0739-.0502-.151-.336-.3108-.224-.4976-.4581-.7253-.234-.2278-.4479-.5802-.519-.8804-.0716-.3005-.2283-.8496-.5397-1.1293-.173-.1554-.224-.5802-.1831-1.0672.0346-.4167.0473-.8712-.2244-1.1494.509-.1451.9779-.1766 1.1404-.0109.8449-.2176 1.5782-.2834 2.2974-.3313.8279-.0555 2.3888-.4145 3.5021-1.1742-.0679.2763-.4479.6906-.7875.8978 1.1267-.2763 2.4841-.7874 3.6379-1.65754-.0137.60794-.5021 1.06354-.7875 1.31244.7875-.4423 1.9409-.99475 2.3346-1.68535.173.70779-1.0042 1.63345-1.6425 2.14455.6517-.3177 1.4933-.6113 1.8192-1.081-.0069.5732-.7467 1.2846-1.4525 1.6989.7195-.2761 1.5204-.5663 1.9817-.9944.0541.5769-2.1515 1.9029-3.2442 2.2652.9504-.2348 2.1854-.5525 2.7283-.884-.0271.1173-.2485.2818-.4096.4017-.6639.4951-1.6822.7608-2.305.8829.0817.3455-.0271.5389-.4071.5663-.38.0278-1.2997-.1206-1.7609-.3557-.068.0413-.1496.0556-.2413.0658.4479.3419.6007.5905.5089.7356-.0914.1451-.4121.1188-.6563.0673.1932.5491-.4534.5129-.9927.2018.2139.28.2446.518-.0509.5802-.2951.0621-.5296.0416-.8146-.1452-.0202.2073-.2171.3455-.4782.2764.8958.5491.8449.7495.6921.9564-.1525.2073-.6871.166-.9721-.0205-.1221.4249-.609.4263-.9724.0881-.0032.1693-.35.5053-.6928.3013" fill="#ea8b42"/><path d="m42.8841 18.9264c.0149-.1309.0271-.283.1355-.3798.1087-.0969.1766-.1795.2716-.083.095.0968.034.1868-.095.2281-.1289.0413-.2171.1587-.2376.2347-.0203.076-.0882.1174-.0745 0" fill="#000"/><path d="m43.6236 19.5617c-.0672-.2171-.0336-.4972.0409-.5802.0747-.0829.1697-.1381.2579-.0552.0881.083.1221.2004-.0409.2695-.1441.061-.156.2139-.1625.3246-.0069.1104-.0545.1726-.0954.0413" fill="#000"/><path d="m44.5737 19.0023c-.0524.0889.0133.449.19.5386.1249.0636.1831.0486.1083-.0691-.0744-.1174-.0473-.2278-.0065-.29.0405-.0621.034-.1725-.0545-.2277-.0882-.0556-.1969-.0209-.2373.0482" fill="#000"/><path d="m45.3407 18.6777c-.1119-.0856-.2171.0172-.2579.0896-.0816.1451-.0202.3524.1088.4697.1289.1174.1083-.0413.0675-.1104-.0405-.0691-.0473-.2073.0408-.2212.0882-.0135.1496-.1451.0408-.2277" fill="#000"/><path d="m45.9788 18.9124c-.1091-.0325-.2171.083-.2037.2212.0101.1031.0205.2347.122.3038.0683.0461.1156.076.0817-.0483-.034-.1243.0206-.2281.0813-.2625.061-.0343.0339-.1795-.0813-.2142" fill="#000"/><path d="m46.8814 18.3252c-.0791.0563-.0747.1868 0 .2351.0745.0482.1832.1173.163.2347-.0206.1173.0404.159.095.0278.0541-.1313.061-.3247 0-.4146-.0614-.09-.1904-.1313-.258-.083" fill="#000"/><path d="m44.9132 10.2183c.0472.1054.1825.1677.3657.1625h.0001c.0582-.0014.0935.0144.1359.0844-.0447.0331-.129.0478-.2358.0544-.1945.0128-.3645.1634-.5426.4355-.1603.2445-.1042.4243.2773.6409.3791.2152.4569.5902.3983 1.2959-.043.5128.0189.9075.1756 1.0482.2593.2329.4263.6353.5467 1.141.0687.2897.2766.6394.5128.8692.0555.0541.0951.1085.1269.1707.0182.0357.0315.068.0531.1259.0745.1999.1248.287.2776.4284.0847.0783.1012.1435.0488.1859-.0345.028-.0967.0402-.1659.0402-.0173.0002-.0173.0002-.0376.0006-.1643.003-.2702-.0106-.3919-.0717-.0179-.0091-.0355-.019-.0527-.0299.0008.0088.0016.0182.0025.0277.0031.0344.0064.0708.0079.0876.0044.0513.008.0968.0108.1402.0072.1087.0094.1955.0052.2593-.0015.0241-.0042.0452-.0093.0783-.0095.0613-.0114.078-.0095.1047.0044.0653.0427.1239.1426.2013.2616.203.4382.4127.4666.5948.0316.2047-.0957.3028-.2837.2428-.1151-.0366-.1744-.1126-.2427-.2772-.0037-.0091-.0136-.0336-.0242-.0601-.0126-.0313-.0262-.0652-.0322-.0796-.0333-.0803-.0634-.1061-.0901-.0983-.0229.0066-.0484.036-.0731.0798-.0419.0754-.0665.2621-.0482.4213l.0002.0016c.0309.2692.0256.3828-.0549.5009-.1022.1507-.3516.1371-.3868-.0287-.016-.0768-.0071-.1783.0216-.3129.0079-.0371.017-.0755.0289-.1227.0011-.0044.0042-.0168.0082-.0323.008-.0315.0193-.0759.0231-.0915.0157-.0638.0114-.0996.0076-.1003-.0064-.0013-.0298.0288-.0457.0815-.0457.1506-.1691.2962-.3465.3964-.1872.1057-.2961-.0019-.3085-.2466-.0095-.195.2048-.442.6398-.7958.0845-.0689.1413-.1388.175-.212.061-.1326.0521-.2344-.0149-.4945-.0138-.0536-.0224-.0885-.0296-.1214-.2571.1328-.7953.1214-.9664-.0171-.0117.0546-.0368.1211-.0874.2429l-.0002.0006c-.0318.0764-.0454.1105-.0593.1502-.0303.0865-.0239.1322.0063.1447.0328.0134.097-.0032.1751-.0479.1683-.0963.337.0298.3494.2257.0099.1623-.1778.2439-.3245.1992-.0762-.0231-.1109.0074-.1557.1214-.036.092-.013.243.0822.5544.1061.3476-.0145.6616-.2912.599-.1694-.0382-.2137-.1737-.19-.4107.0029-.0293.0064-.0574.0123-.1012.013-.0958.0156-.1176.0174-.1539.0016-.0333.0017-.0597.0004-.0787-.0086.0205-.0188.0512-.0272.0854-.0522.2129-.2377.4985-.4176.6047-.1932.1138-.3521.0254-.3395-.156.0048-.0667.052-.1517.1492-.2894l.0269-.0378c.1231-.1718.1435-.202.1613-.2493.0448-.1174.0382-.1294-.0436-.1044-.0918.028-.2187.1132-.3373.2227-.2012.1864-.4145.2602-.5222.1107-.0853-.1183-.0501-.2351.0925-.346.1255-.0976.3368-.1951.6413-.3004.4824-.1664.5194-.3266.4202-1.137-.1226.0311-.2478.0424-.3641.0053.05-.3169.0108-.5716-.1383-1.1536-.1525-.5953-.1926-.8635-.132-1.1809-.0158-.0213-.0291-.0422-.0429-.0665-.0022-.0039-.0072-.0131-.0126-.0228-.0067-.0123-.014-.0256-.0167-.0302-.0152-.0263-.0273-.0406-.0439-.0506-.1446-.0887-.4577-.4039-.4687-.4825-.011-.0793-.0776-.1944-.1648-.2654-.1025-.0835-.1694-.2195-.1913-.3769-.0175-.1228-.0433-.1622-.1873-.3084-.1506-.1534-.2004-.4291-.1075-.7761-.0627-.2081-.0569-.4084.0017-1.0334l.0073-.0794c-.0066.0023-.0138.004-.0234.0056-.0057.0009-.009.0014-.0123.0018-.0046.0007-.0091.0013-.02.0027l-.0218-.0351c.0134-.0211.0252-.0417.0368-.0643.0097-.0193.0098-.0195.0191-.0389-.0012.0024.0371-.0798.0504-.1071.0234-.0475.0486-.0945.08-.148.2392-.4065.769-.81013 1.3553-1.03191.5556-.21044.7788-.22559.89.05375.0491 0 .0739.00346.2183.02721.0826.01358.1355.0207.1907.0244l.0348.00236c.1302.00887.1847.0206.2507.06417.029.01912.0571.04393.0858.07577.1202.13339.1688.34995.1171.53915l-.0368.011c-.2663-.2394-.4696-.2665-.7584-.1194zm.4748.2465c-.0355-.0277-.0618-.0395-.1078-.0384h.0001c-.1996.0056-.3522-.0646-.3989-.2185.3046-.1802.5246-.1584.792.0707-.0024.012-.0052.024-.0084.0358l.0367-.011c-.0095-.0085-.0189-.0168-.0283-.0248.0329-.1653-.0132-.34698-.1153-.46036-.0262-.0291-.0515-.05137-.0771-.06828-.0576-.03802-.1062-.04848-.2291-.05685l-.0348-.00237c-.0569-.00381-.1109-.01108-.1949-.02488-.0262-.00431-.0483-.00793-.0675-.01106-.084-.01373-.1104-.01804-.1641-.02894-.1165-.25883-.3212-.24495-.8537-.04327-.5773.21839-1.0988.61571-1.3322 1.01251-.0309.0524-.0555.0985-.0784.1449-.0135.0277-.0537.1142-.0499.106-.0097.0205-.0097.0205-.02.0408-.0043.0084-.0087.0166-.0131.0246-.0042.0016-.009.0028-.0169.0041-.0048.0007-.0078.0012-.0107.0016-.0044.0006-.0088.0012-.02.0026l.0218.0351c.0092-.0145.0177-.0287.0258-.0434.0008-.0003.0016-.0007.0024-.001.0047-.0022.0088-.0046.026-.0153l.0342.0216-.0112.122c-.0578.6171-.0636.8161-.0032 1.0282-.0889.3449-.0421.604.096.7447.1504.1526.1809.1992.2.3343.0205.1466.0822.2721.175.3477.0959.0782.1685.2036.1812.2947.0084.0604.3136.3677.4472.4496.0242.0146.0409.0344.0596.0667.003.0051.0108.0194.0178.0321.0051.0093.0098.0177.0118.0213.0033.006.0067.0117.0102.0176.0096.0165.0199.0343.0338.0617-.055.3264-.0155.5903.1354 1.1794.1506.5881.1904.8469.1193 1.1459.0837.0093.192.0009.3222-.0093.0111-.0008.0225-.0017.034-.0026.1299.8488.0882 1.0298-.4225 1.206-.3001.1037-.5078.1995-.6283.2933-.1251.0974-.1523.1875-.0836.2829.0845.1172.2719.0523.4553-.1175.1231-.1138.2552-.2024.3548-.2328.1248-.0381.1551.0166.0987.1646-.02.0531-.0394.0819-.1669.2597l-.0267.0376c-.0917.1299-.1369.2114-.1409.2661-.01.1432.1087.2092.2717.1132.1684-.0994.3471-.3745.3966-.5762.0171-.0701.0386-.1232.0602-.1378.0266-.018.0463.002.0526.0339.0044.0228.0054.0593.0028.1105-.0019.0382-.0045.0603-.0177.1578-.0059.0433-.0093.071-.0122.0996-.0216.2167.0155.33.155.3616.2309.0522.3359-.2211.2382-.541-.0984-.3219-.1223-.4791-.081-.5847.0524-.1333.1057-.1801.2106-.1484.121.0369.274-.0296.2665-.1525-.0105-.1653-.1462-.2666-.2821-.1889-.0891.051-.1651.0708-.2143.0505-.0592-.0244-.0692-.0957-.0319-.2023.0143-.0408.0281-.0754.0602-.1526l.0002-.0006c.0635-.153.0858-.2165.0912-.2762l.0411-.0109c.1042.1542.7224.1739.9674.0244l.0338.0151c.0083.0425.0174.0801.0352.1493.0697.2704.0792.3797.0122.5254-.0368.0799-.098.1553-.1876.2283-.422.3431-.6315.5847-.623.7579.0109.2158.0903.2943.2413.209.1676-.0947.2832-.2311.3254-.3699.0221-.0731.0589-.1203.0971-.1131.0423.0081.0496.0685.028.1564-.0039.0157-.0153.0604-.0233.092-.0039.0154-.0071.0277-.0081.032-.0118.0467-.0207.0846-.0285.121-.0275.1288-.0359.2251-.0216.2938.0259.1222.2237.133.3054.0123.0719-.1054.0769-.2119.0473-.4697l-.0002-.0017c-.0193-.1679.0065-.364.0538-.449.0303-.0538.0619-.0902.0999-.1012.0546-.0159.1032.0255.1442.1245.0061.0147.02.0492.0326.0806.0105.0262.0202.0503.0238.0591.0636.1534.1154.2198.2146.2514.1574.0501.2517-.0226.2256-.1922-.0261-.1669-.1965-.3694-.4495-.5656-.1093-.0847-.1547-.1543-.1602-.2345-.0022-.0314-.0002-.0498.0099-.1149.005-.0319.0075-.0518.0089-.0742.004-.0613.0019-.1464-.0052-.2533-.0028-.043-.0064-.0882-.0108-.1392-.0014-.0167-.0047-.0528-.0078-.0871-.0031-.0341-.006-.0664-.0068-.0764l.0359-.0203c.0276.0207.0563.0384.0862.0534.1135.0571.2133.0699.3709.067.0203-.0004.0204-.0004.0383-.0005h.0001c.0596 0 .1136-.0107.1378-.0303.0247-.02.016-.0544-.0511-.1165-.159-.1471-.2126-.24-.2894-.446-.021-.0563-.0337-.0873-.051-.1211-.0295-.0577-.0662-.1081-.1181-.1586-.2422-.2357-.4546-.593-.5254-.8915-.1183-.497-.2825-.8929-.5327-1.1175-.171-.1537-.2348-.5598-.1906-1.0862.0572-.6889-.0176-1.049-.3755-1.2523-.4032-.2289-.4684-.4381-.2927-.7059.1852-.2831.3644-.4419.5773-.4559.0306-.0019.0596-.0046.086-.0071.0571-.0053.1021-.0095.1256-.002z" fill="#000"/><path d="m41.8824 11.4146c.3481.0124.4747.0282.5627.0892l.0098.02c-.0121.2344-.0022.4031.0365.5431-.0889.345-.0422.6041.096.7448.1503.1526.1808.1992.2.3343.0205.1466.0821.2721.1749.3477.0959.0781.1686.2036.1812.2946.0085.0605.3137.3678.4473.4497.0242.0146.0408.0343.0596.0666.003.0052.0108.0194.0177.0321.0051.0093.0098.0178.0118.0213.0034.006.0067.0117.0102.0176.0096.0166.02.0343.0338.0617-.0476.2818-.0173.5633.0746.9946-.3406.2876-.7086.3979-.9686.3149-.2357-.0751-.3284-.2927-.2306-.5636-.2772.1974-.6454.3126-.956.3109-.3198-.0018-.5003-.1307-.4286-.3421-.7727.2616-1.2026.1134-1.0967-.2476-.6396.2405-1.1695.0737-1.0857-.2128-.5491.1421-1.027.0919-1.1222-.0629-.0593-.0969.033-.2928.1731-.4412-.2427.0719-.49.0798-.7681.0375-.131-.0201-.1959-.0511-.2133-.1041-.0133-.0403-.0092-.0525.0406-.1626l.0063-.0141c-.0002.0004.0326-.0759.0438-.1008.0197-.0436.0391-.0824.061-.1211.05-.088.1101-.169.1862-.2459-.635.1198-1.1768.1363-1.5635.0048-.0048-.0016-.0179-.0058-.0307-.01-.0115-.0037-.0227-.0073-.0273-.0088-.054-.0181-.0872-.0339-.1083-.0561-.0318-.0335-.027-.0755.0148-.1179.1235-.1255.3418-.2868.5741-.4069-1.1022.1465-2.157.0826-2.4888-.2974l.0214-.0375c.3093.0644.7071-.0153 1.1368-.1834-1.4073-.1895-2.9672-1.1138-2.9863-1.9174l.0418-.0126c.2855.4677.6664.6903 1.4513.9346-.6794-.4432-1.0715-.9938-1.1058-1.44946l.0382-.01818c.555.54174 1.2161.96484 1.8232 1.10754-.5028-.3299-1.098-1.07664-1.2701-1.61231l.0365-.02408c.3836.34801 1.2734.83959 1.8902 1.03139-.5616-.4757-1.1171-1.24437-1.0828-1.64807l.0385-.01415c.2145.2185.707.56945 1.4713 1.02186.4736.28016.8345.40886 1.3098.49746.0673.0125.1323.0237.2347.0406.2526.0417.3458.0578.4654.0827-.1108-.1616-.22-.3725-.2313-.44194l.0255-.02633c.2375.03451.4645.14147 1.0368.50037.2757.1731.6127.2749 1.4306.4668l.0377.0088c.6601.1549.9534.2365 1.2369.3623.1479.0657.3207.1068.5268.1308.1394.0162.2402.0217.4953.0307zm.5267.12c.0002-.0044.0004-.0088.0006-.0132l.0098.0201c-.0034-.0024-.0068-.0047-.0104-.0069zm-8.5152 1.069c.3286.0448.7369-.0509 1.1732-.231l-.006-.0439c-1.3551-.1533-2.8918-1.0234-3.0249-1.7921.3078.4566.7315.671 1.5911.925l.0177-.0417c-.7254-.4306-1.157-.9839-1.224-1.44343.5917.56503 1.2959.99443 1.9317 1.10253l.0143-.0427c-.4889-.2632-1.1198-1.0146-1.3351-1.57458.4424.36868 1.3574.85808 1.9498 1.01578l.0197-.04c-.5547-.43925-1.1372-1.20974-1.1531-1.62801.2343.22324.7168.56238 1.4431.99226.4784.28305.8441.41345 1.3244.50295.0676.0126.1329.0238.2356.0408.2901.0479.3692.0618.5201.0943l.0228-.036c-.1031-.14-.2149-.3448-.248-.43821.2183.03891.4461.15041.9849.48841.2818.1769.6207.2792 1.4442.4724l.0378.0089c.6571.1542.949.2354 1.2289.3596.1526.0678.3296.1099.5398.1343.141.0164.2425.0219.4989.0311.3213.0114.45.0261.5283.0743-.0113.2325-.0008.4018.0388.5332-.0929.347-.0432.6227.1074.7761.1441.1462.1699.1856.1873.3085.022.1573.0889.2933.1914.3768.0871.071.1538.1862.1648.2655.011.0785.324.3937.4687.4824.0166.01.0287.0244.0439.0506.0027.0047.0099.0179.0167.0302.0053.0097.0104.0189.0126.0228.0137.0243.0271.0452.0429.0665-.0531.2718-.0223.5587.0785.9726-.3223.2554-.675.3611-.9187.2834-.2303-.0735-.3064-.2959-.1701-.5794l-.0344-.0278c-.2745.222-.6688.3542-.9954.3524-.3156-.0018-.4665-.1244-.3682-.3244l-.0277-.0318c-.8072.2858-1.2121.1323-1.0712-.2184l-.0293-.0298c-.6618.2671-1.1867.0875-1.0572-.1759l-.0262-.0322c-.5497.1514-1.0317.1046-1.1153-.0314-.0528-.0863.0756-.3171.2397-.4535l-.022-.0392c-.2669.0987-.5356.115-.8443.068-.1153-.0177-.1671-.0425-.1772-.0733-.0077-.0232-.0033-.036.0388-.1293l.0065-.0145c.1152-.2625.1579-.3378.3101-.4817.0065-.0062.0098-.0093.0132-.0123.0034-.0031.0068-.0062.0138-.0125l-.0193-.0396c-.661.1318-1.2244.1548-1.6172.0213-.0051-.0018-.0189-.0062-.032-.0105-.0112-.0036-.0219-.007-.0262-.0084-.047-.0158-.0756-.0294-.0899-.0444-.0131-.0139-.0115-.0278.0142-.054.1435-.1457.4211-.3431.6954-.4616l-.0121-.0436c-1.0857.1622-2.1619.1225-2.546-.2118zm0 0c-.0183-.0159-.0351-.0325-.0501-.0498l-.0215.0375c.0234.0049.0473.009.0716.0123zm3.2524-2.63801c-.0046-.01291-.0076-.0237-.009-.0319l-.0254.02633c.0114.00167.0229.00352.0344.00557zm-3.298-1.1561c-.0007-.01764-.0004-.03465.001-.05099l-.0385.01415c.0117.01191.0242.02419.0375.03684zm-.8164.65223c-.0105-.02732-.02-.05418-.0285-.0805l-.0365.02408c.0203.01844.042.03726.065.05642zm-.6109.51475c-.003-.02074-.0053-.04129-.0068-.06164l-.0382.01818c.0149.01458.03.02906.045.04346zm-.3848.56013c-.0054-.0308-.0084-.0615-.0092-.0919l-.0417.0125c.0166.0273.0336.0537.0509.0794z" fill="#000"/><path d="m47.0284 16.8628-.0026-.0375c.0247-.0199.0159-.0544-.0513-.1163-.159-.1471-.2126-.24-.2894-.446-.021-.0563-.0337-.0873-.051-.1211-.0295-.0577-.0662-.1081-.1181-.1586-.2422-.2357-.4546-.593-.5254-.8915-.1183-.497-.2825-.8929-.5327-1.1176-.171-.1536-.2348-.5597-.1906-1.0861.0053-.0647.0096-.1262.0126-.1848l.0145.0079-.0003.0017.0025-.0005c.009.0048.0181.0095.0271.0141-.0029.0528-.0068.1079-.0116.1655-.043.5128.0189.9074.1756 1.0481.2593.2329.4263.6353.5467 1.1411.0686.2897.2765.6394.5127.8692.0555.054.0952.1085.127.1706.0182.0358.0315.068.0531.1259.0745.1999.1247.2871.2775.4284.0699.0643.0935.1201.0704.1613-.0081-.004-.016-.0084-.0239-.0131l.0026.0376c.0092-.0075.0163-.0156.0213-.0245.2738.1382.6309-.0866.6349-.2951l.0378-.0164c.367.3415.8231.3135.9355-.0777l.0339-.0128c.2921.1911.8049.2121.9417.026.1885-.2552.0777-.4552-.6857-.9231l.0174-.0417c.2385.0631.4304-.0547.4501-.2565l.0348-.0169c.2631.1725.4857.2076.7976.1419.2558-.0538.2607-.2518.0377-.5439l.0291-.0338c.2679.1546.5594.2388.7576.2188.209-.0211.2878-.1508.2025-.3931l.0259-.03c.3131.0661.5617.0557.6327-.0572.0858-.1357-.0795-.3814-.5035-.705l.0111-.041c.1107-.0123.1761-.0285.2539-.0635.4194.2137 1.3262.3843 1.7493.3534.3539-.0256.4681-.1938.4044-.566.9078-.178 1.743-.4667 2.2959-.8789.0599-.0446.0867-.0647.1209-.0912.0486-.0377.0899-.0714.126-.1035.0557-.0494.0974-.0935.1237-.1315.0221-.0125.0434-.025.064-.0376l-.0336-.0247c-.0043.0184-.0145.0392-.0304.0623-.4655.2623-1.2788.5053-2.6706.8491l-.0124-.044c1.2359-.4097 3.1491-1.6575 3.2271-2.191.0133-.0118.0264-.0236.0394-.0356l-.0378-.0147c.0015.016.0009.0328-.0016.0503-.3205.2825-.7722.5073-1.5265.8009-.0632.0246-.1281.0496-.2127.082l-.2104.0804-.0193-.0411c.7602-.4461 1.373-1.101 1.4359-1.6037.0163-.0204.0317-.0411.0464-.0623l-.0411-.0134c-.0003.0248-.0021.05-.0053.0757-.2103.2638-.5585.4671-1.2282.7712l-.0214.0097c-.061.0276-.234.1058-.2898.1314-.0928.0425-.1702.0789-.242.1139l-.0238-.0385c.3346-.2679.4511-.3633.6332-.5233.3427-.3013.6041-.5748.78-.83308.1795-.26359.261-.50033.2322-.70768.0107-.01699.0209-.03404.0306-.05117l-.0415-.00593c.0046.01878.0083.03781.0109.0571-.2433.38912-.7137.74579-1.4671 1.17536-.1193.0681-.4182.2323-.6286.3479l-.0005.0003-.0001.0001c-.1064.0584-.1901.1044-.2163.1191l-.0257-.0373c.4801-.4188.7506-.78565.7777-1.24836l.038-.02846-.036-.01885c-.0004.01588-.001.03165-.002.04731-1.0273.76496-2.2878 1.30916-3.608 1.63306l-.0118-.0291-.0004-.0011h-.0001l-.0047-.0116c.3216-.1963.6588-.5631.758-.8233.0181-.012.036-.024.0537-.0361l-.0345-.0245c-.0048.0194-.0112.0397-.0192.0606-.9673.6401-2.4063 1.0713-3.4595 1.142-.9528.0635-1.5696.1443-2.3149.3246-.142-.1448-.5608-.137-1.0822.0067-.0084-.0094-.0171-.0188-.0261-.0279l-.0099.038.036-.0101c.1812.2036.2365.4731.2199.8994l-.042.0084-.0049.0318c.0223-.4587-.0342-.7339-.231-.9355l.0099-.038c.5536-.1579 1.001-.1697 1.141-.0111.7268-.1872 1.3461-.2683 2.3014-.3319 1.0654-.0715 2.531-.5154 3.491-1.1704l.0345.0244c-.0604.2458-.3667.6085-.6864.838 1.2842-.3301 2.5057-.8706 3.5014-1.62152l.0361.01884c-.0102.45165-.2364.80928-.6493 1.19728l.0455-.025c.2104-.1156.509-.2797.628-.3475.7794-.44448 1.2528-.80977 1.4808-1.20962l.0414.00593c.0577.23576-.0252.50386-.228.80169-.1784.262-.4422.5381-.7876.8417-.152.1336-.2584.2222-.4829.4028l.0673-.031c.0551-.0253.2237-.1015.2871-.1302l.0001-.0001.0027-.0012h.0001l.0214-.0097c.7134-.3241 1.0578-.5322 1.2561-.8181l.041.0134c-.0058.4869-.5471 1.1228-1.2608 1.5922.0788-.0302.1405-.0539.2007-.0773.7805-.3038 1.2343-.5332 1.5515-.8275l.0377.0146c.0455.4838-1.6066 1.62-2.8827 2.1478 1.2127-.3078 1.9267-.5359 2.3328-.784l.0336.0248c-.0141.0612-.0719.1323-.1683.2178-.0369.0328-.079.0672-.1283.1054-.0345.0267-.0615.047-.1216.0918-.5595.4172-1.4002.7077-2.2964.8592.0877.3712-.0451.5668-.4274.5944-.431.0315-1.3459-.1406-1.751-.3589-.0525.0319-.1103.0494-.1954.0619.41.3212.5716.5721.4705.7321-.0827.1313-.3277.1465-.6419.0851.0732.2471-.0257.3932-.2529.4161-.187.0189-.4476-.0488-.6979-.1774.1793.2741.1505.4783-.1217.5356-.3115.0656-.5407.0335-.8019-.1295-.0344.1766-.1898.2879-.388.2784.6971.4396.8034.6581.6027.93-.1501.2041-.6647.1886-.9774.0007-.1331.3909-.5936.422-.9679.0992-.0497.2327-.4333.4466-.7216.275zm-.7023-4.2869c.011-.0298.0192-.062.0244-.0967l-.0267-.0259-.9965.1986-.0014.0312c-.0084-.0046-.0169-.0093-.0253-.0141l-.0062.0422.0022.0012.0282-.0058-.0011.0199c.3873.196.8153.1847.9718-.0852.3392.1859.8752.0947 1.0481-.1658.4863.1775.941.0709 1.022-.3792l-.0296-.0257-.9549.3303c.0136-.0384.02-.0796.0178-.1233zm-.0099.0245c.0035-.008.0068-.0161.0099-.0245l-.0453.0126-.005.0416c.0065.0038.0131.0076.0197.0112l.0064-.0116.0447-.0136c.3194.1542.8.0666.9723-.1499l.0247.0093c.0037-.0056.0072-.0112.0105-.0169l.04-.0138c.4351.1469.828.0538.919-.3178l.0377-.0131-.0295-.0257c-.0023.0132-.0051.0262-.0082.0388l-.919.3178c-.0092-.003-.0183-.0062-.0274-.0095.0054-.0112.0103-.0227.0144-.0344l-.026.009c.0169-.0341.0267-.0707.028-.1094l-1.0365.3156c-.0103-.005-.0205-.0102-.0304-.0157zm1.0293-.1729c.0071.0027.0141.0053.0212.0078-.0039.0079-.0081.0157-.0126.0233l-.0212.0074.0003-.0192c.0044-.0063.0085-.0128.0123-.0193zm0 0c-.0039-.0015-.0079-.003-.0118-.0045l-.0005.0238c-.0045.0066-.0093.0131-.0143.0194l-.0015-.0006.0007-.0429.037-.0128c-.003.0059-.0062.0118-.0096.0176zm-1.0293.1729c-.0044.0101-.0092.0199-.0143.0293l-.0079.0024.0049-.0415.0071.0041zm-.9585.0994-.0329.0068.0011-.0235c.0106.0058.0212.0113.0318.0167zm.9422-.194c-.0778.3583-.5281.4046-.9422.194zm0 0c.0024-.0108.0044-.022.006-.0334l.0267.0267zm4.9108-1.3917.0005.0011.0141.0422c.0221-.008-.6169.2253-.8412.3044-.0666.0235-.1308.0459-.1931.0673-.4507.1549-.7898.2557-1.0054.2921l-.0107-.0443 2.0345-.6623c-.0303.0111-.6256.2284-.8403.304-.0664.0235-.1305.0458-.1927.0672-.4485.1542-.7859.2544-.9984.2903l.0107.0443 2.0358-.6628-.0144-.0433.0005-.0002zm-5.9303 1.578-.0005.0112-.0011-.0006zm-7.9329-2.2686c.144.2116.5217.5218.7593.5972.0172.1679.0875.3307.2058.4618l-1.0754-.3479-.0287.0276c.0251.0948.0675.1783.1225.2496l-.7407-.3029c.0613.0012.1286-.003.2019-.0129l.0122-.0396-.5317-.4863c.0938.0215.1882.0381.2831.0496l.013-.043-2.0564-1.0705-.0259.03691c.4919.47129 1.0632.83139 1.6645.99639-.0383.0875-.0482.1988-.0197.2963l-1.1464-.4121-.0219.0392c.2518.2098.6452.3339 1.1899.4291.0029.006.006.0119.0093.0177.0489.0862.1321.1467.2506.177-.0208.0515-.0309.1011-.0307.1476-.5473-.105-.8936-.1386-1.0372-.0748-.0745.0333-.124.0806-.1458.1351-.0966-.038-.188-.0698-.2885-.101-.0398-.0123-.0814-.0247-.1291-.0386.0276.008-.2949-.0834-.4127-.1186l-.0058-.0018v.0001l-.0003-.0001-.0127.0453.8375.262c-.0083.0794.0369.1688.1426.2508.0373.0288.0817.0565.1324.0828-.1072.0518-.1476.1365-.1249.2272l-1.6978-.485-.0182.0413c.4374.2808.9848.4307 1.7377.4995.0204.0389.0519.0779.0944.115-.0511.0599-.071.1274-.0634.1961-.1011-.0032-.2455.0228-.34.0627l.0119.0452.3392-.0553c.0205.0659.0652.1314.1309.1911.5468.499 1.8967.4893 3.1733.0411.0289.065.1033.1097.2223.1433.0483.0137.0973.0254.1468.035l-1.5715.6854.0122.0436c.4772-.0707 1.1474-.3847 1.6425-.7146.1314.0196.2661.0259.4017.0195-.058.109-.0681.2488-.0261.3673l-1.6623.5944.0139.0435c.5474-.1627 1.2628-.415 1.6666-.5946.0497.1013.1423.18.2809.1981l-1.6678.7372.0147.0431c.3897-.102 1.1624-.4426 1.7538-.7712.1694.0093.3566-.0092.5495-.0493-.036.0754-.0574.1499-.0646.2206l-1.5925.7536.0152.0428c.4824-.1248.9181-.3447 1.5746-.7409.0005.1067.0348.2027.1009.2782l-1.4568.7412.0147.0428c.1584-.0336.3472-.1058.5616-.2108.1176-.0575.2409-.124.3695-.1982.1836-.1061.328-.1969.5461-.3395.0738.0661.1769.1116.3073.1274.0149.0018.03.0031.0454.004l-1.1923.5638.0142.043c.2648-.0567.5178-.1613.7902-.3126.0615-.0341.1868-.1094.2986-.1765v-.0001h.0002c.0867-.0521.1652-.0993.1993-.1185.1361-.0095.2876-.0489.4477-.1152-.0714.1131-.1096.2035-.1156.2831l-1.2179.6146.0175.042c.214-.0755.8327-.394 1.2014-.6037.0061.053.0282.102.066.1509.0379.049.0826.0755.1417.0802l-.8338.3917-.0006.0002v.0001l-.001.0005.0179.0419c.2872-.117.6786-.3001 1.0096-.4717.0891-.0328.1986-.0868.3359-.1615.1082-.0586.2356-.1418.3816-.2474.0384-.0278.0778-.0569.1186-.0876-.0311.114-.0325.2123-.008.2943l-1.3387.8196.0197.0409c.3587-.139 1.0227-.5584 1.3368-.8133.0343.0745.0933.133.1735.1747l-.9303.5979.0209.0404c.3543-.1516.7642-.4188.9622-.6144l.0088.0035c.2068.0778.4151.0801.6102-.0236l-.799.6058.025.0379c.3895-.2333.8517-.5781 1.0035-.7614l-.0308-.0329-.0019.0014-.0063-.0352-.9415-.4149c.0519-.0401.1059-.0825.1649-.1293.0353-.028.1238-.0988.1669-.1332l.0002-.0002.0008-.0006.0003-.0002.0227-.0182-.018-.0404-.6168.1153.4313-.3335-.0263-.0372c-.1379.0936-.3466.2466-.5419.3962l-.5569.1041c.3307-.1844.6808-.4683.9962-.8288l-.0201-.0378-.8144.1173c.0351-.0233.0713-.0475.1088-.0728l.0934-.0631.1533-.1036c.0922-.062.1661-.1107.2362-.1551l.0029-.0018-.0001-.0001.0005-.0003-.0234-.039-.7808.4659-.7203.1037c.4435-.1615.8666-.4109 1.1257-.6762.1102-.0154.2239-.0369.3396-.0652l.0058.0011-.0001-.0025.0097-.0024-.0012-.0446-1.3516-.2619c.0862-.0065.1749-.017.2653-.0317l.0027-.0445-1.5507-.4588-.0289.0208c-.0007.0158-.0001.0313.0018.0467l-1.6289-.802-.0324.0193c-.0009.0176-.0012.0352-.0009.0528l-.7229-.56zm.7558.5479-.0005-.019.044.0341-.0195.0402c-.0067-.0018-.0136-.0038-.0205-.006l-.0008-.0083.0133.0103.0195-.0402c-.0114-.0031-.0233-.0068-.0355-.0111zm-.1253-.0581-.4544-.3521c-.0566-.0573-.1047-.1135-.1388-.1636l-.0323.0311.1711.1325c.1296.1314.3035.2686.4544.3521zm0 0c.0443.0245.0867.0443.1253.0581.0006.0137.0015.0274.0027.041zm1.838.794-.051-.025c.0013.0104.0033.0207.0058.0309l-.0306.0077-1.5923-.784c0-.0116.0003-.0233.0009-.0349l-.0324.0194.0315.0155c-.0013.3201.2035.6374.5755.7504.3294.1001.6526.1126.9257.0591-.0695.0211-.1389.0456-.2067.0727-.228.0153-.4783-.011-.732-.0881-.1262-.0383-.2343-.0991-.3227-.1752l.0105-.0084-.0073-.0396-.0783-.0253c.0131.0145.0268.0286.041.0423-.0059.0045-.0119.0089-.0179.0132l-1.0713-.3466c-.0045-.0134-.0085-.027-.0122-.0409l-.0287.0277.0409.0132c.0464.1388.134.2495.2435.3281l-.1034-.0264-.0007-.0007.0098-.003.0019-.0431-.0845-.0345c.0117.0151.0239.0297.0367.0437l-.0293.0085-.8832-.3612.0026-.0063c.0406.0073.0847.0115.1325.0124l-.1386-.0567-.0289.0115c-.0035.0077-.0069.0154-.01.023.0086.0022.0174.0043.0263.0061l-.0042.0017.0203.0083c-.0201.0495-.0288.0969-.0267.1411l-.0103-.0026-.0013-.0003-.0348-.0067c.0001.0161.0014.0319.004.0473-.5419-.1043-.8912-.1389-1.0232-.0802-.1659.0742-.1828.2176-.0056.355.0458.0354.1027.0689.1693.1005l-.0043-.001-.0126.0005c-.017.0057-.0327.0121-.0472.0191.016.0084.0327.0166.05.0247l-.0013.0001.003.0007.0026.0012c-.178.0641-.1854.2165-.0231.3477l-.0046-.0007-.0192.0065c-.0057.0059-.0111.0118-.0162.0178.011.0096.0228.0191.0354.0285-.0958.1115-.0625.2537.0734.3773.5208.4753 1.8137.4754 3.054.0574l.0868.0123.0023.0054.0153-.0055-.0043-.0441-.0005-.0001.003-.0409-.0254-.0064c.0059-.0454.025-.0977.0575-.1586.05-.0932.1622-.1933.3078-.2859.0412-.007.0805-.0145.1175-.0226l.0007-.0445-.0029-.0008c.0836-.0457.1743-.0883.2681-.1259.0754-.005.1484-.0146.2183-.0284-.386.1173-.7696.3429-.8699.53-.1043.1948-.0598.2741.1491.333.6078.1725 1.3315.0159 1.8844-.375l.0225.0116c.0036.0067.0076.0133.0119.0198-.2253.1608-.4788.2832-.7419.3609l-.52.0511-.0165.0099c-.0075.0111-.0144.0226-.0207.0346.016-.0008.0319-.0017.0479-.0028l-.0064.0038.0107-.001c-.1221.1946-.0572.5272.2276.5636.0255.0033.0516.0058.0781.0076l-.0849.0375.0012.0001.0174.0021c-.1967.1074-.4108.2152-.6225.3145l-.4883.2159c-.2253.0929-.4263.1652-.5722.2034l.0147.043.5575-.2464c.1546-.0638.3207-.1372.4883-.2159l.697-.308.0076.0004.0331-.0185-.0128-.0262c.1715.0074.3614-.0138.5566-.0571-.0099.0175-.019.035-.0274.0525.0189-.004.0379-.0081.0568-.0124-.1774.3313-.0521.6384.3244.6841.0434.0053.0892.0064.1373.0036l-.0971.0459.0172.0008c-.0375.0224-.0836.05-.1319.0791l-.0002.0001c-.0677.0406-.1398.084-.1995.1192l-.6195.2929c-.084.0284-.1682.0518-.2535.0701l.0142.043.2393-.1131c.1721-.0582.3437-.1376.5244-.2379.0235-.013.0567-.0324.0951-.055l.423-.2.0016-.0001.0089-.0049.0006-.0002-.0001-.0001.0009-.0005-.0193-.0395c.1501-.0095.3212-.0575.5028-.1397-.0167.0241-.032.0473-.0461.0697.0252-.0105.0507-.0216.0764-.0334-.1634.2395-.1866.3659-.0892.4922.0523.0676.1283.0801.2617.0351l-.1558.0732c.0055.0004.0112.0007.0169.0007-.2916.1463-.6085.2924-.8507.391l-.0006.0003.0179.0419.9854-.463c.0076-.0025.0153-.0053.0232-.0082l.0508-.0264-.0175-.0359c.0766-.0319.169-.0783.2815-.1394.1062-.0576.2321-.1399.3767-.2444.0505-.0365.103-.0755.1579-.1173l.0107-.0081c-.0094.0257-.0174.0507-.024.075l.0402-.0304.0221-.0169c-.1007.2878-.016.4679.1985.5481.2541.0956.5077.0711.7355-.1372l.0315.0139-.0067-.0373c-.0083.008-.0165.0159-.0248.0234l-.9335-.4113.0413-.0316-.0457-.0202-.0055.0023c.0592-.0454.1205-.0934.1885-.1474l.1193-.0951.0896-.0168-.0181-.0404-.0228.0182-.0487.039-.615.1149.0794-.0613-.0374.0069c.1724-.1306.3474-.2581.4676-.3397l-.0263-.0371-.502.3882-.0388.0072c-.0269.0206-.0535.0412-.0796.0615l-.6172.1153c.0461-.0221.0928-.0464.1399-.0727l-.1538.0288c.348-.1684.7302-.4586 1.0747-.8414l.0614-.0088-.0201-.0378c-.0137.0157-.0275.0312-.0413.0466l-.8491.1223c.0292-.019.0591-.0387.0899-.059l-.0918.0132.6835-.4078.0028-.0019-.0234-.0389c-.0714.0453-.1466.0947-.2406.1579l-.1534.1037-.0933.0631c-.0669.0451-.13.087-.1898.1259l-.1032.0149-.1017.0607-.8768.1262c.0862-.0241.1726-.052.2582-.0832l-.2677.0385c.4999-.1404 1.0103-.4108 1.3192-.7052.0245-.0028.0493-.006.0742-.0095l.0061-.0062-.0159-.0335c.0814-.0114.1649-.0264.2499-.0451l.0995.0196.0057-.0014-.001-.0428c-.035.0089-.0697.0171-.1042.0246l-1.4371-.2826c.0647-.0004.1312-.003.1992-.0081l-.1936-.0376c.1113-.0009.2282-.0087.3492-.0242l.0998.0295.0028-.0445c-.0345.0056-.0687.0106-.1026.015l-1.4215-.4206c-.0008-.0098-.001-.0196-.0005-.0295l-.0289.0208.0294.0087c.0011.0135.0035.0268.0071.0399zm.0031.0059.0003-.0041-.0034-.0018.0014.005-.0063-.0031-.0082-.0011.0001-.0003-.0008.0002-.0063-.0007-.0251.0059.001.0039-.0252.0069-.0064-.0031c-.0303.0078-.0607.0163-.0911.0255.0333-.0065.0658-.0139.0975-.0224l.0323.0159c.002.0056.0042.0112.0065.0168-.0413.0099-.083.0213-.1247.034.0433-.0086.0855-.0188.1263-.0305.0678.1532.2746.278.5667.3448l-.9176.3044.0096.0459c.4149-.0531.6518-.1424.9985-.3312l-.0004-.0009c.0351.0063.0713.0117.1084.0164l.2721.1391.0128-.0092c.0028.007.0061.014.0097.0208l.0109.0055-.0031-.0389-.0175.0126c-.0055-.0135-.0095-.0274-.012-.0417l.0531.0272.003.0389-.0225.0162c.0561.0841.1739.15.3353.1921l-.176.0804-.9012.0884c-.1654.049-.3346.0802-.5029.0923l.0037-.0056-.0101.0061.0064-.0005-.0021.0033 1.2781-.1254-.7707.3523.0161.0426c.3091-.0983.6496-.2512.9502-.4141l.7261-.0712c.0607-.0033.1231-.0086.1868-.016l.0027-.0026.0635-.0062-.018-.0382.0162-.0022-.0024-.0052-.3449.0338c-.5238.011-.8859-.1378-.8445-.3563h.0046l-.0045-.0009c.0013-.0066.003-.0133.005-.02l-.0258.0159.0208.0041-.0001.0009c-.0155.0001-.0309 0-.0461-.0002.0018-.0112.0045-.0226.008-.0341l.0185-.0113.0298-.0001-.0225-.0043-.0073.0044c-.1001-.0002-.1955-.0061-.285-.0168zm-.0003.0039.0003-.0039-.0017-.0009zm.0294.0623c-.0128-.0202-.0226-.041-.0294-.0623l-.0026.0343-.0143.0044-.004-.0021.0079-.0018-.0152-.0019.0073.0037-.0125.003.0016.0035.0149-.0044zm.5743.2938c.046.0089.0941.0164.1439.0223l.1097.0561c-.0424-.003-.0837-.007-.1239-.012zm-.5743-.2938.5743.2938c-.2842-.0547-.4913-.1623-.5743-.2938zm.8279.3722.149.0762c-.0039-.0224-.0041-.0458-.0002-.0701-.0508-.0006-.1005-.0027-.1488-.0061zm1.3695.3364.0007-.0007.0003.0005zm0 0c-.1151.0155-.2258.024-.3301.0262l-.2913.0286c-.0551-.0059-.1074-.0138-.1564-.0237l.0053-.0031-.0207-.0405-.0584.0267.0086.0022c-.0424.0244-.0859.0488-.1303.0729l-.0543.0053-.1281.0586.0763-.0075c-.273.1418-.5713.2719-.8444.3588l.0161.0426.8916-.4076.056-.0055c.0342-.0185.0679-.0372.1009-.0559l.2378-.0233c.1175.0125.248.0155.3874.008l.1895-.0186c.0154-.0147.0302-.0294.0445-.0442zm-.888.081.0288-.0029c.0276-.0156.0547-.0313.0814-.047l-.0009-.0001.0041-.0019-.0206-.0406-.0478.0279c.0208.0052.0422.0101.0643.0146zm0 0-.0853.0083c-.0348.019-.0703.0378-.1061.0564l.0633-.0062zm-.7183-.4466.0045.0008-.0169-.0425-.0732.0243.0194.0043c-.0876.0466-.1686.0866-.2481.1211l-.3715.1232c-.0945.0221-.1967.0399-.3133.0548l.0096.046.3037-.1008c.133-.0311.2506-.0708.3715-.1232l.3156-.1047zm0 0c-.0225-.004-.0445-.0084-.0662-.0131l.0503-.0271zm-.6604-.3825c-.0027-.0075-.0051-.0151-.0071-.0228.0102-.0029.0203-.0059.0304-.0091l.0007.0001-.0032.0421zm.7706 1.5649-.0099.0179c.0495-.0113.0993-.024.1491-.038zm0 0 .0054-.0095-.0162.011zm1.1288-.1626-.1128.0163-.5935.3541.0194.0411c.2449-.0928.4744-.2185.7951-.427l-.1036.0149.1017-.0607-.0142.002c-.0315.0206-.0622.0403-.0921.0593zm-.0627.0396c.0205-.0128.0414-.026.0627-.0396l.0046-.0006zm0 0c-.071.0442-.1376.084-.2013.1201zm-.2013.1201c-.1561.0884-.2949.1546-.4387.2091l.0194.041zm.1323.5931-.0081.0118c.0121-.0056.0241-.0112.0363-.0171zm0 0 .0053-.0076-.0144.0093zm.6844-.1279-.039.0073c-.1792.139-.336.2674-.3999.3323l.0297.0343.5073-.3923-.0389.0073c.0268-.0205.0538-.0411.0809-.0617l-.0607.0114zm0 0-.4365.3375.0297.0343c.0706-.0718.2599-.2248.466-.3829zm.4149.1585-.0002.0006.0005-.0004zm0 0 .0082-.0225-.0302.0129zm-.0096-.0493-.0289.0222.0043-.0117zm-.8566.5318.0009-.0004-.0024-.0051-.0009.0004-.0001-.0001-.0009.0005-.0653.0307.0198-.0069c-.0516.0267-.1047.0538-.1587.0808.0427.0005.0926-.0095.152-.0298l.073-.0342zm0 0c-.0171.0071-.0334.0134-.0489.0191l.0455-.0238.001-.0004zm-.2188-.5623c-.0177.0085-.0352.0168-.0527.0247l.0065-.0095.0144-.0093zm-.5566.1644.0195.04-.0005.0003-.0105.005c-.0313.0022-.0618.0027-.0914.0016.0372-.022.066-.0389.0804-.0467zm0 0h.0011l-.0007-.0014-.0034.0016h.0005l.002-.0011zm-.3251-.7702c-.0565.0159-.113.0302-.169.0426l.006-.0104.0163-.011zm-.728.0996.0132.0272-.0387.0172c-.0253-.0016-.0501-.0037-.0745-.0065.0241-.0131.0479-.0263.0715-.0394zm0 0 .0024.0001-.0072-.0147-.0289.0128.0052.0003.0218-.0122zm-.7845-1.3904.0076-.0042-1.0386-.2652c.0903-.0235.1762-.0645.252-.124l-.0115-.0101-.0063-.0338c-.0053.0044-.0108.0087-.0163.0129.0074.0071.0149.0141.0226.0209l.0011.0057-.0416-.0134c-.091.0644-.1958.1022-.304.1153l-.5238-.1338c.0526.0378.1101.0681.1705.0908l-.1897-.0485c-.0296-.0207-.0578-.0436-.0842-.0687l-.0017-.0004.001-.0003-.0051-.0049.0018-.0419-.0328.0099c.01.0111.0204.0217.031.032v.0011l-.0603-.0246-.0231.0063-.8868-.2264c.0009.0169.0033.0332.0073.0491l-.0282-.0072.0006.0001-.0012-.0003.0006.0002-.0215-.0042c.0398.2415.3799.3803.9292.236l.1734.0442c.1559.1093.3518.1583.5395.1378l1.0396.2654c-.5841.1027-1.6015.0889-2.4422-.0303l-1.099-.2778c.2554.1213.6522.2145 1.099.2778l.3508.0887c-.123-.0127-.2442-.0275-.362-.0443l-1.0967-.2772.0061-.0021-.0113.0004.0017.0008.0035.0009-.0009.0003c.2599.1208.6548.2135 1.0976.2769l1.9585.4949c-.0175.0011-.0354.0021-.0534.0029l-3.0258-.427c.0248.02.0536.0396.0863.0583l-.0857-.0121.0077-.0082-.0191.0066.0114.0016-.0052.0059c.0517.0386.116.0744.1925.1047.5268.2091 1.9849.3564 2.8357.316l.0992.014c.0249-.0084.0498-.0169.0747-.0257l.0022-.0002c.0018.0135.0051.0262.0099.0382l.0071.001-.0039-.0404.0093-.0009.0003-.004-.0077-.0011.0029-.0403-.0184.0017.0008-.0076-1.7173-.434c.7532.0775 1.5726.076 2.0826-.0105.0187-.0119.0381-.0237.0579-.0353l.0491.0125zm0 0c-.0169.0094-.0335.0188-.0498.0284l-.0491-.0126c.0345-.006.0676-.0125.0989-.0194zm-.4743.5521c-.0009-.0115-.0007-.0236.0005-.0363-.0382.0036-.0783.0065-.12.009l.0933.0236-.1467-.0207c-.087.0042-.1805.0064-.2787.0068l-2.6608-.3755c.0348.0198.0741.0387.1179.056.4674.1855 1.6874.3226 2.5429.3195l.2765.039c.0613-.0029.1194-.0068.1739-.0117l.0021-.0007.0001.0005.0131-.0012-.0002-.0018.0017.0004.0004-.0046zm.0003.003-.0003-.003-.0262-.0037zm.0102.0026-.0096.0034-.0006-.006zm0 0 .0034.0009-.0002-.002zm-.8652-.856-.1593-.0406c.0515.0192.105.0329.1593.0406zm0 0 .1905.0487c.0362-.004.0722-.0106.1075-.0198l-.104-.0265c-.0642.0078-.1296.0068-.194-.0024zm-.6165-.1574c.0306-.0067.062-.0145.0941-.0232l.0875.0224c-.0297.0091-.0589.0173-.0875.0249zm0 0-.7854-.2005c.0481.1919.3256.3025.7854.2005zm-.7821-.4007.0187.0037.006-.0135zm7.1954 3.2548.0012-.0012-.0004-.0021-.1968.1492c.0632-.0336.125-.0783.1849-.1352-.1575.1812-.6049.5138-.9819.7396l.0251.038.9977-.7564zm0 0-.0111.0107.01-.0118zm-.8185.1647.0035.0013.012-.0121-.0281-.0354-.0367.0236.008.0042c-.0783.0751-.1874.1605-.3118.2453l-.1819.1169c-.1441.0874-.2974.1683-.4412.2298l.0209.0404.4203-.2702c.0629-.0381.124-.0774.1819-.1169zm0 0 .0117-.0075-.0281-.0354c-.0079.008-.0162.0162-.0249.0245.0132.0065.027.0127.0413.0184zm-.2244-.2009.0016.0036.0234-.0192-.0261-.0372-.0151.0092.0007.0024c-.1264.1039-.3157.2377-.5194.3686l-.316.1935c-.1871.1086-.3659.2012-.5004.2533l.0197.0409.4807-.2942c.1049-.0609.2123-.1268.316-.1935zm0 0c-.006-.0132-.0111-.027-.0155-.0412l.0118-.0097.026.0372zm-1.2444-.0373.0003.0021.0329-.0189.0012-.0006-.0213-.0403-.0138.0069-.0001.001c-.3633.208-1.0005.5368-1.2153.6125l.0175.042zm0 0c-.0017-.0162-.002-.0327-.0008-.0498l.0128-.0073.0212.0403zm-.7972-.3506.0015.0014.0165-.0108-.0224-.0396-.0292.0149.0023.0026c-.1486.097-.2629.1699-.3796.2406l-.8347.4246c-.0864.032-.1665.056-.2394.0715l.0148.0428.2246-.1143c.0962-.0357.2005-.0812.3118-.1357.1165-.057.239-.123.3667-.1968.0545-.0314.1056-.0616.1562-.0921zm0 0c-.0111-.01-.0216-.0205-.0313-.0315l.0247-.0162.0224.0396zm-.1345-.316v.0037l.0298-.018-.0212-.0403-.0059.0028v.0007c-.1583.0958-.3037.1814-.4399.258l-.8476.4011c-.1001.0356-.1996.0662-.3011.0924l.0151.0429.286-.1353c.2633-.0938.5304-.2228.8476-.4011zm0 0 .0277-.0131-.0212-.0403-.0038.0023c-.0018.0173-.0027.0343-.0027.0511zm-.8643-.4314.0005.0011.0158-.0071-.0166-.0424-.0174.0062.0005.0013c-.4017.1787-1.1157.4305-1.6615.5928l.0138.0434zm0 0c-.0065-.0133-.0122-.0269-.0172-.0409l.0154-.0069.0166.0425zm-.3947-.4292.0014.0002.0055-.0037-.0213-.04-.0674.0293.0173.0033c-.0686.0448-.1404.0891-.2143.1324l-1.1545.5035c-.0748.0195-.1466.0346-.2143.0446l.0122.0436.2021-.0882c.3578-.093.7832-.2857 1.1545-.5035zm0 0c-.0216-.0033-.0431-.0069-.0645-.0109.0157-.0102.0312-.0204.0466-.0307l.0214.0401zm-3.7565-.4296.0014.0049.022-.0036-.0011-.0468c-.01-.0011-.0207-.0018-.032-.0022l.0008.0065-.3359.0548.0119.0452c.0924-.0391.2385-.0643.3329-.0588zm0 0c-.0041-.0138-.007-.0275-.0089-.0412l.0253-.0042.0012.0468c-.0057-.0006-.0115-.0011-.0176-.0014zm-.042-.3613.0013.0025.0131.0012.0081-.0448-.0429-.0122.0022.0081c-.0775-.0073-.1529-.0154-.2261-.0246l-1.3154-.3757c-.0524-.0284-.1032-.0584-.1525-.09l-.0183.0412.1708.0488c.352.1907.776.3086 1.3154.3757zm0 0c-.0078-.0151-.0138-.0302-.0182-.0452l.0366.0034-.0081.0448zm-.1704-.6156-.0001.0015.0176.0055.0145-.0447-.0016-.0006-.0001-.0001-.0188-.0074-.0005.0014-.8298-.2596-.0058-.0017-.0127.0452c.1128.0339.4475.1288.4191.1206.0476.0137.0888.026.1284.0383.101.0314.1926.0633.2898.1016zm0 0c.0017-.0152.0054-.03.011-.0444l.0193.006.0001.0001-.0145.0447zm.9637-.4518.0016.0034.0015.0002.0114-.044-.0345-.0124.0019.0063c-.0935-.0167-.1824-.0342-.2668-.053l-.7403-.2661c-.0489-.0297-.0937-.0614-.1344-.0954l-.022.0392.1564.0562c.1869.1136.4333.1977.7403.2661l.2842.1021zm0 0c-.0071-.015-.0132-.0306-.0181-.0465l.0288.0051zm.0457-.384-.0314.0052c-.0053.0096-.0101.0195-.0146.0297l.0297.008.0117.0106c-.0429.0983-.0459.232.0091.3289.0757.1334.2496.1991.5358.1696l.0369.0337.0122-.0396c-.0167.0023-.0331.0042-.0491.0059l-.5449-.4985.003-.0068c.0257.0067.0515.0129.0773.0188l-.07-.064c.0747.0193.1498.0356.2252.0486l.1203.0626.013-.043c-.0446-.0054-.089-.0119-.1333-.0196l-1.7863-.92981c-.0419-.0375-.0832-.07583-.1241-.11493l-.0258.03691.1499.07802c.4673.41851.9994.73431 1.5554.87971zm0 0 .0034-.0006.0023.0021zm-.0016.0467-.0147-.0038-.0104-.0096.0348-.0058c-.0034.0062-.0066.0126-.0097.0192zm6.9828 4.7034-.0024.0026.0001.0001-.0006.0007.0337.0304c.1503-.1633.386-.4442.4802-.5718l-.0353-.0285-.001.0011-.0001-.0001-.0013.0018zm0 0c.1487-.1618.3798-.4373.4733-.5637l.0014-.0017.0352.0284-.4786.57-.0336-.0303z" fill="#000"/><path d="m42.4904 10.9367c.0681-.0365.1019-.0468.1784-.0615.0189-.0037.0306-.0063.043-.0099.0483-.0142.0899-.0414.1453-.0984.358-.3693.9326-.78099 1.2713-.92842l.0027.00629c.0125-.00585.0211-.00291.0361.01249.0064.00656.0284.03357.0375.04483l.004.00489c.0672.07889.1408.10462.2604.0595.0752-.02859.1131-.08383.1279-.16337.0042-.02267.0057-.03721.0088-.07906.0039-.05221.0082-.06543.0169-.06622l-.0001-.00113.002-.00042c.0621-.01321.1227-.01873.191-.01702l.0012-.04568c-.0707-.00177-.134.00385-.1984.01732-.0071.00068-.0132.002-.0186.00409-.0561.01295-.1148.03199-.1904.06089-.0499.01907-.2655.10663-.2633.10575-.3392.13573-.9466.56687-1.3212.95317-.0503.0518-.0854.0748-.1257.0866-.0107.0031-.0212.0055-.0389.0089-.0804.0155-.1182.027-.1911.066zm2.0764-1.26907c.0056-.02952.0148-.04553.033-.05264l.0155-.00344.0031-.00065.0003-.00003.0039.04583c-.014.00295-.0243.00482-.0329.00639-.0063.00114-.0117.00212-.017.00325zm-.3784.14621.0718-.02877c.2312-.0927.2737-.10974.3066-.11744-.0026.01426-.0045.03168-.006.05277-.003.03993-.0043.05346-.0081.0737-.012.06454-.0403.10575-.099.12807-.1008.03805-.1556.01888-.2112-.0465l-.0011-.00129v-.00001c-.0058-.00716-.0338-.04172-.0425-.05069-.0035-.0036-.007-.00688-.0105-.00984zm0 0c-.0236-.01985-.0478-.02516-.0758-.01207l.0158.03671c.0117-.00511.0232-.0099.0343-.01436zm8.0625 2.20576-.021.0078-.0156-.0428.0362-.0136c.0012.0157.0013.0319.0004.0486zm-.1722.4056c.0687-.0845.1321-.2054.1585-.3154.0075-.0315.0121-.0616.0137-.0902.9853-.3681 1.535-.6048 2.196-.9903.3416-.1993.659-.4145.9517-.6491l-.028-.0358c-.2909.2331-.6065.4471-.9462.6453-.6548.3819-1.2005.6174-2.1739.9813-.007-.0927-.0513-.165-.1364-.2071.8619-.2832 1.6678-.6644 1.9765-.9707l-.0316-.0327c-.3095.3071-1.1378.695-2.0146.978-.2575.0831-.519.1572-.7729.2175-.0591-.0287-.1307-.053-.2151-.0724-.5394-.1243-1.3514.0072-1.8479.2965-.0668-.017-.1332-.0327-.1982-.0467.1508-.1358.2299-.3101.1685-.4737l-.0422.0162c.1245.3318-.4274.7329-.9009.6425l-.0084.0449c.2613.0499.5454-.0413.7386-.1926.239.0497.5006.1232.7347.206l.0004.0029.0052-.0009c.2751.0976.5115.2081.6278.3079.1343.115.2051.2173.2008.2955-.0046.0857-.1028.1517-.3123.1892-.2604.0468-.4277.0587-.6596.0333-.0454-.009-.0908-.0177-.1363-.0264l-.0015.0082c-.0863-.013-.1828-.0301-.2951-.0514-.3201-.2283-.8114-.4528-1.3187-.6293l-.0147.0432c.4997.1738.9849.3954 1.3004.6185l-.0014.0075.0163.0031c.0901.0648.1656.1297.2228.1935.1387.1548.1212.2576-.031.3169-.1501.0585-.4167.0651-.7227.0184-.5749-.0881-1.5296-.5822-2.0144-1.0203l-.0301.0341c.2929.2646.7536.5487 1.2017.7538l-.0013.0013c.1105.1126.2133.2768.2593.4261.043.14-.0126.2084-.1396.1982-.1705-.0131-.2963-.043-.4606-.1221l-.0065.0139c-.0787-.091-.1846-.1777-.3181-.2515-.3647-.2016-.8399-.6253-1.061-.9361l-.0366.0267c.225.3163.7053.7446 1.076.9496.4193.2315.5477.587.4199.7749-.1129.1662-.4899.188-.8657-.0378-.4492-.2701-.9682-1.1289-1.0378-1.7338l-.0448.0053c.0712.6187.5979 1.4901 1.0595 1.7678.0751.0451.1506.0808.2244.1077.0341.0953.0481.2142.0395.3999-.0108.2329-.1802.3902-.3867.3113-.2039-.0777-.3611-.2506-.4664-.4655l-.0404.0203c.1098.2243.2746.4055.4909.488.0566.0216.1109.0279.1609.0214.1221.2619.1891.4541.1806.5241-.0129.1053-.04.1375-.1354.115l-.0102.0446c.1279.03.1747-.0254.1904-.154.0099-.0813-.0564-.2732-.18-.5394.0253-.0077.0492-.0188.0715-.0329.1718.2297.2977.3933.4528.5826.0466.0568.0918.1108.1357.1619.1628.1895.3015.3325.41.418l.0278-.036c-.1057-.0834-.2427-.2245-.4037-.412-.0437-.0508-.0887-.1046-.135-.1611-.1545-.1884-.28-.3516-.4513-.5805.0776-.0673.1277-.1761.1336-.3036.0052-.1122.0023-.2015-.0083-.2767.4477.5231 1.4991 1.5045 1.8121 1.6837l.0222-.0398c-.3202-.1833-1.4424-1.2357-1.8515-1.7349l-.0009.0008-.0048-.0172c.2623.0816.4973.0513.6135-.0603.2622.3466 1.0799.8332 1.5015.9147l.0085-.0449c-.4142-.0801-1.2314-.5678-1.4795-.9048l.0042-.006c.0766-.1126.0735-.2736-.0119-.4364.2981.2522.7992.6239 1.2631.9497l.0257-.0375c-.4958-.3483-1.0351-.7498-1.3201-.9991.1305.0534.2449.0764.3894.0876.067.0054.12-.0092.1549-.0407.3154.3318 1.1264.9999 1.4486 1.1608l.0199-.041c-.3182-.1589-1.1314-.8294-1.4402-1.156.0236-.044.0261-.1052.003-.1804-.0389-.1264-.1157-.2615-.2045-.3708.2692.1168.5289.2022.7395.2345.0633.0096.125.0171.1845.0223l-.003.0033c.3967.3553 1.1316.8416 1.5629 1.0495l.0194-.0413c-.4132-.1991-1.1103-.6579-1.5117-1.0065.12.0072.2294.0047.3223-.0075.1229.1005.3508.2412.6779.4243.0423.0237.0862.0481.1321.0733.1118.0616.3808.2066.5474.2964l.1375.0742.0215-.0402-.1382-.0746c-.1667-.0898-.4351-.2345-.5466-.2959-.0458-.0252-.0896-.0495-.1318-.0731-.2975-.1666-.5125-.2979-.6388-.3943.041-.008.078-.0183.1103-.0309.0334-.013.0615-.0283.0842-.0458.8356.5328 1.3677.814 1.9117.9417l.0102-.0445c-.5353-.1257-1.0624-.4036-1.888-.9296.0407-.0495.0471-.1114.0169-.1827.0949.0384.2066.0856.3487.1468.0636.0274.2435.1056.3614.1569l.104.0451.0909.0394c.5211.2245.8482.3527 1.0726.4109l.0113-.0442c-.2214-.0575-.5473-.1852-1.0662-.4088l-.0909-.0393-.1035-.045-.0004-.0001c-.1178-.0512-.2978-.1295-.3616-.157-.1685-.0726-.2946-.1255-.4005-.1675l-.0002.0003c-.0145-.0216-.0319-.0439-.0525-.0668-.0428-.0478-.0952-.0959-.1559-.1441.134.0245.2446.0421.3438.0531.8622.1698 1.6942.3928 1.8977.5693l.0294-.0347c-.1895-.1643-.8718-.3597-1.6371-.522.1173-.0039.2361-.0194.3844-.0461.1243-.0222.2151-.0555.2731-.0995l.0003.0032c.0345-.0036.0685-.0075.1019-.0119.3905.1703 1.0169.2169 1.3195.0703.0952.1918-.0523.4808-.2224.5358l.0138.0435c.0937-.0303.18-.1197.2323-.2286.4443.1048 1.4427.125 1.9268.0175l-.0094-.0462c-.4744.1053-1.4564.0862-1.8986-.0153.0193-.0512.031-.1053.0325-.1587.6637.0607 1.4628.0102 1.8703-.1865l-.0189-.0429c-.3994.1928-1.1954.2427-1.8528.1819-.0038-.0425-.0146-.0838-.0338-.1221.005-.0031.01-.0062.0148-.0094.0514-.0343.0936-.0725.1267-.113.8168-.1185 1.4192-.31 1.9689-.5879.1189-.0601.3678-.2018.569-.3163h.0001c.1338-.0761.2466-.1403.2859-.1604.0716-.0367.1387-.0679.2046-.0948l-.0168-.0424c-.0673.0274-.1355.0591-.2082.0964-.0402.0206-.1546.0857-.2897.1626-.2009.1142-.4476.2546-.5651.314-.5357.2709-1.122.459-1.9122.5772.0367-.0604.0551-.1244.0559-.1875 1.3735-.3481 2.5632-.8674 3.363-1.5314l-.0287-.0353c-.7921.6576-1.9728 1.1736-3.3369 1.5203-.0127-.1-.0704-.1947-.1706-.2653.7256-.1566 1.2023-.3715 2.1208-.8888l.06-.0338c.2608-.1469.4014-.2243.5638-.3083l-.0206-.0407c-.1629.0843-.3039.1619-.5652.3091l-.06.0338c-.8881.5002-1.3602.7159-2.0458.8703zm-.0541.0577c.018-.0163.0362-.0358.0541-.0577-.0215.0048-.0432.0096-.0651.0143l.0088.0418c-.0073-.0051-.0149-.01-.0226-.0148l-.0236.0389.012.0077c-.3903.3144-.7756.5003-1.2926.582-.0252-.0094-.0496-.0192-.0731-.0295l-.0179.042.0011.0005c.0304-.004.0604-.0083.0899-.013.3947.1463.9786.1755 1.2366.0282l-.0044.0346-.0104.0061c.0028.0047.0053.0095.0078.0144.0139-.0068.0272-.014.0398-.0216-.0027-.0053-.0056-.0106-.0086-.0159l-.0283.0168.0049-.0349c.0076-.0044.0149-.0089.022-.0136.2487-.1657.2583-.4236.0611-.5761l.0069-.0489-.0006-.0029zm-.0166.044.0042-.0334-.024.0196c.0068.0045.0134.0091.0198.0138zm0 0 .0081.0062-.0831.5897-.0008.0005zm-.0799.6308-.0003.0002-.0026.0205zm.0965-.6748-.0015.0013.0026-.0006zm.1717.266c.0019.0153.0028.0308.0026.0464l-.0255.0064-.0109-.0443zm-.0533.2339-.06.0088.0063.0453.0172-.0025c.0137-.0168.0259-.0341.0365-.0516zm-.1442.2961-.0191-.0018-.0042.047.0247.0023c.0005-.0159 0-.0318-.0014-.0475zm-.0311.2062-.0255-.0061-.0104.0459.0171.0042c.0069-.0144.0132-.0291.0188-.044zm-1.417-.4162c-.017.002-.0342.0039-.0515.0056l.0043.0423c.0194-.0148.0351-.0307.0472-.0479zm-.1023-.3375c.0892.0925.1356.1775.1315.2532-.0017.0307-.0114.0588-.0292.0843.591-.0694 1.0065-.2616 1.4331-.6109.083-.0681.177-.2234.2095-.359.0383-.1596-.0058-.2713-.1478-.3128l.0686-.0223c-.0208-.0103-.044-.0188-.0697-.0254l-.0111.0443.0122.0034c-.238.0764-.4793.1452-.7148.2025-.0181-.0115-.0378-.0224-.0592-.0327l-.0014.0003.0103.0445.0503-.0121c.0832.0527.1324.117.1486.1906.024.1094-.0294.2299-.1274.3234-.1677.1599-.5292.2537-.9035.2287zm-.0517-.0501-.0048-.0005-.0045.0455c.0203.0021.0407.0038.061.0051-.0159-.0164-.0331-.0331-.0517-.0501zm-.5985-.3177c.2467.0922.4554.194.565.2881.0116.01.0227.0198.0335.0296.3819.0377.7589-.0542.9242-.2119.0875-.0834.1343-.189.1143-.2801-.025-.1136-.1492-.206-.3888-.2612-.5137-.1183-1.2848.0011-1.7744.2685-.0212-.0056-.0423-.0111-.0635-.0165l-.0111.0066.0228.0394c.0169-.01.0341-.0199.0518-.0295.1476.0394.2961.085.4354.134l-.0139.0024.0071.0437.0056.002c.0289-.005.0596-.0101.092-.0151zm0 0c.364-.0568.9294-.1121 1.2223-.1121v-.0472c-.319 0-.9559.0647-1.3131.1263.0308.0108.0611.0218.0908.033zm.0478.8988c-.093.0031-.1851-.001-.29-.0126-.0459-.0091-.0918-.0179-.1377-.0267l.0068-.0367c.0489.0073.0945.0134.1378.0182.0951.0187.1897.038.2831.0578zm-.4254.1452-.0163.0422.0507.0203c-.0085-.0201-.02-.0409-.0344-.0625zm.0175.2452c-.0095.0115-.0208.0223-.0339.0324l-.0144-.0092.0241-.0386zm-.2284.1091c-.0136-.0103-.0261-.0202-.0376-.0298l-.0286.0354.0052.0043c.0212-.0028.0415-.0061.061-.0099zm-.3833.0174c-.0222-.0014-.0447-.0031-.0676-.005l.027-.0309c.0131.0118.0267.0238.0406.0359zm-.7901.2894-.0123-.0131-.0329.0313.0169.018c.0114-.0103.0209-.0224.0283-.0362zm-.6046-.0242c.0108.0047.0214.0092.032.0135-.0223-.0195-.0431-.0381-.0621-.0556l-.0016.0017-.0105-.0123-.0129.0273.0069.0033-.0123.0138c.0357.0329.0773.0693.1238.1087-.0175-.0335-.0386-.0671-.0633-.1004zm0 0c-.0157-.0069-.0318-.0142-.0482-.0221l.0165-.0183c.0111.0134.0217.0269.0317.0404zm.071.5428c-.009.0124-.0192.0241-.0305.035-.0069-.0091-.0134-.0181-.0195-.027l.0371-.0261c.0041.006.0084.012.0129.0181zm-.6392.1125c.0074.0279.0135.0577.0181.0902-.0184-.0214-.0357-.042-.0519-.0618zm-.1072.6705-.0134-.0179-.036.0275.0131.0175c.0127-.0081.0248-.0172.0363-.0271zm-.1078.06-.0153-.0326-.0407.0196.0106.0227c.0155-.0021.0307-.0053.0454-.0097zm.2102-.7477c-.0177-.0055-.0355-.0115-.0534-.018l-.0024-.0066.0422-.0161c.0049.0132.0094.0267.0136.0407zm.9761-1.1651c-.0321-.0139-.0643-.0283-.0966-.0431l.0308-.0309c.0224.0229.0445.0477.0658.074zm1.3774-.3208c-.0259-.0206-.0534-.0412-.0822-.0617l-.026-.005-.007.0374.0149.0106c.0349.0067.0683.0129.1003.0187zm-.2463-1.026c.0154-.0121.0302-.0245.0444-.0373-.0185-.004-.0369-.0079-.0552-.0116l-.0089.0448zm-2.7559-.4631c-.1893.0543-.2954.1091-.4947.2384l.0238.0401c.196-.127.2986-.1802.4829-.233zm.8802.9434c.5198.2975 1.2186.6318 1.7037.8096l.0154-.043c-.4826-.1768-1.1791-.5101-1.6969-.8064zm1.8898.0258c-.375-.0781-.6989-.1292-1.0254-.1578l.0039-.0455c.3284.0288.654.0801 1.0306.1585.1511.0315.3071.0664.507.1131l.189.0444c.1248.0294.2725.0642.3326.0782l-.0101.0445c-.0602-.014-.208-.0488-.3328-.0782l-.1888-.0444c-.1996-.0465-.3553-.0814-.506-.1128zm-3.2338.1582c.0917.2793.7415 1.1019 1.0479 1.2968l.024-.0387c-.2976-.1893-.9407-1.0034-1.0291-1.2725zm.5705 1.9801c-.1013-.2497-.7296-1.1959-1.0659-1.6418l.0359-.0277c.3388.4492.9684 1.3973 1.0718 1.6522zm-.1585-2.0445c.2097.2405.8966.7695 1.2095.897l.0169-.0424c-.3058-.1246-.9872-.6493-1.1926-.8849zm-1.2759-2.5633c-.1264.0662-.2187.1631-.2947.2981l.0389.024c.0719-.1276.1579-.218.276-.2799zm-2.0992 1.4929c-.0124-.172.0051-.3959.0514-.5568l.0434.0128c-.0447.1552-.0618.3738-.0498.5407zm.0308.2834c-.037.1595-.0096.5305.0409.7357l.0438-.011c-.0489-.1988-.0758-.5631-.0407-.7142zm.1597 1.2272c-.021-.0336-.0368-.0653-.047-.0951l.0425-.0159c.0089.0259.0232.0545.0423.0853.0241.0385.0551.0796.0924.1235.0309.0363.0561.0636.1042.1142l-.032.0333c-.0487-.0512-.0743-.079-.1059-.1161-.0387-.0455-.0711-.0884-.0965-.1292zm.1759-.9544c-.0208.2651.1236.7683.2702.9389.0322.2822.2261.6861.4999.9644l.032-.0322c-.2667-.2712-.4562-.6658-.4925-.9502-.1436-.1729-.2844-.6639-.2646-.9173zm-.0609-.2955c-.0234-.1675-.029-.3355-.01-.4422l.0444.008c-.0179.101-.0125.2647.0103.4279zm.3881-1.4828c-.09.229-.1402.7136-.1134.9027.0051.0362.0044.0454-.0114.1975-.0289.2774-.0175.4879.0734.7597l.0428-.0147c-.0885-.2646-.0996-.4688-.0713-.7402.0165-.159.0171-.1667.0112-.2088-.0257-.1814.0236-.6579.1106-.8793zm.3151 1.7556c-.0963-.3263-.0998-1.1099-.0003-1.5244l.0439.0108c-.0977.407-.0943 1.1823-.0003 1.5005zm-.1227.123c-.0545.2433-.0487.5251.0211.7372l.0429-.0145c-.0671-.2036-.0727-.477-.02-.7127zm.8198-.3734c-.2707-.3049-.4346-.7594-.4234-1.1143l.0451.0015c-.0108.3431.149.7862.4118 1.0822zm-.4946.0245c-.0312.3938-.0088.7555.0622.9621.0183.0533.0312.1181.0493.2369.0085.0566.0134.0889.0176.1156.0071.0455.0136.0839.0206.1207.0341.1792.0788.3112.1498.4132l.0369-.0264c-.0665-.0955-.1094-.222-.1424-.3955-.0068-.0362-.0133-.0741-.0203-.1192-.0042-.0265-.009-.0587-.0176-.1154-.0185-.1215-.0317-.1881-.0512-.2449-.0686-.1995-.0906-.5554-.0599-.9434zm.3637.6421-.017-.0647.0437-.0118.017.065c.0234.0916.0373.1607.0437.2296.0093.0996.0004.1855-.0311.2589l-.0415-.0182c.0282-.0655.0363-.1439.0276-.2364-.0061-.066-.0195-.133-.0424-.2224zm.2479-.3646c.0751.2489.1219.5534.1111.6857l.045.0038c.0113-.139-.0363-.4489-.1129-.7028zm.3177 2.0144c-.093-.1649-.1772-.4283-.1965-.641l.045-.0041c.0186.206.1009.4631.1907.6225zm-.5313-.0144c.0852.2592.2316.5268.364.6323l.0279-.0359c-.1237-.0986-.2664-.3594-.3491-.6108zm1.2525.7254c-.0904-.2762-.1497-.4104-.2925-.6156l.0369-.0263c.1459.2096.2068.3474.2984.6275z" fill="#000"/><path d="m43.6992 14.4562c.0282.003.0457.0042.0941.0066.1125.0057.152.0172.2027.0714.0334.0356.0665.0896.1023.1681.125.274.4666.693.6662.8235h-.0002c.2644.4693.3818 1.0886.2997 1.421-.0235-.1463-.1057-.2589-.2324-.3511-.0492-.0358-.0806-.0541-.1661-.1-.1131.0998-.2781.2146-.3614.2325l.0094.0447c.094-.0202.2664-.1402.3581-.2416.0416.0367.069.0559.0994.0772.0108.0075.0219.0153.0342.0243.118.0858.193.1887.2143.3218l.0444-.0073-.003.0116.0436.0119c.0877-.3279-.0184-.9307-.2681-1.4071.3077.1429.5044.304.5429.5312l.0428.0055.0222-.05c.1026-.2332.1416-.3934.1025-.5589l.0038.0047.0362.0439c.1132.1375.1966.2388.2583.3153l-.0043.0006c.0061.0435.0118.1098.0186.2109.0012.018.0045.0703.0082.1297.005.0806.0109.1745.0136.2136.0162.24.0324.4.0546.5043l.0441-.0096c-.0215-.1014-.0376-.26-.0537-.4978-.0026-.039-.0085-.1326-.0135-.2133-.0038-.0595-.0071-.1119-.0083-.13-.0041-.0612-.0078-.1098-.0114-.1486.0961.1217.1213.1644.1343.2104.0039.0139.0068.028.0101.0447v.0001l.0038.0186c.0376.1817.1824.4309.3277.591l.0332-.031c-.1402-.1545-.2809-.3968-.3167-.5694l-.0048-.0239c-.0036-.0181-.0066-.0334-.0108-.0483-.0226-.0794-.0799-.149-.4426-.5896l-.0419-.0509c-.0308-.0374-.0586-.0717-.0849-.1049l-.0381.0239c.0898.1975.0645.3616-.0543.6346-.067-.2177-.2727-.3716-.5774-.5096-.1759-.0796-.5598-.5395-.6913-.8278-.0377-.0826-.0733-.1406-.1105-.1804-.0608-.0649-.1101-.0793-.2332-.0855-.0476-.0024-.0646-.0035-.0916-.0064zm2.1938 1.459c-.0025-.026-.0049-.0476-.0075-.0656l-.0404.0058c.0177.0219.0335.0417.0479.0598zm-.8291 1.0321h.0002l-.0001-.0005zm-.2275-1.3836-.0242-.0111c-.0147-.0067-.0307-.0157-.0477-.0268l.039-.0226c.0113.0199.0222.0401.0329.0605zm-.8207-.4148c.0791.2411.142.5306.1484.6981l.0451-.0017c-.0066-.1726-.0703-.466-.1507-.7109zm.6846 1.1886c-.0071-.1352-.0912-.4894-.175-.7254l.0425-.0154c.0851.2398.1702.598.1776.7384zm.7889-.0822c.0655.1598.1069.4121.0937.5624l.045.0041c.0139-.1579-.0288-.4176-.097-.584z" fill="#000"/></g></g></svg>