<svg width="61" height="53" viewBox="0 0 61 53" fill="none" xmlns="http://www.w3.org/2000/svg">
<rect x="1" y="3" width="59" height="42.5" rx="4.24286" fill="white"/>
<mask id="mask0" mask-type="alpha" maskUnits="userSpaceOnUse" x="1" y="3" width="59" height="43">
<rect x="1" y="3" width="59" height="42.5" rx="4.24286" fill="white"/>
</mask>
<g mask="url(#mask0)">
<path fill-rule="evenodd" clip-rule="evenodd" d="M1 8.66667H60V3H1V8.66667Z" fill="#369D0C"/>
<path fill-rule="evenodd" clip-rule="evenodd" d="M1 45.4999H60V39.8333H1V45.4999Z" fill="#369D0C"/>
<path fill-rule="evenodd" clip-rule="evenodd" d="M1 19.9999H60V14.3333H1V19.9999Z" fill="#369D0C"/>
<path fill-rule="evenodd" clip-rule="evenodd" d="M1 34.1667H60V28.5H1V34.1667Z" fill="#369D0C"/>
<path fill-rule="evenodd" clip-rule="evenodd" d="M1 28.5H60V20H1V28.5Z" fill="#262626"/>
<path fill-rule="evenodd" clip-rule="evenodd" d="M1 14.3333H60V8.66663H1V14.3333Z" fill="#FFD40E"/>
<path fill-rule="evenodd" clip-rule="evenodd" d="M1 39.8333H60V34.1666H1V39.8333Z" fill="#FFD40E"/>
<path d="M-0.395284 44.0857V4.41429H0.525337L26.7507 24.25L0.525337 44.0857H-0.395284Z" fill="white" stroke="#262626" stroke-width="2.82857"/>
<path fill-rule="evenodd" clip-rule="evenodd" d="M9.42859 27.0126L5.3001 29.9806L6.82338 25.1037L2.74855 22.0612L7.81848 22.0152L9.42859 17.1667L11.0387 22.0152L16.1086 22.0612L12.0338 25.1037L13.5571 29.9806L9.42859 27.0126Z" fill="url(#paint0_linear)"/>
</g>
<defs>
<linearGradient id="paint0_linear" x1="2.40479" y1="17.1667" x2="2.40479" y2="31.3334" gradientUnits="userSpaceOnUse">
<stop stop-color="#F12F1F"/>
<stop offset="1" stop-color="#DE2010"/>
</linearGradient>
</defs>
</svg>
