<svg fill="none" height="53" viewBox="0 0 61 53" width="61" xmlns="http://www.w3.org/2000/svg" xmlns:xlink="http://www.w3.org/1999/xlink"><linearGradient id="a" gradientUnits="userSpaceOnUse" x1="2.40479" x2="2.40479" y1="17.1667" y2="31.3334"><stop offset="0" stop-color="#f12f1f"/><stop offset="1" stop-color="#de2010"/></linearGradient><mask id="b" height="43" maskUnits="userSpaceOnUse" width="59" x="1" y="3"><rect fill="#fff" height="42.5" rx="4.24286" width="59" x="1" y="3"/></mask><rect fill="#fff" height="42.5" rx="4.24286" width="59" x="1" y="3"/><g mask="url(#b)"><g clip-rule="evenodd" fill-rule="evenodd"><path d="m1 8.66667h59v-5.66667h-59z" fill="#369d0c"/><path d="m1 45.4999h59v-5.6666h-59z" fill="#369d0c"/><path d="m1 19.9999h59v-5.6666h-59z" fill="#369d0c"/><path d="m1 34.1667h59v-5.6667h-59z" fill="#369d0c"/><path d="m1 28.5h59v-8.5h-59z" fill="#262626"/><path d="m1 14.3333h59v-5.66667h-59z" fill="#ffd40e"/><path d="m1 39.8333h59v-5.6667h-59z" fill="#ffd40e"/></g><path d="m-.395284 44.0857v-39.67141h.920621l26.225363 19.83571-26.225363 19.8357z" fill="#fff" stroke="#262626" stroke-width="2.82857"/><path clip-rule="evenodd" d="m9.42859 27.0126-4.12849 2.968 1.52328-4.8769-4.07483-3.0425 5.06993-.046 1.61011-4.8485 1.61011 4.8485 5.0699.046-4.0748 3.0425 1.5233 4.8769z" fill="url(#a)" fill-rule="evenodd"/></g></svg>