<svg width="61" height="53" viewBox="0 0 61 53" fill="none" xmlns="http://www.w3.org/2000/svg">
<rect x="1" y="3" width="59" height="42.5" rx="4.24286" fill="white"/>
<mask id="mask0" mask-type="alpha" maskUnits="userSpaceOnUse" x="1" y="3" width="59" height="43">
<rect x="1" y="3" width="59" height="42.5" rx="4.24286" fill="white"/>
</mask>
<g mask="url(#mask0)">
<path fill-rule="evenodd" clip-rule="evenodd" d="M1 8.66667H60V3H1V8.66667Z" fill="#262626"/>
<path fill-rule="evenodd" clip-rule="evenodd" d="M1 45.4999H60V39.8333H1V45.4999Z" fill="#262626"/>
</g>
<path d="M14.9775 31.0332L22.7227 18.8623L21.208 18.916H15.3428V17.0469H25.6553V18.0137L17.8887 30.1523L19.5322 30.1094H25.6553V32H14.9775V31.0332ZM35.1514 31.0332L42.8965 18.8623L41.3818 18.916H35.5166V17.0469H45.8291V18.0137L38.0625 30.1523L39.7061 30.1094H45.8291V32H35.1514V31.0332Z" fill="#262626"/>
</svg>
