<svg fill="none" height="53" viewBox="0 0 61 53" width="61" xmlns="http://www.w3.org/2000/svg" xmlns:xlink="http://www.w3.org/1999/xlink"><mask id="a" height="43" maskUnits="userSpaceOnUse" width="59" x="1" y="3"><rect fill="#fff" height="42.5" rx="4.24286" width="59" x="1" y="3"/></mask><rect fill="#fff" height="42.5" rx="4.24286" width="59" x="1" y="3"/><g fill="#262626"><g clip-rule="evenodd" fill-rule="evenodd" mask="url(#a)"><path d="m1 8.66667h59v-5.66667h-59z"/><path d="m1 45.4999h59v-5.6666h-59z"/></g><path d="m14.9775 31.0332 7.7452-12.1709-1.5147.0537h-5.8652v-1.8691h10.3125v.9668l-7.7666 12.1386 1.6435-.0429h6.1231v1.8906h-10.6778zm20.1739 0 7.7451-12.1709-1.5147.0537h-5.8652v-1.8691h10.3125v.9668l-7.7666 12.1386 1.6436-.0429h6.123v1.8906h-10.6777z"/></g></svg>